<?xml version="1.0" encoding="utf-8" standalone="no"?>
<!DOCTYPE svg PUBLIC "-//W3C//DTD SVG 1.1//EN"
  "http://www.w3.org/Graphics/SVG/1.1/DTD/svg11.dtd">
<svg xmlns:xlink="http://www.w3.org/1999/xlink" width="235.436115pt" height="169.028466pt" viewBox="0 0 235.436115 169.028466" xmlns="http://www.w3.org/2000/svg" version="1.1">
 <metadata>
  <rdf:RDF xmlns:dc="http://purl.org/dc/elements/1.1/" xmlns:cc="http://creativecommons.org/ns#" xmlns:rdf="http://www.w3.org/1999/02/22-rdf-syntax-ns#">
   <cc:Work>
    <dc:type rdf:resource="http://purl.org/dc/dcmitype/StillImage"/>
    <dc:date>2023-10-27T18:14:38.463739</dc:date>
    <dc:format>image/svg+xml</dc:format>
    <dc:creator>
     <cc:Agent>
      <dc:title>Matplotlib v3.7.3, https://matplotlib.org/</dc:title>
     </cc:Agent>
    </dc:creator>
   </cc:Work>
  </rdf:RDF>
 </metadata>
 <defs>
  <style type="text/css">*{stroke-linejoin: round; stroke-linecap: butt}</style>
 </defs>
 <g id="figure_1">
  <g id="patch_1">
   <path d="M 0 169.028466 
L 235.436115 169.028466 
L 235.436115 0 
L 0 0 
L 0 169.028466 
z
" style="fill: none"/>
  </g>
  <g id="axes_1">
   <g id="patch_2">
    <path d="M 32.776366 139.988242 
L 231.201932 139.988242 
L 231.201932 12.641765 
L 32.776366 12.641765 
L 32.776366 139.988242 
z
" style="fill: none"/>
   </g>
   <g id="PathCollection_1">
    <defs>
     <path id="me6901d3580" d="M -2.8 2.8 
L 2.8 -2.8 
M -2.8 -2.8 
L 2.8 2.8 
" style="stroke: #0000ff; stroke-width: 0.75"/>
    </defs>
    <g clip-path="url(#p95b9ef6733)">
     <use xlink:href="#me6901d3580" x="46.440898" y="76.449555" style="fill: #0000ff; stroke: #0000ff; stroke-width: 0.75"/>
     <use xlink:href="#me6901d3580" x="74.046013" y="26.885924" style="fill: #0000ff; stroke: #0000ff; stroke-width: 0.75"/>
     <use xlink:href="#me6901d3580" x="101.651128" y="32.954024" style="fill: #0000ff; stroke: #0000ff; stroke-width: 0.75"/>
     <use xlink:href="#me6901d3580" x="119.935586" y="-1" style="fill: #0000ff; stroke: #0000ff; stroke-width: 0.75"/>
    </g>
   </g>
   <g id="matplotlib.axis_1">
    <g id="xtick_1">
     <g id="line2d_1">
      <defs>
       <path id="m0a050b794d" d="M 0 0 
L 0 3.5 
" style="stroke: #000000; stroke-width: 0.8"/>
      </defs>
      <g>
       <use xlink:href="#m0a050b794d" x="32.776366" y="139.988242" style="stroke: #000000; stroke-width: 0.8"/>
      </g>
     </g>
     <g id="text_1">
      <!-- $\mathdefault{0}$ -->
      <g transform="translate(30.659275 154.623044) scale(0.08 -0.08)">
       <defs>
        <path id="CMR17-30" d="M 2688 2025 
C 2688 2416 2682 3080 2413 3591 
C 2176 4039 1798 4198 1466 4198 
C 1158 4198 768 4058 525 3597 
C 269 3118 243 2524 243 2025 
C 243 1661 250 1106 448 619 
C 723 -39 1216 -128 1466 -128 
C 1760 -128 2208 -7 2470 600 
C 2662 1042 2688 1559 2688 2025 
z
M 1466 -26 
C 1056 -26 813 325 723 812 
C 653 1188 653 1738 653 2096 
C 653 2588 653 2997 736 3387 
C 858 3929 1216 4096 1466 4096 
C 1728 4096 2067 3923 2189 3400 
C 2272 3036 2278 2607 2278 2096 
C 2278 1680 2278 1169 2202 792 
C 2067 95 1690 -26 1466 -26 
z
" transform="scale(0.015625)"/>
       </defs>
       <use xlink:href="#CMR17-30" transform="scale(0.996264)"/>
      </g>
     </g>
    </g>
    <g id="xtick_2">
     <g id="line2d_2">
      <g>
       <use xlink:href="#m0a050b794d" x="65.847294" y="139.988242" style="stroke: #000000; stroke-width: 0.8"/>
      </g>
     </g>
     <g id="text_2">
      <!-- $\mathdefault{2}$ -->
      <g transform="translate(63.730202 154.623044) scale(0.08 -0.08)">
       <defs>
        <path id="CMR17-32" d="M 2669 989 
L 2554 989 
C 2490 536 2438 459 2413 420 
C 2381 369 1920 369 1830 369 
L 602 369 
C 832 619 1280 1072 1824 1597 
C 2214 1967 2669 2402 2669 3035 
C 2669 3790 2067 4224 1395 4224 
C 691 4224 262 3604 262 3030 
C 262 2780 448 2748 525 2748 
C 589 2748 781 2787 781 3010 
C 781 3207 614 3264 525 3264 
C 486 3264 448 3258 422 3245 
C 544 3790 915 4058 1306 4058 
C 1862 4058 2227 3617 2227 3035 
C 2227 2479 1901 2000 1536 1584 
L 262 146 
L 262 0 
L 2515 0 
L 2669 989 
z
" transform="scale(0.015625)"/>
       </defs>
       <use xlink:href="#CMR17-32" transform="scale(0.996264)"/>
      </g>
     </g>
    </g>
    <g id="xtick_3">
     <g id="line2d_3">
      <g>
       <use xlink:href="#m0a050b794d" x="98.918221" y="139.988242" style="stroke: #000000; stroke-width: 0.8"/>
      </g>
     </g>
     <g id="text_3">
      <!-- $\mathdefault{4}$ -->
      <g transform="translate(96.80113 154.623044) scale(0.08 -0.08)">
       <defs>
        <path id="CMR17-34" d="M 2150 4122 
C 2150 4256 2144 4256 2029 4256 
L 128 1254 
L 128 1088 
L 1779 1088 
L 1779 457 
C 1779 224 1766 160 1318 160 
L 1197 160 
L 1197 0 
C 1402 0 1747 0 1965 0 
C 2182 0 2528 0 2733 0 
L 2733 160 
L 2611 160 
C 2163 160 2150 224 2150 457 
L 2150 1088 
L 2803 1088 
L 2803 1254 
L 2150 1254 
L 2150 4122 
z
M 1798 3703 
L 1798 1254 
L 256 1254 
L 1798 3703 
z
" transform="scale(0.015625)"/>
       </defs>
       <use xlink:href="#CMR17-34" transform="scale(0.996264)"/>
      </g>
     </g>
    </g>
    <g id="xtick_4">
     <g id="line2d_4">
      <g>
       <use xlink:href="#m0a050b794d" x="131.989149" y="139.988242" style="stroke: #000000; stroke-width: 0.8"/>
      </g>
     </g>
     <g id="text_4">
      <!-- $\mathdefault{6}$ -->
      <g transform="translate(129.872058 154.623044) scale(0.08 -0.08)">
       <defs>
        <path id="CMR17-36" d="M 678 2176 
C 678 3690 1395 4032 1811 4032 
C 1946 4032 2272 4009 2400 3776 
C 2298 3776 2106 3776 2106 3553 
C 2106 3381 2246 3323 2336 3323 
C 2394 3323 2566 3348 2566 3560 
C 2566 3954 2246 4179 1805 4179 
C 1043 4179 243 3390 243 1984 
C 243 253 966 -128 1478 -128 
C 2099 -128 2688 427 2688 1283 
C 2688 2081 2170 2662 1517 2662 
C 1126 2662 838 2407 678 1960 
L 678 2176 
z
M 1478 25 
C 691 25 691 1200 691 1436 
C 691 1896 909 2560 1504 2560 
C 1613 2560 1926 2560 2138 2120 
C 2253 1870 2253 1609 2253 1289 
C 2253 944 2253 690 2118 434 
C 1978 171 1773 25 1478 25 
z
" transform="scale(0.015625)"/>
       </defs>
       <use xlink:href="#CMR17-36" transform="scale(0.996264)"/>
      </g>
     </g>
    </g>
    <g id="xtick_5">
     <g id="line2d_5">
      <g>
       <use xlink:href="#m0a050b794d" x="165.060077" y="139.988242" style="stroke: #000000; stroke-width: 0.8"/>
      </g>
     </g>
     <g id="text_5">
      <!-- $\mathdefault{8}$ -->
      <g transform="translate(162.942985 154.623044) scale(0.08 -0.08)">
       <defs>
        <path id="CMR17-38" d="M 1741 2264 
C 2144 2467 2554 2773 2554 3263 
C 2554 3841 1990 4179 1472 4179 
C 890 4179 378 3759 378 3180 
C 378 3021 416 2747 666 2505 
C 730 2442 998 2251 1171 2130 
C 883 1983 211 1634 211 934 
C 211 279 838 -128 1459 -128 
C 2144 -128 2720 362 2720 1010 
C 2720 1590 2330 1857 2074 2029 
L 1741 2264 
z
M 902 2822 
C 851 2854 595 3051 595 3351 
C 595 3739 998 4032 1459 4032 
C 1965 4032 2336 3676 2336 3262 
C 2336 2669 1670 2331 1638 2331 
C 1632 2331 1626 2331 1574 2370 
L 902 2822 
z
M 2080 1519 
C 2176 1449 2483 1240 2483 851 
C 2483 381 2010 25 1472 25 
C 890 25 448 438 448 940 
C 448 1443 838 1862 1280 2060 
L 2080 1519 
z
" transform="scale(0.015625)"/>
       </defs>
       <use xlink:href="#CMR17-38" transform="scale(0.996264)"/>
      </g>
     </g>
    </g>
    <g id="xtick_6">
     <g id="line2d_6">
      <g>
       <use xlink:href="#m0a050b794d" x="198.131004" y="139.988242" style="stroke: #000000; stroke-width: 0.8"/>
      </g>
     </g>
     <g id="text_6">
      <!-- $\mathdefault{10}$ -->
      <g transform="translate(193.896821 154.623044) scale(0.08 -0.08)">
       <defs>
        <path id="CMR17-31" d="M 1702 4058 
C 1702 4192 1696 4192 1606 4192 
C 1357 3916 979 3827 621 3827 
C 602 3827 570 3827 563 3808 
C 557 3795 557 3782 557 3648 
C 755 3648 1088 3686 1344 3839 
L 1344 461 
C 1344 236 1331 160 781 160 
L 589 160 
L 589 0 
C 896 0 1216 0 1523 0 
C 1830 0 2150 0 2458 0 
L 2458 160 
L 2266 160 
C 1715 160 1702 230 1702 458 
L 1702 4058 
z
" transform="scale(0.015625)"/>
       </defs>
       <use xlink:href="#CMR17-31" transform="scale(0.996264)"/>
       <use xlink:href="#CMR17-30" transform="translate(45.690477 0) scale(0.996264)"/>
      </g>
     </g>
    </g>
    <g id="xtick_7">
     <g id="line2d_7">
      <g>
       <use xlink:href="#m0a050b794d" x="231.201932" y="139.988242" style="stroke: #000000; stroke-width: 0.8"/>
      </g>
     </g>
     <g id="text_7">
      <!-- $\mathdefault{12}$ -->
      <g transform="translate(226.967749 154.623044) scale(0.08 -0.08)">
       <use xlink:href="#CMR17-31" transform="scale(0.996264)"/>
       <use xlink:href="#CMR17-32" transform="translate(45.690477 0) scale(0.996264)"/>
      </g>
     </g>
    </g>
    <g id="text_8">
     <!-- time $t$ -->
     <g transform="translate(118.843978 167.091288) scale(0.1 -0.1)">
      <defs>
       <path id="CMR17-74" d="M 966 2560 
L 1862 2560 
L 1862 2725 
L 966 2725 
L 966 3904 
L 851 3904 
C 838 3245 614 2668 70 2668 
L 70 2560 
L 627 2560 
L 627 771 
C 627 650 627 -64 1370 -64 
C 1747 -64 1965 306 1965 777 
L 1965 1140 
L 1850 1140 
L 1850 783 
C 1850 344 1677 51 1408 51 
C 1222 51 966 178 966 758 
L 966 2560 
z
" transform="scale(0.015625)"/>
       <path id="CMR17-69" d="M 992 3909 
C 992 4049 877 4170 730 4170 
C 589 4170 467 4056 467 3909 
C 467 3769 582 3648 730 3648 
C 870 3648 992 3763 992 3909 
z
M 243 2706 
L 243 2541 
C 602 2541 653 2502 653 2197 
L 653 427 
C 653 184 627 153 218 153 
L 218 -13 
C 371 0 646 0 806 0 
C 960 0 1222 0 1370 -13 
L 1370 153 
C 992 153 979 191 979 420 
L 979 2776 
L 243 2706 
z
" transform="scale(0.015625)"/>
       <path id="CMR17-6d" d="M 4326 1933 
C 4326 2252 4269 2790 3507 2790 
C 3072 2790 2771 2496 2656 2151 
L 2650 2151 
C 2573 2676 2195 2790 1837 2790 
C 1331 2790 1069 2400 973 2144 
L 966 2144 
L 966 2790 
L 211 2720 
L 211 2554 
C 589 2554 646 2515 646 2208 
L 646 428 
C 646 184 621 153 211 153 
L 211 -13 
C 365 0 646 0 813 0 
C 979 0 1267 0 1421 -13 
L 1421 153 
C 1011 153 986 178 986 428 
L 986 1658 
C 986 2247 1344 2688 1792 2688 
C 2266 2688 2317 2266 2317 1958 
L 2317 428 
C 2317 184 2291 153 1882 153 
L 1882 -13 
C 2035 0 2317 0 2483 0 
C 2650 0 2938 0 3091 -13 
L 3091 153 
C 2682 153 2656 178 2656 428 
L 2656 1658 
C 2656 2247 3014 2688 3462 2688 
C 3936 2688 3987 2266 3987 1958 
L 3987 428 
C 3987 184 3962 153 3552 153 
L 3552 -13 
C 3706 0 3987 0 4154 0 
C 4320 0 4608 0 4762 -13 
L 4762 153 
C 4352 153 4326 178 4326 428 
L 4326 1933 
z
" transform="scale(0.015625)"/>
       <path id="CMR17-65" d="M 2438 1472 
C 2464 1498 2464 1511 2464 1576 
C 2464 2238 2118 2816 1389 2816 
C 710 2816 173 2169 173 1383 
C 173 551 781 -64 1459 -64 
C 2176 -64 2458 607 2458 740 
C 2458 784 2419 784 2406 784 
C 2362 784 2355 771 2330 696 
C 2189 265 1837 51 1504 51 
C 1229 51 954 203 781 480 
C 582 803 582 1176 582 1472 
L 2438 1472 
z
M 589 1568 
C 634 2505 1126 2714 1382 2714 
C 1818 2714 2112 2297 2118 1568 
L 589 1568 
z
" transform="scale(0.015625)"/>
       <path id="CMMI12-74" d="M 1286 2566 
L 1875 2566 
C 1997 2566 2061 2566 2061 2681 
C 2061 2752 2022 2752 1894 2752 
L 1331 2752 
L 1568 3692 
C 1594 3781 1594 3794 1594 3840 
C 1594 3943 1510 4000 1427 4000 
C 1376 4000 1229 3981 1178 3775 
L 928 2752 
L 326 2752 
C 198 2752 141 2752 141 2630 
C 141 2566 186 2566 307 2566 
L 877 2566 
L 454 881 
C 403 658 384 594 384 511 
C 384 211 595 -64 954 -64 
C 1600 -64 1946 868 1946 912 
C 1946 951 1920 970 1882 970 
C 1869 970 1843 970 1830 944 
C 1824 938 1818 931 1773 829 
C 1638 511 1344 64 973 64 
C 781 64 768 224 768 364 
C 768 370 768 492 787 568 
L 1286 2566 
z
" transform="scale(0.015625)"/>
      </defs>
      <use xlink:href="#CMR17-74" transform="scale(0.996264)"/>
      <use xlink:href="#CMR17-69" transform="translate(35.280768 0) scale(0.996264)"/>
      <use xlink:href="#CMR17-6d" transform="translate(60.151826 0) scale(0.996264)"/>
      <use xlink:href="#CMR17-65" transform="translate(137.071416 0) scale(0.996264)"/>
      <use xlink:href="#CMMI12-74" transform="translate(207.633043 0) scale(0.996264)"/>
     </g>
    </g>
   </g>
   <g id="matplotlib.axis_2">
    <g id="ytick_1">
     <g id="line2d_8">
      <defs>
       <path id="mf3841bfe04" d="M 0 0 
L -3.5 0 
" style="stroke: #000000; stroke-width: 0.8"/>
      </defs>
      <g>
       <use xlink:href="#mf3841bfe04" x="32.776366" y="139.988242" style="stroke: #000000; stroke-width: 0.8"/>
      </g>
     </g>
     <g id="text_9">
      <!-- $\mathdefault{−3}$ -->
      <g transform="translate(12.855677 142.755643) scale(0.08 -0.08)">
       <defs>
        <path id="CMSY10-0" d="M 4218 1472 
C 4326 1472 4442 1472 4442 1600 
C 4442 1728 4326 1728 4218 1728 
L 755 1728 
C 646 1728 531 1728 531 1600 
C 531 1472 646 1472 755 1472 
L 4218 1472 
z
" transform="scale(0.015625)"/>
        <path id="CMR17-33" d="M 1414 2157 
C 1984 2157 2234 1662 2234 1090 
C 2234 320 1824 25 1453 25 
C 1114 25 563 194 390 693 
C 422 680 454 680 486 680 
C 640 680 755 782 755 948 
C 755 1133 614 1216 486 1216 
C 378 1216 211 1165 211 926 
C 211 335 787 -128 1466 -128 
C 2176 -128 2720 430 2720 1085 
C 2720 1707 2208 2157 1600 2227 
C 2086 2328 2554 2756 2554 3329 
C 2554 3820 2048 4179 1472 4179 
C 890 4179 378 3829 378 3329 
C 378 3110 544 3072 627 3072 
C 762 3072 877 3155 877 3321 
C 877 3486 762 3569 627 3569 
C 602 3569 570 3569 544 3557 
C 730 3959 1235 4032 1459 4032 
C 1683 4032 2106 3925 2106 3320 
C 2106 3143 2080 2828 1862 2550 
C 1670 2304 1453 2304 1242 2284 
C 1210 2284 1062 2269 1037 2269 
C 992 2263 966 2257 966 2208 
C 966 2163 973 2157 1101 2157 
L 1414 2157 
z
" transform="scale(0.015625)"/>
       </defs>
       <use xlink:href="#CMSY10-0" transform="scale(0.996264)"/>
       <use xlink:href="#CMR17-33" transform="translate(77.487468 0) scale(0.996264)"/>
      </g>
     </g>
    </g>
    <g id="ytick_2">
     <g id="line2d_9">
      <g>
       <use xlink:href="#mf3841bfe04" x="32.776366" y="118.763829" style="stroke: #000000; stroke-width: 0.8"/>
      </g>
     </g>
     <g id="text_10">
      <!-- $\mathdefault{−2}$ -->
      <g transform="translate(12.855677 121.53123) scale(0.08 -0.08)">
       <use xlink:href="#CMSY10-0" transform="scale(0.996264)"/>
       <use xlink:href="#CMR17-32" transform="translate(77.487468 0) scale(0.996264)"/>
      </g>
     </g>
    </g>
    <g id="ytick_3">
     <g id="line2d_10">
      <g>
       <use xlink:href="#mf3841bfe04" x="32.776366" y="97.539416" style="stroke: #000000; stroke-width: 0.8"/>
      </g>
     </g>
     <g id="text_11">
      <!-- $\mathdefault{−1}$ -->
      <g transform="translate(12.855677 100.306817) scale(0.08 -0.08)">
       <use xlink:href="#CMSY10-0" transform="scale(0.996264)"/>
       <use xlink:href="#CMR17-31" transform="translate(77.487468 0) scale(0.996264)"/>
      </g>
     </g>
    </g>
    <g id="ytick_4">
     <g id="line2d_11">
      <g>
       <use xlink:href="#mf3841bfe04" x="32.776366" y="76.315004" style="stroke: #000000; stroke-width: 0.8"/>
      </g>
     </g>
     <g id="text_12">
      <!-- $\mathdefault{0}$ -->
      <g transform="translate(19.442183 79.082404) scale(0.08 -0.08)">
       <use xlink:href="#CMR17-30" transform="scale(0.996264)"/>
      </g>
     </g>
    </g>
    <g id="ytick_5">
     <g id="line2d_12">
      <g>
       <use xlink:href="#mf3841bfe04" x="32.776366" y="55.090591" style="stroke: #000000; stroke-width: 0.8"/>
      </g>
     </g>
     <g id="text_13">
      <!-- $\mathdefault{1}$ -->
      <g transform="translate(19.442183 57.857992) scale(0.08 -0.08)">
       <use xlink:href="#CMR17-31" transform="scale(0.996264)"/>
      </g>
     </g>
    </g>
    <g id="ytick_6">
     <g id="line2d_13">
      <g>
       <use xlink:href="#mf3841bfe04" x="32.776366" y="33.866178" style="stroke: #000000; stroke-width: 0.8"/>
      </g>
     </g>
     <g id="text_14">
      <!-- $\mathdefault{2}$ -->
      <g transform="translate(19.442183 36.633579) scale(0.08 -0.08)">
       <use xlink:href="#CMR17-32" transform="scale(0.996264)"/>
      </g>
     </g>
    </g>
    <g id="ytick_7">
     <g id="line2d_14">
      <g>
       <use xlink:href="#mf3841bfe04" x="32.776366" y="12.641765" style="stroke: #000000; stroke-width: 0.8"/>
      </g>
     </g>
     <g id="text_15">
      <!-- $\mathdefault{3}$ -->
      <g transform="translate(19.442183 15.409166) scale(0.08 -0.08)">
       <use xlink:href="#CMR17-33" transform="scale(0.996264)"/>
      </g>
     </g>
    </g>
    <g id="text_16">
     <!-- target-variable $y$ -->
     <g transform="translate(6.918498 112.132166) rotate(-90) scale(0.1 -0.1)">
      <defs>
       <path id="CMR17-61" d="M 2304 1653 
C 2304 2072 2304 2294 2035 2543 
C 1798 2752 1523 2816 1306 2816 
C 800 2816 435 2407 435 1971 
C 435 1728 627 1728 666 1728 
C 749 1728 896 1778 896 1954 
C 896 2112 774 2181 666 2181 
C 640 2181 608 2174 589 2168 
C 723 2592 1069 2714 1293 2714 
C 1613 2714 1965 2429 1965 1885 
L 1965 1600 
C 1587 1600 1133 1549 774 1357 
C 371 1133 256 813 256 570 
C 256 77 832 -64 1171 -64 
C 1523 -64 1850 139 1990 511 
C 2003 233 2182 -18 2464 -18 
C 2598 -18 2938 70 2938 567 
L 2938 920 
L 2822 920 
L 2822 562 
C 2822 178 2650 128 2566 128 
C 2304 128 2304 458 2304 738 
L 2304 1653 
z
M 1965 870 
C 1965 317 1568 38 1216 38 
C 896 38 646 275 646 570 
C 646 761 730 1100 1101 1305 
C 1408 1478 1760 1504 1965 1504 
L 1965 870 
z
" transform="scale(0.015625)"/>
       <path id="CMR17-72" d="M 960 1497 
C 960 2112 1222 2688 1702 2688 
C 1747 2688 1792 2682 1837 2662 
C 1837 2662 1696 2617 1696 2452 
C 1696 2298 1818 2234 1914 2234 
C 1990 2234 2131 2279 2131 2458 
C 2131 2663 1926 2790 1709 2790 
C 1222 2790 1011 2317 947 2093 
L 941 2093 
L 941 2790 
L 198 2720 
L 198 2554 
C 576 2554 634 2515 634 2208 
L 634 428 
C 634 184 608 153 198 153 
L 198 -13 
C 352 0 646 0 813 0 
C 998 0 1325 0 1498 -13 
L 1498 153 
C 1037 153 960 153 960 440 
L 960 1497 
z
" transform="scale(0.015625)"/>
       <path id="CMR17-67" d="M 710 1164 
C 832 1068 1043 960 1299 960 
C 1805 960 2240 1357 2240 1888 
C 2240 2054 2189 2310 1997 2509 
C 2176 2692 2438 2752 2586 2752 
C 2611 2752 2650 2752 2682 2734 
C 2656 2728 2598 2703 2598 2605 
C 2598 2527 2656 2471 2739 2471 
C 2835 2471 2886 2533 2886 2614 
C 2886 2731 2790 2854 2586 2854 
C 2330 2854 2106 2738 1926 2580 
C 1734 2753 1504 2816 1299 2816 
C 794 2816 358 2419 358 1888 
C 358 1522 570 1292 634 1228 
C 442 1004 442 743 442 711 
C 442 545 506 302 723 168 
C 390 85 128 -169 128 -486 
C 128 -943 736 -1280 1466 -1280 
C 2170 -1280 2803 -956 2803 -479 
C 2803 384 1856 384 1363 384 
C 1216 384 954 384 922 391 
C 723 423 589 602 589 826 
C 589 883 589 1024 710 1164 
z
M 1299 1068 
C 736 1068 736 1760 736 1889 
C 736 2016 736 2708 1299 2708 
C 1862 2708 1862 2016 1862 1889 
C 1862 1760 1862 1068 1299 1068 
z
M 1466 -1171 
C 826 -1171 384 -835 384 -486 
C 384 -289 493 -105 634 -4 
C 794 104 858 104 1293 104 
C 1818 104 2547 104 2547 -486 
C 2547 -835 2106 -1171 1466 -1171 
z
" transform="scale(0.015625)"/>
       <path id="CMR17-2d" d="M 1632 1216 
L 1632 1496 
L 26 1496 
L 26 1216 
L 1632 1216 
z
" transform="scale(0.015625)"/>
       <path id="CMR17-76" d="M 2502 2163 
C 2560 2304 2662 2560 3034 2560 
L 3034 2726 
C 2912 2726 2752 2726 2630 2726 
C 2496 2726 2285 2726 2157 2732 
L 2157 2566 
C 2317 2553 2406 2477 2406 2311 
C 2406 2253 2406 2240 2368 2151 
L 1664 377 
L 902 2286 
C 864 2369 864 2381 864 2407 
C 864 2560 1075 2560 1171 2560 
L 1171 2732 
C 1018 2726 736 2726 576 2726 
C 403 2726 205 2726 64 2732 
L 64 2560 
C 307 2560 442 2560 518 2362 
L 1446 44 
C 1485 -51 1491 -64 1549 -64 
C 1606 -64 1613 -51 1651 44 
L 2502 2163 
z
" transform="scale(0.015625)"/>
       <path id="CMR17-62" d="M 960 4396 
L 198 4326 
L 198 4160 
C 576 4160 634 4122 634 3817 
L 634 -13 
L 749 -13 
L 934 441 
C 1120 141 1395 -64 1766 -64 
C 2406 -64 3053 500 3053 1370 
C 3053 2188 2477 2790 1830 2790 
C 1434 2790 1152 2579 960 2330 
L 960 4396 
z
M 973 2004 
C 973 2118 973 2138 1062 2272 
C 1312 2657 1670 2688 1792 2688 
C 1984 2688 2643 2585 2643 1376 
C 2643 108 1888 38 1734 38 
C 1536 38 1248 114 1043 486 
C 973 608 973 621 973 735 
L 973 2004 
z
" transform="scale(0.015625)"/>
       <path id="CMR17-6c" d="M 979 4396 
L 218 4326 
L 218 4160 
C 595 4160 653 4122 653 3817 
L 653 426 
C 653 184 627 153 218 153 
L 218 -13 
C 371 0 653 0 813 0 
C 979 0 1261 0 1414 -13 
L 1414 153 
C 1005 153 979 178 979 426 
L 979 4396 
z
" transform="scale(0.015625)"/>
       <path id="CMMI12-79" d="M 1683 -700 
C 1510 -939 1261 -1152 947 -1152 
C 870 -1152 563 -1152 467 -889 
C 486 -895 518 -895 531 -895 
C 723 -895 851 -729 851 -582 
C 851 -435 730 -384 634 -384 
C 531 -384 307 -458 307 -759 
C 307 -1071 582 -1286 947 -1286 
C 1587 -1286 2234 -700 2413 6 
L 3040 2485 
C 3046 2517 3059 2556 3059 2594 
C 3059 2689 2982 2753 2886 2753 
C 2829 2753 2694 2727 2643 2535 
L 2170 658 
C 2138 543 2138 530 2086 460 
C 1958 281 1747 64 1440 64 
C 1082 64 1050 415 1050 588 
C 1050 952 1222 1443 1395 1903 
C 1466 2088 1504 2178 1504 2305 
C 1504 2574 1312 2816 998 2816 
C 410 2816 173 1890 173 1839 
C 173 1814 198 1782 243 1782 
C 301 1782 307 1807 333 1897 
C 486 2433 730 2689 979 2689 
C 1037 2689 1146 2689 1146 2478 
C 1146 2312 1075 2127 979 1884 
C 666 1047 666 837 666 683 
C 666 77 1101 -64 1421 -64 
C 1606 -64 1837 -6 2061 230 
L 2067 224 
C 1971 -147 1907 -392 1683 -700 
z
" transform="scale(0.015625)"/>
      </defs>
      <use xlink:href="#CMR17-74" transform="scale(0.996264)"/>
      <use xlink:href="#CMR17-61" transform="translate(35.280768 0) scale(0.996264)"/>
      <use xlink:href="#CMR17-72" transform="translate(80.971245 0) scale(0.996264)"/>
      <use xlink:href="#CMR17-67" transform="translate(116.252013 0) scale(0.996264)"/>
      <use xlink:href="#CMR17-65" transform="translate(161.94249 0) scale(0.996264)"/>
      <use xlink:href="#CMR17-74" transform="translate(202.42815 0) scale(0.996264)"/>
      <use xlink:href="#CMR17-2d" transform="translate(237.708918 0) scale(0.996264)"/>
      <use xlink:href="#CMR17-76" transform="translate(267.784884 0) scale(0.996264)"/>
      <use xlink:href="#CMR17-61" transform="translate(310.872984 0) scale(0.996264)"/>
      <use xlink:href="#CMR17-72" transform="translate(356.563461 0) scale(0.996264)"/>
      <use xlink:href="#CMR17-69" transform="translate(391.844229 0) scale(0.996264)"/>
      <use xlink:href="#CMR17-61" transform="translate(416.715287 0) scale(0.996264)"/>
      <use xlink:href="#CMR17-62" transform="translate(462.405764 0) scale(0.996264)"/>
      <use xlink:href="#CMR17-6c" transform="translate(513.301134 0) scale(0.996264)"/>
      <use xlink:href="#CMR17-65" transform="translate(538.172192 0) scale(0.996264)"/>
      <use xlink:href="#CMMI12-79" transform="translate(608.733819 0) scale(0.996264)"/>
     </g>
    </g>
   </g>
   <g id="line2d_15">
    <path d="M 32.776366 76.315004 
L 33.052417 79.283126 
L 33.328469 79.282819 
L 33.60452 79.503639 
L 33.880571 82.867516 
L 34.156622 81.567305 
L 34.432673 87.117595 
L 34.708724 86.16612 
L 34.984775 84.162645 
L 35.536878 71.914504 
L 35.812929 72.060067 
L 36.08898 73.665433 
L 36.365031 72.941886 
L 36.641082 71.722097 
L 36.917133 72.937257 
L 37.193185 72.684081 
L 37.469236 79.086154 
L 37.745287 81.004194 
L 38.021338 80.787874 
L 38.297389 84.333459 
L 38.57344 82.360611 
L 38.849491 79.508728 
L 39.125543 75.241065 
L 39.401594 81.24529 
L 39.953696 88.475677 
L 40.229747 86.230023 
L 40.505798 85.872301 
L 40.78185 88.387507 
L 41.333952 82.773176 
L 41.610003 84.448012 
L 41.886054 87.654519 
L 42.162105 89.147277 
L 42.438156 87.856682 
L 42.714208 87.891823 
L 42.990259 86.982832 
L 43.26631 87.506287 
L 43.542361 86.665601 
L 43.818412 84.588024 
L 44.094463 83.452367 
L 44.370514 83.631615 
L 44.646566 87.210496 
L 44.922617 87.966605 
L 45.198668 91.851604 
L 45.474719 91.900914 
L 45.75077 90.785626 
L 46.026821 88.835806 
L 46.302872 88.623954 
L 46.578924 93.368209 
L 46.854975 100.18816 
L 47.131026 97.506393 
L 47.407077 99.467239 
L 47.683128 98.301118 
L 47.959179 99.172029 
L 48.511282 92.541616 
L 49.063384 88.838694 
L 49.339435 88.622847 
L 49.615486 88.648443 
L 50.167589 84.256569 
L 50.44364 79.698067 
L 50.719691 78.433822 
L 50.995742 78.429663 
L 51.271793 75.171178 
L 51.547844 75.814528 
L 51.823895 69.507252 
L 52.099947 66.726482 
L 52.375998 66.484288 
L 52.9281 64.093139 
L 53.204151 62.389379 
L 53.480202 64.978239 
L 53.756253 66.19625 
L 54.032305 62.204559 
L 54.308356 60.122201 
L 54.584407 56.169102 
L 54.860458 57.416296 
L 55.136509 61.454613 
L 55.688612 57.256622 
L 55.964663 57.801869 
L 56.240714 57.901582 
L 56.516765 59.20672 
L 57.068867 57.431073 
L 57.62097 63.709815 
L 57.897021 58.936136 
L 58.173072 58.716842 
L 58.449123 57.395373 
L 58.725174 52.381691 
L 59.001225 50.994305 
L 59.553328 43.281736 
L 59.829379 41.264423 
L 60.381481 46.282749 
L 60.657532 48.01844 
L 60.933583 43.390287 
L 61.485686 46.31777 
L 61.761737 46.582855 
L 62.037788 47.127336 
L 62.313839 47.282204 
L 62.58989 49.547836 
L 62.865941 50.099301 
L 63.141993 51.51329 
L 63.418044 58.35905 
L 63.694095 58.955078 
L 64.246197 54.532886 
L 64.522248 53.371296 
L 64.798299 50.935348 
L 65.074351 49.913131 
L 65.626453 44.397921 
L 65.902504 38.03316 
L 66.454606 41.601355 
L 67.006709 38.872965 
L 67.28276 34.216139 
L 67.558811 32.271845 
L 67.834862 27.744511 
L 68.110913 26.660249 
L 68.386964 26.923697 
L 68.663016 28.802725 
L 68.939067 29.424221 
L 69.215118 31.16932 
L 69.491169 25.997942 
L 69.76722 28.299156 
L 70.043271 23.596864 
L 70.319322 21.709505 
L 70.595374 23.238494 
L 70.871425 28.237258 
L 71.147476 29.349872 
L 71.699578 24.481687 
L 72.25168 22.652128 
L 72.527732 28.082436 
L 73.079834 18.752204 
L 73.355885 17.728626 
L 73.631936 15.234302 
L 73.907987 16.792114 
L 74.184038 16.501332 
L 74.46009 14.098704 
L 74.736141 14.747325 
L 75.012192 17.806515 
L 75.288243 19.405462 
L 75.564294 24.185234 
L 75.840345 25.794807 
L 76.116397 23.346405 
L 76.392448 30.434464 
L 76.668499 27.546298 
L 77.220601 19.673847 
L 77.496652 18.791311 
L 77.772703 16.555355 
L 78.324806 20.759384 
L 78.600857 23.159564 
L 78.876908 24.355313 
L 79.152959 21.815884 
L 79.705061 12.157425 
L 79.981113 15.753342 
L 80.257164 15.416733 
L 80.809266 11.715222 
L 81.085317 10.534717 
L 81.913471 2.603278 
L 82.741624 9.015238 
L 83.017675 10.880718 
L 83.293726 11.458549 
L 83.845829 17.239974 
L 84.12188 16.629294 
L 84.397931 17.054891 
L 84.673982 17.811221 
L 84.950033 23.027446 
L 85.226084 25.472511 
L 86.054238 16.364271 
L 86.330289 18.311041 
L 86.60634 15.587474 
L 86.882391 20.667408 
L 87.158442 21.531024 
L 87.434494 17.903495 
L 87.986596 20.294838 
L 88.262647 16.706458 
L 89.0908 14.117007 
L 89.366852 14.398763 
L 89.642903 16.046231 
L 89.918954 20.141327 
L 90.471056 22.473989 
L 90.747107 21.934144 
L 91.023159 26.204035 
L 91.29921 25.402515 
L 91.575261 25.233262 
L 91.851312 28.076514 
L 92.127363 28.680248 
L 92.403414 28.927074 
L 92.679465 26.030926 
L 92.955517 26.212405 
L 93.231568 27.596396 
L 93.78367 33.074394 
L 94.059721 33.473355 
L 94.335772 30.709005 
L 94.611823 30.361111 
L 94.887875 27.986157 
L 95.163926 24.082929 
L 95.439977 25.131072 
L 95.716028 25.033451 
L 96.26813 35.464323 
L 96.544182 35.164733 
L 96.820233 40.050515 
L 97.096284 47.640361 
L 97.372335 46.668027 
L 97.648386 50.436438 
L 97.924437 49.003427 
L 98.200488 49.810152 
L 98.47654 52.633158 
L 98.752591 51.048219 
L 99.028642 50.708128 
L 99.580744 48.28166 
L 99.856795 48.468762 
L 100.132846 46.827487 
L 100.408898 46.604699 
L 100.684949 46.007196 
L 100.961 46.157843 
L 101.237051 46.057878 
L 101.513102 44.466458 
L 101.789153 40.667477 
L 102.065204 38.493841 
L 102.617307 41.640985 
L 102.893358 44.117417 
L 103.169409 44.092132 
L 103.44546 47.434585 
L 103.997563 44.546931 
L 104.273614 44.554769 
L 104.549665 41.404087 
L 104.825716 44.43407 
L 105.377818 34.812049 
L 105.653869 36.369853 
L 106.205972 33.026441 
L 106.482023 33.362587 
L 106.758074 30.81656 
L 107.034125 32.272685 
L 107.310176 29.113545 
L 107.862279 27.704714 
L 108.13833 25.291785 
L 108.414381 25.223026 
L 108.690432 18.754923 
L 109.242534 16.205853 
L 109.518585 17.277697 
L 109.794637 17.284745 
L 110.070688 23.278162 
L 110.346739 24.309881 
L 110.62279 26.580283 
L 110.898841 27.894738 
L 111.174892 26.512826 
L 111.450944 30.865145 
L 112.003046 35.728485 
L 112.279097 36.116225 
L 112.555148 33.653937 
L 112.831199 34.014979 
L 113.10725 34.013374 
L 113.383302 34.961237 
L 113.659353 34.701702 
L 113.935404 33.477237 
L 114.211455 33.72148 
L 114.487506 34.154121 
L 115.31566 24.825148 
L 115.591711 26.11015 
L 115.867762 24.486803 
L 116.143813 20.200905 
L 116.419864 21.896333 
L 116.695915 19.296278 
L 116.971966 20.03313 
L 117.248018 17.993766 
L 117.524069 18.530633 
L 117.80012 21.122317 
L 118.352222 12.235244 
L 118.628273 12.92102 
L 118.904325 12.060745 
L 119.180376 10.824218 
L 119.456427 4.765643 
L 119.732478 8.23398 
L 120.008529 14.375955 
L 120.28458 13.866964 
L 120.836683 8.158944 
L 121.112734 8.022723 
L 121.388785 8.861921 
L 121.664836 9.328767 
L 121.940887 7.932045 
L 122.216938 7.592462 
L 122.492989 4.075983 
L 122.768155 -1 
M 122.770353 -1 
L 123.045092 2.420993 
L 123.328988 -1 
L 123.328988 -1 
" clip-path="url(#p95b9ef6733)" style="fill: none; stroke: #808080; stroke-width: 0.5; stroke-linecap: square"/>
   </g>
   <g id="line2d_16">
    <path d="M 32.776366 76.315004 
L 46.487573 76.365753 
L 74.148097 26.908364 
L 101.689565 32.882646 
L 119.935586 -1 
L 119.935586 -1 
" clip-path="url(#p95b9ef6733)" style="fill: none; stroke: #ff0000; stroke-width: 1.4; stroke-linecap: square"/>
   </g>
   <g id="line2d_17">
    <path d="M 32.776366 76.315004 
L 32.935107 71.719546 
L 33.312115 67.99372 
L 33.867707 64.695862 
L 34.562196 61.872292 
L 35.355899 59.55194 
L 36.189286 57.777761 
L 37.022673 56.502138 
L 37.836218 55.648684 
L 38.590235 55.161385 
L 39.304567 54.95004 
L 39.999057 54.970677 
L 40.693546 55.214629 
L 41.407878 55.706666 
L 42.161895 56.511076 
L 42.935755 57.6798 
L 43.709615 59.266085 
L 44.463632 61.337569 
L 45.158122 63.924563 
L 45.733556 66.937791 
L 46.150249 70.256764 
L 46.38836 73.793998 
L 46.447888 75.46684 
L 46.487573 73.860543 
L 46.765369 69.295095 
L 47.301118 64.310088 
L 48.114662 58.891982 
L 49.18616 53.272522 
L 50.495769 47.583765 
L 52.023646 41.933611 
L 53.710263 36.541009 
L 55.496093 31.563122 
L 57.321609 27.116317 
L 59.147124 23.244068 
L 60.893269 20.046428 
L 62.540201 17.480694 
L 64.048235 15.52928 
L 65.397529 14.130833 
L 66.588083 13.199833 
L 67.639738 12.646565 
L 68.552496 12.404223 
L 69.36604 12.40875 
L 70.100215 12.627987 
L 70.794705 13.067825 
L 71.449509 13.748045 
L 72.084471 14.74159 
L 72.679747 16.113393 
L 73.195654 17.876675 
L 73.612348 20.082109 
L 73.909986 22.86033 
L 74.048884 26.26473 
L 74.088569 24.502976 
L 74.346522 20.624627 
L 74.802901 17.094835 
L 75.457705 13.764217 
L 76.27125 10.775069 
L 77.20385 8.171869 
L 78.235663 5.928487 
L 79.346846 4.032889 
L 80.497715 2.4992 
L 81.668426 1.300042 
L 82.839136 0.409271 
L 84.009847 -0.209406 
L 85.180558 -0.579903 
L 86.351269 -0.717647 
L 87.52198 -0.631691 
L 88.712533 -0.318736 
L 89.922929 0.233824 
L 91.153168 1.044689 
L 92.403249 2.140567 
L 93.65333 3.534859 
L 94.903411 5.265781 
L 96.133649 7.356328 
L 97.30436 9.788561 
L 98.395701 12.571975 
L 99.367986 15.656744 
L 100.201373 19.03334 
L 100.87602 22.71046 
L 101.352242 26.577892 
L 101.590352 30.082706 
L 101.64988 32.543784 
L 101.689565 30.608884 
L 101.967361 25.87787 
L 102.50311 20.826144 
L 103.316655 15.342296 
L 104.388153 9.64773 
L 105.717604 3.791617 
L 106.977716 -1 
L 106.977716 -1 
" clip-path="url(#p95b9ef6733)" style="fill: none; stroke-dasharray: 1.4,2.31; stroke-dashoffset: 0; stroke: #ff0000; stroke-width: 1.4"/>
   </g>
   <g id="line2d_18">
    <path d="M 32.776366 76.315004 
L 32.935107 80.913587 
L 33.312115 84.646838 
L 33.867707 87.955638 
L 34.562196 90.792884 
L 35.355899 93.128867 
L 36.189286 94.919458 
L 37.022673 96.211494 
L 37.836218 97.080969 
L 38.610078 97.59261 
L 39.32441 97.81141 
L 40.018899 97.798109 
L 40.713389 97.561377 
L 41.427721 97.076415 
L 42.161895 96.303765 
L 42.935755 95.150282 
L 43.709615 93.579236 
L 44.463632 91.522601 
L 45.158122 88.949285 
L 45.733556 85.947388 
L 46.150249 82.636622 
L 46.38836 79.104077 
L 46.447888 77.407171 
L 46.487573 78.870962 
L 46.745526 82.272698 
L 47.16222 84.881594 
L 47.697969 86.904997 
L 48.332931 88.459451 
L 49.007577 89.549009 
L 49.72191 90.29186 
L 50.456084 90.738155 
L 51.210101 90.938616 
L 52.003804 90.921472 
L 52.876876 90.677109 
L 53.849161 90.167754 
L 54.940502 89.337345 
L 56.17074 88.111038 
L 57.539877 86.419697 
L 59.047911 84.188105 
L 60.655158 81.403393 
L 62.361618 77.991946 
L 64.127606 73.950258 
L 65.893593 69.340072 
L 67.600053 64.256269 
L 69.187457 58.83053 
L 70.616122 53.158229 
L 71.826518 47.451367 
L 72.77896 41.921261 
L 73.47345 36.604149 
L 73.890143 31.734781 
L 74.048884 27.508381 
L 74.108412 29.795427 
L 74.40605 33.883263 
L 74.921956 37.766709 
L 75.636288 41.443137 
L 76.529203 44.87821 
L 77.561016 47.984847 
L 78.711885 50.763933 
L 79.961966 53.207605 
L 81.251732 55.250609 
L 82.561341 56.920586 
L 83.870949 58.2406 
L 85.160716 59.233867 
L 86.430639 59.935394 
L 87.660878 60.364307 
L 88.851431 60.548249 
L 90.022142 60.505765 
L 91.17301 60.241597 
L 92.323878 59.745022 
L 93.454904 59.012435 
L 94.58593 58.010467 
L 95.697113 56.724799 
L 96.788454 55.114165 
L 97.820267 53.192236 
L 98.792552 50.904015 
L 99.665624 48.271791 
L 100.419641 45.271849 
L 101.014918 41.963876 
L 101.411769 38.554726 
L 101.610195 35.291331 
L 101.64988 33.363714 
L 101.709408 35.644593 
L 101.967361 38.855694 
L 102.384055 41.395943 
L 102.919804 43.36629 
L 103.534923 44.831672 
L 104.20957 45.885298 
L 104.904059 46.573283 
L 105.618391 46.977549 
L 106.352566 47.145016 
L 107.146268 47.097357 
L 108.019341 46.816285 
L 108.991626 46.2634 
L 110.102809 45.363478 
L 111.35289 44.049675 
L 112.741869 42.252821 
L 114.269746 39.89744 
L 115.916678 36.934317 
L 117.642981 33.359783 
L 119.428811 29.137712 
L 121.214641 24.330561 
L 122.940943 19.031951 
L 124.528348 13.443927 
L 125.957012 7.598784 
L 127.147565 1.803897 
L 127.641494 -1 
M 132.816098 -1 
L 133.735294 0.237006 
L 134.687737 1.160046 
L 135.660022 1.802546 
L 136.65215 2.19782 
L 137.66412 2.366733 
L 138.715776 2.319186 
L 139.826959 2.043832 
L 140.99767 1.520804 
L 142.247751 0.711506 
L 143.557359 -0.406486 
L 144.147354 -1 
M 204.114564 -1 
L 207.549604 3.315845 
L 211.339533 7.719411 
L 215.486627 12.195144 
L 220.01073 16.748353 
L 224.931684 21.382805 
L 230.269332 26.101132 
L 231.182089 26.879888 
L 231.182089 26.879888 
" clip-path="url(#p95b9ef6733)" style="fill: none; stroke-dasharray: 1.4,2.31; stroke-dashoffset: 0; stroke: #ff0000; stroke-width: 1.4"/>
   </g>
   <g id="patch_3">
    <path d="M 32.776366 139.988242 
L 32.776366 12.641765 
" style="fill: none; stroke: #000000; stroke-width: 0.8; stroke-linejoin: miter; stroke-linecap: square"/>
   </g>
   <g id="patch_4">
    <path d="M 231.201932 139.988242 
L 231.201932 12.641765 
" style="fill: none; stroke: #000000; stroke-width: 0.8; stroke-linejoin: miter; stroke-linecap: square"/>
   </g>
   <g id="patch_5">
    <path d="M 32.776366 139.988242 
L 231.201932 139.988242 
" style="fill: none; stroke: #000000; stroke-width: 0.8; stroke-linejoin: miter; stroke-linecap: square"/>
   </g>
   <g id="patch_6">
    <path d="M 32.776366 12.641765 
L 231.201932 12.641765 
" style="fill: none; stroke: #000000; stroke-width: 0.8; stroke-linejoin: miter; stroke-linecap: square"/>
   </g>
   <g id="text_17">
    <!-- Calibrated Model: $Brown$ -->
    <g transform="translate(75.43845 6.641765) scale(0.096 -0.096)">
     <defs>
      <path id="CMR17-43" d="M 3974 4289 
C 3974 4403 3968 4410 3930 4410 
C 3904 4410 3898 4403 3853 4327 
L 3571 3792 
C 3258 4187 2874 4416 2381 4416 
C 1286 4416 294 3456 294 2148 
C 294 826 1286 -128 2387 -128 
C 3366 -128 3974 730 3974 1461 
C 3974 1524 3974 1550 3917 1550 
C 3866 1550 3866 1531 3859 1474 
C 3808 585 3168 38 2477 38 
C 1824 38 781 495 781 2147 
C 781 3805 1843 4250 2464 4250 
C 3187 4250 3712 3628 3834 2745 
C 3846 2668 3846 2655 3904 2655 
C 3974 2655 3974 2668 3974 2783 
L 3974 4289 
z
" transform="scale(0.015625)"/>
      <path id="CMR17-64" d="M 1869 4326 
L 1869 4160 
C 2246 4160 2304 4122 2304 3820 
L 2304 2345 
C 2278 2377 2016 2790 1498 2790 
C 845 2790 211 2208 211 1364 
C 211 525 806 -64 1434 -64 
C 1978 -64 2259 337 2291 380 
L 2291 -63 
L 3066 -63 
L 3066 128 
C 2688 128 2630 166 2630 473 
L 2630 4396 
L 1869 4326 
z
M 2291 755 
C 2291 563 2176 390 2029 262 
C 1811 70 1594 38 1472 38 
C 1286 38 621 134 621 1356 
C 621 2612 1363 2688 1530 2688 
C 1824 2688 2061 2522 2208 2291 
C 2291 2157 2291 2138 2291 2023 
L 2291 755 
z
" transform="scale(0.015625)"/>
      <path id="CMR17-4d" d="M 1338 4224 
C 1299 4320 1293 4320 1158 4320 
L 339 4320 
L 339 4160 
C 781 4160 851 4160 851 3875 
L 851 610 
C 851 451 851 153 339 153 
L 339 -13 
C 486 0 755 0 915 0 
C 1075 0 1344 0 1491 -13 
L 1491 153 
C 979 153 979 451 979 610 
L 979 4135 
L 986 4135 
L 2490 89 
C 2515 25 2528 -13 2579 -13 
C 2630 -13 2643 25 2669 89 
L 4186 4166 
L 4192 4166 
L 4192 438 
C 4192 153 4122 153 3680 153 
L 3680 -13 
C 3853 0 4198 0 4384 0 
C 4570 0 4922 0 5094 -13 
L 5094 153 
C 4653 153 4582 153 4582 438 
L 4582 3875 
C 4582 4160 4653 4160 5094 4160 
L 5094 4320 
L 4282 4320 
C 4147 4320 4141 4314 4102 4218 
L 2720 502 
L 1338 4224 
z
" transform="scale(0.015625)"/>
      <path id="CMR17-6f" d="M 2758 1356 
C 2758 2176 2163 2816 1466 2816 
C 768 2816 173 2176 173 1356 
C 173 551 768 -64 1466 -64 
C 2163 -64 2758 551 2758 1356 
z
M 1466 51 
C 1165 51 909 230 762 480 
C 602 767 582 1126 582 1408 
C 582 1677 595 2010 762 2298 
C 890 2509 1139 2714 1466 2714 
C 1754 2714 1997 2554 2150 2330 
C 2349 2029 2349 1607 2349 1408 
C 2349 1158 2336 775 2163 467 
C 1984 173 1709 51 1466 51 
z
" transform="scale(0.015625)"/>
      <path id="CMR17-3a" d="M 1062 2491 
C 1062 2650 934 2752 800 2752 
C 672 2752 538 2650 538 2491 
C 538 2332 666 2230 800 2230 
C 928 2230 1062 2332 1062 2491 
z
M 1062 261 
C 1062 420 934 522 800 522 
C 672 522 538 420 538 261 
C 538 102 666 0 800 0 
C 928 0 1062 102 1062 261 
z
" transform="scale(0.015625)"/>
      <path id="CMMI12-42" d="M 2342 3921 
C 2400 4160 2426 4160 2675 4160 
L 3507 4160 
C 4230 4160 4230 3544 4230 3485 
C 4230 2966 3712 2304 2867 2304 
L 1946 2304 
L 2342 3921 
z
M 3424 2275 
C 4122 2402 4755 2886 4755 3473 
C 4755 3970 4314 4352 3590 4352 
L 1536 4352 
C 1414 4352 1357 4352 1357 4226 
C 1357 4160 1414 4160 1510 4160 
C 1901 4160 1901 4112 1901 4044 
C 1901 4032 1901 3993 1875 3897 
L 1011 472 
C 954 249 941 185 493 185 
C 371 185 307 185 307 70 
C 307 0 346 0 474 0 
L 2669 0 
C 3648 0 4403 739 4403 1383 
C 4403 1906 3942 2224 3424 2275 
z
M 2515 185 
L 1651 185 
C 1562 185 1549 185 1510 192 
C 1440 198 1434 211 1434 261 
C 1434 305 1446 343 1459 399 
L 1907 2176 
L 3110 2176 
C 3866 2176 3866 1483 3866 1433 
C 3866 828 3309 185 2515 185 
z
" transform="scale(0.015625)"/>
      <path id="CMMI12-72" d="M 2490 2612 
C 2291 2574 2189 2433 2189 2293 
C 2189 2139 2310 2088 2400 2088 
C 2579 2088 2726 2242 2726 2433 
C 2726 2638 2528 2816 2208 2816 
C 1952 2816 1658 2701 1389 2312 
C 1344 2650 1088 2816 832 2816 
C 582 2816 454 2625 378 2484 
C 269 2254 173 1871 173 1839 
C 173 1814 198 1782 243 1782 
C 294 1782 301 1788 339 1935 
C 435 2318 557 2689 813 2689 
C 966 2689 1011 2580 1011 2395 
C 1011 2254 947 2005 902 1807 
L 723 1118 
C 698 996 627 709 595 594 
C 550 428 480 128 480 96 
C 480 6 550 -64 646 -64 
C 717 -64 838 -19 877 109 
C 896 160 1133 1124 1171 1271 
C 1203 1411 1242 1546 1274 1686 
C 1299 1775 1325 1878 1344 1961 
C 1363 2018 1536 2331 1696 2472 
C 1773 2542 1939 2689 2202 2689 
C 2304 2689 2406 2670 2490 2612 
z
" transform="scale(0.015625)"/>
      <path id="CMMI12-6f" d="M 2918 1756 
C 2918 2363 2522 2816 1939 2816 
C 1094 2816 262 1897 262 996 
C 262 390 659 -64 1242 -64 
C 2093 -64 2918 856 2918 1756 
z
M 1248 64 
C 928 64 691 319 691 766 
C 691 1060 845 1712 1024 2031 
C 1312 2523 1670 2689 1933 2689 
C 2246 2689 2490 2433 2490 1986 
C 2490 1731 2355 1047 2112 658 
C 1850 230 1498 64 1248 64 
z
" transform="scale(0.015625)"/>
      <path id="CMMI12-77" d="M 2202 390 
C 2342 6 2739 -64 2982 -64 
C 3469 -64 3757 358 3936 798 
C 4083 1169 4320 2012 4320 2389 
C 4320 2778 4122 2816 4064 2816 
C 3910 2816 3770 2663 3770 2535 
C 3770 2459 3814 2414 3846 2389 
C 3904 2331 4070 2159 4070 1827 
C 4070 1609 3891 1009 3757 709 
C 3578 319 3341 64 3008 64 
C 2650 64 2534 332 2534 626 
C 2534 811 2592 1035 2618 1143 
L 2886 2216 
C 2918 2344 2976 2567 2976 2593 
C 2976 2689 2899 2753 2803 2753 
C 2618 2753 2573 2593 2534 2440 
C 2470 2191 2202 1111 2176 971 
C 2150 862 2150 792 2150 651 
C 2150 498 1946 255 1939 243 
C 1869 172 1766 64 1568 64 
C 1062 64 1062 543 1062 651 
C 1062 856 1107 1137 1395 1897 
C 1472 2095 1504 2178 1504 2305 
C 1504 2574 1312 2816 998 2816 
C 410 2816 173 1890 173 1839 
C 173 1814 198 1782 243 1782 
C 301 1782 307 1807 333 1896 
C 493 2454 742 2682 979 2682 
C 1043 2682 1146 2682 1146 2478 
C 1146 2446 1146 2312 1037 2031 
C 736 1233 672 971 672 728 
C 672 57 1222 -64 1549 -64 
C 1658 -64 1946 -64 2202 390 
z
" transform="scale(0.015625)"/>
      <path id="CMMI12-6e" d="M 1318 1871 
C 1331 1910 1491 2229 1728 2433 
C 1894 2586 2112 2689 2362 2689 
C 2618 2689 2707 2497 2707 2242 
C 2707 1878 2445 1150 2317 805 
C 2259 651 2227 568 2227 453 
C 2227 166 2426 -64 2733 -64 
C 3328 -64 3552 875 3552 913 
C 3552 945 3526 971 3488 971 
C 3430 971 3424 952 3392 843 
C 3245 319 3002 64 2752 64 
C 2688 64 2586 64 2586 269 
C 2586 429 2656 621 2694 710 
C 2822 1063 3091 1780 3091 2145 
C 3091 2528 2867 2816 2381 2816 
C 1811 2816 1510 2415 1395 2255 
C 1376 2618 1114 2816 832 2816 
C 627 2816 486 2695 378 2478 
C 262 2248 173 1865 173 1839 
C 173 1814 198 1782 243 1782 
C 294 1782 301 1788 339 1935 
C 442 2325 557 2689 813 2689 
C 960 2689 1011 2586 1011 2395 
C 1011 2254 947 2005 902 1807 
L 723 1118 
C 698 996 627 709 595 594 
C 550 428 480 128 480 96 
C 480 6 550 -64 646 -64 
C 723 -64 813 -26 864 70 
C 877 102 934 326 966 453 
L 1107 1028 
L 1318 1871 
z
" transform="scale(0.015625)"/>
     </defs>
     <use xlink:href="#CMR17-43" transform="scale(0.996264)"/>
     <use xlink:href="#CMR17-61" transform="translate(66.509881 0) scale(0.996264)"/>
     <use xlink:href="#CMR17-6c" transform="translate(112.200358 0) scale(0.996264)"/>
     <use xlink:href="#CMR17-69" transform="translate(137.071416 0) scale(0.996264)"/>
     <use xlink:href="#CMR17-62" transform="translate(161.942475 0) scale(0.996264)"/>
     <use xlink:href="#CMR17-72" transform="translate(212.837844 0) scale(0.996264)"/>
     <use xlink:href="#CMR17-61" transform="translate(248.118612 0) scale(0.996264)"/>
     <use xlink:href="#CMR17-74" transform="translate(293.809089 0) scale(0.996264)"/>
     <use xlink:href="#CMR17-65" transform="translate(329.089857 0) scale(0.996264)"/>
     <use xlink:href="#CMR17-64" transform="translate(369.575518 0) scale(0.996264)"/>
     <use xlink:href="#CMR17-4d" transform="translate(450.546854 0) scale(0.996264)"/>
     <use xlink:href="#CMR17-6f" transform="translate(535.233794 0) scale(0.996264)"/>
     <use xlink:href="#CMR17-64" transform="translate(583.52671 0) scale(0.996264)"/>
     <use xlink:href="#CMR17-65" transform="translate(634.42208 0) scale(0.996264)"/>
     <use xlink:href="#CMR17-6c" transform="translate(674.90774 0) scale(0.996264)"/>
     <use xlink:href="#CMR17-3a" transform="translate(699.778799 0) scale(0.996264)"/>
     <use xlink:href="#CMMI12-42" transform="translate(765.135518 0) scale(0.996264)"/>
     <use xlink:href="#CMMI12-72" transform="translate(844.271041 0) scale(0.996264)"/>
     <use xlink:href="#CMMI12-6f" transform="translate(890.941653 0) scale(0.996264)"/>
     <use xlink:href="#CMMI12-77" transform="translate(937.836963 0) scale(0.996264)"/>
     <use xlink:href="#CMMI12-6e" transform="translate(1010.249878 0) scale(0.996264)"/>
    </g>
   </g>
  </g>
 </g>
 <defs>
  <clipPath id="p95b9ef6733">
   <rect x="32.776366" y="12.641765" width="198.425566" height="127.346477"/>
  </clipPath>
 </defs>
</svg>
