<?xml version="1.0" encoding="utf-8" standalone="no"?>
<!DOCTYPE svg PUBLIC "-//W3C//DTD SVG 1.1//EN"
  "http://www.w3.org/Graphics/SVG/1.1/DTD/svg11.dtd">
<svg xmlns:xlink="http://www.w3.org/1999/xlink" width="235.436115pt" height="169.028466pt" viewBox="0 0 235.436115 169.028466" xmlns="http://www.w3.org/2000/svg" version="1.1">
 <metadata>
  <rdf:RDF xmlns:dc="http://purl.org/dc/elements/1.1/" xmlns:cc="http://creativecommons.org/ns#" xmlns:rdf="http://www.w3.org/1999/02/22-rdf-syntax-ns#">
   <cc:Work>
    <dc:type rdf:resource="http://purl.org/dc/dcmitype/StillImage"/>
    <dc:date>2023-10-27T18:14:40.087943</dc:date>
    <dc:format>image/svg+xml</dc:format>
    <dc:creator>
     <cc:Agent>
      <dc:title>Matplotlib v3.7.3, https://matplotlib.org/</dc:title>
     </cc:Agent>
    </dc:creator>
   </cc:Work>
  </rdf:RDF>
 </metadata>
 <defs>
  <style type="text/css">*{stroke-linejoin: round; stroke-linecap: butt}</style>
 </defs>
 <g id="figure_1">
  <g id="patch_1">
   <path d="M 0 169.028466 
L 235.436115 169.028466 
L 235.436115 0 
L 0 0 
L 0 169.028466 
z
" style="fill: none"/>
  </g>
  <g id="axes_1">
   <g id="patch_2">
    <path d="M 32.776366 139.988242 
L 231.201932 139.988242 
L 231.201932 12.641765 
L 32.776366 12.641765 
L 32.776366 139.988242 
z
" style="fill: none"/>
   </g>
   <g id="PathCollection_1">
    <defs>
     <path id="m5a53119c38" d="M -2.8 2.8 
L 2.8 -2.8 
M -2.8 -2.8 
L 2.8 2.8 
" style="stroke: #0000ff; stroke-width: 0.75"/>
    </defs>
    <g clip-path="url(#p60fd2ebfec)">
     <use xlink:href="#m5a53119c38" x="46.440898" y="76.449555" style="fill: #0000ff; stroke: #0000ff; stroke-width: 0.75"/>
     <use xlink:href="#m5a53119c38" x="74.046013" y="26.885924" style="fill: #0000ff; stroke: #0000ff; stroke-width: 0.75"/>
     <use xlink:href="#m5a53119c38" x="101.651128" y="32.954024" style="fill: #0000ff; stroke: #0000ff; stroke-width: 0.75"/>
     <use xlink:href="#m5a53119c38" x="119.935586" y="-1" style="fill: #0000ff; stroke: #0000ff; stroke-width: 0.75"/>
    </g>
   </g>
   <g id="matplotlib.axis_1">
    <g id="xtick_1">
     <g id="line2d_1">
      <defs>
       <path id="m07b314e6c9" d="M 0 0 
L 0 3.5 
" style="stroke: #000000; stroke-width: 0.8"/>
      </defs>
      <g>
       <use xlink:href="#m07b314e6c9" x="32.776366" y="139.988242" style="stroke: #000000; stroke-width: 0.8"/>
      </g>
     </g>
     <g id="text_1">
      <!-- $\mathdefault{0}$ -->
      <g transform="translate(30.659275 154.623044) scale(0.08 -0.08)">
       <defs>
        <path id="CMR17-30" d="M 2688 2025 
C 2688 2416 2682 3080 2413 3591 
C 2176 4039 1798 4198 1466 4198 
C 1158 4198 768 4058 525 3597 
C 269 3118 243 2524 243 2025 
C 243 1661 250 1106 448 619 
C 723 -39 1216 -128 1466 -128 
C 1760 -128 2208 -7 2470 600 
C 2662 1042 2688 1559 2688 2025 
z
M 1466 -26 
C 1056 -26 813 325 723 812 
C 653 1188 653 1738 653 2096 
C 653 2588 653 2997 736 3387 
C 858 3929 1216 4096 1466 4096 
C 1728 4096 2067 3923 2189 3400 
C 2272 3036 2278 2607 2278 2096 
C 2278 1680 2278 1169 2202 792 
C 2067 95 1690 -26 1466 -26 
z
" transform="scale(0.015625)"/>
       </defs>
       <use xlink:href="#CMR17-30" transform="scale(0.996264)"/>
      </g>
     </g>
    </g>
    <g id="xtick_2">
     <g id="line2d_2">
      <g>
       <use xlink:href="#m07b314e6c9" x="65.847294" y="139.988242" style="stroke: #000000; stroke-width: 0.8"/>
      </g>
     </g>
     <g id="text_2">
      <!-- $\mathdefault{2}$ -->
      <g transform="translate(63.730202 154.623044) scale(0.08 -0.08)">
       <defs>
        <path id="CMR17-32" d="M 2669 989 
L 2554 989 
C 2490 536 2438 459 2413 420 
C 2381 369 1920 369 1830 369 
L 602 369 
C 832 619 1280 1072 1824 1597 
C 2214 1967 2669 2402 2669 3035 
C 2669 3790 2067 4224 1395 4224 
C 691 4224 262 3604 262 3030 
C 262 2780 448 2748 525 2748 
C 589 2748 781 2787 781 3010 
C 781 3207 614 3264 525 3264 
C 486 3264 448 3258 422 3245 
C 544 3790 915 4058 1306 4058 
C 1862 4058 2227 3617 2227 3035 
C 2227 2479 1901 2000 1536 1584 
L 262 146 
L 262 0 
L 2515 0 
L 2669 989 
z
" transform="scale(0.015625)"/>
       </defs>
       <use xlink:href="#CMR17-32" transform="scale(0.996264)"/>
      </g>
     </g>
    </g>
    <g id="xtick_3">
     <g id="line2d_3">
      <g>
       <use xlink:href="#m07b314e6c9" x="98.918221" y="139.988242" style="stroke: #000000; stroke-width: 0.8"/>
      </g>
     </g>
     <g id="text_3">
      <!-- $\mathdefault{4}$ -->
      <g transform="translate(96.80113 154.623044) scale(0.08 -0.08)">
       <defs>
        <path id="CMR17-34" d="M 2150 4122 
C 2150 4256 2144 4256 2029 4256 
L 128 1254 
L 128 1088 
L 1779 1088 
L 1779 457 
C 1779 224 1766 160 1318 160 
L 1197 160 
L 1197 0 
C 1402 0 1747 0 1965 0 
C 2182 0 2528 0 2733 0 
L 2733 160 
L 2611 160 
C 2163 160 2150 224 2150 457 
L 2150 1088 
L 2803 1088 
L 2803 1254 
L 2150 1254 
L 2150 4122 
z
M 1798 3703 
L 1798 1254 
L 256 1254 
L 1798 3703 
z
" transform="scale(0.015625)"/>
       </defs>
       <use xlink:href="#CMR17-34" transform="scale(0.996264)"/>
      </g>
     </g>
    </g>
    <g id="xtick_4">
     <g id="line2d_4">
      <g>
       <use xlink:href="#m07b314e6c9" x="131.989149" y="139.988242" style="stroke: #000000; stroke-width: 0.8"/>
      </g>
     </g>
     <g id="text_4">
      <!-- $\mathdefault{6}$ -->
      <g transform="translate(129.872058 154.623044) scale(0.08 -0.08)">
       <defs>
        <path id="CMR17-36" d="M 678 2176 
C 678 3690 1395 4032 1811 4032 
C 1946 4032 2272 4009 2400 3776 
C 2298 3776 2106 3776 2106 3553 
C 2106 3381 2246 3323 2336 3323 
C 2394 3323 2566 3348 2566 3560 
C 2566 3954 2246 4179 1805 4179 
C 1043 4179 243 3390 243 1984 
C 243 253 966 -128 1478 -128 
C 2099 -128 2688 427 2688 1283 
C 2688 2081 2170 2662 1517 2662 
C 1126 2662 838 2407 678 1960 
L 678 2176 
z
M 1478 25 
C 691 25 691 1200 691 1436 
C 691 1896 909 2560 1504 2560 
C 1613 2560 1926 2560 2138 2120 
C 2253 1870 2253 1609 2253 1289 
C 2253 944 2253 690 2118 434 
C 1978 171 1773 25 1478 25 
z
" transform="scale(0.015625)"/>
       </defs>
       <use xlink:href="#CMR17-36" transform="scale(0.996264)"/>
      </g>
     </g>
    </g>
    <g id="xtick_5">
     <g id="line2d_5">
      <g>
       <use xlink:href="#m07b314e6c9" x="165.060077" y="139.988242" style="stroke: #000000; stroke-width: 0.8"/>
      </g>
     </g>
     <g id="text_5">
      <!-- $\mathdefault{8}$ -->
      <g transform="translate(162.942985 154.623044) scale(0.08 -0.08)">
       <defs>
        <path id="CMR17-38" d="M 1741 2264 
C 2144 2467 2554 2773 2554 3263 
C 2554 3841 1990 4179 1472 4179 
C 890 4179 378 3759 378 3180 
C 378 3021 416 2747 666 2505 
C 730 2442 998 2251 1171 2130 
C 883 1983 211 1634 211 934 
C 211 279 838 -128 1459 -128 
C 2144 -128 2720 362 2720 1010 
C 2720 1590 2330 1857 2074 2029 
L 1741 2264 
z
M 902 2822 
C 851 2854 595 3051 595 3351 
C 595 3739 998 4032 1459 4032 
C 1965 4032 2336 3676 2336 3262 
C 2336 2669 1670 2331 1638 2331 
C 1632 2331 1626 2331 1574 2370 
L 902 2822 
z
M 2080 1519 
C 2176 1449 2483 1240 2483 851 
C 2483 381 2010 25 1472 25 
C 890 25 448 438 448 940 
C 448 1443 838 1862 1280 2060 
L 2080 1519 
z
" transform="scale(0.015625)"/>
       </defs>
       <use xlink:href="#CMR17-38" transform="scale(0.996264)"/>
      </g>
     </g>
    </g>
    <g id="xtick_6">
     <g id="line2d_6">
      <g>
       <use xlink:href="#m07b314e6c9" x="198.131004" y="139.988242" style="stroke: #000000; stroke-width: 0.8"/>
      </g>
     </g>
     <g id="text_6">
      <!-- $\mathdefault{10}$ -->
      <g transform="translate(193.896821 154.623044) scale(0.08 -0.08)">
       <defs>
        <path id="CMR17-31" d="M 1702 4058 
C 1702 4192 1696 4192 1606 4192 
C 1357 3916 979 3827 621 3827 
C 602 3827 570 3827 563 3808 
C 557 3795 557 3782 557 3648 
C 755 3648 1088 3686 1344 3839 
L 1344 461 
C 1344 236 1331 160 781 160 
L 589 160 
L 589 0 
C 896 0 1216 0 1523 0 
C 1830 0 2150 0 2458 0 
L 2458 160 
L 2266 160 
C 1715 160 1702 230 1702 458 
L 1702 4058 
z
" transform="scale(0.015625)"/>
       </defs>
       <use xlink:href="#CMR17-31" transform="scale(0.996264)"/>
       <use xlink:href="#CMR17-30" transform="translate(45.690477 0) scale(0.996264)"/>
      </g>
     </g>
    </g>
    <g id="xtick_7">
     <g id="line2d_7">
      <g>
       <use xlink:href="#m07b314e6c9" x="231.201932" y="139.988242" style="stroke: #000000; stroke-width: 0.8"/>
      </g>
     </g>
     <g id="text_7">
      <!-- $\mathdefault{12}$ -->
      <g transform="translate(226.967749 154.623044) scale(0.08 -0.08)">
       <use xlink:href="#CMR17-31" transform="scale(0.996264)"/>
       <use xlink:href="#CMR17-32" transform="translate(45.690477 0) scale(0.996264)"/>
      </g>
     </g>
    </g>
    <g id="text_8">
     <!-- time $t$ -->
     <g transform="translate(118.843978 167.091288) scale(0.1 -0.1)">
      <defs>
       <path id="CMR17-74" d="M 966 2560 
L 1862 2560 
L 1862 2725 
L 966 2725 
L 966 3904 
L 851 3904 
C 838 3245 614 2668 70 2668 
L 70 2560 
L 627 2560 
L 627 771 
C 627 650 627 -64 1370 -64 
C 1747 -64 1965 306 1965 777 
L 1965 1140 
L 1850 1140 
L 1850 783 
C 1850 344 1677 51 1408 51 
C 1222 51 966 178 966 758 
L 966 2560 
z
" transform="scale(0.015625)"/>
       <path id="CMR17-69" d="M 992 3909 
C 992 4049 877 4170 730 4170 
C 589 4170 467 4056 467 3909 
C 467 3769 582 3648 730 3648 
C 870 3648 992 3763 992 3909 
z
M 243 2706 
L 243 2541 
C 602 2541 653 2502 653 2197 
L 653 427 
C 653 184 627 153 218 153 
L 218 -13 
C 371 0 646 0 806 0 
C 960 0 1222 0 1370 -13 
L 1370 153 
C 992 153 979 191 979 420 
L 979 2776 
L 243 2706 
z
" transform="scale(0.015625)"/>
       <path id="CMR17-6d" d="M 4326 1933 
C 4326 2252 4269 2790 3507 2790 
C 3072 2790 2771 2496 2656 2151 
L 2650 2151 
C 2573 2676 2195 2790 1837 2790 
C 1331 2790 1069 2400 973 2144 
L 966 2144 
L 966 2790 
L 211 2720 
L 211 2554 
C 589 2554 646 2515 646 2208 
L 646 428 
C 646 184 621 153 211 153 
L 211 -13 
C 365 0 646 0 813 0 
C 979 0 1267 0 1421 -13 
L 1421 153 
C 1011 153 986 178 986 428 
L 986 1658 
C 986 2247 1344 2688 1792 2688 
C 2266 2688 2317 2266 2317 1958 
L 2317 428 
C 2317 184 2291 153 1882 153 
L 1882 -13 
C 2035 0 2317 0 2483 0 
C 2650 0 2938 0 3091 -13 
L 3091 153 
C 2682 153 2656 178 2656 428 
L 2656 1658 
C 2656 2247 3014 2688 3462 2688 
C 3936 2688 3987 2266 3987 1958 
L 3987 428 
C 3987 184 3962 153 3552 153 
L 3552 -13 
C 3706 0 3987 0 4154 0 
C 4320 0 4608 0 4762 -13 
L 4762 153 
C 4352 153 4326 178 4326 428 
L 4326 1933 
z
" transform="scale(0.015625)"/>
       <path id="CMR17-65" d="M 2438 1472 
C 2464 1498 2464 1511 2464 1576 
C 2464 2238 2118 2816 1389 2816 
C 710 2816 173 2169 173 1383 
C 173 551 781 -64 1459 -64 
C 2176 -64 2458 607 2458 740 
C 2458 784 2419 784 2406 784 
C 2362 784 2355 771 2330 696 
C 2189 265 1837 51 1504 51 
C 1229 51 954 203 781 480 
C 582 803 582 1176 582 1472 
L 2438 1472 
z
M 589 1568 
C 634 2505 1126 2714 1382 2714 
C 1818 2714 2112 2297 2118 1568 
L 589 1568 
z
" transform="scale(0.015625)"/>
       <path id="CMMI12-74" d="M 1286 2566 
L 1875 2566 
C 1997 2566 2061 2566 2061 2681 
C 2061 2752 2022 2752 1894 2752 
L 1331 2752 
L 1568 3692 
C 1594 3781 1594 3794 1594 3840 
C 1594 3943 1510 4000 1427 4000 
C 1376 4000 1229 3981 1178 3775 
L 928 2752 
L 326 2752 
C 198 2752 141 2752 141 2630 
C 141 2566 186 2566 307 2566 
L 877 2566 
L 454 881 
C 403 658 384 594 384 511 
C 384 211 595 -64 954 -64 
C 1600 -64 1946 868 1946 912 
C 1946 951 1920 970 1882 970 
C 1869 970 1843 970 1830 944 
C 1824 938 1818 931 1773 829 
C 1638 511 1344 64 973 64 
C 781 64 768 224 768 364 
C 768 370 768 492 787 568 
L 1286 2566 
z
" transform="scale(0.015625)"/>
      </defs>
      <use xlink:href="#CMR17-74" transform="scale(0.996264)"/>
      <use xlink:href="#CMR17-69" transform="translate(35.280768 0) scale(0.996264)"/>
      <use xlink:href="#CMR17-6d" transform="translate(60.151826 0) scale(0.996264)"/>
      <use xlink:href="#CMR17-65" transform="translate(137.071416 0) scale(0.996264)"/>
      <use xlink:href="#CMMI12-74" transform="translate(207.633043 0) scale(0.996264)"/>
     </g>
    </g>
   </g>
   <g id="matplotlib.axis_2">
    <g id="ytick_1">
     <g id="line2d_8">
      <defs>
       <path id="m29a607dc48" d="M 0 0 
L -3.5 0 
" style="stroke: #000000; stroke-width: 0.8"/>
      </defs>
      <g>
       <use xlink:href="#m29a607dc48" x="32.776366" y="139.988242" style="stroke: #000000; stroke-width: 0.8"/>
      </g>
     </g>
     <g id="text_9">
      <!-- $\mathdefault{−3}$ -->
      <g transform="translate(12.855677 142.755643) scale(0.08 -0.08)">
       <defs>
        <path id="CMSY10-0" d="M 4218 1472 
C 4326 1472 4442 1472 4442 1600 
C 4442 1728 4326 1728 4218 1728 
L 755 1728 
C 646 1728 531 1728 531 1600 
C 531 1472 646 1472 755 1472 
L 4218 1472 
z
" transform="scale(0.015625)"/>
        <path id="CMR17-33" d="M 1414 2157 
C 1984 2157 2234 1662 2234 1090 
C 2234 320 1824 25 1453 25 
C 1114 25 563 194 390 693 
C 422 680 454 680 486 680 
C 640 680 755 782 755 948 
C 755 1133 614 1216 486 1216 
C 378 1216 211 1165 211 926 
C 211 335 787 -128 1466 -128 
C 2176 -128 2720 430 2720 1085 
C 2720 1707 2208 2157 1600 2227 
C 2086 2328 2554 2756 2554 3329 
C 2554 3820 2048 4179 1472 4179 
C 890 4179 378 3829 378 3329 
C 378 3110 544 3072 627 3072 
C 762 3072 877 3155 877 3321 
C 877 3486 762 3569 627 3569 
C 602 3569 570 3569 544 3557 
C 730 3959 1235 4032 1459 4032 
C 1683 4032 2106 3925 2106 3320 
C 2106 3143 2080 2828 1862 2550 
C 1670 2304 1453 2304 1242 2284 
C 1210 2284 1062 2269 1037 2269 
C 992 2263 966 2257 966 2208 
C 966 2163 973 2157 1101 2157 
L 1414 2157 
z
" transform="scale(0.015625)"/>
       </defs>
       <use xlink:href="#CMSY10-0" transform="scale(0.996264)"/>
       <use xlink:href="#CMR17-33" transform="translate(77.487468 0) scale(0.996264)"/>
      </g>
     </g>
    </g>
    <g id="ytick_2">
     <g id="line2d_9">
      <g>
       <use xlink:href="#m29a607dc48" x="32.776366" y="118.763829" style="stroke: #000000; stroke-width: 0.8"/>
      </g>
     </g>
     <g id="text_10">
      <!-- $\mathdefault{−2}$ -->
      <g transform="translate(12.855677 121.53123) scale(0.08 -0.08)">
       <use xlink:href="#CMSY10-0" transform="scale(0.996264)"/>
       <use xlink:href="#CMR17-32" transform="translate(77.487468 0) scale(0.996264)"/>
      </g>
     </g>
    </g>
    <g id="ytick_3">
     <g id="line2d_10">
      <g>
       <use xlink:href="#m29a607dc48" x="32.776366" y="97.539416" style="stroke: #000000; stroke-width: 0.8"/>
      </g>
     </g>
     <g id="text_11">
      <!-- $\mathdefault{−1}$ -->
      <g transform="translate(12.855677 100.306817) scale(0.08 -0.08)">
       <use xlink:href="#CMSY10-0" transform="scale(0.996264)"/>
       <use xlink:href="#CMR17-31" transform="translate(77.487468 0) scale(0.996264)"/>
      </g>
     </g>
    </g>
    <g id="ytick_4">
     <g id="line2d_11">
      <g>
       <use xlink:href="#m29a607dc48" x="32.776366" y="76.315004" style="stroke: #000000; stroke-width: 0.8"/>
      </g>
     </g>
     <g id="text_12">
      <!-- $\mathdefault{0}$ -->
      <g transform="translate(19.442183 79.082404) scale(0.08 -0.08)">
       <use xlink:href="#CMR17-30" transform="scale(0.996264)"/>
      </g>
     </g>
    </g>
    <g id="ytick_5">
     <g id="line2d_12">
      <g>
       <use xlink:href="#m29a607dc48" x="32.776366" y="55.090591" style="stroke: #000000; stroke-width: 0.8"/>
      </g>
     </g>
     <g id="text_13">
      <!-- $\mathdefault{1}$ -->
      <g transform="translate(19.442183 57.857992) scale(0.08 -0.08)">
       <use xlink:href="#CMR17-31" transform="scale(0.996264)"/>
      </g>
     </g>
    </g>
    <g id="ytick_6">
     <g id="line2d_13">
      <g>
       <use xlink:href="#m29a607dc48" x="32.776366" y="33.866178" style="stroke: #000000; stroke-width: 0.8"/>
      </g>
     </g>
     <g id="text_14">
      <!-- $\mathdefault{2}$ -->
      <g transform="translate(19.442183 36.633579) scale(0.08 -0.08)">
       <use xlink:href="#CMR17-32" transform="scale(0.996264)"/>
      </g>
     </g>
    </g>
    <g id="ytick_7">
     <g id="line2d_14">
      <g>
       <use xlink:href="#m29a607dc48" x="32.776366" y="12.641765" style="stroke: #000000; stroke-width: 0.8"/>
      </g>
     </g>
     <g id="text_15">
      <!-- $\mathdefault{3}$ -->
      <g transform="translate(19.442183 15.409166) scale(0.08 -0.08)">
       <use xlink:href="#CMR17-33" transform="scale(0.996264)"/>
      </g>
     </g>
    </g>
    <g id="text_16">
     <!-- target-variable $y$ -->
     <g transform="translate(6.918498 112.132166) rotate(-90) scale(0.1 -0.1)">
      <defs>
       <path id="CMR17-61" d="M 2304 1653 
C 2304 2072 2304 2294 2035 2543 
C 1798 2752 1523 2816 1306 2816 
C 800 2816 435 2407 435 1971 
C 435 1728 627 1728 666 1728 
C 749 1728 896 1778 896 1954 
C 896 2112 774 2181 666 2181 
C 640 2181 608 2174 589 2168 
C 723 2592 1069 2714 1293 2714 
C 1613 2714 1965 2429 1965 1885 
L 1965 1600 
C 1587 1600 1133 1549 774 1357 
C 371 1133 256 813 256 570 
C 256 77 832 -64 1171 -64 
C 1523 -64 1850 139 1990 511 
C 2003 233 2182 -18 2464 -18 
C 2598 -18 2938 70 2938 567 
L 2938 920 
L 2822 920 
L 2822 562 
C 2822 178 2650 128 2566 128 
C 2304 128 2304 458 2304 738 
L 2304 1653 
z
M 1965 870 
C 1965 317 1568 38 1216 38 
C 896 38 646 275 646 570 
C 646 761 730 1100 1101 1305 
C 1408 1478 1760 1504 1965 1504 
L 1965 870 
z
" transform="scale(0.015625)"/>
       <path id="CMR17-72" d="M 960 1497 
C 960 2112 1222 2688 1702 2688 
C 1747 2688 1792 2682 1837 2662 
C 1837 2662 1696 2617 1696 2452 
C 1696 2298 1818 2234 1914 2234 
C 1990 2234 2131 2279 2131 2458 
C 2131 2663 1926 2790 1709 2790 
C 1222 2790 1011 2317 947 2093 
L 941 2093 
L 941 2790 
L 198 2720 
L 198 2554 
C 576 2554 634 2515 634 2208 
L 634 428 
C 634 184 608 153 198 153 
L 198 -13 
C 352 0 646 0 813 0 
C 998 0 1325 0 1498 -13 
L 1498 153 
C 1037 153 960 153 960 440 
L 960 1497 
z
" transform="scale(0.015625)"/>
       <path id="CMR17-67" d="M 710 1164 
C 832 1068 1043 960 1299 960 
C 1805 960 2240 1357 2240 1888 
C 2240 2054 2189 2310 1997 2509 
C 2176 2692 2438 2752 2586 2752 
C 2611 2752 2650 2752 2682 2734 
C 2656 2728 2598 2703 2598 2605 
C 2598 2527 2656 2471 2739 2471 
C 2835 2471 2886 2533 2886 2614 
C 2886 2731 2790 2854 2586 2854 
C 2330 2854 2106 2738 1926 2580 
C 1734 2753 1504 2816 1299 2816 
C 794 2816 358 2419 358 1888 
C 358 1522 570 1292 634 1228 
C 442 1004 442 743 442 711 
C 442 545 506 302 723 168 
C 390 85 128 -169 128 -486 
C 128 -943 736 -1280 1466 -1280 
C 2170 -1280 2803 -956 2803 -479 
C 2803 384 1856 384 1363 384 
C 1216 384 954 384 922 391 
C 723 423 589 602 589 826 
C 589 883 589 1024 710 1164 
z
M 1299 1068 
C 736 1068 736 1760 736 1889 
C 736 2016 736 2708 1299 2708 
C 1862 2708 1862 2016 1862 1889 
C 1862 1760 1862 1068 1299 1068 
z
M 1466 -1171 
C 826 -1171 384 -835 384 -486 
C 384 -289 493 -105 634 -4 
C 794 104 858 104 1293 104 
C 1818 104 2547 104 2547 -486 
C 2547 -835 2106 -1171 1466 -1171 
z
" transform="scale(0.015625)"/>
       <path id="CMR17-2d" d="M 1632 1216 
L 1632 1496 
L 26 1496 
L 26 1216 
L 1632 1216 
z
" transform="scale(0.015625)"/>
       <path id="CMR17-76" d="M 2502 2163 
C 2560 2304 2662 2560 3034 2560 
L 3034 2726 
C 2912 2726 2752 2726 2630 2726 
C 2496 2726 2285 2726 2157 2732 
L 2157 2566 
C 2317 2553 2406 2477 2406 2311 
C 2406 2253 2406 2240 2368 2151 
L 1664 377 
L 902 2286 
C 864 2369 864 2381 864 2407 
C 864 2560 1075 2560 1171 2560 
L 1171 2732 
C 1018 2726 736 2726 576 2726 
C 403 2726 205 2726 64 2732 
L 64 2560 
C 307 2560 442 2560 518 2362 
L 1446 44 
C 1485 -51 1491 -64 1549 -64 
C 1606 -64 1613 -51 1651 44 
L 2502 2163 
z
" transform="scale(0.015625)"/>
       <path id="CMR17-62" d="M 960 4396 
L 198 4326 
L 198 4160 
C 576 4160 634 4122 634 3817 
L 634 -13 
L 749 -13 
L 934 441 
C 1120 141 1395 -64 1766 -64 
C 2406 -64 3053 500 3053 1370 
C 3053 2188 2477 2790 1830 2790 
C 1434 2790 1152 2579 960 2330 
L 960 4396 
z
M 973 2004 
C 973 2118 973 2138 1062 2272 
C 1312 2657 1670 2688 1792 2688 
C 1984 2688 2643 2585 2643 1376 
C 2643 108 1888 38 1734 38 
C 1536 38 1248 114 1043 486 
C 973 608 973 621 973 735 
L 973 2004 
z
" transform="scale(0.015625)"/>
       <path id="CMR17-6c" d="M 979 4396 
L 218 4326 
L 218 4160 
C 595 4160 653 4122 653 3817 
L 653 426 
C 653 184 627 153 218 153 
L 218 -13 
C 371 0 653 0 813 0 
C 979 0 1261 0 1414 -13 
L 1414 153 
C 1005 153 979 178 979 426 
L 979 4396 
z
" transform="scale(0.015625)"/>
       <path id="CMMI12-79" d="M 1683 -700 
C 1510 -939 1261 -1152 947 -1152 
C 870 -1152 563 -1152 467 -889 
C 486 -895 518 -895 531 -895 
C 723 -895 851 -729 851 -582 
C 851 -435 730 -384 634 -384 
C 531 -384 307 -458 307 -759 
C 307 -1071 582 -1286 947 -1286 
C 1587 -1286 2234 -700 2413 6 
L 3040 2485 
C 3046 2517 3059 2556 3059 2594 
C 3059 2689 2982 2753 2886 2753 
C 2829 2753 2694 2727 2643 2535 
L 2170 658 
C 2138 543 2138 530 2086 460 
C 1958 281 1747 64 1440 64 
C 1082 64 1050 415 1050 588 
C 1050 952 1222 1443 1395 1903 
C 1466 2088 1504 2178 1504 2305 
C 1504 2574 1312 2816 998 2816 
C 410 2816 173 1890 173 1839 
C 173 1814 198 1782 243 1782 
C 301 1782 307 1807 333 1897 
C 486 2433 730 2689 979 2689 
C 1037 2689 1146 2689 1146 2478 
C 1146 2312 1075 2127 979 1884 
C 666 1047 666 837 666 683 
C 666 77 1101 -64 1421 -64 
C 1606 -64 1837 -6 2061 230 
L 2067 224 
C 1971 -147 1907 -392 1683 -700 
z
" transform="scale(0.015625)"/>
      </defs>
      <use xlink:href="#CMR17-74" transform="scale(0.996264)"/>
      <use xlink:href="#CMR17-61" transform="translate(35.280768 0) scale(0.996264)"/>
      <use xlink:href="#CMR17-72" transform="translate(80.971245 0) scale(0.996264)"/>
      <use xlink:href="#CMR17-67" transform="translate(116.252013 0) scale(0.996264)"/>
      <use xlink:href="#CMR17-65" transform="translate(161.94249 0) scale(0.996264)"/>
      <use xlink:href="#CMR17-74" transform="translate(202.42815 0) scale(0.996264)"/>
      <use xlink:href="#CMR17-2d" transform="translate(237.708918 0) scale(0.996264)"/>
      <use xlink:href="#CMR17-76" transform="translate(267.784884 0) scale(0.996264)"/>
      <use xlink:href="#CMR17-61" transform="translate(310.872984 0) scale(0.996264)"/>
      <use xlink:href="#CMR17-72" transform="translate(356.563461 0) scale(0.996264)"/>
      <use xlink:href="#CMR17-69" transform="translate(391.844229 0) scale(0.996264)"/>
      <use xlink:href="#CMR17-61" transform="translate(416.715287 0) scale(0.996264)"/>
      <use xlink:href="#CMR17-62" transform="translate(462.405764 0) scale(0.996264)"/>
      <use xlink:href="#CMR17-6c" transform="translate(513.301134 0) scale(0.996264)"/>
      <use xlink:href="#CMR17-65" transform="translate(538.172192 0) scale(0.996264)"/>
      <use xlink:href="#CMMI12-79" transform="translate(608.733819 0) scale(0.996264)"/>
     </g>
    </g>
   </g>
   <g id="line2d_15">
    <path d="M 32.776366 76.315004 
L 46.487573 76.365753 
L 74.148097 26.908364 
L 101.689565 32.882646 
L 119.935586 -1 
L 119.935586 -1 
" clip-path="url(#p60fd2ebfec)" style="fill: none; stroke: #ff0000; stroke-width: 1.4; stroke-linecap: square"/>
   </g>
   <g id="line2d_16">
    <path d="M 32.776366 76.315004 
L 32.935107 71.719546 
L 33.312115 67.99372 
L 33.867707 64.695862 
L 34.562196 61.872292 
L 35.355899 59.55194 
L 36.189286 57.777761 
L 37.022673 56.502138 
L 37.836218 55.648684 
L 38.590235 55.161385 
L 39.304567 54.95004 
L 39.999057 54.970677 
L 40.693546 55.214629 
L 41.407878 55.706666 
L 42.161895 56.511076 
L 42.935755 57.6798 
L 43.709615 59.266085 
L 44.463632 61.337569 
L 45.158122 63.924563 
L 45.733556 66.937791 
L 46.150249 70.256764 
L 46.38836 73.793998 
L 46.447888 75.46684 
L 46.487573 73.860543 
L 46.765369 69.295095 
L 47.301118 64.310088 
L 48.114662 58.891982 
L 49.18616 53.272522 
L 50.495769 47.583765 
L 52.023646 41.933611 
L 53.710263 36.541009 
L 55.496093 31.563122 
L 57.321609 27.116317 
L 59.147124 23.244068 
L 60.893269 20.046428 
L 62.540201 17.480694 
L 64.048235 15.52928 
L 65.397529 14.130833 
L 66.588083 13.199833 
L 67.639738 12.646565 
L 68.552496 12.404223 
L 69.36604 12.40875 
L 70.100215 12.627987 
L 70.794705 13.067825 
L 71.449509 13.748045 
L 72.084471 14.74159 
L 72.679747 16.113393 
L 73.195654 17.876675 
L 73.612348 20.082109 
L 73.909986 22.86033 
L 74.048884 26.26473 
L 74.088569 24.502976 
L 74.346522 20.624627 
L 74.802901 17.094835 
L 75.457705 13.764217 
L 76.27125 10.775069 
L 77.20385 8.171869 
L 78.235663 5.928487 
L 79.346846 4.032889 
L 80.497715 2.4992 
L 81.668426 1.300042 
L 82.839136 0.409271 
L 84.009847 -0.209406 
L 85.180558 -0.579903 
L 86.351269 -0.717647 
L 87.52198 -0.631691 
L 88.712533 -0.318736 
L 89.922929 0.233824 
L 91.153168 1.044689 
L 92.403249 2.140567 
L 93.65333 3.534859 
L 94.903411 5.265781 
L 96.133649 7.356328 
L 97.30436 9.788561 
L 98.395701 12.571975 
L 99.367986 15.656744 
L 100.201373 19.03334 
L 100.87602 22.71046 
L 101.352242 26.577892 
L 101.590352 30.082706 
L 101.64988 32.543784 
L 101.689565 30.608884 
L 101.967361 25.87787 
L 102.50311 20.826144 
L 103.316655 15.342296 
L 104.388153 9.64773 
L 105.717604 3.791617 
L 106.977716 -1 
L 106.977716 -1 
" clip-path="url(#p60fd2ebfec)" style="fill: none; stroke-dasharray: 1.4,2.31; stroke-dashoffset: 0; stroke: #ff0000; stroke-width: 1.4"/>
   </g>
   <g id="line2d_17">
    <path d="M 32.776366 76.315004 
L 32.935107 80.913587 
L 33.312115 84.646838 
L 33.867707 87.955638 
L 34.562196 90.792884 
L 35.355899 93.128867 
L 36.189286 94.919458 
L 37.022673 96.211494 
L 37.836218 97.080969 
L 38.610078 97.59261 
L 39.32441 97.81141 
L 40.018899 97.798109 
L 40.713389 97.561377 
L 41.427721 97.076415 
L 42.161895 96.303765 
L 42.935755 95.150282 
L 43.709615 93.579236 
L 44.463632 91.522601 
L 45.158122 88.949285 
L 45.733556 85.947388 
L 46.150249 82.636622 
L 46.38836 79.104077 
L 46.447888 77.407171 
L 46.487573 78.870962 
L 46.745526 82.272698 
L 47.16222 84.881594 
L 47.697969 86.904997 
L 48.332931 88.459451 
L 49.007577 89.549009 
L 49.72191 90.29186 
L 50.456084 90.738155 
L 51.210101 90.938616 
L 52.003804 90.921472 
L 52.876876 90.677109 
L 53.849161 90.167754 
L 54.940502 89.337345 
L 56.17074 88.111038 
L 57.539877 86.419697 
L 59.047911 84.188105 
L 60.655158 81.403393 
L 62.361618 77.991946 
L 64.127606 73.950258 
L 65.893593 69.340072 
L 67.600053 64.256269 
L 69.187457 58.83053 
L 70.616122 53.158229 
L 71.826518 47.451367 
L 72.77896 41.921261 
L 73.47345 36.604149 
L 73.890143 31.734781 
L 74.048884 27.508381 
L 74.108412 29.795427 
L 74.40605 33.883263 
L 74.921956 37.766709 
L 75.636288 41.443137 
L 76.529203 44.87821 
L 77.561016 47.984847 
L 78.711885 50.763933 
L 79.961966 53.207605 
L 81.251732 55.250609 
L 82.561341 56.920586 
L 83.870949 58.2406 
L 85.160716 59.233867 
L 86.430639 59.935394 
L 87.660878 60.364307 
L 88.851431 60.548249 
L 90.022142 60.505765 
L 91.17301 60.241597 
L 92.323878 59.745022 
L 93.454904 59.012435 
L 94.58593 58.010467 
L 95.697113 56.724799 
L 96.788454 55.114165 
L 97.820267 53.192236 
L 98.792552 50.904015 
L 99.665624 48.271791 
L 100.419641 45.271849 
L 101.014918 41.963876 
L 101.411769 38.554726 
L 101.610195 35.291331 
L 101.64988 33.363714 
L 101.709408 35.644593 
L 101.967361 38.855694 
L 102.384055 41.395943 
L 102.919804 43.36629 
L 103.534923 44.831672 
L 104.20957 45.885298 
L 104.904059 46.573283 
L 105.618391 46.977549 
L 106.352566 47.145016 
L 107.146268 47.097357 
L 108.019341 46.816285 
L 108.991626 46.2634 
L 110.102809 45.363478 
L 111.35289 44.049675 
L 112.741869 42.252821 
L 114.269746 39.89744 
L 115.916678 36.934317 
L 117.642981 33.359783 
L 119.428811 29.137712 
L 121.214641 24.330561 
L 122.940943 19.031951 
L 124.528348 13.443927 
L 125.957012 7.598784 
L 127.147565 1.803897 
L 127.641494 -1 
M 132.816098 -1 
L 133.735294 0.237006 
L 134.687737 1.160046 
L 135.660022 1.802546 
L 136.65215 2.19782 
L 137.66412 2.366733 
L 138.715776 2.319186 
L 139.826959 2.043832 
L 140.99767 1.520804 
L 142.247751 0.711506 
L 143.557359 -0.406486 
L 144.147354 -1 
M 204.114564 -1 
L 207.549604 3.315845 
L 211.339533 7.719411 
L 215.486627 12.195144 
L 220.01073 16.748353 
L 224.931684 21.382805 
L 230.269332 26.101132 
L 231.182089 26.879888 
L 231.182089 26.879888 
" clip-path="url(#p60fd2ebfec)" style="fill: none; stroke-dasharray: 1.4,2.31; stroke-dashoffset: 0; stroke: #ff0000; stroke-width: 1.4"/>
   </g>
   <g id="line2d_18">
    <path d="M 32.776366 76.315005 
L 33.052417 75.67843 
L 33.328469 76.353046 
L 33.60452 78.414869 
L 33.880571 71.890878 
L 34.156622 71.450026 
L 34.432673 71.785947 
L 34.708724 79.354621 
L 34.984775 75.014944 
L 35.260827 76.817205 
L 35.536878 75.807808 
L 35.812929 78.266408 
L 36.08898 83.108116 
L 36.917133 72.638982 
L 37.193185 75.366585 
L 37.469236 79.491787 
L 38.021338 73.469337 
L 38.297389 74.161989 
L 38.57344 72.789164 
L 38.849491 73.281519 
L 39.401594 70.102963 
L 39.677645 65.579699 
L 39.953696 64.92841 
L 40.229747 65.036412 
L 40.505798 64.100712 
L 40.78185 66.037592 
L 41.057901 64.637712 
L 41.333952 66.601392 
L 41.610003 64.708762 
L 41.886054 67.173259 
L 42.162105 72.490656 
L 42.438156 70.308371 
L 42.714208 63.000808 
L 42.990259 61.797479 
L 43.26631 67.473059 
L 43.542361 67.959269 
L 43.818412 71.371845 
L 44.094463 71.057528 
L 44.370514 69.114181 
L 44.646566 71.464449 
L 44.922617 74.786782 
L 45.198668 75.650213 
L 45.474719 73.866513 
L 45.75077 73.135485 
L 46.026821 73.907718 
L 46.302872 79.926252 
L 46.578924 76.890669 
L 47.131026 79.727666 
L 47.407077 78.317212 
L 47.683128 77.689627 
L 47.959179 81.192523 
L 48.235231 81.551414 
L 48.511282 83.959985 
L 48.787333 87.736294 
L 49.063384 87.500738 
L 49.339435 88.613991 
L 49.615486 86.379771 
L 49.891537 90.580452 
L 50.167589 92.466952 
L 50.44364 96.878724 
L 50.719691 95.99697 
L 50.995742 97.853694 
L 51.271793 98.06773 
L 51.547844 96.087673 
L 51.823895 93.018653 
L 52.099947 92.358885 
L 52.375998 94.522833 
L 52.652049 87.658557 
L 52.9281 85.675673 
L 54.032305 90.65905 
L 54.308356 92.665958 
L 54.584407 87.448829 
L 55.136509 83.471714 
L 55.41256 82.422408 
L 55.688612 80.443985 
L 55.964663 77.431581 
L 56.240714 79.232298 
L 56.792816 74.451219 
L 57.068867 70.422518 
L 57.344918 74.431253 
L 57.62097 71.422988 
L 57.897021 73.62867 
L 58.173072 71.375237 
L 58.449123 70.916645 
L 58.725174 69.33495 
L 59.001225 66.354481 
L 59.277276 65.241154 
L 59.553328 66.038015 
L 60.10543 54.09012 
L 60.381481 57.040501 
L 60.657532 55.421883 
L 60.933583 46.638299 
L 61.209635 46.78235 
L 61.485686 47.871988 
L 61.761737 46.198416 
L 62.037788 43.2295 
L 62.58989 46.987013 
L 63.141993 45.711143 
L 63.418044 41.698438 
L 63.694095 40.804664 
L 63.970146 44.254782 
L 64.246197 42.610704 
L 64.522248 43.339302 
L 64.798299 39.825332 
L 65.350402 38.087003 
L 65.626453 39.022564 
L 65.902504 41.289869 
L 66.178555 39.3553 
L 66.454606 40.003125 
L 66.730657 34.204904 
L 67.006709 33.081377 
L 67.28276 29.33503 
L 67.558811 28.776457 
L 67.834862 21.936155 
L 68.110913 22.488023 
L 68.386964 24.677595 
L 68.939067 31.537002 
L 69.215118 37.31453 
L 69.76722 33.283622 
L 70.043271 39.054532 
L 70.319322 40.615127 
L 70.595374 39.931814 
L 70.871425 36.502359 
L 71.423527 28.136124 
L 71.699578 30.768495 
L 71.975629 32.101899 
L 72.25168 31.464178 
L 72.527732 31.614392 
L 72.803783 30.013553 
L 73.079834 29.701547 
L 73.355885 26.587059 
L 73.631936 26.6094 
L 73.907987 26.791258 
L 74.184038 33.162872 
L 74.736141 27.875847 
L 75.012192 26.972105 
L 75.288243 28.784263 
L 75.840345 18.129352 
L 76.116397 20.146533 
L 76.392448 20.951989 
L 76.668499 20.882722 
L 76.94455 18.864527 
L 77.220601 12.536719 
L 77.496652 15.089241 
L 78.048755 16.96115 
L 78.324806 21.021595 
L 78.600857 14.722644 
L 78.876908 13.950763 
L 79.152959 17.133626 
L 79.42901 10.28 
L 79.705061 10.693702 
L 79.981113 12.925214 
L 80.257164 12.36406 
L 80.533215 15.374015 
L 80.809266 12.0701 
L 81.085317 11.291439 
L 81.361368 12.664058 
L 81.637419 11.548557 
L 81.913471 11.362579 
L 82.189522 9.532822 
L 82.465573 9.21719 
L 82.741624 13.237154 
L 83.017675 8.985084 
L 83.293726 2.326789 
L 83.569778 3.199951 
L 83.845829 2.624631 
L 84.12188 0.81909 
L 84.397931 3.740279 
L 84.673982 3.779639 
L 84.950033 4.382988 
L 85.226084 6.074027 
L 85.778187 19.030174 
L 86.054238 20.663261 
L 86.60634 14.339092 
L 87.158442 10.786741 
L 87.434494 5.623663 
L 87.710545 4.63817 
L 87.986596 5.615949 
L 88.262647 5.473858 
L 88.538698 9.484335 
L 89.0908 6.119754 
L 89.366852 8.022809 
L 89.642903 8.955905 
L 89.918954 8.080536 
L 90.195005 9.183883 
L 90.471056 11.771788 
L 90.747107 8.294705 
L 91.023159 7.893286 
L 91.29921 11.559886 
L 91.575261 12.568196 
L 91.851312 20.785786 
L 92.127363 18.423502 
L 92.403414 26.244082 
L 92.679465 26.25663 
L 92.955517 22.950468 
L 93.231568 23.343313 
L 93.507619 25.372449 
L 94.059721 26.579917 
L 94.611823 32.690356 
L 95.163926 29.903745 
L 95.716028 31.723227 
L 95.992079 29.68224 
L 96.26813 30.70235 
L 96.544182 29.135455 
L 96.820233 26.253974 
L 97.096284 28.231842 
L 97.372335 26.591647 
L 97.648386 22.996068 
L 97.924437 24.81683 
L 98.47654 35.206407 
L 98.752591 35.033892 
L 99.028642 33.902086 
L 99.304693 35.315653 
L 99.580744 32.721377 
L 99.856795 37.246085 
L 100.132846 32.180313 
L 100.684949 28.03452 
L 100.961 29.914379 
L 101.237051 27.571201 
L 101.513102 30.9739 
L 101.789153 28.83381 
L 102.065204 29.097701 
L 102.341256 34.923315 
L 102.617307 32.40081 
L 102.893358 33.780142 
L 103.169409 32.476384 
L 103.44546 35.514322 
L 103.721511 35.102337 
L 103.997563 32.504582 
L 104.273614 35.466968 
L 104.549665 34.322781 
L 104.825716 29.607414 
L 105.101767 26.851319 
L 105.377818 27.283386 
L 105.929921 21.973239 
L 106.205972 20.422345 
L 106.482023 21.737338 
L 106.758074 21.625706 
L 107.034125 19.973219 
L 107.310176 20.288874 
L 107.586227 22.742843 
L 107.862279 19.714206 
L 108.13833 13.246957 
L 108.414381 17.579544 
L 108.690432 17.48182 
L 108.966483 13.354292 
L 109.242534 12.371944 
L 109.518585 16.246216 
L 110.346739 10.830907 
L 110.62279 7.938619 
L 110.898841 17.922899 
L 111.174892 13.269137 
L 111.726995 18.483565 
L 112.003046 20.699325 
L 112.279097 20.603428 
L 112.555148 23.859539 
L 112.831199 23.346144 
L 113.10725 28.146669 
L 113.383302 22.069698 
L 113.659353 24.351477 
L 113.935404 27.766508 
L 114.211455 24.193341 
L 114.487506 22.475644 
L 114.763557 19.569716 
L 115.039608 22.285383 
L 115.31566 18.834125 
L 115.591711 17.793746 
L 115.867762 19.552916 
L 116.143813 19.673614 
L 116.419864 22.817532 
L 116.695915 24.507899 
L 116.971966 23.805367 
L 117.248018 25.758523 
L 117.524069 30.423724 
L 117.80012 27.41926 
L 118.076171 25.726128 
L 118.352222 18.64661 
L 118.628273 17.814244 
L 118.904325 19.914926 
L 119.180376 20.800378 
L 119.456427 17.411209 
L 119.732478 21.863468 
L 120.008529 17.564972 
L 120.836683 10.690867 
L 121.112734 6.673053 
L 121.388785 11.135215 
L 121.664836 6.78626 
L 122.216938 9.31375 
L 122.492989 7.537687 
L 122.769041 6.510377 
L 123.045092 6.845939 
L 123.321143 6.443136 
L 123.597194 6.294302 
L 123.873245 8.748659 
L 124.149296 4.204633 
L 124.425348 2.359992 
L 124.701399 -0.986868 
L 124.97745 -0.227527 
L 125.014043 -1 
L 125.014043 -1 
" clip-path="url(#p60fd2ebfec)" style="fill: none; stroke: #1f77b4; stroke-width: 0.5; stroke-linecap: square"/>
   </g>
   <g id="line2d_19">
    <path d="M 32.776366 76.315004 
L 33.052417 79.629169 
L 33.328469 81.202815 
L 33.60452 81.635289 
L 33.880571 82.578687 
L 34.156622 82.5333 
L 34.432673 85.985529 
L 34.984775 88.289977 
L 35.812929 91.430534 
L 36.08898 87.976207 
L 36.641082 97.948439 
L 36.917133 94.906191 
L 37.193185 97.854353 
L 37.469236 91.541272 
L 37.745287 96.668052 
L 38.021338 95.745181 
L 38.849491 101.686107 
L 39.125543 96.981343 
L 39.953696 103.08383 
L 40.229747 108.228363 
L 40.505798 105.446333 
L 40.78185 108.894473 
L 41.610003 99.868346 
L 41.886054 97.657671 
L 42.162105 94.215992 
L 42.438156 99.006506 
L 42.714208 95.675246 
L 42.990259 96.010764 
L 43.26631 91.185878 
L 43.542361 92.459944 
L 43.818412 90.933863 
L 44.094463 92.062374 
L 44.370514 92.521017 
L 44.646566 91.373531 
L 44.922617 94.219578 
L 45.198668 90.823268 
L 45.474719 90.170929 
L 45.75077 85.155025 
L 46.026821 83.43505 
L 46.578924 77.516257 
L 46.854975 76.009714 
L 47.131026 78.143791 
L 47.407077 77.766996 
L 47.683128 75.689341 
L 47.959179 76.173527 
L 48.235231 78.679612 
L 48.511282 78.101992 
L 49.063384 81.26976 
L 49.339435 84.819187 
L 49.615486 84.334243 
L 49.891537 84.584671 
L 50.167589 87.448217 
L 50.44364 87.123713 
L 50.719691 81.791123 
L 50.995742 78.793249 
L 51.271793 79.514366 
L 51.547844 81.580102 
L 51.823895 73.353422 
L 52.099947 73.149914 
L 52.375998 69.573987 
L 52.652049 69.740143 
L 52.9281 72.184246 
L 53.204151 72.299033 
L 53.756253 74.08583 
L 54.032305 74.883052 
L 54.308356 72.096481 
L 54.584407 72.843358 
L 54.860458 73.091918 
L 55.136509 74.371934 
L 55.688612 77.892853 
L 55.964663 78.323434 
L 56.240714 83.178879 
L 56.516765 75.580984 
L 56.792816 75.546173 
L 57.068867 73.836157 
L 57.344918 75.085257 
L 57.897021 71.322336 
L 58.173072 71.542837 
L 59.001225 58.257791 
L 59.277276 58.011848 
L 59.553328 59.049612 
L 59.829379 64.521211 
L 60.10543 65.536142 
L 60.381481 64.762056 
L 60.933583 58.73292 
L 61.209635 63.668154 
L 61.485686 62.700595 
L 61.761737 60.784288 
L 62.037788 66.141029 
L 62.313839 66.235796 
L 62.58989 60.461348 
L 63.141993 54.57705 
L 63.418044 58.80642 
L 63.694095 58.759584 
L 64.246197 64.488663 
L 64.522248 66.225333 
L 64.798299 65.307877 
L 65.350402 53.553326 
L 65.902504 58.750051 
L 66.178555 55.089336 
L 66.454606 58.992873 
L 67.006709 46.831618 
L 67.558811 48.707787 
L 67.834862 42.360117 
L 68.110913 40.011455 
L 68.663016 32.031947 
L 68.939067 36.62779 
L 69.491169 29.675079 
L 69.76722 30.213695 
L 70.043271 32.422797 
L 70.319322 32.197825 
L 70.595374 36.801869 
L 71.147476 29.806696 
L 71.423527 25.527186 
L 71.699578 24.035381 
L 72.25168 29.372123 
L 72.527732 27.072639 
L 72.803783 25.934476 
L 73.079834 20.110331 
L 73.355885 24.969719 
L 73.631936 27.267154 
L 73.907987 23.277107 
L 74.184038 28.112709 
L 74.46009 28.793433 
L 74.736141 32.312302 
L 75.012192 34.070678 
L 75.288243 34.725739 
L 75.564294 40.967526 
L 76.116397 38.456212 
L 76.392448 40.328697 
L 76.94455 35.79198 
L 77.220601 35.331212 
L 77.496652 28.68873 
L 77.772703 29.023282 
L 78.048755 26.6826 
L 78.324806 31.378975 
L 78.600857 29.01097 
L 78.876908 32.831344 
L 79.152959 30.177264 
L 79.42901 30.925554 
L 79.705061 36.96695 
L 79.981113 34.90445 
L 80.257164 30.05274 
L 80.533215 30.892902 
L 81.085317 20.981591 
L 81.361368 19.093633 
L 81.637419 14.044266 
L 81.913471 13.473481 
L 82.189522 15.843119 
L 82.465573 16.944523 
L 82.741624 14.534542 
L 83.017675 20.246295 
L 83.293726 17.846218 
L 83.569778 19.208348 
L 83.845829 22.645935 
L 84.12188 20.169744 
L 84.397931 19.857795 
L 84.673982 17.142088 
L 84.950033 20.100527 
L 85.226084 18.439174 
L 85.502136 18.669273 
L 85.778187 20.534966 
L 86.054238 20.817773 
L 86.330289 18.690305 
L 86.882391 20.99095 
L 87.434494 15.264338 
L 87.986596 20.397578 
L 88.262647 20.449354 
L 88.538698 21.802105 
L 88.814749 25.673074 
L 89.0908 20.180009 
L 89.366852 22.145472 
L 89.642903 20.815872 
L 90.195005 14.908852 
L 90.471056 13.441644 
L 90.747107 16.470043 
L 91.023159 16.464929 
L 91.29921 17.736575 
L 91.851312 21.745247 
L 92.127363 17.061672 
L 92.679465 19.980341 
L 92.955517 19.863214 
L 93.231568 25.518327 
L 93.78367 21.120439 
L 94.059721 20.537455 
L 94.335772 21.576262 
L 94.611823 20.824246 
L 94.887875 24.346997 
L 95.163926 23.690382 
L 95.439977 22.558539 
L 95.716028 20.031813 
L 95.992079 25.005611 
L 96.26813 34.594185 
L 96.544182 33.458019 
L 96.820233 35.435643 
L 97.096284 35.617297 
L 97.372335 33.967906 
L 97.924437 33.837794 
L 98.200488 31.495176 
L 98.47654 32.756632 
L 98.752591 32.224039 
L 99.028642 31.414906 
L 99.304693 28.684011 
L 99.856795 30.809738 
L 100.132846 28.339279 
L 100.408898 24.457345 
L 100.961 22.933063 
L 101.237051 28.177089 
L 101.513102 28.261736 
L 101.789153 33.11022 
L 102.341256 25.394912 
L 102.893358 31.440261 
L 103.721511 20.72559 
L 104.273614 21.973492 
L 104.549665 21.563319 
L 104.825716 22.563921 
L 105.101767 21.798383 
L 105.377818 24.17407 
L 105.653869 25.302793 
L 105.929921 20.987588 
L 106.205972 18.875429 
L 106.482023 20.471384 
L 106.758074 21.191359 
L 107.034125 16.988125 
L 107.310176 14.998584 
L 108.13833 22.449625 
L 108.414381 24.239817 
L 108.690432 21.324024 
L 108.966483 14.737691 
L 109.242534 12.361122 
L 109.518585 13.412122 
L 109.794637 13.557802 
L 110.070688 16.617629 
L 110.62279 10.072184 
L 110.898841 3.34299 
L 111.174892 3.52913 
L 111.450944 6.126815 
L 111.726995 12.856851 
L 112.003046 14.612253 
L 112.279097 10.46682 
L 112.555148 12.868876 
L 112.831199 8.471988 
L 113.10725 10.891651 
L 113.383302 12.155108 
L 113.659353 16.053348 
L 113.935404 16.276533 
L 114.211455 13.624501 
L 114.487506 13.830149 
L 114.763557 11.43295 
L 115.039608 10.245323 
L 115.31566 6.194352 
L 115.591711 6.187423 
L 115.867762 7.399572 
L 116.143813 9.964618 
L 116.419864 7.233449 
L 116.695915 7.163338 
L 116.971966 4.984625 
L 117.248018 7.079228 
L 117.524069 7.037095 
L 117.80012 6.435332 
L 118.076171 2.828634 
L 118.352222 4.123241 
L 118.781542 -1 
M 119.044696 -1 
L 119.180376 0.2706 
L 119.409582 -1 
M 121.34521 -1 
L 121.388785 -0.584704 
L 121.544634 -1 
M 121.999058 -1 
L 122.216938 -0.092102 
L 122.492989 1.839402 
L 122.755425 -1 
L 122.755425 -1 
" clip-path="url(#p60fd2ebfec)" style="fill: none; stroke: #ff7f0e; stroke-width: 0.5; stroke-linecap: square"/>
   </g>
   <g id="line2d_20">
    <path d="M 32.776366 76.315005 
L 33.052417 81.281114 
L 33.60452 79.268556 
L 33.880571 86.873554 
L 34.156622 83.332453 
L 34.432673 82.081008 
L 34.708724 82.630327 
L 34.984775 83.863493 
L 35.260827 81.183701 
L 35.536878 84.687513 
L 35.812929 86.04161 
L 36.08898 83.659992 
L 36.365031 78.418215 
L 36.641082 79.902312 
L 37.193185 79.263854 
L 37.469236 76.069601 
L 37.745287 76.663371 
L 38.021338 76.110976 
L 38.57344 81.471336 
L 39.125543 84.75181 
L 39.401594 81.512382 
L 39.677645 75.929732 
L 39.953696 72.808334 
L 40.229747 74.4005 
L 40.505798 74.8577 
L 40.78185 79.582682 
L 41.057901 78.935865 
L 41.333952 78.668345 
L 41.610003 76.105726 
L 41.886054 76.888386 
L 42.162105 80.667033 
L 42.990259 77.369994 
L 43.26631 79.12055 
L 43.542361 79.515081 
L 43.818412 77.376589 
L 44.094463 70.54984 
L 44.370514 73.43675 
L 44.646566 74.610469 
L 44.922617 76.686033 
L 45.474719 77.540392 
L 45.75077 76.90533 
L 46.026821 72.166174 
L 46.302872 76.120932 
L 46.578924 71.661315 
L 47.131026 66.145437 
L 47.407077 66.774977 
L 47.683128 65.580602 
L 47.959179 59.760452 
L 48.235231 58.271465 
L 48.511282 58.144656 
L 48.787333 54.004758 
L 49.063384 52.686654 
L 49.339435 54.196473 
L 49.615486 48.875859 
L 49.891537 59.976755 
L 50.167589 60.202827 
L 50.44364 62.219869 
L 50.719691 61.881323 
L 50.995742 66.341043 
L 51.271793 63.429009 
L 51.547844 65.630913 
L 51.823895 65.091547 
L 52.099947 67.671514 
L 52.375998 61.961989 
L 52.652049 62.478922 
L 52.9281 60.064426 
L 53.204151 53.302506 
L 53.756253 59.334433 
L 54.032305 58.068141 
L 54.584407 59.8528 
L 54.860458 59.100403 
L 55.136509 60.108477 
L 55.41256 65.061498 
L 55.688612 64.684051 
L 55.964663 63.389943 
L 56.240714 62.782803 
L 56.516765 63.523987 
L 56.792816 59.957321 
L 57.068867 53.866397 
L 57.344918 51.195723 
L 58.173072 58.593381 
L 58.449123 57.915237 
L 58.725174 58.809335 
L 60.10543 48.806573 
L 60.381481 50.309155 
L 60.657532 47.355952 
L 60.933583 46.660876 
L 61.209635 46.316858 
L 61.485686 42.703485 
L 61.761737 41.181333 
L 62.313839 40.473168 
L 62.58989 41.840566 
L 63.141993 40.318143 
L 63.418044 37.979943 
L 63.694095 39.086943 
L 63.970146 33.140611 
L 64.246197 30.970277 
L 64.798299 30.778897 
L 65.074351 24.911857 
L 65.350402 23.41814 
L 65.626453 23.85266 
L 65.902504 23.358305 
L 66.178555 23.23682 
L 66.454606 23.441118 
L 66.730657 23.856966 
L 67.006709 24.914518 
L 67.28276 20.285037 
L 67.558811 24.845022 
L 67.834862 26.222485 
L 68.386964 33.306011 
L 68.663016 34.823452 
L 68.939067 35.419699 
L 69.215118 33.864803 
L 69.491169 29.486256 
L 69.76722 26.999728 
L 70.043271 28.540167 
L 70.319322 22.798803 
L 70.595374 22.287223 
L 71.147476 13.873727 
L 71.423527 14.246233 
L 71.699578 15.518156 
L 71.975629 22.39873 
L 72.25168 18.786111 
L 72.527732 20.025021 
L 72.803783 15.907112 
L 73.079834 19.819274 
L 73.355885 26.594248 
L 73.631936 26.873814 
L 74.184038 24.924063 
L 74.46009 26.089064 
L 74.736141 20.848679 
L 75.012192 22.968012 
L 75.288243 18.908858 
L 75.564294 20.928029 
L 75.840345 21.227139 
L 76.116397 23.302321 
L 76.668499 20.549487 
L 76.94455 23.892394 
L 77.220601 22.25842 
L 77.496652 24.83557 
L 77.772703 24.592588 
L 78.048755 26.143785 
L 78.324806 26.798896 
L 78.600857 31.200113 
L 78.876908 32.790969 
L 79.152959 30.486446 
L 79.42901 31.996434 
L 79.705061 38.161528 
L 79.981113 39.963768 
L 80.257164 39.043754 
L 80.533215 34.68682 
L 80.809266 35.248166 
L 81.085317 36.704599 
L 81.361368 35.211336 
L 81.637419 34.942615 
L 81.913471 29.227788 
L 82.189522 34.5096 
L 82.465573 34.381204 
L 82.741624 32.609808 
L 83.017675 32.973649 
L 83.293726 30.290173 
L 83.845829 35.763991 
L 84.397931 32.558565 
L 84.673982 31.884778 
L 84.950033 28.832966 
L 85.226084 23.423803 
L 85.778187 21.759369 
L 86.054238 30.805484 
L 86.330289 32.339022 
L 86.60634 32.680922 
L 86.882391 35.688586 
L 87.158442 34.855352 
L 87.710545 46.405366 
L 87.986596 50.400507 
L 88.262647 48.203003 
L 88.538698 50.706197 
L 88.814749 51.750759 
L 89.0908 48.689299 
L 89.366852 51.794794 
L 89.642903 50.977988 
L 89.918954 51.534903 
L 90.195005 54.293478 
L 90.471056 55.686416 
L 90.747107 54.133449 
L 91.023159 54.100279 
L 91.29921 49.347442 
L 91.575261 48.82144 
L 91.851312 50.732977 
L 92.127363 51.239349 
L 92.403414 43.870151 
L 92.679465 50.537797 
L 93.231568 56.161649 
L 93.507619 50.230644 
L 94.059721 50.624845 
L 94.335772 48.209649 
L 94.611823 47.054894 
L 94.887875 47.435049 
L 95.163926 51.145866 
L 95.716028 48.710349 
L 95.992079 48.019033 
L 96.26813 47.933853 
L 96.544182 49.786982 
L 96.820233 46.824275 
L 97.096284 46.699074 
L 97.372335 45.253061 
L 97.648386 45.890855 
L 97.924437 49.422956 
L 98.200488 45.709571 
L 98.752591 35.998694 
L 99.028642 34.552276 
L 99.304693 35.025209 
L 99.580744 36.672295 
L 99.856795 36.593441 
L 100.132846 37.229833 
L 100.408898 37.020647 
L 100.684949 35.136021 
L 100.961 34.748392 
L 101.237051 32.05509 
L 101.513102 32.842855 
L 101.789153 31.33671 
L 102.065204 32.288375 
L 102.341256 39.524431 
L 102.617307 40.574517 
L 102.893358 40.756216 
L 103.169409 33.566888 
L 103.721511 28.700399 
L 103.997563 29.067918 
L 104.273614 25.658152 
L 104.549665 26.158267 
L 105.101767 22.525437 
L 105.653869 33.504678 
L 105.929921 33.891524 
L 106.205972 34.053506 
L 106.758074 30.035803 
L 107.034125 30.998525 
L 107.310176 31.539504 
L 107.586227 35.829558 
L 108.13833 34.891188 
L 108.414381 36.710791 
L 108.690432 35.226696 
L 109.242534 35.572644 
L 109.518585 33.326576 
L 109.794637 33.103648 
L 110.070688 34.867108 
L 110.62279 36.75435 
L 111.174892 29.136644 
L 111.450944 23.699372 
L 111.726995 25.058262 
L 112.003046 21.721692 
L 112.279097 25.186093 
L 112.555148 20.171669 
L 112.831199 24.012028 
L 113.935404 7.862513 
L 114.211455 9.214288 
L 114.487506 6.263666 
L 114.740439 -1 
M 118.396454 -1 
L 118.904325 8.966874 
L 119.207745 -1 
M 119.922383 -1 
L 120.008529 0.667208 
L 120.105949 -1 
M 122.364799 -1 
L 122.492989 1.062687 
L 122.769041 0.141428 
L 123.045092 1.462806 
L 123.321143 0.516174 
L 123.597194 5.862687 
L 123.873245 8.261986 
L 124.149296 8.346657 
L 124.425348 8.818644 
L 124.701399 6.127558 
L 124.97745 5.978552 
L 125.253501 7.012923 
L 125.529552 4.945848 
L 126.018621 -1 
L 126.018621 -1 
" clip-path="url(#p60fd2ebfec)" style="fill: none; stroke: #2ca02c; stroke-width: 0.5; stroke-linecap: square"/>
   </g>
   <g id="line2d_21">
    <path d="M 32.776366 76.315004 
L 33.052417 75.851083 
L 34.432673 63.807371 
L 34.708724 60.580751 
L 34.984775 61.903705 
L 35.260827 61.365956 
L 35.536878 55.368074 
L 35.812929 56.236954 
L 36.08898 55.638095 
L 36.365031 52.347746 
L 36.641082 53.899532 
L 36.917133 57.225856 
L 37.193185 56.514383 
L 37.469236 54.532994 
L 37.745287 55.703189 
L 38.021338 55.303399 
L 38.297389 55.862152 
L 38.57344 58.013368 
L 38.849491 53.307943 
L 39.125543 54.715242 
L 39.401594 54.458756 
L 39.677645 53.844828 
L 39.953696 56.423591 
L 40.229747 55.359149 
L 40.505798 60.805878 
L 40.78185 60.636151 
L 41.057901 60.784051 
L 41.333952 65.42861 
L 41.610003 65.319735 
L 42.162105 68.581474 
L 42.438156 63.918035 
L 42.714208 66.997474 
L 42.990259 60.535201 
L 43.26631 65.398456 
L 43.542361 64.728796 
L 43.818412 63.280467 
L 44.094463 64.492714 
L 44.646566 69.79324 
L 44.922617 68.113431 
L 45.198668 68.679085 
L 45.474719 68.970775 
L 45.75077 68.678906 
L 46.026821 71.85942 
L 46.302872 79.015693 
L 46.578924 79.365745 
L 46.854975 75.528883 
L 47.131026 77.834372 
L 47.407077 82.997681 
L 47.683128 78.873495 
L 47.959179 82.302101 
L 48.235231 82.601754 
L 48.511282 78.223181 
L 48.787333 80.483504 
L 49.063384 81.110585 
L 49.339435 75.591795 
L 49.615486 73.943095 
L 49.891537 75.485885 
L 50.167589 72.443828 
L 50.44364 76.561996 
L 50.719691 76.489817 
L 50.995742 80.386671 
L 51.271793 74.81203 
L 51.547844 63.691789 
L 51.823895 64.347075 
L 52.099947 66.697382 
L 52.375998 61.500167 
L 52.9281 59.260535 
L 53.204151 60.04882 
L 53.480202 59.126364 
L 53.756253 61.177666 
L 54.032305 56.40147 
L 54.308356 54.049945 
L 54.584407 57.010514 
L 54.860458 53.676161 
L 55.136509 60.585854 
L 55.688612 65.709864 
L 55.964663 65.504016 
L 56.240714 66.216498 
L 56.516765 60.14561 
L 56.792816 58.229031 
L 57.068867 54.983658 
L 57.344918 55.431361 
L 57.62097 54.568167 
L 57.897021 49.531054 
L 58.173072 51.002211 
L 58.449123 51.655562 
L 58.725174 51.049629 
L 59.001225 50.712578 
L 59.277276 52.416744 
L 59.553328 53.166144 
L 59.829379 55.850309 
L 60.10543 53.901132 
L 60.381481 55.984599 
L 60.657532 62.227475 
L 60.933583 59.204112 
L 61.209635 60.916139 
L 61.485686 60.520322 
L 62.037788 53.342281 
L 62.58989 57.96295 
L 62.865941 59.762385 
L 63.418044 47.455506 
L 63.970146 45.743265 
L 64.246197 47.541199 
L 64.522248 44.580282 
L 64.798299 45.653562 
L 65.074351 42.269394 
L 65.350402 33.555508 
L 65.626453 37.172763 
L 65.902504 34.357125 
L 66.178555 36.417367 
L 66.730657 27.252764 
L 67.28276 20.96542 
L 67.558811 19.884817 
L 67.834862 22.593498 
L 68.110913 22.872191 
L 68.386964 20.591227 
L 68.663016 21.673553 
L 68.939067 28.135911 
L 69.215118 29.32795 
L 69.491169 27.694018 
L 70.043271 23.148259 
L 70.319322 23.266905 
L 70.595374 20.511228 
L 70.871425 20.429354 
L 71.147476 21.057994 
L 71.423527 21.328346 
L 71.699578 17.738371 
L 71.975629 19.449614 
L 72.25168 23.793245 
L 72.527732 24.465403 
L 72.803783 23.115124 
L 73.355885 27.514854 
L 73.907987 26.157904 
L 74.184038 26.114904 
L 74.736141 22.534109 
L 75.012192 19.082951 
L 75.288243 18.568966 
L 75.564294 14.838137 
L 75.840345 19.791217 
L 76.116397 19.499395 
L 76.392448 16.223816 
L 76.668499 14.514445 
L 76.94455 16.033293 
L 77.220601 19.722229 
L 77.496652 19.247397 
L 77.772703 20.111691 
L 78.048755 19.360952 
L 78.324806 21.057003 
L 78.600857 17.772509 
L 78.876908 22.100892 
L 79.152959 20.572206 
L 79.42901 21.024511 
L 79.705061 22.443201 
L 79.981113 28.930731 
L 80.257164 31.404517 
L 80.533215 36.090539 
L 80.809266 36.221443 
L 81.085317 38.374519 
L 81.361368 37.23777 
L 81.913471 42.165915 
L 82.189522 41.699084 
L 82.465573 44.598415 
L 82.741624 44.807422 
L 83.017675 41.810669 
L 83.293726 43.987324 
L 83.569778 37.540727 
L 83.845829 37.865365 
L 84.12188 35.594099 
L 84.397931 35.804972 
L 84.950033 37.331553 
L 85.502136 44.649918 
L 85.778187 43.427112 
L 86.054238 43.914208 
L 86.330289 44.918926 
L 86.60634 43.903039 
L 86.882391 38.396852 
L 87.434494 48.080877 
L 87.710545 48.240908 
L 88.262647 51.719251 
L 88.538698 52.534902 
L 88.814749 47.885298 
L 89.0908 50.907407 
L 89.366852 49.042898 
L 89.642903 48.228977 
L 89.918954 46.597327 
L 90.195005 46.189382 
L 90.471056 48.586886 
L 90.747107 47.119304 
L 91.023159 51.386797 
L 91.29921 47.773761 
L 91.575261 46.257266 
L 91.851312 40.147034 
L 92.127363 36.682187 
L 92.403414 37.001394 
L 92.679465 36.123719 
L 93.231568 26.686359 
L 93.507619 28.100063 
L 93.78367 25.749787 
L 94.059721 25.119844 
L 94.335772 26.775065 
L 94.611823 25.347107 
L 94.887875 25.097692 
L 95.439977 22.028143 
L 95.716028 22.045019 
L 95.992079 23.682993 
L 96.26813 23.023374 
L 96.544182 21.996033 
L 96.820233 25.703397 
L 97.096284 31.503798 
L 97.372335 30.746236 
L 97.648386 29.540448 
L 97.924437 25.961631 
L 98.200488 30.835197 
L 98.47654 26.71621 
L 98.752591 26.604277 
L 99.028642 27.882273 
L 99.304693 23.821286 
L 99.580744 24.625308 
L 99.856795 25.829759 
L 100.132846 23.524108 
L 100.408898 19.905377 
L 100.684949 20.940869 
L 100.961 26.610172 
L 101.237051 29.028529 
L 101.513102 33.042889 
L 101.789153 32.187334 
L 102.065204 30.226473 
L 102.341256 27.348031 
L 102.617307 31.933806 
L 102.893358 31.201174 
L 103.169409 27.370085 
L 103.44546 34.082583 
L 103.997563 35.566296 
L 104.273614 31.546109 
L 104.549665 37.004756 
L 104.825716 39.480318 
L 105.101767 34.463021 
L 105.377818 35.314193 
L 105.653869 35.048963 
L 105.929921 33.380899 
L 106.205972 34.655525 
L 106.482023 35.391349 
L 106.758074 36.915768 
L 107.034125 35.145012 
L 107.310176 36.643474 
L 107.586227 34.364437 
L 107.862279 34.405792 
L 108.13833 32.818939 
L 108.414381 37.572589 
L 108.690432 37.78713 
L 108.966483 43.360622 
L 109.242534 39.188429 
L 109.518585 41.862162 
L 110.070688 37.652028 
L 110.346739 38.42988 
L 110.62279 38.616258 
L 110.898841 43.747076 
L 111.450944 34.314468 
L 112.003046 30.306259 
L 112.279097 31.83712 
L 112.555148 25.850009 
L 112.831199 23.475864 
L 113.10725 25.557562 
L 113.383302 22.326833 
L 113.659353 23.237393 
L 113.935404 21.466933 
L 114.211455 17.941439 
L 114.487506 20.865014 
L 114.763557 20.195408 
L 115.039608 15.936122 
L 115.591711 22.552 
L 115.867762 25.081928 
L 116.143813 25.954118 
L 116.419864 28.939552 
L 116.695915 20.764758 
L 116.971966 19.371205 
L 117.248018 20.213591 
L 117.524069 22.737484 
L 118.076171 17.941252 
L 118.352222 18.539987 
L 118.904325 10.237841 
L 119.180376 4.512058 
L 119.456427 2.344397 
L 119.732478 5.706709 
L 120.28458 7.014784 
L 121.112734 0.414568 
L 121.388785 -0.463571 
L 121.415117 -1 
L 121.415117 -1 
" clip-path="url(#p60fd2ebfec)" style="fill: none; stroke: #d62728; stroke-width: 0.5; stroke-linecap: square"/>
   </g>
   <g id="patch_3">
    <path d="M 32.776366 139.988242 
L 32.776366 12.641765 
" style="fill: none; stroke: #000000; stroke-width: 0.8; stroke-linejoin: miter; stroke-linecap: square"/>
   </g>
   <g id="patch_4">
    <path d="M 231.201932 139.988242 
L 231.201932 12.641765 
" style="fill: none; stroke: #000000; stroke-width: 0.8; stroke-linejoin: miter; stroke-linecap: square"/>
   </g>
   <g id="patch_5">
    <path d="M 32.776366 139.988242 
L 231.201932 139.988242 
" style="fill: none; stroke: #000000; stroke-width: 0.8; stroke-linejoin: miter; stroke-linecap: square"/>
   </g>
   <g id="patch_6">
    <path d="M 32.776366 12.641765 
L 231.201932 12.641765 
" style="fill: none; stroke: #000000; stroke-width: 0.8; stroke-linejoin: miter; stroke-linecap: square"/>
   </g>
   <g id="text_17">
    <!-- Sampled Data -->
    <g transform="translate(101.474528 6.641765) scale(0.096 -0.096)">
     <defs>
      <path id="CMR17-53" d="M 2803 4290 
C 2803 4404 2797 4411 2758 4411 
C 2720 4411 2707 4385 2682 4328 
L 2490 3907 
C 2246 4257 1875 4416 1472 4416 
C 819 4416 294 3901 294 3253 
C 294 3056 339 2776 557 2510 
C 794 2218 1018 2167 1530 2033 
C 1722 1982 2042 1899 2106 1874 
C 2470 1722 2662 1341 2662 985 
C 2662 527 2336 38 1779 38 
C 1094 38 454 419 410 1311 
C 403 1413 397 1419 352 1419 
C 301 1419 294 1413 294 1285 
L 294 -1 
C 294 -115 301 -122 339 -122 
C 384 -122 397 -90 486 108 
C 493 127 493 140 614 381 
C 934 -39 1472 -128 1779 -128 
C 2477 -128 2970 451 2970 1124 
C 2970 1454 2848 1708 2778 1823 
C 2509 2230 2221 2306 1914 2382 
C 1869 2402 1856 2402 1498 2490 
C 1152 2579 1005 2624 845 2796 
C 666 2992 602 3196 602 3399 
C 602 3812 934 4263 1478 4263 
C 2157 4263 2579 3786 2675 2993 
C 2694 2878 2701 2872 2746 2872 
C 2803 2872 2803 2891 2803 2999 
L 2803 4290 
z
" transform="scale(0.015625)"/>
      <path id="CMR17-70" d="M 1408 -1063 
C 998 -1063 973 -1037 973 -789 
L 973 402 
C 1158 134 1427 -38 1766 -38 
C 2406 -38 3053 523 3053 1388 
C 3053 2191 2496 2802 1837 2802 
C 1453 2802 1139 2592 960 2338 
L 960 2802 
L 198 2732 
L 198 2567 
C 576 2567 634 2528 634 2223 
L 634 -789 
C 634 -1031 608 -1063 198 -1063 
L 198 -1228 
C 352 -1216 634 -1216 800 -1216 
C 966 -1216 1254 -1216 1408 -1228 
L 1408 -1063 
z
M 973 2012 
C 973 2102 973 2235 1222 2471 
C 1254 2497 1472 2688 1792 2688 
C 2259 2688 2643 2108 2643 1382 
C 2643 656 2234 64 1728 64 
C 1498 64 1248 172 1056 472 
C 973 612 973 650 973 752 
L 973 2012 
z
" transform="scale(0.015625)"/>
      <path id="CMR17-64" d="M 1869 4326 
L 1869 4160 
C 2246 4160 2304 4122 2304 3820 
L 2304 2345 
C 2278 2377 2016 2790 1498 2790 
C 845 2790 211 2208 211 1364 
C 211 525 806 -64 1434 -64 
C 1978 -64 2259 337 2291 380 
L 2291 -63 
L 3066 -63 
L 3066 128 
C 2688 128 2630 166 2630 473 
L 2630 4396 
L 1869 4326 
z
M 2291 755 
C 2291 563 2176 390 2029 262 
C 1811 70 1594 38 1472 38 
C 1286 38 621 134 621 1356 
C 621 2612 1363 2688 1530 2688 
C 1824 2688 2061 2522 2208 2291 
C 2291 2157 2291 2138 2291 2023 
L 2291 755 
z
" transform="scale(0.015625)"/>
      <path id="CMR17-44" d="M 333 4352 
L 333 4186 
C 774 4186 845 4186 845 3900 
L 845 452 
C 845 166 774 166 333 166 
L 333 0 
L 2368 0 
C 3398 0 4224 943 4224 2141 
C 4224 3346 3411 4352 2368 4352 
L 333 4352 
z
M 1523 166 
C 1267 166 1254 197 1254 414 
L 1254 3938 
C 1254 4155 1267 4186 1523 4186 
L 2240 4186 
C 2771 4186 3750 3874 3750 2141 
C 3750 1242 3488 879 3366 707 
C 3213 510 2848 166 2240 166 
L 1523 166 
z
" transform="scale(0.015625)"/>
     </defs>
     <use xlink:href="#CMR17-53" transform="scale(0.996264)"/>
     <use xlink:href="#CMR17-61" transform="translate(50.89537 0) scale(0.996264)"/>
     <use xlink:href="#CMR17-6d" transform="translate(96.585847 0) scale(0.996264)"/>
     <use xlink:href="#CMR17-70" transform="translate(173.505437 0) scale(0.996264)"/>
     <use xlink:href="#CMR17-6c" transform="translate(224.400807 0) scale(0.996264)"/>
     <use xlink:href="#CMR17-65" transform="translate(249.271865 0) scale(0.996264)"/>
     <use xlink:href="#CMR17-64" transform="translate(289.757525 0) scale(0.996264)"/>
     <use xlink:href="#CMR17-44" transform="translate(370.728862 0) scale(0.996264)"/>
     <use xlink:href="#CMR17-61" transform="translate(441.122418 0) scale(0.996264)"/>
     <use xlink:href="#CMR17-74" transform="translate(486.812895 0) scale(0.996264)"/>
     <use xlink:href="#CMR17-61" transform="translate(522.093662 0) scale(0.996264)"/>
    </g>
   </g>
  </g>
 </g>
 <defs>
  <clipPath id="p60fd2ebfec">
   <rect x="32.776366" y="12.641765" width="198.425566" height="127.346477"/>
  </clipPath>
 </defs>
</svg>
