<?xml version="1.0" encoding="utf-8" standalone="no"?>
<!DOCTYPE svg PUBLIC "-//W3C//DTD SVG 1.1//EN"
  "http://www.w3.org/Graphics/SVG/1.1/DTD/svg11.dtd">
<svg xmlns:xlink="http://www.w3.org/1999/xlink" width="235.436115pt" height="169.028466pt" viewBox="0 0 235.436115 169.028466" xmlns="http://www.w3.org/2000/svg" version="1.1">
 <metadata>
  <rdf:RDF xmlns:dc="http://purl.org/dc/elements/1.1/" xmlns:cc="http://creativecommons.org/ns#" xmlns:rdf="http://www.w3.org/1999/02/22-rdf-syntax-ns#">
   <cc:Work>
    <dc:type rdf:resource="http://purl.org/dc/dcmitype/StillImage"/>
    <dc:date>2023-10-27T18:14:40.506782</dc:date>
    <dc:format>image/svg+xml</dc:format>
    <dc:creator>
     <cc:Agent>
      <dc:title>Matplotlib v3.7.3, https://matplotlib.org/</dc:title>
     </cc:Agent>
    </dc:creator>
   </cc:Work>
  </rdf:RDF>
 </metadata>
 <defs>
  <style type="text/css">*{stroke-linejoin: round; stroke-linecap: butt}</style>
 </defs>
 <g id="figure_1">
  <g id="patch_1">
   <path d="M 0 169.028466 
L 235.436115 169.028466 
L 235.436115 0 
L 0 0 
L 0 169.028466 
z
" style="fill: none"/>
  </g>
  <g id="axes_1">
   <g id="patch_2">
    <path d="M 32.776366 139.988242 
L 231.201932 139.988242 
L 231.201932 12.641765 
L 32.776366 12.641765 
L 32.776366 139.988242 
z
" style="fill: none"/>
   </g>
   <g id="PathCollection_1">
    <defs>
     <path id="m9fb41beaa7" d="M -2.8 2.8 
L 2.8 -2.8 
M -2.8 -2.8 
L 2.8 2.8 
" style="stroke: #0000ff; stroke-width: 0.75"/>
    </defs>
    <g clip-path="url(#p13887f496a)">
     <use xlink:href="#m9fb41beaa7" x="46.440898" y="76.449555" style="fill: #0000ff; stroke: #0000ff; stroke-width: 0.75"/>
     <use xlink:href="#m9fb41beaa7" x="74.046013" y="26.885924" style="fill: #0000ff; stroke: #0000ff; stroke-width: 0.75"/>
     <use xlink:href="#m9fb41beaa7" x="101.651128" y="32.954024" style="fill: #0000ff; stroke: #0000ff; stroke-width: 0.75"/>
     <use xlink:href="#m9fb41beaa7" x="119.935586" y="-1" style="fill: #0000ff; stroke: #0000ff; stroke-width: 0.75"/>
    </g>
   </g>
   <g id="matplotlib.axis_1">
    <g id="xtick_1">
     <g id="line2d_1">
      <defs>
       <path id="m81aa0143d5" d="M 0 0 
L 0 3.5 
" style="stroke: #000000; stroke-width: 0.8"/>
      </defs>
      <g>
       <use xlink:href="#m81aa0143d5" x="32.776366" y="139.988242" style="stroke: #000000; stroke-width: 0.8"/>
      </g>
     </g>
     <g id="text_1">
      <!-- $\mathdefault{0}$ -->
      <g transform="translate(30.659275 154.623044) scale(0.08 -0.08)">
       <defs>
        <path id="CMR17-30" d="M 2688 2025 
C 2688 2416 2682 3080 2413 3591 
C 2176 4039 1798 4198 1466 4198 
C 1158 4198 768 4058 525 3597 
C 269 3118 243 2524 243 2025 
C 243 1661 250 1106 448 619 
C 723 -39 1216 -128 1466 -128 
C 1760 -128 2208 -7 2470 600 
C 2662 1042 2688 1559 2688 2025 
z
M 1466 -26 
C 1056 -26 813 325 723 812 
C 653 1188 653 1738 653 2096 
C 653 2588 653 2997 736 3387 
C 858 3929 1216 4096 1466 4096 
C 1728 4096 2067 3923 2189 3400 
C 2272 3036 2278 2607 2278 2096 
C 2278 1680 2278 1169 2202 792 
C 2067 95 1690 -26 1466 -26 
z
" transform="scale(0.015625)"/>
       </defs>
       <use xlink:href="#CMR17-30" transform="scale(0.996264)"/>
      </g>
     </g>
    </g>
    <g id="xtick_2">
     <g id="line2d_2">
      <g>
       <use xlink:href="#m81aa0143d5" x="65.847294" y="139.988242" style="stroke: #000000; stroke-width: 0.8"/>
      </g>
     </g>
     <g id="text_2">
      <!-- $\mathdefault{2}$ -->
      <g transform="translate(63.730202 154.623044) scale(0.08 -0.08)">
       <defs>
        <path id="CMR17-32" d="M 2669 989 
L 2554 989 
C 2490 536 2438 459 2413 420 
C 2381 369 1920 369 1830 369 
L 602 369 
C 832 619 1280 1072 1824 1597 
C 2214 1967 2669 2402 2669 3035 
C 2669 3790 2067 4224 1395 4224 
C 691 4224 262 3604 262 3030 
C 262 2780 448 2748 525 2748 
C 589 2748 781 2787 781 3010 
C 781 3207 614 3264 525 3264 
C 486 3264 448 3258 422 3245 
C 544 3790 915 4058 1306 4058 
C 1862 4058 2227 3617 2227 3035 
C 2227 2479 1901 2000 1536 1584 
L 262 146 
L 262 0 
L 2515 0 
L 2669 989 
z
" transform="scale(0.015625)"/>
       </defs>
       <use xlink:href="#CMR17-32" transform="scale(0.996264)"/>
      </g>
     </g>
    </g>
    <g id="xtick_3">
     <g id="line2d_3">
      <g>
       <use xlink:href="#m81aa0143d5" x="98.918221" y="139.988242" style="stroke: #000000; stroke-width: 0.8"/>
      </g>
     </g>
     <g id="text_3">
      <!-- $\mathdefault{4}$ -->
      <g transform="translate(96.80113 154.623044) scale(0.08 -0.08)">
       <defs>
        <path id="CMR17-34" d="M 2150 4122 
C 2150 4256 2144 4256 2029 4256 
L 128 1254 
L 128 1088 
L 1779 1088 
L 1779 457 
C 1779 224 1766 160 1318 160 
L 1197 160 
L 1197 0 
C 1402 0 1747 0 1965 0 
C 2182 0 2528 0 2733 0 
L 2733 160 
L 2611 160 
C 2163 160 2150 224 2150 457 
L 2150 1088 
L 2803 1088 
L 2803 1254 
L 2150 1254 
L 2150 4122 
z
M 1798 3703 
L 1798 1254 
L 256 1254 
L 1798 3703 
z
" transform="scale(0.015625)"/>
       </defs>
       <use xlink:href="#CMR17-34" transform="scale(0.996264)"/>
      </g>
     </g>
    </g>
    <g id="xtick_4">
     <g id="line2d_4">
      <g>
       <use xlink:href="#m81aa0143d5" x="131.989149" y="139.988242" style="stroke: #000000; stroke-width: 0.8"/>
      </g>
     </g>
     <g id="text_4">
      <!-- $\mathdefault{6}$ -->
      <g transform="translate(129.872058 154.623044) scale(0.08 -0.08)">
       <defs>
        <path id="CMR17-36" d="M 678 2176 
C 678 3690 1395 4032 1811 4032 
C 1946 4032 2272 4009 2400 3776 
C 2298 3776 2106 3776 2106 3553 
C 2106 3381 2246 3323 2336 3323 
C 2394 3323 2566 3348 2566 3560 
C 2566 3954 2246 4179 1805 4179 
C 1043 4179 243 3390 243 1984 
C 243 253 966 -128 1478 -128 
C 2099 -128 2688 427 2688 1283 
C 2688 2081 2170 2662 1517 2662 
C 1126 2662 838 2407 678 1960 
L 678 2176 
z
M 1478 25 
C 691 25 691 1200 691 1436 
C 691 1896 909 2560 1504 2560 
C 1613 2560 1926 2560 2138 2120 
C 2253 1870 2253 1609 2253 1289 
C 2253 944 2253 690 2118 434 
C 1978 171 1773 25 1478 25 
z
" transform="scale(0.015625)"/>
       </defs>
       <use xlink:href="#CMR17-36" transform="scale(0.996264)"/>
      </g>
     </g>
    </g>
    <g id="xtick_5">
     <g id="line2d_5">
      <g>
       <use xlink:href="#m81aa0143d5" x="165.060077" y="139.988242" style="stroke: #000000; stroke-width: 0.8"/>
      </g>
     </g>
     <g id="text_5">
      <!-- $\mathdefault{8}$ -->
      <g transform="translate(162.942985 154.623044) scale(0.08 -0.08)">
       <defs>
        <path id="CMR17-38" d="M 1741 2264 
C 2144 2467 2554 2773 2554 3263 
C 2554 3841 1990 4179 1472 4179 
C 890 4179 378 3759 378 3180 
C 378 3021 416 2747 666 2505 
C 730 2442 998 2251 1171 2130 
C 883 1983 211 1634 211 934 
C 211 279 838 -128 1459 -128 
C 2144 -128 2720 362 2720 1010 
C 2720 1590 2330 1857 2074 2029 
L 1741 2264 
z
M 902 2822 
C 851 2854 595 3051 595 3351 
C 595 3739 998 4032 1459 4032 
C 1965 4032 2336 3676 2336 3262 
C 2336 2669 1670 2331 1638 2331 
C 1632 2331 1626 2331 1574 2370 
L 902 2822 
z
M 2080 1519 
C 2176 1449 2483 1240 2483 851 
C 2483 381 2010 25 1472 25 
C 890 25 448 438 448 940 
C 448 1443 838 1862 1280 2060 
L 2080 1519 
z
" transform="scale(0.015625)"/>
       </defs>
       <use xlink:href="#CMR17-38" transform="scale(0.996264)"/>
      </g>
     </g>
    </g>
    <g id="xtick_6">
     <g id="line2d_6">
      <g>
       <use xlink:href="#m81aa0143d5" x="198.131004" y="139.988242" style="stroke: #000000; stroke-width: 0.8"/>
      </g>
     </g>
     <g id="text_6">
      <!-- $\mathdefault{10}$ -->
      <g transform="translate(193.896821 154.623044) scale(0.08 -0.08)">
       <defs>
        <path id="CMR17-31" d="M 1702 4058 
C 1702 4192 1696 4192 1606 4192 
C 1357 3916 979 3827 621 3827 
C 602 3827 570 3827 563 3808 
C 557 3795 557 3782 557 3648 
C 755 3648 1088 3686 1344 3839 
L 1344 461 
C 1344 236 1331 160 781 160 
L 589 160 
L 589 0 
C 896 0 1216 0 1523 0 
C 1830 0 2150 0 2458 0 
L 2458 160 
L 2266 160 
C 1715 160 1702 230 1702 458 
L 1702 4058 
z
" transform="scale(0.015625)"/>
       </defs>
       <use xlink:href="#CMR17-31" transform="scale(0.996264)"/>
       <use xlink:href="#CMR17-30" transform="translate(45.690477 0) scale(0.996264)"/>
      </g>
     </g>
    </g>
    <g id="xtick_7">
     <g id="line2d_7">
      <g>
       <use xlink:href="#m81aa0143d5" x="231.201932" y="139.988242" style="stroke: #000000; stroke-width: 0.8"/>
      </g>
     </g>
     <g id="text_7">
      <!-- $\mathdefault{12}$ -->
      <g transform="translate(226.967749 154.623044) scale(0.08 -0.08)">
       <use xlink:href="#CMR17-31" transform="scale(0.996264)"/>
       <use xlink:href="#CMR17-32" transform="translate(45.690477 0) scale(0.996264)"/>
      </g>
     </g>
    </g>
    <g id="text_8">
     <!-- time $t$ -->
     <g transform="translate(118.843978 167.091288) scale(0.1 -0.1)">
      <defs>
       <path id="CMR17-74" d="M 966 2560 
L 1862 2560 
L 1862 2725 
L 966 2725 
L 966 3904 
L 851 3904 
C 838 3245 614 2668 70 2668 
L 70 2560 
L 627 2560 
L 627 771 
C 627 650 627 -64 1370 -64 
C 1747 -64 1965 306 1965 777 
L 1965 1140 
L 1850 1140 
L 1850 783 
C 1850 344 1677 51 1408 51 
C 1222 51 966 178 966 758 
L 966 2560 
z
" transform="scale(0.015625)"/>
       <path id="CMR17-69" d="M 992 3909 
C 992 4049 877 4170 730 4170 
C 589 4170 467 4056 467 3909 
C 467 3769 582 3648 730 3648 
C 870 3648 992 3763 992 3909 
z
M 243 2706 
L 243 2541 
C 602 2541 653 2502 653 2197 
L 653 427 
C 653 184 627 153 218 153 
L 218 -13 
C 371 0 646 0 806 0 
C 960 0 1222 0 1370 -13 
L 1370 153 
C 992 153 979 191 979 420 
L 979 2776 
L 243 2706 
z
" transform="scale(0.015625)"/>
       <path id="CMR17-6d" d="M 4326 1933 
C 4326 2252 4269 2790 3507 2790 
C 3072 2790 2771 2496 2656 2151 
L 2650 2151 
C 2573 2676 2195 2790 1837 2790 
C 1331 2790 1069 2400 973 2144 
L 966 2144 
L 966 2790 
L 211 2720 
L 211 2554 
C 589 2554 646 2515 646 2208 
L 646 428 
C 646 184 621 153 211 153 
L 211 -13 
C 365 0 646 0 813 0 
C 979 0 1267 0 1421 -13 
L 1421 153 
C 1011 153 986 178 986 428 
L 986 1658 
C 986 2247 1344 2688 1792 2688 
C 2266 2688 2317 2266 2317 1958 
L 2317 428 
C 2317 184 2291 153 1882 153 
L 1882 -13 
C 2035 0 2317 0 2483 0 
C 2650 0 2938 0 3091 -13 
L 3091 153 
C 2682 153 2656 178 2656 428 
L 2656 1658 
C 2656 2247 3014 2688 3462 2688 
C 3936 2688 3987 2266 3987 1958 
L 3987 428 
C 3987 184 3962 153 3552 153 
L 3552 -13 
C 3706 0 3987 0 4154 0 
C 4320 0 4608 0 4762 -13 
L 4762 153 
C 4352 153 4326 178 4326 428 
L 4326 1933 
z
" transform="scale(0.015625)"/>
       <path id="CMR17-65" d="M 2438 1472 
C 2464 1498 2464 1511 2464 1576 
C 2464 2238 2118 2816 1389 2816 
C 710 2816 173 2169 173 1383 
C 173 551 781 -64 1459 -64 
C 2176 -64 2458 607 2458 740 
C 2458 784 2419 784 2406 784 
C 2362 784 2355 771 2330 696 
C 2189 265 1837 51 1504 51 
C 1229 51 954 203 781 480 
C 582 803 582 1176 582 1472 
L 2438 1472 
z
M 589 1568 
C 634 2505 1126 2714 1382 2714 
C 1818 2714 2112 2297 2118 1568 
L 589 1568 
z
" transform="scale(0.015625)"/>
       <path id="CMMI12-74" d="M 1286 2566 
L 1875 2566 
C 1997 2566 2061 2566 2061 2681 
C 2061 2752 2022 2752 1894 2752 
L 1331 2752 
L 1568 3692 
C 1594 3781 1594 3794 1594 3840 
C 1594 3943 1510 4000 1427 4000 
C 1376 4000 1229 3981 1178 3775 
L 928 2752 
L 326 2752 
C 198 2752 141 2752 141 2630 
C 141 2566 186 2566 307 2566 
L 877 2566 
L 454 881 
C 403 658 384 594 384 511 
C 384 211 595 -64 954 -64 
C 1600 -64 1946 868 1946 912 
C 1946 951 1920 970 1882 970 
C 1869 970 1843 970 1830 944 
C 1824 938 1818 931 1773 829 
C 1638 511 1344 64 973 64 
C 781 64 768 224 768 364 
C 768 370 768 492 787 568 
L 1286 2566 
z
" transform="scale(0.015625)"/>
      </defs>
      <use xlink:href="#CMR17-74" transform="scale(0.996264)"/>
      <use xlink:href="#CMR17-69" transform="translate(35.280768 0) scale(0.996264)"/>
      <use xlink:href="#CMR17-6d" transform="translate(60.151826 0) scale(0.996264)"/>
      <use xlink:href="#CMR17-65" transform="translate(137.071416 0) scale(0.996264)"/>
      <use xlink:href="#CMMI12-74" transform="translate(207.633043 0) scale(0.996264)"/>
     </g>
    </g>
   </g>
   <g id="matplotlib.axis_2">
    <g id="ytick_1">
     <g id="line2d_8">
      <defs>
       <path id="ma87439edad" d="M 0 0 
L -3.5 0 
" style="stroke: #000000; stroke-width: 0.8"/>
      </defs>
      <g>
       <use xlink:href="#ma87439edad" x="32.776366" y="139.988242" style="stroke: #000000; stroke-width: 0.8"/>
      </g>
     </g>
     <g id="text_9">
      <!-- $\mathdefault{−3}$ -->
      <g transform="translate(12.855677 142.755643) scale(0.08 -0.08)">
       <defs>
        <path id="CMSY10-0" d="M 4218 1472 
C 4326 1472 4442 1472 4442 1600 
C 4442 1728 4326 1728 4218 1728 
L 755 1728 
C 646 1728 531 1728 531 1600 
C 531 1472 646 1472 755 1472 
L 4218 1472 
z
" transform="scale(0.015625)"/>
        <path id="CMR17-33" d="M 1414 2157 
C 1984 2157 2234 1662 2234 1090 
C 2234 320 1824 25 1453 25 
C 1114 25 563 194 390 693 
C 422 680 454 680 486 680 
C 640 680 755 782 755 948 
C 755 1133 614 1216 486 1216 
C 378 1216 211 1165 211 926 
C 211 335 787 -128 1466 -128 
C 2176 -128 2720 430 2720 1085 
C 2720 1707 2208 2157 1600 2227 
C 2086 2328 2554 2756 2554 3329 
C 2554 3820 2048 4179 1472 4179 
C 890 4179 378 3829 378 3329 
C 378 3110 544 3072 627 3072 
C 762 3072 877 3155 877 3321 
C 877 3486 762 3569 627 3569 
C 602 3569 570 3569 544 3557 
C 730 3959 1235 4032 1459 4032 
C 1683 4032 2106 3925 2106 3320 
C 2106 3143 2080 2828 1862 2550 
C 1670 2304 1453 2304 1242 2284 
C 1210 2284 1062 2269 1037 2269 
C 992 2263 966 2257 966 2208 
C 966 2163 973 2157 1101 2157 
L 1414 2157 
z
" transform="scale(0.015625)"/>
       </defs>
       <use xlink:href="#CMSY10-0" transform="scale(0.996264)"/>
       <use xlink:href="#CMR17-33" transform="translate(77.487468 0) scale(0.996264)"/>
      </g>
     </g>
    </g>
    <g id="ytick_2">
     <g id="line2d_9">
      <g>
       <use xlink:href="#ma87439edad" x="32.776366" y="118.763829" style="stroke: #000000; stroke-width: 0.8"/>
      </g>
     </g>
     <g id="text_10">
      <!-- $\mathdefault{−2}$ -->
      <g transform="translate(12.855677 121.53123) scale(0.08 -0.08)">
       <use xlink:href="#CMSY10-0" transform="scale(0.996264)"/>
       <use xlink:href="#CMR17-32" transform="translate(77.487468 0) scale(0.996264)"/>
      </g>
     </g>
    </g>
    <g id="ytick_3">
     <g id="line2d_10">
      <g>
       <use xlink:href="#ma87439edad" x="32.776366" y="97.539416" style="stroke: #000000; stroke-width: 0.8"/>
      </g>
     </g>
     <g id="text_11">
      <!-- $\mathdefault{−1}$ -->
      <g transform="translate(12.855677 100.306817) scale(0.08 -0.08)">
       <use xlink:href="#CMSY10-0" transform="scale(0.996264)"/>
       <use xlink:href="#CMR17-31" transform="translate(77.487468 0) scale(0.996264)"/>
      </g>
     </g>
    </g>
    <g id="ytick_4">
     <g id="line2d_11">
      <g>
       <use xlink:href="#ma87439edad" x="32.776366" y="76.315004" style="stroke: #000000; stroke-width: 0.8"/>
      </g>
     </g>
     <g id="text_12">
      <!-- $\mathdefault{0}$ -->
      <g transform="translate(19.442183 79.082404) scale(0.08 -0.08)">
       <use xlink:href="#CMR17-30" transform="scale(0.996264)"/>
      </g>
     </g>
    </g>
    <g id="ytick_5">
     <g id="line2d_12">
      <g>
       <use xlink:href="#ma87439edad" x="32.776366" y="55.090591" style="stroke: #000000; stroke-width: 0.8"/>
      </g>
     </g>
     <g id="text_13">
      <!-- $\mathdefault{1}$ -->
      <g transform="translate(19.442183 57.857992) scale(0.08 -0.08)">
       <use xlink:href="#CMR17-31" transform="scale(0.996264)"/>
      </g>
     </g>
    </g>
    <g id="ytick_6">
     <g id="line2d_13">
      <g>
       <use xlink:href="#ma87439edad" x="32.776366" y="33.866178" style="stroke: #000000; stroke-width: 0.8"/>
      </g>
     </g>
     <g id="text_14">
      <!-- $\mathdefault{2}$ -->
      <g transform="translate(19.442183 36.633579) scale(0.08 -0.08)">
       <use xlink:href="#CMR17-32" transform="scale(0.996264)"/>
      </g>
     </g>
    </g>
    <g id="ytick_7">
     <g id="line2d_14">
      <g>
       <use xlink:href="#ma87439edad" x="32.776366" y="12.641765" style="stroke: #000000; stroke-width: 0.8"/>
      </g>
     </g>
     <g id="text_15">
      <!-- $\mathdefault{3}$ -->
      <g transform="translate(19.442183 15.409166) scale(0.08 -0.08)">
       <use xlink:href="#CMR17-33" transform="scale(0.996264)"/>
      </g>
     </g>
    </g>
    <g id="text_16">
     <!-- target-variable $y$ -->
     <g transform="translate(6.918498 112.132166) rotate(-90) scale(0.1 -0.1)">
      <defs>
       <path id="CMR17-61" d="M 2304 1653 
C 2304 2072 2304 2294 2035 2543 
C 1798 2752 1523 2816 1306 2816 
C 800 2816 435 2407 435 1971 
C 435 1728 627 1728 666 1728 
C 749 1728 896 1778 896 1954 
C 896 2112 774 2181 666 2181 
C 640 2181 608 2174 589 2168 
C 723 2592 1069 2714 1293 2714 
C 1613 2714 1965 2429 1965 1885 
L 1965 1600 
C 1587 1600 1133 1549 774 1357 
C 371 1133 256 813 256 570 
C 256 77 832 -64 1171 -64 
C 1523 -64 1850 139 1990 511 
C 2003 233 2182 -18 2464 -18 
C 2598 -18 2938 70 2938 567 
L 2938 920 
L 2822 920 
L 2822 562 
C 2822 178 2650 128 2566 128 
C 2304 128 2304 458 2304 738 
L 2304 1653 
z
M 1965 870 
C 1965 317 1568 38 1216 38 
C 896 38 646 275 646 570 
C 646 761 730 1100 1101 1305 
C 1408 1478 1760 1504 1965 1504 
L 1965 870 
z
" transform="scale(0.015625)"/>
       <path id="CMR17-72" d="M 960 1497 
C 960 2112 1222 2688 1702 2688 
C 1747 2688 1792 2682 1837 2662 
C 1837 2662 1696 2617 1696 2452 
C 1696 2298 1818 2234 1914 2234 
C 1990 2234 2131 2279 2131 2458 
C 2131 2663 1926 2790 1709 2790 
C 1222 2790 1011 2317 947 2093 
L 941 2093 
L 941 2790 
L 198 2720 
L 198 2554 
C 576 2554 634 2515 634 2208 
L 634 428 
C 634 184 608 153 198 153 
L 198 -13 
C 352 0 646 0 813 0 
C 998 0 1325 0 1498 -13 
L 1498 153 
C 1037 153 960 153 960 440 
L 960 1497 
z
" transform="scale(0.015625)"/>
       <path id="CMR17-67" d="M 710 1164 
C 832 1068 1043 960 1299 960 
C 1805 960 2240 1357 2240 1888 
C 2240 2054 2189 2310 1997 2509 
C 2176 2692 2438 2752 2586 2752 
C 2611 2752 2650 2752 2682 2734 
C 2656 2728 2598 2703 2598 2605 
C 2598 2527 2656 2471 2739 2471 
C 2835 2471 2886 2533 2886 2614 
C 2886 2731 2790 2854 2586 2854 
C 2330 2854 2106 2738 1926 2580 
C 1734 2753 1504 2816 1299 2816 
C 794 2816 358 2419 358 1888 
C 358 1522 570 1292 634 1228 
C 442 1004 442 743 442 711 
C 442 545 506 302 723 168 
C 390 85 128 -169 128 -486 
C 128 -943 736 -1280 1466 -1280 
C 2170 -1280 2803 -956 2803 -479 
C 2803 384 1856 384 1363 384 
C 1216 384 954 384 922 391 
C 723 423 589 602 589 826 
C 589 883 589 1024 710 1164 
z
M 1299 1068 
C 736 1068 736 1760 736 1889 
C 736 2016 736 2708 1299 2708 
C 1862 2708 1862 2016 1862 1889 
C 1862 1760 1862 1068 1299 1068 
z
M 1466 -1171 
C 826 -1171 384 -835 384 -486 
C 384 -289 493 -105 634 -4 
C 794 104 858 104 1293 104 
C 1818 104 2547 104 2547 -486 
C 2547 -835 2106 -1171 1466 -1171 
z
" transform="scale(0.015625)"/>
       <path id="CMR17-2d" d="M 1632 1216 
L 1632 1496 
L 26 1496 
L 26 1216 
L 1632 1216 
z
" transform="scale(0.015625)"/>
       <path id="CMR17-76" d="M 2502 2163 
C 2560 2304 2662 2560 3034 2560 
L 3034 2726 
C 2912 2726 2752 2726 2630 2726 
C 2496 2726 2285 2726 2157 2732 
L 2157 2566 
C 2317 2553 2406 2477 2406 2311 
C 2406 2253 2406 2240 2368 2151 
L 1664 377 
L 902 2286 
C 864 2369 864 2381 864 2407 
C 864 2560 1075 2560 1171 2560 
L 1171 2732 
C 1018 2726 736 2726 576 2726 
C 403 2726 205 2726 64 2732 
L 64 2560 
C 307 2560 442 2560 518 2362 
L 1446 44 
C 1485 -51 1491 -64 1549 -64 
C 1606 -64 1613 -51 1651 44 
L 2502 2163 
z
" transform="scale(0.015625)"/>
       <path id="CMR17-62" d="M 960 4396 
L 198 4326 
L 198 4160 
C 576 4160 634 4122 634 3817 
L 634 -13 
L 749 -13 
L 934 441 
C 1120 141 1395 -64 1766 -64 
C 2406 -64 3053 500 3053 1370 
C 3053 2188 2477 2790 1830 2790 
C 1434 2790 1152 2579 960 2330 
L 960 4396 
z
M 973 2004 
C 973 2118 973 2138 1062 2272 
C 1312 2657 1670 2688 1792 2688 
C 1984 2688 2643 2585 2643 1376 
C 2643 108 1888 38 1734 38 
C 1536 38 1248 114 1043 486 
C 973 608 973 621 973 735 
L 973 2004 
z
" transform="scale(0.015625)"/>
       <path id="CMR17-6c" d="M 979 4396 
L 218 4326 
L 218 4160 
C 595 4160 653 4122 653 3817 
L 653 426 
C 653 184 627 153 218 153 
L 218 -13 
C 371 0 653 0 813 0 
C 979 0 1261 0 1414 -13 
L 1414 153 
C 1005 153 979 178 979 426 
L 979 4396 
z
" transform="scale(0.015625)"/>
       <path id="CMMI12-79" d="M 1683 -700 
C 1510 -939 1261 -1152 947 -1152 
C 870 -1152 563 -1152 467 -889 
C 486 -895 518 -895 531 -895 
C 723 -895 851 -729 851 -582 
C 851 -435 730 -384 634 -384 
C 531 -384 307 -458 307 -759 
C 307 -1071 582 -1286 947 -1286 
C 1587 -1286 2234 -700 2413 6 
L 3040 2485 
C 3046 2517 3059 2556 3059 2594 
C 3059 2689 2982 2753 2886 2753 
C 2829 2753 2694 2727 2643 2535 
L 2170 658 
C 2138 543 2138 530 2086 460 
C 1958 281 1747 64 1440 64 
C 1082 64 1050 415 1050 588 
C 1050 952 1222 1443 1395 1903 
C 1466 2088 1504 2178 1504 2305 
C 1504 2574 1312 2816 998 2816 
C 410 2816 173 1890 173 1839 
C 173 1814 198 1782 243 1782 
C 301 1782 307 1807 333 1897 
C 486 2433 730 2689 979 2689 
C 1037 2689 1146 2689 1146 2478 
C 1146 2312 1075 2127 979 1884 
C 666 1047 666 837 666 683 
C 666 77 1101 -64 1421 -64 
C 1606 -64 1837 -6 2061 230 
L 2067 224 
C 1971 -147 1907 -392 1683 -700 
z
" transform="scale(0.015625)"/>
      </defs>
      <use xlink:href="#CMR17-74" transform="scale(0.996264)"/>
      <use xlink:href="#CMR17-61" transform="translate(35.280768 0) scale(0.996264)"/>
      <use xlink:href="#CMR17-72" transform="translate(80.971245 0) scale(0.996264)"/>
      <use xlink:href="#CMR17-67" transform="translate(116.252013 0) scale(0.996264)"/>
      <use xlink:href="#CMR17-65" transform="translate(161.94249 0) scale(0.996264)"/>
      <use xlink:href="#CMR17-74" transform="translate(202.42815 0) scale(0.996264)"/>
      <use xlink:href="#CMR17-2d" transform="translate(237.708918 0) scale(0.996264)"/>
      <use xlink:href="#CMR17-76" transform="translate(267.784884 0) scale(0.996264)"/>
      <use xlink:href="#CMR17-61" transform="translate(310.872984 0) scale(0.996264)"/>
      <use xlink:href="#CMR17-72" transform="translate(356.563461 0) scale(0.996264)"/>
      <use xlink:href="#CMR17-69" transform="translate(391.844229 0) scale(0.996264)"/>
      <use xlink:href="#CMR17-61" transform="translate(416.715287 0) scale(0.996264)"/>
      <use xlink:href="#CMR17-62" transform="translate(462.405764 0) scale(0.996264)"/>
      <use xlink:href="#CMR17-6c" transform="translate(513.301134 0) scale(0.996264)"/>
      <use xlink:href="#CMR17-65" transform="translate(538.172192 0) scale(0.996264)"/>
      <use xlink:href="#CMMI12-79" transform="translate(608.733819 0) scale(0.996264)"/>
     </g>
    </g>
   </g>
   <g id="line2d_15">
    <path d="M 32.776366 76.351554 
L 34.304243 78.929858 
L 35.732907 80.919047 
L 37.062358 82.404024 
L 38.312439 83.478417 
L 39.48315 84.201657 
L 40.594333 84.63498 
L 41.665832 84.81934 
L 42.717487 84.777372 
L 43.769143 84.514574 
L 44.860483 84.00837 
L 45.991509 83.232819 
L 47.182062 82.140509 
L 48.451986 80.663433 
L 49.80128 78.741213 
L 51.229944 76.309701 
L 52.757821 73.258355 
L 54.38491 69.496377 
L 56.111213 64.927068 
L 57.936728 59.447837 
L 59.861456 52.950193 
L 62.877525 42.589912 
L 64.762567 37.040382 
L 66.528555 32.507607 
L 68.19533 28.820717 
L 69.762892 25.877186 
L 71.231241 23.580591 
L 72.600377 21.84061 
L 73.870301 20.573025 
L 75.060854 19.687361 
L 76.19188 19.117309 
L 77.263378 18.821126 
L 78.315033 18.761152 
L 79.346846 18.924451 
L 80.398502 19.317301 
L 81.489843 19.966646 
L 82.640711 20.918059 
L 83.851107 22.214015 
L 85.140873 23.928163 
L 86.529852 26.158642 
L 87.998201 28.949403 
L 89.625291 32.002839 
L 91.153168 34.413163 
L 92.581832 36.266588 
L 93.931126 37.661744 
L 95.181207 38.6463 
L 96.37176 39.308541 
L 97.502786 39.688773 
L 98.594126 39.825762 
L 99.685467 39.736957 
L 100.776808 39.422357 
L 101.907833 38.858056 
L 103.078544 38.018527 
L 104.308783 36.856325 
L 105.618391 35.30385 
L 107.00737 33.301984 
L 108.495562 30.751257 
L 110.063124 27.610439 
L 111.729899 23.759828 
L 113.495886 19.105375 
L 115.361087 13.547433 
L 118.595423 3.699491 
L 120.274394 -1 
L 120.274394 -1 
" clip-path="url(#p13887f496a)" style="fill: none; stroke: #ff0000; stroke-width: 1.4; stroke-linecap: square"/>
   </g>
   <g id="line2d_16">
    <path d="M 32.776366 74.181229 
L 32.994634 69.33302 
L 33.371643 65.775871 
L 33.867707 63.095686 
L 34.423298 61.228304 
L 35.018575 59.957828 
L 35.633694 59.148368 
L 36.248814 58.690921 
L 36.903618 58.481437 
L 37.61795 58.48941 
L 38.491023 58.73315 
L 39.681576 59.319731 
L 43.550874 61.399516 
L 44.582687 61.614528 
L 45.475602 61.577221 
L 46.30899 61.317482 
L 47.122535 60.825807 
L 47.955922 60.05488 
L 48.848837 58.909989 
L 49.821122 57.277214 
L 50.89262 55.015898 
L 52.103016 51.911302 
L 53.511838 47.646316 
L 55.218298 41.722406 
L 57.520034 32.852455 
L 61.647286 16.832848 
L 62.937052 13.011347 
L 64.226818 9.870073 
L 65.516585 7.30333 
L 66.826193 5.185912 
L 68.19533 3.394603 
L 69.703364 1.793359 
L 71.588407 0.13317 
L 73.006253 -1 
M 88.383494 -1 
L 94.645458 11.725517 
L 96.074122 13.939492 
L 97.264675 15.399571 
L 98.276645 16.312363 
L 99.16956 16.83512 
L 99.983105 17.060705 
L 100.737122 17.044117 
L 101.49114 16.802868 
L 102.264999 16.318013 
L 103.098387 15.527967 
L 104.030987 14.322726 
L 105.082642 12.577929 
L 106.273196 10.151766 
L 107.662175 6.794444 
L 109.348792 2.100366 
L 110.371685 -1 
L 110.371685 -1 
" clip-path="url(#p13887f496a)" style="fill: none; stroke-dasharray: 1.4,2.31; stroke-dashoffset: 0; stroke: #ff0000; stroke-width: 1.4"/>
   </g>
   <g id="line2d_17">
    <path d="M 32.776366 78.521879 
L 33.014477 84.492526 
L 33.470856 90.040568 
L 34.105818 95.052281 
L 34.859835 99.262364 
L 35.673379 102.579087 
L 36.506767 105.073698 
L 37.320312 106.841573 
L 38.114014 108.055073 
L 38.868031 108.816701 
L 39.582363 109.23703 
L 40.296695 109.403011 
L 41.03087 109.342982 
L 41.824572 109.05144 
L 42.73733 108.47163 
L 43.848513 107.485217 
L 45.297019 105.875151 
L 47.896394 102.579238 
L 52.341127 97.03676 
L 54.38491 94.287641 
L 55.873102 91.90632 
L 57.202553 89.347885 
L 58.452634 86.450743 
L 59.682873 83.021042 
L 61.032167 78.537861 
L 67.798479 55.417327 
L 69.485096 50.717411 
L 70.874075 47.464411 
L 72.064628 45.203814 
L 73.116284 43.657395 
L 74.048884 42.661139 
L 74.882271 42.076664 
L 75.656131 41.792088 
L 76.410148 41.74898 
L 77.164165 41.928439 
L 77.97771 42.358288 
L 78.870625 43.091754 
L 79.882595 44.221719 
L 81.073149 45.903875 
L 82.501813 48.33371 
L 84.327328 51.910435 
L 89.30781 61.945254 
L 90.280095 63.146752 
L 91.232538 63.98322 
L 92.165138 64.513832 
L 93.097738 64.793935 
L 94.070023 64.855332 
L 95.141521 64.694427 
L 96.37176 64.276701 
L 97.959164 63.485968 
L 101.530825 61.362342 
L 107.682017 57.652518 
L 109.031311 56.432786 
L 110.26155 55.018041 
L 111.452103 53.300815 
L 112.622814 51.210324 
L 113.793525 48.651823 
L 114.964235 45.549527 
L 116.293687 41.340078 
L 118.893062 32.301562 
L 123.774331 15.273814 
L 125.758586 9.214552 
L 127.365833 4.987057 
L 128.754812 1.928455 
L 130.004893 -0.314147 
L 130.453515 -1 
M 202.379152 -1 
L 204.910544 4.367544 
L 207.728187 9.81685 
L 210.823626 15.31434 
L 214.196861 20.849459 
L 217.867734 26.443678 
L 221.836245 32.085534 
L 226.122237 37.791885 
L 230.745553 43.575559 
L 231.182089 44.104118 
L 231.182089 44.104118 
" clip-path="url(#p13887f496a)" style="fill: none; stroke-dasharray: 1.4,2.31; stroke-dashoffset: 0; stroke: #ff0000; stroke-width: 1.4"/>
   </g>
   <g id="line2d_18">
    <path d="M 32.776366 76.315003 
L 33.052417 70.648998 
L 33.60452 76.804929 
L 33.880571 77.953826 
L 34.156622 82.793033 
L 34.708724 71.424013 
L 34.984775 69.009448 
L 35.260827 69.043401 
L 35.536878 74.390817 
L 36.365031 83.111852 
L 36.641082 85.295926 
L 36.917133 90.754117 
L 37.193185 91.523402 
L 37.469236 92.830629 
L 37.745287 91.782197 
L 38.021338 91.669164 
L 38.297389 82.261357 
L 38.57344 82.359642 
L 39.677645 102.527569 
L 39.953696 105.327634 
L 40.229747 101.381166 
L 40.505798 109.960193 
L 40.78185 110.251617 
L 41.057901 106.910779 
L 41.333952 98.093802 
L 41.610003 94.094954 
L 41.886054 98.411483 
L 42.162105 100.054273 
L 42.438156 95.023544 
L 42.714208 95.467088 
L 42.990259 89.238922 
L 43.26631 86.25702 
L 43.542361 86.65147 
L 43.818412 79.270824 
L 44.094463 77.173881 
L 44.370514 85.784792 
L 44.646566 80.013078 
L 44.922617 84.724422 
L 45.198668 84.78427 
L 45.474719 81.776607 
L 45.75077 74.1522 
L 46.026821 71.793321 
L 46.302872 68.416842 
L 46.578924 62.937423 
L 46.854975 67.652452 
L 47.131026 65.324928 
L 47.407077 67.571925 
L 47.683128 63.779563 
L 47.959179 67.950005 
L 48.235231 64.937856 
L 48.511282 64.94658 
L 48.787333 64.374678 
L 49.063384 62.252171 
L 49.339435 63.908662 
L 49.615486 66.363416 
L 49.891537 63.641679 
L 50.167589 67.796429 
L 50.44364 62.659763 
L 50.719691 63.862754 
L 50.995742 59.69674 
L 51.547844 62.918848 
L 51.823895 65.98548 
L 52.099947 62.807353 
L 52.375998 61.243414 
L 52.9281 68.509265 
L 53.204151 67.628907 
L 53.480202 72.271673 
L 53.756253 67.543635 
L 54.032305 70.717436 
L 54.308356 69.26259 
L 54.584407 76.704901 
L 54.860458 79.224739 
L 55.41256 71.081181 
L 55.688612 74.617084 
L 55.964663 71.031574 
L 56.240714 63.362769 
L 56.516765 62.977191 
L 56.792816 66.461577 
L 57.068867 66.542325 
L 57.344918 72.868285 
L 57.62097 70.090641 
L 57.897021 71.12743 
L 58.173072 77.816527 
L 58.449123 73.666693 
L 58.725174 73.041006 
L 59.277276 59.904342 
L 59.553328 59.990449 
L 59.829379 57.875626 
L 60.381481 45.137173 
L 60.657532 49.61932 
L 60.933583 49.231374 
L 61.209635 54.530367 
L 61.485686 62.019335 
L 61.761737 60.393173 
L 62.037788 59.873158 
L 62.313839 63.905806 
L 62.58989 56.377259 
L 62.865941 56.579997 
L 63.141993 50.695616 
L 63.418044 53.000625 
L 63.694095 57.596483 
L 64.246197 62.392587 
L 64.522248 62.333297 
L 64.798299 61.779605 
L 65.074351 60.270186 
L 65.350402 62.138547 
L 65.902504 72.069879 
L 66.178555 72.375485 
L 66.730657 70.246765 
L 67.006709 72.612608 
L 67.28276 71.723883 
L 67.558811 69.584808 
L 67.834862 62.200597 
L 68.110913 51.186214 
L 68.386964 46.440208 
L 68.663016 50.30935 
L 68.939067 43.65598 
L 69.215118 46.794548 
L 69.491169 53.419964 
L 69.76722 50.310267 
L 70.043271 51.363517 
L 70.595374 37.904717 
L 70.871425 42.31933 
L 71.147476 34.629312 
L 71.423527 33.580122 
L 71.699578 28.677834 
L 71.975629 26.111847 
L 72.25168 21.900095 
L 72.803783 7.628885 
L 73.079834 10.66343 
L 73.631936 7.22886 
L 73.907987 6.962124 
L 74.184038 2.089812 
L 74.46009 4.526792 
L 75.012192 15.740073 
L 75.288243 10.923386 
L 75.564294 8.711668 
L 76.116397 1.616786 
L 76.392448 2.66487 
L 76.668499 4.387838 
L 76.94455 10.353472 
L 77.220601 11.122682 
L 77.496652 10.968663 
L 77.772703 12.165737 
L 78.048755 15.829217 
L 78.324806 16.243428 
L 78.876908 24.888022 
L 79.152959 16.754222 
L 79.42901 13.259422 
L 79.705061 12.519696 
L 79.981113 12.412366 
L 80.257164 14.318108 
L 80.533215 6.19537 
L 80.809266 6.414679 
L 81.085317 8.399274 
L 81.637419 16.867731 
L 81.913471 11.027006 
L 82.189522 13.171249 
L 82.465573 9.350425 
L 82.741624 3.222275 
L 83.017675 3.348812 
L 83.293726 3.139424 
L 83.584567 -1 
M 87.302917 -1 
L 87.434494 3.053246 
L 87.710545 6.414732 
L 87.986596 -0.48613 
L 88.262647 -0.61259 
L 88.538698 -0.127546 
L 88.626172 -1 
M 88.916312 -1 
L 89.0908 2.23138 
L 89.642903 8.144291 
L 89.918954 9.389716 
L 90.195005 11.37236 
L 90.471056 14.745252 
L 90.747107 16.591226 
L 91.023159 20.457394 
L 91.29921 20.680192 
L 91.575261 20.391621 
L 91.851312 25.162015 
L 92.403414 16.313246 
L 92.679465 25.866485 
L 92.955517 24.264164 
L 93.231568 25.910059 
L 93.507619 23.818353 
L 93.78367 23.797128 
L 94.059721 21.718635 
L 94.335772 17.570728 
L 94.611823 24.118395 
L 94.887875 21.633766 
L 95.163926 16.430826 
L 95.439977 16.009125 
L 95.716028 10.352863 
L 95.992079 13.956848 
L 96.26813 1.962415 
L 96.544182 4.555323 
L 96.820233 12.409657 
L 97.096284 3.266912 
L 97.372335 10.679539 
L 97.648386 5.998414 
L 97.924437 6.168637 
L 98.200488 15.474505 
L 98.47654 14.666997 
L 98.752591 16.703574 
L 99.028642 26.592549 
L 99.304693 30.550444 
L 99.580744 29.730216 
L 100.132846 31.265159 
L 100.408898 29.301401 
L 100.684949 31.370913 
L 100.961 26.354116 
L 101.237051 30.104595 
L 101.513102 29.249629 
L 101.789153 35.359868 
L 102.065204 36.923062 
L 102.617307 43.787463 
L 103.169409 52.424493 
L 103.721511 46.644183 
L 103.997563 45.131795 
L 104.549665 49.99122 
L 104.825716 52.105381 
L 105.101767 52.096603 
L 105.377818 56.273098 
L 105.653869 51.660991 
L 105.929921 54.331473 
L 106.205972 50.355423 
L 106.482023 50.760602 
L 107.034125 58.996029 
L 107.586227 57.057066 
L 107.862279 61.34855 
L 108.13833 60.836541 
L 108.414381 54.593634 
L 108.690432 52.39877 
L 108.966483 49.218212 
L 109.242534 53.344741 
L 109.518585 53.547649 
L 109.794637 51.932485 
L 110.070688 56.400056 
L 110.346739 62.846563 
L 110.62279 62.545079 
L 110.898841 58.278933 
L 111.174892 63.284078 
L 111.450944 58.082442 
L 111.726995 57.776434 
L 112.003046 54.820307 
L 112.279097 45.954996 
L 112.555148 44.271519 
L 112.831199 41.45218 
L 113.10725 39.984818 
L 113.659353 43.520975 
L 114.487506 29.10956 
L 114.763557 31.448969 
L 115.31566 28.430262 
L 115.591711 31.533435 
L 116.143813 28.299034 
L 116.419864 29.603714 
L 116.695915 30.018792 
L 117.524069 14.411532 
L 117.80012 13.797746 
L 118.076171 3.851174 
L 118.352222 5.550789 
L 118.628273 4.324032 
L 119.072626 -1 
M 120.509652 -1 
L 120.560631 -0.042968 
L 120.836683 2.17166 
L 121.112734 5.74983 
L 121.664836 -0.436344 
L 121.881746 -1 
M 121.988856 -1 
L 122.216938 -0.269265 
L 122.298589 -1 
M 123.146477 -1 
L 123.321143 2.778275 
L 123.597194 2.368739 
L 124.701399 12.44901 
L 124.97745 8.876587 
L 125.529552 15.393834 
L 125.805603 14.186275 
L 126.081654 9.321001 
L 126.357706 20.7052 
L 126.909808 13.949253 
L 127.185859 9.209348 
L 127.482494 -1 
L 127.482494 -1 
" clip-path="url(#p13887f496a)" style="fill: none; stroke: #1f77b4; stroke-width: 0.5; stroke-linecap: square"/>
   </g>
   <g id="line2d_19">
    <path d="M 32.776366 76.315003 
L 33.052417 74.391473 
L 33.328469 70.065654 
L 33.60452 69.307337 
L 33.880571 63.497072 
L 34.156622 64.293866 
L 34.432673 76.351017 
L 34.708724 74.674594 
L 35.260827 74.589165 
L 35.536878 79.024308 
L 35.812929 81.546442 
L 36.08898 82.305476 
L 36.365031 74.755099 
L 36.641082 81.396011 
L 36.917133 79.663476 
L 37.193185 82.240219 
L 37.469236 81.561355 
L 37.745287 85.50855 
L 38.021338 83.270211 
L 38.297389 79.394399 
L 38.57344 78.798718 
L 38.849491 73.935704 
L 39.125543 79.340808 
L 39.401594 78.760709 
L 39.677645 80.620973 
L 39.953696 75.672037 
L 40.229747 78.675279 
L 40.505798 87.339265 
L 40.78185 86.238615 
L 41.610003 102.825032 
L 42.162105 95.726556 
L 42.438156 95.98635 
L 42.714208 95.327762 
L 42.990259 99.871561 
L 43.26631 99.196829 
L 43.542361 98.9128 
L 43.818412 101.414305 
L 44.094463 92.867095 
L 44.370514 100.091197 
L 44.922617 103.066325 
L 45.198668 97.87732 
L 45.474719 96.280646 
L 45.75077 93.768029 
L 46.026821 94.073197 
L 46.302872 99.151339 
L 46.578924 99.390698 
L 46.854975 100.861093 
L 47.407077 95.2366 
L 47.683128 100.79956 
L 47.959179 103.342459 
L 48.235231 99.19236 
L 48.511282 101.961723 
L 48.787333 98.858195 
L 49.063384 100.766207 
L 49.339435 89.510705 
L 49.615486 93.956317 
L 49.891537 87.062228 
L 50.167589 89.652264 
L 50.44364 88.82189 
L 50.719691 82.132217 
L 50.995742 80.757962 
L 51.271793 80.216618 
L 51.547844 81.232498 
L 51.823895 74.389782 
L 52.099947 79.18631 
L 52.375998 73.773194 
L 52.652049 72.355071 
L 52.9281 71.836141 
L 53.204151 71.869605 
L 53.480202 68.926957 
L 53.756253 69.467322 
L 54.032305 67.349444 
L 54.308356 70.012064 
L 54.584407 62.847367 
L 55.136509 52.888637 
L 55.688612 58.293434 
L 55.964663 53.493137 
L 56.240714 53.100164 
L 56.516765 50.184207 
L 56.792816 43.987799 
L 57.068867 42.748149 
L 57.62097 31.564403 
L 57.897021 30.305649 
L 58.173072 27.843663 
L 58.449123 26.950979 
L 58.725174 20.028944 
L 59.553328 28.1238 
L 59.829379 33.810328 
L 60.10543 42.094514 
L 60.381481 42.360891 
L 60.657532 41.489948 
L 61.209635 48.658519 
L 61.485686 46.202468 
L 61.761737 39.242668 
L 62.037788 37.259681 
L 62.313839 34.042832 
L 62.58989 28.189892 
L 62.865941 27.002139 
L 63.141993 27.47414 
L 63.418044 26.901112 
L 63.694095 34.047155 
L 63.970146 27.245087 
L 64.246197 27.51146 
L 64.522248 31.219908 
L 64.798299 31.241595 
L 65.350402 37.370654 
L 65.626453 33.826596 
L 65.902504 40.697857 
L 66.178555 38.782314 
L 66.454606 38.813769 
L 66.730657 31.700448 
L 67.006709 40.857071 
L 67.558811 47.024404 
L 67.834862 48.526019 
L 68.110913 52.451827 
L 68.386964 48.563058 
L 68.663016 43.036727 
L 68.939067 44.363966 
L 69.215118 38.606782 
L 69.491169 30.492526 
L 69.76722 28.221313 
L 70.319322 18.183301 
L 70.595374 18.513382 
L 71.147476 15.516523 
L 71.423527 14.818047 
L 71.699578 18.225153 
L 71.975629 12.509987 
L 72.25168 11.67262 
L 72.803783 5.13748 
L 73.079834 8.78151 
L 73.355885 9.490446 
L 73.631936 10.707034 
L 73.907987 10.665033 
L 74.184038 4.433219 
L 74.46009 9.985058 
L 74.885857 -1 
M 76.002409 -1 
L 76.116397 2.202054 
L 76.392448 0.027532 
L 76.668499 -0.377935 
L 77.220601 1.350097 
L 77.441913 -1 
M 77.658422 -1 
L 78.048755 0.194415 
L 78.324806 -0.792472 
L 78.876908 14.665909 
L 79.152959 15.172875 
L 79.42901 16.282565 
L 79.981113 9.897087 
L 80.533215 14.540774 
L 80.809266 20.149257 
L 81.085317 21.161959 
L 81.637419 39.425026 
L 81.913471 42.612725 
L 82.189522 40.213569 
L 82.465573 41.418723 
L 83.017675 31.510062 
L 83.569778 39.285241 
L 84.397931 29.49395 
L 84.673982 29.058866 
L 84.950033 33.577352 
L 85.226084 34.943413 
L 85.778187 50.625719 
L 86.054238 51.187606 
L 86.60634 60.675985 
L 86.882391 55.259912 
L 87.158442 54.762231 
L 87.434494 56.757106 
L 87.710545 55.681379 
L 87.986596 56.608356 
L 88.262647 53.820791 
L 88.538698 53.823787 
L 89.0908 45.686698 
L 89.366852 47.287343 
L 89.642903 53.872294 
L 89.918954 48.966871 
L 90.195005 48.526697 
L 91.023159 39.061139 
L 91.29921 39.15631 
L 91.575261 30.746015 
L 91.851312 31.000972 
L 92.403414 26.992284 
L 92.679465 27.162592 
L 92.955517 25.865028 
L 93.231568 28.698987 
L 93.507619 23.875574 
L 93.78367 29.476973 
L 94.059721 29.93684 
L 94.335772 27.084755 
L 94.611823 22.887786 
L 94.887875 22.395289 
L 95.163926 16.007866 
L 95.716028 18.913921 
L 96.26813 7.722497 
L 96.544182 6.324279 
L 96.820233 6.963384 
L 97.096284 4.819065 
L 97.372335 4.544985 
L 97.648386 5.962792 
L 97.924437 2.424629 
L 98.200488 2.524113 
L 98.516494 -1 
M 99.112047 -1 
L 99.304693 3.666663 
L 99.580744 1.354091 
L 100.132846 2.026315 
L 100.408898 13.449769 
L 100.684949 14.081926 
L 100.961 16.790319 
L 101.237051 24.936662 
L 101.513102 26.814938 
L 102.065204 36.765974 
L 102.617307 29.761706 
L 103.169409 38.597463 
L 103.44546 38.623545 
L 103.721511 37.091823 
L 104.273614 45.591874 
L 104.549665 48.256479 
L 104.825716 55.599283 
L 105.101767 59.494313 
L 105.377818 57.936262 
L 105.929921 52.420938 
L 106.205972 58.951352 
L 106.482023 62.122847 
L 106.758074 63.947513 
L 107.310176 57.256895 
L 107.586227 56.654098 
L 107.862279 57.544215 
L 108.13833 56.707921 
L 108.414381 62.377255 
L 108.690432 59.667379 
L 108.966483 51.792355 
L 109.242534 49.711899 
L 109.518585 41.665472 
L 109.794637 38.360093 
L 110.070688 37.229447 
L 110.346739 38.875118 
L 110.62279 35.607406 
L 110.898841 37.060676 
L 111.174892 31.82369 
L 111.450944 34.792054 
L 111.726995 36.395934 
L 112.003046 32.669889 
L 112.279097 33.835302 
L 112.555148 33.383248 
L 113.10725 24.686992 
L 113.383302 25.00919 
L 113.659353 28.959492 
L 114.211455 21.257199 
L 114.487506 32.095623 
L 114.763557 29.58575 
L 115.039608 28.889973 
L 115.31566 30.390372 
L 115.591711 29.529149 
L 115.867762 31.994343 
L 116.143813 35.980428 
L 116.419864 31.184774 
L 116.695915 29.6779 
L 116.971966 27.362405 
L 117.524069 25.276336 
L 117.80012 23.629166 
L 118.076171 25.587535 
L 118.352222 24.355993 
L 118.628273 20.718563 
L 118.904325 20.898753 
L 119.180376 32.008568 
L 119.456427 30.046453 
L 119.732478 18.598502 
L 120.008529 19.073377 
L 120.28458 32.335604 
L 120.560631 29.704061 
L 120.836683 28.877108 
L 121.112734 25.503801 
L 121.388785 32.419231 
L 121.664836 32.93067 
L 121.940887 34.091515 
L 122.216938 34.574896 
L 122.769041 23.68134 
L 123.045092 21.344081 
L 123.321143 20.85028 
L 123.597194 22.299965 
L 123.873245 26.33599 
L 124.149296 20.045194 
L 124.425348 20.025383 
L 124.701399 19.68693 
L 124.97745 16.511372 
L 125.253501 11.163914 
L 125.529552 3.064684 
L 125.805603 1.855535 
L 125.988586 -1 
L 125.988586 -1 
" clip-path="url(#p13887f496a)" style="fill: none; stroke: #ff7f0e; stroke-width: 0.5; stroke-linecap: square"/>
   </g>
   <g id="line2d_20">
    <path d="M 32.776366 76.315004 
L 33.052417 76.030428 
L 33.328469 76.136303 
L 33.880571 88.069476 
L 34.156622 82.342882 
L 34.432673 78.998751 
L 34.708724 78.763939 
L 34.984775 74.243432 
L 35.260827 82.854188 
L 35.536878 73.850537 
L 35.812929 74.206047 
L 36.917133 60.238437 
L 37.193185 60.907338 
L 37.469236 61.046046 
L 37.745287 61.350042 
L 38.021338 62.400961 
L 38.297389 62.954433 
L 38.57344 70.860808 
L 38.849491 62.201692 
L 39.125543 59.164059 
L 39.677645 64.561197 
L 39.953696 64.687498 
L 40.505798 71.938938 
L 40.78185 68.091208 
L 41.057901 69.538818 
L 41.333952 75.174712 
L 41.610003 70.569081 
L 41.886054 62.862434 
L 42.162105 62.712437 
L 42.438156 62.872001 
L 42.714208 69.557332 
L 42.990259 71.486883 
L 43.26631 60.90529 
L 43.542361 61.011767 
L 43.818412 63.755941 
L 44.370514 73.142985 
L 44.646566 72.704691 
L 44.922617 70.691002 
L 45.198668 70.608871 
L 45.474719 71.319185 
L 45.75077 72.746086 
L 46.026821 76.447678 
L 46.302872 83.372526 
L 46.854975 90.187473 
L 47.131026 87.223578 
L 47.407077 85.850806 
L 47.683128 88.380469 
L 47.959179 84.756674 
L 48.235231 85.515108 
L 48.511282 90.54396 
L 49.063384 94.726666 
L 49.339435 93.573461 
L 49.615486 89.355229 
L 49.891537 91.827236 
L 50.167589 85.986714 
L 50.44364 84.04102 
L 50.719691 85.286206 
L 50.995742 75.910148 
L 51.271793 74.905572 
L 51.547844 75.261529 
L 52.099947 85.461424 
L 52.375998 87.370628 
L 52.652049 90.068385 
L 53.204151 104.348227 
L 53.756253 99.049413 
L 54.032305 95.675437 
L 54.308356 97.931549 
L 54.584407 95.038964 
L 54.860458 90.588805 
L 55.136509 88.147016 
L 55.41256 82.635172 
L 55.688612 73.233955 
L 55.964663 69.16995 
L 56.240714 70.754132 
L 56.516765 74.730467 
L 56.792816 76.956139 
L 57.068867 77.570648 
L 57.344918 77.003608 
L 57.62097 69.942197 
L 57.897021 70.930506 
L 58.173072 69.35664 
L 58.449123 74.493225 
L 58.725174 75.269602 
L 59.001225 73.769622 
L 59.277276 66.703744 
L 59.553328 66.847805 
L 59.829379 65.993766 
L 60.10543 67.172601 
L 60.381481 67.306645 
L 60.657532 63.724554 
L 60.933583 66.630759 
L 61.209635 67.25747 
L 61.485686 64.832696 
L 61.761737 67.714764 
L 62.037788 58.103371 
L 62.313839 56.076875 
L 62.58989 49.862142 
L 62.865941 49.775592 
L 63.418044 41.712154 
L 63.694095 37.950332 
L 64.246197 25.420535 
L 64.522248 24.485439 
L 64.798299 27.639258 
L 65.074351 26.894388 
L 65.350402 17.823811 
L 65.626453 19.660477 
L 65.902504 19.03534 
L 66.454606 23.780561 
L 66.730657 22.855433 
L 67.006709 23.664791 
L 67.558811 16.891244 
L 67.834862 17.335727 
L 68.110913 21.258717 
L 68.386964 23.14558 
L 68.939067 15.604698 
L 69.215118 16.495815 
L 69.491169 11.867571 
L 69.76722 12.768568 
L 70.043271 9.333401 
L 70.319322 15.287437 
L 70.595374 17.89045 
L 70.871425 25.826783 
L 71.423527 15.912299 
L 71.699578 23.151162 
L 71.975629 21.921871 
L 72.25168 23.037409 
L 72.527732 19.763961 
L 72.803783 22.697684 
L 73.079834 19.74452 
L 73.355885 19.874161 
L 73.631936 16.01727 
L 73.907987 18.057816 
L 74.184038 18.84262 
L 74.46009 27.377336 
L 74.736141 21.475606 
L 75.012192 20.859203 
L 75.288243 24.996264 
L 75.840345 17.480825 
L 76.116397 16.840345 
L 76.392448 20.770928 
L 76.668499 15.585776 
L 76.94455 20.594454 
L 77.220601 23.519692 
L 77.496652 24.686376 
L 77.772703 28.257292 
L 78.048755 35.641167 
L 78.324806 37.801708 
L 78.600857 36.549192 
L 78.876908 30.134335 
L 79.152959 28.901668 
L 79.705061 22.225212 
L 79.981113 22.854407 
L 80.257164 21.188257 
L 80.533215 21.413159 
L 80.809266 24.65228 
L 81.085317 30.061768 
L 81.361368 30.00364 
L 81.637419 32.450002 
L 81.913471 33.06264 
L 82.189522 34.936289 
L 82.465573 28.703914 
L 82.741624 30.130949 
L 83.017675 27.310745 
L 83.293726 25.865714 
L 83.569778 25.709243 
L 83.845829 23.134369 
L 84.397931 28.555254 
L 84.673982 35.07765 
L 84.950033 33.545394 
L 85.226084 24.599733 
L 85.778187 20.297403 
L 86.054238 15.367255 
L 86.330289 13.617052 
L 86.882391 14.50166 
L 87.158442 11.255774 
L 87.710545 15.83432 
L 87.986596 22.109195 
L 88.262647 20.629036 
L 88.538698 22.526531 
L 88.814749 28.403177 
L 89.0908 28.069615 
L 89.642903 36.50891 
L 89.918954 34.930991 
L 90.195005 37.71894 
L 90.471056 37.664759 
L 90.747107 36.244364 
L 91.023159 39.845155 
L 91.29921 38.72323 
L 91.575261 37.004992 
L 91.851312 32.221306 
L 92.403414 42.13998 
L 92.679465 46.460611 
L 93.231568 51.460797 
L 93.507619 51.30482 
L 93.78367 43.805057 
L 94.059721 44.945745 
L 94.335772 41.513232 
L 94.611823 40.379608 
L 94.887875 35.902101 
L 95.163926 34.440864 
L 95.439977 37.457102 
L 95.716028 33.453902 
L 95.992079 33.095115 
L 96.26813 31.412642 
L 96.544182 32.51954 
L 96.820233 35.583661 
L 97.096284 34.577916 
L 97.372335 39.378201 
L 97.648386 35.458307 
L 97.924437 44.187425 
L 98.47654 54.277932 
L 98.752591 50.365628 
L 99.028642 51.069229 
L 99.580744 37.008677 
L 99.856795 38.665213 
L 100.132846 33.000164 
L 100.408898 32.860306 
L 100.684949 32.358334 
L 100.961 26.908125 
L 101.237051 27.438239 
L 101.513102 31.10189 
L 101.789153 28.564467 
L 102.065204 27.477888 
L 102.341256 23.506537 
L 102.617307 28.146976 
L 102.893358 30.434155 
L 103.169409 31.325428 
L 103.44546 25.431568 
L 103.721511 27.597695 
L 103.997563 34.710356 
L 104.273614 37.076405 
L 104.549665 37.731276 
L 104.825716 37.668544 
L 105.101767 38.691745 
L 105.377818 38.324179 
L 105.653869 42.686014 
L 105.929921 44.207347 
L 106.205972 48.199959 
L 106.482023 46.220776 
L 106.758074 33.978221 
L 107.034125 29.823986 
L 107.310176 33.71685 
L 107.586227 23.851099 
L 107.862279 29.323547 
L 108.13833 24.685199 
L 108.414381 29.564877 
L 108.690432 31.629873 
L 108.966483 35.956322 
L 109.518585 31.243046 
L 109.794637 36.466394 
L 110.070688 30.991163 
L 110.346739 38.69613 
L 110.62279 34.310919 
L 110.898841 36.715229 
L 111.174892 31.146906 
L 111.450944 31.717585 
L 111.726995 23.374958 
L 112.003046 19.617933 
L 112.555148 24.920733 
L 112.831199 19.628779 
L 113.10725 17.111615 
L 113.383302 20.144626 
L 113.659353 21.92124 
L 113.935404 12.544337 
L 114.211455 10.140778 
L 114.487506 11.081822 
L 114.763557 13.768031 
L 115.039608 10.536377 
L 115.31566 8.712112 
L 115.867762 12.530692 
L 116.143813 17.666471 
L 116.419864 18.457306 
L 116.971966 7.600747 
L 117.248018 12.123541 
L 117.524069 10.964605 
L 117.80012 12.70283 
L 118.352222 5.50908 
L 118.628273 3.101765 
L 118.904325 10.727507 
L 119.180376 11.699015 
L 119.732478 7.834999 
L 120.008529 4.169965 
L 120.28458 3.558994 
L 120.560631 6.417359 
L 120.836683 6.433666 
L 121.112734 7.193912 
L 121.664836 2.644705 
L 121.892769 -1 
M 122.096656 -1 
L 122.216938 -0.405876 
L 122.499568 -1 
L 122.499568 -1 
" clip-path="url(#p13887f496a)" style="fill: none; stroke: #2ca02c; stroke-width: 0.5; stroke-linecap: square"/>
   </g>
   <g id="line2d_21">
    <path d="M 32.776366 76.315004 
L 33.052417 76.181722 
L 33.328469 68.49717 
L 34.156622 75.818479 
L 34.432673 72.809943 
L 34.708724 74.181799 
L 34.984775 72.30212 
L 35.260827 81.797134 
L 35.536878 81.259692 
L 35.812929 77.158136 
L 36.08898 76.50614 
L 36.365031 72.287706 
L 36.641082 71.004458 
L 37.193185 75.608059 
L 37.469236 72.333631 
L 37.745287 67.088196 
L 38.021338 73.49728 
L 38.297389 68.437805 
L 38.57344 76.925166 
L 39.125543 81.613281 
L 39.401594 80.578727 
L 39.677645 81.906217 
L 39.953696 79.37507 
L 40.229747 84.655892 
L 40.505798 81.469065 
L 40.78185 87.672072 
L 41.057901 86.222833 
L 41.333952 89.362334 
L 41.610003 88.698978 
L 41.886054 84.220368 
L 42.162105 83.528392 
L 42.438156 81.8703 
L 42.714208 82.819748 
L 42.990259 85.677932 
L 43.542361 106.513846 
L 43.818412 107.281727 
L 44.370514 97.43991 
L 44.646566 102.085006 
L 44.922617 96.846833 
L 45.198668 97.603077 
L 45.474719 95.028751 
L 45.75077 87.704203 
L 46.026821 91.15786 
L 46.578924 88.529381 
L 46.854975 77.179698 
L 47.131026 77.147271 
L 47.683128 73.215268 
L 47.959179 73.597132 
L 48.511282 77.526808 
L 48.787333 82.481613 
L 49.063384 84.126152 
L 49.339435 82.932463 
L 49.891537 79.728643 
L 50.167589 80.889071 
L 50.44364 84.08576 
L 50.719691 85.024405 
L 50.995742 85.117104 
L 51.271793 85.864796 
L 51.547844 79.100601 
L 51.823895 80.728824 
L 52.375998 69.223549 
L 52.652049 67.53964 
L 52.9281 71.174669 
L 53.204151 70.43165 
L 53.480202 72.467832 
L 53.756253 70.155463 
L 54.032305 70.230487 
L 54.308356 64.739478 
L 54.584407 67.471005 
L 54.860458 74.115947 
L 55.136509 63.77219 
L 55.41256 59.726144 
L 55.688612 50.882514 
L 55.964663 50.144127 
L 56.240714 58.602107 
L 56.516765 59.440557 
L 56.792816 67.479193 
L 57.068867 69.516927 
L 57.344918 65.41195 
L 57.62097 70.995812 
L 57.897021 69.890759 
L 58.173072 66.863782 
L 58.449123 67.276772 
L 58.725174 64.257139 
L 59.001225 57.52171 
L 59.277276 55.688159 
L 59.829379 44.863632 
L 60.10543 43.549705 
L 60.381481 41.01804 
L 60.657532 42.603708 
L 60.933583 40.651334 
L 61.485686 32.363594 
L 61.761737 40.524204 
L 62.037788 40.532899 
L 62.313839 44.555003 
L 62.58989 46.267428 
L 62.865941 43.246643 
L 63.418044 47.11601 
L 63.694095 45.962006 
L 63.970146 42.073396 
L 64.246197 39.903029 
L 64.522248 33.322612 
L 64.798299 33.788605 
L 65.074351 32.981638 
L 65.626453 26.561735 
L 65.902504 33.959233 
L 66.178555 26.580149 
L 66.454606 29.01321 
L 66.730657 27.244055 
L 67.558811 16.011087 
L 67.834862 14.120354 
L 68.663016 33.032973 
L 69.215118 28.918984 
L 69.491169 19.143876 
L 69.76722 19.22614 
L 70.319322 10.102244 
L 70.595374 9.131844 
L 70.871425 3.54711 
L 71.147476 1.304456 
L 71.423527 2.465592 
L 71.699578 8.588196 
L 71.975629 6.811756 
L 72.25168 3.863027 
L 72.527732 8.332099 
L 72.803783 9.506435 
L 73.079834 12.480254 
L 73.355885 9.728721 
L 73.631936 8.744335 
L 73.907987 9.269837 
L 74.184038 6.65159 
L 74.46009 11.239254 
L 74.736141 13.834124 
L 75.012192 9.255531 
L 75.288243 14.084675 
L 75.564294 16.759322 
L 75.840345 17.572975 
L 76.116397 15.416283 
L 76.392448 16.503471 
L 76.668499 13.997621 
L 76.94455 20.760621 
L 77.220601 20.079447 
L 77.496652 24.556519 
L 77.772703 26.425999 
L 78.048755 26.690918 
L 78.324806 26.567032 
L 78.600857 24.707907 
L 78.876908 28.279338 
L 79.152959 35.517001 
L 79.42901 36.484663 
L 79.705061 36.74863 
L 79.981113 37.788826 
L 80.533215 48.226803 
L 80.809266 45.572058 
L 81.085317 35.155405 
L 81.361368 37.738064 
L 81.637419 32.614815 
L 81.913471 31.912426 
L 82.189522 28.138878 
L 82.741624 25.109577 
L 83.017675 20.294752 
L 83.293726 22.355362 
L 83.569778 22.661791 
L 83.845829 23.924882 
L 84.12188 28.131962 
L 84.397931 29.493192 
L 84.673982 33.426957 
L 84.950033 29.646168 
L 85.226084 32.777894 
L 85.502136 28.206552 
L 85.778187 31.30524 
L 86.054238 39.394305 
L 86.330289 41.678312 
L 86.60634 33.162633 
L 86.882391 36.472381 
L 87.158442 41.586845 
L 87.710545 26.051322 
L 87.986596 28.11684 
L 88.262647 29.329614 
L 88.538698 33.964989 
L 89.0908 29.661999 
L 89.366852 33.301472 
L 89.642903 42.269787 
L 89.918954 35.280884 
L 90.195005 38.739193 
L 90.471056 46.120387 
L 90.747107 46.4202 
L 91.023159 44.522402 
L 91.29921 47.403221 
L 91.575261 53.926243 
L 91.851312 53.119218 
L 92.127363 51.332024 
L 92.403414 48.023395 
L 92.679465 38.818187 
L 92.955517 38.36203 
L 93.231568 36.288519 
L 93.507619 29.729295 
L 93.78367 28.117805 
L 94.059721 34.69558 
L 94.887875 29.259635 
L 95.163926 28.817896 
L 95.439977 42.329637 
L 95.716028 42.647121 
L 95.992079 43.532963 
L 96.26813 37.496537 
L 96.544182 36.905046 
L 97.096284 33.161217 
L 97.372335 39.023944 
L 97.648386 39.136285 
L 97.924437 43.495189 
L 98.200488 44.961902 
L 99.028642 32.601614 
L 99.304693 36.620207 
L 99.580744 33.938807 
L 99.856795 42.132464 
L 100.132846 39.877601 
L 100.408898 39.325146 
L 100.684949 41.179413 
L 100.961 34.199027 
L 101.237051 34.187171 
L 101.513102 31.80113 
L 101.789153 24.238705 
L 102.065204 25.522953 
L 102.341256 22.066158 
L 102.617307 24.997215 
L 102.893358 29.203818 
L 103.169409 22.37503 
L 103.44546 21.297715 
L 103.721511 27.186072 
L 103.997563 28.383745 
L 104.273614 27.006147 
L 104.825716 18.929068 
L 105.377818 26.199907 
L 105.653869 27.36918 
L 105.929921 31.034113 
L 106.205972 32.923325 
L 106.482023 36.199316 
L 106.758074 28.783594 
L 107.034125 29.416948 
L 107.310176 31.972034 
L 107.586227 36.692661 
L 107.862279 38.189809 
L 108.13833 37.943276 
L 108.690432 41.755724 
L 108.966483 28.070607 
L 109.242534 34.409892 
L 109.518585 21.741581 
L 110.070688 27.106631 
L 110.346739 25.786401 
L 110.62279 32.161126 
L 110.898841 32.246772 
L 111.450944 22.668157 
L 111.726995 20.160843 
L 112.003046 26.106804 
L 112.279097 35.102716 
L 112.555148 31.725255 
L 112.831199 23.818278 
L 113.10725 22.144577 
L 113.659353 28.456054 
L 113.935404 27.3427 
L 114.211455 29.765692 
L 114.487506 26.937988 
L 114.763557 27.241573 
L 115.039608 24.518478 
L 115.31566 24.388469 
L 115.591711 24.389701 
L 115.867762 24.631773 
L 116.143813 22.056392 
L 116.695915 25.763282 
L 116.971966 25.395867 
L 117.80012 11.068878 
L 118.076171 10.344415 
L 118.352222 5.750662 
L 118.628273 4.206996 
L 118.904325 6.378111 
L 119.180376 0.092339 
L 119.358442 -1 
M 119.898869 -1 
L 120.008529 -0.156099 
L 120.28458 6.029398 
L 120.560631 1.263761 
L 120.836683 -0.326779 
L 121.112734 0.406013 
L 121.210941 -1 
M 121.783771 -1 
L 121.940887 0.294831 
L 122.246203 -1 
L 122.246203 -1 
" clip-path="url(#p13887f496a)" style="fill: none; stroke: #d62728; stroke-width: 0.5; stroke-linecap: square"/>
   </g>
   <g id="patch_3">
    <path d="M 32.776366 139.988242 
L 32.776366 12.641765 
" style="fill: none; stroke: #000000; stroke-width: 0.8; stroke-linejoin: miter; stroke-linecap: square"/>
   </g>
   <g id="patch_4">
    <path d="M 231.201932 139.988242 
L 231.201932 12.641765 
" style="fill: none; stroke: #000000; stroke-width: 0.8; stroke-linejoin: miter; stroke-linecap: square"/>
   </g>
   <g id="patch_5">
    <path d="M 32.776366 139.988242 
L 231.201932 139.988242 
" style="fill: none; stroke: #000000; stroke-width: 0.8; stroke-linejoin: miter; stroke-linecap: square"/>
   </g>
   <g id="patch_6">
    <path d="M 32.776366 12.641765 
L 231.201932 12.641765 
" style="fill: none; stroke: #000000; stroke-width: 0.8; stroke-linejoin: miter; stroke-linecap: square"/>
   </g>
   <g id="text_17">
    <!-- Sampled Data -->
    <g transform="translate(101.474528 6.641765) scale(0.096 -0.096)">
     <defs>
      <path id="CMR17-53" d="M 2803 4290 
C 2803 4404 2797 4411 2758 4411 
C 2720 4411 2707 4385 2682 4328 
L 2490 3907 
C 2246 4257 1875 4416 1472 4416 
C 819 4416 294 3901 294 3253 
C 294 3056 339 2776 557 2510 
C 794 2218 1018 2167 1530 2033 
C 1722 1982 2042 1899 2106 1874 
C 2470 1722 2662 1341 2662 985 
C 2662 527 2336 38 1779 38 
C 1094 38 454 419 410 1311 
C 403 1413 397 1419 352 1419 
C 301 1419 294 1413 294 1285 
L 294 -1 
C 294 -115 301 -122 339 -122 
C 384 -122 397 -90 486 108 
C 493 127 493 140 614 381 
C 934 -39 1472 -128 1779 -128 
C 2477 -128 2970 451 2970 1124 
C 2970 1454 2848 1708 2778 1823 
C 2509 2230 2221 2306 1914 2382 
C 1869 2402 1856 2402 1498 2490 
C 1152 2579 1005 2624 845 2796 
C 666 2992 602 3196 602 3399 
C 602 3812 934 4263 1478 4263 
C 2157 4263 2579 3786 2675 2993 
C 2694 2878 2701 2872 2746 2872 
C 2803 2872 2803 2891 2803 2999 
L 2803 4290 
z
" transform="scale(0.015625)"/>
      <path id="CMR17-70" d="M 1408 -1063 
C 998 -1063 973 -1037 973 -789 
L 973 402 
C 1158 134 1427 -38 1766 -38 
C 2406 -38 3053 523 3053 1388 
C 3053 2191 2496 2802 1837 2802 
C 1453 2802 1139 2592 960 2338 
L 960 2802 
L 198 2732 
L 198 2567 
C 576 2567 634 2528 634 2223 
L 634 -789 
C 634 -1031 608 -1063 198 -1063 
L 198 -1228 
C 352 -1216 634 -1216 800 -1216 
C 966 -1216 1254 -1216 1408 -1228 
L 1408 -1063 
z
M 973 2012 
C 973 2102 973 2235 1222 2471 
C 1254 2497 1472 2688 1792 2688 
C 2259 2688 2643 2108 2643 1382 
C 2643 656 2234 64 1728 64 
C 1498 64 1248 172 1056 472 
C 973 612 973 650 973 752 
L 973 2012 
z
" transform="scale(0.015625)"/>
      <path id="CMR17-64" d="M 1869 4326 
L 1869 4160 
C 2246 4160 2304 4122 2304 3820 
L 2304 2345 
C 2278 2377 2016 2790 1498 2790 
C 845 2790 211 2208 211 1364 
C 211 525 806 -64 1434 -64 
C 1978 -64 2259 337 2291 380 
L 2291 -63 
L 3066 -63 
L 3066 128 
C 2688 128 2630 166 2630 473 
L 2630 4396 
L 1869 4326 
z
M 2291 755 
C 2291 563 2176 390 2029 262 
C 1811 70 1594 38 1472 38 
C 1286 38 621 134 621 1356 
C 621 2612 1363 2688 1530 2688 
C 1824 2688 2061 2522 2208 2291 
C 2291 2157 2291 2138 2291 2023 
L 2291 755 
z
" transform="scale(0.015625)"/>
      <path id="CMR17-44" d="M 333 4352 
L 333 4186 
C 774 4186 845 4186 845 3900 
L 845 452 
C 845 166 774 166 333 166 
L 333 0 
L 2368 0 
C 3398 0 4224 943 4224 2141 
C 4224 3346 3411 4352 2368 4352 
L 333 4352 
z
M 1523 166 
C 1267 166 1254 197 1254 414 
L 1254 3938 
C 1254 4155 1267 4186 1523 4186 
L 2240 4186 
C 2771 4186 3750 3874 3750 2141 
C 3750 1242 3488 879 3366 707 
C 3213 510 2848 166 2240 166 
L 1523 166 
z
" transform="scale(0.015625)"/>
     </defs>
     <use xlink:href="#CMR17-53" transform="scale(0.996264)"/>
     <use xlink:href="#CMR17-61" transform="translate(50.89537 0) scale(0.996264)"/>
     <use xlink:href="#CMR17-6d" transform="translate(96.585847 0) scale(0.996264)"/>
     <use xlink:href="#CMR17-70" transform="translate(173.505437 0) scale(0.996264)"/>
     <use xlink:href="#CMR17-6c" transform="translate(224.400807 0) scale(0.996264)"/>
     <use xlink:href="#CMR17-65" transform="translate(249.271865 0) scale(0.996264)"/>
     <use xlink:href="#CMR17-64" transform="translate(289.757525 0) scale(0.996264)"/>
     <use xlink:href="#CMR17-44" transform="translate(370.728862 0) scale(0.996264)"/>
     <use xlink:href="#CMR17-61" transform="translate(441.122418 0) scale(0.996264)"/>
     <use xlink:href="#CMR17-74" transform="translate(486.812895 0) scale(0.996264)"/>
     <use xlink:href="#CMR17-61" transform="translate(522.093662 0) scale(0.996264)"/>
    </g>
   </g>
   <g id="legend_1">
    <g id="patch_7">
     <path d="M 156.912795 136.988242 
L 227.001932 136.988242 
Q 228.201932 136.988242 228.201932 135.788242 
L 228.201932 77.85205 
Q 228.201932 76.65205 227.001932 76.65205 
L 156.912795 76.65205 
Q 155.712795 76.65205 155.712795 77.85205 
L 155.712795 135.788242 
Q 155.712795 136.988242 156.912795 136.988242 
z
" style="fill: #ffffff; opacity: 0.8; stroke: #cccccc; stroke-width: 0.24; stroke-linejoin: miter"/>
    </g>
    <g id="PathCollection_2">
     <g>
      <use xlink:href="#m9fb41beaa7" x="164.112795" y="81.67705" style="fill: #0000ff; stroke: #0000ff; stroke-width: 0.75"/>
     </g>
    </g>
    <g id="text_18">
     <!-- Measurements -->
     <g transform="translate(174.912795 83.25205) scale(0.06 -0.06)">
      <defs>
       <path id="CMR17-4d" d="M 1338 4224 
C 1299 4320 1293 4320 1158 4320 
L 339 4320 
L 339 4160 
C 781 4160 851 4160 851 3875 
L 851 610 
C 851 451 851 153 339 153 
L 339 -13 
C 486 0 755 0 915 0 
C 1075 0 1344 0 1491 -13 
L 1491 153 
C 979 153 979 451 979 610 
L 979 4135 
L 986 4135 
L 2490 89 
C 2515 25 2528 -13 2579 -13 
C 2630 -13 2643 25 2669 89 
L 4186 4166 
L 4192 4166 
L 4192 438 
C 4192 153 4122 153 3680 153 
L 3680 -13 
C 3853 0 4198 0 4384 0 
C 4570 0 4922 0 5094 -13 
L 5094 153 
C 4653 153 4582 153 4582 438 
L 4582 3875 
C 4582 4160 4653 4160 5094 4160 
L 5094 4320 
L 4282 4320 
C 4147 4320 4141 4314 4102 4218 
L 2720 502 
L 1338 4224 
z
" transform="scale(0.015625)"/>
       <path id="CMR17-73" d="M 1978 2697 
C 1978 2813 1971 2819 1933 2819 
C 1907 2819 1901 2813 1824 2717 
C 1805 2691 1747 2626 1728 2601 
C 1523 2819 1235 2819 1126 2819 
C 416 2819 160 2447 160 2076 
C 160 1498 813 1365 998 1325 
C 1402 1243 1542 1217 1677 1101 
C 1760 1025 1901 884 1901 654 
C 1901 384 1747 38 1158 38 
C 602 38 403 460 288 1021 
C 269 1110 269 1117 218 1117 
C 166 1117 160 1110 160 983 
L 160 63 
C 160 -51 166 -58 205 -58 
C 237 -58 243 -51 275 0 
C 314 57 410 211 448 276 
C 576 103 800 -64 1158 -64 
C 1792 -64 2131 283 2131 784 
C 2131 1112 1958 1285 1875 1362 
C 1683 1561 1459 1606 1190 1657 
C 838 1735 390 1825 390 2217 
C 390 2383 480 2737 1126 2737 
C 1811 2737 1850 2094 1862 1888 
C 1869 1856 1901 1849 1920 1849 
C 1978 1849 1978 1869 1978 1978 
L 1978 2697 
z
" transform="scale(0.015625)"/>
       <path id="CMR17-75" d="M 1882 2693 
L 1882 2528 
C 2259 2528 2317 2489 2317 2186 
L 2317 1032 
C 2317 500 2029 38 1555 38 
C 1030 38 986 348 986 678 
L 986 2763 
L 211 2693 
L 211 2528 
C 467 2528 640 2528 646 2274 
L 646 1058 
C 646 633 646 361 813 183 
C 896 101 1056 -64 1517 -64 
C 2061 -64 2272 377 2323 506 
L 2330 506 
L 2330 -63 
L 3091 -63 
L 3091 128 
C 2714 128 2656 166 2656 473 
L 2656 2763 
L 1882 2693 
z
" transform="scale(0.015625)"/>
       <path id="CMR17-6e" d="M 2656 1933 
C 2656 2259 2592 2790 1837 2790 
C 1331 2790 1069 2400 973 2144 
L 966 2144 
L 966 2790 
L 211 2720 
L 211 2554 
C 589 2554 646 2515 646 2208 
L 646 428 
C 646 184 621 153 211 153 
L 211 -13 
C 365 0 646 0 813 0 
C 979 0 1267 0 1421 -13 
L 1421 153 
C 1011 153 986 178 986 428 
L 986 1658 
C 986 2247 1344 2688 1792 2688 
C 2266 2688 2317 2266 2317 1958 
L 2317 428 
C 2317 184 2291 153 1882 153 
L 1882 -13 
C 2035 0 2317 0 2483 0 
C 2650 0 2938 0 3091 -13 
L 3091 153 
C 2682 153 2656 178 2656 428 
L 2656 1933 
z
" transform="scale(0.015625)"/>
      </defs>
      <use xlink:href="#CMR17-4d" transform="scale(0.996264)"/>
      <use xlink:href="#CMR17-65" transform="translate(84.686941 0) scale(0.996264)"/>
      <use xlink:href="#CMR17-61" transform="translate(125.172601 0) scale(0.996264)"/>
      <use xlink:href="#CMR17-73" transform="translate(170.863078 0) scale(0.996264)"/>
      <use xlink:href="#CMR17-75" transform="translate(206.664416 0) scale(0.996264)"/>
      <use xlink:href="#CMR17-72" transform="translate(257.559786 0) scale(0.996264)"/>
      <use xlink:href="#CMR17-65" transform="translate(292.840553 0) scale(0.996264)"/>
      <use xlink:href="#CMR17-6d" transform="translate(333.326214 0) scale(0.996264)"/>
      <use xlink:href="#CMR17-65" transform="translate(410.245804 0) scale(0.996264)"/>
      <use xlink:href="#CMR17-6e" transform="translate(450.731464 0) scale(0.996264)"/>
      <use xlink:href="#CMR17-74" transform="translate(499.02438 0) scale(0.996264)"/>
      <use xlink:href="#CMR17-73" transform="translate(534.305148 0) scale(0.996264)"/>
     </g>
    </g>
    <g id="line2d_22">
     <path d="M 158.112795 89.514364 
L 164.112795 89.514364 
L 170.112795 89.514364 
" style="fill: none; stroke: #ff0000; stroke-width: 1.4; stroke-linecap: square"/>
    </g>
    <g id="text_19">
     <!-- Estimation $y_{est}$ -->
     <g transform="translate(174.912795 91.614364) scale(0.06 -0.06)">
      <defs>
       <path id="CMR17-45" d="M 3885 1615 
L 3770 1615 
C 3629 676 3546 166 2419 166 
L 1530 166 
C 1274 166 1261 197 1261 414 
L 1261 2176 
L 1862 2176 
C 2464 2176 2522 1960 2522 1430 
L 2637 1430 
L 2637 3081 
L 2522 3081 
C 2522 2557 2464 2342 1862 2342 
L 1261 2342 
L 1261 3913 
C 1261 4128 1274 4160 1530 4160 
L 2406 4160 
C 3398 4160 3514 3769 3603 2929 
L 3718 2929 
L 3565 4325 
L 326 4325 
L 326 4160 
C 768 4160 838 4160 838 3874 
L 838 451 
C 838 166 768 166 326 166 
L 326 0 
L 3654 0 
L 3885 1615 
z
" transform="scale(0.015625)"/>
       <path id="CMR17-6f" d="M 2758 1356 
C 2758 2176 2163 2816 1466 2816 
C 768 2816 173 2176 173 1356 
C 173 551 768 -64 1466 -64 
C 2163 -64 2758 551 2758 1356 
z
M 1466 51 
C 1165 51 909 230 762 480 
C 602 767 582 1126 582 1408 
C 582 1677 595 2010 762 2298 
C 890 2509 1139 2714 1466 2714 
C 1754 2714 1997 2554 2150 2330 
C 2349 2029 2349 1607 2349 1408 
C 2349 1158 2336 775 2163 467 
C 1984 173 1709 51 1466 51 
z
" transform="scale(0.015625)"/>
       <path id="CMMI12-65" d="M 1146 1479 
C 1318 1479 1754 1479 2061 1595 
C 2547 1783 2592 2158 2592 2274 
C 2592 2558 2349 2816 1926 2816 
C 1254 2816 288 2210 288 1073 
C 288 402 672 -64 1254 -64 
C 2125 -64 2675 609 2675 692 
C 2675 730 2637 762 2611 762 
C 2592 762 2586 756 2528 699 
C 2118 159 1510 64 1267 64 
C 902 64 710 350 710 822 
C 710 911 710 1071 806 1479 
L 1146 1479 
z
M 838 1600 
C 1114 2592 1722 2689 1926 2689 
C 2208 2689 2400 2522 2400 2277 
C 2400 1600 1376 1600 1107 1600 
L 838 1600 
z
" transform="scale(0.015625)"/>
       <path id="CMMI12-73" d="M 1459 1280 
C 1568 1261 1741 1223 1779 1216 
C 1862 1192 2150 1090 2150 783 
C 2150 586 1971 70 1229 70 
C 1094 70 614 70 486 436 
C 742 404 870 603 870 745 
C 870 880 781 950 653 950 
C 512 950 326 841 326 552 
C 326 173 710 -64 1222 -64 
C 2195 -64 2483 651 2483 984 
C 2483 1079 2483 1258 2278 1462 
C 2118 1616 1965 1648 1619 1718 
C 1446 1756 1171 1814 1171 2101 
C 1171 2229 1286 2689 1894 2689 
C 2163 2689 2426 2589 2490 2368 
C 2208 2368 2195 2125 2195 2119 
C 2195 1984 2317 1946 2374 1946 
C 2464 1946 2643 2015 2643 2281 
C 2643 2545 2400 2816 1901 2816 
C 1062 2816 838 2160 838 1899 
C 838 1414 1312 1312 1459 1280 
z
" transform="scale(0.015625)"/>
      </defs>
      <use xlink:href="#CMR17-45" transform="scale(0.996264)"/>
      <use xlink:href="#CMR17-73" transform="translate(62.586301 0) scale(0.996264)"/>
      <use xlink:href="#CMR17-74" transform="translate(98.387638 0) scale(0.996264)"/>
      <use xlink:href="#CMR17-69" transform="translate(133.668406 0) scale(0.996264)"/>
      <use xlink:href="#CMR17-6d" transform="translate(158.539464 0) scale(0.996264)"/>
      <use xlink:href="#CMR17-61" transform="translate(235.459054 0) scale(0.996264)"/>
      <use xlink:href="#CMR17-74" transform="translate(281.149531 0) scale(0.996264)"/>
      <use xlink:href="#CMR17-69" transform="translate(316.430299 0) scale(0.996264)"/>
      <use xlink:href="#CMR17-6f" transform="translate(341.301358 0) scale(0.996264)"/>
      <use xlink:href="#CMR17-6e" transform="translate(386.991835 0) scale(0.996264)"/>
      <use xlink:href="#CMMI12-79" transform="translate(467.963171 0) scale(0.996264)"/>
      <use xlink:href="#CMMI12-65" transform="translate(515.527359 -14.943915) scale(0.697382)"/>
      <use xlink:href="#CMMI12-73" transform="translate(547.175615 -14.943915) scale(0.697382)"/>
      <use xlink:href="#CMMI12-74" transform="translate(579.340504 -14.943915) scale(0.697382)"/>
     </g>
    </g>
    <g id="line2d_23">
     <path d="M 158.112795 97.876677 
L 164.112795 97.876677 
L 170.112795 97.876677 
" style="fill: none; stroke-dasharray: 1.4,2.31; stroke-dashoffset: 0; stroke: #ff0000; stroke-width: 1.4"/>
    </g>
    <g id="text_20">
     <!-- $std_{est}$ -->
     <g transform="translate(174.912795 99.976677) scale(0.06 -0.06)">
      <defs>
       <path id="CMMI12-64" d="M 3219 4257 
C 3226 4282 3238 4320 3238 4352 
C 3238 4416 3174 4416 3162 4416 
C 3155 4416 2842 4388 2810 4380 
C 2701 4373 2605 4358 2490 4358 
C 2330 4345 2285 4339 2285 4224 
C 2285 4160 2336 4160 2426 4160 
C 2739 4160 2746 4103 2746 4040 
C 2746 4002 2733 3952 2726 3933 
L 2336 2395 
C 2266 2561 2093 2816 1760 2816 
C 1037 2816 256 1884 256 939 
C 256 307 627 -64 1062 -64 
C 1414 -64 1715 211 1894 422 
C 1958 45 2259 -64 2451 -64 
C 2643 -64 2797 51 2912 281 
C 3014 498 3104 888 3104 913 
C 3104 945 3078 971 3040 971 
C 2982 971 2976 939 2950 843 
C 2854 466 2733 64 2470 64 
C 2285 64 2272 229 2272 357 
C 2272 382 2272 515 2317 694 
L 3219 4257 
z
M 1926 760 
C 1894 651 1894 639 1805 517 
C 1664 338 1382 64 1082 64 
C 819 64 672 300 672 677 
C 672 1028 870 1743 992 2012 
C 1210 2459 1510 2689 1760 2689 
C 2182 2689 2266 2165 2266 2114 
C 2266 2108 2246 2024 2240 2012 
L 1926 760 
z
" transform="scale(0.015625)"/>
      </defs>
      <use xlink:href="#CMMI12-73" transform="scale(0.996264)"/>
      <use xlink:href="#CMMI12-74" transform="translate(45.950048 0) scale(0.996264)"/>
      <use xlink:href="#CMMI12-64" transform="translate(81.176378 0) scale(0.996264)"/>
      <use xlink:href="#CMMI12-65" transform="translate(131.865475 -14.943915) scale(0.697382)"/>
      <use xlink:href="#CMMI12-73" transform="translate(163.513731 -14.943915) scale(0.697382)"/>
      <use xlink:href="#CMMI12-74" transform="translate(195.67862 -14.943915) scale(0.697382)"/>
     </g>
    </g>
    <g id="line2d_24">
     <path d="M 158.112795 106.23899 
L 164.112795 106.23899 
L 170.112795 106.23899 
" style="fill: none; stroke: #1f77b4; stroke-width: 0.5; stroke-linecap: square"/>
    </g>
    <g id="text_21">
     <!-- Sampled Data -->
     <g transform="translate(174.912795 108.33899) scale(0.06 -0.06)">
      <use xlink:href="#CMR17-53" transform="scale(0.996264)"/>
      <use xlink:href="#CMR17-61" transform="translate(50.89537 0) scale(0.996264)"/>
      <use xlink:href="#CMR17-6d" transform="translate(96.585847 0) scale(0.996264)"/>
      <use xlink:href="#CMR17-70" transform="translate(173.505437 0) scale(0.996264)"/>
      <use xlink:href="#CMR17-6c" transform="translate(224.400807 0) scale(0.996264)"/>
      <use xlink:href="#CMR17-65" transform="translate(249.271865 0) scale(0.996264)"/>
      <use xlink:href="#CMR17-64" transform="translate(289.757525 0) scale(0.996264)"/>
      <use xlink:href="#CMR17-44" transform="translate(370.728862 0) scale(0.996264)"/>
      <use xlink:href="#CMR17-61" transform="translate(441.122418 0) scale(0.996264)"/>
      <use xlink:href="#CMR17-74" transform="translate(486.812895 0) scale(0.996264)"/>
      <use xlink:href="#CMR17-61" transform="translate(522.093662 0) scale(0.996264)"/>
     </g>
    </g>
    <g id="line2d_25">
     <path d="M 158.112795 114.601303 
L 164.112795 114.601303 
L 170.112795 114.601303 
" style="fill: none; stroke: #ff7f0e; stroke-width: 0.5; stroke-linecap: square"/>
    </g>
    <g id="text_22">
     <!-- Sampled Data -->
     <g transform="translate(174.912795 116.701303) scale(0.06 -0.06)">
      <use xlink:href="#CMR17-53" transform="scale(0.996264)"/>
      <use xlink:href="#CMR17-61" transform="translate(50.89537 0) scale(0.996264)"/>
      <use xlink:href="#CMR17-6d" transform="translate(96.585847 0) scale(0.996264)"/>
      <use xlink:href="#CMR17-70" transform="translate(173.505437 0) scale(0.996264)"/>
      <use xlink:href="#CMR17-6c" transform="translate(224.400807 0) scale(0.996264)"/>
      <use xlink:href="#CMR17-65" transform="translate(249.271865 0) scale(0.996264)"/>
      <use xlink:href="#CMR17-64" transform="translate(289.757525 0) scale(0.996264)"/>
      <use xlink:href="#CMR17-44" transform="translate(370.728862 0) scale(0.996264)"/>
      <use xlink:href="#CMR17-61" transform="translate(441.122418 0) scale(0.996264)"/>
      <use xlink:href="#CMR17-74" transform="translate(486.812895 0) scale(0.996264)"/>
      <use xlink:href="#CMR17-61" transform="translate(522.093662 0) scale(0.996264)"/>
     </g>
    </g>
    <g id="line2d_26">
     <path d="M 158.112795 122.963616 
L 164.112795 122.963616 
L 170.112795 122.963616 
" style="fill: none; stroke: #2ca02c; stroke-width: 0.5; stroke-linecap: square"/>
    </g>
    <g id="text_23">
     <!-- Sampled Data -->
     <g transform="translate(174.912795 125.063616) scale(0.06 -0.06)">
      <use xlink:href="#CMR17-53" transform="scale(0.996264)"/>
      <use xlink:href="#CMR17-61" transform="translate(50.89537 0) scale(0.996264)"/>
      <use xlink:href="#CMR17-6d" transform="translate(96.585847 0) scale(0.996264)"/>
      <use xlink:href="#CMR17-70" transform="translate(173.505437 0) scale(0.996264)"/>
      <use xlink:href="#CMR17-6c" transform="translate(224.400807 0) scale(0.996264)"/>
      <use xlink:href="#CMR17-65" transform="translate(249.271865 0) scale(0.996264)"/>
      <use xlink:href="#CMR17-64" transform="translate(289.757525 0) scale(0.996264)"/>
      <use xlink:href="#CMR17-44" transform="translate(370.728862 0) scale(0.996264)"/>
      <use xlink:href="#CMR17-61" transform="translate(441.122418 0) scale(0.996264)"/>
      <use xlink:href="#CMR17-74" transform="translate(486.812895 0) scale(0.996264)"/>
      <use xlink:href="#CMR17-61" transform="translate(522.093662 0) scale(0.996264)"/>
     </g>
    </g>
    <g id="line2d_27">
     <path d="M 158.112795 131.325929 
L 164.112795 131.325929 
L 170.112795 131.325929 
" style="fill: none; stroke: #d62728; stroke-width: 0.5; stroke-linecap: square"/>
    </g>
    <g id="text_24">
     <!-- Sampled Data -->
     <g transform="translate(174.912795 133.425929) scale(0.06 -0.06)">
      <use xlink:href="#CMR17-53" transform="scale(0.996264)"/>
      <use xlink:href="#CMR17-61" transform="translate(50.89537 0) scale(0.996264)"/>
      <use xlink:href="#CMR17-6d" transform="translate(96.585847 0) scale(0.996264)"/>
      <use xlink:href="#CMR17-70" transform="translate(173.505437 0) scale(0.996264)"/>
      <use xlink:href="#CMR17-6c" transform="translate(224.400807 0) scale(0.996264)"/>
      <use xlink:href="#CMR17-65" transform="translate(249.271865 0) scale(0.996264)"/>
      <use xlink:href="#CMR17-64" transform="translate(289.757525 0) scale(0.996264)"/>
      <use xlink:href="#CMR17-44" transform="translate(370.728862 0) scale(0.996264)"/>
      <use xlink:href="#CMR17-61" transform="translate(441.122418 0) scale(0.996264)"/>
      <use xlink:href="#CMR17-74" transform="translate(486.812895 0) scale(0.996264)"/>
      <use xlink:href="#CMR17-61" transform="translate(522.093662 0) scale(0.996264)"/>
     </g>
    </g>
   </g>
  </g>
 </g>
 <defs>
  <clipPath id="p13887f496a">
   <rect x="32.776366" y="12.641765" width="198.425566" height="127.346477"/>
  </clipPath>
 </defs>
</svg>
