<?xml version="1.0" encoding="utf-8" standalone="no"?>
<!DOCTYPE svg PUBLIC "-//W3C//DTD SVG 1.1//EN"
  "http://www.w3.org/Graphics/SVG/1.1/DTD/svg11.dtd">
<svg xmlns:xlink="http://www.w3.org/1999/xlink" width="235.436115pt" height="169.028466pt" viewBox="0 0 235.436115 169.028466" xmlns="http://www.w3.org/2000/svg" version="1.1">
 <metadata>
  <rdf:RDF xmlns:dc="http://purl.org/dc/elements/1.1/" xmlns:cc="http://creativecommons.org/ns#" xmlns:rdf="http://www.w3.org/1999/02/22-rdf-syntax-ns#">
   <cc:Work>
    <dc:type rdf:resource="http://purl.org/dc/dcmitype/StillImage"/>
    <dc:date>2023-10-27T18:14:38.810827</dc:date>
    <dc:format>image/svg+xml</dc:format>
    <dc:creator>
     <cc:Agent>
      <dc:title>Matplotlib v3.7.3, https://matplotlib.org/</dc:title>
     </cc:Agent>
    </dc:creator>
   </cc:Work>
  </rdf:RDF>
 </metadata>
 <defs>
  <style type="text/css">*{stroke-linejoin: round; stroke-linecap: butt}</style>
 </defs>
 <g id="figure_1">
  <g id="patch_1">
   <path d="M 0 169.028466 
L 235.436115 169.028466 
L 235.436115 0 
L 0 0 
L 0 169.028466 
z
" style="fill: none"/>
  </g>
  <g id="axes_1">
   <g id="patch_2">
    <path d="M 32.776366 139.988242 
L 231.201932 139.988242 
L 231.201932 12.641765 
L 32.776366 12.641765 
L 32.776366 139.988242 
z
" style="fill: none"/>
   </g>
   <g id="PathCollection_1">
    <defs>
     <path id="mf9fc9ec07e" d="M -2.8 2.8 
L 2.8 -2.8 
M -2.8 -2.8 
L 2.8 2.8 
" style="stroke: #0000ff; stroke-width: 0.75"/>
    </defs>
    <g clip-path="url(#p8af38200e1)">
     <use xlink:href="#mf9fc9ec07e" x="46.440898" y="76.449555" style="fill: #0000ff; stroke: #0000ff; stroke-width: 0.75"/>
     <use xlink:href="#mf9fc9ec07e" x="74.046013" y="26.885924" style="fill: #0000ff; stroke: #0000ff; stroke-width: 0.75"/>
     <use xlink:href="#mf9fc9ec07e" x="101.651128" y="32.954024" style="fill: #0000ff; stroke: #0000ff; stroke-width: 0.75"/>
     <use xlink:href="#mf9fc9ec07e" x="119.935586" y="-1" style="fill: #0000ff; stroke: #0000ff; stroke-width: 0.75"/>
    </g>
   </g>
   <g id="matplotlib.axis_1">
    <g id="xtick_1">
     <g id="line2d_1">
      <defs>
       <path id="md453b525a1" d="M 0 0 
L 0 3.5 
" style="stroke: #000000; stroke-width: 0.8"/>
      </defs>
      <g>
       <use xlink:href="#md453b525a1" x="32.776366" y="139.988242" style="stroke: #000000; stroke-width: 0.8"/>
      </g>
     </g>
     <g id="text_1">
      <!-- $\mathdefault{0}$ -->
      <g transform="translate(30.659275 154.623044) scale(0.08 -0.08)">
       <defs>
        <path id="CMR17-30" d="M 2688 2025 
C 2688 2416 2682 3080 2413 3591 
C 2176 4039 1798 4198 1466 4198 
C 1158 4198 768 4058 525 3597 
C 269 3118 243 2524 243 2025 
C 243 1661 250 1106 448 619 
C 723 -39 1216 -128 1466 -128 
C 1760 -128 2208 -7 2470 600 
C 2662 1042 2688 1559 2688 2025 
z
M 1466 -26 
C 1056 -26 813 325 723 812 
C 653 1188 653 1738 653 2096 
C 653 2588 653 2997 736 3387 
C 858 3929 1216 4096 1466 4096 
C 1728 4096 2067 3923 2189 3400 
C 2272 3036 2278 2607 2278 2096 
C 2278 1680 2278 1169 2202 792 
C 2067 95 1690 -26 1466 -26 
z
" transform="scale(0.015625)"/>
       </defs>
       <use xlink:href="#CMR17-30" transform="scale(0.996264)"/>
      </g>
     </g>
    </g>
    <g id="xtick_2">
     <g id="line2d_2">
      <g>
       <use xlink:href="#md453b525a1" x="65.847294" y="139.988242" style="stroke: #000000; stroke-width: 0.8"/>
      </g>
     </g>
     <g id="text_2">
      <!-- $\mathdefault{2}$ -->
      <g transform="translate(63.730202 154.623044) scale(0.08 -0.08)">
       <defs>
        <path id="CMR17-32" d="M 2669 989 
L 2554 989 
C 2490 536 2438 459 2413 420 
C 2381 369 1920 369 1830 369 
L 602 369 
C 832 619 1280 1072 1824 1597 
C 2214 1967 2669 2402 2669 3035 
C 2669 3790 2067 4224 1395 4224 
C 691 4224 262 3604 262 3030 
C 262 2780 448 2748 525 2748 
C 589 2748 781 2787 781 3010 
C 781 3207 614 3264 525 3264 
C 486 3264 448 3258 422 3245 
C 544 3790 915 4058 1306 4058 
C 1862 4058 2227 3617 2227 3035 
C 2227 2479 1901 2000 1536 1584 
L 262 146 
L 262 0 
L 2515 0 
L 2669 989 
z
" transform="scale(0.015625)"/>
       </defs>
       <use xlink:href="#CMR17-32" transform="scale(0.996264)"/>
      </g>
     </g>
    </g>
    <g id="xtick_3">
     <g id="line2d_3">
      <g>
       <use xlink:href="#md453b525a1" x="98.918221" y="139.988242" style="stroke: #000000; stroke-width: 0.8"/>
      </g>
     </g>
     <g id="text_3">
      <!-- $\mathdefault{4}$ -->
      <g transform="translate(96.80113 154.623044) scale(0.08 -0.08)">
       <defs>
        <path id="CMR17-34" d="M 2150 4122 
C 2150 4256 2144 4256 2029 4256 
L 128 1254 
L 128 1088 
L 1779 1088 
L 1779 457 
C 1779 224 1766 160 1318 160 
L 1197 160 
L 1197 0 
C 1402 0 1747 0 1965 0 
C 2182 0 2528 0 2733 0 
L 2733 160 
L 2611 160 
C 2163 160 2150 224 2150 457 
L 2150 1088 
L 2803 1088 
L 2803 1254 
L 2150 1254 
L 2150 4122 
z
M 1798 3703 
L 1798 1254 
L 256 1254 
L 1798 3703 
z
" transform="scale(0.015625)"/>
       </defs>
       <use xlink:href="#CMR17-34" transform="scale(0.996264)"/>
      </g>
     </g>
    </g>
    <g id="xtick_4">
     <g id="line2d_4">
      <g>
       <use xlink:href="#md453b525a1" x="131.989149" y="139.988242" style="stroke: #000000; stroke-width: 0.8"/>
      </g>
     </g>
     <g id="text_4">
      <!-- $\mathdefault{6}$ -->
      <g transform="translate(129.872058 154.623044) scale(0.08 -0.08)">
       <defs>
        <path id="CMR17-36" d="M 678 2176 
C 678 3690 1395 4032 1811 4032 
C 1946 4032 2272 4009 2400 3776 
C 2298 3776 2106 3776 2106 3553 
C 2106 3381 2246 3323 2336 3323 
C 2394 3323 2566 3348 2566 3560 
C 2566 3954 2246 4179 1805 4179 
C 1043 4179 243 3390 243 1984 
C 243 253 966 -128 1478 -128 
C 2099 -128 2688 427 2688 1283 
C 2688 2081 2170 2662 1517 2662 
C 1126 2662 838 2407 678 1960 
L 678 2176 
z
M 1478 25 
C 691 25 691 1200 691 1436 
C 691 1896 909 2560 1504 2560 
C 1613 2560 1926 2560 2138 2120 
C 2253 1870 2253 1609 2253 1289 
C 2253 944 2253 690 2118 434 
C 1978 171 1773 25 1478 25 
z
" transform="scale(0.015625)"/>
       </defs>
       <use xlink:href="#CMR17-36" transform="scale(0.996264)"/>
      </g>
     </g>
    </g>
    <g id="xtick_5">
     <g id="line2d_5">
      <g>
       <use xlink:href="#md453b525a1" x="165.060077" y="139.988242" style="stroke: #000000; stroke-width: 0.8"/>
      </g>
     </g>
     <g id="text_5">
      <!-- $\mathdefault{8}$ -->
      <g transform="translate(162.942985 154.623044) scale(0.08 -0.08)">
       <defs>
        <path id="CMR17-38" d="M 1741 2264 
C 2144 2467 2554 2773 2554 3263 
C 2554 3841 1990 4179 1472 4179 
C 890 4179 378 3759 378 3180 
C 378 3021 416 2747 666 2505 
C 730 2442 998 2251 1171 2130 
C 883 1983 211 1634 211 934 
C 211 279 838 -128 1459 -128 
C 2144 -128 2720 362 2720 1010 
C 2720 1590 2330 1857 2074 2029 
L 1741 2264 
z
M 902 2822 
C 851 2854 595 3051 595 3351 
C 595 3739 998 4032 1459 4032 
C 1965 4032 2336 3676 2336 3262 
C 2336 2669 1670 2331 1638 2331 
C 1632 2331 1626 2331 1574 2370 
L 902 2822 
z
M 2080 1519 
C 2176 1449 2483 1240 2483 851 
C 2483 381 2010 25 1472 25 
C 890 25 448 438 448 940 
C 448 1443 838 1862 1280 2060 
L 2080 1519 
z
" transform="scale(0.015625)"/>
       </defs>
       <use xlink:href="#CMR17-38" transform="scale(0.996264)"/>
      </g>
     </g>
    </g>
    <g id="xtick_6">
     <g id="line2d_6">
      <g>
       <use xlink:href="#md453b525a1" x="198.131004" y="139.988242" style="stroke: #000000; stroke-width: 0.8"/>
      </g>
     </g>
     <g id="text_6">
      <!-- $\mathdefault{10}$ -->
      <g transform="translate(193.896821 154.623044) scale(0.08 -0.08)">
       <defs>
        <path id="CMR17-31" d="M 1702 4058 
C 1702 4192 1696 4192 1606 4192 
C 1357 3916 979 3827 621 3827 
C 602 3827 570 3827 563 3808 
C 557 3795 557 3782 557 3648 
C 755 3648 1088 3686 1344 3839 
L 1344 461 
C 1344 236 1331 160 781 160 
L 589 160 
L 589 0 
C 896 0 1216 0 1523 0 
C 1830 0 2150 0 2458 0 
L 2458 160 
L 2266 160 
C 1715 160 1702 230 1702 458 
L 1702 4058 
z
" transform="scale(0.015625)"/>
       </defs>
       <use xlink:href="#CMR17-31" transform="scale(0.996264)"/>
       <use xlink:href="#CMR17-30" transform="translate(45.690477 0) scale(0.996264)"/>
      </g>
     </g>
    </g>
    <g id="xtick_7">
     <g id="line2d_7">
      <g>
       <use xlink:href="#md453b525a1" x="231.201932" y="139.988242" style="stroke: #000000; stroke-width: 0.8"/>
      </g>
     </g>
     <g id="text_7">
      <!-- $\mathdefault{12}$ -->
      <g transform="translate(226.967749 154.623044) scale(0.08 -0.08)">
       <use xlink:href="#CMR17-31" transform="scale(0.996264)"/>
       <use xlink:href="#CMR17-32" transform="translate(45.690477 0) scale(0.996264)"/>
      </g>
     </g>
    </g>
    <g id="text_8">
     <!-- time $t$ -->
     <g transform="translate(118.843978 167.091288) scale(0.1 -0.1)">
      <defs>
       <path id="CMR17-74" d="M 966 2560 
L 1862 2560 
L 1862 2725 
L 966 2725 
L 966 3904 
L 851 3904 
C 838 3245 614 2668 70 2668 
L 70 2560 
L 627 2560 
L 627 771 
C 627 650 627 -64 1370 -64 
C 1747 -64 1965 306 1965 777 
L 1965 1140 
L 1850 1140 
L 1850 783 
C 1850 344 1677 51 1408 51 
C 1222 51 966 178 966 758 
L 966 2560 
z
" transform="scale(0.015625)"/>
       <path id="CMR17-69" d="M 992 3909 
C 992 4049 877 4170 730 4170 
C 589 4170 467 4056 467 3909 
C 467 3769 582 3648 730 3648 
C 870 3648 992 3763 992 3909 
z
M 243 2706 
L 243 2541 
C 602 2541 653 2502 653 2197 
L 653 427 
C 653 184 627 153 218 153 
L 218 -13 
C 371 0 646 0 806 0 
C 960 0 1222 0 1370 -13 
L 1370 153 
C 992 153 979 191 979 420 
L 979 2776 
L 243 2706 
z
" transform="scale(0.015625)"/>
       <path id="CMR17-6d" d="M 4326 1933 
C 4326 2252 4269 2790 3507 2790 
C 3072 2790 2771 2496 2656 2151 
L 2650 2151 
C 2573 2676 2195 2790 1837 2790 
C 1331 2790 1069 2400 973 2144 
L 966 2144 
L 966 2790 
L 211 2720 
L 211 2554 
C 589 2554 646 2515 646 2208 
L 646 428 
C 646 184 621 153 211 153 
L 211 -13 
C 365 0 646 0 813 0 
C 979 0 1267 0 1421 -13 
L 1421 153 
C 1011 153 986 178 986 428 
L 986 1658 
C 986 2247 1344 2688 1792 2688 
C 2266 2688 2317 2266 2317 1958 
L 2317 428 
C 2317 184 2291 153 1882 153 
L 1882 -13 
C 2035 0 2317 0 2483 0 
C 2650 0 2938 0 3091 -13 
L 3091 153 
C 2682 153 2656 178 2656 428 
L 2656 1658 
C 2656 2247 3014 2688 3462 2688 
C 3936 2688 3987 2266 3987 1958 
L 3987 428 
C 3987 184 3962 153 3552 153 
L 3552 -13 
C 3706 0 3987 0 4154 0 
C 4320 0 4608 0 4762 -13 
L 4762 153 
C 4352 153 4326 178 4326 428 
L 4326 1933 
z
" transform="scale(0.015625)"/>
       <path id="CMR17-65" d="M 2438 1472 
C 2464 1498 2464 1511 2464 1576 
C 2464 2238 2118 2816 1389 2816 
C 710 2816 173 2169 173 1383 
C 173 551 781 -64 1459 -64 
C 2176 -64 2458 607 2458 740 
C 2458 784 2419 784 2406 784 
C 2362 784 2355 771 2330 696 
C 2189 265 1837 51 1504 51 
C 1229 51 954 203 781 480 
C 582 803 582 1176 582 1472 
L 2438 1472 
z
M 589 1568 
C 634 2505 1126 2714 1382 2714 
C 1818 2714 2112 2297 2118 1568 
L 589 1568 
z
" transform="scale(0.015625)"/>
       <path id="CMMI12-74" d="M 1286 2566 
L 1875 2566 
C 1997 2566 2061 2566 2061 2681 
C 2061 2752 2022 2752 1894 2752 
L 1331 2752 
L 1568 3692 
C 1594 3781 1594 3794 1594 3840 
C 1594 3943 1510 4000 1427 4000 
C 1376 4000 1229 3981 1178 3775 
L 928 2752 
L 326 2752 
C 198 2752 141 2752 141 2630 
C 141 2566 186 2566 307 2566 
L 877 2566 
L 454 881 
C 403 658 384 594 384 511 
C 384 211 595 -64 954 -64 
C 1600 -64 1946 868 1946 912 
C 1946 951 1920 970 1882 970 
C 1869 970 1843 970 1830 944 
C 1824 938 1818 931 1773 829 
C 1638 511 1344 64 973 64 
C 781 64 768 224 768 364 
C 768 370 768 492 787 568 
L 1286 2566 
z
" transform="scale(0.015625)"/>
      </defs>
      <use xlink:href="#CMR17-74" transform="scale(0.996264)"/>
      <use xlink:href="#CMR17-69" transform="translate(35.280768 0) scale(0.996264)"/>
      <use xlink:href="#CMR17-6d" transform="translate(60.151826 0) scale(0.996264)"/>
      <use xlink:href="#CMR17-65" transform="translate(137.071416 0) scale(0.996264)"/>
      <use xlink:href="#CMMI12-74" transform="translate(207.633043 0) scale(0.996264)"/>
     </g>
    </g>
   </g>
   <g id="matplotlib.axis_2">
    <g id="ytick_1">
     <g id="line2d_8">
      <defs>
       <path id="mc0dcd34dc3" d="M 0 0 
L -3.5 0 
" style="stroke: #000000; stroke-width: 0.8"/>
      </defs>
      <g>
       <use xlink:href="#mc0dcd34dc3" x="32.776366" y="139.988242" style="stroke: #000000; stroke-width: 0.8"/>
      </g>
     </g>
     <g id="text_9">
      <!-- $\mathdefault{−3}$ -->
      <g transform="translate(12.855677 142.755643) scale(0.08 -0.08)">
       <defs>
        <path id="CMSY10-0" d="M 4218 1472 
C 4326 1472 4442 1472 4442 1600 
C 4442 1728 4326 1728 4218 1728 
L 755 1728 
C 646 1728 531 1728 531 1600 
C 531 1472 646 1472 755 1472 
L 4218 1472 
z
" transform="scale(0.015625)"/>
        <path id="CMR17-33" d="M 1414 2157 
C 1984 2157 2234 1662 2234 1090 
C 2234 320 1824 25 1453 25 
C 1114 25 563 194 390 693 
C 422 680 454 680 486 680 
C 640 680 755 782 755 948 
C 755 1133 614 1216 486 1216 
C 378 1216 211 1165 211 926 
C 211 335 787 -128 1466 -128 
C 2176 -128 2720 430 2720 1085 
C 2720 1707 2208 2157 1600 2227 
C 2086 2328 2554 2756 2554 3329 
C 2554 3820 2048 4179 1472 4179 
C 890 4179 378 3829 378 3329 
C 378 3110 544 3072 627 3072 
C 762 3072 877 3155 877 3321 
C 877 3486 762 3569 627 3569 
C 602 3569 570 3569 544 3557 
C 730 3959 1235 4032 1459 4032 
C 1683 4032 2106 3925 2106 3320 
C 2106 3143 2080 2828 1862 2550 
C 1670 2304 1453 2304 1242 2284 
C 1210 2284 1062 2269 1037 2269 
C 992 2263 966 2257 966 2208 
C 966 2163 973 2157 1101 2157 
L 1414 2157 
z
" transform="scale(0.015625)"/>
       </defs>
       <use xlink:href="#CMSY10-0" transform="scale(0.996264)"/>
       <use xlink:href="#CMR17-33" transform="translate(77.487468 0) scale(0.996264)"/>
      </g>
     </g>
    </g>
    <g id="ytick_2">
     <g id="line2d_9">
      <g>
       <use xlink:href="#mc0dcd34dc3" x="32.776366" y="118.763829" style="stroke: #000000; stroke-width: 0.8"/>
      </g>
     </g>
     <g id="text_10">
      <!-- $\mathdefault{−2}$ -->
      <g transform="translate(12.855677 121.53123) scale(0.08 -0.08)">
       <use xlink:href="#CMSY10-0" transform="scale(0.996264)"/>
       <use xlink:href="#CMR17-32" transform="translate(77.487468 0) scale(0.996264)"/>
      </g>
     </g>
    </g>
    <g id="ytick_3">
     <g id="line2d_10">
      <g>
       <use xlink:href="#mc0dcd34dc3" x="32.776366" y="97.539416" style="stroke: #000000; stroke-width: 0.8"/>
      </g>
     </g>
     <g id="text_11">
      <!-- $\mathdefault{−1}$ -->
      <g transform="translate(12.855677 100.306817) scale(0.08 -0.08)">
       <use xlink:href="#CMSY10-0" transform="scale(0.996264)"/>
       <use xlink:href="#CMR17-31" transform="translate(77.487468 0) scale(0.996264)"/>
      </g>
     </g>
    </g>
    <g id="ytick_4">
     <g id="line2d_11">
      <g>
       <use xlink:href="#mc0dcd34dc3" x="32.776366" y="76.315004" style="stroke: #000000; stroke-width: 0.8"/>
      </g>
     </g>
     <g id="text_12">
      <!-- $\mathdefault{0}$ -->
      <g transform="translate(19.442183 79.082404) scale(0.08 -0.08)">
       <use xlink:href="#CMR17-30" transform="scale(0.996264)"/>
      </g>
     </g>
    </g>
    <g id="ytick_5">
     <g id="line2d_12">
      <g>
       <use xlink:href="#mc0dcd34dc3" x="32.776366" y="55.090591" style="stroke: #000000; stroke-width: 0.8"/>
      </g>
     </g>
     <g id="text_13">
      <!-- $\mathdefault{1}$ -->
      <g transform="translate(19.442183 57.857992) scale(0.08 -0.08)">
       <use xlink:href="#CMR17-31" transform="scale(0.996264)"/>
      </g>
     </g>
    </g>
    <g id="ytick_6">
     <g id="line2d_13">
      <g>
       <use xlink:href="#mc0dcd34dc3" x="32.776366" y="33.866178" style="stroke: #000000; stroke-width: 0.8"/>
      </g>
     </g>
     <g id="text_14">
      <!-- $\mathdefault{2}$ -->
      <g transform="translate(19.442183 36.633579) scale(0.08 -0.08)">
       <use xlink:href="#CMR17-32" transform="scale(0.996264)"/>
      </g>
     </g>
    </g>
    <g id="ytick_7">
     <g id="line2d_14">
      <g>
       <use xlink:href="#mc0dcd34dc3" x="32.776366" y="12.641765" style="stroke: #000000; stroke-width: 0.8"/>
      </g>
     </g>
     <g id="text_15">
      <!-- $\mathdefault{3}$ -->
      <g transform="translate(19.442183 15.409166) scale(0.08 -0.08)">
       <use xlink:href="#CMR17-33" transform="scale(0.996264)"/>
      </g>
     </g>
    </g>
    <g id="text_16">
     <!-- target-variable $y$ -->
     <g transform="translate(6.918498 112.132166) rotate(-90) scale(0.1 -0.1)">
      <defs>
       <path id="CMR17-61" d="M 2304 1653 
C 2304 2072 2304 2294 2035 2543 
C 1798 2752 1523 2816 1306 2816 
C 800 2816 435 2407 435 1971 
C 435 1728 627 1728 666 1728 
C 749 1728 896 1778 896 1954 
C 896 2112 774 2181 666 2181 
C 640 2181 608 2174 589 2168 
C 723 2592 1069 2714 1293 2714 
C 1613 2714 1965 2429 1965 1885 
L 1965 1600 
C 1587 1600 1133 1549 774 1357 
C 371 1133 256 813 256 570 
C 256 77 832 -64 1171 -64 
C 1523 -64 1850 139 1990 511 
C 2003 233 2182 -18 2464 -18 
C 2598 -18 2938 70 2938 567 
L 2938 920 
L 2822 920 
L 2822 562 
C 2822 178 2650 128 2566 128 
C 2304 128 2304 458 2304 738 
L 2304 1653 
z
M 1965 870 
C 1965 317 1568 38 1216 38 
C 896 38 646 275 646 570 
C 646 761 730 1100 1101 1305 
C 1408 1478 1760 1504 1965 1504 
L 1965 870 
z
" transform="scale(0.015625)"/>
       <path id="CMR17-72" d="M 960 1497 
C 960 2112 1222 2688 1702 2688 
C 1747 2688 1792 2682 1837 2662 
C 1837 2662 1696 2617 1696 2452 
C 1696 2298 1818 2234 1914 2234 
C 1990 2234 2131 2279 2131 2458 
C 2131 2663 1926 2790 1709 2790 
C 1222 2790 1011 2317 947 2093 
L 941 2093 
L 941 2790 
L 198 2720 
L 198 2554 
C 576 2554 634 2515 634 2208 
L 634 428 
C 634 184 608 153 198 153 
L 198 -13 
C 352 0 646 0 813 0 
C 998 0 1325 0 1498 -13 
L 1498 153 
C 1037 153 960 153 960 440 
L 960 1497 
z
" transform="scale(0.015625)"/>
       <path id="CMR17-67" d="M 710 1164 
C 832 1068 1043 960 1299 960 
C 1805 960 2240 1357 2240 1888 
C 2240 2054 2189 2310 1997 2509 
C 2176 2692 2438 2752 2586 2752 
C 2611 2752 2650 2752 2682 2734 
C 2656 2728 2598 2703 2598 2605 
C 2598 2527 2656 2471 2739 2471 
C 2835 2471 2886 2533 2886 2614 
C 2886 2731 2790 2854 2586 2854 
C 2330 2854 2106 2738 1926 2580 
C 1734 2753 1504 2816 1299 2816 
C 794 2816 358 2419 358 1888 
C 358 1522 570 1292 634 1228 
C 442 1004 442 743 442 711 
C 442 545 506 302 723 168 
C 390 85 128 -169 128 -486 
C 128 -943 736 -1280 1466 -1280 
C 2170 -1280 2803 -956 2803 -479 
C 2803 384 1856 384 1363 384 
C 1216 384 954 384 922 391 
C 723 423 589 602 589 826 
C 589 883 589 1024 710 1164 
z
M 1299 1068 
C 736 1068 736 1760 736 1889 
C 736 2016 736 2708 1299 2708 
C 1862 2708 1862 2016 1862 1889 
C 1862 1760 1862 1068 1299 1068 
z
M 1466 -1171 
C 826 -1171 384 -835 384 -486 
C 384 -289 493 -105 634 -4 
C 794 104 858 104 1293 104 
C 1818 104 2547 104 2547 -486 
C 2547 -835 2106 -1171 1466 -1171 
z
" transform="scale(0.015625)"/>
       <path id="CMR17-2d" d="M 1632 1216 
L 1632 1496 
L 26 1496 
L 26 1216 
L 1632 1216 
z
" transform="scale(0.015625)"/>
       <path id="CMR17-76" d="M 2502 2163 
C 2560 2304 2662 2560 3034 2560 
L 3034 2726 
C 2912 2726 2752 2726 2630 2726 
C 2496 2726 2285 2726 2157 2732 
L 2157 2566 
C 2317 2553 2406 2477 2406 2311 
C 2406 2253 2406 2240 2368 2151 
L 1664 377 
L 902 2286 
C 864 2369 864 2381 864 2407 
C 864 2560 1075 2560 1171 2560 
L 1171 2732 
C 1018 2726 736 2726 576 2726 
C 403 2726 205 2726 64 2732 
L 64 2560 
C 307 2560 442 2560 518 2362 
L 1446 44 
C 1485 -51 1491 -64 1549 -64 
C 1606 -64 1613 -51 1651 44 
L 2502 2163 
z
" transform="scale(0.015625)"/>
       <path id="CMR17-62" d="M 960 4396 
L 198 4326 
L 198 4160 
C 576 4160 634 4122 634 3817 
L 634 -13 
L 749 -13 
L 934 441 
C 1120 141 1395 -64 1766 -64 
C 2406 -64 3053 500 3053 1370 
C 3053 2188 2477 2790 1830 2790 
C 1434 2790 1152 2579 960 2330 
L 960 4396 
z
M 973 2004 
C 973 2118 973 2138 1062 2272 
C 1312 2657 1670 2688 1792 2688 
C 1984 2688 2643 2585 2643 1376 
C 2643 108 1888 38 1734 38 
C 1536 38 1248 114 1043 486 
C 973 608 973 621 973 735 
L 973 2004 
z
" transform="scale(0.015625)"/>
       <path id="CMR17-6c" d="M 979 4396 
L 218 4326 
L 218 4160 
C 595 4160 653 4122 653 3817 
L 653 426 
C 653 184 627 153 218 153 
L 218 -13 
C 371 0 653 0 813 0 
C 979 0 1261 0 1414 -13 
L 1414 153 
C 1005 153 979 178 979 426 
L 979 4396 
z
" transform="scale(0.015625)"/>
       <path id="CMMI12-79" d="M 1683 -700 
C 1510 -939 1261 -1152 947 -1152 
C 870 -1152 563 -1152 467 -889 
C 486 -895 518 -895 531 -895 
C 723 -895 851 -729 851 -582 
C 851 -435 730 -384 634 -384 
C 531 -384 307 -458 307 -759 
C 307 -1071 582 -1286 947 -1286 
C 1587 -1286 2234 -700 2413 6 
L 3040 2485 
C 3046 2517 3059 2556 3059 2594 
C 3059 2689 2982 2753 2886 2753 
C 2829 2753 2694 2727 2643 2535 
L 2170 658 
C 2138 543 2138 530 2086 460 
C 1958 281 1747 64 1440 64 
C 1082 64 1050 415 1050 588 
C 1050 952 1222 1443 1395 1903 
C 1466 2088 1504 2178 1504 2305 
C 1504 2574 1312 2816 998 2816 
C 410 2816 173 1890 173 1839 
C 173 1814 198 1782 243 1782 
C 301 1782 307 1807 333 1897 
C 486 2433 730 2689 979 2689 
C 1037 2689 1146 2689 1146 2478 
C 1146 2312 1075 2127 979 1884 
C 666 1047 666 837 666 683 
C 666 77 1101 -64 1421 -64 
C 1606 -64 1837 -6 2061 230 
L 2067 224 
C 1971 -147 1907 -392 1683 -700 
z
" transform="scale(0.015625)"/>
      </defs>
      <use xlink:href="#CMR17-74" transform="scale(0.996264)"/>
      <use xlink:href="#CMR17-61" transform="translate(35.280768 0) scale(0.996264)"/>
      <use xlink:href="#CMR17-72" transform="translate(80.971245 0) scale(0.996264)"/>
      <use xlink:href="#CMR17-67" transform="translate(116.252013 0) scale(0.996264)"/>
      <use xlink:href="#CMR17-65" transform="translate(161.94249 0) scale(0.996264)"/>
      <use xlink:href="#CMR17-74" transform="translate(202.42815 0) scale(0.996264)"/>
      <use xlink:href="#CMR17-2d" transform="translate(237.708918 0) scale(0.996264)"/>
      <use xlink:href="#CMR17-76" transform="translate(267.784884 0) scale(0.996264)"/>
      <use xlink:href="#CMR17-61" transform="translate(310.872984 0) scale(0.996264)"/>
      <use xlink:href="#CMR17-72" transform="translate(356.563461 0) scale(0.996264)"/>
      <use xlink:href="#CMR17-69" transform="translate(391.844229 0) scale(0.996264)"/>
      <use xlink:href="#CMR17-61" transform="translate(416.715287 0) scale(0.996264)"/>
      <use xlink:href="#CMR17-62" transform="translate(462.405764 0) scale(0.996264)"/>
      <use xlink:href="#CMR17-6c" transform="translate(513.301134 0) scale(0.996264)"/>
      <use xlink:href="#CMR17-65" transform="translate(538.172192 0) scale(0.996264)"/>
      <use xlink:href="#CMMI12-79" transform="translate(608.733819 0) scale(0.996264)"/>
     </g>
    </g>
   </g>
   <g id="line2d_15">
    <path d="M 32.776366 76.315004 
L 33.052417 79.283126 
L 33.328469 79.282819 
L 33.60452 79.503639 
L 33.880571 82.867516 
L 34.156622 81.567305 
L 34.432673 87.117595 
L 34.708724 86.16612 
L 34.984775 84.162645 
L 35.536878 71.914504 
L 35.812929 72.060067 
L 36.08898 73.665433 
L 36.365031 72.941886 
L 36.641082 71.722097 
L 36.917133 72.937257 
L 37.193185 72.684081 
L 37.469236 79.086154 
L 37.745287 81.004194 
L 38.021338 80.787874 
L 38.297389 84.333459 
L 38.57344 82.360611 
L 38.849491 79.508728 
L 39.125543 75.241065 
L 39.401594 81.24529 
L 39.953696 88.475677 
L 40.229747 86.230023 
L 40.505798 85.872301 
L 40.78185 88.387507 
L 41.333952 82.773176 
L 41.610003 84.448012 
L 41.886054 87.654519 
L 42.162105 89.147277 
L 42.438156 87.856682 
L 42.714208 87.891823 
L 42.990259 86.982832 
L 43.26631 87.506287 
L 43.542361 86.665601 
L 43.818412 84.588024 
L 44.094463 83.452367 
L 44.370514 83.631615 
L 44.646566 87.210496 
L 44.922617 87.966605 
L 45.198668 91.851604 
L 45.474719 91.900914 
L 45.75077 90.785626 
L 46.026821 88.835806 
L 46.302872 88.623954 
L 46.578924 93.368209 
L 46.854975 100.18816 
L 47.131026 97.506393 
L 47.407077 99.467239 
L 47.683128 98.301118 
L 47.959179 99.172029 
L 48.511282 92.541616 
L 49.063384 88.838694 
L 49.339435 88.622847 
L 49.615486 88.648443 
L 50.167589 84.256569 
L 50.44364 79.698067 
L 50.719691 78.433822 
L 50.995742 78.429663 
L 51.271793 75.171178 
L 51.547844 75.814528 
L 51.823895 69.507252 
L 52.099947 66.726482 
L 52.375998 66.484288 
L 52.9281 64.093139 
L 53.204151 62.389379 
L 53.480202 64.978239 
L 53.756253 66.19625 
L 54.032305 62.204559 
L 54.308356 60.122201 
L 54.584407 56.169102 
L 54.860458 57.416296 
L 55.136509 61.454613 
L 55.688612 57.256622 
L 55.964663 57.801869 
L 56.240714 57.901582 
L 56.516765 59.20672 
L 57.068867 57.431073 
L 57.62097 63.709815 
L 57.897021 58.936136 
L 58.173072 58.716842 
L 58.449123 57.395373 
L 58.725174 52.381691 
L 59.001225 50.994305 
L 59.553328 43.281736 
L 59.829379 41.264423 
L 60.381481 46.282749 
L 60.657532 48.01844 
L 60.933583 43.390287 
L 61.485686 46.31777 
L 61.761737 46.582855 
L 62.037788 47.127336 
L 62.313839 47.282204 
L 62.58989 49.547836 
L 62.865941 50.099301 
L 63.141993 51.51329 
L 63.418044 58.35905 
L 63.694095 58.955078 
L 64.246197 54.532886 
L 64.522248 53.371296 
L 64.798299 50.935348 
L 65.074351 49.913131 
L 65.626453 44.397921 
L 65.902504 38.03316 
L 66.454606 41.601355 
L 67.006709 38.872965 
L 67.28276 34.216139 
L 67.558811 32.271845 
L 67.834862 27.744511 
L 68.110913 26.660249 
L 68.386964 26.923697 
L 68.663016 28.802725 
L 68.939067 29.424221 
L 69.215118 31.16932 
L 69.491169 25.997942 
L 69.76722 28.299156 
L 70.043271 23.596864 
L 70.319322 21.709505 
L 70.595374 23.238494 
L 70.871425 28.237258 
L 71.147476 29.349872 
L 71.699578 24.481687 
L 72.25168 22.652128 
L 72.527732 28.082436 
L 73.079834 18.752204 
L 73.355885 17.728626 
L 73.631936 15.234302 
L 73.907987 16.792114 
L 74.184038 16.501332 
L 74.46009 14.098704 
L 74.736141 14.747325 
L 75.012192 17.806515 
L 75.288243 19.405462 
L 75.564294 24.185234 
L 75.840345 25.794807 
L 76.116397 23.346405 
L 76.392448 30.434464 
L 76.668499 27.546298 
L 77.220601 19.673847 
L 77.496652 18.791311 
L 77.772703 16.555355 
L 78.324806 20.759384 
L 78.600857 23.159564 
L 78.876908 24.355313 
L 79.152959 21.815884 
L 79.705061 12.157425 
L 79.981113 15.753342 
L 80.257164 15.416733 
L 80.809266 11.715222 
L 81.085317 10.534717 
L 81.913471 2.603278 
L 82.741624 9.015238 
L 83.017675 10.880718 
L 83.293726 11.458549 
L 83.845829 17.239974 
L 84.12188 16.629294 
L 84.397931 17.054891 
L 84.673982 17.811221 
L 84.950033 23.027446 
L 85.226084 25.472511 
L 86.054238 16.364271 
L 86.330289 18.311041 
L 86.60634 15.587474 
L 86.882391 20.667408 
L 87.158442 21.531024 
L 87.434494 17.903495 
L 87.986596 20.294838 
L 88.262647 16.706458 
L 89.0908 14.117007 
L 89.366852 14.398763 
L 89.642903 16.046231 
L 89.918954 20.141327 
L 90.471056 22.473989 
L 90.747107 21.934144 
L 91.023159 26.204035 
L 91.29921 25.402515 
L 91.575261 25.233262 
L 91.851312 28.076514 
L 92.127363 28.680248 
L 92.403414 28.927074 
L 92.679465 26.030926 
L 92.955517 26.212405 
L 93.231568 27.596396 
L 93.78367 33.074394 
L 94.059721 33.473355 
L 94.335772 30.709005 
L 94.611823 30.361111 
L 94.887875 27.986157 
L 95.163926 24.082929 
L 95.439977 25.131072 
L 95.716028 25.033451 
L 96.26813 35.464323 
L 96.544182 35.164733 
L 96.820233 40.050515 
L 97.096284 47.640361 
L 97.372335 46.668027 
L 97.648386 50.436438 
L 97.924437 49.003427 
L 98.200488 49.810152 
L 98.47654 52.633158 
L 98.752591 51.048219 
L 99.028642 50.708128 
L 99.580744 48.28166 
L 99.856795 48.468762 
L 100.132846 46.827487 
L 100.408898 46.604699 
L 100.684949 46.007196 
L 100.961 46.157843 
L 101.237051 46.057878 
L 101.513102 44.466458 
L 101.789153 40.667477 
L 102.065204 38.493841 
L 102.617307 41.640985 
L 102.893358 44.117417 
L 103.169409 44.092132 
L 103.44546 47.434585 
L 103.997563 44.546931 
L 104.273614 44.554769 
L 104.549665 41.404087 
L 104.825716 44.43407 
L 105.377818 34.812049 
L 105.653869 36.369853 
L 106.205972 33.026441 
L 106.482023 33.362587 
L 106.758074 30.81656 
L 107.034125 32.272685 
L 107.310176 29.113545 
L 107.862279 27.704714 
L 108.13833 25.291785 
L 108.414381 25.223026 
L 108.690432 18.754923 
L 109.242534 16.205853 
L 109.518585 17.277697 
L 109.794637 17.284745 
L 110.070688 23.278162 
L 110.346739 24.309881 
L 110.62279 26.580283 
L 110.898841 27.894738 
L 111.174892 26.512826 
L 111.450944 30.865145 
L 112.003046 35.728485 
L 112.279097 36.116225 
L 112.555148 33.653937 
L 112.831199 34.014979 
L 113.10725 34.013374 
L 113.383302 34.961237 
L 113.659353 34.701702 
L 113.935404 33.477237 
L 114.211455 33.72148 
L 114.487506 34.154121 
L 115.31566 24.825148 
L 115.591711 26.11015 
L 115.867762 24.486803 
L 116.143813 20.200905 
L 116.419864 21.896333 
L 116.695915 19.296278 
L 116.971966 20.03313 
L 117.248018 17.993766 
L 117.524069 18.530633 
L 117.80012 21.122317 
L 118.352222 12.235244 
L 118.628273 12.92102 
L 118.904325 12.060745 
L 119.180376 10.824218 
L 119.456427 4.765643 
L 119.732478 8.23398 
L 120.008529 14.375955 
L 120.28458 13.866964 
L 120.836683 8.158944 
L 121.112734 8.022723 
L 121.388785 8.861921 
L 121.664836 9.328767 
L 121.940887 7.932045 
L 122.216938 7.592462 
L 122.492989 4.075983 
L 122.768155 -1 
M 122.770353 -1 
L 123.045092 2.420993 
L 123.328988 -1 
L 123.328988 -1 
" clip-path="url(#p8af38200e1)" style="fill: none; stroke: #808080; stroke-width: 0.5; stroke-linecap: square"/>
   </g>
   <g id="line2d_16">
    <path d="M 32.776366 76.351554 
L 34.304243 78.929858 
L 35.732907 80.919047 
L 37.062358 82.404024 
L 38.312439 83.478417 
L 39.48315 84.201657 
L 40.594333 84.63498 
L 41.665832 84.81934 
L 42.717487 84.777372 
L 43.769143 84.514574 
L 44.860483 84.00837 
L 45.991509 83.232819 
L 47.182062 82.140509 
L 48.451986 80.663433 
L 49.80128 78.741213 
L 51.229944 76.309701 
L 52.757821 73.258355 
L 54.38491 69.496377 
L 56.111213 64.927068 
L 57.936728 59.447837 
L 59.861456 52.950193 
L 62.877525 42.589912 
L 64.762567 37.040382 
L 66.528555 32.507607 
L 68.19533 28.820717 
L 69.762892 25.877186 
L 71.231241 23.580591 
L 72.600377 21.84061 
L 73.870301 20.573025 
L 75.060854 19.687361 
L 76.19188 19.117309 
L 77.263378 18.821126 
L 78.315033 18.761152 
L 79.346846 18.924451 
L 80.398502 19.317301 
L 81.489843 19.966646 
L 82.640711 20.918059 
L 83.851107 22.214015 
L 85.140873 23.928163 
L 86.529852 26.158642 
L 87.998201 28.949403 
L 89.625291 32.002839 
L 91.153168 34.413163 
L 92.581832 36.266588 
L 93.931126 37.661744 
L 95.181207 38.6463 
L 96.37176 39.308541 
L 97.502786 39.688773 
L 98.594126 39.825762 
L 99.685467 39.736957 
L 100.776808 39.422357 
L 101.907833 38.858056 
L 103.078544 38.018527 
L 104.308783 36.856325 
L 105.618391 35.30385 
L 107.00737 33.301984 
L 108.495562 30.751257 
L 110.063124 27.610439 
L 111.729899 23.759828 
L 113.495886 19.105375 
L 115.361087 13.547433 
L 118.595423 3.699491 
L 120.274394 -1 
L 120.274394 -1 
" clip-path="url(#p8af38200e1)" style="fill: none; stroke: #ff0000; stroke-width: 1.4; stroke-linecap: square"/>
   </g>
   <g id="line2d_17">
    <path d="M 32.776366 74.181229 
L 32.994634 69.33302 
L 33.371643 65.775871 
L 33.867707 63.095686 
L 34.423298 61.228304 
L 35.018575 59.957828 
L 35.633694 59.148368 
L 36.248814 58.690921 
L 36.903618 58.481437 
L 37.61795 58.48941 
L 38.491023 58.73315 
L 39.681576 59.319731 
L 43.550874 61.399516 
L 44.582687 61.614528 
L 45.475602 61.577221 
L 46.30899 61.317482 
L 47.122535 60.825807 
L 47.955922 60.05488 
L 48.848837 58.909989 
L 49.821122 57.277214 
L 50.89262 55.015898 
L 52.103016 51.911302 
L 53.511838 47.646316 
L 55.218298 41.722406 
L 57.520034 32.852455 
L 61.647286 16.832848 
L 62.937052 13.011347 
L 64.226818 9.870073 
L 65.516585 7.30333 
L 66.826193 5.185912 
L 68.19533 3.394603 
L 69.703364 1.793359 
L 71.588407 0.13317 
L 73.006253 -1 
M 88.383494 -1 
L 94.645458 11.725517 
L 96.074122 13.939492 
L 97.264675 15.399571 
L 98.276645 16.312363 
L 99.16956 16.83512 
L 99.983105 17.060705 
L 100.737122 17.044117 
L 101.49114 16.802868 
L 102.264999 16.318013 
L 103.098387 15.527967 
L 104.030987 14.322726 
L 105.082642 12.577929 
L 106.273196 10.151766 
L 107.662175 6.794444 
L 109.348792 2.100366 
L 110.371685 -1 
L 110.371685 -1 
" clip-path="url(#p8af38200e1)" style="fill: none; stroke-dasharray: 1.4,2.31; stroke-dashoffset: 0; stroke: #ff0000; stroke-width: 1.4"/>
   </g>
   <g id="line2d_18">
    <path d="M 32.776366 78.521879 
L 33.014477 84.492526 
L 33.470856 90.040568 
L 34.105818 95.052281 
L 34.859835 99.262364 
L 35.673379 102.579087 
L 36.506767 105.073698 
L 37.320312 106.841573 
L 38.114014 108.055073 
L 38.868031 108.816701 
L 39.582363 109.23703 
L 40.296695 109.403011 
L 41.03087 109.342982 
L 41.824572 109.05144 
L 42.73733 108.47163 
L 43.848513 107.485217 
L 45.297019 105.875151 
L 47.896394 102.579238 
L 52.341127 97.03676 
L 54.38491 94.287641 
L 55.873102 91.90632 
L 57.202553 89.347885 
L 58.452634 86.450743 
L 59.682873 83.021042 
L 61.032167 78.537861 
L 67.798479 55.417327 
L 69.485096 50.717411 
L 70.874075 47.464411 
L 72.064628 45.203814 
L 73.116284 43.657395 
L 74.048884 42.661139 
L 74.882271 42.076664 
L 75.656131 41.792088 
L 76.410148 41.74898 
L 77.164165 41.928439 
L 77.97771 42.358288 
L 78.870625 43.091754 
L 79.882595 44.221719 
L 81.073149 45.903875 
L 82.501813 48.33371 
L 84.327328 51.910435 
L 89.30781 61.945254 
L 90.280095 63.146752 
L 91.232538 63.98322 
L 92.165138 64.513832 
L 93.097738 64.793935 
L 94.070023 64.855332 
L 95.141521 64.694427 
L 96.37176 64.276701 
L 97.959164 63.485968 
L 101.530825 61.362342 
L 107.682017 57.652518 
L 109.031311 56.432786 
L 110.26155 55.018041 
L 111.452103 53.300815 
L 112.622814 51.210324 
L 113.793525 48.651823 
L 114.964235 45.549527 
L 116.293687 41.340078 
L 118.893062 32.301562 
L 123.774331 15.273814 
L 125.758586 9.214552 
L 127.365833 4.987057 
L 128.754812 1.928455 
L 130.004893 -0.314147 
L 130.453515 -1 
M 202.379152 -1 
L 204.910544 4.367544 
L 207.728187 9.81685 
L 210.823626 15.31434 
L 214.196861 20.849459 
L 217.867734 26.443678 
L 221.836245 32.085534 
L 226.122237 37.791885 
L 230.745553 43.575559 
L 231.182089 44.104118 
L 231.182089 44.104118 
" clip-path="url(#p8af38200e1)" style="fill: none; stroke-dasharray: 1.4,2.31; stroke-dashoffset: 0; stroke: #ff0000; stroke-width: 1.4"/>
   </g>
   <g id="patch_3">
    <path d="M 32.776366 139.988242 
L 32.776366 12.641765 
" style="fill: none; stroke: #000000; stroke-width: 0.8; stroke-linejoin: miter; stroke-linecap: square"/>
   </g>
   <g id="patch_4">
    <path d="M 231.201932 139.988242 
L 231.201932 12.641765 
" style="fill: none; stroke: #000000; stroke-width: 0.8; stroke-linejoin: miter; stroke-linecap: square"/>
   </g>
   <g id="patch_5">
    <path d="M 32.776366 139.988242 
L 231.201932 139.988242 
" style="fill: none; stroke: #000000; stroke-width: 0.8; stroke-linejoin: miter; stroke-linecap: square"/>
   </g>
   <g id="patch_6">
    <path d="M 32.776366 12.641765 
L 231.201932 12.641765 
" style="fill: none; stroke: #000000; stroke-width: 0.8; stroke-linejoin: miter; stroke-linecap: square"/>
   </g>
   <g id="text_17">
    <!-- Calibrated Model: $Int\_Brown$ -->
    <g transform="translate(66.406752 6.641765) scale(0.096 -0.096)">
     <defs>
      <path id="CMR17-43" d="M 3974 4289 
C 3974 4403 3968 4410 3930 4410 
C 3904 4410 3898 4403 3853 4327 
L 3571 3792 
C 3258 4187 2874 4416 2381 4416 
C 1286 4416 294 3456 294 2148 
C 294 826 1286 -128 2387 -128 
C 3366 -128 3974 730 3974 1461 
C 3974 1524 3974 1550 3917 1550 
C 3866 1550 3866 1531 3859 1474 
C 3808 585 3168 38 2477 38 
C 1824 38 781 495 781 2147 
C 781 3805 1843 4250 2464 4250 
C 3187 4250 3712 3628 3834 2745 
C 3846 2668 3846 2655 3904 2655 
C 3974 2655 3974 2668 3974 2783 
L 3974 4289 
z
" transform="scale(0.015625)"/>
      <path id="CMR17-64" d="M 1869 4326 
L 1869 4160 
C 2246 4160 2304 4122 2304 3820 
L 2304 2345 
C 2278 2377 2016 2790 1498 2790 
C 845 2790 211 2208 211 1364 
C 211 525 806 -64 1434 -64 
C 1978 -64 2259 337 2291 380 
L 2291 -63 
L 3066 -63 
L 3066 128 
C 2688 128 2630 166 2630 473 
L 2630 4396 
L 1869 4326 
z
M 2291 755 
C 2291 563 2176 390 2029 262 
C 1811 70 1594 38 1472 38 
C 1286 38 621 134 621 1356 
C 621 2612 1363 2688 1530 2688 
C 1824 2688 2061 2522 2208 2291 
C 2291 2157 2291 2138 2291 2023 
L 2291 755 
z
" transform="scale(0.015625)"/>
      <path id="CMR17-4d" d="M 1338 4224 
C 1299 4320 1293 4320 1158 4320 
L 339 4320 
L 339 4160 
C 781 4160 851 4160 851 3875 
L 851 610 
C 851 451 851 153 339 153 
L 339 -13 
C 486 0 755 0 915 0 
C 1075 0 1344 0 1491 -13 
L 1491 153 
C 979 153 979 451 979 610 
L 979 4135 
L 986 4135 
L 2490 89 
C 2515 25 2528 -13 2579 -13 
C 2630 -13 2643 25 2669 89 
L 4186 4166 
L 4192 4166 
L 4192 438 
C 4192 153 4122 153 3680 153 
L 3680 -13 
C 3853 0 4198 0 4384 0 
C 4570 0 4922 0 5094 -13 
L 5094 153 
C 4653 153 4582 153 4582 438 
L 4582 3875 
C 4582 4160 4653 4160 5094 4160 
L 5094 4320 
L 4282 4320 
C 4147 4320 4141 4314 4102 4218 
L 2720 502 
L 1338 4224 
z
" transform="scale(0.015625)"/>
      <path id="CMR17-6f" d="M 2758 1356 
C 2758 2176 2163 2816 1466 2816 
C 768 2816 173 2176 173 1356 
C 173 551 768 -64 1466 -64 
C 2163 -64 2758 551 2758 1356 
z
M 1466 51 
C 1165 51 909 230 762 480 
C 602 767 582 1126 582 1408 
C 582 1677 595 2010 762 2298 
C 890 2509 1139 2714 1466 2714 
C 1754 2714 1997 2554 2150 2330 
C 2349 2029 2349 1607 2349 1408 
C 2349 1158 2336 775 2163 467 
C 1984 173 1709 51 1466 51 
z
" transform="scale(0.015625)"/>
      <path id="CMR17-3a" d="M 1062 2491 
C 1062 2650 934 2752 800 2752 
C 672 2752 538 2650 538 2491 
C 538 2332 666 2230 800 2230 
C 928 2230 1062 2332 1062 2491 
z
M 1062 261 
C 1062 420 934 522 800 522 
C 672 522 538 420 538 261 
C 538 102 666 0 800 0 
C 928 0 1062 102 1062 261 
z
" transform="scale(0.015625)"/>
      <path id="CMMI12-49" d="M 2355 3880 
C 2413 4103 2426 4167 2893 4167 
C 3034 4167 3085 4167 3085 4288 
C 3085 4352 3014 4352 2995 4352 
C 2880 4352 2739 4352 2624 4352 
L 1837 4352 
C 1709 4352 1562 4352 1434 4352 
C 1382 4352 1312 4352 1312 4231 
C 1312 4167 1363 4167 1491 4167 
C 1888 4167 1888 4116 1888 4046 
C 1888 4002 1875 3963 1862 3906 
L 998 472 
C 941 249 928 185 461 185 
C 320 185 262 185 262 64 
C 262 0 326 0 358 0 
C 474 0 614 0 730 0 
L 1517 0 
C 1645 0 1786 0 1914 0 
C 1965 0 2042 0 2042 115 
C 2042 185 2003 185 1862 185 
C 1466 185 1466 236 1466 312 
C 1466 325 1466 357 1491 459 
L 2355 3880 
z
" transform="scale(0.015625)"/>
      <path id="CMMI12-6e" d="M 1318 1871 
C 1331 1910 1491 2229 1728 2433 
C 1894 2586 2112 2689 2362 2689 
C 2618 2689 2707 2497 2707 2242 
C 2707 1878 2445 1150 2317 805 
C 2259 651 2227 568 2227 453 
C 2227 166 2426 -64 2733 -64 
C 3328 -64 3552 875 3552 913 
C 3552 945 3526 971 3488 971 
C 3430 971 3424 952 3392 843 
C 3245 319 3002 64 2752 64 
C 2688 64 2586 64 2586 269 
C 2586 429 2656 621 2694 710 
C 2822 1063 3091 1780 3091 2145 
C 3091 2528 2867 2816 2381 2816 
C 1811 2816 1510 2415 1395 2255 
C 1376 2618 1114 2816 832 2816 
C 627 2816 486 2695 378 2478 
C 262 2248 173 1865 173 1839 
C 173 1814 198 1782 243 1782 
C 294 1782 301 1788 339 1935 
C 442 2325 557 2689 813 2689 
C 960 2689 1011 2586 1011 2395 
C 1011 2254 947 2005 902 1807 
L 723 1118 
C 698 996 627 709 595 594 
C 550 428 480 128 480 96 
C 480 6 550 -64 646 -64 
C 723 -64 813 -26 864 70 
C 877 102 934 326 966 453 
L 1107 1028 
L 1318 1871 
z
" transform="scale(0.015625)"/>
      <path id="CMMI12-42" d="M 2342 3921 
C 2400 4160 2426 4160 2675 4160 
L 3507 4160 
C 4230 4160 4230 3544 4230 3485 
C 4230 2966 3712 2304 2867 2304 
L 1946 2304 
L 2342 3921 
z
M 3424 2275 
C 4122 2402 4755 2886 4755 3473 
C 4755 3970 4314 4352 3590 4352 
L 1536 4352 
C 1414 4352 1357 4352 1357 4226 
C 1357 4160 1414 4160 1510 4160 
C 1901 4160 1901 4112 1901 4044 
C 1901 4032 1901 3993 1875 3897 
L 1011 472 
C 954 249 941 185 493 185 
C 371 185 307 185 307 70 
C 307 0 346 0 474 0 
L 2669 0 
C 3648 0 4403 739 4403 1383 
C 4403 1906 3942 2224 3424 2275 
z
M 2515 185 
L 1651 185 
C 1562 185 1549 185 1510 192 
C 1440 198 1434 211 1434 261 
C 1434 305 1446 343 1459 399 
L 1907 2176 
L 3110 2176 
C 3866 2176 3866 1483 3866 1433 
C 3866 828 3309 185 2515 185 
z
" transform="scale(0.015625)"/>
      <path id="CMMI12-72" d="M 2490 2612 
C 2291 2574 2189 2433 2189 2293 
C 2189 2139 2310 2088 2400 2088 
C 2579 2088 2726 2242 2726 2433 
C 2726 2638 2528 2816 2208 2816 
C 1952 2816 1658 2701 1389 2312 
C 1344 2650 1088 2816 832 2816 
C 582 2816 454 2625 378 2484 
C 269 2254 173 1871 173 1839 
C 173 1814 198 1782 243 1782 
C 294 1782 301 1788 339 1935 
C 435 2318 557 2689 813 2689 
C 966 2689 1011 2580 1011 2395 
C 1011 2254 947 2005 902 1807 
L 723 1118 
C 698 996 627 709 595 594 
C 550 428 480 128 480 96 
C 480 6 550 -64 646 -64 
C 717 -64 838 -19 877 109 
C 896 160 1133 1124 1171 1271 
C 1203 1411 1242 1546 1274 1686 
C 1299 1775 1325 1878 1344 1961 
C 1363 2018 1536 2331 1696 2472 
C 1773 2542 1939 2689 2202 2689 
C 2304 2689 2406 2670 2490 2612 
z
" transform="scale(0.015625)"/>
      <path id="CMMI12-6f" d="M 2918 1756 
C 2918 2363 2522 2816 1939 2816 
C 1094 2816 262 1897 262 996 
C 262 390 659 -64 1242 -64 
C 2093 -64 2918 856 2918 1756 
z
M 1248 64 
C 928 64 691 319 691 766 
C 691 1060 845 1712 1024 2031 
C 1312 2523 1670 2689 1933 2689 
C 2246 2689 2490 2433 2490 1986 
C 2490 1731 2355 1047 2112 658 
C 1850 230 1498 64 1248 64 
z
" transform="scale(0.015625)"/>
      <path id="CMMI12-77" d="M 2202 390 
C 2342 6 2739 -64 2982 -64 
C 3469 -64 3757 358 3936 798 
C 4083 1169 4320 2012 4320 2389 
C 4320 2778 4122 2816 4064 2816 
C 3910 2816 3770 2663 3770 2535 
C 3770 2459 3814 2414 3846 2389 
C 3904 2331 4070 2159 4070 1827 
C 4070 1609 3891 1009 3757 709 
C 3578 319 3341 64 3008 64 
C 2650 64 2534 332 2534 626 
C 2534 811 2592 1035 2618 1143 
L 2886 2216 
C 2918 2344 2976 2567 2976 2593 
C 2976 2689 2899 2753 2803 2753 
C 2618 2753 2573 2593 2534 2440 
C 2470 2191 2202 1111 2176 971 
C 2150 862 2150 792 2150 651 
C 2150 498 1946 255 1939 243 
C 1869 172 1766 64 1568 64 
C 1062 64 1062 543 1062 651 
C 1062 856 1107 1137 1395 1897 
C 1472 2095 1504 2178 1504 2305 
C 1504 2574 1312 2816 998 2816 
C 410 2816 173 1890 173 1839 
C 173 1814 198 1782 243 1782 
C 301 1782 307 1807 333 1896 
C 493 2454 742 2682 979 2682 
C 1043 2682 1146 2682 1146 2478 
C 1146 2446 1146 2312 1037 2031 
C 736 1233 672 971 672 728 
C 672 57 1222 -64 1549 -64 
C 1658 -64 1946 -64 2202 390 
z
" transform="scale(0.015625)"/>
     </defs>
     <use xlink:href="#CMR17-43" transform="scale(0.996264)"/>
     <use xlink:href="#CMR17-61" transform="translate(66.509881 0) scale(0.996264)"/>
     <use xlink:href="#CMR17-6c" transform="translate(112.200358 0) scale(0.996264)"/>
     <use xlink:href="#CMR17-69" transform="translate(137.071416 0) scale(0.996264)"/>
     <use xlink:href="#CMR17-62" transform="translate(161.942475 0) scale(0.996264)"/>
     <use xlink:href="#CMR17-72" transform="translate(212.837844 0) scale(0.996264)"/>
     <use xlink:href="#CMR17-61" transform="translate(248.118612 0) scale(0.996264)"/>
     <use xlink:href="#CMR17-74" transform="translate(293.809089 0) scale(0.996264)"/>
     <use xlink:href="#CMR17-65" transform="translate(329.089857 0) scale(0.996264)"/>
     <use xlink:href="#CMR17-64" transform="translate(369.575518 0) scale(0.996264)"/>
     <use xlink:href="#CMR17-4d" transform="translate(450.546854 0) scale(0.996264)"/>
     <use xlink:href="#CMR17-6f" transform="translate(535.233794 0) scale(0.996264)"/>
     <use xlink:href="#CMR17-64" transform="translate(583.52671 0) scale(0.996264)"/>
     <use xlink:href="#CMR17-65" transform="translate(634.42208 0) scale(0.996264)"/>
     <use xlink:href="#CMR17-6c" transform="translate(674.90774 0) scale(0.996264)"/>
     <use xlink:href="#CMR17-3a" transform="translate(699.778799 0) scale(0.996264)"/>
     <use xlink:href="#CMMI12-49" transform="translate(765.135518 0) scale(0.996264)"/>
     <use xlink:href="#CMMI12-6e" transform="translate(815.992032 0) scale(0.996264)"/>
     <use xlink:href="#CMMI12-74" transform="translate(874.222079 0) scale(0.996264)"/>
     <use xlink:href="#CMMI12-42" transform="translate(942.345629 0) scale(0.996264)"/>
     <use xlink:href="#CMMI12-72" transform="translate(1021.481152 0) scale(0.996264)"/>
     <use xlink:href="#CMMI12-6f" transform="translate(1068.151764 0) scale(0.996264)"/>
     <use xlink:href="#CMMI12-77" transform="translate(1115.047074 0) scale(0.996264)"/>
     <use xlink:href="#CMMI12-6e" transform="translate(1187.459989 0) scale(0.996264)"/>
     <path d="M 914.931039 0 
L 942.345629 0 
L 942.345629 0.3985 
L 914.931039 0.3985 
L 914.931039 0 
z
"/>
    </g>
   </g>
   <g id="legend_1">
    <g id="patch_7">
     <path d="M 127.786377 136.988242 
L 227.001932 136.988242 
Q 228.201932 136.988242 228.201932 135.788242 
L 228.201932 102.93899 
Q 228.201932 101.73899 227.001932 101.73899 
L 127.786377 101.73899 
Q 126.586377 101.73899 126.586377 102.93899 
L 126.586377 135.788242 
Q 126.586377 136.988242 127.786377 136.988242 
z
" style="fill: #ffffff; opacity: 0.8; stroke: #cccccc; stroke-width: 0.24; stroke-linejoin: miter"/>
    </g>
    <g id="line2d_19">
     <path d="M 128.986377 106.23899 
L 134.986377 106.23899 
L 140.986377 106.23899 
" style="fill: none; stroke: #808080; stroke-width: 0.5; stroke-linecap: square"/>
    </g>
    <g id="text_18">
     <!-- Non-Integrated GT Data -->
     <g transform="translate(145.786377 108.33899) scale(0.06 -0.06)">
      <defs>
       <path id="CMR17-4e" d="M 1312 4250 
C 1267 4320 1261 4320 1139 4320 
L 326 4320 
L 326 4160 
L 448 4160 
C 704 4160 819 4129 838 4122 
L 838 610 
C 838 451 838 153 326 153 
L 326 -13 
C 474 0 742 0 902 0 
C 1062 0 1331 0 1478 -13 
L 1478 153 
C 966 153 966 451 966 610 
L 966 4033 
C 1011 3995 1011 3982 1056 3919 
L 3430 76 
C 3475 0 3494 0 3526 0 
C 3590 0 3590 19 3590 139 
L 3590 3705 
C 3590 3863 3590 4160 4102 4160 
L 4102 4326 
C 3955 4320 3686 4320 3526 4320 
C 3366 4320 3098 4320 2950 4326 
L 2950 4160 
C 3462 4160 3462 3862 3462 3703 
L 3462 763 
L 1312 4250 
z
" transform="scale(0.015625)"/>
       <path id="CMR17-6e" d="M 2656 1933 
C 2656 2259 2592 2790 1837 2790 
C 1331 2790 1069 2400 973 2144 
L 966 2144 
L 966 2790 
L 211 2720 
L 211 2554 
C 589 2554 646 2515 646 2208 
L 646 428 
C 646 184 621 153 211 153 
L 211 -13 
C 365 0 646 0 813 0 
C 979 0 1267 0 1421 -13 
L 1421 153 
C 1011 153 986 178 986 428 
L 986 1658 
C 986 2247 1344 2688 1792 2688 
C 2266 2688 2317 2266 2317 1958 
L 2317 428 
C 2317 184 2291 153 1882 153 
L 1882 -13 
C 2035 0 2317 0 2483 0 
C 2650 0 2938 0 3091 -13 
L 3091 153 
C 2682 153 2656 178 2656 428 
L 2656 1933 
z
" transform="scale(0.015625)"/>
       <path id="CMR17-49" d="M 1261 3905 
C 1261 4192 1338 4192 1798 4192 
L 1798 4352 
C 1594 4352 1267 4352 1050 4352 
C 832 4352 506 4352 301 4352 
L 301 4192 
C 762 4192 838 4192 838 3905 
L 838 447 
C 838 160 762 160 301 160 
L 301 0 
C 506 0 832 0 1050 0 
C 1267 0 1594 0 1798 0 
L 1798 160 
C 1338 160 1261 160 1261 447 
L 1261 3905 
z
" transform="scale(0.015625)"/>
       <path id="CMR17-47" d="M 3974 1233 
C 3974 1473 3994 1505 4390 1505 
L 4390 1670 
C 4237 1664 3891 1664 3718 1664 
C 3539 1664 3040 1664 2797 1664 
L 2797 1505 
L 2989 1505 
C 3539 1505 3552 1434 3552 1201 
L 3552 774 
C 3552 63 2720 63 2522 63 
C 1862 63 781 511 781 2160 
C 781 3808 1843 4250 2464 4250 
C 3187 4250 3712 3626 3834 2741 
C 3846 2664 3846 2651 3904 2651 
C 3974 2651 3974 2664 3974 2779 
L 3974 4288 
C 3974 4402 3968 4409 3930 4409 
C 3904 4409 3898 4402 3853 4326 
L 3571 3791 
C 3258 4187 2874 4416 2381 4416 
C 1286 4416 294 3456 294 2148 
C 294 845 1267 -128 2394 -128 
C 2912 -128 3418 56 3616 417 
C 3725 158 3904 -20 3936 -20 
C 3968 -20 3974 -13 3974 100 
L 3974 1233 
z
" transform="scale(0.015625)"/>
       <path id="CMR17-54" d="M 3981 4326 
L 288 4326 
L 179 2918 
L 294 2918 
C 378 3976 467 4160 1453 4160 
C 1568 4160 1754 4160 1805 4154 
C 1926 4135 1926 4058 1926 3912 
L 1926 459 
C 1926 230 1907 160 1376 160 
L 1197 160 
L 1197 0 
C 1504 0 1824 0 2138 0 
C 2451 0 2771 0 3078 0 
L 3078 160 
L 2899 160 
C 2368 160 2349 230 2349 459 
L 2349 3912 
C 2349 4052 2349 4129 2464 4154 
C 2515 4160 2701 4160 2816 4160 
C 3795 4160 3891 3976 3974 2918 
L 4090 2918 
L 3981 4326 
z
" transform="scale(0.015625)"/>
       <path id="CMR17-44" d="M 333 4352 
L 333 4186 
C 774 4186 845 4186 845 3900 
L 845 452 
C 845 166 774 166 333 166 
L 333 0 
L 2368 0 
C 3398 0 4224 943 4224 2141 
C 4224 3346 3411 4352 2368 4352 
L 333 4352 
z
M 1523 166 
C 1267 166 1254 197 1254 414 
L 1254 3938 
C 1254 4155 1267 4186 1523 4186 
L 2240 4186 
C 2771 4186 3750 3874 3750 2141 
C 3750 1242 3488 879 3366 707 
C 3213 510 2848 166 2240 166 
L 1523 166 
z
" transform="scale(0.015625)"/>
      </defs>
      <use xlink:href="#CMR17-4e" transform="scale(0.996264)"/>
      <use xlink:href="#CMR17-6f" transform="translate(69.07243 0) scale(0.996264)"/>
      <use xlink:href="#CMR17-6e" transform="translate(114.762907 0) scale(0.996264)"/>
      <use xlink:href="#CMR17-2d" transform="translate(165.658277 0) scale(0.996264)"/>
      <use xlink:href="#CMR17-49" transform="translate(195.734243 0) scale(0.996264)"/>
      <use xlink:href="#CMR17-6e" transform="translate(228.372652 0) scale(0.996264)"/>
      <use xlink:href="#CMR17-74" transform="translate(276.665568 0) scale(0.996264)"/>
      <use xlink:href="#CMR17-65" transform="translate(311.946336 0) scale(0.996264)"/>
      <use xlink:href="#CMR17-67" transform="translate(352.431996 0) scale(0.996264)"/>
      <use xlink:href="#CMR17-72" transform="translate(398.122473 0) scale(0.996264)"/>
      <use xlink:href="#CMR17-61" transform="translate(433.403241 0) scale(0.996264)"/>
      <use xlink:href="#CMR17-74" transform="translate(479.093718 0) scale(0.996264)"/>
      <use xlink:href="#CMR17-65" transform="translate(514.374486 0) scale(0.996264)"/>
      <use xlink:href="#CMR17-64" transform="translate(554.860147 0) scale(0.996264)"/>
      <use xlink:href="#CMR17-47" transform="translate(635.831483 0) scale(0.996264)"/>
      <use xlink:href="#CMR17-54" transform="translate(708.186829 0) scale(0.996264)"/>
      <use xlink:href="#CMR17-44" transform="translate(804.772676 0) scale(0.996264)"/>
      <use xlink:href="#CMR17-61" transform="translate(875.166231 0) scale(0.996264)"/>
      <use xlink:href="#CMR17-74" transform="translate(920.856709 0) scale(0.996264)"/>
      <use xlink:href="#CMR17-61" transform="translate(956.137476 0) scale(0.996264)"/>
     </g>
    </g>
    <g id="PathCollection_2">
     <g>
      <use xlink:href="#mf9fc9ec07e" x="134.986377" y="115.126303" style="fill: #0000ff; stroke: #0000ff; stroke-width: 0.75"/>
     </g>
    </g>
    <g id="text_19">
     <!-- Measurements -->
     <g transform="translate(145.786377 116.701303) scale(0.06 -0.06)">
      <defs>
       <path id="CMR17-73" d="M 1978 2697 
C 1978 2813 1971 2819 1933 2819 
C 1907 2819 1901 2813 1824 2717 
C 1805 2691 1747 2626 1728 2601 
C 1523 2819 1235 2819 1126 2819 
C 416 2819 160 2447 160 2076 
C 160 1498 813 1365 998 1325 
C 1402 1243 1542 1217 1677 1101 
C 1760 1025 1901 884 1901 654 
C 1901 384 1747 38 1158 38 
C 602 38 403 460 288 1021 
C 269 1110 269 1117 218 1117 
C 166 1117 160 1110 160 983 
L 160 63 
C 160 -51 166 -58 205 -58 
C 237 -58 243 -51 275 0 
C 314 57 410 211 448 276 
C 576 103 800 -64 1158 -64 
C 1792 -64 2131 283 2131 784 
C 2131 1112 1958 1285 1875 1362 
C 1683 1561 1459 1606 1190 1657 
C 838 1735 390 1825 390 2217 
C 390 2383 480 2737 1126 2737 
C 1811 2737 1850 2094 1862 1888 
C 1869 1856 1901 1849 1920 1849 
C 1978 1849 1978 1869 1978 1978 
L 1978 2697 
z
" transform="scale(0.015625)"/>
       <path id="CMR17-75" d="M 1882 2693 
L 1882 2528 
C 2259 2528 2317 2489 2317 2186 
L 2317 1032 
C 2317 500 2029 38 1555 38 
C 1030 38 986 348 986 678 
L 986 2763 
L 211 2693 
L 211 2528 
C 467 2528 640 2528 646 2274 
L 646 1058 
C 646 633 646 361 813 183 
C 896 101 1056 -64 1517 -64 
C 2061 -64 2272 377 2323 506 
L 2330 506 
L 2330 -63 
L 3091 -63 
L 3091 128 
C 2714 128 2656 166 2656 473 
L 2656 2763 
L 1882 2693 
z
" transform="scale(0.015625)"/>
      </defs>
      <use xlink:href="#CMR17-4d" transform="scale(0.996264)"/>
      <use xlink:href="#CMR17-65" transform="translate(84.686941 0) scale(0.996264)"/>
      <use xlink:href="#CMR17-61" transform="translate(125.172601 0) scale(0.996264)"/>
      <use xlink:href="#CMR17-73" transform="translate(170.863078 0) scale(0.996264)"/>
      <use xlink:href="#CMR17-75" transform="translate(206.664416 0) scale(0.996264)"/>
      <use xlink:href="#CMR17-72" transform="translate(257.559786 0) scale(0.996264)"/>
      <use xlink:href="#CMR17-65" transform="translate(292.840553 0) scale(0.996264)"/>
      <use xlink:href="#CMR17-6d" transform="translate(333.326214 0) scale(0.996264)"/>
      <use xlink:href="#CMR17-65" transform="translate(410.245804 0) scale(0.996264)"/>
      <use xlink:href="#CMR17-6e" transform="translate(450.731464 0) scale(0.996264)"/>
      <use xlink:href="#CMR17-74" transform="translate(499.02438 0) scale(0.996264)"/>
      <use xlink:href="#CMR17-73" transform="translate(534.305148 0) scale(0.996264)"/>
     </g>
    </g>
    <g id="line2d_20">
     <path d="M 128.986377 122.963616 
L 134.986377 122.963616 
L 140.986377 122.963616 
" style="fill: none; stroke: #ff0000; stroke-width: 1.4; stroke-linecap: square"/>
    </g>
    <g id="text_20">
     <!-- Estimation $y_{est}$ -->
     <g transform="translate(145.786377 125.063616) scale(0.06 -0.06)">
      <defs>
       <path id="CMR17-45" d="M 3885 1615 
L 3770 1615 
C 3629 676 3546 166 2419 166 
L 1530 166 
C 1274 166 1261 197 1261 414 
L 1261 2176 
L 1862 2176 
C 2464 2176 2522 1960 2522 1430 
L 2637 1430 
L 2637 3081 
L 2522 3081 
C 2522 2557 2464 2342 1862 2342 
L 1261 2342 
L 1261 3913 
C 1261 4128 1274 4160 1530 4160 
L 2406 4160 
C 3398 4160 3514 3769 3603 2929 
L 3718 2929 
L 3565 4325 
L 326 4325 
L 326 4160 
C 768 4160 838 4160 838 3874 
L 838 451 
C 838 166 768 166 326 166 
L 326 0 
L 3654 0 
L 3885 1615 
z
" transform="scale(0.015625)"/>
       <path id="CMMI12-65" d="M 1146 1479 
C 1318 1479 1754 1479 2061 1595 
C 2547 1783 2592 2158 2592 2274 
C 2592 2558 2349 2816 1926 2816 
C 1254 2816 288 2210 288 1073 
C 288 402 672 -64 1254 -64 
C 2125 -64 2675 609 2675 692 
C 2675 730 2637 762 2611 762 
C 2592 762 2586 756 2528 699 
C 2118 159 1510 64 1267 64 
C 902 64 710 350 710 822 
C 710 911 710 1071 806 1479 
L 1146 1479 
z
M 838 1600 
C 1114 2592 1722 2689 1926 2689 
C 2208 2689 2400 2522 2400 2277 
C 2400 1600 1376 1600 1107 1600 
L 838 1600 
z
" transform="scale(0.015625)"/>
       <path id="CMMI12-73" d="M 1459 1280 
C 1568 1261 1741 1223 1779 1216 
C 1862 1192 2150 1090 2150 783 
C 2150 586 1971 70 1229 70 
C 1094 70 614 70 486 436 
C 742 404 870 603 870 745 
C 870 880 781 950 653 950 
C 512 950 326 841 326 552 
C 326 173 710 -64 1222 -64 
C 2195 -64 2483 651 2483 984 
C 2483 1079 2483 1258 2278 1462 
C 2118 1616 1965 1648 1619 1718 
C 1446 1756 1171 1814 1171 2101 
C 1171 2229 1286 2689 1894 2689 
C 2163 2689 2426 2589 2490 2368 
C 2208 2368 2195 2125 2195 2119 
C 2195 1984 2317 1946 2374 1946 
C 2464 1946 2643 2015 2643 2281 
C 2643 2545 2400 2816 1901 2816 
C 1062 2816 838 2160 838 1899 
C 838 1414 1312 1312 1459 1280 
z
" transform="scale(0.015625)"/>
      </defs>
      <use xlink:href="#CMR17-45" transform="scale(0.996264)"/>
      <use xlink:href="#CMR17-73" transform="translate(62.586301 0) scale(0.996264)"/>
      <use xlink:href="#CMR17-74" transform="translate(98.387638 0) scale(0.996264)"/>
      <use xlink:href="#CMR17-69" transform="translate(133.668406 0) scale(0.996264)"/>
      <use xlink:href="#CMR17-6d" transform="translate(158.539464 0) scale(0.996264)"/>
      <use xlink:href="#CMR17-61" transform="translate(235.459054 0) scale(0.996264)"/>
      <use xlink:href="#CMR17-74" transform="translate(281.149531 0) scale(0.996264)"/>
      <use xlink:href="#CMR17-69" transform="translate(316.430299 0) scale(0.996264)"/>
      <use xlink:href="#CMR17-6f" transform="translate(341.301358 0) scale(0.996264)"/>
      <use xlink:href="#CMR17-6e" transform="translate(386.991835 0) scale(0.996264)"/>
      <use xlink:href="#CMMI12-79" transform="translate(467.963171 0) scale(0.996264)"/>
      <use xlink:href="#CMMI12-65" transform="translate(515.527359 -14.943915) scale(0.697382)"/>
      <use xlink:href="#CMMI12-73" transform="translate(547.175615 -14.943915) scale(0.697382)"/>
      <use xlink:href="#CMMI12-74" transform="translate(579.340504 -14.943915) scale(0.697382)"/>
     </g>
    </g>
    <g id="line2d_21">
     <path d="M 128.986377 131.325929 
L 134.986377 131.325929 
L 140.986377 131.325929 
" style="fill: none; stroke-dasharray: 1.4,2.31; stroke-dashoffset: 0; stroke: #ff0000; stroke-width: 1.4"/>
    </g>
    <g id="text_21">
     <!-- $std_{est}$ -->
     <g transform="translate(145.786377 133.425929) scale(0.06 -0.06)">
      <defs>
       <path id="CMMI12-64" d="M 3219 4257 
C 3226 4282 3238 4320 3238 4352 
C 3238 4416 3174 4416 3162 4416 
C 3155 4416 2842 4388 2810 4380 
C 2701 4373 2605 4358 2490 4358 
C 2330 4345 2285 4339 2285 4224 
C 2285 4160 2336 4160 2426 4160 
C 2739 4160 2746 4103 2746 4040 
C 2746 4002 2733 3952 2726 3933 
L 2336 2395 
C 2266 2561 2093 2816 1760 2816 
C 1037 2816 256 1884 256 939 
C 256 307 627 -64 1062 -64 
C 1414 -64 1715 211 1894 422 
C 1958 45 2259 -64 2451 -64 
C 2643 -64 2797 51 2912 281 
C 3014 498 3104 888 3104 913 
C 3104 945 3078 971 3040 971 
C 2982 971 2976 939 2950 843 
C 2854 466 2733 64 2470 64 
C 2285 64 2272 229 2272 357 
C 2272 382 2272 515 2317 694 
L 3219 4257 
z
M 1926 760 
C 1894 651 1894 639 1805 517 
C 1664 338 1382 64 1082 64 
C 819 64 672 300 672 677 
C 672 1028 870 1743 992 2012 
C 1210 2459 1510 2689 1760 2689 
C 2182 2689 2266 2165 2266 2114 
C 2266 2108 2246 2024 2240 2012 
L 1926 760 
z
" transform="scale(0.015625)"/>
      </defs>
      <use xlink:href="#CMMI12-73" transform="scale(0.996264)"/>
      <use xlink:href="#CMMI12-74" transform="translate(45.950048 0) scale(0.996264)"/>
      <use xlink:href="#CMMI12-64" transform="translate(81.176378 0) scale(0.996264)"/>
      <use xlink:href="#CMMI12-65" transform="translate(131.865475 -14.943915) scale(0.697382)"/>
      <use xlink:href="#CMMI12-73" transform="translate(163.513731 -14.943915) scale(0.697382)"/>
      <use xlink:href="#CMMI12-74" transform="translate(195.67862 -14.943915) scale(0.697382)"/>
     </g>
    </g>
   </g>
  </g>
 </g>
 <defs>
  <clipPath id="p8af38200e1">
   <rect x="32.776366" y="12.641765" width="198.425566" height="127.346477"/>
  </clipPath>
 </defs>
</svg>
