<?xml version="1.0" encoding="utf-8" standalone="no"?>
<!DOCTYPE svg PUBLIC "-//W3C//DTD SVG 1.1//EN"
  "http://www.w3.org/Graphics/SVG/1.1/DTD/svg11.dtd">
<svg xmlns:xlink="http://www.w3.org/1999/xlink" width="235.436115pt" height="169.028466pt" viewBox="0 0 235.436115 169.028466" xmlns="http://www.w3.org/2000/svg" version="1.1">
 <metadata>
  <rdf:RDF xmlns:dc="http://purl.org/dc/elements/1.1/" xmlns:cc="http://creativecommons.org/ns#" xmlns:rdf="http://www.w3.org/1999/02/22-rdf-syntax-ns#">
   <cc:Work>
    <dc:type rdf:resource="http://purl.org/dc/dcmitype/StillImage"/>
    <dc:date>2023-10-27T18:14:25.352702</dc:date>
    <dc:format>image/svg+xml</dc:format>
    <dc:creator>
     <cc:Agent>
      <dc:title>Matplotlib v3.7.3, https://matplotlib.org/</dc:title>
     </cc:Agent>
    </dc:creator>
   </cc:Work>
  </rdf:RDF>
 </metadata>
 <defs>
  <style type="text/css">*{stroke-linejoin: round; stroke-linecap: butt}</style>
 </defs>
 <g id="figure_1">
  <g id="patch_1">
   <path d="M 0 169.028466 
L 235.436115 169.028466 
L 235.436115 0 
L 0 0 
L 0 169.028466 
z
" style="fill: none"/>
  </g>
  <g id="axes_1">
   <g id="patch_2">
    <path d="M 43.597056 139.988242 
L 229.08484 139.988242 
L 229.08484 12.641765 
L 43.597056 12.641765 
L 43.597056 139.988242 
z
" style="fill: none"/>
   </g>
   <g id="PathCollection_1">
    <defs>
     <path id="m8ea3795496" d="M -2.8 2.8 
L 2.8 -2.8 
M -2.8 -2.8 
L 2.8 2.8 
" style="stroke: #0000ff; stroke-width: 0.75"/>
    </defs>
    <g clip-path="url(#pfbc23b52d8)">
     <use xlink:href="#m8ea3795496" x="-1" y="104.56605" style="fill: #0000ff; stroke: #0000ff; stroke-width: 0.75"/>
     <use xlink:href="#m8ea3795496" x="10.209254" y="104.485119" style="fill: #0000ff; stroke: #0000ff; stroke-width: 0.75"/>
     <use xlink:href="#m8ea3795496" x="38.032422" y="106.34106" style="fill: #0000ff; stroke: #0000ff; stroke-width: 0.75"/>
     <use xlink:href="#m8ea3795496" x="65.85559" y="73.85688" style="fill: #0000ff; stroke: #0000ff; stroke-width: 0.75"/>
     <use xlink:href="#m8ea3795496" x="93.678758" y="84.661066" style="fill: #0000ff; stroke: #0000ff; stroke-width: 0.75"/>
     <use xlink:href="#m8ea3795496" x="121.501925" y="84.226512" style="fill: #0000ff; stroke: #0000ff; stroke-width: 0.75"/>
     <use xlink:href="#m8ea3795496" x="149.325093" y="88.37909" style="fill: #0000ff; stroke: #0000ff; stroke-width: 0.75"/>
     <use xlink:href="#m8ea3795496" x="177.148261" y="86.625412" style="fill: #0000ff; stroke: #0000ff; stroke-width: 0.75"/>
     <use xlink:href="#m8ea3795496" x="204.971428" y="109.317897" style="fill: #0000ff; stroke: #0000ff; stroke-width: 0.75"/>
     <use xlink:href="#m8ea3795496" x="232.794596" y="106.802996" style="fill: #0000ff; stroke: #0000ff; stroke-width: 0.75"/>
     <use xlink:href="#m8ea3795496" x="260.617764" y="106.894234" style="fill: #0000ff; stroke: #0000ff; stroke-width: 0.75"/>
     <use xlink:href="#m8ea3795496" x="288.440931" y="104.828849" style="fill: #0000ff; stroke: #0000ff; stroke-width: 0.75"/>
     <use xlink:href="#m8ea3795496" x="316.264099" y="40.32904" style="fill: #0000ff; stroke: #0000ff; stroke-width: 0.75"/>
     <use xlink:href="#m8ea3795496" x="344.087267" y="50.010055" style="fill: #0000ff; stroke: #0000ff; stroke-width: 0.75"/>
     <use xlink:href="#m8ea3795496" x="371.910434" y="104.654207" style="fill: #0000ff; stroke: #0000ff; stroke-width: 0.75"/>
     <use xlink:href="#m8ea3795496" x="399.733602" y="100.99022" style="fill: #0000ff; stroke: #0000ff; stroke-width: 0.75"/>
     <use xlink:href="#m8ea3795496" x="427.55677" y="99.388898" style="fill: #0000ff; stroke: #0000ff; stroke-width: 0.75"/>
     <use xlink:href="#m8ea3795496" x="455.379937" y="106.579343" style="fill: #0000ff; stroke: #0000ff; stroke-width: 0.75"/>
     <use xlink:href="#m8ea3795496" x="483.203105" y="108.661955" style="fill: #0000ff; stroke: #0000ff; stroke-width: 0.75"/>
     <use xlink:href="#m8ea3795496" x="511.026273" y="110.947323" style="fill: #0000ff; stroke: #0000ff; stroke-width: 0.75"/>
     <use xlink:href="#m8ea3795496" x="538.849441" y="100.902091" style="fill: #0000ff; stroke: #0000ff; stroke-width: 0.75"/>
     <use xlink:href="#m8ea3795496" x="566.672608" y="48.051386" style="fill: #0000ff; stroke: #0000ff; stroke-width: 0.75"/>
     <use xlink:href="#m8ea3795496" x="594.495776" y="37.034442" style="fill: #0000ff; stroke: #0000ff; stroke-width: 0.75"/>
     <use xlink:href="#m8ea3795496" x="622.318944" y="105.189118" style="fill: #0000ff; stroke: #0000ff; stroke-width: 0.75"/>
     <use xlink:href="#m8ea3795496" x="650.142111" y="110.153727" style="fill: #0000ff; stroke: #0000ff; stroke-width: 0.75"/>
     <use xlink:href="#m8ea3795496" x="677.965279" y="110.969252" style="fill: #0000ff; stroke: #0000ff; stroke-width: 0.75"/>
     <use xlink:href="#m8ea3795496" x="705.788447" y="111.228076" style="fill: #0000ff; stroke: #0000ff; stroke-width: 0.75"/>
     <use xlink:href="#m8ea3795496" x="733.611614" y="110.052154" style="fill: #0000ff; stroke: #0000ff; stroke-width: 0.75"/>
     <use xlink:href="#m8ea3795496" x="761.434782" y="38.982808" style="fill: #0000ff; stroke: #0000ff; stroke-width: 0.75"/>
     <use xlink:href="#m8ea3795496" x="789.25795" y="-0.118403" style="fill: #0000ff; stroke: #0000ff; stroke-width: 0.75"/>
     <use xlink:href="#m8ea3795496" x="817.081117" y="3.118594" style="fill: #0000ff; stroke: #0000ff; stroke-width: 0.75"/>
     <use xlink:href="#m8ea3795496" x="825.980602" y="-1" style="fill: #0000ff; stroke: #0000ff; stroke-width: 0.75"/>
     <use xlink:href="#m8ea3795496" x="852.518528" y="-1" style="fill: #0000ff; stroke: #0000ff; stroke-width: 0.75"/>
     <use xlink:href="#m8ea3795496" x="872.727453" y="22.243759" style="fill: #0000ff; stroke: #0000ff; stroke-width: 0.75"/>
     <use xlink:href="#m8ea3795496" x="900.55062" y="22.401571" style="fill: #0000ff; stroke: #0000ff; stroke-width: 0.75"/>
     <use xlink:href="#m8ea3795496" x="928.373788" y="22.684529" style="fill: #0000ff; stroke: #0000ff; stroke-width: 0.75"/>
     <use xlink:href="#m8ea3795496" x="956.196956" y="19.336548" style="fill: #0000ff; stroke: #0000ff; stroke-width: 0.75"/>
     <use xlink:href="#m8ea3795496" x="984.020124" y="74.938667" style="fill: #0000ff; stroke: #0000ff; stroke-width: 0.75"/>
     <use xlink:href="#m8ea3795496" x="1011.843291" y="102.019754" style="fill: #0000ff; stroke: #0000ff; stroke-width: 0.75"/>
     <use xlink:href="#m8ea3795496" x="1039.666459" y="103.937887" style="fill: #0000ff; stroke: #0000ff; stroke-width: 0.75"/>
     <use xlink:href="#m8ea3795496" x="1067.489627" y="103.555064" style="fill: #0000ff; stroke: #0000ff; stroke-width: 0.75"/>
     <use xlink:href="#m8ea3795496" x="1095.312794" y="104.857814" style="fill: #0000ff; stroke: #0000ff; stroke-width: 0.75"/>
     <use xlink:href="#m8ea3795496" x="1123.135962" y="107.368613" style="fill: #0000ff; stroke: #0000ff; stroke-width: 0.75"/>
     <use xlink:href="#m8ea3795496" x="1150.95913" y="109.137077" style="fill: #0000ff; stroke: #0000ff; stroke-width: 0.75"/>
     <use xlink:href="#m8ea3795496" x="1178.782297" y="63.036748" style="fill: #0000ff; stroke: #0000ff; stroke-width: 0.75"/>
     <use xlink:href="#m8ea3795496" x="1206.605465" y="39.023968" style="fill: #0000ff; stroke: #0000ff; stroke-width: 0.75"/>
     <use xlink:href="#m8ea3795496" x="1234.428633" y="43.939277" style="fill: #0000ff; stroke: #0000ff; stroke-width: 0.75"/>
     <use xlink:href="#m8ea3795496" x="1262.2518" y="101.639382" style="fill: #0000ff; stroke: #0000ff; stroke-width: 0.75"/>
     <use xlink:href="#m8ea3795496" x="1290.074968" y="110.460331" style="fill: #0000ff; stroke: #0000ff; stroke-width: 0.75"/>
     <use xlink:href="#m8ea3795496" x="1317.898136" y="106.959624" style="fill: #0000ff; stroke: #0000ff; stroke-width: 0.75"/>
     <use xlink:href="#m8ea3795496" x="1345.721303" y="104.307565" style="fill: #0000ff; stroke: #0000ff; stroke-width: 0.75"/>
     <use xlink:href="#m8ea3795496" x="1373.544471" y="62.752468" style="fill: #0000ff; stroke: #0000ff; stroke-width: 0.75"/>
     <use xlink:href="#m8ea3795496" x="1401.367639" y="50.729653" style="fill: #0000ff; stroke: #0000ff; stroke-width: 0.75"/>
     <use xlink:href="#m8ea3795496" x="1429.190807" y="65.257842" style="fill: #0000ff; stroke: #0000ff; stroke-width: 0.75"/>
     <use xlink:href="#m8ea3795496" x="1457.013974" y="63.581671" style="fill: #0000ff; stroke: #0000ff; stroke-width: 0.75"/>
     <use xlink:href="#m8ea3795496" x="1484.837142" y="98.579725" style="fill: #0000ff; stroke: #0000ff; stroke-width: 0.75"/>
     <use xlink:href="#m8ea3795496" x="1512.66031" y="99.137519" style="fill: #0000ff; stroke: #0000ff; stroke-width: 0.75"/>
     <use xlink:href="#m8ea3795496" x="1540.483477" y="99.059473" style="fill: #0000ff; stroke: #0000ff; stroke-width: 0.75"/>
     <use xlink:href="#m8ea3795496" x="1568.306645" y="99.682496" style="fill: #0000ff; stroke: #0000ff; stroke-width: 0.75"/>
     <use xlink:href="#m8ea3795496" x="1596.129813" y="100.369686" style="fill: #0000ff; stroke: #0000ff; stroke-width: 0.75"/>
     <use xlink:href="#m8ea3795496" x="1623.95298" y="100.031151" style="fill: #0000ff; stroke: #0000ff; stroke-width: 0.75"/>
     <use xlink:href="#m8ea3795496" x="1651.776148" y="103.578753" style="fill: #0000ff; stroke: #0000ff; stroke-width: 0.75"/>
     <use xlink:href="#m8ea3795496" x="1679.599316" y="103.96769" style="fill: #0000ff; stroke: #0000ff; stroke-width: 0.75"/>
     <use xlink:href="#m8ea3795496" x="1707.422483" y="103.935354" style="fill: #0000ff; stroke: #0000ff; stroke-width: 0.75"/>
     <use xlink:href="#m8ea3795496" x="1735.245651" y="104.193009" style="fill: #0000ff; stroke: #0000ff; stroke-width: 0.75"/>
     <use xlink:href="#m8ea3795496" x="1763.068819" y="104.015789" style="fill: #0000ff; stroke: #0000ff; stroke-width: 0.75"/>
     <use xlink:href="#m8ea3795496" x="1790.891986" y="106.945282" style="fill: #0000ff; stroke: #0000ff; stroke-width: 0.75"/>
     <use xlink:href="#m8ea3795496" x="1818.715154" y="111.04323" style="fill: #0000ff; stroke: #0000ff; stroke-width: 0.75"/>
     <use xlink:href="#m8ea3795496" x="1846.538322" y="110.943301" style="fill: #0000ff; stroke: #0000ff; stroke-width: 0.75"/>
     <use xlink:href="#m8ea3795496" x="1874.361489" y="109.707616" style="fill: #0000ff; stroke: #0000ff; stroke-width: 0.75"/>
     <use xlink:href="#m8ea3795496" x="1902.184657" y="109.702973" style="fill: #0000ff; stroke: #0000ff; stroke-width: 0.75"/>
     <use xlink:href="#m8ea3795496" x="1930.007825" y="109.93079" style="fill: #0000ff; stroke: #0000ff; stroke-width: 0.75"/>
    </g>
   </g>
   <g id="matplotlib.axis_1">
    <g id="xtick_1">
     <g id="line2d_1">
      <defs>
       <path id="m7e19434b16" d="M 0 0 
L 0 3.5 
" style="stroke: #000000; stroke-width: 0.8"/>
      </defs>
      <g>
       <use xlink:href="#m7e19434b16" x="43.597056" y="139.988242" style="stroke: #000000; stroke-width: 0.8"/>
      </g>
     </g>
     <g id="text_1">
      <!-- $\mathdefault{400}$ -->
      <g transform="translate(37.245781 154.623044) scale(0.08 -0.08)">
       <defs>
        <path id="CMR17-34" d="M 2150 4122 
C 2150 4256 2144 4256 2029 4256 
L 128 1254 
L 128 1088 
L 1779 1088 
L 1779 457 
C 1779 224 1766 160 1318 160 
L 1197 160 
L 1197 0 
C 1402 0 1747 0 1965 0 
C 2182 0 2528 0 2733 0 
L 2733 160 
L 2611 160 
C 2163 160 2150 224 2150 457 
L 2150 1088 
L 2803 1088 
L 2803 1254 
L 2150 1254 
L 2150 4122 
z
M 1798 3703 
L 1798 1254 
L 256 1254 
L 1798 3703 
z
" transform="scale(0.015625)"/>
        <path id="CMR17-30" d="M 2688 2025 
C 2688 2416 2682 3080 2413 3591 
C 2176 4039 1798 4198 1466 4198 
C 1158 4198 768 4058 525 3597 
C 269 3118 243 2524 243 2025 
C 243 1661 250 1106 448 619 
C 723 -39 1216 -128 1466 -128 
C 1760 -128 2208 -7 2470 600 
C 2662 1042 2688 1559 2688 2025 
z
M 1466 -26 
C 1056 -26 813 325 723 812 
C 653 1188 653 1738 653 2096 
C 653 2588 653 2997 736 3387 
C 858 3929 1216 4096 1466 4096 
C 1728 4096 2067 3923 2189 3400 
C 2272 3036 2278 2607 2278 2096 
C 2278 1680 2278 1169 2202 792 
C 2067 95 1690 -26 1466 -26 
z
" transform="scale(0.015625)"/>
       </defs>
       <use xlink:href="#CMR17-34" transform="scale(0.996264)"/>
       <use xlink:href="#CMR17-30" transform="translate(45.690477 0) scale(0.996264)"/>
       <use xlink:href="#CMR17-30" transform="translate(91.380954 0) scale(0.996264)"/>
      </g>
     </g>
    </g>
    <g id="xtick_2">
     <g id="line2d_2">
      <g>
       <use xlink:href="#m7e19434b16" x="80.694613" y="139.988242" style="stroke: #000000; stroke-width: 0.8"/>
      </g>
     </g>
     <g id="text_2">
      <!-- $\mathdefault{420}$ -->
      <g transform="translate(74.343338 154.623044) scale(0.08 -0.08)">
       <defs>
        <path id="CMR17-32" d="M 2669 989 
L 2554 989 
C 2490 536 2438 459 2413 420 
C 2381 369 1920 369 1830 369 
L 602 369 
C 832 619 1280 1072 1824 1597 
C 2214 1967 2669 2402 2669 3035 
C 2669 3790 2067 4224 1395 4224 
C 691 4224 262 3604 262 3030 
C 262 2780 448 2748 525 2748 
C 589 2748 781 2787 781 3010 
C 781 3207 614 3264 525 3264 
C 486 3264 448 3258 422 3245 
C 544 3790 915 4058 1306 4058 
C 1862 4058 2227 3617 2227 3035 
C 2227 2479 1901 2000 1536 1584 
L 262 146 
L 262 0 
L 2515 0 
L 2669 989 
z
" transform="scale(0.015625)"/>
       </defs>
       <use xlink:href="#CMR17-34" transform="scale(0.996264)"/>
       <use xlink:href="#CMR17-32" transform="translate(45.690477 0) scale(0.996264)"/>
       <use xlink:href="#CMR17-30" transform="translate(91.380954 0) scale(0.996264)"/>
      </g>
     </g>
    </g>
    <g id="xtick_3">
     <g id="line2d_3">
      <g>
       <use xlink:href="#m7e19434b16" x="117.79217" y="139.988242" style="stroke: #000000; stroke-width: 0.8"/>
      </g>
     </g>
     <g id="text_3">
      <!-- $\mathdefault{440}$ -->
      <g transform="translate(111.440895 154.623044) scale(0.08 -0.08)">
       <use xlink:href="#CMR17-34" transform="scale(0.996264)"/>
       <use xlink:href="#CMR17-34" transform="translate(45.690477 0) scale(0.996264)"/>
       <use xlink:href="#CMR17-30" transform="translate(91.380954 0) scale(0.996264)"/>
      </g>
     </g>
    </g>
    <g id="xtick_4">
     <g id="line2d_4">
      <g>
       <use xlink:href="#m7e19434b16" x="154.889726" y="139.988242" style="stroke: #000000; stroke-width: 0.8"/>
      </g>
     </g>
     <g id="text_4">
      <!-- $\mathdefault{460}$ -->
      <g transform="translate(148.538452 154.623044) scale(0.08 -0.08)">
       <defs>
        <path id="CMR17-36" d="M 678 2176 
C 678 3690 1395 4032 1811 4032 
C 1946 4032 2272 4009 2400 3776 
C 2298 3776 2106 3776 2106 3553 
C 2106 3381 2246 3323 2336 3323 
C 2394 3323 2566 3348 2566 3560 
C 2566 3954 2246 4179 1805 4179 
C 1043 4179 243 3390 243 1984 
C 243 253 966 -128 1478 -128 
C 2099 -128 2688 427 2688 1283 
C 2688 2081 2170 2662 1517 2662 
C 1126 2662 838 2407 678 1960 
L 678 2176 
z
M 1478 25 
C 691 25 691 1200 691 1436 
C 691 1896 909 2560 1504 2560 
C 1613 2560 1926 2560 2138 2120 
C 2253 1870 2253 1609 2253 1289 
C 2253 944 2253 690 2118 434 
C 1978 171 1773 25 1478 25 
z
" transform="scale(0.015625)"/>
       </defs>
       <use xlink:href="#CMR17-34" transform="scale(0.996264)"/>
       <use xlink:href="#CMR17-36" transform="translate(45.690477 0) scale(0.996264)"/>
       <use xlink:href="#CMR17-30" transform="translate(91.380954 0) scale(0.996264)"/>
      </g>
     </g>
    </g>
    <g id="xtick_5">
     <g id="line2d_5">
      <g>
       <use xlink:href="#m7e19434b16" x="191.987283" y="139.988242" style="stroke: #000000; stroke-width: 0.8"/>
      </g>
     </g>
     <g id="text_5">
      <!-- $\mathdefault{480}$ -->
      <g transform="translate(185.636009 154.623044) scale(0.08 -0.08)">
       <defs>
        <path id="CMR17-38" d="M 1741 2264 
C 2144 2467 2554 2773 2554 3263 
C 2554 3841 1990 4179 1472 4179 
C 890 4179 378 3759 378 3180 
C 378 3021 416 2747 666 2505 
C 730 2442 998 2251 1171 2130 
C 883 1983 211 1634 211 934 
C 211 279 838 -128 1459 -128 
C 2144 -128 2720 362 2720 1010 
C 2720 1590 2330 1857 2074 2029 
L 1741 2264 
z
M 902 2822 
C 851 2854 595 3051 595 3351 
C 595 3739 998 4032 1459 4032 
C 1965 4032 2336 3676 2336 3262 
C 2336 2669 1670 2331 1638 2331 
C 1632 2331 1626 2331 1574 2370 
L 902 2822 
z
M 2080 1519 
C 2176 1449 2483 1240 2483 851 
C 2483 381 2010 25 1472 25 
C 890 25 448 438 448 940 
C 448 1443 838 1862 1280 2060 
L 2080 1519 
z
" transform="scale(0.015625)"/>
       </defs>
       <use xlink:href="#CMR17-34" transform="scale(0.996264)"/>
       <use xlink:href="#CMR17-38" transform="translate(45.690477 0) scale(0.996264)"/>
       <use xlink:href="#CMR17-30" transform="translate(91.380954 0) scale(0.996264)"/>
      </g>
     </g>
    </g>
    <g id="xtick_6">
     <g id="line2d_6">
      <g>
       <use xlink:href="#m7e19434b16" x="229.08484" y="139.988242" style="stroke: #000000; stroke-width: 0.8"/>
      </g>
     </g>
     <g id="text_6">
      <!-- $\mathdefault{500}$ -->
      <g transform="translate(222.733566 154.623044) scale(0.08 -0.08)">
       <defs>
        <path id="CMR17-35" d="M 730 3692 
C 794 3666 1056 3584 1325 3584 
C 1920 3584 2246 3911 2432 4100 
C 2432 4157 2432 4192 2394 4192 
C 2387 4192 2374 4192 2323 4163 
C 2099 4058 1837 3973 1517 3973 
C 1325 3973 1037 3999 723 4139 
C 653 4171 640 4171 634 4171 
C 602 4171 595 4164 595 4037 
L 595 2203 
C 595 2089 595 2057 659 2057 
C 691 2057 704 2070 736 2114 
C 941 2401 1222 2522 1542 2522 
C 1766 2522 2246 2382 2246 1289 
C 2246 1085 2246 715 2054 421 
C 1894 159 1645 25 1370 25 
C 947 25 518 320 403 814 
C 429 807 480 795 506 795 
C 589 795 749 840 749 1038 
C 749 1210 627 1280 506 1280 
C 358 1280 262 1190 262 1011 
C 262 454 704 -128 1382 -128 
C 2042 -128 2669 440 2669 1264 
C 2669 2030 2170 2624 1549 2624 
C 1222 2624 947 2503 730 2274 
L 730 3692 
z
" transform="scale(0.015625)"/>
       </defs>
       <use xlink:href="#CMR17-35" transform="scale(0.996264)"/>
       <use xlink:href="#CMR17-30" transform="translate(45.690477 0) scale(0.996264)"/>
       <use xlink:href="#CMR17-30" transform="translate(91.380954 0) scale(0.996264)"/>
      </g>
     </g>
    </g>
    <g id="text_7">
     <!-- time $t$ -->
     <g transform="translate(123.195777 167.091288) scale(0.1 -0.1)">
      <defs>
       <path id="CMR17-74" d="M 966 2560 
L 1862 2560 
L 1862 2725 
L 966 2725 
L 966 3904 
L 851 3904 
C 838 3245 614 2668 70 2668 
L 70 2560 
L 627 2560 
L 627 771 
C 627 650 627 -64 1370 -64 
C 1747 -64 1965 306 1965 777 
L 1965 1140 
L 1850 1140 
L 1850 783 
C 1850 344 1677 51 1408 51 
C 1222 51 966 178 966 758 
L 966 2560 
z
" transform="scale(0.015625)"/>
       <path id="CMR17-69" d="M 992 3909 
C 992 4049 877 4170 730 4170 
C 589 4170 467 4056 467 3909 
C 467 3769 582 3648 730 3648 
C 870 3648 992 3763 992 3909 
z
M 243 2706 
L 243 2541 
C 602 2541 653 2502 653 2197 
L 653 427 
C 653 184 627 153 218 153 
L 218 -13 
C 371 0 646 0 806 0 
C 960 0 1222 0 1370 -13 
L 1370 153 
C 992 153 979 191 979 420 
L 979 2776 
L 243 2706 
z
" transform="scale(0.015625)"/>
       <path id="CMR17-6d" d="M 4326 1933 
C 4326 2252 4269 2790 3507 2790 
C 3072 2790 2771 2496 2656 2151 
L 2650 2151 
C 2573 2676 2195 2790 1837 2790 
C 1331 2790 1069 2400 973 2144 
L 966 2144 
L 966 2790 
L 211 2720 
L 211 2554 
C 589 2554 646 2515 646 2208 
L 646 428 
C 646 184 621 153 211 153 
L 211 -13 
C 365 0 646 0 813 0 
C 979 0 1267 0 1421 -13 
L 1421 153 
C 1011 153 986 178 986 428 
L 986 1658 
C 986 2247 1344 2688 1792 2688 
C 2266 2688 2317 2266 2317 1958 
L 2317 428 
C 2317 184 2291 153 1882 153 
L 1882 -13 
C 2035 0 2317 0 2483 0 
C 2650 0 2938 0 3091 -13 
L 3091 153 
C 2682 153 2656 178 2656 428 
L 2656 1658 
C 2656 2247 3014 2688 3462 2688 
C 3936 2688 3987 2266 3987 1958 
L 3987 428 
C 3987 184 3962 153 3552 153 
L 3552 -13 
C 3706 0 3987 0 4154 0 
C 4320 0 4608 0 4762 -13 
L 4762 153 
C 4352 153 4326 178 4326 428 
L 4326 1933 
z
" transform="scale(0.015625)"/>
       <path id="CMR17-65" d="M 2438 1472 
C 2464 1498 2464 1511 2464 1576 
C 2464 2238 2118 2816 1389 2816 
C 710 2816 173 2169 173 1383 
C 173 551 781 -64 1459 -64 
C 2176 -64 2458 607 2458 740 
C 2458 784 2419 784 2406 784 
C 2362 784 2355 771 2330 696 
C 2189 265 1837 51 1504 51 
C 1229 51 954 203 781 480 
C 582 803 582 1176 582 1472 
L 2438 1472 
z
M 589 1568 
C 634 2505 1126 2714 1382 2714 
C 1818 2714 2112 2297 2118 1568 
L 589 1568 
z
" transform="scale(0.015625)"/>
       <path id="CMMI12-74" d="M 1286 2566 
L 1875 2566 
C 1997 2566 2061 2566 2061 2681 
C 2061 2752 2022 2752 1894 2752 
L 1331 2752 
L 1568 3692 
C 1594 3781 1594 3794 1594 3840 
C 1594 3943 1510 4000 1427 4000 
C 1376 4000 1229 3981 1178 3775 
L 928 2752 
L 326 2752 
C 198 2752 141 2752 141 2630 
C 141 2566 186 2566 307 2566 
L 877 2566 
L 454 881 
C 403 658 384 594 384 511 
C 384 211 595 -64 954 -64 
C 1600 -64 1946 868 1946 912 
C 1946 951 1920 970 1882 970 
C 1869 970 1843 970 1830 944 
C 1824 938 1818 931 1773 829 
C 1638 511 1344 64 973 64 
C 781 64 768 224 768 364 
C 768 370 768 492 787 568 
L 1286 2566 
z
" transform="scale(0.015625)"/>
      </defs>
      <use xlink:href="#CMR17-74" transform="scale(0.996264)"/>
      <use xlink:href="#CMR17-69" transform="translate(35.280768 0) scale(0.996264)"/>
      <use xlink:href="#CMR17-6d" transform="translate(60.151826 0) scale(0.996264)"/>
      <use xlink:href="#CMR17-65" transform="translate(137.071416 0) scale(0.996264)"/>
      <use xlink:href="#CMMI12-74" transform="translate(207.633043 0) scale(0.996264)"/>
     </g>
    </g>
   </g>
   <g id="matplotlib.axis_2">
    <g id="ytick_1">
     <g id="line2d_7">
      <defs>
       <path id="m9a13772e8c" d="M 0 0 
L -3.5 0 
" style="stroke: #000000; stroke-width: 0.8"/>
      </defs>
      <g>
       <use xlink:href="#m9a13772e8c" x="43.597056" y="139.988242" style="stroke: #000000; stroke-width: 0.8"/>
      </g>
     </g>
     <g id="text_8">
      <!-- $\mathdefault{−0.01}$ -->
      <g transform="translate(12.855677 142.755643) scale(0.08 -0.08)">
       <defs>
        <path id="CMSY10-0" d="M 4218 1472 
C 4326 1472 4442 1472 4442 1600 
C 4442 1728 4326 1728 4218 1728 
L 755 1728 
C 646 1728 531 1728 531 1600 
C 531 1472 646 1472 755 1472 
L 4218 1472 
z
" transform="scale(0.015625)"/>
        <path id="CMMI12-3a" d="M 1178 307 
C 1178 492 1024 619 870 619 
C 685 619 557 466 557 313 
C 557 128 710 0 864 0 
C 1050 0 1178 153 1178 307 
z
" transform="scale(0.015625)"/>
        <path id="CMR17-31" d="M 1702 4058 
C 1702 4192 1696 4192 1606 4192 
C 1357 3916 979 3827 621 3827 
C 602 3827 570 3827 563 3808 
C 557 3795 557 3782 557 3648 
C 755 3648 1088 3686 1344 3839 
L 1344 461 
C 1344 236 1331 160 781 160 
L 589 160 
L 589 0 
C 896 0 1216 0 1523 0 
C 1830 0 2150 0 2458 0 
L 2458 160 
L 2266 160 
C 1715 160 1702 230 1702 458 
L 1702 4058 
z
" transform="scale(0.015625)"/>
       </defs>
       <use xlink:href="#CMSY10-0" transform="scale(0.996264)"/>
       <use xlink:href="#CMR17-30" transform="translate(77.487468 0) scale(0.996264)"/>
       <use xlink:href="#CMMI12-3a" transform="translate(123.177945 0) scale(0.996264)"/>
       <use xlink:href="#CMR17-30" transform="translate(150.275122 0) scale(0.996264)"/>
       <use xlink:href="#CMR17-31" transform="translate(195.965599 0) scale(0.996264)"/>
      </g>
     </g>
    </g>
    <g id="ytick_2">
     <g id="line2d_8">
      <g>
       <use xlink:href="#m9a13772e8c" x="43.597056" y="118.763829" style="stroke: #000000; stroke-width: 0.8"/>
      </g>
     </g>
     <g id="text_9">
      <!-- $\mathdefault{0.00}$ -->
      <g transform="translate(19.442183 121.53123) scale(0.08 -0.08)">
       <use xlink:href="#CMR17-30" transform="scale(0.996264)"/>
       <use xlink:href="#CMMI12-3a" transform="translate(45.690477 0) scale(0.996264)"/>
       <use xlink:href="#CMR17-30" transform="translate(72.787654 0) scale(0.996264)"/>
       <use xlink:href="#CMR17-30" transform="translate(118.478131 0) scale(0.996264)"/>
      </g>
     </g>
    </g>
    <g id="ytick_3">
     <g id="line2d_9">
      <g>
       <use xlink:href="#m9a13772e8c" x="43.597056" y="97.539416" style="stroke: #000000; stroke-width: 0.8"/>
      </g>
     </g>
     <g id="text_10">
      <!-- $\mathdefault{0.01}$ -->
      <g transform="translate(19.442183 100.306817) scale(0.08 -0.08)">
       <use xlink:href="#CMR17-30" transform="scale(0.996264)"/>
       <use xlink:href="#CMMI12-3a" transform="translate(45.690477 0) scale(0.996264)"/>
       <use xlink:href="#CMR17-30" transform="translate(72.787654 0) scale(0.996264)"/>
       <use xlink:href="#CMR17-31" transform="translate(118.478131 0) scale(0.996264)"/>
      </g>
     </g>
    </g>
    <g id="ytick_4">
     <g id="line2d_10">
      <g>
       <use xlink:href="#m9a13772e8c" x="43.597056" y="76.315004" style="stroke: #000000; stroke-width: 0.8"/>
      </g>
     </g>
     <g id="text_11">
      <!-- $\mathdefault{0.02}$ -->
      <g transform="translate(19.442183 79.082404) scale(0.08 -0.08)">
       <use xlink:href="#CMR17-30" transform="scale(0.996264)"/>
       <use xlink:href="#CMMI12-3a" transform="translate(45.690477 0) scale(0.996264)"/>
       <use xlink:href="#CMR17-30" transform="translate(72.787654 0) scale(0.996264)"/>
       <use xlink:href="#CMR17-32" transform="translate(118.478131 0) scale(0.996264)"/>
      </g>
     </g>
    </g>
    <g id="ytick_5">
     <g id="line2d_11">
      <g>
       <use xlink:href="#m9a13772e8c" x="43.597056" y="55.090591" style="stroke: #000000; stroke-width: 0.8"/>
      </g>
     </g>
     <g id="text_12">
      <!-- $\mathdefault{0.03}$ -->
      <g transform="translate(19.442183 57.857992) scale(0.08 -0.08)">
       <defs>
        <path id="CMR17-33" d="M 1414 2157 
C 1984 2157 2234 1662 2234 1090 
C 2234 320 1824 25 1453 25 
C 1114 25 563 194 390 693 
C 422 680 454 680 486 680 
C 640 680 755 782 755 948 
C 755 1133 614 1216 486 1216 
C 378 1216 211 1165 211 926 
C 211 335 787 -128 1466 -128 
C 2176 -128 2720 430 2720 1085 
C 2720 1707 2208 2157 1600 2227 
C 2086 2328 2554 2756 2554 3329 
C 2554 3820 2048 4179 1472 4179 
C 890 4179 378 3829 378 3329 
C 378 3110 544 3072 627 3072 
C 762 3072 877 3155 877 3321 
C 877 3486 762 3569 627 3569 
C 602 3569 570 3569 544 3557 
C 730 3959 1235 4032 1459 4032 
C 1683 4032 2106 3925 2106 3320 
C 2106 3143 2080 2828 1862 2550 
C 1670 2304 1453 2304 1242 2284 
C 1210 2284 1062 2269 1037 2269 
C 992 2263 966 2257 966 2208 
C 966 2163 973 2157 1101 2157 
L 1414 2157 
z
" transform="scale(0.015625)"/>
       </defs>
       <use xlink:href="#CMR17-30" transform="scale(0.996264)"/>
       <use xlink:href="#CMMI12-3a" transform="translate(45.690477 0) scale(0.996264)"/>
       <use xlink:href="#CMR17-30" transform="translate(72.787654 0) scale(0.996264)"/>
       <use xlink:href="#CMR17-33" transform="translate(118.478131 0) scale(0.996264)"/>
      </g>
     </g>
    </g>
    <g id="ytick_6">
     <g id="line2d_12">
      <g>
       <use xlink:href="#m9a13772e8c" x="43.597056" y="33.866178" style="stroke: #000000; stroke-width: 0.8"/>
      </g>
     </g>
     <g id="text_13">
      <!-- $\mathdefault{0.04}$ -->
      <g transform="translate(19.442183 36.633579) scale(0.08 -0.08)">
       <use xlink:href="#CMR17-30" transform="scale(0.996264)"/>
       <use xlink:href="#CMMI12-3a" transform="translate(45.690477 0) scale(0.996264)"/>
       <use xlink:href="#CMR17-30" transform="translate(72.787654 0) scale(0.996264)"/>
       <use xlink:href="#CMR17-34" transform="translate(118.478131 0) scale(0.996264)"/>
      </g>
     </g>
    </g>
    <g id="ytick_7">
     <g id="line2d_13">
      <g>
       <use xlink:href="#m9a13772e8c" x="43.597056" y="12.641765" style="stroke: #000000; stroke-width: 0.8"/>
      </g>
     </g>
     <g id="text_14">
      <!-- $\mathdefault{0.05}$ -->
      <g transform="translate(19.442183 15.409166) scale(0.08 -0.08)">
       <use xlink:href="#CMR17-30" transform="scale(0.996264)"/>
       <use xlink:href="#CMMI12-3a" transform="translate(45.690477 0) scale(0.996264)"/>
       <use xlink:href="#CMR17-30" transform="translate(72.787654 0) scale(0.996264)"/>
       <use xlink:href="#CMR17-35" transform="translate(118.478131 0) scale(0.996264)"/>
      </g>
     </g>
    </g>
    <g id="text_15">
     <!-- target-variable $y$ -->
     <g transform="translate(6.918498 112.132166) rotate(-90) scale(0.1 -0.1)">
      <defs>
       <path id="CMR17-61" d="M 2304 1653 
C 2304 2072 2304 2294 2035 2543 
C 1798 2752 1523 2816 1306 2816 
C 800 2816 435 2407 435 1971 
C 435 1728 627 1728 666 1728 
C 749 1728 896 1778 896 1954 
C 896 2112 774 2181 666 2181 
C 640 2181 608 2174 589 2168 
C 723 2592 1069 2714 1293 2714 
C 1613 2714 1965 2429 1965 1885 
L 1965 1600 
C 1587 1600 1133 1549 774 1357 
C 371 1133 256 813 256 570 
C 256 77 832 -64 1171 -64 
C 1523 -64 1850 139 1990 511 
C 2003 233 2182 -18 2464 -18 
C 2598 -18 2938 70 2938 567 
L 2938 920 
L 2822 920 
L 2822 562 
C 2822 178 2650 128 2566 128 
C 2304 128 2304 458 2304 738 
L 2304 1653 
z
M 1965 870 
C 1965 317 1568 38 1216 38 
C 896 38 646 275 646 570 
C 646 761 730 1100 1101 1305 
C 1408 1478 1760 1504 1965 1504 
L 1965 870 
z
" transform="scale(0.015625)"/>
       <path id="CMR17-72" d="M 960 1497 
C 960 2112 1222 2688 1702 2688 
C 1747 2688 1792 2682 1837 2662 
C 1837 2662 1696 2617 1696 2452 
C 1696 2298 1818 2234 1914 2234 
C 1990 2234 2131 2279 2131 2458 
C 2131 2663 1926 2790 1709 2790 
C 1222 2790 1011 2317 947 2093 
L 941 2093 
L 941 2790 
L 198 2720 
L 198 2554 
C 576 2554 634 2515 634 2208 
L 634 428 
C 634 184 608 153 198 153 
L 198 -13 
C 352 0 646 0 813 0 
C 998 0 1325 0 1498 -13 
L 1498 153 
C 1037 153 960 153 960 440 
L 960 1497 
z
" transform="scale(0.015625)"/>
       <path id="CMR17-67" d="M 710 1164 
C 832 1068 1043 960 1299 960 
C 1805 960 2240 1357 2240 1888 
C 2240 2054 2189 2310 1997 2509 
C 2176 2692 2438 2752 2586 2752 
C 2611 2752 2650 2752 2682 2734 
C 2656 2728 2598 2703 2598 2605 
C 2598 2527 2656 2471 2739 2471 
C 2835 2471 2886 2533 2886 2614 
C 2886 2731 2790 2854 2586 2854 
C 2330 2854 2106 2738 1926 2580 
C 1734 2753 1504 2816 1299 2816 
C 794 2816 358 2419 358 1888 
C 358 1522 570 1292 634 1228 
C 442 1004 442 743 442 711 
C 442 545 506 302 723 168 
C 390 85 128 -169 128 -486 
C 128 -943 736 -1280 1466 -1280 
C 2170 -1280 2803 -956 2803 -479 
C 2803 384 1856 384 1363 384 
C 1216 384 954 384 922 391 
C 723 423 589 602 589 826 
C 589 883 589 1024 710 1164 
z
M 1299 1068 
C 736 1068 736 1760 736 1889 
C 736 2016 736 2708 1299 2708 
C 1862 2708 1862 2016 1862 1889 
C 1862 1760 1862 1068 1299 1068 
z
M 1466 -1171 
C 826 -1171 384 -835 384 -486 
C 384 -289 493 -105 634 -4 
C 794 104 858 104 1293 104 
C 1818 104 2547 104 2547 -486 
C 2547 -835 2106 -1171 1466 -1171 
z
" transform="scale(0.015625)"/>
       <path id="CMR17-2d" d="M 1632 1216 
L 1632 1496 
L 26 1496 
L 26 1216 
L 1632 1216 
z
" transform="scale(0.015625)"/>
       <path id="CMR17-76" d="M 2502 2163 
C 2560 2304 2662 2560 3034 2560 
L 3034 2726 
C 2912 2726 2752 2726 2630 2726 
C 2496 2726 2285 2726 2157 2732 
L 2157 2566 
C 2317 2553 2406 2477 2406 2311 
C 2406 2253 2406 2240 2368 2151 
L 1664 377 
L 902 2286 
C 864 2369 864 2381 864 2407 
C 864 2560 1075 2560 1171 2560 
L 1171 2732 
C 1018 2726 736 2726 576 2726 
C 403 2726 205 2726 64 2732 
L 64 2560 
C 307 2560 442 2560 518 2362 
L 1446 44 
C 1485 -51 1491 -64 1549 -64 
C 1606 -64 1613 -51 1651 44 
L 2502 2163 
z
" transform="scale(0.015625)"/>
       <path id="CMR17-62" d="M 960 4396 
L 198 4326 
L 198 4160 
C 576 4160 634 4122 634 3817 
L 634 -13 
L 749 -13 
L 934 441 
C 1120 141 1395 -64 1766 -64 
C 2406 -64 3053 500 3053 1370 
C 3053 2188 2477 2790 1830 2790 
C 1434 2790 1152 2579 960 2330 
L 960 4396 
z
M 973 2004 
C 973 2118 973 2138 1062 2272 
C 1312 2657 1670 2688 1792 2688 
C 1984 2688 2643 2585 2643 1376 
C 2643 108 1888 38 1734 38 
C 1536 38 1248 114 1043 486 
C 973 608 973 621 973 735 
L 973 2004 
z
" transform="scale(0.015625)"/>
       <path id="CMR17-6c" d="M 979 4396 
L 218 4326 
L 218 4160 
C 595 4160 653 4122 653 3817 
L 653 426 
C 653 184 627 153 218 153 
L 218 -13 
C 371 0 653 0 813 0 
C 979 0 1261 0 1414 -13 
L 1414 153 
C 1005 153 979 178 979 426 
L 979 4396 
z
" transform="scale(0.015625)"/>
       <path id="CMMI12-79" d="M 1683 -700 
C 1510 -939 1261 -1152 947 -1152 
C 870 -1152 563 -1152 467 -889 
C 486 -895 518 -895 531 -895 
C 723 -895 851 -729 851 -582 
C 851 -435 730 -384 634 -384 
C 531 -384 307 -458 307 -759 
C 307 -1071 582 -1286 947 -1286 
C 1587 -1286 2234 -700 2413 6 
L 3040 2485 
C 3046 2517 3059 2556 3059 2594 
C 3059 2689 2982 2753 2886 2753 
C 2829 2753 2694 2727 2643 2535 
L 2170 658 
C 2138 543 2138 530 2086 460 
C 1958 281 1747 64 1440 64 
C 1082 64 1050 415 1050 588 
C 1050 952 1222 1443 1395 1903 
C 1466 2088 1504 2178 1504 2305 
C 1504 2574 1312 2816 998 2816 
C 410 2816 173 1890 173 1839 
C 173 1814 198 1782 243 1782 
C 301 1782 307 1807 333 1897 
C 486 2433 730 2689 979 2689 
C 1037 2689 1146 2689 1146 2478 
C 1146 2312 1075 2127 979 1884 
C 666 1047 666 837 666 683 
C 666 77 1101 -64 1421 -64 
C 1606 -64 1837 -6 2061 230 
L 2067 224 
C 1971 -147 1907 -392 1683 -700 
z
" transform="scale(0.015625)"/>
      </defs>
      <use xlink:href="#CMR17-74" transform="scale(0.996264)"/>
      <use xlink:href="#CMR17-61" transform="translate(35.280768 0) scale(0.996264)"/>
      <use xlink:href="#CMR17-72" transform="translate(80.971245 0) scale(0.996264)"/>
      <use xlink:href="#CMR17-67" transform="translate(116.252013 0) scale(0.996264)"/>
      <use xlink:href="#CMR17-65" transform="translate(161.94249 0) scale(0.996264)"/>
      <use xlink:href="#CMR17-74" transform="translate(202.42815 0) scale(0.996264)"/>
      <use xlink:href="#CMR17-2d" transform="translate(237.708918 0) scale(0.996264)"/>
      <use xlink:href="#CMR17-76" transform="translate(267.784884 0) scale(0.996264)"/>
      <use xlink:href="#CMR17-61" transform="translate(310.872984 0) scale(0.996264)"/>
      <use xlink:href="#CMR17-72" transform="translate(356.563461 0) scale(0.996264)"/>
      <use xlink:href="#CMR17-69" transform="translate(391.844229 0) scale(0.996264)"/>
      <use xlink:href="#CMR17-61" transform="translate(416.715287 0) scale(0.996264)"/>
      <use xlink:href="#CMR17-62" transform="translate(462.405764 0) scale(0.996264)"/>
      <use xlink:href="#CMR17-6c" transform="translate(513.301134 0) scale(0.996264)"/>
      <use xlink:href="#CMR17-65" transform="translate(538.172192 0) scale(0.996264)"/>
      <use xlink:href="#CMMI12-79" transform="translate(608.733819 0) scale(0.996264)"/>
     </g>
    </g>
   </g>
   <g id="line2d_14">
    <path d="M 43.539555 84.26612 
L 45.442659 80.334222 
L 47.345764 76.94144 
L 49.248869 73.989128 
L 51.151973 71.427933 
L 53.055078 69.237461 
L 54.958183 67.419502 
L 56.544103 66.205968 
L 58.130024 65.29755 
L 59.39876 64.824886 
L 60.667497 64.625703 
L 61.619049 64.699964 
L 62.570601 65.024734 
L 63.204969 65.425862 
L 63.839338 66.031532 
L 64.473706 66.937962 
L 65.108074 68.374664 
L 65.425258 69.503156 
L 65.742442 71.461716 
L 66.059626 70.566638 
L 66.693995 67.464831 
L 67.328363 65.636095 
L 68.279915 63.725998 
L 69.231468 62.350503 
L 70.18302 61.311578 
L 71.451756 60.296094 
L 72.720493 59.601157 
L 73.989229 59.162705 
L 75.257966 58.942126 
L 76.526702 58.914991 
L 78.112623 59.130069 
L 79.698543 59.606546 
L 81.284464 60.338835 
L 82.870384 61.33162 
L 84.456305 62.60085 
L 86.042225 64.177444 
L 87.628146 66.116032 
L 88.896882 67.991694 
L 90.165619 70.253909 
L 91.117171 72.310992 
L 92.068724 74.86173 
L 92.703092 77.049787 
L 93.33746 80.187328 
L 93.654644 83.422929 
L 93.971828 80.627 
L 94.606196 77.588086 
L 95.240565 75.59214 
L 96.192117 73.362573 
L 97.143669 71.640359 
L 98.412406 69.833312 
L 99.681142 68.417673 
L 100.949879 67.29815 
L 102.535799 66.234964 
L 104.12172 65.489147 
L 105.70764 65.025362 
L 107.293561 64.824667 
L 108.879482 64.879951 
L 110.465402 65.19441 
L 112.051323 65.782223 
L 113.320059 66.467727 
L 114.588796 67.369962 
L 115.857532 68.526851 
L 117.126268 70.001143 
L 118.077821 71.380453 
L 119.029373 73.090006 
L 119.980925 75.31907 
L 120.615294 77.334766 
L 120.932478 78.66337 
L 121.566846 82.297977 
L 121.88403 79.69752 
L 122.518398 77.003733 
L 123.152767 75.192048 
L 124.104319 73.179921 
L 125.055871 71.650389 
L 126.324608 70.08447 
L 127.593344 68.901092 
L 128.862081 68.009043 
L 130.130817 67.356201 
L 131.399553 66.91038 
L 132.985474 66.613744 
L 134.571395 66.585226 
L 136.157315 66.81394 
L 137.743236 67.299572 
L 139.329156 68.052307 
L 140.915077 69.095071 
L 142.183813 70.165074 
L 143.45255 71.481518 
L 144.721286 73.101404 
L 145.990023 75.126435 
L 146.941575 77.030856 
L 147.893127 79.483301 
L 148.527495 81.697187 
L 148.84468 83.177429 
L 149.161864 85.328099 
L 149.479048 85.427836 
L 150.113416 81.803598 
L 150.747784 79.634041 
L 151.699337 77.256515 
L 152.650889 75.430153 
L 153.919625 73.511078 
L 155.188362 71.998167 
L 156.457098 70.78924 
L 158.043019 69.620663 
L 159.628939 68.773617 
L 161.21486 68.210948 
L 162.80078 67.912516 
L 164.386701 67.870268 
L 165.972622 68.086502 
L 167.558542 68.574345 
L 168.827279 69.177659 
L 170.096015 69.994514 
L 171.364751 71.06093 
L 172.633488 72.436065 
L 173.902224 74.226364 
L 174.853777 75.968684 
L 175.805329 78.290615 
L 176.439697 80.475898 
L 176.756881 82.01216 
L 177.074066 84.56653 
L 178.025618 80.472403 
L 178.659986 78.954844 
L 179.294354 77.898644 
L 180.245907 76.802083 
L 181.197459 76.08369 
L 182.149011 75.630589 
L 183.100564 75.381911 
L 184.3693 75.306163 
L 185.638037 75.474149 
L 186.906773 75.852015 
L 188.492694 76.587467 
L 190.078614 77.592553 
L 191.664535 78.855386 
L 193.250455 80.374758 
L 194.836376 82.159881 
L 196.422296 84.2324 
L 198.008217 86.631781 
L 199.594137 89.427841 
L 201.180058 92.752699 
L 202.448794 95.981323 
L 203.400347 98.965485 
L 204.034715 101.460123 
L 204.669083 104.978399 
L 204.986267 108.316692 
L 205.303451 105.003182 
L 205.93782 102.029558 
L 206.889372 99.1904 
L 207.840924 97.112515 
L 209.109661 94.970263 
L 210.378397 93.291924 
L 211.647134 91.947175 
L 213.233054 90.632258 
L 214.818975 89.654055 
L 216.404895 88.968842 
L 217.990816 88.552281 
L 219.576736 88.393129 
L 221.162657 88.490749 
L 222.748578 88.854975 
L 224.017314 89.352863 
L 225.28605 90.054873 
L 226.554787 90.991515 
L 227.823523 92.211902 
L 229.09226 93.800971 
L 229.09226 93.800971 
" clip-path="url(#pfbc23b52d8)" style="fill: none; stroke-dasharray: 1.4,2.31; stroke-dashoffset: 0; stroke: #ff0000; stroke-width: 1.4"/>
   </g>
   <g id="line2d_15">
    <path d="M 43.539555 115.552335 
L 44.808291 115.278784 
L 46.077027 114.745274 
L 47.345764 113.991728 
L 48.931684 112.777858 
L 50.517605 111.28881 
L 52.42071 109.159367 
L 54.323814 106.660374 
L 56.226919 103.775352 
L 58.130024 100.460638 
L 60.033128 96.628222 
L 61.619049 92.913379 
L 62.887785 89.447997 
L 64.156522 85.251867 
L 65.108074 81.093832 
L 65.425258 79.2249 
L 65.742442 76.5259 
L 66.059626 77.315215 
L 66.693995 80.909414 
L 67.645547 84.194444 
L 68.597099 86.630014 
L 69.865836 89.208844 
L 71.134572 91.30441 
L 72.720493 93.450809 
L 74.306413 95.194667 
L 75.892334 96.608407 
L 77.478254 97.732905 
L 79.064175 98.590705 
L 80.650096 99.191708 
L 82.236016 99.535335 
L 83.821937 99.61041 
L 85.090673 99.461387 
L 86.35941 99.104518 
L 87.628146 98.507139 
L 88.896882 97.61626 
L 89.848435 96.702158 
L 90.799987 95.50311 
L 91.751539 93.885586 
L 92.385908 92.429725 
L 93.020276 90.384583 
L 93.33746 88.867368 
L 93.654644 85.877963 
L 93.971828 88.683491 
L 94.606196 91.702671 
L 95.240565 93.678882 
L 96.192117 95.878847 
L 97.143669 97.571459 
L 98.412406 99.339037 
L 99.681142 100.715206 
L 100.949879 101.79526 
L 102.218615 102.633236 
L 103.804536 103.389708 
L 105.390456 103.858613 
L 106.976377 104.061679 
L 108.562297 104.008185 
L 110.148218 103.696979 
L 111.734139 103.116243 
L 113.002875 102.441295 
L 114.271611 101.556662 
L 115.540348 100.428604 
L 116.809084 99.002172 
L 118.077821 97.180122 
L 119.029373 95.440966 
L 119.980925 93.1823 
L 120.615294 91.146869 
L 120.932478 89.808398 
L 121.566846 86.175449 
L 121.88403 88.870559 
L 122.518398 91.75365 
L 123.469951 94.591325 
L 124.421503 96.697719 
L 125.690239 98.892526 
L 126.958976 100.630572 
L 128.227712 102.038596 
L 129.813633 103.435388 
L 131.399553 104.497257 
L 132.985474 105.267152 
L 134.571395 105.76893 
L 136.157315 106.013475 
L 137.743236 106.001103 
L 139.329156 105.721627 
L 140.597893 105.290875 
L 141.866629 104.655038 
L 143.135366 103.783055 
L 144.404102 102.62482 
L 145.672838 101.093348 
L 146.624391 99.601878 
L 147.575943 97.65263 
L 148.210311 95.920244 
L 148.84468 93.436063 
L 149.161864 91.380045 
L 149.479048 91.309648 
L 150.113416 94.854074 
L 150.747784 96.943819 
L 151.699337 99.201626 
L 152.650889 100.90827 
L 153.919625 102.66772 
L 155.188362 104.021006 
L 156.457098 105.070308 
L 157.725835 105.872851 
L 159.311755 106.581015 
L 160.897676 106.998971 
L 162.483596 107.149728 
L 164.069517 107.043541 
L 165.655437 106.680152 
L 167.241358 106.048744 
L 168.827279 105.12555 
L 170.096015 104.149069 
L 171.364751 102.923029 
L 172.633488 101.388269 
L 173.902224 99.438346 
L 174.853777 97.576307 
L 175.805329 95.134658 
L 176.439697 92.869562 
L 176.756881 91.293394 
L 177.074066 88.699117 
L 178.342802 95.568651 
L 179.294354 98.857503 
L 180.563091 102.297413 
L 181.831827 105.137688 
L 183.417748 108.142945 
L 185.003668 110.704688 
L 186.906773 113.318409 
L 188.809878 115.506533 
L 190.712982 117.310512 
L 192.298903 118.531792 
L 193.884823 119.494157 
L 195.470744 120.183808 
L 196.73948 120.521085 
L 198.008217 120.642797 
L 199.276953 120.511721 
L 200.228506 120.212037 
L 201.180058 119.694494 
L 202.13161 118.888199 
L 202.765979 118.127619 
L 203.400347 117.102539 
L 204.034715 115.642424 
L 204.351899 114.615677 
L 204.669083 113.158672 
L 204.986267 110.310762 
L 205.303451 113.567003 
L 205.93782 116.42609 
L 206.572188 118.318992 
L 207.52374 120.420854 
L 208.475293 122.026482 
L 209.744029 123.685111 
L 211.012765 124.956264 
L 212.281502 125.933419 
L 213.550238 126.669764 
L 215.136159 127.300285 
L 216.722079 127.643956 
L 218.308 127.722151 
L 219.893921 127.543879 
L 221.479841 127.107739 
L 223.065762 126.401627 
L 224.651682 125.400038 
L 225.920419 124.356368 
L 227.189155 123.056567 
L 228.457892 121.436831 
L 229.09226 120.474074 
L 229.09226 120.474074 
" clip-path="url(#pfbc23b52d8)" style="fill: none; stroke-dasharray: 1.4,2.31; stroke-dashoffset: 0; stroke: #ff0000; stroke-width: 1.4"/>
   </g>
   <g id="line2d_16">
    <path d="M 42.929716 102.256448 
L 43.857481 98.800329 
L 44.785245 103.229657 
L 45.71301 98.473105 
L 46.640774 97.247446 
L 47.568539 90.474806 
L 48.496303 91.529439 
L 49.424068 90.444466 
L 50.351832 85.507768 
L 51.279596 89.840002 
L 52.207361 86.498995 
L 53.135125 88.493751 
L 54.06289 88.034815 
L 54.990654 88.996828 
L 55.918419 91.323937 
L 56.846183 87.654938 
L 57.773948 86.5419 
L 58.701712 88.946644 
L 59.629477 90.549178 
L 60.557241 86.092343 
L 61.485005 85.669445 
L 62.41277 76.355937 
L 63.340534 77.475031 
L 64.268299 74.415937 
L 65.196063 72.020197 
L 66.123828 77.339232 
L 67.051592 76.140178 
L 67.979357 80.140305 
L 68.907121 73.335792 
L 69.834886 80.594414 
L 70.76265 78.16793 
L 71.690414 73.116963 
L 72.618179 78.602013 
L 73.545943 76.821805 
L 74.473708 70.459968 
L 75.401472 71.505429 
L 76.329237 73.225405 
L 77.257001 69.65716 
L 78.184766 72.695808 
L 79.11253 70.557188 
L 80.040295 70.890556 
L 80.968059 80.625977 
L 81.895823 78.671682 
L 82.823588 81.65802 
L 83.751352 82.421553 
L 84.679117 89.283677 
L 85.606881 86.634679 
L 86.534646 91.321114 
L 88.390175 83.223357 
L 90.245704 76.141433 
L 91.173468 75.066729 
L 92.101232 76.221914 
L 93.028997 80.91835 
L 93.956761 88.212706 
L 94.884526 80.879443 
L 95.81229 81.404536 
L 96.740055 86.357309 
L 97.667819 88.690605 
L 98.595584 91.457541 
L 99.523348 86.604069 
L 100.451113 86.098704 
L 101.378877 83.573079 
L 102.306641 85.860663 
L 103.234406 79.276622 
L 104.16217 75.367803 
L 105.089935 75.085754 
L 106.017699 74.544251 
L 106.945464 76.99929 
L 108.800993 78.431002 
L 109.728757 74.290963 
L 110.656522 69.089757 
L 111.584286 71.692332 
L 112.51205 77.337085 
L 113.439815 76.863481 
L 114.367579 75.510963 
L 115.295344 80.547769 
L 116.223108 75.136719 
L 117.150873 79.26779 
L 118.078637 85.015902 
L 119.006402 83.47598 
L 119.934166 84.404827 
L 120.861931 82.212261 
L 121.789695 85.658388 
L 122.717459 94.281125 
L 123.645224 91.85853 
L 124.572988 94.048237 
L 125.500753 93.855605 
L 126.428517 96.340657 
L 127.356282 91.516291 
L 128.284046 88.877359 
L 129.211811 93.464476 
L 130.139575 95.951312 
L 131.06734 95.403686 
L 131.995104 90.299196 
L 132.922868 89.72608 
L 133.850633 96.797667 
L 134.778397 95.302118 
L 135.706162 97.357952 
L 136.633926 97.012072 
L 137.561691 95.025052 
L 138.489455 96.323244 
L 139.41722 94.004527 
L 141.272749 84.952575 
L 142.200513 85.170706 
L 143.128277 87.556436 
L 144.056042 88.274468 
L 144.983806 85.790035 
L 145.911571 85.407485 
L 146.839335 84.577228 
L 147.7671 86.25831 
L 148.694864 89.355653 
L 149.622629 92.036837 
L 150.550393 92.253258 
L 151.478158 92.606725 
L 152.405922 90.125105 
L 153.333686 88.787458 
L 154.261451 91.703405 
L 155.189215 88.69929 
L 156.11698 93.18993 
L 157.044744 98.92151 
L 157.972509 95.929113 
L 158.900273 92.322588 
L 159.828038 91.530271 
L 160.755802 86.627289 
L 161.683567 91.629758 
L 162.611331 90.193516 
L 163.539095 91.817964 
L 164.46686 93.730881 
L 165.394624 95.900574 
L 166.322389 89.200189 
L 167.250153 87.940933 
L 168.177918 87.345088 
L 170.033447 76.299081 
L 171.888976 80.920953 
L 172.81674 81.733389 
L 173.744504 83.80629 
L 174.672269 88.031335 
L 175.600033 86.270483 
L 176.527798 89.913199 
L 177.455562 84.615251 
L 178.383327 86.714424 
L 179.311091 84.430912 
L 180.238856 85.968058 
L 181.16662 84.105413 
L 183.022149 90.696503 
L 183.949913 91.414809 
L 184.877678 89.815511 
L 185.805442 90.043748 
L 186.733207 93.781176 
L 187.660971 92.86189 
L 188.588736 86.254562 
L 189.5165 88.337577 
L 190.444265 92.965612 
L 191.372029 92.52311 
L 192.299794 89.560241 
L 193.227558 98.032249 
L 194.155322 98.667622 
L 195.083087 102.696864 
L 196.010851 102.35496 
L 196.938616 107.622914 
L 197.86638 103.049501 
L 198.794145 105.756812 
L 199.721909 106.07081 
L 200.649674 109.073662 
L 201.577438 111.514297 
L 202.505203 114.372025 
L 203.432967 107.209841 
L 204.360731 112.758105 
L 205.288496 106.12742 
L 206.21626 103.39729 
L 207.144025 105.193058 
L 208.071789 100.31802 
L 208.999554 102.740222 
L 209.927318 101.74372 
L 210.855083 107.286357 
L 211.782847 96.2863 
L 212.710612 94.962419 
L 213.638376 92.224794 
L 214.56614 95.939099 
L 215.493905 96.178316 
L 216.421669 101.243059 
L 217.349434 100.085431 
L 219.204963 105.458113 
L 221.060492 99.116517 
L 221.988256 102.274814 
L 222.916021 106.801787 
L 223.843785 104.028195 
L 224.771549 100.785572 
L 226.627078 103.887511 
L 227.554843 104.25051 
L 228.482607 102.467948 
L 229.410372 102.097846 
L 229.410372 102.097846 
" clip-path="url(#pfbc23b52d8)" style="fill: none; stroke: #1f77b4; stroke-width: 0.5; stroke-linecap: square"/>
   </g>
   <g id="line2d_17">
    <path d="M 42.929716 108.288955 
L 43.857481 103.924965 
L 44.785245 103.887758 
L 45.71301 99.100517 
L 46.640774 91.429989 
L 47.568539 85.280703 
L 48.496303 85.955529 
L 49.424068 86.97332 
L 50.351832 83.928808 
L 51.279596 80.02323 
L 52.207361 79.717454 
L 53.135125 82.230576 
L 54.06289 87.287257 
L 54.990654 84.779862 
L 55.918419 81.161352 
L 56.846183 78.6356 
L 57.773948 81.995322 
L 58.701712 82.086754 
L 59.629477 77.759898 
L 60.557241 79.261829 
L 62.41277 76.195679 
L 63.340534 73.924939 
L 64.268299 73.174555 
L 65.196063 72.743616 
L 66.123828 69.86488 
L 67.051592 70.463737 
L 67.979357 74.034169 
L 68.907121 72.456446 
L 69.834886 71.345802 
L 70.76265 69.889593 
L 71.690414 69.04821 
L 72.618179 77.509914 
L 73.545943 75.984173 
L 74.473708 69.49027 
L 75.401472 71.849628 
L 76.329237 73.10072 
L 77.257001 70.27985 
L 78.184766 66.800203 
L 80.968059 76.004416 
L 81.895823 80.062497 
L 82.823588 80.213957 
L 85.606881 72.499956 
L 87.46241 80.081599 
L 88.390175 82.109754 
L 89.317939 83.182639 
L 90.245704 77.873943 
L 91.173468 76.905509 
L 92.101232 78.263941 
L 93.028997 78.721459 
L 93.956761 85.659999 
L 94.884526 88.83254 
L 95.81229 87.256876 
L 96.740055 85.133381 
L 97.667819 76.537647 
L 98.595584 76.49658 
L 99.523348 80.538468 
L 100.451113 76.585 
L 101.378877 74.132725 
L 102.306641 67.280181 
L 103.234406 62.707919 
L 104.16217 63.554511 
L 105.089935 60.451539 
L 106.017699 60.458966 
L 106.945464 63.512898 
L 107.873228 61.715078 
L 108.800993 69.851658 
L 110.656522 75.593441 
L 111.584286 74.052584 
L 112.51205 76.726195 
L 113.439815 81.680469 
L 114.367579 83.261109 
L 115.295344 82.711507 
L 116.223108 82.000041 
L 117.150873 78.827746 
L 118.078637 84.083378 
L 119.006402 79.82919 
L 119.934166 82.11904 
L 120.861931 82.469259 
L 121.789695 88.855217 
L 122.717459 87.664433 
L 123.645224 88.890463 
L 124.572988 88.375138 
L 125.500753 84.978224 
L 126.428517 88.368563 
L 127.356282 94.379732 
L 128.284046 94.609661 
L 129.211811 103.107057 
L 130.139575 97.540663 
L 131.06734 99.454403 
L 131.995104 93.87515 
L 133.850633 91.245774 
L 134.778397 84.877393 
L 135.706162 87.94976 
L 136.633926 93.087316 
L 137.561691 92.617346 
L 138.489455 96.260328 
L 139.41722 92.527512 
L 140.344984 97.064113 
L 141.272749 99.170532 
L 142.200513 97.96134 
L 143.128277 95.971776 
L 144.056042 94.557118 
L 144.983806 94.043768 
L 145.911571 87.925103 
L 146.839335 89.93709 
L 147.7671 88.18244 
L 148.694864 86.031459 
L 149.622629 88.765889 
L 150.550393 88.681634 
L 151.478158 86.595004 
L 152.405922 86.890703 
L 153.333686 91.199744 
L 154.261451 97.724431 
L 156.11698 104.284543 
L 157.044744 103.045894 
L 157.972509 99.031971 
L 158.900273 101.348035 
L 159.828038 100.953546 
L 160.755802 105.638886 
L 161.683567 101.778784 
L 162.611331 103.487287 
L 163.539095 108.159124 
L 164.46686 106.898528 
L 166.322389 101.897025 
L 167.250153 104.812932 
L 168.177918 104.622508 
L 169.105682 106.495133 
L 170.033447 104.661388 
L 170.961211 95.156455 
L 171.888976 96.109969 
L 172.81674 96.810054 
L 174.672269 84.217736 
L 175.600033 87.875282 
L 176.527798 87.844879 
L 178.383327 97.75028 
L 179.311091 98.473452 
L 180.238856 100.356828 
L 181.16662 110.070796 
L 182.094385 106.492582 
L 183.022149 100.181707 
L 183.949913 98.427036 
L 184.877678 105.580862 
L 185.805442 108.032985 
L 186.733207 104.251276 
L 187.660971 97.634609 
L 189.5165 102.528489 
L 190.444265 101.85431 
L 191.372029 100.236072 
L 192.299794 103.56195 
L 193.227558 107.976063 
L 196.010851 114.591126 
L 196.938616 119.743001 
L 197.86638 119.486443 
L 198.794145 117.088707 
L 199.721909 112.89098 
L 200.649674 111.433421 
L 203.432967 105.59292 
L 204.360731 109.420619 
L 205.288496 109.917789 
L 206.21626 110.593354 
L 207.144025 113.064249 
L 208.071789 105.920236 
L 208.999554 106.180401 
L 209.927318 109.051944 
L 210.855083 111.531886 
L 211.782847 114.476974 
L 212.710612 116.667331 
L 213.638376 108.885501 
L 214.56614 104.731545 
L 215.493905 105.098029 
L 216.421669 106.520692 
L 217.349434 108.829309 
L 218.277198 101.451752 
L 219.204963 96.465098 
L 220.132727 99.232771 
L 221.060492 101.228063 
L 221.988256 101.216384 
L 222.916021 97.856967 
L 223.843785 98.575408 
L 224.771549 98.935144 
L 225.699314 100.974758 
L 226.627078 100.582958 
L 227.554843 99.816637 
L 228.482607 107.168296 
L 229.410372 102.960028 
L 229.410372 102.960028 
" clip-path="url(#pfbc23b52d8)" style="fill: none; stroke: #ff7f0e; stroke-width: 0.5; stroke-linecap: square"/>
   </g>
   <g id="line2d_18">
    <path d="M 42.929716 106.890442 
L 43.857481 106.906799 
L 44.785245 100.924828 
L 45.71301 107.101508 
L 46.640774 111.129736 
L 47.568539 114.100806 
L 48.496303 108.168837 
L 49.424068 108.712542 
L 50.351832 108.428502 
L 51.279596 104.222778 
L 52.207361 104.113713 
L 53.135125 104.551248 
L 54.06289 101.009333 
L 54.990654 96.030862 
L 55.918419 101.659212 
L 56.846183 99.384167 
L 57.773948 93.877569 
L 58.701712 99.220874 
L 59.629477 89.594722 
L 60.557241 84.43525 
L 61.485005 83.757202 
L 62.41277 84.178593 
L 64.268299 73.679817 
L 65.196063 73.238637 
L 66.123828 72.13843 
L 67.051592 67.672543 
L 67.979357 71.260784 
L 68.907121 70.673767 
L 69.834886 73.653738 
L 70.76265 70.924755 
L 71.690414 71.816777 
L 72.618179 72.934673 
L 73.545943 73.393217 
L 74.473708 79.639377 
L 75.401472 83.848336 
L 77.257001 83.575906 
L 78.184766 81.339688 
L 79.11253 82.146264 
L 80.040295 78.182365 
L 80.968059 79.459497 
L 81.895823 87.360844 
L 82.823588 90.350528 
L 83.751352 92.284765 
L 84.679117 92.098118 
L 85.606881 88.731356 
L 86.534646 89.840603 
L 87.46241 87.252236 
L 88.390175 93.224581 
L 89.317939 93.98119 
L 90.245704 93.601969 
L 91.173468 90.935466 
L 92.101232 91.160171 
L 93.028997 86.236315 
L 93.956761 84.829611 
L 94.884526 83.021905 
L 95.81229 82.294445 
L 96.740055 87.291481 
L 97.667819 91.272766 
L 98.595584 89.828954 
L 100.451113 83.671505 
L 101.378877 86.682369 
L 102.306641 88.214081 
L 103.234406 88.757637 
L 104.16217 84.242243 
L 105.089935 84.919455 
L 106.017699 83.746726 
L 106.945464 84.375706 
L 107.873228 81.747731 
L 108.800993 77.925108 
L 109.728757 82.797067 
L 110.656522 83.383653 
L 111.584286 83.638559 
L 112.51205 74.404216 
L 113.439815 80.788345 
L 114.367579 83.070366 
L 115.295344 80.291221 
L 116.223108 84.574677 
L 117.150873 85.750576 
L 118.078637 83.208366 
L 119.006402 81.011839 
L 119.934166 80.934912 
L 120.861931 84.412422 
L 121.789695 83.43978 
L 122.717459 85.722044 
L 123.645224 83.964952 
L 124.572988 78.773783 
L 125.500753 80.869276 
L 126.428517 87.25211 
L 127.356282 90.496208 
L 128.284046 92.50718 
L 129.211811 90.307375 
L 130.139575 93.556661 
L 131.06734 84.572421 
L 131.995104 81.678673 
L 132.922868 79.638313 
L 133.850633 82.081798 
L 134.778397 81.102603 
L 135.706162 85.014508 
L 136.633926 91.324709 
L 137.561691 93.357809 
L 138.489455 91.028282 
L 139.41722 89.503981 
L 140.344984 88.515369 
L 141.272749 82.68856 
L 142.200513 81.357212 
L 143.128277 76.717812 
L 144.056042 75.287779 
L 144.983806 76.621195 
L 145.911571 77.015192 
L 146.839335 81.958179 
L 147.7671 83.671419 
L 148.694864 86.386955 
L 149.622629 87.334621 
L 150.550393 82.438323 
L 151.478158 79.480502 
L 152.405922 77.985616 
L 153.333686 78.206105 
L 154.261451 78.119105 
L 155.189215 71.947888 
L 156.11698 73.604312 
L 157.044744 72.633275 
L 157.972509 73.62407 
L 158.900273 71.230222 
L 159.828038 71.054511 
L 160.755802 66.870981 
L 161.683567 69.198141 
L 162.611331 70.903472 
L 163.539095 70.697661 
L 164.46686 65.073885 
L 165.394624 61.232501 
L 166.322389 63.199327 
L 167.250153 62.245811 
L 168.177918 68.692139 
L 169.105682 66.898737 
L 170.033447 71.286434 
L 170.961211 72.004609 
L 171.888976 70.606165 
L 172.81674 64.09159 
L 173.744504 70.279585 
L 174.672269 72.158115 
L 176.527798 77.104731 
L 177.455562 88.292797 
L 178.383327 85.61279 
L 179.311091 83.619467 
L 180.238856 78.991292 
L 181.16662 80.304592 
L 182.094385 78.031378 
L 183.022149 83.152466 
L 183.949913 80.631179 
L 184.877678 81.02071 
L 185.805442 83.358275 
L 186.733207 87.004131 
L 187.660971 80.814434 
L 189.5165 86.474828 
L 190.444265 85.111021 
L 191.372029 88.05474 
L 192.299794 89.099778 
L 194.155322 81.632977 
L 195.083087 85.654289 
L 196.010851 86.846144 
L 196.938616 92.851039 
L 197.86638 96.154106 
L 198.794145 94.86938 
L 199.721909 100.979873 
L 200.649674 108.77795 
L 201.577438 108.438039 
L 202.505203 110.847235 
L 203.432967 108.357783 
L 204.360731 107.338492 
L 206.21626 118.1252 
L 207.144025 116.761948 
L 208.071789 116.701945 
L 208.999554 112.115018 
L 209.927318 112.502 
L 210.855083 115.075656 
L 211.782847 113.202334 
L 212.710612 112.879156 
L 213.638376 109.937315 
L 214.56614 108.500561 
L 215.493905 116.219833 
L 216.421669 122.418245 
L 217.349434 119.056049 
L 218.277198 114.436647 
L 219.204963 119.701129 
L 220.132727 119.727826 
L 221.060492 114.853571 
L 221.988256 117.33922 
L 222.916021 115.283519 
L 223.843785 115.256865 
L 224.771549 113.669665 
L 225.699314 107.497825 
L 226.627078 106.624284 
L 227.554843 107.500646 
L 228.482607 115.805376 
L 229.410372 107.548067 
L 229.410372 107.548067 
" clip-path="url(#pfbc23b52d8)" style="fill: none; stroke: #2ca02c; stroke-width: 0.5; stroke-linecap: square"/>
   </g>
   <g id="line2d_19">
    <path d="M 42.929716 107.047019 
L 43.857481 103.222094 
L 45.71301 100.321966 
L 46.640774 97.236663 
L 47.568539 100.719121 
L 48.496303 99.269525 
L 49.424068 99.055356 
L 50.351832 101.682846 
L 51.279596 98.188729 
L 53.135125 98.677241 
L 54.990654 89.214581 
L 55.918419 74.083488 
L 56.846183 71.938326 
L 57.773948 73.786374 
L 58.701712 77.904715 
L 59.629477 76.197995 
L 60.557241 80.071195 
L 61.485005 78.403242 
L 62.41277 70.928657 
L 63.340534 67.835624 
L 64.268299 66.274211 
L 65.196063 70.998308 
L 66.123828 68.92967 
L 67.051592 64.297709 
L 67.979357 65.322165 
L 68.907121 61.61631 
L 69.834886 66.200235 
L 70.76265 66.82775 
L 71.690414 68.476534 
L 72.618179 72.647459 
L 73.545943 71.896389 
L 75.401472 68.612503 
L 76.329237 70.467376 
L 77.257001 70.995185 
L 78.184766 71.362819 
L 79.11253 64.541302 
L 80.040295 68.197883 
L 80.968059 60.600835 
L 81.895823 58.887393 
L 83.751352 64.736236 
L 84.679117 66.314505 
L 85.606881 71.268224 
L 86.534646 70.084268 
L 87.46241 72.545845 
L 88.390175 72.068705 
L 89.317939 72.109138 
L 90.245704 74.372768 
L 92.101232 76.937275 
L 93.028997 79.263901 
L 93.956761 84.365185 
L 95.81229 87.874714 
L 96.740055 88.399684 
L 97.667819 85.371788 
L 98.595584 85.642643 
L 99.523348 86.549754 
L 100.451113 80.666269 
L 101.378877 77.791355 
L 102.306641 77.004328 
L 103.234406 77.927552 
L 104.16217 75.749147 
L 105.089935 74.045468 
L 106.017699 75.024496 
L 106.945464 68.954527 
L 107.873228 68.711561 
L 109.728757 71.403558 
L 110.656522 70.929628 
L 111.584286 70.903274 
L 112.51205 66.88593 
L 113.439815 66.472651 
L 115.295344 82.558036 
L 116.223108 83.980046 
L 117.150873 83.417456 
L 118.078637 81.842621 
L 119.006402 85.605639 
L 119.934166 84.165312 
L 120.861931 86.625085 
L 121.789695 81.597853 
L 122.717459 77.591386 
L 123.645224 76.155247 
L 124.572988 74.428814 
L 125.500753 72.305991 
L 126.428517 71.342055 
L 128.284046 75.524513 
L 129.211811 74.461411 
L 130.139575 71.45833 
L 131.06734 73.198801 
L 131.995104 75.274802 
L 132.922868 79.682381 
L 133.850633 83.06357 
L 135.706162 68.313983 
L 137.561691 82.48619 
L 138.489455 86.336748 
L 139.41722 79.53988 
L 141.272749 86.944707 
L 142.200513 84.216212 
L 143.128277 88.270319 
L 144.056042 85.367097 
L 144.983806 87.217601 
L 145.911571 87.17849 
L 146.839335 88.379678 
L 147.7671 87.960629 
L 148.694864 87.903203 
L 149.622629 86.689417 
L 151.478158 78.720793 
L 152.405922 79.518941 
L 153.333686 81.990164 
L 154.261451 77.86253 
L 155.189215 76.838453 
L 157.044744 66.292056 
L 157.972509 63.090334 
L 158.900273 65.274596 
L 159.828038 69.251494 
L 160.755802 72.008868 
L 161.683567 63.618151 
L 162.611331 69.141677 
L 163.539095 71.752769 
L 164.46686 78.158342 
L 165.394624 79.014857 
L 166.322389 82.567957 
L 167.250153 82.95818 
L 168.177918 85.715306 
L 169.105682 87.801251 
L 170.033447 82.441362 
L 170.961211 85.821078 
L 173.744504 79.6823 
L 174.672269 82.121235 
L 175.600033 82.99014 
L 176.527798 84.805575 
L 177.455562 87.497197 
L 178.383327 89.378497 
L 180.238856 86.604279 
L 181.16662 88.257844 
L 182.094385 87.187269 
L 183.022149 84.893975 
L 183.949913 76.082269 
L 184.877678 71.890285 
L 185.805442 69.914256 
L 186.733207 72.022659 
L 187.660971 75.384354 
L 188.588736 76.133868 
L 189.5165 81.795554 
L 190.444265 84.575597 
L 191.372029 89.584478 
L 192.299794 84.968359 
L 193.227558 85.120787 
L 194.155322 89.749143 
L 196.010851 97.829556 
L 196.938616 105.399927 
L 197.86638 107.700812 
L 198.794145 102.896397 
L 199.721909 105.670233 
L 200.649674 106.818644 
L 201.577438 107.633312 
L 202.505203 106.435324 
L 203.432967 110.117078 
L 204.360731 114.563259 
L 205.288496 108.37948 
L 206.21626 106.301521 
L 207.144025 108.778209 
L 208.071789 106.689782 
L 208.999554 101.721391 
L 209.927318 101.277335 
L 210.855083 108.640279 
L 211.782847 104.825249 
L 212.710612 107.568613 
L 213.638376 107.546484 
L 214.56614 110.132983 
L 215.493905 107.280863 
L 216.421669 106.268446 
L 217.349434 100.41731 
L 218.277198 92.533813 
L 219.204963 96.048898 
L 220.132727 96.293569 
L 221.060492 97.034869 
L 221.988256 97.324114 
L 222.916021 99.910038 
L 223.843785 99.588702 
L 224.771549 99.876907 
L 225.699314 99.307307 
L 226.627078 103.846848 
L 227.554843 107.191373 
L 228.482607 105.021081 
L 229.410372 99.868754 
L 229.410372 99.868754 
" clip-path="url(#pfbc23b52d8)" style="fill: none; stroke: #d62728; stroke-width: 0.5; stroke-linecap: square"/>
   </g>
   <g id="patch_3">
    <path d="M 43.597056 139.988242 
L 43.597056 12.641765 
" style="fill: none; stroke: #000000; stroke-width: 0.8; stroke-linejoin: miter; stroke-linecap: square"/>
   </g>
   <g id="patch_4">
    <path d="M 229.08484 139.988242 
L 229.08484 12.641765 
" style="fill: none; stroke: #000000; stroke-width: 0.8; stroke-linejoin: miter; stroke-linecap: square"/>
   </g>
   <g id="patch_5">
    <path d="M 43.597056 139.988242 
L 229.08484 139.988242 
" style="fill: none; stroke: #000000; stroke-width: 0.8; stroke-linejoin: miter; stroke-linecap: square"/>
   </g>
   <g id="patch_6">
    <path d="M 43.597056 12.641765 
L 229.08484 12.641765 
" style="fill: none; stroke: #000000; stroke-width: 0.8; stroke-linejoin: miter; stroke-linecap: square"/>
   </g>
   <g id="text_16">
    <!-- Model: $Brown$ -->
    <g transform="translate(104.104459 6.641765) scale(0.096 -0.096)">
     <defs>
      <path id="CMR17-4d" d="M 1338 4224 
C 1299 4320 1293 4320 1158 4320 
L 339 4320 
L 339 4160 
C 781 4160 851 4160 851 3875 
L 851 610 
C 851 451 851 153 339 153 
L 339 -13 
C 486 0 755 0 915 0 
C 1075 0 1344 0 1491 -13 
L 1491 153 
C 979 153 979 451 979 610 
L 979 4135 
L 986 4135 
L 2490 89 
C 2515 25 2528 -13 2579 -13 
C 2630 -13 2643 25 2669 89 
L 4186 4166 
L 4192 4166 
L 4192 438 
C 4192 153 4122 153 3680 153 
L 3680 -13 
C 3853 0 4198 0 4384 0 
C 4570 0 4922 0 5094 -13 
L 5094 153 
C 4653 153 4582 153 4582 438 
L 4582 3875 
C 4582 4160 4653 4160 5094 4160 
L 5094 4320 
L 4282 4320 
C 4147 4320 4141 4314 4102 4218 
L 2720 502 
L 1338 4224 
z
" transform="scale(0.015625)"/>
      <path id="CMR17-6f" d="M 2758 1356 
C 2758 2176 2163 2816 1466 2816 
C 768 2816 173 2176 173 1356 
C 173 551 768 -64 1466 -64 
C 2163 -64 2758 551 2758 1356 
z
M 1466 51 
C 1165 51 909 230 762 480 
C 602 767 582 1126 582 1408 
C 582 1677 595 2010 762 2298 
C 890 2509 1139 2714 1466 2714 
C 1754 2714 1997 2554 2150 2330 
C 2349 2029 2349 1607 2349 1408 
C 2349 1158 2336 775 2163 467 
C 1984 173 1709 51 1466 51 
z
" transform="scale(0.015625)"/>
      <path id="CMR17-64" d="M 1869 4326 
L 1869 4160 
C 2246 4160 2304 4122 2304 3820 
L 2304 2345 
C 2278 2377 2016 2790 1498 2790 
C 845 2790 211 2208 211 1364 
C 211 525 806 -64 1434 -64 
C 1978 -64 2259 337 2291 380 
L 2291 -63 
L 3066 -63 
L 3066 128 
C 2688 128 2630 166 2630 473 
L 2630 4396 
L 1869 4326 
z
M 2291 755 
C 2291 563 2176 390 2029 262 
C 1811 70 1594 38 1472 38 
C 1286 38 621 134 621 1356 
C 621 2612 1363 2688 1530 2688 
C 1824 2688 2061 2522 2208 2291 
C 2291 2157 2291 2138 2291 2023 
L 2291 755 
z
" transform="scale(0.015625)"/>
      <path id="CMR17-3a" d="M 1062 2491 
C 1062 2650 934 2752 800 2752 
C 672 2752 538 2650 538 2491 
C 538 2332 666 2230 800 2230 
C 928 2230 1062 2332 1062 2491 
z
M 1062 261 
C 1062 420 934 522 800 522 
C 672 522 538 420 538 261 
C 538 102 666 0 800 0 
C 928 0 1062 102 1062 261 
z
" transform="scale(0.015625)"/>
      <path id="CMMI12-42" d="M 2342 3921 
C 2400 4160 2426 4160 2675 4160 
L 3507 4160 
C 4230 4160 4230 3544 4230 3485 
C 4230 2966 3712 2304 2867 2304 
L 1946 2304 
L 2342 3921 
z
M 3424 2275 
C 4122 2402 4755 2886 4755 3473 
C 4755 3970 4314 4352 3590 4352 
L 1536 4352 
C 1414 4352 1357 4352 1357 4226 
C 1357 4160 1414 4160 1510 4160 
C 1901 4160 1901 4112 1901 4044 
C 1901 4032 1901 3993 1875 3897 
L 1011 472 
C 954 249 941 185 493 185 
C 371 185 307 185 307 70 
C 307 0 346 0 474 0 
L 2669 0 
C 3648 0 4403 739 4403 1383 
C 4403 1906 3942 2224 3424 2275 
z
M 2515 185 
L 1651 185 
C 1562 185 1549 185 1510 192 
C 1440 198 1434 211 1434 261 
C 1434 305 1446 343 1459 399 
L 1907 2176 
L 3110 2176 
C 3866 2176 3866 1483 3866 1433 
C 3866 828 3309 185 2515 185 
z
" transform="scale(0.015625)"/>
      <path id="CMMI12-72" d="M 2490 2612 
C 2291 2574 2189 2433 2189 2293 
C 2189 2139 2310 2088 2400 2088 
C 2579 2088 2726 2242 2726 2433 
C 2726 2638 2528 2816 2208 2816 
C 1952 2816 1658 2701 1389 2312 
C 1344 2650 1088 2816 832 2816 
C 582 2816 454 2625 378 2484 
C 269 2254 173 1871 173 1839 
C 173 1814 198 1782 243 1782 
C 294 1782 301 1788 339 1935 
C 435 2318 557 2689 813 2689 
C 966 2689 1011 2580 1011 2395 
C 1011 2254 947 2005 902 1807 
L 723 1118 
C 698 996 627 709 595 594 
C 550 428 480 128 480 96 
C 480 6 550 -64 646 -64 
C 717 -64 838 -19 877 109 
C 896 160 1133 1124 1171 1271 
C 1203 1411 1242 1546 1274 1686 
C 1299 1775 1325 1878 1344 1961 
C 1363 2018 1536 2331 1696 2472 
C 1773 2542 1939 2689 2202 2689 
C 2304 2689 2406 2670 2490 2612 
z
" transform="scale(0.015625)"/>
      <path id="CMMI12-6f" d="M 2918 1756 
C 2918 2363 2522 2816 1939 2816 
C 1094 2816 262 1897 262 996 
C 262 390 659 -64 1242 -64 
C 2093 -64 2918 856 2918 1756 
z
M 1248 64 
C 928 64 691 319 691 766 
C 691 1060 845 1712 1024 2031 
C 1312 2523 1670 2689 1933 2689 
C 2246 2689 2490 2433 2490 1986 
C 2490 1731 2355 1047 2112 658 
C 1850 230 1498 64 1248 64 
z
" transform="scale(0.015625)"/>
      <path id="CMMI12-77" d="M 2202 390 
C 2342 6 2739 -64 2982 -64 
C 3469 -64 3757 358 3936 798 
C 4083 1169 4320 2012 4320 2389 
C 4320 2778 4122 2816 4064 2816 
C 3910 2816 3770 2663 3770 2535 
C 3770 2459 3814 2414 3846 2389 
C 3904 2331 4070 2159 4070 1827 
C 4070 1609 3891 1009 3757 709 
C 3578 319 3341 64 3008 64 
C 2650 64 2534 332 2534 626 
C 2534 811 2592 1035 2618 1143 
L 2886 2216 
C 2918 2344 2976 2567 2976 2593 
C 2976 2689 2899 2753 2803 2753 
C 2618 2753 2573 2593 2534 2440 
C 2470 2191 2202 1111 2176 971 
C 2150 862 2150 792 2150 651 
C 2150 498 1946 255 1939 243 
C 1869 172 1766 64 1568 64 
C 1062 64 1062 543 1062 651 
C 1062 856 1107 1137 1395 1897 
C 1472 2095 1504 2178 1504 2305 
C 1504 2574 1312 2816 998 2816 
C 410 2816 173 1890 173 1839 
C 173 1814 198 1782 243 1782 
C 301 1782 307 1807 333 1896 
C 493 2454 742 2682 979 2682 
C 1043 2682 1146 2682 1146 2478 
C 1146 2446 1146 2312 1037 2031 
C 736 1233 672 971 672 728 
C 672 57 1222 -64 1549 -64 
C 1658 -64 1946 -64 2202 390 
z
" transform="scale(0.015625)"/>
      <path id="CMMI12-6e" d="M 1318 1871 
C 1331 1910 1491 2229 1728 2433 
C 1894 2586 2112 2689 2362 2689 
C 2618 2689 2707 2497 2707 2242 
C 2707 1878 2445 1150 2317 805 
C 2259 651 2227 568 2227 453 
C 2227 166 2426 -64 2733 -64 
C 3328 -64 3552 875 3552 913 
C 3552 945 3526 971 3488 971 
C 3430 971 3424 952 3392 843 
C 3245 319 3002 64 2752 64 
C 2688 64 2586 64 2586 269 
C 2586 429 2656 621 2694 710 
C 2822 1063 3091 1780 3091 2145 
C 3091 2528 2867 2816 2381 2816 
C 1811 2816 1510 2415 1395 2255 
C 1376 2618 1114 2816 832 2816 
C 627 2816 486 2695 378 2478 
C 262 2248 173 1865 173 1839 
C 173 1814 198 1782 243 1782 
C 294 1782 301 1788 339 1935 
C 442 2325 557 2689 813 2689 
C 960 2689 1011 2586 1011 2395 
C 1011 2254 947 2005 902 1807 
L 723 1118 
C 698 996 627 709 595 594 
C 550 428 480 128 480 96 
C 480 6 550 -64 646 -64 
C 723 -64 813 -26 864 70 
C 877 102 934 326 966 453 
L 1107 1028 
L 1318 1871 
z
" transform="scale(0.015625)"/>
     </defs>
     <use xlink:href="#CMR17-4d" transform="scale(0.996264)"/>
     <use xlink:href="#CMR17-6f" transform="translate(84.686941 0) scale(0.996264)"/>
     <use xlink:href="#CMR17-64" transform="translate(132.979856 0) scale(0.996264)"/>
     <use xlink:href="#CMR17-65" transform="translate(183.875226 0) scale(0.996264)"/>
     <use xlink:href="#CMR17-6c" transform="translate(224.360887 0) scale(0.996264)"/>
     <use xlink:href="#CMR17-3a" transform="translate(249.231945 0) scale(0.996264)"/>
     <use xlink:href="#CMMI12-42" transform="translate(314.588664 0) scale(0.996264)"/>
     <use xlink:href="#CMMI12-72" transform="translate(393.724187 0) scale(0.996264)"/>
     <use xlink:href="#CMMI12-6f" transform="translate(440.394799 0) scale(0.996264)"/>
     <use xlink:href="#CMMI12-77" transform="translate(487.290109 0) scale(0.996264)"/>
     <use xlink:href="#CMMI12-6e" transform="translate(559.703024 0) scale(0.996264)"/>
    </g>
   </g>
  </g>
 </g>
 <defs>
  <clipPath id="pfbc23b52d8">
   <rect x="43.597056" y="12.641765" width="185.487785" height="127.346477"/>
  </clipPath>
 </defs>
</svg>
