<?xml version="1.0" encoding="utf-8" standalone="no"?>
<!DOCTYPE svg PUBLIC "-//W3C//DTD SVG 1.1//EN"
  "http://www.w3.org/Graphics/SVG/1.1/DTD/svg11.dtd">
<svg xmlns:xlink="http://www.w3.org/1999/xlink" width="229.08484pt" height="169.028466pt" viewBox="0 0 229.08484 169.028466" xmlns="http://www.w3.org/2000/svg" version="1.1">
 <metadata>
  <rdf:RDF xmlns:dc="http://purl.org/dc/elements/1.1/" xmlns:cc="http://creativecommons.org/ns#" xmlns:rdf="http://www.w3.org/1999/02/22-rdf-syntax-ns#">
   <cc:Work>
    <dc:type rdf:resource="http://purl.org/dc/dcmitype/StillImage"/>
    <dc:date>2023-10-27T18:13:30.309051</dc:date>
    <dc:format>image/svg+xml</dc:format>
    <dc:creator>
     <cc:Agent>
      <dc:title>Matplotlib v3.7.3, https://matplotlib.org/</dc:title>
     </cc:Agent>
    </dc:creator>
   </cc:Work>
  </rdf:RDF>
 </metadata>
 <defs>
  <style type="text/css">*{stroke-linejoin: round; stroke-linecap: butt}</style>
 </defs>
 <g id="figure_1">
  <g id="patch_1">
   <path d="M 0 169.028466 
L 229.08484 169.028466 
L 229.08484 0 
L 0 0 
L 0 169.028466 
z
" style="fill: none"/>
  </g>
  <g id="axes_1">
   <g id="patch_2">
    <path d="M 43.597056 139.988242 
L 229.08484 139.988242 
L 229.08484 12.641765 
L 43.597056 12.641765 
L 43.597056 139.988242 
z
" style="fill: none"/>
   </g>
   <g id="PathCollection_1">
    <defs>
     <path id="mc2a719b7b3" d="M -2.8 2.8 
L 2.8 -2.8 
M -2.8 -2.8 
L 2.8 2.8 
" style="stroke: #0000ff; stroke-width: 0.75"/>
    </defs>
    <g clip-path="url(#p4b96a0f856)">
     <use xlink:href="#mc2a719b7b3" x="-1" y="114.044099" style="fill: #0000ff; stroke: #0000ff; stroke-width: 0.75"/>
     <use xlink:href="#mc2a719b7b3" x="2.789743" y="114.031529" style="fill: #0000ff; stroke: #0000ff; stroke-width: 0.75"/>
     <use xlink:href="#mc2a719b7b3" x="9.745535" y="110.587011" style="fill: #0000ff; stroke: #0000ff; stroke-width: 0.75"/>
     <use xlink:href="#mc2a719b7b3" x="16.701327" y="109.675059" style="fill: #0000ff; stroke: #0000ff; stroke-width: 0.75"/>
     <use xlink:href="#mc2a719b7b3" x="23.657119" y="109.654703" style="fill: #0000ff; stroke: #0000ff; stroke-width: 0.75"/>
     <use xlink:href="#mc2a719b7b3" x="30.612911" y="107.734986" style="fill: #0000ff; stroke: #0000ff; stroke-width: 0.75"/>
     <use xlink:href="#mc2a719b7b3" x="37.568703" y="108.418286" style="fill: #0000ff; stroke: #0000ff; stroke-width: 0.75"/>
     <use xlink:href="#mc2a719b7b3" x="44.524495" y="106.047197" style="fill: #0000ff; stroke: #0000ff; stroke-width: 0.75"/>
     <use xlink:href="#mc2a719b7b3" x="51.480287" y="104.686004" style="fill: #0000ff; stroke: #0000ff; stroke-width: 0.75"/>
     <use xlink:href="#mc2a719b7b3" x="58.436078" y="104.485119" style="fill: #0000ff; stroke: #0000ff; stroke-width: 0.75"/>
     <use xlink:href="#mc2a719b7b3" x="65.39187" y="106.34106" style="fill: #0000ff; stroke: #0000ff; stroke-width: 0.75"/>
     <use xlink:href="#mc2a719b7b3" x="72.347662" y="73.85688" style="fill: #0000ff; stroke: #0000ff; stroke-width: 0.75"/>
     <use xlink:href="#mc2a719b7b3" x="79.303454" y="84.661066" style="fill: #0000ff; stroke: #0000ff; stroke-width: 0.75"/>
     <use xlink:href="#mc2a719b7b3" x="86.259246" y="84.226512" style="fill: #0000ff; stroke: #0000ff; stroke-width: 0.75"/>
     <use xlink:href="#mc2a719b7b3" x="93.215038" y="88.37909" style="fill: #0000ff; stroke: #0000ff; stroke-width: 0.75"/>
     <use xlink:href="#mc2a719b7b3" x="100.17083" y="86.625412" style="fill: #0000ff; stroke: #0000ff; stroke-width: 0.75"/>
     <use xlink:href="#mc2a719b7b3" x="107.126622" y="109.317897" style="fill: #0000ff; stroke: #0000ff; stroke-width: 0.75"/>
     <use xlink:href="#mc2a719b7b3" x="114.082414" y="106.802996" style="fill: #0000ff; stroke: #0000ff; stroke-width: 0.75"/>
     <use xlink:href="#mc2a719b7b3" x="121.038206" y="106.894234" style="fill: #0000ff; stroke: #0000ff; stroke-width: 0.75"/>
     <use xlink:href="#mc2a719b7b3" x="127.993998" y="104.828849" style="fill: #0000ff; stroke: #0000ff; stroke-width: 0.75"/>
     <use xlink:href="#mc2a719b7b3" x="134.94979" y="40.32904" style="fill: #0000ff; stroke: #0000ff; stroke-width: 0.75"/>
     <use xlink:href="#mc2a719b7b3" x="141.905582" y="50.010055" style="fill: #0000ff; stroke: #0000ff; stroke-width: 0.75"/>
     <use xlink:href="#mc2a719b7b3" x="148.861373" y="104.654207" style="fill: #0000ff; stroke: #0000ff; stroke-width: 0.75"/>
     <use xlink:href="#mc2a719b7b3" x="155.817165" y="100.99022" style="fill: #0000ff; stroke: #0000ff; stroke-width: 0.75"/>
     <use xlink:href="#mc2a719b7b3" x="162.772957" y="99.388898" style="fill: #0000ff; stroke: #0000ff; stroke-width: 0.75"/>
     <use xlink:href="#mc2a719b7b3" x="169.728749" y="106.579343" style="fill: #0000ff; stroke: #0000ff; stroke-width: 0.75"/>
     <use xlink:href="#mc2a719b7b3" x="176.684541" y="108.661955" style="fill: #0000ff; stroke: #0000ff; stroke-width: 0.75"/>
     <use xlink:href="#mc2a719b7b3" x="183.640333" y="110.947323" style="fill: #0000ff; stroke: #0000ff; stroke-width: 0.75"/>
     <use xlink:href="#mc2a719b7b3" x="190.596125" y="100.902091" style="fill: #0000ff; stroke: #0000ff; stroke-width: 0.75"/>
     <use xlink:href="#mc2a719b7b3" x="197.551917" y="48.051386" style="fill: #0000ff; stroke: #0000ff; stroke-width: 0.75"/>
     <use xlink:href="#mc2a719b7b3" x="204.507709" y="37.034442" style="fill: #0000ff; stroke: #0000ff; stroke-width: 0.75"/>
     <use xlink:href="#mc2a719b7b3" x="211.463501" y="105.189118" style="fill: #0000ff; stroke: #0000ff; stroke-width: 0.75"/>
     <use xlink:href="#mc2a719b7b3" x="218.419293" y="110.153727" style="fill: #0000ff; stroke: #0000ff; stroke-width: 0.75"/>
     <use xlink:href="#mc2a719b7b3" x="225.375085" y="110.969252" style="fill: #0000ff; stroke: #0000ff; stroke-width: 0.75"/>
     <use xlink:href="#mc2a719b7b3" x="232.330877" y="111.228076" style="fill: #0000ff; stroke: #0000ff; stroke-width: 0.75"/>
     <use xlink:href="#mc2a719b7b3" x="239.286668" y="110.052154" style="fill: #0000ff; stroke: #0000ff; stroke-width: 0.75"/>
     <use xlink:href="#mc2a719b7b3" x="246.24246" y="38.982808" style="fill: #0000ff; stroke: #0000ff; stroke-width: 0.75"/>
     <use xlink:href="#mc2a719b7b3" x="253.198252" y="-0.118403" style="fill: #0000ff; stroke: #0000ff; stroke-width: 0.75"/>
     <use xlink:href="#mc2a719b7b3" x="260.154044" y="3.118594" style="fill: #0000ff; stroke: #0000ff; stroke-width: 0.75"/>
     <use xlink:href="#mc2a719b7b3" x="262.378915" y="-1" style="fill: #0000ff; stroke: #0000ff; stroke-width: 0.75"/>
     <use xlink:href="#mc2a719b7b3" x="269.013397" y="-1" style="fill: #0000ff; stroke: #0000ff; stroke-width: 0.75"/>
     <use xlink:href="#mc2a719b7b3" x="274.065628" y="22.243759" style="fill: #0000ff; stroke: #0000ff; stroke-width: 0.75"/>
     <use xlink:href="#mc2a719b7b3" x="281.02142" y="22.401571" style="fill: #0000ff; stroke: #0000ff; stroke-width: 0.75"/>
     <use xlink:href="#mc2a719b7b3" x="287.977212" y="22.684529" style="fill: #0000ff; stroke: #0000ff; stroke-width: 0.75"/>
     <use xlink:href="#mc2a719b7b3" x="294.933004" y="19.336548" style="fill: #0000ff; stroke: #0000ff; stroke-width: 0.75"/>
     <use xlink:href="#mc2a719b7b3" x="301.888796" y="74.938667" style="fill: #0000ff; stroke: #0000ff; stroke-width: 0.75"/>
     <use xlink:href="#mc2a719b7b3" x="308.844588" y="102.019754" style="fill: #0000ff; stroke: #0000ff; stroke-width: 0.75"/>
     <use xlink:href="#mc2a719b7b3" x="315.80038" y="103.937887" style="fill: #0000ff; stroke: #0000ff; stroke-width: 0.75"/>
     <use xlink:href="#mc2a719b7b3" x="322.756172" y="103.555064" style="fill: #0000ff; stroke: #0000ff; stroke-width: 0.75"/>
     <use xlink:href="#mc2a719b7b3" x="329.711963" y="104.857814" style="fill: #0000ff; stroke: #0000ff; stroke-width: 0.75"/>
     <use xlink:href="#mc2a719b7b3" x="336.667755" y="107.368613" style="fill: #0000ff; stroke: #0000ff; stroke-width: 0.75"/>
     <use xlink:href="#mc2a719b7b3" x="343.623547" y="109.137077" style="fill: #0000ff; stroke: #0000ff; stroke-width: 0.75"/>
     <use xlink:href="#mc2a719b7b3" x="350.579339" y="63.036748" style="fill: #0000ff; stroke: #0000ff; stroke-width: 0.75"/>
     <use xlink:href="#mc2a719b7b3" x="357.535131" y="39.023968" style="fill: #0000ff; stroke: #0000ff; stroke-width: 0.75"/>
     <use xlink:href="#mc2a719b7b3" x="364.490923" y="43.939277" style="fill: #0000ff; stroke: #0000ff; stroke-width: 0.75"/>
     <use xlink:href="#mc2a719b7b3" x="371.446715" y="101.639382" style="fill: #0000ff; stroke: #0000ff; stroke-width: 0.75"/>
     <use xlink:href="#mc2a719b7b3" x="378.402507" y="110.460331" style="fill: #0000ff; stroke: #0000ff; stroke-width: 0.75"/>
     <use xlink:href="#mc2a719b7b3" x="385.358299" y="106.959624" style="fill: #0000ff; stroke: #0000ff; stroke-width: 0.75"/>
     <use xlink:href="#mc2a719b7b3" x="392.314091" y="104.307565" style="fill: #0000ff; stroke: #0000ff; stroke-width: 0.75"/>
     <use xlink:href="#mc2a719b7b3" x="399.269883" y="62.752468" style="fill: #0000ff; stroke: #0000ff; stroke-width: 0.75"/>
     <use xlink:href="#mc2a719b7b3" x="406.225675" y="50.729653" style="fill: #0000ff; stroke: #0000ff; stroke-width: 0.75"/>
     <use xlink:href="#mc2a719b7b3" x="413.181466" y="65.257842" style="fill: #0000ff; stroke: #0000ff; stroke-width: 0.75"/>
     <use xlink:href="#mc2a719b7b3" x="420.137258" y="63.581671" style="fill: #0000ff; stroke: #0000ff; stroke-width: 0.75"/>
     <use xlink:href="#mc2a719b7b3" x="427.09305" y="98.579725" style="fill: #0000ff; stroke: #0000ff; stroke-width: 0.75"/>
     <use xlink:href="#mc2a719b7b3" x="434.048842" y="99.137519" style="fill: #0000ff; stroke: #0000ff; stroke-width: 0.75"/>
     <use xlink:href="#mc2a719b7b3" x="441.004634" y="99.059473" style="fill: #0000ff; stroke: #0000ff; stroke-width: 0.75"/>
     <use xlink:href="#mc2a719b7b3" x="447.960426" y="99.682496" style="fill: #0000ff; stroke: #0000ff; stroke-width: 0.75"/>
     <use xlink:href="#mc2a719b7b3" x="454.916218" y="100.369686" style="fill: #0000ff; stroke: #0000ff; stroke-width: 0.75"/>
     <use xlink:href="#mc2a719b7b3" x="461.87201" y="100.031151" style="fill: #0000ff; stroke: #0000ff; stroke-width: 0.75"/>
     <use xlink:href="#mc2a719b7b3" x="468.827802" y="103.578753" style="fill: #0000ff; stroke: #0000ff; stroke-width: 0.75"/>
     <use xlink:href="#mc2a719b7b3" x="475.783594" y="103.96769" style="fill: #0000ff; stroke: #0000ff; stroke-width: 0.75"/>
     <use xlink:href="#mc2a719b7b3" x="482.739386" y="103.935354" style="fill: #0000ff; stroke: #0000ff; stroke-width: 0.75"/>
     <use xlink:href="#mc2a719b7b3" x="489.695178" y="104.193009" style="fill: #0000ff; stroke: #0000ff; stroke-width: 0.75"/>
     <use xlink:href="#mc2a719b7b3" x="496.65097" y="104.015789" style="fill: #0000ff; stroke: #0000ff; stroke-width: 0.75"/>
     <use xlink:href="#mc2a719b7b3" x="503.606761" y="106.945282" style="fill: #0000ff; stroke: #0000ff; stroke-width: 0.75"/>
     <use xlink:href="#mc2a719b7b3" x="510.562553" y="111.04323" style="fill: #0000ff; stroke: #0000ff; stroke-width: 0.75"/>
     <use xlink:href="#mc2a719b7b3" x="517.518345" y="110.943301" style="fill: #0000ff; stroke: #0000ff; stroke-width: 0.75"/>
     <use xlink:href="#mc2a719b7b3" x="524.474137" y="109.707616" style="fill: #0000ff; stroke: #0000ff; stroke-width: 0.75"/>
     <use xlink:href="#mc2a719b7b3" x="531.429929" y="109.702973" style="fill: #0000ff; stroke: #0000ff; stroke-width: 0.75"/>
     <use xlink:href="#mc2a719b7b3" x="538.385721" y="109.93079" style="fill: #0000ff; stroke: #0000ff; stroke-width: 0.75"/>
    </g>
   </g>
   <g id="matplotlib.axis_1">
    <g id="xtick_1">
     <g id="line2d_1">
      <defs>
       <path id="m1b999a12cc" d="M 0 0 
L 0 3.5 
" style="stroke: #000000; stroke-width: 0.8"/>
      </defs>
      <g>
       <use xlink:href="#m1b999a12cc" x="66.783029" y="139.988242" style="stroke: #000000; stroke-width: 0.8"/>
      </g>
     </g>
     <g id="text_1">
      <!-- $\mathdefault{400}$ -->
      <g transform="translate(60.431755 154.623044) scale(0.08 -0.08)">
       <defs>
        <path id="CMR17-34" d="M 2150 4122 
C 2150 4256 2144 4256 2029 4256 
L 128 1254 
L 128 1088 
L 1779 1088 
L 1779 457 
C 1779 224 1766 160 1318 160 
L 1197 160 
L 1197 0 
C 1402 0 1747 0 1965 0 
C 2182 0 2528 0 2733 0 
L 2733 160 
L 2611 160 
C 2163 160 2150 224 2150 457 
L 2150 1088 
L 2803 1088 
L 2803 1254 
L 2150 1254 
L 2150 4122 
z
M 1798 3703 
L 1798 1254 
L 256 1254 
L 1798 3703 
z
" transform="scale(0.015625)"/>
        <path id="CMR17-30" d="M 2688 2025 
C 2688 2416 2682 3080 2413 3591 
C 2176 4039 1798 4198 1466 4198 
C 1158 4198 768 4058 525 3597 
C 269 3118 243 2524 243 2025 
C 243 1661 250 1106 448 619 
C 723 -39 1216 -128 1466 -128 
C 1760 -128 2208 -7 2470 600 
C 2662 1042 2688 1559 2688 2025 
z
M 1466 -26 
C 1056 -26 813 325 723 812 
C 653 1188 653 1738 653 2096 
C 653 2588 653 2997 736 3387 
C 858 3929 1216 4096 1466 4096 
C 1728 4096 2067 3923 2189 3400 
C 2272 3036 2278 2607 2278 2096 
C 2278 1680 2278 1169 2202 792 
C 2067 95 1690 -26 1466 -26 
z
" transform="scale(0.015625)"/>
       </defs>
       <use xlink:href="#CMR17-34" transform="scale(0.996264)"/>
       <use xlink:href="#CMR17-30" transform="translate(45.690477 0) scale(0.996264)"/>
       <use xlink:href="#CMR17-30" transform="translate(91.380954 0) scale(0.996264)"/>
      </g>
     </g>
    </g>
    <g id="xtick_2">
     <g id="line2d_2">
      <g>
       <use xlink:href="#m1b999a12cc" x="113.154975" y="139.988242" style="stroke: #000000; stroke-width: 0.8"/>
      </g>
     </g>
     <g id="text_2">
      <!-- $\mathdefault{500}$ -->
      <g transform="translate(106.803701 154.623044) scale(0.08 -0.08)">
       <defs>
        <path id="CMR17-35" d="M 730 3692 
C 794 3666 1056 3584 1325 3584 
C 1920 3584 2246 3911 2432 4100 
C 2432 4157 2432 4192 2394 4192 
C 2387 4192 2374 4192 2323 4163 
C 2099 4058 1837 3973 1517 3973 
C 1325 3973 1037 3999 723 4139 
C 653 4171 640 4171 634 4171 
C 602 4171 595 4164 595 4037 
L 595 2203 
C 595 2089 595 2057 659 2057 
C 691 2057 704 2070 736 2114 
C 941 2401 1222 2522 1542 2522 
C 1766 2522 2246 2382 2246 1289 
C 2246 1085 2246 715 2054 421 
C 1894 159 1645 25 1370 25 
C 947 25 518 320 403 814 
C 429 807 480 795 506 795 
C 589 795 749 840 749 1038 
C 749 1210 627 1280 506 1280 
C 358 1280 262 1190 262 1011 
C 262 454 704 -128 1382 -128 
C 2042 -128 2669 440 2669 1264 
C 2669 2030 2170 2624 1549 2624 
C 1222 2624 947 2503 730 2274 
L 730 3692 
z
" transform="scale(0.015625)"/>
       </defs>
       <use xlink:href="#CMR17-35" transform="scale(0.996264)"/>
       <use xlink:href="#CMR17-30" transform="translate(45.690477 0) scale(0.996264)"/>
       <use xlink:href="#CMR17-30" transform="translate(91.380954 0) scale(0.996264)"/>
      </g>
     </g>
    </g>
    <g id="xtick_3">
     <g id="line2d_3">
      <g>
       <use xlink:href="#m1b999a12cc" x="159.526921" y="139.988242" style="stroke: #000000; stroke-width: 0.8"/>
      </g>
     </g>
     <g id="text_3">
      <!-- $\mathdefault{600}$ -->
      <g transform="translate(153.175647 154.623044) scale(0.08 -0.08)">
       <defs>
        <path id="CMR17-36" d="M 678 2176 
C 678 3690 1395 4032 1811 4032 
C 1946 4032 2272 4009 2400 3776 
C 2298 3776 2106 3776 2106 3553 
C 2106 3381 2246 3323 2336 3323 
C 2394 3323 2566 3348 2566 3560 
C 2566 3954 2246 4179 1805 4179 
C 1043 4179 243 3390 243 1984 
C 243 253 966 -128 1478 -128 
C 2099 -128 2688 427 2688 1283 
C 2688 2081 2170 2662 1517 2662 
C 1126 2662 838 2407 678 1960 
L 678 2176 
z
M 1478 25 
C 691 25 691 1200 691 1436 
C 691 1896 909 2560 1504 2560 
C 1613 2560 1926 2560 2138 2120 
C 2253 1870 2253 1609 2253 1289 
C 2253 944 2253 690 2118 434 
C 1978 171 1773 25 1478 25 
z
" transform="scale(0.015625)"/>
       </defs>
       <use xlink:href="#CMR17-36" transform="scale(0.996264)"/>
       <use xlink:href="#CMR17-30" transform="translate(45.690477 0) scale(0.996264)"/>
       <use xlink:href="#CMR17-30" transform="translate(91.380954 0) scale(0.996264)"/>
      </g>
     </g>
    </g>
    <g id="xtick_4">
     <g id="line2d_4">
      <g>
       <use xlink:href="#m1b999a12cc" x="205.898867" y="139.988242" style="stroke: #000000; stroke-width: 0.8"/>
      </g>
     </g>
     <g id="text_4">
      <!-- $\mathdefault{700}$ -->
      <g transform="translate(199.547593 154.623044) scale(0.08 -0.08)">
       <defs>
        <path id="CMR17-37" d="M 2886 3941 
L 2886 4081 
L 1382 4081 
C 634 4081 621 4165 595 4288 
L 480 4288 
L 294 3094 
L 410 3094 
C 429 3215 474 3540 550 3661 
C 589 3712 1062 3712 1171 3712 
L 2579 3712 
L 1869 2661 
C 1395 1954 1069 999 1069 165 
C 1069 89 1069 -128 1299 -128 
C 1530 -128 1530 89 1530 171 
L 1530 465 
C 1530 1508 1709 2196 2003 2636 
L 2886 3941 
z
" transform="scale(0.015625)"/>
       </defs>
       <use xlink:href="#CMR17-37" transform="scale(0.996264)"/>
       <use xlink:href="#CMR17-30" transform="translate(45.690477 0) scale(0.996264)"/>
       <use xlink:href="#CMR17-30" transform="translate(91.380954 0) scale(0.996264)"/>
      </g>
     </g>
    </g>
    <g id="text_5">
     <!-- time $t$ -->
     <g transform="translate(123.195777 167.091288) scale(0.1 -0.1)">
      <defs>
       <path id="CMR17-74" d="M 966 2560 
L 1862 2560 
L 1862 2725 
L 966 2725 
L 966 3904 
L 851 3904 
C 838 3245 614 2668 70 2668 
L 70 2560 
L 627 2560 
L 627 771 
C 627 650 627 -64 1370 -64 
C 1747 -64 1965 306 1965 777 
L 1965 1140 
L 1850 1140 
L 1850 783 
C 1850 344 1677 51 1408 51 
C 1222 51 966 178 966 758 
L 966 2560 
z
" transform="scale(0.015625)"/>
       <path id="CMR17-69" d="M 992 3909 
C 992 4049 877 4170 730 4170 
C 589 4170 467 4056 467 3909 
C 467 3769 582 3648 730 3648 
C 870 3648 992 3763 992 3909 
z
M 243 2706 
L 243 2541 
C 602 2541 653 2502 653 2197 
L 653 427 
C 653 184 627 153 218 153 
L 218 -13 
C 371 0 646 0 806 0 
C 960 0 1222 0 1370 -13 
L 1370 153 
C 992 153 979 191 979 420 
L 979 2776 
L 243 2706 
z
" transform="scale(0.015625)"/>
       <path id="CMR17-6d" d="M 4326 1933 
C 4326 2252 4269 2790 3507 2790 
C 3072 2790 2771 2496 2656 2151 
L 2650 2151 
C 2573 2676 2195 2790 1837 2790 
C 1331 2790 1069 2400 973 2144 
L 966 2144 
L 966 2790 
L 211 2720 
L 211 2554 
C 589 2554 646 2515 646 2208 
L 646 428 
C 646 184 621 153 211 153 
L 211 -13 
C 365 0 646 0 813 0 
C 979 0 1267 0 1421 -13 
L 1421 153 
C 1011 153 986 178 986 428 
L 986 1658 
C 986 2247 1344 2688 1792 2688 
C 2266 2688 2317 2266 2317 1958 
L 2317 428 
C 2317 184 2291 153 1882 153 
L 1882 -13 
C 2035 0 2317 0 2483 0 
C 2650 0 2938 0 3091 -13 
L 3091 153 
C 2682 153 2656 178 2656 428 
L 2656 1658 
C 2656 2247 3014 2688 3462 2688 
C 3936 2688 3987 2266 3987 1958 
L 3987 428 
C 3987 184 3962 153 3552 153 
L 3552 -13 
C 3706 0 3987 0 4154 0 
C 4320 0 4608 0 4762 -13 
L 4762 153 
C 4352 153 4326 178 4326 428 
L 4326 1933 
z
" transform="scale(0.015625)"/>
       <path id="CMR17-65" d="M 2438 1472 
C 2464 1498 2464 1511 2464 1576 
C 2464 2238 2118 2816 1389 2816 
C 710 2816 173 2169 173 1383 
C 173 551 781 -64 1459 -64 
C 2176 -64 2458 607 2458 740 
C 2458 784 2419 784 2406 784 
C 2362 784 2355 771 2330 696 
C 2189 265 1837 51 1504 51 
C 1229 51 954 203 781 480 
C 582 803 582 1176 582 1472 
L 2438 1472 
z
M 589 1568 
C 634 2505 1126 2714 1382 2714 
C 1818 2714 2112 2297 2118 1568 
L 589 1568 
z
" transform="scale(0.015625)"/>
       <path id="CMMI12-74" d="M 1286 2566 
L 1875 2566 
C 1997 2566 2061 2566 2061 2681 
C 2061 2752 2022 2752 1894 2752 
L 1331 2752 
L 1568 3692 
C 1594 3781 1594 3794 1594 3840 
C 1594 3943 1510 4000 1427 4000 
C 1376 4000 1229 3981 1178 3775 
L 928 2752 
L 326 2752 
C 198 2752 141 2752 141 2630 
C 141 2566 186 2566 307 2566 
L 877 2566 
L 454 881 
C 403 658 384 594 384 511 
C 384 211 595 -64 954 -64 
C 1600 -64 1946 868 1946 912 
C 1946 951 1920 970 1882 970 
C 1869 970 1843 970 1830 944 
C 1824 938 1818 931 1773 829 
C 1638 511 1344 64 973 64 
C 781 64 768 224 768 364 
C 768 370 768 492 787 568 
L 1286 2566 
z
" transform="scale(0.015625)"/>
      </defs>
      <use xlink:href="#CMR17-74" transform="scale(0.996264)"/>
      <use xlink:href="#CMR17-69" transform="translate(35.280768 0) scale(0.996264)"/>
      <use xlink:href="#CMR17-6d" transform="translate(60.151826 0) scale(0.996264)"/>
      <use xlink:href="#CMR17-65" transform="translate(137.071416 0) scale(0.996264)"/>
      <use xlink:href="#CMMI12-74" transform="translate(207.633043 0) scale(0.996264)"/>
     </g>
    </g>
   </g>
   <g id="matplotlib.axis_2">
    <g id="ytick_1">
     <g id="line2d_5">
      <defs>
       <path id="mf5c39f508b" d="M 0 0 
L -3.5 0 
" style="stroke: #000000; stroke-width: 0.8"/>
      </defs>
      <g>
       <use xlink:href="#mf5c39f508b" x="43.597056" y="139.988242" style="stroke: #000000; stroke-width: 0.8"/>
      </g>
     </g>
     <g id="text_6">
      <!-- $\mathdefault{−0.01}$ -->
      <g transform="translate(12.855677 142.755643) scale(0.08 -0.08)">
       <defs>
        <path id="CMSY10-0" d="M 4218 1472 
C 4326 1472 4442 1472 4442 1600 
C 4442 1728 4326 1728 4218 1728 
L 755 1728 
C 646 1728 531 1728 531 1600 
C 531 1472 646 1472 755 1472 
L 4218 1472 
z
" transform="scale(0.015625)"/>
        <path id="CMMI12-3a" d="M 1178 307 
C 1178 492 1024 619 870 619 
C 685 619 557 466 557 313 
C 557 128 710 0 864 0 
C 1050 0 1178 153 1178 307 
z
" transform="scale(0.015625)"/>
        <path id="CMR17-31" d="M 1702 4058 
C 1702 4192 1696 4192 1606 4192 
C 1357 3916 979 3827 621 3827 
C 602 3827 570 3827 563 3808 
C 557 3795 557 3782 557 3648 
C 755 3648 1088 3686 1344 3839 
L 1344 461 
C 1344 236 1331 160 781 160 
L 589 160 
L 589 0 
C 896 0 1216 0 1523 0 
C 1830 0 2150 0 2458 0 
L 2458 160 
L 2266 160 
C 1715 160 1702 230 1702 458 
L 1702 4058 
z
" transform="scale(0.015625)"/>
       </defs>
       <use xlink:href="#CMSY10-0" transform="scale(0.996264)"/>
       <use xlink:href="#CMR17-30" transform="translate(77.487468 0) scale(0.996264)"/>
       <use xlink:href="#CMMI12-3a" transform="translate(123.177945 0) scale(0.996264)"/>
       <use xlink:href="#CMR17-30" transform="translate(150.275122 0) scale(0.996264)"/>
       <use xlink:href="#CMR17-31" transform="translate(195.965599 0) scale(0.996264)"/>
      </g>
     </g>
    </g>
    <g id="ytick_2">
     <g id="line2d_6">
      <g>
       <use xlink:href="#mf5c39f508b" x="43.597056" y="118.763829" style="stroke: #000000; stroke-width: 0.8"/>
      </g>
     </g>
     <g id="text_7">
      <!-- $\mathdefault{0.00}$ -->
      <g transform="translate(19.442183 121.53123) scale(0.08 -0.08)">
       <use xlink:href="#CMR17-30" transform="scale(0.996264)"/>
       <use xlink:href="#CMMI12-3a" transform="translate(45.690477 0) scale(0.996264)"/>
       <use xlink:href="#CMR17-30" transform="translate(72.787654 0) scale(0.996264)"/>
       <use xlink:href="#CMR17-30" transform="translate(118.478131 0) scale(0.996264)"/>
      </g>
     </g>
    </g>
    <g id="ytick_3">
     <g id="line2d_7">
      <g>
       <use xlink:href="#mf5c39f508b" x="43.597056" y="97.539416" style="stroke: #000000; stroke-width: 0.8"/>
      </g>
     </g>
     <g id="text_8">
      <!-- $\mathdefault{0.01}$ -->
      <g transform="translate(19.442183 100.306817) scale(0.08 -0.08)">
       <use xlink:href="#CMR17-30" transform="scale(0.996264)"/>
       <use xlink:href="#CMMI12-3a" transform="translate(45.690477 0) scale(0.996264)"/>
       <use xlink:href="#CMR17-30" transform="translate(72.787654 0) scale(0.996264)"/>
       <use xlink:href="#CMR17-31" transform="translate(118.478131 0) scale(0.996264)"/>
      </g>
     </g>
    </g>
    <g id="ytick_4">
     <g id="line2d_8">
      <g>
       <use xlink:href="#mf5c39f508b" x="43.597056" y="76.315004" style="stroke: #000000; stroke-width: 0.8"/>
      </g>
     </g>
     <g id="text_9">
      <!-- $\mathdefault{0.02}$ -->
      <g transform="translate(19.442183 79.082404) scale(0.08 -0.08)">
       <defs>
        <path id="CMR17-32" d="M 2669 989 
L 2554 989 
C 2490 536 2438 459 2413 420 
C 2381 369 1920 369 1830 369 
L 602 369 
C 832 619 1280 1072 1824 1597 
C 2214 1967 2669 2402 2669 3035 
C 2669 3790 2067 4224 1395 4224 
C 691 4224 262 3604 262 3030 
C 262 2780 448 2748 525 2748 
C 589 2748 781 2787 781 3010 
C 781 3207 614 3264 525 3264 
C 486 3264 448 3258 422 3245 
C 544 3790 915 4058 1306 4058 
C 1862 4058 2227 3617 2227 3035 
C 2227 2479 1901 2000 1536 1584 
L 262 146 
L 262 0 
L 2515 0 
L 2669 989 
z
" transform="scale(0.015625)"/>
       </defs>
       <use xlink:href="#CMR17-30" transform="scale(0.996264)"/>
       <use xlink:href="#CMMI12-3a" transform="translate(45.690477 0) scale(0.996264)"/>
       <use xlink:href="#CMR17-30" transform="translate(72.787654 0) scale(0.996264)"/>
       <use xlink:href="#CMR17-32" transform="translate(118.478131 0) scale(0.996264)"/>
      </g>
     </g>
    </g>
    <g id="ytick_5">
     <g id="line2d_9">
      <g>
       <use xlink:href="#mf5c39f508b" x="43.597056" y="55.090591" style="stroke: #000000; stroke-width: 0.8"/>
      </g>
     </g>
     <g id="text_10">
      <!-- $\mathdefault{0.03}$ -->
      <g transform="translate(19.442183 57.857992) scale(0.08 -0.08)">
       <defs>
        <path id="CMR17-33" d="M 1414 2157 
C 1984 2157 2234 1662 2234 1090 
C 2234 320 1824 25 1453 25 
C 1114 25 563 194 390 693 
C 422 680 454 680 486 680 
C 640 680 755 782 755 948 
C 755 1133 614 1216 486 1216 
C 378 1216 211 1165 211 926 
C 211 335 787 -128 1466 -128 
C 2176 -128 2720 430 2720 1085 
C 2720 1707 2208 2157 1600 2227 
C 2086 2328 2554 2756 2554 3329 
C 2554 3820 2048 4179 1472 4179 
C 890 4179 378 3829 378 3329 
C 378 3110 544 3072 627 3072 
C 762 3072 877 3155 877 3321 
C 877 3486 762 3569 627 3569 
C 602 3569 570 3569 544 3557 
C 730 3959 1235 4032 1459 4032 
C 1683 4032 2106 3925 2106 3320 
C 2106 3143 2080 2828 1862 2550 
C 1670 2304 1453 2304 1242 2284 
C 1210 2284 1062 2269 1037 2269 
C 992 2263 966 2257 966 2208 
C 966 2163 973 2157 1101 2157 
L 1414 2157 
z
" transform="scale(0.015625)"/>
       </defs>
       <use xlink:href="#CMR17-30" transform="scale(0.996264)"/>
       <use xlink:href="#CMMI12-3a" transform="translate(45.690477 0) scale(0.996264)"/>
       <use xlink:href="#CMR17-30" transform="translate(72.787654 0) scale(0.996264)"/>
       <use xlink:href="#CMR17-33" transform="translate(118.478131 0) scale(0.996264)"/>
      </g>
     </g>
    </g>
    <g id="ytick_6">
     <g id="line2d_10">
      <g>
       <use xlink:href="#mf5c39f508b" x="43.597056" y="33.866178" style="stroke: #000000; stroke-width: 0.8"/>
      </g>
     </g>
     <g id="text_11">
      <!-- $\mathdefault{0.04}$ -->
      <g transform="translate(19.442183 36.633579) scale(0.08 -0.08)">
       <use xlink:href="#CMR17-30" transform="scale(0.996264)"/>
       <use xlink:href="#CMMI12-3a" transform="translate(45.690477 0) scale(0.996264)"/>
       <use xlink:href="#CMR17-30" transform="translate(72.787654 0) scale(0.996264)"/>
       <use xlink:href="#CMR17-34" transform="translate(118.478131 0) scale(0.996264)"/>
      </g>
     </g>
    </g>
    <g id="ytick_7">
     <g id="line2d_11">
      <g>
       <use xlink:href="#mf5c39f508b" x="43.597056" y="12.641765" style="stroke: #000000; stroke-width: 0.8"/>
      </g>
     </g>
     <g id="text_12">
      <!-- $\mathdefault{0.05}$ -->
      <g transform="translate(19.442183 15.409166) scale(0.08 -0.08)">
       <use xlink:href="#CMR17-30" transform="scale(0.996264)"/>
       <use xlink:href="#CMMI12-3a" transform="translate(45.690477 0) scale(0.996264)"/>
       <use xlink:href="#CMR17-30" transform="translate(72.787654 0) scale(0.996264)"/>
       <use xlink:href="#CMR17-35" transform="translate(118.478131 0) scale(0.996264)"/>
      </g>
     </g>
    </g>
    <g id="text_13">
     <!-- target-variable $y$ -->
     <g transform="translate(6.918498 112.132166) rotate(-90) scale(0.1 -0.1)">
      <defs>
       <path id="CMR17-61" d="M 2304 1653 
C 2304 2072 2304 2294 2035 2543 
C 1798 2752 1523 2816 1306 2816 
C 800 2816 435 2407 435 1971 
C 435 1728 627 1728 666 1728 
C 749 1728 896 1778 896 1954 
C 896 2112 774 2181 666 2181 
C 640 2181 608 2174 589 2168 
C 723 2592 1069 2714 1293 2714 
C 1613 2714 1965 2429 1965 1885 
L 1965 1600 
C 1587 1600 1133 1549 774 1357 
C 371 1133 256 813 256 570 
C 256 77 832 -64 1171 -64 
C 1523 -64 1850 139 1990 511 
C 2003 233 2182 -18 2464 -18 
C 2598 -18 2938 70 2938 567 
L 2938 920 
L 2822 920 
L 2822 562 
C 2822 178 2650 128 2566 128 
C 2304 128 2304 458 2304 738 
L 2304 1653 
z
M 1965 870 
C 1965 317 1568 38 1216 38 
C 896 38 646 275 646 570 
C 646 761 730 1100 1101 1305 
C 1408 1478 1760 1504 1965 1504 
L 1965 870 
z
" transform="scale(0.015625)"/>
       <path id="CMR17-72" d="M 960 1497 
C 960 2112 1222 2688 1702 2688 
C 1747 2688 1792 2682 1837 2662 
C 1837 2662 1696 2617 1696 2452 
C 1696 2298 1818 2234 1914 2234 
C 1990 2234 2131 2279 2131 2458 
C 2131 2663 1926 2790 1709 2790 
C 1222 2790 1011 2317 947 2093 
L 941 2093 
L 941 2790 
L 198 2720 
L 198 2554 
C 576 2554 634 2515 634 2208 
L 634 428 
C 634 184 608 153 198 153 
L 198 -13 
C 352 0 646 0 813 0 
C 998 0 1325 0 1498 -13 
L 1498 153 
C 1037 153 960 153 960 440 
L 960 1497 
z
" transform="scale(0.015625)"/>
       <path id="CMR17-67" d="M 710 1164 
C 832 1068 1043 960 1299 960 
C 1805 960 2240 1357 2240 1888 
C 2240 2054 2189 2310 1997 2509 
C 2176 2692 2438 2752 2586 2752 
C 2611 2752 2650 2752 2682 2734 
C 2656 2728 2598 2703 2598 2605 
C 2598 2527 2656 2471 2739 2471 
C 2835 2471 2886 2533 2886 2614 
C 2886 2731 2790 2854 2586 2854 
C 2330 2854 2106 2738 1926 2580 
C 1734 2753 1504 2816 1299 2816 
C 794 2816 358 2419 358 1888 
C 358 1522 570 1292 634 1228 
C 442 1004 442 743 442 711 
C 442 545 506 302 723 168 
C 390 85 128 -169 128 -486 
C 128 -943 736 -1280 1466 -1280 
C 2170 -1280 2803 -956 2803 -479 
C 2803 384 1856 384 1363 384 
C 1216 384 954 384 922 391 
C 723 423 589 602 589 826 
C 589 883 589 1024 710 1164 
z
M 1299 1068 
C 736 1068 736 1760 736 1889 
C 736 2016 736 2708 1299 2708 
C 1862 2708 1862 2016 1862 1889 
C 1862 1760 1862 1068 1299 1068 
z
M 1466 -1171 
C 826 -1171 384 -835 384 -486 
C 384 -289 493 -105 634 -4 
C 794 104 858 104 1293 104 
C 1818 104 2547 104 2547 -486 
C 2547 -835 2106 -1171 1466 -1171 
z
" transform="scale(0.015625)"/>
       <path id="CMR17-2d" d="M 1632 1216 
L 1632 1496 
L 26 1496 
L 26 1216 
L 1632 1216 
z
" transform="scale(0.015625)"/>
       <path id="CMR17-76" d="M 2502 2163 
C 2560 2304 2662 2560 3034 2560 
L 3034 2726 
C 2912 2726 2752 2726 2630 2726 
C 2496 2726 2285 2726 2157 2732 
L 2157 2566 
C 2317 2553 2406 2477 2406 2311 
C 2406 2253 2406 2240 2368 2151 
L 1664 377 
L 902 2286 
C 864 2369 864 2381 864 2407 
C 864 2560 1075 2560 1171 2560 
L 1171 2732 
C 1018 2726 736 2726 576 2726 
C 403 2726 205 2726 64 2732 
L 64 2560 
C 307 2560 442 2560 518 2362 
L 1446 44 
C 1485 -51 1491 -64 1549 -64 
C 1606 -64 1613 -51 1651 44 
L 2502 2163 
z
" transform="scale(0.015625)"/>
       <path id="CMR17-62" d="M 960 4396 
L 198 4326 
L 198 4160 
C 576 4160 634 4122 634 3817 
L 634 -13 
L 749 -13 
L 934 441 
C 1120 141 1395 -64 1766 -64 
C 2406 -64 3053 500 3053 1370 
C 3053 2188 2477 2790 1830 2790 
C 1434 2790 1152 2579 960 2330 
L 960 4396 
z
M 973 2004 
C 973 2118 973 2138 1062 2272 
C 1312 2657 1670 2688 1792 2688 
C 1984 2688 2643 2585 2643 1376 
C 2643 108 1888 38 1734 38 
C 1536 38 1248 114 1043 486 
C 973 608 973 621 973 735 
L 973 2004 
z
" transform="scale(0.015625)"/>
       <path id="CMR17-6c" d="M 979 4396 
L 218 4326 
L 218 4160 
C 595 4160 653 4122 653 3817 
L 653 426 
C 653 184 627 153 218 153 
L 218 -13 
C 371 0 653 0 813 0 
C 979 0 1261 0 1414 -13 
L 1414 153 
C 1005 153 979 178 979 426 
L 979 4396 
z
" transform="scale(0.015625)"/>
       <path id="CMMI12-79" d="M 1683 -700 
C 1510 -939 1261 -1152 947 -1152 
C 870 -1152 563 -1152 467 -889 
C 486 -895 518 -895 531 -895 
C 723 -895 851 -729 851 -582 
C 851 -435 730 -384 634 -384 
C 531 -384 307 -458 307 -759 
C 307 -1071 582 -1286 947 -1286 
C 1587 -1286 2234 -700 2413 6 
L 3040 2485 
C 3046 2517 3059 2556 3059 2594 
C 3059 2689 2982 2753 2886 2753 
C 2829 2753 2694 2727 2643 2535 
L 2170 658 
C 2138 543 2138 530 2086 460 
C 1958 281 1747 64 1440 64 
C 1082 64 1050 415 1050 588 
C 1050 952 1222 1443 1395 1903 
C 1466 2088 1504 2178 1504 2305 
C 1504 2574 1312 2816 998 2816 
C 410 2816 173 1890 173 1839 
C 173 1814 198 1782 243 1782 
C 301 1782 307 1807 333 1897 
C 486 2433 730 2689 979 2689 
C 1037 2689 1146 2689 1146 2478 
C 1146 2312 1075 2127 979 1884 
C 666 1047 666 837 666 683 
C 666 77 1101 -64 1421 -64 
C 1606 -64 1837 -6 2061 230 
L 2067 224 
C 1971 -147 1907 -392 1683 -700 
z
" transform="scale(0.015625)"/>
      </defs>
      <use xlink:href="#CMR17-74" transform="scale(0.996264)"/>
      <use xlink:href="#CMR17-61" transform="translate(35.280768 0) scale(0.996264)"/>
      <use xlink:href="#CMR17-72" transform="translate(80.971245 0) scale(0.996264)"/>
      <use xlink:href="#CMR17-67" transform="translate(116.252013 0) scale(0.996264)"/>
      <use xlink:href="#CMR17-65" transform="translate(161.94249 0) scale(0.996264)"/>
      <use xlink:href="#CMR17-74" transform="translate(202.42815 0) scale(0.996264)"/>
      <use xlink:href="#CMR17-2d" transform="translate(237.708918 0) scale(0.996264)"/>
      <use xlink:href="#CMR17-76" transform="translate(267.784884 0) scale(0.996264)"/>
      <use xlink:href="#CMR17-61" transform="translate(310.872984 0) scale(0.996264)"/>
      <use xlink:href="#CMR17-72" transform="translate(356.563461 0) scale(0.996264)"/>
      <use xlink:href="#CMR17-69" transform="translate(391.844229 0) scale(0.996264)"/>
      <use xlink:href="#CMR17-61" transform="translate(416.715287 0) scale(0.996264)"/>
      <use xlink:href="#CMR17-62" transform="translate(462.405764 0) scale(0.996264)"/>
      <use xlink:href="#CMR17-6c" transform="translate(513.301134 0) scale(0.996264)"/>
      <use xlink:href="#CMR17-65" transform="translate(538.172192 0) scale(0.996264)"/>
      <use xlink:href="#CMMI12-79" transform="translate(608.733819 0) scale(0.996264)"/>
     </g>
    </g>
   </g>
   <g id="line2d_12">
    <path d="M 43.133336 107.515922 
L 43.597056 107.371925 
L 44.060775 105.318168 
L 44.988214 104.365557 
L 45.451934 104.620997 
L 45.915653 105.317474 
L 46.379372 104.675894 
L 46.843092 105.419357 
L 47.306811 104.382991 
L 47.770531 104.912011 
L 48.23425 104.758983 
L 48.69797 104.746384 
L 49.161689 105.072447 
L 49.625409 104.702673 
L 50.089128 104.518171 
L 50.552848 104.679551 
L 51.016567 104.244329 
L 51.480287 104.589977 
L 51.944006 103.918611 
L 52.407725 105.449224 
L 52.871445 104.319326 
L 53.335164 104.268967 
L 53.798884 105.202682 
L 54.262603 104.681616 
L 54.726323 105.137115 
L 55.190042 103.517088 
L 55.653762 103.475309 
L 56.117481 105.585061 
L 56.581201 104.877267 
L 57.04492 105.331285 
L 57.50864 104.368346 
L 57.972359 104.731039 
L 58.436078 104.087489 
L 58.899798 104.67794 
L 59.363517 103.68787 
L 59.827237 104.486099 
L 60.290956 104.931066 
L 60.754676 104.393993 
L 61.218395 105.007273 
L 61.682115 104.119655 
L 62.609554 105.306938 
L 63.073273 104.303529 
L 63.536993 105.178588 
L 64.000712 105.230577 
L 64.464431 104.61804 
L 64.928151 104.548622 
L 65.39187 103.861568 
L 65.85559 107.621853 
L 66.319309 108.042366 
L 66.783029 108.954468 
L 67.246748 108.650299 
L 67.710468 107.782065 
L 68.174187 107.864694 
L 68.637907 108.455667 
L 69.101626 108.515396 
L 69.565346 111.273012 
L 70.029065 111.28299 
L 70.492784 110.727405 
L 70.956504 111.014444 
L 71.420223 79.076196 
L 71.685865 -1 
M 72.893331 -1 
L 73.275101 85.444167 
L 73.738821 103.106832 
L 74.20254 103.611549 
L 75.129979 103.008555 
L 76.057418 103.38819 
L 76.521137 103.085704 
L 76.984857 102.97165 
L 77.448576 103.064755 
L 77.912296 102.91352 
L 78.376015 103.126327 
L 79.303454 56.096995 
L 79.767174 58.13612 
L 80.230893 59.092059 
L 80.694613 59.688853 
L 81.158332 82.753162 
L 81.622052 86.050353 
L 82.085771 84.548813 
L 82.54949 86.225989 
L 83.01321 85.49637 
L 83.476929 104.792717 
L 83.940649 104.62438 
L 84.404368 106.14113 
L 84.868088 104.443259 
L 85.331807 104.925588 
L 85.795527 111.482168 
L 86.259246 110.618258 
L 86.722966 110.825549 
L 87.186685 110.687577 
L 87.650405 111.157959 
L 88.114124 111.246518 
L 88.577843 79.102503 
L 88.841986 -1 
M 90.075213 -1 
L 90.432721 86.068373 
L 90.896441 103.260629 
L 91.36016 103.275314 
L 91.82388 102.923698 
L 92.287599 103.089842 
L 92.751319 102.489544 
L 93.215038 102.888198 
L 93.678758 102.373652 
L 94.606196 102.732682 
L 95.069916 102.918137 
L 95.533635 103.322033 
L 96.461074 55.781375 
L 96.924794 57.884273 
L 97.388513 59.138536 
L 97.852233 59.857053 
L 98.315952 59.968192 
L 98.779672 82.524972 
L 99.243391 85.616632 
L 99.707111 85.620221 
L 100.17083 85.173146 
L 100.634549 86.08175 
L 101.098269 105.508619 
L 101.561988 105.896066 
L 102.489427 105.065428 
L 102.953147 105.039483 
L 103.416866 110.545047 
L 104.344305 112.236677 
L 104.808025 110.797051 
L 105.271744 111.663911 
L 105.735464 110.899866 
L 106.199183 111.804747 
L 106.662902 111.351504 
L 107.126622 110.458156 
L 107.590341 106.979721 
L 108.054061 106.873816 
L 108.9815 107.288286 
L 109.445219 107.385672 
L 109.908939 106.209752 
L 110.372658 107.29515 
L 110.836378 106.589243 
L 111.300097 106.745393 
L 111.763817 107.309234 
L 112.227536 108.169273 
L 112.691255 106.306782 
L 113.154975 107.044107 
L 113.618694 106.886512 
L 114.082414 106.312854 
L 114.546133 106.240676 
L 115.009853 106.568521 
L 115.473572 106.658428 
L 115.937292 107.525029 
L 116.401011 106.671589 
L 116.864731 106.688376 
L 117.79217 106.083259 
L 118.255889 106.933244 
L 118.719608 106.647977 
L 119.183328 106.144065 
L 119.647047 106.450091 
L 120.110767 108.448949 
L 120.574486 107.105119 
L 121.038206 106.401076 
L 121.501925 106.99364 
L 121.965645 106.881539 
L 122.429364 106.000321 
L 122.893084 106.365427 
L 123.356803 107.009877 
L 123.820523 108.157181 
L 124.284242 107.791737 
L 124.747961 107.666552 
L 125.211681 106.839687 
L 125.6754 106.701836 
L 126.13912 106.112275 
L 126.602839 107.067471 
L 127.066559 107.729779 
L 127.530278 106.548322 
L 127.993998 106.831316 
L 128.457717 106.269856 
L 128.921437 105.233432 
L 129.385156 101.492697 
L 129.848876 100.840464 
L 130.312595 101.477848 
L 130.776314 99.881303 
L 131.240034 101.739893 
L 131.703753 100.40145 
L 132.167473 61.094773 
L 132.631192 34.921381 
L 133.094912 36.883763 
L 133.558631 21.5161 
L 134.022351 31.685631 
L 134.48607 32.829977 
L 134.94979 27.669846 
L 135.413509 30.274852 
L 136.340948 43.058613 
L 136.804667 30.769489 
L 137.268387 46.140774 
L 137.732106 41.752038 
L 138.195826 29.058123 
L 138.659545 48.479481 
L 139.123265 39.567524 
L 139.586984 45.818602 
L 140.050704 34.596228 
L 140.514423 38.395461 
L 140.978143 41.048277 
L 141.441862 46.857531 
L 141.905582 35.403131 
L 142.369301 43.648951 
L 142.83302 47.331098 
L 143.29674 38.548455 
L 143.760459 47.462915 
L 144.224179 34.7112 
L 144.687898 103.092676 
L 145.151618 105.189289 
L 145.615337 105.159789 
L 146.079057 105.965559 
L 146.542776 107.928217 
L 147.006496 107.201616 
L 147.470215 103.834503 
L 147.933935 103.434291 
L 148.397654 102.685212 
L 148.861373 108.088531 
L 149.325093 105.884327 
L 149.788812 106.371211 
L 150.252532 106.04258 
L 150.716251 104.529953 
L 151.179971 99.307546 
L 152.10741 102.383167 
L 152.571129 99.894802 
L 153.034849 101.962987 
L 153.498568 104.867223 
L 153.962288 102.54585 
L 154.426007 103.140647 
L 154.889726 97.905134 
L 155.353446 98.844955 
L 155.817165 104.57494 
L 156.280885 100.802483 
L 156.744604 101.47004 
L 157.672043 98.895128 
L 158.135763 100.978132 
L 158.599482 100.060533 
L 159.063202 98.723006 
L 159.526921 100.868272 
L 159.990641 98.288403 
L 160.45436 99.784346 
L 160.918079 100.238279 
L 161.381799 97.488879 
L 161.845518 78.241537 
L 162.309238 96.052141 
L 162.772957 96.85311 
L 163.236677 99.173287 
L 163.700396 96.495307 
L 164.164116 104.799554 
L 164.627835 103.323107 
L 165.555274 106.930504 
L 166.018994 107.336748 
L 166.482713 105.869468 
L 166.946432 106.457197 
L 167.410152 105.965589 
L 167.873871 107.45921 
L 168.80131 106.26705 
L 169.26503 107.346135 
L 169.728749 106.190553 
L 170.192469 106.07911 
L 170.656188 106.675492 
L 171.119908 107.518378 
L 171.583627 106.300538 
L 172.047347 106.156475 
L 172.974785 107.029643 
L 173.438505 106.118097 
L 173.902224 106.199698 
L 174.365944 106.703884 
L 174.829663 105.818446 
L 175.293383 105.842364 
L 175.757102 106.805184 
L 176.220822 105.799277 
L 176.684541 110.514068 
L 177.148261 111.057232 
L 177.61198 110.431244 
L 178.0757 110.58702 
L 178.539419 111.379253 
L 179.003138 111.047906 
L 179.466858 110.392216 
L 179.930577 111.233437 
L 180.858016 110.506994 
L 181.321736 110.573541 
L 181.785455 111.503605 
L 182.712894 111.333784 
L 183.176614 110.52499 
L 184.567772 110.8429 
L 185.031491 111.280808 
L 185.495211 111.395719 
L 185.95893 110.399246 
L 186.886369 111.325957 
L 187.350089 110.972697 
L 187.813808 111.103782 
L 188.277528 111.459957 
L 188.741247 111.62781 
L 189.204967 105.2257 
L 189.668686 103.982783 
L 190.132406 105.417127 
L 190.596125 105.029688 
L 191.059844 106.176736 
L 191.523564 105.923603 
L 191.987283 105.461985 
L 192.451003 106.660058 
L 192.914722 104.683204 
L 193.378442 106.487372 
L 193.842161 13.318868 
L 194.305881 8.224432 
L 194.7696 6.439179 
L 195.23332 37.818106 
L 195.697039 54.611706 
L 196.160759 54.915247 
L 196.624478 54.88544 
L 197.088197 52.51355 
L 197.551917 54.804089 
L 198.015636 59.579473 
L 198.479356 58.259353 
L 198.943075 52.648365 
L 199.406795 52.505375 
L 199.870514 66.080082 
L 200.797953 49.6789 
L 201.261673 24.990992 
L 201.725392 13.590753 
L 202.189112 18.031849 
L 202.652831 7.124142 
L 203.11655 12.442793 
L 203.58027 20.849615 
L 204.043989 35.890376 
L 204.507709 31.940476 
L 204.971428 41.02735 
L 205.435148 38.483944 
L 205.898867 45.540221 
L 206.362587 56.29812 
L 206.826306 57.069012 
L 207.290026 52.932858 
L 207.753745 99.304137 
L 208.217465 99.167601 
L 208.681184 104.238849 
L 209.144903 107.178672 
L 209.608623 105.836387 
L 210.536062 105.836235 
L 210.999781 104.86231 
L 211.463501 104.690551 
L 211.92722 105.559642 
L 212.39094 105.891072 
L 212.854659 105.310001 
L 213.318379 105.382626 
L 213.782098 105.680437 
L 214.245818 106.585488 
L 214.709537 105.790354 
L 215.173256 105.830924 
L 215.636976 106.150067 
L 216.100695 105.276884 
L 216.564415 111.209759 
L 217.491854 111.112269 
L 217.955573 111.354242 
L 218.419293 111.167113 
L 218.883012 111.206639 
L 219.346732 111.024935 
L 220.274171 112.296978 
L 220.73789 110.891075 
L 221.201609 110.901628 
L 221.665329 111.06184 
L 222.129048 111.725676 
L 222.592768 111.068628 
L 223.056487 111.534128 
L 223.520207 111.447842 
L 224.447646 110.516052 
L 224.911365 110.494809 
L 225.375085 110.937679 
L 225.838804 110.204072 
L 226.302524 111.172114 
L 226.766243 110.605498 
L 227.229962 110.971265 
L 227.693682 110.52025 
L 228.157401 110.817269 
L 228.621121 111.541887 
L 229.08484 111.257132 
L 229.54856 111.777618 
L 229.54856 111.777618 
" clip-path="url(#p4b96a0f856)" style="fill: none; stroke: #808080; stroke-width: 0.5; stroke-linecap: square"/>
   </g>
   <g id="line2d_13">
    <path d="M 43.534917 91.642579 
L 44.08999 92.284247 
L 44.48647 92.454675 
L 44.803654 92.381976 
L 45.200134 92.026731 
L 45.67591 91.264832 
L 46.548166 89.334603 
L 47.420423 87.546971 
L 47.896199 87.001864 
L 48.213383 86.930844 
L 48.530567 87.120768 
L 49.006343 87.76025 
L 49.8786 89.480668 
L 50.750856 91.04302 
L 51.226632 91.483476 
L 51.543816 91.536114 
L 51.861 91.376927 
L 52.25748 90.888029 
L 52.812553 89.753163 
L 54.001993 86.545237 
L 54.715657 84.954054 
L 55.112137 84.456155 
L 55.429321 84.374369 
L 55.746506 84.566968 
L 56.142986 85.103409 
L 56.777354 86.407026 
L 58.204682 89.52423 
L 58.759755 90.184822 
L 59.235531 90.399824 
L 59.711307 90.365556 
L 60.980043 90.143557 
L 61.376524 90.389435 
L 61.773004 90.956577 
L 62.169484 91.948759 
L 63.993293 97.043908 
L 64.389773 97.551239 
L 64.706957 97.657822 
L 64.944845 97.534503 
L 65.262029 97.07035 
L 65.658509 95.976966 
L 66.134285 93.90549 
L 66.768653 89.977015 
L 67.64091 82.960871 
L 69.861199 64.298891 
L 70.495567 61.353817 
L 71.129935 59.335258 
L 72.002191 57.372561 
L 73.746704 54.105704 
L 74.22248 53.578865 
L 74.539664 53.453178 
L 74.856848 53.564331 
L 75.174032 53.96119 
L 75.570513 54.93689 
L 75.966993 56.549523 
L 76.997841 62.36074 
L 78.345874 69.730387 
L 78.980242 72.145123 
L 79.456018 73.240384 
L 79.852498 73.639972 
L 80.169682 73.636656 
L 80.486866 73.377142 
L 80.962642 72.597113 
L 81.676307 70.86139 
L 82.945043 67.695254 
L 83.341523 67.227196 
L 83.658707 67.150558 
L 84.055188 67.332696 
L 84.61026 67.928363 
L 85.958292 69.547113 
L 86.434068 69.719528 
L 86.830549 69.614766 
L 87.306325 69.227376 
L 89.050837 67.455353 
L 89.368021 67.486792 
L 89.685206 67.756025 
L 90.081686 68.497356 
L 90.716054 70.26883 
L 92.381271 75.208265 
L 92.857047 75.981435 
L 93.174231 76.204343 
L 93.491415 76.167894 
L 93.808599 75.870034 
L 94.205079 75.156294 
L 94.760151 73.640402 
L 95.791 69.996716 
L 96.742552 66.905811 
L 97.139032 66.126982 
L 97.456216 65.893358 
L 97.7734 65.947186 
L 98.169881 66.337881 
L 98.724953 67.315611 
L 100.945242 71.778387 
L 102.37257 73.889759 
L 102.927642 75.325044 
L 103.482714 77.506434 
L 104.117083 81.172349 
L 106.416667 95.331647 
L 107.051036 97.656556 
L 107.526812 98.600257 
L 107.843996 98.841157 
L 108.16118 98.795363 
L 108.478364 98.498716 
L 108.95414 97.680219 
L 109.747101 95.718575 
L 110.857245 93.041577 
L 111.253725 92.59724 
L 111.650205 92.482121 
L 112.125981 92.628488 
L 113.55331 93.330603 
L 113.94979 93.197318 
L 114.34627 92.798809 
L 114.822046 91.959806 
L 115.535711 90.122998 
L 117.042335 86.004805 
L 117.518111 85.288262 
L 117.835295 85.136922 
L 118.15248 85.294446 
L 118.54896 85.843215 
L 119.104032 87.076196 
L 121.245025 92.432182 
L 121.800097 93.051596 
L 122.355169 93.336434 
L 123.465313 93.786987 
L 123.861794 94.216938 
L 124.258274 94.944279 
L 124.73405 96.359692 
L 125.764898 99.640556 
L 126.31997 100.699056 
L 126.637155 100.943838 
L 126.875043 100.918576 
L 127.112931 100.691945 
L 127.430115 100.043466 
L 127.826595 98.621148 
L 128.302371 95.950785 
L 128.857443 91.496309 
L 129.571108 83.859232 
L 130.52266 71.136471 
L 132.822245 39.178776 
L 133.694501 31.316293 
L 134.804645 23.453702 
L 136.152678 15.403416 
L 136.945638 11.823749 
L 137.50071 10.284888 
L 137.817894 9.880016 
L 138.055783 9.841557 
L 138.293671 10.056193 
L 138.610855 10.780814 
L 139.086631 12.682383 
L 139.720999 16.296623 
L 140.672551 23.180052 
L 143.447912 43.958933 
L 144.558057 52.708108 
L 145.430313 61.522154 
L 147.729898 87.260507 
L 148.522858 93.32353 
L 149.07793 96.090021 
L 149.553707 97.419774 
L 149.870891 97.796376 
L 150.108779 97.834386 
L 150.346667 97.682726 
L 150.663851 97.219366 
L 151.139627 96.062354 
L 151.853291 93.61211 
L 153.042732 89.466585 
L 153.597804 88.526219 
L 154.152876 88.030329 
L 155.500909 87.084859 
L 155.976685 86.378846 
L 156.531757 85.160608 
L 157.483309 82.391237 
L 158.514158 79.576673 
L 158.989934 78.789076 
L 159.307118 78.569973 
L 159.545006 78.608768 
L 159.86219 78.909838 
L 160.337966 79.758423 
L 161.130927 81.781119 
L 162.320367 84.762691 
L 162.875439 85.568103 
L 163.271919 85.806689 
L 163.6684 85.778512 
L 164.144176 85.473349 
L 165.730096 84.202393 
L 166.04728 84.268138 
L 166.364465 84.566734 
L 166.760945 85.311992 
L 167.395313 87.08414 
L 169.298418 92.811235 
L 169.774194 93.517764 
L 170.170674 93.729014 
L 170.487858 93.655147 
L 170.884338 93.299365 
L 171.43941 92.447771 
L 172.946035 89.946179 
L 173.342515 89.733186 
L 173.659699 89.847704 
L 174.056179 90.310266 
L 174.611251 91.351381 
L 176.276468 94.718089 
L 176.672948 95.066049 
L 176.990132 95.130058 
L 177.307316 95.001921 
L 177.703797 94.600088 
L 178.338165 93.564226 
L 179.606901 91.385447 
L 180.003381 91.065908 
L 180.320565 91.063313 
L 180.63775 91.331189 
L 181.113526 92.128003 
L 181.906486 94.044909 
L 183.01663 96.670252 
L 183.492407 97.343342 
L 183.888887 97.577231 
L 184.206071 97.538814 
L 184.602551 97.232768 
L 185.157623 96.439865 
L 186.743544 93.898378 
L 187.140024 93.717456 
L 187.457208 93.828873 
L 189.043129 94.666874 
L 189.360313 94.509262 
L 189.677497 94.129589 
L 190.073977 93.272589 
L 190.549753 91.583308 
L 191.104825 88.609376 
L 191.739193 83.930712 
L 192.61145 75.75616 
L 195.386811 48.266733 
L 196.655547 39.771138 
L 198.082876 29.916833 
L 200.778941 10.207591 
L 201.334013 7.833548 
L 201.730493 7.046927 
L 201.968381 6.937121 
L 202.206269 7.070156 
L 202.523453 7.58801 
L 202.919933 8.713504 
L 203.475006 11.012458 
L 204.347262 15.781611 
L 205.536702 23.650311 
L 206.408959 30.786512 
L 207.201919 39.118087 
L 207.994879 50.004924 
L 210.215168 83.841199 
L 211.087424 93.402174 
L 211.721793 98.212245 
L 212.276865 100.832791 
L 212.673345 101.85219 
L 212.990529 102.212799 
L 213.228417 102.247897 
L 213.545601 102.019359 
L 213.942081 101.359176 
L 214.497153 99.907281 
L 215.686594 96.498537 
L 216.16237 95.952356 
L 216.638146 95.765954 
L 217.35181 95.799901 
L 217.986179 95.759174 
L 218.461955 95.480005 
L 218.937731 94.909779 
L 219.572099 93.751121 
L 220.999428 90.960016 
L 221.395908 90.579133 
L 221.713092 90.525619 
L 222.030276 90.758971 
L 222.426756 91.444752 
L 223.061124 93.061423 
L 224.647045 97.370625 
L 225.122821 98.080398 
L 225.519301 98.294709 
L 225.836485 98.199609 
L 226.232966 97.761856 
L 226.708742 96.842958 
L 227.501702 94.731209 
L 228.611846 91.819333 
L 229.087623 91.078312 
L 229.087623 91.078312 
" clip-path="url(#p4b96a0f856)" style="fill: none; stroke-dasharray: 1.4,2.31; stroke-dashoffset: 0; stroke: #ff0000; stroke-width: 1.4"/>
   </g>
   <g id="line2d_14">
    <path d="M 43.534917 120.841877 
L 44.169286 119.671701 
L 44.565766 119.302884 
L 44.88295 119.242409 
L 45.200134 119.38869 
L 45.596614 119.829619 
L 46.230982 120.958469 
L 47.579015 123.532383 
L 47.975495 123.90647 
L 48.292679 123.939961 
L 48.609863 123.708539 
L 49.085639 122.990223 
L 49.8786 121.248027 
L 50.909448 119.067083 
L 51.385224 118.482028 
L 51.781704 118.304704 
L 52.098888 118.37312 
L 52.495368 118.692927 
L 53.129737 119.581125 
L 54.319177 121.332825 
L 54.715657 121.584393 
L 55.032841 121.544845 
L 55.350025 121.247699 
L 55.825802 120.469247 
L 57.808202 116.78781 
L 58.125386 116.641767 
L 58.442571 116.729065 
L 58.759755 117.067107 
L 59.156235 117.839386 
L 59.711307 119.491942 
L 60.583563 122.951895 
L 61.931596 128.284535 
L 62.407372 129.401869 
L 62.724556 129.661555 
L 62.962444 129.637107 
L 63.279628 129.354812 
L 63.676108 128.670629 
L 64.310477 127.033579 
L 67.006542 118.707338 
L 67.720206 115.877443 
L 68.354574 112.417905 
L 68.988942 107.640646 
L 71.129935 89.439828 
L 71.843599 85.356478 
L 72.319375 83.631884 
L 72.715856 82.878553 
L 73.03304 82.725269 
L 73.270928 82.859985 
L 73.588112 83.345685 
L 73.984592 84.385066 
L 74.539664 86.482558 
L 75.491217 91.129572 
L 76.442769 95.597986 
L 76.997841 97.122689 
L 77.552913 98.038141 
L 78.266578 98.743397 
L 79.138834 99.60796 
L 79.773202 100.621217 
L 80.645458 102.543109 
L 81.597011 104.542752 
L 82.072787 105.120491 
L 82.389971 105.236224 
L 82.627859 105.143556 
L 82.945043 104.731818 
L 83.420819 103.62107 
L 84.372372 100.667575 
L 85.40322 97.711363 
L 85.878996 96.870252 
L 86.275476 96.558741 
L 86.59266 96.593553 
L 86.909845 96.880661 
L 87.306325 97.563602 
L 87.861397 98.99734 
L 90.081686 105.432664 
L 90.39887 105.704224 
L 90.716054 105.728189 
L 91.112534 105.493416 
L 91.667606 104.845715 
L 92.936343 103.2527 
L 93.412119 103.0293 
L 93.808599 103.078641 
L 94.284375 103.380463 
L 95.870296 104.638591 
L 96.18748 104.580776 
L 96.504664 104.301993 
L 96.821848 103.743223 
L 97.535512 101.776377 
L 98.804249 98.218252 
L 99.280025 97.399312 
L 99.676505 97.114291 
L 99.914393 97.152359 
L 100.231577 97.47258 
L 100.628057 98.323153 
L 101.103834 99.982619 
L 101.738202 103.110689 
L 102.76905 109.564905 
L 104.117083 117.943708 
L 104.751451 120.398382 
L 105.385819 121.951542 
L 106.178779 123.227099 
L 107.209628 124.883319 
L 108.002588 126.685875 
L 109.429917 130.067292 
L 109.905693 130.665275 
L 110.222877 130.773784 
L 110.460765 130.664707 
L 110.777949 130.216394 
L 111.253725 129.009584 
L 112.046685 126.259638 
L 113.474014 121.265983 
L 114.029086 120.048292 
L 114.425566 119.581987 
L 114.74275 119.45677 
L 115.059934 119.531651 
L 115.456415 119.85415 
L 116.170079 120.812961 
L 117.042335 121.956877 
L 117.438815 122.205956 
L 117.755999 122.176438 
L 118.15248 121.834194 
L 118.786848 120.870107 
L 119.976288 118.99814 
L 120.372768 118.709074 
L 120.689952 118.700171 
L 121.007137 118.925971 
L 121.403617 119.566113 
L 121.879393 120.851139 
L 122.513761 123.294254 
L 123.861794 129.741572 
L 124.73405 133.384397 
L 125.13053 134.232051 
L 125.368418 134.38052 
L 125.606306 134.28871 
L 125.92349 133.830558 
L 126.31997 132.787908 
L 126.875043 130.620585 
L 127.747299 126.102713 
L 129.016035 118.230018 
L 129.967588 110.913955 
L 130.760548 102.96836 
L 131.553508 92.511668 
L 133.615205 62.549213 
L 134.487461 53.112453 
L 135.12183 48.256059 
L 135.676902 45.530503 
L 136.152678 44.266023 
L 136.469862 43.90872 
L 136.787046 43.886899 
L 137.10423 44.152538 
L 137.50071 44.815135 
L 138.135079 46.411636 
L 139.562407 50.20214 
L 140.434663 52.542544 
L 141.069032 54.945644 
L 141.7034 58.354472 
L 142.337768 63.026115 
L 143.130728 70.640959 
L 144.320169 84.640795 
L 146.143977 106.228118 
L 146.936938 112.463163 
L 147.729898 117.01272 
L 148.840042 121.948564 
L 150.267371 127.383112 
L 150.901739 129.06301 
L 151.298219 129.648971 
L 151.615403 129.783407 
L 151.853291 129.656459 
L 152.170476 129.140665 
L 152.566956 127.862007 
L 153.359916 124.175337 
L 155.183725 115.40708 
L 155.818093 113.518422 
L 156.293869 112.765828 
L 156.611053 112.579363 
L 156.928237 112.61683 
L 157.324717 112.919618 
L 157.959086 113.783897 
L 159.06923 115.370339 
L 159.46571 115.611652 
L 159.782894 115.55062 
L 160.179374 115.199075 
L 160.813743 114.261791 
L 161.923887 112.590484 
L 162.399663 112.276922 
L 162.716847 112.303515 
L 163.034031 112.544827 
L 163.430512 113.15114 
L 163.985584 114.498004 
L 164.937136 117.594225 
L 165.967984 120.780886 
L 166.443761 121.717486 
L 166.840241 122.046819 
L 167.157425 122.055643 
L 167.553905 121.841561 
L 168.267569 121.123647 
L 169.060529 120.398932 
L 169.45701 120.279807 
L 169.85349 120.413049 
L 170.24997 120.823874 
L 170.725746 121.653431 
L 171.518706 123.555402 
L 172.549555 125.958858 
L 173.025331 126.618529 
L 173.342515 126.769301 
L 173.659699 126.643146 
L 174.056179 126.183708 
L 174.690547 125.016455 
L 176.03858 122.424781 
L 176.514356 121.992618 
L 176.83154 121.946117 
L 177.148724 122.106583 
L 177.545204 122.582915 
L 178.100277 123.661085 
L 180.003381 127.843938 
L 180.399861 128.122397 
L 180.717046 128.051843 
L 181.113526 127.680306 
L 181.747894 126.685793 
L 182.937334 124.736395 
L 183.413111 124.36963 
L 183.730295 124.352905 
L 184.047479 124.535766 
L 184.443959 125.034707 
L 184.999031 126.143004 
L 186.981432 130.560582 
L 187.298616 130.786 
L 187.536504 130.723079 
L 187.853688 130.302445 
L 188.250168 129.319872 
L 188.80524 127.275549 
L 189.677497 123.067112 
L 193.245818 103.950602 
L 193.959482 98.107823 
L 194.831739 88.809842 
L 197.052027 64.850208 
L 197.924284 58.027095 
L 198.637948 54.055117 
L 199.430908 50.946781 
L 202.602749 40.881415 
L 202.999229 40.349492 
L 203.316414 40.277496 
L 203.554302 40.461276 
L 203.871486 41.060523 
L 204.267966 42.436589 
L 204.743742 45.08207 
L 205.298814 49.567222 
L 206.012478 57.365403 
L 206.964031 70.537717 
L 209.422208 106.522834 
L 210.294464 114.738592 
L 211.404608 122.96252 
L 212.673345 130.73966 
L 213.387009 134.011952 
L 213.942081 135.600779 
L 214.259265 136.021857 
L 214.497153 136.067029 
L 214.735042 135.855056 
L 215.052226 135.128687 
L 215.686594 132.669507 
L 217.906883 123.46326 
L 218.382659 122.441366 
L 218.779139 122.042205 
L 219.096323 122.021468 
L 219.413507 122.24501 
L 219.809987 122.81458 
L 220.444356 124.191438 
L 221.95098 127.679431 
L 222.34746 128.081531 
L 222.664644 128.105073 
L 223.061124 127.855158 
L 223.616197 127.166288 
L 224.964229 125.341042 
L 225.360709 125.132491 
L 225.757189 125.174521 
L 226.15367 125.463579 
L 226.708742 126.19035 
L 228.13607 128.261001 
L 228.53255 128.453189 
L 228.849735 128.354707 
L 229.087623 128.096074 
L 229.087623 128.096074 
" clip-path="url(#p4b96a0f856)" style="fill: none; stroke-dasharray: 1.4,2.31; stroke-dashoffset: 0; stroke: #ff0000; stroke-width: 1.4"/>
   </g>
   <g id="patch_3">
    <path d="M 43.597056 139.988242 
L 43.597056 12.641765 
" style="fill: none; stroke: #000000; stroke-width: 0.8; stroke-linejoin: miter; stroke-linecap: square"/>
   </g>
   <g id="patch_4">
    <path d="M 229.08484 139.988242 
L 229.08484 12.641765 
" style="fill: none; stroke: #000000; stroke-width: 0.8; stroke-linejoin: miter; stroke-linecap: square"/>
   </g>
   <g id="patch_5">
    <path d="M 43.597056 139.988242 
L 229.08484 139.988242 
" style="fill: none; stroke: #000000; stroke-width: 0.8; stroke-linejoin: miter; stroke-linecap: square"/>
   </g>
   <g id="patch_6">
    <path d="M 43.597056 12.641765 
L 229.08484 12.641765 
" style="fill: none; stroke: #000000; stroke-width: 0.8; stroke-linejoin: miter; stroke-linecap: square"/>
   </g>
   <g id="text_14">
    <!-- Model: $Int\_Brown$ -->
    <g transform="translate(95.072761 6.641765) scale(0.096 -0.096)">
     <defs>
      <path id="CMR17-4d" d="M 1338 4224 
C 1299 4320 1293 4320 1158 4320 
L 339 4320 
L 339 4160 
C 781 4160 851 4160 851 3875 
L 851 610 
C 851 451 851 153 339 153 
L 339 -13 
C 486 0 755 0 915 0 
C 1075 0 1344 0 1491 -13 
L 1491 153 
C 979 153 979 451 979 610 
L 979 4135 
L 986 4135 
L 2490 89 
C 2515 25 2528 -13 2579 -13 
C 2630 -13 2643 25 2669 89 
L 4186 4166 
L 4192 4166 
L 4192 438 
C 4192 153 4122 153 3680 153 
L 3680 -13 
C 3853 0 4198 0 4384 0 
C 4570 0 4922 0 5094 -13 
L 5094 153 
C 4653 153 4582 153 4582 438 
L 4582 3875 
C 4582 4160 4653 4160 5094 4160 
L 5094 4320 
L 4282 4320 
C 4147 4320 4141 4314 4102 4218 
L 2720 502 
L 1338 4224 
z
" transform="scale(0.015625)"/>
      <path id="CMR17-6f" d="M 2758 1356 
C 2758 2176 2163 2816 1466 2816 
C 768 2816 173 2176 173 1356 
C 173 551 768 -64 1466 -64 
C 2163 -64 2758 551 2758 1356 
z
M 1466 51 
C 1165 51 909 230 762 480 
C 602 767 582 1126 582 1408 
C 582 1677 595 2010 762 2298 
C 890 2509 1139 2714 1466 2714 
C 1754 2714 1997 2554 2150 2330 
C 2349 2029 2349 1607 2349 1408 
C 2349 1158 2336 775 2163 467 
C 1984 173 1709 51 1466 51 
z
" transform="scale(0.015625)"/>
      <path id="CMR17-64" d="M 1869 4326 
L 1869 4160 
C 2246 4160 2304 4122 2304 3820 
L 2304 2345 
C 2278 2377 2016 2790 1498 2790 
C 845 2790 211 2208 211 1364 
C 211 525 806 -64 1434 -64 
C 1978 -64 2259 337 2291 380 
L 2291 -63 
L 3066 -63 
L 3066 128 
C 2688 128 2630 166 2630 473 
L 2630 4396 
L 1869 4326 
z
M 2291 755 
C 2291 563 2176 390 2029 262 
C 1811 70 1594 38 1472 38 
C 1286 38 621 134 621 1356 
C 621 2612 1363 2688 1530 2688 
C 1824 2688 2061 2522 2208 2291 
C 2291 2157 2291 2138 2291 2023 
L 2291 755 
z
" transform="scale(0.015625)"/>
      <path id="CMR17-3a" d="M 1062 2491 
C 1062 2650 934 2752 800 2752 
C 672 2752 538 2650 538 2491 
C 538 2332 666 2230 800 2230 
C 928 2230 1062 2332 1062 2491 
z
M 1062 261 
C 1062 420 934 522 800 522 
C 672 522 538 420 538 261 
C 538 102 666 0 800 0 
C 928 0 1062 102 1062 261 
z
" transform="scale(0.015625)"/>
      <path id="CMMI12-49" d="M 2355 3880 
C 2413 4103 2426 4167 2893 4167 
C 3034 4167 3085 4167 3085 4288 
C 3085 4352 3014 4352 2995 4352 
C 2880 4352 2739 4352 2624 4352 
L 1837 4352 
C 1709 4352 1562 4352 1434 4352 
C 1382 4352 1312 4352 1312 4231 
C 1312 4167 1363 4167 1491 4167 
C 1888 4167 1888 4116 1888 4046 
C 1888 4002 1875 3963 1862 3906 
L 998 472 
C 941 249 928 185 461 185 
C 320 185 262 185 262 64 
C 262 0 326 0 358 0 
C 474 0 614 0 730 0 
L 1517 0 
C 1645 0 1786 0 1914 0 
C 1965 0 2042 0 2042 115 
C 2042 185 2003 185 1862 185 
C 1466 185 1466 236 1466 312 
C 1466 325 1466 357 1491 459 
L 2355 3880 
z
" transform="scale(0.015625)"/>
      <path id="CMMI12-6e" d="M 1318 1871 
C 1331 1910 1491 2229 1728 2433 
C 1894 2586 2112 2689 2362 2689 
C 2618 2689 2707 2497 2707 2242 
C 2707 1878 2445 1150 2317 805 
C 2259 651 2227 568 2227 453 
C 2227 166 2426 -64 2733 -64 
C 3328 -64 3552 875 3552 913 
C 3552 945 3526 971 3488 971 
C 3430 971 3424 952 3392 843 
C 3245 319 3002 64 2752 64 
C 2688 64 2586 64 2586 269 
C 2586 429 2656 621 2694 710 
C 2822 1063 3091 1780 3091 2145 
C 3091 2528 2867 2816 2381 2816 
C 1811 2816 1510 2415 1395 2255 
C 1376 2618 1114 2816 832 2816 
C 627 2816 486 2695 378 2478 
C 262 2248 173 1865 173 1839 
C 173 1814 198 1782 243 1782 
C 294 1782 301 1788 339 1935 
C 442 2325 557 2689 813 2689 
C 960 2689 1011 2586 1011 2395 
C 1011 2254 947 2005 902 1807 
L 723 1118 
C 698 996 627 709 595 594 
C 550 428 480 128 480 96 
C 480 6 550 -64 646 -64 
C 723 -64 813 -26 864 70 
C 877 102 934 326 966 453 
L 1107 1028 
L 1318 1871 
z
" transform="scale(0.015625)"/>
      <path id="CMMI12-42" d="M 2342 3921 
C 2400 4160 2426 4160 2675 4160 
L 3507 4160 
C 4230 4160 4230 3544 4230 3485 
C 4230 2966 3712 2304 2867 2304 
L 1946 2304 
L 2342 3921 
z
M 3424 2275 
C 4122 2402 4755 2886 4755 3473 
C 4755 3970 4314 4352 3590 4352 
L 1536 4352 
C 1414 4352 1357 4352 1357 4226 
C 1357 4160 1414 4160 1510 4160 
C 1901 4160 1901 4112 1901 4044 
C 1901 4032 1901 3993 1875 3897 
L 1011 472 
C 954 249 941 185 493 185 
C 371 185 307 185 307 70 
C 307 0 346 0 474 0 
L 2669 0 
C 3648 0 4403 739 4403 1383 
C 4403 1906 3942 2224 3424 2275 
z
M 2515 185 
L 1651 185 
C 1562 185 1549 185 1510 192 
C 1440 198 1434 211 1434 261 
C 1434 305 1446 343 1459 399 
L 1907 2176 
L 3110 2176 
C 3866 2176 3866 1483 3866 1433 
C 3866 828 3309 185 2515 185 
z
" transform="scale(0.015625)"/>
      <path id="CMMI12-72" d="M 2490 2612 
C 2291 2574 2189 2433 2189 2293 
C 2189 2139 2310 2088 2400 2088 
C 2579 2088 2726 2242 2726 2433 
C 2726 2638 2528 2816 2208 2816 
C 1952 2816 1658 2701 1389 2312 
C 1344 2650 1088 2816 832 2816 
C 582 2816 454 2625 378 2484 
C 269 2254 173 1871 173 1839 
C 173 1814 198 1782 243 1782 
C 294 1782 301 1788 339 1935 
C 435 2318 557 2689 813 2689 
C 966 2689 1011 2580 1011 2395 
C 1011 2254 947 2005 902 1807 
L 723 1118 
C 698 996 627 709 595 594 
C 550 428 480 128 480 96 
C 480 6 550 -64 646 -64 
C 717 -64 838 -19 877 109 
C 896 160 1133 1124 1171 1271 
C 1203 1411 1242 1546 1274 1686 
C 1299 1775 1325 1878 1344 1961 
C 1363 2018 1536 2331 1696 2472 
C 1773 2542 1939 2689 2202 2689 
C 2304 2689 2406 2670 2490 2612 
z
" transform="scale(0.015625)"/>
      <path id="CMMI12-6f" d="M 2918 1756 
C 2918 2363 2522 2816 1939 2816 
C 1094 2816 262 1897 262 996 
C 262 390 659 -64 1242 -64 
C 2093 -64 2918 856 2918 1756 
z
M 1248 64 
C 928 64 691 319 691 766 
C 691 1060 845 1712 1024 2031 
C 1312 2523 1670 2689 1933 2689 
C 2246 2689 2490 2433 2490 1986 
C 2490 1731 2355 1047 2112 658 
C 1850 230 1498 64 1248 64 
z
" transform="scale(0.015625)"/>
      <path id="CMMI12-77" d="M 2202 390 
C 2342 6 2739 -64 2982 -64 
C 3469 -64 3757 358 3936 798 
C 4083 1169 4320 2012 4320 2389 
C 4320 2778 4122 2816 4064 2816 
C 3910 2816 3770 2663 3770 2535 
C 3770 2459 3814 2414 3846 2389 
C 3904 2331 4070 2159 4070 1827 
C 4070 1609 3891 1009 3757 709 
C 3578 319 3341 64 3008 64 
C 2650 64 2534 332 2534 626 
C 2534 811 2592 1035 2618 1143 
L 2886 2216 
C 2918 2344 2976 2567 2976 2593 
C 2976 2689 2899 2753 2803 2753 
C 2618 2753 2573 2593 2534 2440 
C 2470 2191 2202 1111 2176 971 
C 2150 862 2150 792 2150 651 
C 2150 498 1946 255 1939 243 
C 1869 172 1766 64 1568 64 
C 1062 64 1062 543 1062 651 
C 1062 856 1107 1137 1395 1897 
C 1472 2095 1504 2178 1504 2305 
C 1504 2574 1312 2816 998 2816 
C 410 2816 173 1890 173 1839 
C 173 1814 198 1782 243 1782 
C 301 1782 307 1807 333 1896 
C 493 2454 742 2682 979 2682 
C 1043 2682 1146 2682 1146 2478 
C 1146 2446 1146 2312 1037 2031 
C 736 1233 672 971 672 728 
C 672 57 1222 -64 1549 -64 
C 1658 -64 1946 -64 2202 390 
z
" transform="scale(0.015625)"/>
     </defs>
     <use xlink:href="#CMR17-4d" transform="scale(0.996264)"/>
     <use xlink:href="#CMR17-6f" transform="translate(84.686941 0) scale(0.996264)"/>
     <use xlink:href="#CMR17-64" transform="translate(132.979856 0) scale(0.996264)"/>
     <use xlink:href="#CMR17-65" transform="translate(183.875226 0) scale(0.996264)"/>
     <use xlink:href="#CMR17-6c" transform="translate(224.360887 0) scale(0.996264)"/>
     <use xlink:href="#CMR17-3a" transform="translate(249.231945 0) scale(0.996264)"/>
     <use xlink:href="#CMMI12-49" transform="translate(314.588664 0) scale(0.996264)"/>
     <use xlink:href="#CMMI12-6e" transform="translate(365.445178 0) scale(0.996264)"/>
     <use xlink:href="#CMMI12-74" transform="translate(423.675225 0) scale(0.996264)"/>
     <use xlink:href="#CMMI12-42" transform="translate(491.798775 0) scale(0.996264)"/>
     <use xlink:href="#CMMI12-72" transform="translate(570.934299 0) scale(0.996264)"/>
     <use xlink:href="#CMMI12-6f" transform="translate(617.604911 0) scale(0.996264)"/>
     <use xlink:href="#CMMI12-77" transform="translate(664.50022 0) scale(0.996264)"/>
     <use xlink:href="#CMMI12-6e" transform="translate(736.913135 0) scale(0.996264)"/>
     <path d="M 464.384185 0 
L 491.798775 0 
L 491.798775 0.3985 
L 464.384185 0.3985 
L 464.384185 0 
z
"/>
    </g>
   </g>
   <g id="legend_1">
    <g id="patch_7">
     <path d="M 47.797056 42.528704 
L 147.01261 42.528704 
Q 148.21261 42.528704 148.21261 41.328704 
L 148.21261 16.841765 
Q 148.21261 15.641765 147.01261 15.641765 
L 47.797056 15.641765 
Q 46.597056 15.641765 46.597056 16.841765 
L 46.597056 41.328704 
Q 46.597056 42.528704 47.797056 42.528704 
z
" style="fill: #ffffff; opacity: 0.8; stroke: #cccccc; stroke-width: 0.24; stroke-linejoin: miter"/>
    </g>
    <g id="line2d_15">
     <path d="M 48.997056 20.141765 
L 54.997056 20.141765 
L 60.997056 20.141765 
" style="fill: none; stroke: #808080; stroke-width: 0.5; stroke-linecap: square"/>
    </g>
    <g id="text_15">
     <!-- Non-Integrated GT Data -->
     <g transform="translate(65.797056 22.241765) scale(0.06 -0.06)">
      <defs>
       <path id="CMR17-4e" d="M 1312 4250 
C 1267 4320 1261 4320 1139 4320 
L 326 4320 
L 326 4160 
L 448 4160 
C 704 4160 819 4129 838 4122 
L 838 610 
C 838 451 838 153 326 153 
L 326 -13 
C 474 0 742 0 902 0 
C 1062 0 1331 0 1478 -13 
L 1478 153 
C 966 153 966 451 966 610 
L 966 4033 
C 1011 3995 1011 3982 1056 3919 
L 3430 76 
C 3475 0 3494 0 3526 0 
C 3590 0 3590 19 3590 139 
L 3590 3705 
C 3590 3863 3590 4160 4102 4160 
L 4102 4326 
C 3955 4320 3686 4320 3526 4320 
C 3366 4320 3098 4320 2950 4326 
L 2950 4160 
C 3462 4160 3462 3862 3462 3703 
L 3462 763 
L 1312 4250 
z
" transform="scale(0.015625)"/>
       <path id="CMR17-6e" d="M 2656 1933 
C 2656 2259 2592 2790 1837 2790 
C 1331 2790 1069 2400 973 2144 
L 966 2144 
L 966 2790 
L 211 2720 
L 211 2554 
C 589 2554 646 2515 646 2208 
L 646 428 
C 646 184 621 153 211 153 
L 211 -13 
C 365 0 646 0 813 0 
C 979 0 1267 0 1421 -13 
L 1421 153 
C 1011 153 986 178 986 428 
L 986 1658 
C 986 2247 1344 2688 1792 2688 
C 2266 2688 2317 2266 2317 1958 
L 2317 428 
C 2317 184 2291 153 1882 153 
L 1882 -13 
C 2035 0 2317 0 2483 0 
C 2650 0 2938 0 3091 -13 
L 3091 153 
C 2682 153 2656 178 2656 428 
L 2656 1933 
z
" transform="scale(0.015625)"/>
       <path id="CMR17-49" d="M 1261 3905 
C 1261 4192 1338 4192 1798 4192 
L 1798 4352 
C 1594 4352 1267 4352 1050 4352 
C 832 4352 506 4352 301 4352 
L 301 4192 
C 762 4192 838 4192 838 3905 
L 838 447 
C 838 160 762 160 301 160 
L 301 0 
C 506 0 832 0 1050 0 
C 1267 0 1594 0 1798 0 
L 1798 160 
C 1338 160 1261 160 1261 447 
L 1261 3905 
z
" transform="scale(0.015625)"/>
       <path id="CMR17-47" d="M 3974 1233 
C 3974 1473 3994 1505 4390 1505 
L 4390 1670 
C 4237 1664 3891 1664 3718 1664 
C 3539 1664 3040 1664 2797 1664 
L 2797 1505 
L 2989 1505 
C 3539 1505 3552 1434 3552 1201 
L 3552 774 
C 3552 63 2720 63 2522 63 
C 1862 63 781 511 781 2160 
C 781 3808 1843 4250 2464 4250 
C 3187 4250 3712 3626 3834 2741 
C 3846 2664 3846 2651 3904 2651 
C 3974 2651 3974 2664 3974 2779 
L 3974 4288 
C 3974 4402 3968 4409 3930 4409 
C 3904 4409 3898 4402 3853 4326 
L 3571 3791 
C 3258 4187 2874 4416 2381 4416 
C 1286 4416 294 3456 294 2148 
C 294 845 1267 -128 2394 -128 
C 2912 -128 3418 56 3616 417 
C 3725 158 3904 -20 3936 -20 
C 3968 -20 3974 -13 3974 100 
L 3974 1233 
z
" transform="scale(0.015625)"/>
       <path id="CMR17-54" d="M 3981 4326 
L 288 4326 
L 179 2918 
L 294 2918 
C 378 3976 467 4160 1453 4160 
C 1568 4160 1754 4160 1805 4154 
C 1926 4135 1926 4058 1926 3912 
L 1926 459 
C 1926 230 1907 160 1376 160 
L 1197 160 
L 1197 0 
C 1504 0 1824 0 2138 0 
C 2451 0 2771 0 3078 0 
L 3078 160 
L 2899 160 
C 2368 160 2349 230 2349 459 
L 2349 3912 
C 2349 4052 2349 4129 2464 4154 
C 2515 4160 2701 4160 2816 4160 
C 3795 4160 3891 3976 3974 2918 
L 4090 2918 
L 3981 4326 
z
" transform="scale(0.015625)"/>
       <path id="CMR17-44" d="M 333 4352 
L 333 4186 
C 774 4186 845 4186 845 3900 
L 845 452 
C 845 166 774 166 333 166 
L 333 0 
L 2368 0 
C 3398 0 4224 943 4224 2141 
C 4224 3346 3411 4352 2368 4352 
L 333 4352 
z
M 1523 166 
C 1267 166 1254 197 1254 414 
L 1254 3938 
C 1254 4155 1267 4186 1523 4186 
L 2240 4186 
C 2771 4186 3750 3874 3750 2141 
C 3750 1242 3488 879 3366 707 
C 3213 510 2848 166 2240 166 
L 1523 166 
z
" transform="scale(0.015625)"/>
      </defs>
      <use xlink:href="#CMR17-4e" transform="scale(0.996264)"/>
      <use xlink:href="#CMR17-6f" transform="translate(69.07243 0) scale(0.996264)"/>
      <use xlink:href="#CMR17-6e" transform="translate(114.762907 0) scale(0.996264)"/>
      <use xlink:href="#CMR17-2d" transform="translate(165.658277 0) scale(0.996264)"/>
      <use xlink:href="#CMR17-49" transform="translate(195.734243 0) scale(0.996264)"/>
      <use xlink:href="#CMR17-6e" transform="translate(228.372652 0) scale(0.996264)"/>
      <use xlink:href="#CMR17-74" transform="translate(276.665568 0) scale(0.996264)"/>
      <use xlink:href="#CMR17-65" transform="translate(311.946336 0) scale(0.996264)"/>
      <use xlink:href="#CMR17-67" transform="translate(352.431996 0) scale(0.996264)"/>
      <use xlink:href="#CMR17-72" transform="translate(398.122473 0) scale(0.996264)"/>
      <use xlink:href="#CMR17-61" transform="translate(433.403241 0) scale(0.996264)"/>
      <use xlink:href="#CMR17-74" transform="translate(479.093718 0) scale(0.996264)"/>
      <use xlink:href="#CMR17-65" transform="translate(514.374486 0) scale(0.996264)"/>
      <use xlink:href="#CMR17-64" transform="translate(554.860147 0) scale(0.996264)"/>
      <use xlink:href="#CMR17-47" transform="translate(635.831483 0) scale(0.996264)"/>
      <use xlink:href="#CMR17-54" transform="translate(708.186829 0) scale(0.996264)"/>
      <use xlink:href="#CMR17-44" transform="translate(804.772676 0) scale(0.996264)"/>
      <use xlink:href="#CMR17-61" transform="translate(875.166231 0) scale(0.996264)"/>
      <use xlink:href="#CMR17-74" transform="translate(920.856709 0) scale(0.996264)"/>
      <use xlink:href="#CMR17-61" transform="translate(956.137476 0) scale(0.996264)"/>
     </g>
    </g>
    <g id="PathCollection_2">
     <g>
      <use xlink:href="#mc2a719b7b3" x="54.997056" y="29.029078" style="fill: #0000ff; stroke: #0000ff; stroke-width: 0.75"/>
     </g>
    </g>
    <g id="text_16">
     <!-- Measurements -->
     <g transform="translate(65.797056 30.604078) scale(0.06 -0.06)">
      <defs>
       <path id="CMR17-73" d="M 1978 2697 
C 1978 2813 1971 2819 1933 2819 
C 1907 2819 1901 2813 1824 2717 
C 1805 2691 1747 2626 1728 2601 
C 1523 2819 1235 2819 1126 2819 
C 416 2819 160 2447 160 2076 
C 160 1498 813 1365 998 1325 
C 1402 1243 1542 1217 1677 1101 
C 1760 1025 1901 884 1901 654 
C 1901 384 1747 38 1158 38 
C 602 38 403 460 288 1021 
C 269 1110 269 1117 218 1117 
C 166 1117 160 1110 160 983 
L 160 63 
C 160 -51 166 -58 205 -58 
C 237 -58 243 -51 275 0 
C 314 57 410 211 448 276 
C 576 103 800 -64 1158 -64 
C 1792 -64 2131 283 2131 784 
C 2131 1112 1958 1285 1875 1362 
C 1683 1561 1459 1606 1190 1657 
C 838 1735 390 1825 390 2217 
C 390 2383 480 2737 1126 2737 
C 1811 2737 1850 2094 1862 1888 
C 1869 1856 1901 1849 1920 1849 
C 1978 1849 1978 1869 1978 1978 
L 1978 2697 
z
" transform="scale(0.015625)"/>
       <path id="CMR17-75" d="M 1882 2693 
L 1882 2528 
C 2259 2528 2317 2489 2317 2186 
L 2317 1032 
C 2317 500 2029 38 1555 38 
C 1030 38 986 348 986 678 
L 986 2763 
L 211 2693 
L 211 2528 
C 467 2528 640 2528 646 2274 
L 646 1058 
C 646 633 646 361 813 183 
C 896 101 1056 -64 1517 -64 
C 2061 -64 2272 377 2323 506 
L 2330 506 
L 2330 -63 
L 3091 -63 
L 3091 128 
C 2714 128 2656 166 2656 473 
L 2656 2763 
L 1882 2693 
z
" transform="scale(0.015625)"/>
      </defs>
      <use xlink:href="#CMR17-4d" transform="scale(0.996264)"/>
      <use xlink:href="#CMR17-65" transform="translate(84.686941 0) scale(0.996264)"/>
      <use xlink:href="#CMR17-61" transform="translate(125.172601 0) scale(0.996264)"/>
      <use xlink:href="#CMR17-73" transform="translate(170.863078 0) scale(0.996264)"/>
      <use xlink:href="#CMR17-75" transform="translate(206.664416 0) scale(0.996264)"/>
      <use xlink:href="#CMR17-72" transform="translate(257.559786 0) scale(0.996264)"/>
      <use xlink:href="#CMR17-65" transform="translate(292.840553 0) scale(0.996264)"/>
      <use xlink:href="#CMR17-6d" transform="translate(333.326214 0) scale(0.996264)"/>
      <use xlink:href="#CMR17-65" transform="translate(410.245804 0) scale(0.996264)"/>
      <use xlink:href="#CMR17-6e" transform="translate(450.731464 0) scale(0.996264)"/>
      <use xlink:href="#CMR17-74" transform="translate(499.02438 0) scale(0.996264)"/>
      <use xlink:href="#CMR17-73" transform="translate(534.305148 0) scale(0.996264)"/>
     </g>
    </g>
    <g id="line2d_16">
     <path d="M 48.997056 36.866391 
L 54.997056 36.866391 
L 60.997056 36.866391 
" style="fill: none; stroke-dasharray: 1.4,2.31; stroke-dashoffset: 0; stroke: #ff0000; stroke-width: 1.4"/>
    </g>
    <g id="text_17">
     <!-- $std_{est}$ -->
     <g transform="translate(65.797056 38.966391) scale(0.06 -0.06)">
      <defs>
       <path id="CMMI12-73" d="M 1459 1280 
C 1568 1261 1741 1223 1779 1216 
C 1862 1192 2150 1090 2150 783 
C 2150 586 1971 70 1229 70 
C 1094 70 614 70 486 436 
C 742 404 870 603 870 745 
C 870 880 781 950 653 950 
C 512 950 326 841 326 552 
C 326 173 710 -64 1222 -64 
C 2195 -64 2483 651 2483 984 
C 2483 1079 2483 1258 2278 1462 
C 2118 1616 1965 1648 1619 1718 
C 1446 1756 1171 1814 1171 2101 
C 1171 2229 1286 2689 1894 2689 
C 2163 2689 2426 2589 2490 2368 
C 2208 2368 2195 2125 2195 2119 
C 2195 1984 2317 1946 2374 1946 
C 2464 1946 2643 2015 2643 2281 
C 2643 2545 2400 2816 1901 2816 
C 1062 2816 838 2160 838 1899 
C 838 1414 1312 1312 1459 1280 
z
" transform="scale(0.015625)"/>
       <path id="CMMI12-64" d="M 3219 4257 
C 3226 4282 3238 4320 3238 4352 
C 3238 4416 3174 4416 3162 4416 
C 3155 4416 2842 4388 2810 4380 
C 2701 4373 2605 4358 2490 4358 
C 2330 4345 2285 4339 2285 4224 
C 2285 4160 2336 4160 2426 4160 
C 2739 4160 2746 4103 2746 4040 
C 2746 4002 2733 3952 2726 3933 
L 2336 2395 
C 2266 2561 2093 2816 1760 2816 
C 1037 2816 256 1884 256 939 
C 256 307 627 -64 1062 -64 
C 1414 -64 1715 211 1894 422 
C 1958 45 2259 -64 2451 -64 
C 2643 -64 2797 51 2912 281 
C 3014 498 3104 888 3104 913 
C 3104 945 3078 971 3040 971 
C 2982 971 2976 939 2950 843 
C 2854 466 2733 64 2470 64 
C 2285 64 2272 229 2272 357 
C 2272 382 2272 515 2317 694 
L 3219 4257 
z
M 1926 760 
C 1894 651 1894 639 1805 517 
C 1664 338 1382 64 1082 64 
C 819 64 672 300 672 677 
C 672 1028 870 1743 992 2012 
C 1210 2459 1510 2689 1760 2689 
C 2182 2689 2266 2165 2266 2114 
C 2266 2108 2246 2024 2240 2012 
L 1926 760 
z
" transform="scale(0.015625)"/>
       <path id="CMMI12-65" d="M 1146 1479 
C 1318 1479 1754 1479 2061 1595 
C 2547 1783 2592 2158 2592 2274 
C 2592 2558 2349 2816 1926 2816 
C 1254 2816 288 2210 288 1073 
C 288 402 672 -64 1254 -64 
C 2125 -64 2675 609 2675 692 
C 2675 730 2637 762 2611 762 
C 2592 762 2586 756 2528 699 
C 2118 159 1510 64 1267 64 
C 902 64 710 350 710 822 
C 710 911 710 1071 806 1479 
L 1146 1479 
z
M 838 1600 
C 1114 2592 1722 2689 1926 2689 
C 2208 2689 2400 2522 2400 2277 
C 2400 1600 1376 1600 1107 1600 
L 838 1600 
z
" transform="scale(0.015625)"/>
      </defs>
      <use xlink:href="#CMMI12-73" transform="scale(0.996264)"/>
      <use xlink:href="#CMMI12-74" transform="translate(45.950048 0) scale(0.996264)"/>
      <use xlink:href="#CMMI12-64" transform="translate(81.176378 0) scale(0.996264)"/>
      <use xlink:href="#CMMI12-65" transform="translate(131.865475 -14.943915) scale(0.697382)"/>
      <use xlink:href="#CMMI12-73" transform="translate(163.513731 -14.943915) scale(0.697382)"/>
      <use xlink:href="#CMMI12-74" transform="translate(195.67862 -14.943915) scale(0.697382)"/>
     </g>
    </g>
   </g>
  </g>
 </g>
 <defs>
  <clipPath id="p4b96a0f856">
   <rect x="43.597056" y="12.641765" width="185.487785" height="127.346477"/>
  </clipPath>
 </defs>
</svg>
