<?xml version="1.0" encoding="utf-8" standalone="no"?>
<!DOCTYPE svg PUBLIC "-//W3C//DTD SVG 1.1//EN"
  "http://www.w3.org/Graphics/SVG/1.1/DTD/svg11.dtd">
<svg xmlns:xlink="http://www.w3.org/1999/xlink" width="222.498334pt" height="169.028466pt" viewBox="0 0 222.498334 169.028466" xmlns="http://www.w3.org/2000/svg" version="1.1">
 <metadata>
  <rdf:RDF xmlns:dc="http://purl.org/dc/elements/1.1/" xmlns:cc="http://creativecommons.org/ns#" xmlns:rdf="http://www.w3.org/1999/02/22-rdf-syntax-ns#">
   <cc:Work>
    <dc:type rdf:resource="http://purl.org/dc/dcmitype/StillImage"/>
    <dc:date>2023-10-27T18:14:55.774606</dc:date>
    <dc:format>image/svg+xml</dc:format>
    <dc:creator>
     <cc:Agent>
      <dc:title>Matplotlib v3.7.3, https://matplotlib.org/</dc:title>
     </cc:Agent>
    </dc:creator>
   </cc:Work>
  </rdf:RDF>
 </metadata>
 <defs>
  <style type="text/css">*{stroke-linejoin: round; stroke-linecap: butt}</style>
 </defs>
 <g id="figure_1">
  <g id="patch_1">
   <path d="M 0 169.028466 
L 222.498334 169.028466 
L 222.498334 0 
L 0 0 
L 0 169.028466 
z
" style="fill: none"/>
  </g>
  <g id="axes_1">
   <g id="patch_2">
    <path d="M 37.010549 139.988242 
L 222.498334 139.988242 
L 222.498334 12.641765 
L 37.010549 12.641765 
L 37.010549 139.988242 
z
" style="fill: none"/>
   </g>
   <g id="PathCollection_1">
    <defs>
     <path id="mf283905acb" d="M -2.8 2.8 
L 2.8 -2.8 
M -2.8 -2.8 
L 2.8 2.8 
" style="stroke: #0000ff; stroke-width: 0.75"/>
    </defs>
    <g clip-path="url(#p2a5dc3ef1b)">
     <use xlink:href="#mf283905acb" x="-1" y="104.408386" style="fill: #0000ff; stroke: #0000ff; stroke-width: 0.75"/>
     <use xlink:href="#mf283905acb" x="3.390888" y="105.396823" style="fill: #0000ff; stroke: #0000ff; stroke-width: 0.75"/>
     <use xlink:href="#mf283905acb" x="10.34668" y="103.872947" style="fill: #0000ff; stroke: #0000ff; stroke-width: 0.75"/>
     <use xlink:href="#mf283905acb" x="17.302472" y="101.048474" style="fill: #0000ff; stroke: #0000ff; stroke-width: 0.75"/>
     <use xlink:href="#mf283905acb" x="24.258264" y="70.196299" style="fill: #0000ff; stroke: #0000ff; stroke-width: 0.75"/>
     <use xlink:href="#mf283905acb" x="31.214056" y="85.551097" style="fill: #0000ff; stroke: #0000ff; stroke-width: 0.75"/>
     <use xlink:href="#mf283905acb" x="38.169848" y="86.507452" style="fill: #0000ff; stroke: #0000ff; stroke-width: 0.75"/>
     <use xlink:href="#mf283905acb" x="45.12564" y="20.345493" style="fill: #0000ff; stroke: #0000ff; stroke-width: 0.75"/>
     <use xlink:href="#mf283905acb" x="52.081432" y="69.475645" style="fill: #0000ff; stroke: #0000ff; stroke-width: 0.75"/>
     <use xlink:href="#mf283905acb" x="59.037223" y="45.115751" style="fill: #0000ff; stroke: #0000ff; stroke-width: 0.75"/>
     <use xlink:href="#mf283905acb" x="65.993015" y="98.553247" style="fill: #0000ff; stroke: #0000ff; stroke-width: 0.75"/>
     <use xlink:href="#mf283905acb" x="72.948807" y="89.973228" style="fill: #0000ff; stroke: #0000ff; stroke-width: 0.75"/>
     <use xlink:href="#mf283905acb" x="79.904599" y="36.951659" style="fill: #0000ff; stroke: #0000ff; stroke-width: 0.75"/>
     <use xlink:href="#mf283905acb" x="86.860391" y="103.663941" style="fill: #0000ff; stroke: #0000ff; stroke-width: 0.75"/>
     <use xlink:href="#mf283905acb" x="93.816183" y="80.114361" style="fill: #0000ff; stroke: #0000ff; stroke-width: 0.75"/>
     <use xlink:href="#mf283905acb" x="100.771975" y="72.527332" style="fill: #0000ff; stroke: #0000ff; stroke-width: 0.75"/>
     <use xlink:href="#mf283905acb" x="107.727767" y="28.91717" style="fill: #0000ff; stroke: #0000ff; stroke-width: 0.75"/>
     <use xlink:href="#mf283905acb" x="114.683559" y="52.673229" style="fill: #0000ff; stroke: #0000ff; stroke-width: 0.75"/>
     <use xlink:href="#mf283905acb" x="121.639351" y="106.832961" style="fill: #0000ff; stroke: #0000ff; stroke-width: 0.75"/>
     <use xlink:href="#mf283905acb" x="128.595143" y="104.283174" style="fill: #0000ff; stroke: #0000ff; stroke-width: 0.75"/>
     <use xlink:href="#mf283905acb" x="135.550935" y="110.946079" style="fill: #0000ff; stroke: #0000ff; stroke-width: 0.75"/>
     <use xlink:href="#mf283905acb" x="142.506727" y="109.383365" style="fill: #0000ff; stroke: #0000ff; stroke-width: 0.75"/>
     <use xlink:href="#mf283905acb" x="149.462518" y="107.406892" style="fill: #0000ff; stroke: #0000ff; stroke-width: 0.75"/>
     <use xlink:href="#mf283905acb" x="156.41831" y="110.059572" style="fill: #0000ff; stroke: #0000ff; stroke-width: 0.75"/>
     <use xlink:href="#mf283905acb" x="163.374102" y="106.139555" style="fill: #0000ff; stroke: #0000ff; stroke-width: 0.75"/>
     <use xlink:href="#mf283905acb" x="170.329894" y="109.391123" style="fill: #0000ff; stroke: #0000ff; stroke-width: 0.75"/>
     <use xlink:href="#mf283905acb" x="177.285686" y="98.832525" style="fill: #0000ff; stroke: #0000ff; stroke-width: 0.75"/>
     <use xlink:href="#mf283905acb" x="184.241478" y="77.881619" style="fill: #0000ff; stroke: #0000ff; stroke-width: 0.75"/>
     <use xlink:href="#mf283905acb" x="191.19727" y="25.802366" style="fill: #0000ff; stroke: #0000ff; stroke-width: 0.75"/>
     <use xlink:href="#mf283905acb" x="198.153062" y="13.941617" style="fill: #0000ff; stroke: #0000ff; stroke-width: 0.75"/>
     <use xlink:href="#mf283905acb" x="205.108854" y="54.137071" style="fill: #0000ff; stroke: #0000ff; stroke-width: 0.75"/>
     <use xlink:href="#mf283905acb" x="212.064646" y="81.210341" style="fill: #0000ff; stroke: #0000ff; stroke-width: 0.75"/>
     <use xlink:href="#mf283905acb" x="219.020438" y="61.126264" style="fill: #0000ff; stroke: #0000ff; stroke-width: 0.75"/>
     <use xlink:href="#mf283905acb" x="225.97623" y="28.541974" style="fill: #0000ff; stroke: #0000ff; stroke-width: 0.75"/>
     <use xlink:href="#mf283905acb" x="232.932022" y="89.465282" style="fill: #0000ff; stroke: #0000ff; stroke-width: 0.75"/>
     <use xlink:href="#mf283905acb" x="239.887813" y="111.296845" style="fill: #0000ff; stroke: #0000ff; stroke-width: 0.75"/>
     <use xlink:href="#mf283905acb" x="246.843605" y="99.814334" style="fill: #0000ff; stroke: #0000ff; stroke-width: 0.75"/>
     <use xlink:href="#mf283905acb" x="253.799397" y="97.401994" style="fill: #0000ff; stroke: #0000ff; stroke-width: 0.75"/>
     <use xlink:href="#mf283905acb" x="260.755189" y="98.074089" style="fill: #0000ff; stroke: #0000ff; stroke-width: 0.75"/>
     <use xlink:href="#mf283905acb" x="267.710981" y="94.608685" style="fill: #0000ff; stroke: #0000ff; stroke-width: 0.75"/>
     <use xlink:href="#mf283905acb" x="274.666773" y="97.024412" style="fill: #0000ff; stroke: #0000ff; stroke-width: 0.75"/>
     <use xlink:href="#mf283905acb" x="281.622565" y="94.019207" style="fill: #0000ff; stroke: #0000ff; stroke-width: 0.75"/>
     <use xlink:href="#mf283905acb" x="288.578357" y="97.993313" style="fill: #0000ff; stroke: #0000ff; stroke-width: 0.75"/>
     <use xlink:href="#mf283905acb" x="295.534149" y="107.279991" style="fill: #0000ff; stroke: #0000ff; stroke-width: 0.75"/>
     <use xlink:href="#mf283905acb" x="302.489941" y="98.416865" style="fill: #0000ff; stroke: #0000ff; stroke-width: 0.75"/>
     <use xlink:href="#mf283905acb" x="309.445733" y="101.569261" style="fill: #0000ff; stroke: #0000ff; stroke-width: 0.75"/>
     <use xlink:href="#mf283905acb" x="316.401525" y="99.298402" style="fill: #0000ff; stroke: #0000ff; stroke-width: 0.75"/>
     <use xlink:href="#mf283905acb" x="323.357317" y="102.967442" style="fill: #0000ff; stroke: #0000ff; stroke-width: 0.75"/>
     <use xlink:href="#mf283905acb" x="330.313108" y="109.070455" style="fill: #0000ff; stroke: #0000ff; stroke-width: 0.75"/>
     <use xlink:href="#mf283905acb" x="337.2689" y="99.244858" style="fill: #0000ff; stroke: #0000ff; stroke-width: 0.75"/>
     <use xlink:href="#mf283905acb" x="344.224692" y="96.963599" style="fill: #0000ff; stroke: #0000ff; stroke-width: 0.75"/>
     <use xlink:href="#mf283905acb" x="351.180484" y="93.714278" style="fill: #0000ff; stroke: #0000ff; stroke-width: 0.75"/>
     <use xlink:href="#mf283905acb" x="358.136276" y="98.137335" style="fill: #0000ff; stroke: #0000ff; stroke-width: 0.75"/>
     <use xlink:href="#mf283905acb" x="365.092068" y="95.713222" style="fill: #0000ff; stroke: #0000ff; stroke-width: 0.75"/>
     <use xlink:href="#mf283905acb" x="372.04786" y="94.547712" style="fill: #0000ff; stroke: #0000ff; stroke-width: 0.75"/>
     <use xlink:href="#mf283905acb" x="379.003652" y="53.735097" style="fill: #0000ff; stroke: #0000ff; stroke-width: 0.75"/>
     <use xlink:href="#mf283905acb" x="385.959444" y="81.271932" style="fill: #0000ff; stroke: #0000ff; stroke-width: 0.75"/>
     <use xlink:href="#mf283905acb" x="392.915236" y="69.327263" style="fill: #0000ff; stroke: #0000ff; stroke-width: 0.75"/>
     <use xlink:href="#mf283905acb" x="399.871028" y="61.498579" style="fill: #0000ff; stroke: #0000ff; stroke-width: 0.75"/>
     <use xlink:href="#mf283905acb" x="406.82682" y="65.152271" style="fill: #0000ff; stroke: #0000ff; stroke-width: 0.75"/>
     <use xlink:href="#mf283905acb" x="413.782611" y="81.986799" style="fill: #0000ff; stroke: #0000ff; stroke-width: 0.75"/>
     <use xlink:href="#mf283905acb" x="420.738403" y="81.609544" style="fill: #0000ff; stroke: #0000ff; stroke-width: 0.75"/>
     <use xlink:href="#mf283905acb" x="427.694195" y="70.785894" style="fill: #0000ff; stroke: #0000ff; stroke-width: 0.75"/>
     <use xlink:href="#mf283905acb" x="434.649987" y="60.690429" style="fill: #0000ff; stroke: #0000ff; stroke-width: 0.75"/>
     <use xlink:href="#mf283905acb" x="441.605779" y="82.21721" style="fill: #0000ff; stroke: #0000ff; stroke-width: 0.75"/>
     <use xlink:href="#mf283905acb" x="448.561571" y="85.056419" style="fill: #0000ff; stroke: #0000ff; stroke-width: 0.75"/>
     <use xlink:href="#mf283905acb" x="455.517363" y="88.074179" style="fill: #0000ff; stroke: #0000ff; stroke-width: 0.75"/>
     <use xlink:href="#mf283905acb" x="462.473155" y="89.831767" style="fill: #0000ff; stroke: #0000ff; stroke-width: 0.75"/>
     <use xlink:href="#mf283905acb" x="469.428947" y="90.382841" style="fill: #0000ff; stroke: #0000ff; stroke-width: 0.75"/>
     <use xlink:href="#mf283905acb" x="476.384739" y="92.577913" style="fill: #0000ff; stroke: #0000ff; stroke-width: 0.75"/>
     <use xlink:href="#mf283905acb" x="483.340531" y="91.551595" style="fill: #0000ff; stroke: #0000ff; stroke-width: 0.75"/>
     <use xlink:href="#mf283905acb" x="490.296323" y="93.890084" style="fill: #0000ff; stroke: #0000ff; stroke-width: 0.75"/>
     <use xlink:href="#mf283905acb" x="497.252115" y="93.188317" style="fill: #0000ff; stroke: #0000ff; stroke-width: 0.75"/>
     <use xlink:href="#mf283905acb" x="504.207906" y="100.795421" style="fill: #0000ff; stroke: #0000ff; stroke-width: 0.75"/>
     <use xlink:href="#mf283905acb" x="511.163698" y="105.012369" style="fill: #0000ff; stroke: #0000ff; stroke-width: 0.75"/>
     <use xlink:href="#mf283905acb" x="518.11949" y="105.22973" style="fill: #0000ff; stroke: #0000ff; stroke-width: 0.75"/>
     <use xlink:href="#mf283905acb" x="525.075282" y="111.133507" style="fill: #0000ff; stroke: #0000ff; stroke-width: 0.75"/>
     <use xlink:href="#mf283905acb" x="532.031074" y="111.108162" style="fill: #0000ff; stroke: #0000ff; stroke-width: 0.75"/>
     <use xlink:href="#mf283905acb" x="538.986866" y="108.617385" style="fill: #0000ff; stroke: #0000ff; stroke-width: 0.75"/>
    </g>
   </g>
   <g id="matplotlib.axis_1">
    <g id="xtick_1">
     <g id="line2d_1">
      <defs>
       <path id="m0928afc45f" d="M 0 0 
L 0 3.5 
" style="stroke: #000000; stroke-width: 0.8"/>
      </defs>
      <g>
       <use xlink:href="#m0928afc45f" x="60.196522" y="139.988242" style="stroke: #000000; stroke-width: 0.8"/>
      </g>
     </g>
     <g id="text_1">
      <!-- $\mathdefault{400}$ -->
      <g transform="translate(53.845248 154.623044) scale(0.08 -0.08)">
       <defs>
        <path id="CMR17-34" d="M 2150 4122 
C 2150 4256 2144 4256 2029 4256 
L 128 1254 
L 128 1088 
L 1779 1088 
L 1779 457 
C 1779 224 1766 160 1318 160 
L 1197 160 
L 1197 0 
C 1402 0 1747 0 1965 0 
C 2182 0 2528 0 2733 0 
L 2733 160 
L 2611 160 
C 2163 160 2150 224 2150 457 
L 2150 1088 
L 2803 1088 
L 2803 1254 
L 2150 1254 
L 2150 4122 
z
M 1798 3703 
L 1798 1254 
L 256 1254 
L 1798 3703 
z
" transform="scale(0.015625)"/>
        <path id="CMR17-30" d="M 2688 2025 
C 2688 2416 2682 3080 2413 3591 
C 2176 4039 1798 4198 1466 4198 
C 1158 4198 768 4058 525 3597 
C 269 3118 243 2524 243 2025 
C 243 1661 250 1106 448 619 
C 723 -39 1216 -128 1466 -128 
C 1760 -128 2208 -7 2470 600 
C 2662 1042 2688 1559 2688 2025 
z
M 1466 -26 
C 1056 -26 813 325 723 812 
C 653 1188 653 1738 653 2096 
C 653 2588 653 2997 736 3387 
C 858 3929 1216 4096 1466 4096 
C 1728 4096 2067 3923 2189 3400 
C 2272 3036 2278 2607 2278 2096 
C 2278 1680 2278 1169 2202 792 
C 2067 95 1690 -26 1466 -26 
z
" transform="scale(0.015625)"/>
       </defs>
       <use xlink:href="#CMR17-34" transform="scale(0.996264)"/>
       <use xlink:href="#CMR17-30" transform="translate(45.690477 0) scale(0.996264)"/>
       <use xlink:href="#CMR17-30" transform="translate(91.380954 0) scale(0.996264)"/>
      </g>
     </g>
    </g>
    <g id="xtick_2">
     <g id="line2d_2">
      <g>
       <use xlink:href="#m0928afc45f" x="106.568468" y="139.988242" style="stroke: #000000; stroke-width: 0.8"/>
      </g>
     </g>
     <g id="text_2">
      <!-- $\mathdefault{500}$ -->
      <g transform="translate(100.217194 154.623044) scale(0.08 -0.08)">
       <defs>
        <path id="CMR17-35" d="M 730 3692 
C 794 3666 1056 3584 1325 3584 
C 1920 3584 2246 3911 2432 4100 
C 2432 4157 2432 4192 2394 4192 
C 2387 4192 2374 4192 2323 4163 
C 2099 4058 1837 3973 1517 3973 
C 1325 3973 1037 3999 723 4139 
C 653 4171 640 4171 634 4171 
C 602 4171 595 4164 595 4037 
L 595 2203 
C 595 2089 595 2057 659 2057 
C 691 2057 704 2070 736 2114 
C 941 2401 1222 2522 1542 2522 
C 1766 2522 2246 2382 2246 1289 
C 2246 1085 2246 715 2054 421 
C 1894 159 1645 25 1370 25 
C 947 25 518 320 403 814 
C 429 807 480 795 506 795 
C 589 795 749 840 749 1038 
C 749 1210 627 1280 506 1280 
C 358 1280 262 1190 262 1011 
C 262 454 704 -128 1382 -128 
C 2042 -128 2669 440 2669 1264 
C 2669 2030 2170 2624 1549 2624 
C 1222 2624 947 2503 730 2274 
L 730 3692 
z
" transform="scale(0.015625)"/>
       </defs>
       <use xlink:href="#CMR17-35" transform="scale(0.996264)"/>
       <use xlink:href="#CMR17-30" transform="translate(45.690477 0) scale(0.996264)"/>
       <use xlink:href="#CMR17-30" transform="translate(91.380954 0) scale(0.996264)"/>
      </g>
     </g>
    </g>
    <g id="xtick_3">
     <g id="line2d_3">
      <g>
       <use xlink:href="#m0928afc45f" x="152.940414" y="139.988242" style="stroke: #000000; stroke-width: 0.8"/>
      </g>
     </g>
     <g id="text_3">
      <!-- $\mathdefault{600}$ -->
      <g transform="translate(146.58914 154.623044) scale(0.08 -0.08)">
       <defs>
        <path id="CMR17-36" d="M 678 2176 
C 678 3690 1395 4032 1811 4032 
C 1946 4032 2272 4009 2400 3776 
C 2298 3776 2106 3776 2106 3553 
C 2106 3381 2246 3323 2336 3323 
C 2394 3323 2566 3348 2566 3560 
C 2566 3954 2246 4179 1805 4179 
C 1043 4179 243 3390 243 1984 
C 243 253 966 -128 1478 -128 
C 2099 -128 2688 427 2688 1283 
C 2688 2081 2170 2662 1517 2662 
C 1126 2662 838 2407 678 1960 
L 678 2176 
z
M 1478 25 
C 691 25 691 1200 691 1436 
C 691 1896 909 2560 1504 2560 
C 1613 2560 1926 2560 2138 2120 
C 2253 1870 2253 1609 2253 1289 
C 2253 944 2253 690 2118 434 
C 1978 171 1773 25 1478 25 
z
" transform="scale(0.015625)"/>
       </defs>
       <use xlink:href="#CMR17-36" transform="scale(0.996264)"/>
       <use xlink:href="#CMR17-30" transform="translate(45.690477 0) scale(0.996264)"/>
       <use xlink:href="#CMR17-30" transform="translate(91.380954 0) scale(0.996264)"/>
      </g>
     </g>
    </g>
    <g id="xtick_4">
     <g id="line2d_4">
      <g>
       <use xlink:href="#m0928afc45f" x="199.312361" y="139.988242" style="stroke: #000000; stroke-width: 0.8"/>
      </g>
     </g>
     <g id="text_4">
      <!-- $\mathdefault{700}$ -->
      <g transform="translate(192.961086 154.623044) scale(0.08 -0.08)">
       <defs>
        <path id="CMR17-37" d="M 2886 3941 
L 2886 4081 
L 1382 4081 
C 634 4081 621 4165 595 4288 
L 480 4288 
L 294 3094 
L 410 3094 
C 429 3215 474 3540 550 3661 
C 589 3712 1062 3712 1171 3712 
L 2579 3712 
L 1869 2661 
C 1395 1954 1069 999 1069 165 
C 1069 89 1069 -128 1299 -128 
C 1530 -128 1530 89 1530 171 
L 1530 465 
C 1530 1508 1709 2196 2003 2636 
L 2886 3941 
z
" transform="scale(0.015625)"/>
       </defs>
       <use xlink:href="#CMR17-37" transform="scale(0.996264)"/>
       <use xlink:href="#CMR17-30" transform="translate(45.690477 0) scale(0.996264)"/>
       <use xlink:href="#CMR17-30" transform="translate(91.380954 0) scale(0.996264)"/>
      </g>
     </g>
    </g>
    <g id="text_5">
     <!-- time $t$ -->
     <g transform="translate(116.60927 167.091288) scale(0.1 -0.1)">
      <defs>
       <path id="CMR17-74" d="M 966 2560 
L 1862 2560 
L 1862 2725 
L 966 2725 
L 966 3904 
L 851 3904 
C 838 3245 614 2668 70 2668 
L 70 2560 
L 627 2560 
L 627 771 
C 627 650 627 -64 1370 -64 
C 1747 -64 1965 306 1965 777 
L 1965 1140 
L 1850 1140 
L 1850 783 
C 1850 344 1677 51 1408 51 
C 1222 51 966 178 966 758 
L 966 2560 
z
" transform="scale(0.015625)"/>
       <path id="CMR17-69" d="M 992 3909 
C 992 4049 877 4170 730 4170 
C 589 4170 467 4056 467 3909 
C 467 3769 582 3648 730 3648 
C 870 3648 992 3763 992 3909 
z
M 243 2706 
L 243 2541 
C 602 2541 653 2502 653 2197 
L 653 427 
C 653 184 627 153 218 153 
L 218 -13 
C 371 0 646 0 806 0 
C 960 0 1222 0 1370 -13 
L 1370 153 
C 992 153 979 191 979 420 
L 979 2776 
L 243 2706 
z
" transform="scale(0.015625)"/>
       <path id="CMR17-6d" d="M 4326 1933 
C 4326 2252 4269 2790 3507 2790 
C 3072 2790 2771 2496 2656 2151 
L 2650 2151 
C 2573 2676 2195 2790 1837 2790 
C 1331 2790 1069 2400 973 2144 
L 966 2144 
L 966 2790 
L 211 2720 
L 211 2554 
C 589 2554 646 2515 646 2208 
L 646 428 
C 646 184 621 153 211 153 
L 211 -13 
C 365 0 646 0 813 0 
C 979 0 1267 0 1421 -13 
L 1421 153 
C 1011 153 986 178 986 428 
L 986 1658 
C 986 2247 1344 2688 1792 2688 
C 2266 2688 2317 2266 2317 1958 
L 2317 428 
C 2317 184 2291 153 1882 153 
L 1882 -13 
C 2035 0 2317 0 2483 0 
C 2650 0 2938 0 3091 -13 
L 3091 153 
C 2682 153 2656 178 2656 428 
L 2656 1658 
C 2656 2247 3014 2688 3462 2688 
C 3936 2688 3987 2266 3987 1958 
L 3987 428 
C 3987 184 3962 153 3552 153 
L 3552 -13 
C 3706 0 3987 0 4154 0 
C 4320 0 4608 0 4762 -13 
L 4762 153 
C 4352 153 4326 178 4326 428 
L 4326 1933 
z
" transform="scale(0.015625)"/>
       <path id="CMR17-65" d="M 2438 1472 
C 2464 1498 2464 1511 2464 1576 
C 2464 2238 2118 2816 1389 2816 
C 710 2816 173 2169 173 1383 
C 173 551 781 -64 1459 -64 
C 2176 -64 2458 607 2458 740 
C 2458 784 2419 784 2406 784 
C 2362 784 2355 771 2330 696 
C 2189 265 1837 51 1504 51 
C 1229 51 954 203 781 480 
C 582 803 582 1176 582 1472 
L 2438 1472 
z
M 589 1568 
C 634 2505 1126 2714 1382 2714 
C 1818 2714 2112 2297 2118 1568 
L 589 1568 
z
" transform="scale(0.015625)"/>
       <path id="CMMI12-74" d="M 1286 2566 
L 1875 2566 
C 1997 2566 2061 2566 2061 2681 
C 2061 2752 2022 2752 1894 2752 
L 1331 2752 
L 1568 3692 
C 1594 3781 1594 3794 1594 3840 
C 1594 3943 1510 4000 1427 4000 
C 1376 4000 1229 3981 1178 3775 
L 928 2752 
L 326 2752 
C 198 2752 141 2752 141 2630 
C 141 2566 186 2566 307 2566 
L 877 2566 
L 454 881 
C 403 658 384 594 384 511 
C 384 211 595 -64 954 -64 
C 1600 -64 1946 868 1946 912 
C 1946 951 1920 970 1882 970 
C 1869 970 1843 970 1830 944 
C 1824 938 1818 931 1773 829 
C 1638 511 1344 64 973 64 
C 781 64 768 224 768 364 
C 768 370 768 492 787 568 
L 1286 2566 
z
" transform="scale(0.015625)"/>
      </defs>
      <use xlink:href="#CMR17-74" transform="scale(0.996264)"/>
      <use xlink:href="#CMR17-69" transform="translate(35.280768 0) scale(0.996264)"/>
      <use xlink:href="#CMR17-6d" transform="translate(60.151826 0) scale(0.996264)"/>
      <use xlink:href="#CMR17-65" transform="translate(137.071416 0) scale(0.996264)"/>
      <use xlink:href="#CMMI12-74" transform="translate(207.633043 0) scale(0.996264)"/>
     </g>
    </g>
   </g>
   <g id="matplotlib.axis_2">
    <g id="ytick_1">
     <g id="line2d_5">
      <defs>
       <path id="m6e857e64c4" d="M 0 0 
L -3.5 0 
" style="stroke: #000000; stroke-width: 0.8"/>
      </defs>
      <g>
       <use xlink:href="#m6e857e64c4" x="37.010549" y="114.518947" style="stroke: #000000; stroke-width: 0.8"/>
      </g>
     </g>
     <g id="text_6">
      <!-- $\mathdefault{0.00}$ -->
      <g transform="translate(12.855677 117.286348) scale(0.08 -0.08)">
       <defs>
        <path id="CMMI12-3a" d="M 1178 307 
C 1178 492 1024 619 870 619 
C 685 619 557 466 557 313 
C 557 128 710 0 864 0 
C 1050 0 1178 153 1178 307 
z
" transform="scale(0.015625)"/>
       </defs>
       <use xlink:href="#CMR17-30" transform="scale(0.996264)"/>
       <use xlink:href="#CMMI12-3a" transform="translate(45.690477 0) scale(0.996264)"/>
       <use xlink:href="#CMR17-30" transform="translate(72.787654 0) scale(0.996264)"/>
       <use xlink:href="#CMR17-30" transform="translate(118.478131 0) scale(0.996264)"/>
      </g>
     </g>
    </g>
    <g id="ytick_2">
     <g id="line2d_6">
      <g>
       <use xlink:href="#m6e857e64c4" x="37.010549" y="80.559886" style="stroke: #000000; stroke-width: 0.8"/>
      </g>
     </g>
     <g id="text_7">
      <!-- $\mathdefault{0.02}$ -->
      <g transform="translate(12.855677 83.327287) scale(0.08 -0.08)">
       <defs>
        <path id="CMR17-32" d="M 2669 989 
L 2554 989 
C 2490 536 2438 459 2413 420 
C 2381 369 1920 369 1830 369 
L 602 369 
C 832 619 1280 1072 1824 1597 
C 2214 1967 2669 2402 2669 3035 
C 2669 3790 2067 4224 1395 4224 
C 691 4224 262 3604 262 3030 
C 262 2780 448 2748 525 2748 
C 589 2748 781 2787 781 3010 
C 781 3207 614 3264 525 3264 
C 486 3264 448 3258 422 3245 
C 544 3790 915 4058 1306 4058 
C 1862 4058 2227 3617 2227 3035 
C 2227 2479 1901 2000 1536 1584 
L 262 146 
L 262 0 
L 2515 0 
L 2669 989 
z
" transform="scale(0.015625)"/>
       </defs>
       <use xlink:href="#CMR17-30" transform="scale(0.996264)"/>
       <use xlink:href="#CMMI12-3a" transform="translate(45.690477 0) scale(0.996264)"/>
       <use xlink:href="#CMR17-30" transform="translate(72.787654 0) scale(0.996264)"/>
       <use xlink:href="#CMR17-32" transform="translate(118.478131 0) scale(0.996264)"/>
      </g>
     </g>
    </g>
    <g id="ytick_3">
     <g id="line2d_7">
      <g>
       <use xlink:href="#m6e857e64c4" x="37.010549" y="46.600826" style="stroke: #000000; stroke-width: 0.8"/>
      </g>
     </g>
     <g id="text_8">
      <!-- $\mathdefault{0.04}$ -->
      <g transform="translate(12.855677 49.368227) scale(0.08 -0.08)">
       <use xlink:href="#CMR17-30" transform="scale(0.996264)"/>
       <use xlink:href="#CMMI12-3a" transform="translate(45.690477 0) scale(0.996264)"/>
       <use xlink:href="#CMR17-30" transform="translate(72.787654 0) scale(0.996264)"/>
       <use xlink:href="#CMR17-34" transform="translate(118.478131 0) scale(0.996264)"/>
      </g>
     </g>
    </g>
    <g id="ytick_4">
     <g id="line2d_8">
      <g>
       <use xlink:href="#m6e857e64c4" x="37.010549" y="12.641765" style="stroke: #000000; stroke-width: 0.8"/>
      </g>
     </g>
     <g id="text_9">
      <!-- $\mathdefault{0.06}$ -->
      <g transform="translate(12.855677 15.409166) scale(0.08 -0.08)">
       <use xlink:href="#CMR17-30" transform="scale(0.996264)"/>
       <use xlink:href="#CMMI12-3a" transform="translate(45.690477 0) scale(0.996264)"/>
       <use xlink:href="#CMR17-30" transform="translate(72.787654 0) scale(0.996264)"/>
       <use xlink:href="#CMR17-36" transform="translate(118.478131 0) scale(0.996264)"/>
      </g>
     </g>
    </g>
    <g id="text_10">
     <!-- target-variable $y$ -->
     <g transform="translate(6.918498 112.132166) rotate(-90) scale(0.1 -0.1)">
      <defs>
       <path id="CMR17-61" d="M 2304 1653 
C 2304 2072 2304 2294 2035 2543 
C 1798 2752 1523 2816 1306 2816 
C 800 2816 435 2407 435 1971 
C 435 1728 627 1728 666 1728 
C 749 1728 896 1778 896 1954 
C 896 2112 774 2181 666 2181 
C 640 2181 608 2174 589 2168 
C 723 2592 1069 2714 1293 2714 
C 1613 2714 1965 2429 1965 1885 
L 1965 1600 
C 1587 1600 1133 1549 774 1357 
C 371 1133 256 813 256 570 
C 256 77 832 -64 1171 -64 
C 1523 -64 1850 139 1990 511 
C 2003 233 2182 -18 2464 -18 
C 2598 -18 2938 70 2938 567 
L 2938 920 
L 2822 920 
L 2822 562 
C 2822 178 2650 128 2566 128 
C 2304 128 2304 458 2304 738 
L 2304 1653 
z
M 1965 870 
C 1965 317 1568 38 1216 38 
C 896 38 646 275 646 570 
C 646 761 730 1100 1101 1305 
C 1408 1478 1760 1504 1965 1504 
L 1965 870 
z
" transform="scale(0.015625)"/>
       <path id="CMR17-72" d="M 960 1497 
C 960 2112 1222 2688 1702 2688 
C 1747 2688 1792 2682 1837 2662 
C 1837 2662 1696 2617 1696 2452 
C 1696 2298 1818 2234 1914 2234 
C 1990 2234 2131 2279 2131 2458 
C 2131 2663 1926 2790 1709 2790 
C 1222 2790 1011 2317 947 2093 
L 941 2093 
L 941 2790 
L 198 2720 
L 198 2554 
C 576 2554 634 2515 634 2208 
L 634 428 
C 634 184 608 153 198 153 
L 198 -13 
C 352 0 646 0 813 0 
C 998 0 1325 0 1498 -13 
L 1498 153 
C 1037 153 960 153 960 440 
L 960 1497 
z
" transform="scale(0.015625)"/>
       <path id="CMR17-67" d="M 710 1164 
C 832 1068 1043 960 1299 960 
C 1805 960 2240 1357 2240 1888 
C 2240 2054 2189 2310 1997 2509 
C 2176 2692 2438 2752 2586 2752 
C 2611 2752 2650 2752 2682 2734 
C 2656 2728 2598 2703 2598 2605 
C 2598 2527 2656 2471 2739 2471 
C 2835 2471 2886 2533 2886 2614 
C 2886 2731 2790 2854 2586 2854 
C 2330 2854 2106 2738 1926 2580 
C 1734 2753 1504 2816 1299 2816 
C 794 2816 358 2419 358 1888 
C 358 1522 570 1292 634 1228 
C 442 1004 442 743 442 711 
C 442 545 506 302 723 168 
C 390 85 128 -169 128 -486 
C 128 -943 736 -1280 1466 -1280 
C 2170 -1280 2803 -956 2803 -479 
C 2803 384 1856 384 1363 384 
C 1216 384 954 384 922 391 
C 723 423 589 602 589 826 
C 589 883 589 1024 710 1164 
z
M 1299 1068 
C 736 1068 736 1760 736 1889 
C 736 2016 736 2708 1299 2708 
C 1862 2708 1862 2016 1862 1889 
C 1862 1760 1862 1068 1299 1068 
z
M 1466 -1171 
C 826 -1171 384 -835 384 -486 
C 384 -289 493 -105 634 -4 
C 794 104 858 104 1293 104 
C 1818 104 2547 104 2547 -486 
C 2547 -835 2106 -1171 1466 -1171 
z
" transform="scale(0.015625)"/>
       <path id="CMR17-2d" d="M 1632 1216 
L 1632 1496 
L 26 1496 
L 26 1216 
L 1632 1216 
z
" transform="scale(0.015625)"/>
       <path id="CMR17-76" d="M 2502 2163 
C 2560 2304 2662 2560 3034 2560 
L 3034 2726 
C 2912 2726 2752 2726 2630 2726 
C 2496 2726 2285 2726 2157 2732 
L 2157 2566 
C 2317 2553 2406 2477 2406 2311 
C 2406 2253 2406 2240 2368 2151 
L 1664 377 
L 902 2286 
C 864 2369 864 2381 864 2407 
C 864 2560 1075 2560 1171 2560 
L 1171 2732 
C 1018 2726 736 2726 576 2726 
C 403 2726 205 2726 64 2732 
L 64 2560 
C 307 2560 442 2560 518 2362 
L 1446 44 
C 1485 -51 1491 -64 1549 -64 
C 1606 -64 1613 -51 1651 44 
L 2502 2163 
z
" transform="scale(0.015625)"/>
       <path id="CMR17-62" d="M 960 4396 
L 198 4326 
L 198 4160 
C 576 4160 634 4122 634 3817 
L 634 -13 
L 749 -13 
L 934 441 
C 1120 141 1395 -64 1766 -64 
C 2406 -64 3053 500 3053 1370 
C 3053 2188 2477 2790 1830 2790 
C 1434 2790 1152 2579 960 2330 
L 960 4396 
z
M 973 2004 
C 973 2118 973 2138 1062 2272 
C 1312 2657 1670 2688 1792 2688 
C 1984 2688 2643 2585 2643 1376 
C 2643 108 1888 38 1734 38 
C 1536 38 1248 114 1043 486 
C 973 608 973 621 973 735 
L 973 2004 
z
" transform="scale(0.015625)"/>
       <path id="CMR17-6c" d="M 979 4396 
L 218 4326 
L 218 4160 
C 595 4160 653 4122 653 3817 
L 653 426 
C 653 184 627 153 218 153 
L 218 -13 
C 371 0 653 0 813 0 
C 979 0 1261 0 1414 -13 
L 1414 153 
C 1005 153 979 178 979 426 
L 979 4396 
z
" transform="scale(0.015625)"/>
       <path id="CMMI12-79" d="M 1683 -700 
C 1510 -939 1261 -1152 947 -1152 
C 870 -1152 563 -1152 467 -889 
C 486 -895 518 -895 531 -895 
C 723 -895 851 -729 851 -582 
C 851 -435 730 -384 634 -384 
C 531 -384 307 -458 307 -759 
C 307 -1071 582 -1286 947 -1286 
C 1587 -1286 2234 -700 2413 6 
L 3040 2485 
C 3046 2517 3059 2556 3059 2594 
C 3059 2689 2982 2753 2886 2753 
C 2829 2753 2694 2727 2643 2535 
L 2170 658 
C 2138 543 2138 530 2086 460 
C 1958 281 1747 64 1440 64 
C 1082 64 1050 415 1050 588 
C 1050 952 1222 1443 1395 1903 
C 1466 2088 1504 2178 1504 2305 
C 1504 2574 1312 2816 998 2816 
C 410 2816 173 1890 173 1839 
C 173 1814 198 1782 243 1782 
C 301 1782 307 1807 333 1897 
C 486 2433 730 2689 979 2689 
C 1037 2689 1146 2689 1146 2478 
C 1146 2312 1075 2127 979 1884 
C 666 1047 666 837 666 683 
C 666 77 1101 -64 1421 -64 
C 1606 -64 1837 -6 2061 230 
L 2067 224 
C 1971 -147 1907 -392 1683 -700 
z
" transform="scale(0.015625)"/>
      </defs>
      <use xlink:href="#CMR17-74" transform="scale(0.996264)"/>
      <use xlink:href="#CMR17-61" transform="translate(35.280768 0) scale(0.996264)"/>
      <use xlink:href="#CMR17-72" transform="translate(80.971245 0) scale(0.996264)"/>
      <use xlink:href="#CMR17-67" transform="translate(116.252013 0) scale(0.996264)"/>
      <use xlink:href="#CMR17-65" transform="translate(161.94249 0) scale(0.996264)"/>
      <use xlink:href="#CMR17-74" transform="translate(202.42815 0) scale(0.996264)"/>
      <use xlink:href="#CMR17-2d" transform="translate(237.708918 0) scale(0.996264)"/>
      <use xlink:href="#CMR17-76" transform="translate(267.784884 0) scale(0.996264)"/>
      <use xlink:href="#CMR17-61" transform="translate(310.872984 0) scale(0.996264)"/>
      <use xlink:href="#CMR17-72" transform="translate(356.563461 0) scale(0.996264)"/>
      <use xlink:href="#CMR17-69" transform="translate(391.844229 0) scale(0.996264)"/>
      <use xlink:href="#CMR17-61" transform="translate(416.715287 0) scale(0.996264)"/>
      <use xlink:href="#CMR17-62" transform="translate(462.405764 0) scale(0.996264)"/>
      <use xlink:href="#CMR17-6c" transform="translate(513.301134 0) scale(0.996264)"/>
      <use xlink:href="#CMR17-65" transform="translate(538.172192 0) scale(0.996264)"/>
      <use xlink:href="#CMMI12-79" transform="translate(608.733819 0) scale(0.996264)"/>
     </g>
    </g>
   </g>
   <g id="line2d_9">
    <path d="M 36.973452 71.113611 
L 37.454236 74.146393 
L 37.854889 78.066722 
L 38.095282 82.325592 
L 38.175412 85.262005 
L 38.415805 76.706957 
L 38.97672 65.908877 
L 39.938288 52.118538 
L 41.060118 39.135933 
L 42.262079 27.732462 
L 43.223648 20.459741 
L 43.944824 16.436471 
L 44.425609 14.871128 
L 44.666001 14.6988 
L 44.826262 15.007715 
L 44.986524 16.019588 
L 45.146785 18.257305 
L 45.387177 14.520077 
L 45.62757 13.455469 
L 45.867962 13.136883 
L 46.028223 13.168468 
L 46.268615 13.473705 
L 46.669269 14.489306 
L 47.230184 16.682595 
L 47.951361 20.494058 
L 48.832799 26.404354 
L 49.794367 34.369342 
L 50.755936 44.265951 
L 51.477112 53.83765 
L 51.957897 63.260532 
L 52.118158 66.400036 
L 52.438681 59.310579 
L 52.999596 52.59931 
L 53.720773 46.609458 
L 54.52208 41.674134 
L 55.323387 37.997835 
L 56.044564 35.624041 
L 56.605479 34.397148 
L 57.086263 33.827579 
L 57.406786 33.738374 
L 57.647178 33.854352 
L 57.967701 34.311538 
L 58.288224 35.235609 
L 58.608747 36.917549 
L 58.849139 39.228613 
L 59.0094 42.650865 
L 59.089531 42.022351 
L 59.329923 39.26427 
L 59.570315 38.480631 
L 59.730577 38.358799 
L 59.890838 38.4389 
L 60.13123 38.835769 
L 60.531884 40.031017 
L 61.092799 42.503031 
L 61.894106 47.218651 
L 62.855675 54.377373 
L 63.897374 63.942841 
L 64.858943 74.934459 
L 65.58012 85.840609 
L 65.900642 93.210297 
L 65.980773 96.731882 
L 66.301296 89.860932 
L 66.78208 84.779982 
L 67.423126 80.480734 
L 68.064172 77.547326 
L 68.705218 75.528337 
L 69.266133 74.376757 
L 69.746917 73.812403 
L 70.147571 73.640001 
L 70.468094 73.705982 
L 70.868747 74.0656 
L 71.269401 74.776508 
L 71.670055 75.919759 
L 72.070708 77.65291 
L 72.471362 80.355206 
L 72.791885 84.164874 
L 72.952146 89.000675 
L 73.192538 80.688362 
L 73.753453 70.93279 
L 74.634891 59.832186 
L 75.676591 49.48584 
L 76.71829 41.143402 
L 77.679859 35.098737 
L 78.401035 31.812189 
L 78.88182 30.465997 
L 79.122212 30.173883 
L 79.282473 30.185443 
L 79.442735 30.431498 
L 79.602996 31.03666 
L 79.763258 32.336246 
L 79.923519 35.014262 
L 80.163911 31.797657 
L 80.404303 31.330577 
L 80.564565 31.4632 
L 80.804957 32.049093 
L 81.205611 33.702979 
L 81.846656 37.48416 
L 82.728094 44.223628 
L 83.769794 53.977566 
L 84.891624 66.606471 
L 85.853192 79.802068 
L 86.494238 91.13324 
L 86.894892 100.687902 
L 87.215415 93.572991 
L 87.77633 86.914596 
L 88.497506 81.002441 
L 89.298814 76.156106 
L 90.100121 72.569646 
L 90.821297 70.276851 
L 91.382212 69.112803 
L 91.862997 68.596797 
L 92.18352 68.543006 
L 92.504043 68.772889 
L 92.824565 69.365541 
L 93.145088 70.473227 
L 93.465611 72.471595 
L 93.706003 75.441257 
L 93.786134 77.550926 
L 93.946396 74.496411 
L 94.347049 68.821559 
L 94.907964 64.24776 
L 95.54901 60.776148 
L 96.190056 58.397489 
L 96.831102 56.834457 
L 97.392017 56.050881 
L 97.79267 55.813959 
L 98.113193 55.823141 
L 98.433716 56.019442 
L 98.83437 56.554309 
L 99.235023 57.46392 
L 99.715808 59.198644 
L 100.116461 61.451058 
L 100.436984 64.248071 
L 100.677376 67.944505 
L 100.757507 70.673122 
L 101.158161 60.86156 
L 101.799206 51.771437 
L 102.680644 42.559027 
L 103.642213 34.672255 
L 104.603782 28.439063 
L 105.48522 24.123933 
L 106.126265 21.977058 
L 106.526919 21.201608 
L 106.767311 21.023459 
L 106.927573 21.063758 
L 107.167965 21.453276 
L 107.408357 22.474803 
L 107.568618 23.879246 
L 107.648749 25.129569 
L 107.72888 28.31645 
L 107.969272 22.354808 
L 108.289795 19.843513 
L 108.690449 18.276705 
L 109.091102 17.56214 
L 109.411625 17.391478 
L 109.732148 17.495439 
L 110.132802 17.947795 
L 110.613586 18.900575 
L 111.174501 20.522516 
L 111.895677 23.385328 
L 112.616854 27.181812 
L 113.33803 32.144693 
L 113.979076 38.09586 
L 114.459861 44.787454 
L 114.700253 50.803763 
L 114.940645 47.059743 
L 115.181037 46.148986 
L 115.421429 45.99462 
L 115.661821 46.264976 
L 115.982344 47.065242 
L 116.463129 48.927259 
L 117.184305 52.786518 
L 118.065743 58.844277 
L 119.107443 67.706982 
L 120.069011 77.736593 
L 120.870318 88.18887 
L 121.431233 98.328975 
L 121.671626 104.056005 
L 121.992149 97.84316 
L 122.472933 93.419971 
L 123.033848 90.166762 
L 123.674894 87.729686 
L 124.235809 86.366947 
L 124.716593 85.666908 
L 125.117247 85.386047 
L 125.5179 85.373689 
L 125.918554 85.635343 
L 126.319208 86.188731 
L 126.799992 87.287698 
L 127.280776 88.970912 
L 127.761561 91.484727 
L 128.162214 94.691892 
L 128.482737 99.228151 
L 128.562868 101.534324 
L 128.642999 100.978952 
L 128.963521 95.597236 
L 129.444306 91.887968 
L 130.005221 89.415019 
L 130.486005 88.146137 
L 130.96679 87.432056 
L 131.367443 87.187847 
L 131.768097 87.229867 
L 132.16875 87.543559 
L 132.649535 88.275338 
L 133.21045 89.64243 
L 133.771365 91.638437 
L 134.33228 94.441785 
L 134.893195 98.508531 
L 135.293849 103.082223 
L 135.534241 108.928027 
L 135.614371 107.082494 
L 135.934894 101.641892 
L 136.415679 97.438662 
L 136.976594 94.33968 
L 137.61764 92.04553 
L 138.178555 90.7969 
L 138.659339 90.19113 
L 139.059993 89.987835 
L 139.460646 90.053076 
L 139.8613 90.393236 
L 140.261953 91.027117 
L 140.742738 92.227612 
L 141.223522 94.022922 
L 141.704306 96.673899 
L 142.10496 100.057898 
L 142.345352 103.33846 
L 142.505614 108.774482 
L 142.746006 101.956544 
L 143.146659 97.538831 
L 143.707574 93.794388 
L 144.34862 91.05993 
L 144.909535 89.517908 
L 145.47045 88.59253 
L 145.951235 88.235283 
L 146.351888 88.233277 
L 146.752542 88.50439 
L 147.153196 89.065217 
L 147.63398 90.168056 
L 148.114764 91.844376 
L 148.595549 94.326188 
L 148.996202 97.446689 
L 149.316725 101.661002 
L 149.476987 105.545176 
L 149.717379 99.91902 
L 150.118032 95.867966 
L 150.678947 92.545409 
L 151.239862 90.489304 
L 151.800777 89.241593 
L 152.281562 88.676712 
L 152.682215 88.51997 
L 153.082869 88.633996 
L 153.483523 89.017211 
L 153.964307 89.846781 
L 154.445091 91.121293 
L 155.006006 93.2919 
L 155.566921 96.510554 
L 155.967575 99.952255 
L 156.288098 104.532541 
L 156.448359 107.375971 
L 156.768882 101.031217 
L 157.249667 96.501732 
L 157.810582 93.132286 
L 158.451627 90.564827 
L 159.012543 89.088805 
L 159.573458 88.198041 
L 159.974111 87.890346 
L 160.374765 87.851358 
L 160.775418 88.08879 
L 161.176072 88.623111 
L 161.656856 89.711962 
L 162.137641 91.41249 
L 162.618425 94.009575 
L 163.019079 97.456867 
L 163.259471 101.058678 
L 163.339602 103.306356 
L 163.419732 102.888225 
L 163.740255 97.297554 
L 164.22104 93.341595 
L 164.781955 90.588176 
L 165.34287 88.886835 
L 165.823654 88.015836 
L 166.304438 87.590343 
L 166.705092 87.544064 
L 167.105746 87.767017 
L 167.506399 88.260659 
L 167.987184 89.229521 
L 168.548099 90.947664 
L 169.109014 93.472102 
L 169.589798 96.602567 
L 169.990452 100.534977 
L 170.230844 104.55345 
L 170.310974 107.25438 
L 170.791759 98.640909 
L 171.352674 93.549223 
L 171.99372 89.654557 
L 172.714896 86.621002 
L 173.355942 84.797376 
L 173.916857 83.78496 
L 174.397641 83.337376 
L 174.798295 83.272171 
L 175.118818 83.438115 
L 175.519471 83.953602 
L 175.920125 84.879453 
L 176.320779 86.350435 
L 176.721432 88.670965 
L 177.041955 91.777425 
L 177.202217 94.554007 
L 177.282347 97.892801 
L 177.52274 90.791974 
L 178.003524 84.39422 
L 178.64457 78.743062 
L 179.445877 73.657825 
L 180.247184 69.964275 
L 180.968361 67.603404 
L 181.609406 66.242879 
L 182.090191 65.713809 
L 182.410714 65.628569 
L 182.731237 65.795693 
L 183.051759 66.271522 
L 183.372282 67.155729 
L 183.692805 68.654688 
L 184.013328 71.374799 
L 184.25372 76.064739 
L 184.574243 66.773163 
L 185.215289 56.589298 
L 186.096727 46.14903 
L 187.138426 36.304466 
L 188.180126 28.40023 
L 189.061564 23.185735 
L 189.78274 20.156654 
L 190.183394 19.158638 
L 190.423786 18.910807 
L 190.584047 18.954971 
L 190.744309 19.238391 
L 190.90457 19.891369 
L 191.064832 21.274115 
L 191.225093 23.190084 
L 191.545616 16.407327 
L 192.0264 11.317563 
L 192.667446 6.827197 
L 193.388623 3.328754 
L 194.109799 0.936923 
L 194.750845 -0.419534 
L 195.254224 -1 
M 196.045046 -1 
L 196.353459 -0.653675 
L 196.754113 0.159097 
L 197.154767 1.501727 
L 197.55542 3.655462 
L 197.875943 6.521735 
L 198.116335 11.065737 
L 198.196466 11.002289 
L 198.436858 7.598619 
L 198.757381 6.071272 
L 199.077904 5.589804 
L 199.318296 5.611483 
L 199.638819 5.99528 
L 200.039473 6.909638 
L 200.600388 8.82119 
L 201.321564 12.162518 
L 202.203002 17.450212 
L 203.08444 24.113971 
L 203.965878 32.581401 
L 204.606924 40.79382 
L 205.007578 48.708058 
L 205.087708 51.768648 
L 205.167839 50.652227 
L 205.408231 47.108612 
L 205.808885 44.721099 
L 206.209538 43.69511 
L 206.530061 43.400556 
L 206.850584 43.436567 
L 207.171107 43.737821 
L 207.571761 44.428888 
L 208.132676 45.906662 
L 208.773721 48.258079 
L 209.494898 51.735226 
L 210.296205 56.758126 
L 211.017382 62.702796 
L 211.578297 69.022954 
L 211.89882 74.399596 
L 212.059081 79.997515 
L 212.299473 73.236583 
L 212.780258 66.882654 
L 213.421303 61.304806 
L 214.222611 56.315227 
L 215.023918 52.718623 
L 215.745094 50.445317 
L 216.306009 49.283561 
L 216.786794 48.738282 
L 217.107317 48.634508 
L 217.42784 48.772631 
L 217.748362 49.20206 
L 218.068885 50.007928 
L 218.389408 51.357721 
L 218.709931 53.685484 
L 218.950323 57.284947 
L 219.030454 59.513205 
L 219.270846 52.431204 
L 219.751631 45.325273 
L 220.472807 37.925606 
L 221.354245 31.147042 
L 222.235683 25.954167 
L 222.556206 24.398222 
L 222.556206 24.398222 
" clip-path="url(#p2a5dc3ef1b)" style="fill: none; stroke-dasharray: 1.4,2.31; stroke-dashoffset: 0; stroke: #ff0000; stroke-width: 1.4"/>
   </g>
   <g id="line2d_10">
    <path d="M 36.973452 101.564405 
L 37.454236 98.663335 
L 37.854889 94.852765 
L 38.095282 90.65975 
L 38.175412 87.637925 
L 38.335674 91.088044 
L 38.576066 92.104165 
L 38.736327 92.152782 
L 38.97672 91.750197 
L 39.377373 90.30056 
L 39.938288 87.25151 
L 40.739595 81.535409 
L 41.781295 72.313571 
L 42.903125 60.300366 
L 43.944824 46.7293 
L 44.666001 34.7502 
L 45.066655 24.6278 
L 45.146785 22.748005 
L 45.467308 31.48954 
L 46.108354 41.345772 
L 46.989792 51.385097 
L 48.031491 60.768351 
L 49.073191 68.214088 
L 49.954629 73.03915 
L 50.595674 75.513869 
L 50.996328 76.448013 
L 51.23672 76.685085 
L 51.396982 76.656174 
L 51.557243 76.421731 
L 51.797635 75.452993 
L 51.957897 73.93611 
L 52.118158 72.284121 
L 52.35855 76.396481 
L 52.759204 79.064327 
L 53.159858 80.298353 
L 53.48038 80.744787 
L 53.800903 80.854616 
L 54.121426 80.695695 
L 54.52208 80.17958 
L 55.002864 79.154433 
L 55.64391 77.164193 
L 56.365086 74.096948 
L 57.086263 70.073663 
L 57.807439 64.81755 
L 58.448485 58.41407 
L 58.849139 52.330305 
L 59.0094 47.786023 
L 59.089531 49.023296 
L 59.490185 58.558072 
L 60.211361 69.251961 
L 61.17293 80.133864 
L 62.29476 90.272325 
L 63.336459 97.743837 
L 64.137767 102.139903 
L 64.778812 104.53715 
L 65.179466 105.267027 
L 65.339727 105.302289 
L 65.499989 105.118421 
L 65.66025 104.608131 
L 65.820512 103.505586 
L 65.980773 100.178104 
L 66.301296 106.476694 
L 66.70195 109.88238 
L 67.182734 112.273368 
L 67.663518 113.72241 
L 68.144303 114.541593 
L 68.544956 114.844219 
L 68.94561 114.846553 
L 69.346264 114.570797 
L 69.827048 113.884783 
L 70.387963 112.585359 
L 70.948878 110.695829 
L 71.589924 107.641674 
L 72.150839 103.812883 
L 72.631623 98.782569 
L 72.872015 94.292661 
L 72.952146 90.888843 
L 73.192538 95.537077 
L 73.43293 96.55027 
L 73.673323 96.774282 
L 73.913715 96.562641 
L 74.234238 95.832977 
L 74.715022 94.069 
L 75.356068 90.815531 
L 76.237506 85.047432 
L 77.199074 77.245587 
L 78.240774 66.849959 
L 79.122212 55.670949 
L 79.683127 45.737303 
L 79.923519 39.268189 
L 80.244042 48.911269 
L 80.885088 60.401395 
L 81.846656 73.679612 
L 83.048617 87.184568 
L 84.170447 97.510413 
L 85.132016 104.518021 
L 85.773062 107.883459 
L 86.173715 109.109422 
L 86.414108 109.267731 
L 86.574369 108.93138 
L 86.73463 107.836502 
L 86.894892 106.394154 
L 87.135284 110.592919 
L 87.535938 113.320138 
L 87.936591 114.605887 
L 88.337245 115.157776 
L 88.657768 115.234577 
L 88.978291 115.054388 
L 89.378944 114.521665 
L 89.859729 113.484929 
L 90.500774 111.485058 
L 91.221951 108.404461 
L 91.943127 104.350196 
L 92.664304 99.011245 
L 93.225219 93.366908 
L 93.625873 87.34788 
L 93.786134 82.883374 
L 93.866265 83.487215 
L 94.186788 88.776092 
L 94.667572 92.410337 
L 95.148356 94.537026 
L 95.629141 95.84672 
L 96.109925 96.577978 
L 96.510579 96.827213 
L 96.911232 96.785805 
L 97.311886 96.470871 
L 97.79267 95.738185 
L 98.353585 94.375892 
L 98.9145 92.399854 
L 99.475415 89.651034 
L 100.03633 85.73645 
L 100.436984 81.532813 
L 100.677376 77.311719 
L 100.757507 74.408216 
L 101.07803 78.885609 
L 101.398553 80.149758 
L 101.638945 80.417511 
L 101.879337 80.344194 
L 102.19986 79.869109 
L 102.600514 78.821127 
L 103.161429 76.703788 
L 103.882605 73.083218 
L 104.764043 67.448992 
L 105.725612 59.737573 
L 106.60705 50.779764 
L 107.248096 42.154451 
L 107.648749 33.704602 
L 107.72888 29.534659 
L 107.969272 37.138147 
L 108.450056 43.697226 
L 109.171233 50.211699 
L 109.97254 55.447866 
L 110.773847 59.338278 
L 111.495024 61.887163 
L 112.13607 63.411243 
L 112.616854 64.053479 
L 112.937377 64.205231 
L 113.2579 64.092426 
L 113.578423 63.650236 
L 113.898946 62.76024 
L 114.219468 61.161093 
L 114.459861 59.035314 
L 114.700253 54.806772 
L 115.020776 63.970212 
L 115.661821 74.318003 
L 116.62339 85.869079 
L 117.74522 96.537106 
L 118.78692 104.463344 
L 119.668358 109.663417 
L 120.309403 112.340095 
L 120.710057 113.321152 
L 120.950449 113.519097 
L 121.110711 113.407375 
L 121.270972 113.000486 
L 121.431233 112.088666 
L 121.671626 109.578579 
L 121.912018 114.564292 
L 122.312671 118.513917 
L 122.873586 121.790787 
L 123.434502 123.825205 
L 123.995417 125.059535 
L 124.476201 125.615931 
L 124.876855 125.766594 
L 125.277508 125.646791 
L 125.678162 125.257617 
L 126.158946 124.419906 
L 126.63973 123.134967 
L 127.200646 120.94614 
L 127.761561 117.692932 
L 128.162214 114.192548 
L 128.482737 109.421715 
L 128.562868 107.056897 
L 128.642999 107.680314 
L 128.963521 113.675974 
L 129.444306 118.306158 
L 130.085352 122.263694 
L 130.726397 124.922424 
L 131.367443 126.689943 
L 131.928358 127.629044 
L 132.409143 128.012574 
L 132.809796 128.033019 
L 133.130319 127.843287 
L 133.530973 127.324074 
L 133.931626 126.444264 
L 134.412411 124.782299 
L 134.893195 122.122643 
L 135.293849 118.316381 
L 135.45411 115.590136 
L 135.534241 112.931035 
L 135.934894 120.076681 
L 136.415679 124.063956 
L 136.976594 126.910989 
L 137.537509 128.72185 
L 138.098424 129.808829 
L 138.579208 130.26659 
L 138.979862 130.343831 
L 139.380515 130.152488 
L 139.781169 129.688414 
L 140.261953 128.747852 
L 140.742738 127.3314 
L 141.303653 124.91249 
L 141.784437 121.854458 
L 142.185091 117.932702 
L 142.425483 113.74801 
L 142.505614 109.992691 
L 142.746006 116.674172 
L 143.146659 120.864235 
L 143.707574 124.289968 
L 144.26849 126.427402 
L 144.829405 127.748979 
L 145.310189 128.374499 
L 145.710843 128.58088 
L 146.111496 128.516209 
L 146.51215 128.182492 
L 146.992934 127.413156 
L 147.473718 126.200833 
L 148.034633 124.107945 
L 148.595549 120.980837 
L 148.996202 117.632685 
L 149.316725 113.236252 
L 149.476987 109.28027 
L 149.717379 115.089728 
L 150.118032 119.446282 
L 150.678947 123.19654 
L 151.319993 125.963364 
L 151.880908 127.541149 
L 152.441823 128.50519 
L 152.922608 128.896517 
L 153.323261 128.926984 
L 153.723915 128.683926 
L 154.124568 128.150225 
L 154.605353 127.077607 
L 155.086137 125.426554 
L 155.566921 122.958506 
L 155.967575 119.822306 
L 156.288098 115.486421 
L 156.448359 112.708418 
L 156.688752 117.711026 
L 157.089405 121.594598 
L 157.65032 124.767395 
L 158.211235 126.694795 
L 158.77215 127.821083 
L 159.252935 128.284501 
L 159.653588 128.35756 
L 160.054242 128.160117 
L 160.454896 127.693327 
L 160.93568 126.762602 
L 161.496595 125.106547 
L 162.05751 122.68594 
L 162.618425 119.122049 
L 163.019079 115.223278 
L 163.259471 111.350581 
L 163.339602 109.012607 
L 163.419732 109.434503 
L 163.740255 115.324706 
L 164.22104 119.729965 
L 164.781955 123.007566 
L 165.423 125.487057 
L 165.983915 126.891663 
L 166.4647 127.629126 
L 166.865353 127.941609 
L 167.266007 127.985582 
L 167.666661 127.755164 
L 168.067314 127.232172 
L 168.548099 126.167591 
L 169.028883 124.514297 
L 169.509667 122.019862 
L 169.910321 118.802882 
L 170.230844 114.134353 
L 170.310974 111.508307 
L 170.711628 118.002968 
L 171.112282 120.951112 
L 171.593066 123.026195 
L 172.07385 124.228597 
L 172.474504 124.76463 
L 172.875158 124.958522 
L 173.195681 124.89577 
L 173.596334 124.565073 
L 174.077118 123.81203 
L 174.638034 122.438161 
L 175.279079 120.154862 
L 175.920125 116.929819 
L 176.48104 112.958381 
L 176.961824 107.828357 
L 177.202217 103.363029 
L 177.282347 99.78097 
L 177.52274 105.443551 
L 177.923393 108.555377 
L 178.324047 110.081973 
L 178.7247 110.839166 
L 179.045223 111.068971 
L 179.365746 111.036251 
L 179.686269 110.779349 
L 180.086923 110.178967 
L 180.647838 108.86354 
L 181.288884 106.712406 
L 182.01006 103.431828 
L 182.731237 99.061643 
L 183.372282 93.839676 
L 183.853067 88.316947 
L 184.17359 82.063276 
L 184.25372 79.510961 
L 184.494112 83.541632 
L 184.734505 84.544838 
L 184.974897 84.781009 
L 185.135158 84.690229 
L 185.37555 84.29296 
L 185.776204 83.119292 
L 186.337119 80.699929 
L 187.138426 76.078645 
L 188.099995 69.042072 
L 189.141694 59.601181 
L 190.103263 48.683794 
L 190.744309 39.153984 
L 191.064832 32.319084 
L 191.225093 28.325242 
L 191.465485 33.121226 
L 191.866139 36.560583 
L 192.346923 38.830457 
L 192.827708 40.11535 
L 193.228361 40.684773 
L 193.629015 40.895384 
L 193.949538 40.838987 
L 194.350191 40.511408 
L 194.830976 39.759626 
L 195.391891 38.390651 
L 196.032937 36.130313 
L 196.673982 32.974618 
L 197.234897 29.167859 
L 197.715682 24.487843 
L 198.036205 19.33903 
L 198.116335 16.949823 
L 198.196466 17.389614 
L 198.516989 25.035644 
L 199.158035 33.936783 
L 200.039473 42.78029 
L 201.001041 50.237868 
L 201.96261 56.035486 
L 202.763917 59.657449 
L 203.404963 61.640925 
L 203.805617 62.348357 
L 204.12614 62.511132 
L 204.366532 62.305247 
L 204.606924 61.678168 
L 204.847316 60.305068 
L 205.007578 58.393936 
L 205.087708 56.259347 
L 205.648623 67.033369 
L 206.289669 73.878158 
L 207.090976 80.060534 
L 207.972414 85.13407 
L 208.773721 88.540566 
L 209.494898 90.676852 
L 210.055813 91.672227 
L 210.456467 91.956953 
L 210.696859 91.91894 
L 210.937251 91.687736 
L 211.257774 90.987561 
L 211.578297 89.605708 
L 211.818689 87.706783 
L 211.97895 85.335419 
L 212.059081 82.373435 
L 212.299473 87.821764 
L 212.700127 90.998656 
L 213.100781 92.580965 
L 213.501434 93.39167 
L 213.821957 93.663598 
L 214.14248 93.672666 
L 214.463003 93.457342 
L 214.863656 92.90875 
L 215.344441 91.875866 
L 215.985487 89.893661 
L 216.706663 86.81265 
L 217.42784 82.674017 
L 218.068885 77.737258 
L 218.6298 71.545581 
L 218.950323 65.370728 
L 219.030454 62.643801 
L 219.270846 67.474075 
L 219.591369 69.52799 
L 219.911892 70.437243 
L 220.232415 70.752623 
L 220.472807 70.721035 
L 220.79333 70.403197 
L 221.193984 69.644284 
L 221.754899 68.023031 
L 222.476075 65.111113 
L 222.556206 64.733447 
L 222.556206 64.733447 
" clip-path="url(#p2a5dc3ef1b)" style="fill: none; stroke-dasharray: 1.4,2.31; stroke-dashoffset: 0; stroke: #ff0000; stroke-width: 1.4"/>
   </g>
   <g id="patch_3">
    <path d="M 37.010549 139.988242 
L 37.010549 12.641765 
" style="fill: none; stroke: #000000; stroke-width: 0.8; stroke-linejoin: miter; stroke-linecap: square"/>
   </g>
   <g id="patch_4">
    <path d="M 222.498334 139.988242 
L 222.498334 12.641765 
" style="fill: none; stroke: #000000; stroke-width: 0.8; stroke-linejoin: miter; stroke-linecap: square"/>
   </g>
   <g id="patch_5">
    <path d="M 37.010549 139.988242 
L 222.498334 139.988242 
" style="fill: none; stroke: #000000; stroke-width: 0.8; stroke-linejoin: miter; stroke-linecap: square"/>
   </g>
   <g id="patch_6">
    <path d="M 37.010549 12.641765 
L 222.498334 12.641765 
" style="fill: none; stroke: #000000; stroke-width: 0.8; stroke-linejoin: miter; stroke-linecap: square"/>
   </g>
   <g id="text_11">
    <!-- Model: $Brown$ -->
    <g transform="translate(97.517952 6.641765) scale(0.096 -0.096)">
     <defs>
      <path id="CMR17-4d" d="M 1338 4224 
C 1299 4320 1293 4320 1158 4320 
L 339 4320 
L 339 4160 
C 781 4160 851 4160 851 3875 
L 851 610 
C 851 451 851 153 339 153 
L 339 -13 
C 486 0 755 0 915 0 
C 1075 0 1344 0 1491 -13 
L 1491 153 
C 979 153 979 451 979 610 
L 979 4135 
L 986 4135 
L 2490 89 
C 2515 25 2528 -13 2579 -13 
C 2630 -13 2643 25 2669 89 
L 4186 4166 
L 4192 4166 
L 4192 438 
C 4192 153 4122 153 3680 153 
L 3680 -13 
C 3853 0 4198 0 4384 0 
C 4570 0 4922 0 5094 -13 
L 5094 153 
C 4653 153 4582 153 4582 438 
L 4582 3875 
C 4582 4160 4653 4160 5094 4160 
L 5094 4320 
L 4282 4320 
C 4147 4320 4141 4314 4102 4218 
L 2720 502 
L 1338 4224 
z
" transform="scale(0.015625)"/>
      <path id="CMR17-6f" d="M 2758 1356 
C 2758 2176 2163 2816 1466 2816 
C 768 2816 173 2176 173 1356 
C 173 551 768 -64 1466 -64 
C 2163 -64 2758 551 2758 1356 
z
M 1466 51 
C 1165 51 909 230 762 480 
C 602 767 582 1126 582 1408 
C 582 1677 595 2010 762 2298 
C 890 2509 1139 2714 1466 2714 
C 1754 2714 1997 2554 2150 2330 
C 2349 2029 2349 1607 2349 1408 
C 2349 1158 2336 775 2163 467 
C 1984 173 1709 51 1466 51 
z
" transform="scale(0.015625)"/>
      <path id="CMR17-64" d="M 1869 4326 
L 1869 4160 
C 2246 4160 2304 4122 2304 3820 
L 2304 2345 
C 2278 2377 2016 2790 1498 2790 
C 845 2790 211 2208 211 1364 
C 211 525 806 -64 1434 -64 
C 1978 -64 2259 337 2291 380 
L 2291 -63 
L 3066 -63 
L 3066 128 
C 2688 128 2630 166 2630 473 
L 2630 4396 
L 1869 4326 
z
M 2291 755 
C 2291 563 2176 390 2029 262 
C 1811 70 1594 38 1472 38 
C 1286 38 621 134 621 1356 
C 621 2612 1363 2688 1530 2688 
C 1824 2688 2061 2522 2208 2291 
C 2291 2157 2291 2138 2291 2023 
L 2291 755 
z
" transform="scale(0.015625)"/>
      <path id="CMR17-3a" d="M 1062 2491 
C 1062 2650 934 2752 800 2752 
C 672 2752 538 2650 538 2491 
C 538 2332 666 2230 800 2230 
C 928 2230 1062 2332 1062 2491 
z
M 1062 261 
C 1062 420 934 522 800 522 
C 672 522 538 420 538 261 
C 538 102 666 0 800 0 
C 928 0 1062 102 1062 261 
z
" transform="scale(0.015625)"/>
      <path id="CMMI12-42" d="M 2342 3921 
C 2400 4160 2426 4160 2675 4160 
L 3507 4160 
C 4230 4160 4230 3544 4230 3485 
C 4230 2966 3712 2304 2867 2304 
L 1946 2304 
L 2342 3921 
z
M 3424 2275 
C 4122 2402 4755 2886 4755 3473 
C 4755 3970 4314 4352 3590 4352 
L 1536 4352 
C 1414 4352 1357 4352 1357 4226 
C 1357 4160 1414 4160 1510 4160 
C 1901 4160 1901 4112 1901 4044 
C 1901 4032 1901 3993 1875 3897 
L 1011 472 
C 954 249 941 185 493 185 
C 371 185 307 185 307 70 
C 307 0 346 0 474 0 
L 2669 0 
C 3648 0 4403 739 4403 1383 
C 4403 1906 3942 2224 3424 2275 
z
M 2515 185 
L 1651 185 
C 1562 185 1549 185 1510 192 
C 1440 198 1434 211 1434 261 
C 1434 305 1446 343 1459 399 
L 1907 2176 
L 3110 2176 
C 3866 2176 3866 1483 3866 1433 
C 3866 828 3309 185 2515 185 
z
" transform="scale(0.015625)"/>
      <path id="CMMI12-72" d="M 2490 2612 
C 2291 2574 2189 2433 2189 2293 
C 2189 2139 2310 2088 2400 2088 
C 2579 2088 2726 2242 2726 2433 
C 2726 2638 2528 2816 2208 2816 
C 1952 2816 1658 2701 1389 2312 
C 1344 2650 1088 2816 832 2816 
C 582 2816 454 2625 378 2484 
C 269 2254 173 1871 173 1839 
C 173 1814 198 1782 243 1782 
C 294 1782 301 1788 339 1935 
C 435 2318 557 2689 813 2689 
C 966 2689 1011 2580 1011 2395 
C 1011 2254 947 2005 902 1807 
L 723 1118 
C 698 996 627 709 595 594 
C 550 428 480 128 480 96 
C 480 6 550 -64 646 -64 
C 717 -64 838 -19 877 109 
C 896 160 1133 1124 1171 1271 
C 1203 1411 1242 1546 1274 1686 
C 1299 1775 1325 1878 1344 1961 
C 1363 2018 1536 2331 1696 2472 
C 1773 2542 1939 2689 2202 2689 
C 2304 2689 2406 2670 2490 2612 
z
" transform="scale(0.015625)"/>
      <path id="CMMI12-6f" d="M 2918 1756 
C 2918 2363 2522 2816 1939 2816 
C 1094 2816 262 1897 262 996 
C 262 390 659 -64 1242 -64 
C 2093 -64 2918 856 2918 1756 
z
M 1248 64 
C 928 64 691 319 691 766 
C 691 1060 845 1712 1024 2031 
C 1312 2523 1670 2689 1933 2689 
C 2246 2689 2490 2433 2490 1986 
C 2490 1731 2355 1047 2112 658 
C 1850 230 1498 64 1248 64 
z
" transform="scale(0.015625)"/>
      <path id="CMMI12-77" d="M 2202 390 
C 2342 6 2739 -64 2982 -64 
C 3469 -64 3757 358 3936 798 
C 4083 1169 4320 2012 4320 2389 
C 4320 2778 4122 2816 4064 2816 
C 3910 2816 3770 2663 3770 2535 
C 3770 2459 3814 2414 3846 2389 
C 3904 2331 4070 2159 4070 1827 
C 4070 1609 3891 1009 3757 709 
C 3578 319 3341 64 3008 64 
C 2650 64 2534 332 2534 626 
C 2534 811 2592 1035 2618 1143 
L 2886 2216 
C 2918 2344 2976 2567 2976 2593 
C 2976 2689 2899 2753 2803 2753 
C 2618 2753 2573 2593 2534 2440 
C 2470 2191 2202 1111 2176 971 
C 2150 862 2150 792 2150 651 
C 2150 498 1946 255 1939 243 
C 1869 172 1766 64 1568 64 
C 1062 64 1062 543 1062 651 
C 1062 856 1107 1137 1395 1897 
C 1472 2095 1504 2178 1504 2305 
C 1504 2574 1312 2816 998 2816 
C 410 2816 173 1890 173 1839 
C 173 1814 198 1782 243 1782 
C 301 1782 307 1807 333 1896 
C 493 2454 742 2682 979 2682 
C 1043 2682 1146 2682 1146 2478 
C 1146 2446 1146 2312 1037 2031 
C 736 1233 672 971 672 728 
C 672 57 1222 -64 1549 -64 
C 1658 -64 1946 -64 2202 390 
z
" transform="scale(0.015625)"/>
      <path id="CMMI12-6e" d="M 1318 1871 
C 1331 1910 1491 2229 1728 2433 
C 1894 2586 2112 2689 2362 2689 
C 2618 2689 2707 2497 2707 2242 
C 2707 1878 2445 1150 2317 805 
C 2259 651 2227 568 2227 453 
C 2227 166 2426 -64 2733 -64 
C 3328 -64 3552 875 3552 913 
C 3552 945 3526 971 3488 971 
C 3430 971 3424 952 3392 843 
C 3245 319 3002 64 2752 64 
C 2688 64 2586 64 2586 269 
C 2586 429 2656 621 2694 710 
C 2822 1063 3091 1780 3091 2145 
C 3091 2528 2867 2816 2381 2816 
C 1811 2816 1510 2415 1395 2255 
C 1376 2618 1114 2816 832 2816 
C 627 2816 486 2695 378 2478 
C 262 2248 173 1865 173 1839 
C 173 1814 198 1782 243 1782 
C 294 1782 301 1788 339 1935 
C 442 2325 557 2689 813 2689 
C 960 2689 1011 2586 1011 2395 
C 1011 2254 947 2005 902 1807 
L 723 1118 
C 698 996 627 709 595 594 
C 550 428 480 128 480 96 
C 480 6 550 -64 646 -64 
C 723 -64 813 -26 864 70 
C 877 102 934 326 966 453 
L 1107 1028 
L 1318 1871 
z
" transform="scale(0.015625)"/>
     </defs>
     <use xlink:href="#CMR17-4d" transform="scale(0.996264)"/>
     <use xlink:href="#CMR17-6f" transform="translate(84.686941 0) scale(0.996264)"/>
     <use xlink:href="#CMR17-64" transform="translate(132.979856 0) scale(0.996264)"/>
     <use xlink:href="#CMR17-65" transform="translate(183.875226 0) scale(0.996264)"/>
     <use xlink:href="#CMR17-6c" transform="translate(224.360887 0) scale(0.996264)"/>
     <use xlink:href="#CMR17-3a" transform="translate(249.231945 0) scale(0.996264)"/>
     <use xlink:href="#CMMI12-42" transform="translate(314.588664 0) scale(0.996264)"/>
     <use xlink:href="#CMMI12-72" transform="translate(393.724187 0) scale(0.996264)"/>
     <use xlink:href="#CMMI12-6f" transform="translate(440.394799 0) scale(0.996264)"/>
     <use xlink:href="#CMMI12-77" transform="translate(487.290109 0) scale(0.996264)"/>
     <use xlink:href="#CMMI12-6e" transform="translate(559.703024 0) scale(0.996264)"/>
    </g>
   </g>
  </g>
 </g>
 <defs>
  <clipPath id="p2a5dc3ef1b">
   <rect x="37.010549" y="12.641765" width="185.487785" height="127.346477"/>
  </clipPath>
 </defs>
</svg>
