<?xml version="1.0" encoding="utf-8" standalone="no"?>
<!DOCTYPE svg PUBLIC "-//W3C//DTD SVG 1.1//EN"
  "http://www.w3.org/Graphics/SVG/1.1/DTD/svg11.dtd">
<svg xmlns:xlink="http://www.w3.org/1999/xlink" width="228.849608pt" height="169.028466pt" viewBox="0 0 228.849608 169.028466" xmlns="http://www.w3.org/2000/svg" version="1.1">
 <metadata>
  <rdf:RDF xmlns:dc="http://purl.org/dc/elements/1.1/" xmlns:cc="http://creativecommons.org/ns#" xmlns:rdf="http://www.w3.org/1999/02/22-rdf-syntax-ns#">
   <cc:Work>
    <dc:type rdf:resource="http://purl.org/dc/dcmitype/StillImage"/>
    <dc:date>2023-10-27T18:15:52.870031</dc:date>
    <dc:format>image/svg+xml</dc:format>
    <dc:creator>
     <cc:Agent>
      <dc:title>Matplotlib v3.7.3, https://matplotlib.org/</dc:title>
     </cc:Agent>
    </dc:creator>
   </cc:Work>
  </rdf:RDF>
 </metadata>
 <defs>
  <style type="text/css">*{stroke-linejoin: round; stroke-linecap: butt}</style>
 </defs>
 <g id="figure_1">
  <g id="patch_1">
   <path d="M 0 169.028466 
L 228.849608 169.028466 
L 228.849608 0 
L 0 0 
L 0 169.028466 
z
" style="fill: none"/>
  </g>
  <g id="axes_1">
   <g id="patch_2">
    <path d="M 37.010549 139.988242 
L 222.498334 139.988242 
L 222.498334 12.641765 
L 37.010549 12.641765 
L 37.010549 139.988242 
z
" style="fill: none"/>
   </g>
   <g id="PathCollection_1">
    <defs>
     <path id="m1592f65e94" d="M -2.8 2.8 
L 2.8 -2.8 
M -2.8 -2.8 
L 2.8 2.8 
" style="stroke: #0000ff; stroke-width: 0.75"/>
    </defs>
    <g clip-path="url(#pc0fde91b94)">
     <use xlink:href="#m1592f65e94" x="-1" y="59.675125" style="fill: #0000ff; stroke: #0000ff; stroke-width: 0.75"/>
     <use xlink:href="#m1592f65e94" x="4.550187" y="69.475645" style="fill: #0000ff; stroke: #0000ff; stroke-width: 0.75"/>
     <use xlink:href="#m1592f65e94" x="32.373354" y="45.115751" style="fill: #0000ff; stroke: #0000ff; stroke-width: 0.75"/>
     <use xlink:href="#m1592f65e94" x="60.196522" y="98.553247" style="fill: #0000ff; stroke: #0000ff; stroke-width: 0.75"/>
     <use xlink:href="#m1592f65e94" x="88.01969" y="89.973228" style="fill: #0000ff; stroke: #0000ff; stroke-width: 0.75"/>
     <use xlink:href="#m1592f65e94" x="115.842858" y="36.951659" style="fill: #0000ff; stroke: #0000ff; stroke-width: 0.75"/>
     <use xlink:href="#m1592f65e94" x="143.666025" y="103.663941" style="fill: #0000ff; stroke: #0000ff; stroke-width: 0.75"/>
     <use xlink:href="#m1592f65e94" x="171.489193" y="80.114361" style="fill: #0000ff; stroke: #0000ff; stroke-width: 0.75"/>
     <use xlink:href="#m1592f65e94" x="199.312361" y="72.527332" style="fill: #0000ff; stroke: #0000ff; stroke-width: 0.75"/>
     <use xlink:href="#m1592f65e94" x="227.135528" y="28.91717" style="fill: #0000ff; stroke: #0000ff; stroke-width: 0.75"/>
     <use xlink:href="#m1592f65e94" x="254.958696" y="52.673229" style="fill: #0000ff; stroke: #0000ff; stroke-width: 0.75"/>
     <use xlink:href="#m1592f65e94" x="282.781864" y="106.832961" style="fill: #0000ff; stroke: #0000ff; stroke-width: 0.75"/>
     <use xlink:href="#m1592f65e94" x="310.605031" y="104.283174" style="fill: #0000ff; stroke: #0000ff; stroke-width: 0.75"/>
     <use xlink:href="#m1592f65e94" x="338.428199" y="110.946079" style="fill: #0000ff; stroke: #0000ff; stroke-width: 0.75"/>
     <use xlink:href="#m1592f65e94" x="366.251367" y="109.383365" style="fill: #0000ff; stroke: #0000ff; stroke-width: 0.75"/>
     <use xlink:href="#m1592f65e94" x="394.074534" y="107.406892" style="fill: #0000ff; stroke: #0000ff; stroke-width: 0.75"/>
     <use xlink:href="#m1592f65e94" x="421.897702" y="110.059572" style="fill: #0000ff; stroke: #0000ff; stroke-width: 0.75"/>
     <use xlink:href="#m1592f65e94" x="449.72087" y="106.139555" style="fill: #0000ff; stroke: #0000ff; stroke-width: 0.75"/>
     <use xlink:href="#m1592f65e94" x="477.544037" y="109.391123" style="fill: #0000ff; stroke: #0000ff; stroke-width: 0.75"/>
     <use xlink:href="#m1592f65e94" x="505.367205" y="98.832525" style="fill: #0000ff; stroke: #0000ff; stroke-width: 0.75"/>
     <use xlink:href="#m1592f65e94" x="533.190373" y="77.881619" style="fill: #0000ff; stroke: #0000ff; stroke-width: 0.75"/>
     <use xlink:href="#m1592f65e94" x="561.01354" y="25.802366" style="fill: #0000ff; stroke: #0000ff; stroke-width: 0.75"/>
     <use xlink:href="#m1592f65e94" x="588.836708" y="13.941617" style="fill: #0000ff; stroke: #0000ff; stroke-width: 0.75"/>
     <use xlink:href="#m1592f65e94" x="616.659876" y="54.137071" style="fill: #0000ff; stroke: #0000ff; stroke-width: 0.75"/>
     <use xlink:href="#m1592f65e94" x="644.483044" y="81.210341" style="fill: #0000ff; stroke: #0000ff; stroke-width: 0.75"/>
     <use xlink:href="#m1592f65e94" x="672.306211" y="61.126264" style="fill: #0000ff; stroke: #0000ff; stroke-width: 0.75"/>
     <use xlink:href="#m1592f65e94" x="700.129379" y="28.541974" style="fill: #0000ff; stroke: #0000ff; stroke-width: 0.75"/>
     <use xlink:href="#m1592f65e94" x="727.952547" y="89.465282" style="fill: #0000ff; stroke: #0000ff; stroke-width: 0.75"/>
     <use xlink:href="#m1592f65e94" x="755.775714" y="111.296845" style="fill: #0000ff; stroke: #0000ff; stroke-width: 0.75"/>
     <use xlink:href="#m1592f65e94" x="783.598882" y="99.814334" style="fill: #0000ff; stroke: #0000ff; stroke-width: 0.75"/>
     <use xlink:href="#m1592f65e94" x="811.42205" y="97.401994" style="fill: #0000ff; stroke: #0000ff; stroke-width: 0.75"/>
     <use xlink:href="#m1592f65e94" x="839.245217" y="98.074089" style="fill: #0000ff; stroke: #0000ff; stroke-width: 0.75"/>
     <use xlink:href="#m1592f65e94" x="867.068385" y="94.608685" style="fill: #0000ff; stroke: #0000ff; stroke-width: 0.75"/>
     <use xlink:href="#m1592f65e94" x="894.891553" y="97.024412" style="fill: #0000ff; stroke: #0000ff; stroke-width: 0.75"/>
     <use xlink:href="#m1592f65e94" x="922.71472" y="94.019207" style="fill: #0000ff; stroke: #0000ff; stroke-width: 0.75"/>
     <use xlink:href="#m1592f65e94" x="950.537888" y="97.993313" style="fill: #0000ff; stroke: #0000ff; stroke-width: 0.75"/>
     <use xlink:href="#m1592f65e94" x="978.361056" y="107.279991" style="fill: #0000ff; stroke: #0000ff; stroke-width: 0.75"/>
     <use xlink:href="#m1592f65e94" x="1006.184223" y="98.416865" style="fill: #0000ff; stroke: #0000ff; stroke-width: 0.75"/>
     <use xlink:href="#m1592f65e94" x="1034.007391" y="101.569261" style="fill: #0000ff; stroke: #0000ff; stroke-width: 0.75"/>
     <use xlink:href="#m1592f65e94" x="1061.830559" y="99.298402" style="fill: #0000ff; stroke: #0000ff; stroke-width: 0.75"/>
     <use xlink:href="#m1592f65e94" x="1089.653727" y="102.967442" style="fill: #0000ff; stroke: #0000ff; stroke-width: 0.75"/>
     <use xlink:href="#m1592f65e94" x="1117.476894" y="109.070455" style="fill: #0000ff; stroke: #0000ff; stroke-width: 0.75"/>
     <use xlink:href="#m1592f65e94" x="1145.300062" y="99.244858" style="fill: #0000ff; stroke: #0000ff; stroke-width: 0.75"/>
     <use xlink:href="#m1592f65e94" x="1173.12323" y="96.963599" style="fill: #0000ff; stroke: #0000ff; stroke-width: 0.75"/>
     <use xlink:href="#m1592f65e94" x="1200.946397" y="93.714278" style="fill: #0000ff; stroke: #0000ff; stroke-width: 0.75"/>
     <use xlink:href="#m1592f65e94" x="1228.769565" y="98.137335" style="fill: #0000ff; stroke: #0000ff; stroke-width: 0.75"/>
     <use xlink:href="#m1592f65e94" x="1256.592733" y="95.713222" style="fill: #0000ff; stroke: #0000ff; stroke-width: 0.75"/>
     <use xlink:href="#m1592f65e94" x="1284.4159" y="94.547712" style="fill: #0000ff; stroke: #0000ff; stroke-width: 0.75"/>
     <use xlink:href="#m1592f65e94" x="1312.239068" y="53.735097" style="fill: #0000ff; stroke: #0000ff; stroke-width: 0.75"/>
     <use xlink:href="#m1592f65e94" x="1340.062236" y="81.271932" style="fill: #0000ff; stroke: #0000ff; stroke-width: 0.75"/>
     <use xlink:href="#m1592f65e94" x="1367.885403" y="69.327263" style="fill: #0000ff; stroke: #0000ff; stroke-width: 0.75"/>
     <use xlink:href="#m1592f65e94" x="1395.708571" y="61.498579" style="fill: #0000ff; stroke: #0000ff; stroke-width: 0.75"/>
     <use xlink:href="#m1592f65e94" x="1423.531739" y="65.152271" style="fill: #0000ff; stroke: #0000ff; stroke-width: 0.75"/>
     <use xlink:href="#m1592f65e94" x="1451.354906" y="81.986799" style="fill: #0000ff; stroke: #0000ff; stroke-width: 0.75"/>
     <use xlink:href="#m1592f65e94" x="1479.178074" y="81.609544" style="fill: #0000ff; stroke: #0000ff; stroke-width: 0.75"/>
     <use xlink:href="#m1592f65e94" x="1507.001242" y="70.785894" style="fill: #0000ff; stroke: #0000ff; stroke-width: 0.75"/>
     <use xlink:href="#m1592f65e94" x="1534.82441" y="60.690429" style="fill: #0000ff; stroke: #0000ff; stroke-width: 0.75"/>
     <use xlink:href="#m1592f65e94" x="1562.647577" y="82.21721" style="fill: #0000ff; stroke: #0000ff; stroke-width: 0.75"/>
     <use xlink:href="#m1592f65e94" x="1590.470745" y="85.056419" style="fill: #0000ff; stroke: #0000ff; stroke-width: 0.75"/>
     <use xlink:href="#m1592f65e94" x="1618.293913" y="88.074179" style="fill: #0000ff; stroke: #0000ff; stroke-width: 0.75"/>
     <use xlink:href="#m1592f65e94" x="1646.11708" y="89.831767" style="fill: #0000ff; stroke: #0000ff; stroke-width: 0.75"/>
     <use xlink:href="#m1592f65e94" x="1673.940248" y="90.382841" style="fill: #0000ff; stroke: #0000ff; stroke-width: 0.75"/>
     <use xlink:href="#m1592f65e94" x="1701.763416" y="92.577913" style="fill: #0000ff; stroke: #0000ff; stroke-width: 0.75"/>
     <use xlink:href="#m1592f65e94" x="1729.586583" y="91.551595" style="fill: #0000ff; stroke: #0000ff; stroke-width: 0.75"/>
     <use xlink:href="#m1592f65e94" x="1757.409751" y="93.890084" style="fill: #0000ff; stroke: #0000ff; stroke-width: 0.75"/>
     <use xlink:href="#m1592f65e94" x="1785.232919" y="93.188317" style="fill: #0000ff; stroke: #0000ff; stroke-width: 0.75"/>
     <use xlink:href="#m1592f65e94" x="1813.056086" y="100.795421" style="fill: #0000ff; stroke: #0000ff; stroke-width: 0.75"/>
     <use xlink:href="#m1592f65e94" x="1840.879254" y="105.012369" style="fill: #0000ff; stroke: #0000ff; stroke-width: 0.75"/>
     <use xlink:href="#m1592f65e94" x="1868.702422" y="105.22973" style="fill: #0000ff; stroke: #0000ff; stroke-width: 0.75"/>
     <use xlink:href="#m1592f65e94" x="1896.525589" y="111.133507" style="fill: #0000ff; stroke: #0000ff; stroke-width: 0.75"/>
     <use xlink:href="#m1592f65e94" x="1924.348757" y="111.108162" style="fill: #0000ff; stroke: #0000ff; stroke-width: 0.75"/>
     <use xlink:href="#m1592f65e94" x="1952.171925" y="108.617385" style="fill: #0000ff; stroke: #0000ff; stroke-width: 0.75"/>
    </g>
   </g>
   <g id="matplotlib.axis_1">
    <g id="xtick_1">
     <g id="line2d_1">
      <defs>
       <path id="m2d13ecf4db" d="M 0 0 
L 0 3.5 
" style="stroke: #000000; stroke-width: 0.8"/>
      </defs>
      <g>
       <use xlink:href="#m2d13ecf4db" x="37.010549" y="139.988242" style="stroke: #000000; stroke-width: 0.8"/>
      </g>
     </g>
     <g id="text_1">
      <!-- $\mathdefault{400}$ -->
      <g transform="translate(30.659275 154.623044) scale(0.08 -0.08)">
       <defs>
        <path id="CMR17-34" d="M 2150 4122 
C 2150 4256 2144 4256 2029 4256 
L 128 1254 
L 128 1088 
L 1779 1088 
L 1779 457 
C 1779 224 1766 160 1318 160 
L 1197 160 
L 1197 0 
C 1402 0 1747 0 1965 0 
C 2182 0 2528 0 2733 0 
L 2733 160 
L 2611 160 
C 2163 160 2150 224 2150 457 
L 2150 1088 
L 2803 1088 
L 2803 1254 
L 2150 1254 
L 2150 4122 
z
M 1798 3703 
L 1798 1254 
L 256 1254 
L 1798 3703 
z
" transform="scale(0.015625)"/>
        <path id="CMR17-30" d="M 2688 2025 
C 2688 2416 2682 3080 2413 3591 
C 2176 4039 1798 4198 1466 4198 
C 1158 4198 768 4058 525 3597 
C 269 3118 243 2524 243 2025 
C 243 1661 250 1106 448 619 
C 723 -39 1216 -128 1466 -128 
C 1760 -128 2208 -7 2470 600 
C 2662 1042 2688 1559 2688 2025 
z
M 1466 -26 
C 1056 -26 813 325 723 812 
C 653 1188 653 1738 653 2096 
C 653 2588 653 2997 736 3387 
C 858 3929 1216 4096 1466 4096 
C 1728 4096 2067 3923 2189 3400 
C 2272 3036 2278 2607 2278 2096 
C 2278 1680 2278 1169 2202 792 
C 2067 95 1690 -26 1466 -26 
z
" transform="scale(0.015625)"/>
       </defs>
       <use xlink:href="#CMR17-34" transform="scale(0.996264)"/>
       <use xlink:href="#CMR17-30" transform="translate(45.690477 0) scale(0.996264)"/>
       <use xlink:href="#CMR17-30" transform="translate(91.380954 0) scale(0.996264)"/>
      </g>
     </g>
    </g>
    <g id="xtick_2">
     <g id="line2d_2">
      <g>
       <use xlink:href="#m2d13ecf4db" x="74.108106" y="139.988242" style="stroke: #000000; stroke-width: 0.8"/>
      </g>
     </g>
     <g id="text_2">
      <!-- $\mathdefault{420}$ -->
      <g transform="translate(67.756832 154.623044) scale(0.08 -0.08)">
       <defs>
        <path id="CMR17-32" d="M 2669 989 
L 2554 989 
C 2490 536 2438 459 2413 420 
C 2381 369 1920 369 1830 369 
L 602 369 
C 832 619 1280 1072 1824 1597 
C 2214 1967 2669 2402 2669 3035 
C 2669 3790 2067 4224 1395 4224 
C 691 4224 262 3604 262 3030 
C 262 2780 448 2748 525 2748 
C 589 2748 781 2787 781 3010 
C 781 3207 614 3264 525 3264 
C 486 3264 448 3258 422 3245 
C 544 3790 915 4058 1306 4058 
C 1862 4058 2227 3617 2227 3035 
C 2227 2479 1901 2000 1536 1584 
L 262 146 
L 262 0 
L 2515 0 
L 2669 989 
z
" transform="scale(0.015625)"/>
       </defs>
       <use xlink:href="#CMR17-34" transform="scale(0.996264)"/>
       <use xlink:href="#CMR17-32" transform="translate(45.690477 0) scale(0.996264)"/>
       <use xlink:href="#CMR17-30" transform="translate(91.380954 0) scale(0.996264)"/>
      </g>
     </g>
    </g>
    <g id="xtick_3">
     <g id="line2d_3">
      <g>
       <use xlink:href="#m2d13ecf4db" x="111.205663" y="139.988242" style="stroke: #000000; stroke-width: 0.8"/>
      </g>
     </g>
     <g id="text_3">
      <!-- $\mathdefault{440}$ -->
      <g transform="translate(104.854389 154.623044) scale(0.08 -0.08)">
       <use xlink:href="#CMR17-34" transform="scale(0.996264)"/>
       <use xlink:href="#CMR17-34" transform="translate(45.690477 0) scale(0.996264)"/>
       <use xlink:href="#CMR17-30" transform="translate(91.380954 0) scale(0.996264)"/>
      </g>
     </g>
    </g>
    <g id="xtick_4">
     <g id="line2d_4">
      <g>
       <use xlink:href="#m2d13ecf4db" x="148.30322" y="139.988242" style="stroke: #000000; stroke-width: 0.8"/>
      </g>
     </g>
     <g id="text_4">
      <!-- $\mathdefault{460}$ -->
      <g transform="translate(141.951946 154.623044) scale(0.08 -0.08)">
       <defs>
        <path id="CMR17-36" d="M 678 2176 
C 678 3690 1395 4032 1811 4032 
C 1946 4032 2272 4009 2400 3776 
C 2298 3776 2106 3776 2106 3553 
C 2106 3381 2246 3323 2336 3323 
C 2394 3323 2566 3348 2566 3560 
C 2566 3954 2246 4179 1805 4179 
C 1043 4179 243 3390 243 1984 
C 243 253 966 -128 1478 -128 
C 2099 -128 2688 427 2688 1283 
C 2688 2081 2170 2662 1517 2662 
C 1126 2662 838 2407 678 1960 
L 678 2176 
z
M 1478 25 
C 691 25 691 1200 691 1436 
C 691 1896 909 2560 1504 2560 
C 1613 2560 1926 2560 2138 2120 
C 2253 1870 2253 1609 2253 1289 
C 2253 944 2253 690 2118 434 
C 1978 171 1773 25 1478 25 
z
" transform="scale(0.015625)"/>
       </defs>
       <use xlink:href="#CMR17-34" transform="scale(0.996264)"/>
       <use xlink:href="#CMR17-36" transform="translate(45.690477 0) scale(0.996264)"/>
       <use xlink:href="#CMR17-30" transform="translate(91.380954 0) scale(0.996264)"/>
      </g>
     </g>
    </g>
    <g id="xtick_5">
     <g id="line2d_5">
      <g>
       <use xlink:href="#m2d13ecf4db" x="185.400777" y="139.988242" style="stroke: #000000; stroke-width: 0.8"/>
      </g>
     </g>
     <g id="text_5">
      <!-- $\mathdefault{480}$ -->
      <g transform="translate(179.049502 154.623044) scale(0.08 -0.08)">
       <defs>
        <path id="CMR17-38" d="M 1741 2264 
C 2144 2467 2554 2773 2554 3263 
C 2554 3841 1990 4179 1472 4179 
C 890 4179 378 3759 378 3180 
C 378 3021 416 2747 666 2505 
C 730 2442 998 2251 1171 2130 
C 883 1983 211 1634 211 934 
C 211 279 838 -128 1459 -128 
C 2144 -128 2720 362 2720 1010 
C 2720 1590 2330 1857 2074 2029 
L 1741 2264 
z
M 902 2822 
C 851 2854 595 3051 595 3351 
C 595 3739 998 4032 1459 4032 
C 1965 4032 2336 3676 2336 3262 
C 2336 2669 1670 2331 1638 2331 
C 1632 2331 1626 2331 1574 2370 
L 902 2822 
z
M 2080 1519 
C 2176 1449 2483 1240 2483 851 
C 2483 381 2010 25 1472 25 
C 890 25 448 438 448 940 
C 448 1443 838 1862 1280 2060 
L 2080 1519 
z
" transform="scale(0.015625)"/>
       </defs>
       <use xlink:href="#CMR17-34" transform="scale(0.996264)"/>
       <use xlink:href="#CMR17-38" transform="translate(45.690477 0) scale(0.996264)"/>
       <use xlink:href="#CMR17-30" transform="translate(91.380954 0) scale(0.996264)"/>
      </g>
     </g>
    </g>
    <g id="xtick_6">
     <g id="line2d_6">
      <g>
       <use xlink:href="#m2d13ecf4db" x="222.498334" y="139.988242" style="stroke: #000000; stroke-width: 0.8"/>
      </g>
     </g>
     <g id="text_6">
      <!-- $\mathdefault{500}$ -->
      <g transform="translate(216.147059 154.623044) scale(0.08 -0.08)">
       <defs>
        <path id="CMR17-35" d="M 730 3692 
C 794 3666 1056 3584 1325 3584 
C 1920 3584 2246 3911 2432 4100 
C 2432 4157 2432 4192 2394 4192 
C 2387 4192 2374 4192 2323 4163 
C 2099 4058 1837 3973 1517 3973 
C 1325 3973 1037 3999 723 4139 
C 653 4171 640 4171 634 4171 
C 602 4171 595 4164 595 4037 
L 595 2203 
C 595 2089 595 2057 659 2057 
C 691 2057 704 2070 736 2114 
C 941 2401 1222 2522 1542 2522 
C 1766 2522 2246 2382 2246 1289 
C 2246 1085 2246 715 2054 421 
C 1894 159 1645 25 1370 25 
C 947 25 518 320 403 814 
C 429 807 480 795 506 795 
C 589 795 749 840 749 1038 
C 749 1210 627 1280 506 1280 
C 358 1280 262 1190 262 1011 
C 262 454 704 -128 1382 -128 
C 2042 -128 2669 440 2669 1264 
C 2669 2030 2170 2624 1549 2624 
C 1222 2624 947 2503 730 2274 
L 730 3692 
z
" transform="scale(0.015625)"/>
       </defs>
       <use xlink:href="#CMR17-35" transform="scale(0.996264)"/>
       <use xlink:href="#CMR17-30" transform="translate(45.690477 0) scale(0.996264)"/>
       <use xlink:href="#CMR17-30" transform="translate(91.380954 0) scale(0.996264)"/>
      </g>
     </g>
    </g>
    <g id="text_7">
     <!-- time $t$ -->
     <g transform="translate(116.60927 167.091288) scale(0.1 -0.1)">
      <defs>
       <path id="CMR17-74" d="M 966 2560 
L 1862 2560 
L 1862 2725 
L 966 2725 
L 966 3904 
L 851 3904 
C 838 3245 614 2668 70 2668 
L 70 2560 
L 627 2560 
L 627 771 
C 627 650 627 -64 1370 -64 
C 1747 -64 1965 306 1965 777 
L 1965 1140 
L 1850 1140 
L 1850 783 
C 1850 344 1677 51 1408 51 
C 1222 51 966 178 966 758 
L 966 2560 
z
" transform="scale(0.015625)"/>
       <path id="CMR17-69" d="M 992 3909 
C 992 4049 877 4170 730 4170 
C 589 4170 467 4056 467 3909 
C 467 3769 582 3648 730 3648 
C 870 3648 992 3763 992 3909 
z
M 243 2706 
L 243 2541 
C 602 2541 653 2502 653 2197 
L 653 427 
C 653 184 627 153 218 153 
L 218 -13 
C 371 0 646 0 806 0 
C 960 0 1222 0 1370 -13 
L 1370 153 
C 992 153 979 191 979 420 
L 979 2776 
L 243 2706 
z
" transform="scale(0.015625)"/>
       <path id="CMR17-6d" d="M 4326 1933 
C 4326 2252 4269 2790 3507 2790 
C 3072 2790 2771 2496 2656 2151 
L 2650 2151 
C 2573 2676 2195 2790 1837 2790 
C 1331 2790 1069 2400 973 2144 
L 966 2144 
L 966 2790 
L 211 2720 
L 211 2554 
C 589 2554 646 2515 646 2208 
L 646 428 
C 646 184 621 153 211 153 
L 211 -13 
C 365 0 646 0 813 0 
C 979 0 1267 0 1421 -13 
L 1421 153 
C 1011 153 986 178 986 428 
L 986 1658 
C 986 2247 1344 2688 1792 2688 
C 2266 2688 2317 2266 2317 1958 
L 2317 428 
C 2317 184 2291 153 1882 153 
L 1882 -13 
C 2035 0 2317 0 2483 0 
C 2650 0 2938 0 3091 -13 
L 3091 153 
C 2682 153 2656 178 2656 428 
L 2656 1658 
C 2656 2247 3014 2688 3462 2688 
C 3936 2688 3987 2266 3987 1958 
L 3987 428 
C 3987 184 3962 153 3552 153 
L 3552 -13 
C 3706 0 3987 0 4154 0 
C 4320 0 4608 0 4762 -13 
L 4762 153 
C 4352 153 4326 178 4326 428 
L 4326 1933 
z
" transform="scale(0.015625)"/>
       <path id="CMR17-65" d="M 2438 1472 
C 2464 1498 2464 1511 2464 1576 
C 2464 2238 2118 2816 1389 2816 
C 710 2816 173 2169 173 1383 
C 173 551 781 -64 1459 -64 
C 2176 -64 2458 607 2458 740 
C 2458 784 2419 784 2406 784 
C 2362 784 2355 771 2330 696 
C 2189 265 1837 51 1504 51 
C 1229 51 954 203 781 480 
C 582 803 582 1176 582 1472 
L 2438 1472 
z
M 589 1568 
C 634 2505 1126 2714 1382 2714 
C 1818 2714 2112 2297 2118 1568 
L 589 1568 
z
" transform="scale(0.015625)"/>
       <path id="CMMI12-74" d="M 1286 2566 
L 1875 2566 
C 1997 2566 2061 2566 2061 2681 
C 2061 2752 2022 2752 1894 2752 
L 1331 2752 
L 1568 3692 
C 1594 3781 1594 3794 1594 3840 
C 1594 3943 1510 4000 1427 4000 
C 1376 4000 1229 3981 1178 3775 
L 928 2752 
L 326 2752 
C 198 2752 141 2752 141 2630 
C 141 2566 186 2566 307 2566 
L 877 2566 
L 454 881 
C 403 658 384 594 384 511 
C 384 211 595 -64 954 -64 
C 1600 -64 1946 868 1946 912 
C 1946 951 1920 970 1882 970 
C 1869 970 1843 970 1830 944 
C 1824 938 1818 931 1773 829 
C 1638 511 1344 64 973 64 
C 781 64 768 224 768 364 
C 768 370 768 492 787 568 
L 1286 2566 
z
" transform="scale(0.015625)"/>
      </defs>
      <use xlink:href="#CMR17-74" transform="scale(0.996264)"/>
      <use xlink:href="#CMR17-69" transform="translate(35.280768 0) scale(0.996264)"/>
      <use xlink:href="#CMR17-6d" transform="translate(60.151826 0) scale(0.996264)"/>
      <use xlink:href="#CMR17-65" transform="translate(137.071416 0) scale(0.996264)"/>
      <use xlink:href="#CMMI12-74" transform="translate(207.633043 0) scale(0.996264)"/>
     </g>
    </g>
   </g>
   <g id="matplotlib.axis_2">
    <g id="ytick_1">
     <g id="line2d_7">
      <defs>
       <path id="m461a7c9f82" d="M 0 0 
L -3.5 0 
" style="stroke: #000000; stroke-width: 0.8"/>
      </defs>
      <g>
       <use xlink:href="#m461a7c9f82" x="37.010549" y="114.518947" style="stroke: #000000; stroke-width: 0.8"/>
      </g>
     </g>
     <g id="text_8">
      <!-- $\mathdefault{0.00}$ -->
      <g transform="translate(12.855677 117.286348) scale(0.08 -0.08)">
       <defs>
        <path id="CMMI12-3a" d="M 1178 307 
C 1178 492 1024 619 870 619 
C 685 619 557 466 557 313 
C 557 128 710 0 864 0 
C 1050 0 1178 153 1178 307 
z
" transform="scale(0.015625)"/>
       </defs>
       <use xlink:href="#CMR17-30" transform="scale(0.996264)"/>
       <use xlink:href="#CMMI12-3a" transform="translate(45.690477 0) scale(0.996264)"/>
       <use xlink:href="#CMR17-30" transform="translate(72.787654 0) scale(0.996264)"/>
       <use xlink:href="#CMR17-30" transform="translate(118.478131 0) scale(0.996264)"/>
      </g>
     </g>
    </g>
    <g id="ytick_2">
     <g id="line2d_8">
      <g>
       <use xlink:href="#m461a7c9f82" x="37.010549" y="80.559886" style="stroke: #000000; stroke-width: 0.8"/>
      </g>
     </g>
     <g id="text_9">
      <!-- $\mathdefault{0.02}$ -->
      <g transform="translate(12.855677 83.327287) scale(0.08 -0.08)">
       <use xlink:href="#CMR17-30" transform="scale(0.996264)"/>
       <use xlink:href="#CMMI12-3a" transform="translate(45.690477 0) scale(0.996264)"/>
       <use xlink:href="#CMR17-30" transform="translate(72.787654 0) scale(0.996264)"/>
       <use xlink:href="#CMR17-32" transform="translate(118.478131 0) scale(0.996264)"/>
      </g>
     </g>
    </g>
    <g id="ytick_3">
     <g id="line2d_9">
      <g>
       <use xlink:href="#m461a7c9f82" x="37.010549" y="46.600826" style="stroke: #000000; stroke-width: 0.8"/>
      </g>
     </g>
     <g id="text_10">
      <!-- $\mathdefault{0.04}$ -->
      <g transform="translate(12.855677 49.368227) scale(0.08 -0.08)">
       <use xlink:href="#CMR17-30" transform="scale(0.996264)"/>
       <use xlink:href="#CMMI12-3a" transform="translate(45.690477 0) scale(0.996264)"/>
       <use xlink:href="#CMR17-30" transform="translate(72.787654 0) scale(0.996264)"/>
       <use xlink:href="#CMR17-34" transform="translate(118.478131 0) scale(0.996264)"/>
      </g>
     </g>
    </g>
    <g id="ytick_4">
     <g id="line2d_10">
      <g>
       <use xlink:href="#m461a7c9f82" x="37.010549" y="12.641765" style="stroke: #000000; stroke-width: 0.8"/>
      </g>
     </g>
     <g id="text_11">
      <!-- $\mathdefault{0.06}$ -->
      <g transform="translate(12.855677 15.409166) scale(0.08 -0.08)">
       <use xlink:href="#CMR17-30" transform="scale(0.996264)"/>
       <use xlink:href="#CMMI12-3a" transform="translate(45.690477 0) scale(0.996264)"/>
       <use xlink:href="#CMR17-30" transform="translate(72.787654 0) scale(0.996264)"/>
       <use xlink:href="#CMR17-36" transform="translate(118.478131 0) scale(0.996264)"/>
      </g>
     </g>
    </g>
    <g id="text_12">
     <!-- target-variable $y$ -->
     <g transform="translate(6.918498 112.132166) rotate(-90) scale(0.1 -0.1)">
      <defs>
       <path id="CMR17-61" d="M 2304 1653 
C 2304 2072 2304 2294 2035 2543 
C 1798 2752 1523 2816 1306 2816 
C 800 2816 435 2407 435 1971 
C 435 1728 627 1728 666 1728 
C 749 1728 896 1778 896 1954 
C 896 2112 774 2181 666 2181 
C 640 2181 608 2174 589 2168 
C 723 2592 1069 2714 1293 2714 
C 1613 2714 1965 2429 1965 1885 
L 1965 1600 
C 1587 1600 1133 1549 774 1357 
C 371 1133 256 813 256 570 
C 256 77 832 -64 1171 -64 
C 1523 -64 1850 139 1990 511 
C 2003 233 2182 -18 2464 -18 
C 2598 -18 2938 70 2938 567 
L 2938 920 
L 2822 920 
L 2822 562 
C 2822 178 2650 128 2566 128 
C 2304 128 2304 458 2304 738 
L 2304 1653 
z
M 1965 870 
C 1965 317 1568 38 1216 38 
C 896 38 646 275 646 570 
C 646 761 730 1100 1101 1305 
C 1408 1478 1760 1504 1965 1504 
L 1965 870 
z
" transform="scale(0.015625)"/>
       <path id="CMR17-72" d="M 960 1497 
C 960 2112 1222 2688 1702 2688 
C 1747 2688 1792 2682 1837 2662 
C 1837 2662 1696 2617 1696 2452 
C 1696 2298 1818 2234 1914 2234 
C 1990 2234 2131 2279 2131 2458 
C 2131 2663 1926 2790 1709 2790 
C 1222 2790 1011 2317 947 2093 
L 941 2093 
L 941 2790 
L 198 2720 
L 198 2554 
C 576 2554 634 2515 634 2208 
L 634 428 
C 634 184 608 153 198 153 
L 198 -13 
C 352 0 646 0 813 0 
C 998 0 1325 0 1498 -13 
L 1498 153 
C 1037 153 960 153 960 440 
L 960 1497 
z
" transform="scale(0.015625)"/>
       <path id="CMR17-67" d="M 710 1164 
C 832 1068 1043 960 1299 960 
C 1805 960 2240 1357 2240 1888 
C 2240 2054 2189 2310 1997 2509 
C 2176 2692 2438 2752 2586 2752 
C 2611 2752 2650 2752 2682 2734 
C 2656 2728 2598 2703 2598 2605 
C 2598 2527 2656 2471 2739 2471 
C 2835 2471 2886 2533 2886 2614 
C 2886 2731 2790 2854 2586 2854 
C 2330 2854 2106 2738 1926 2580 
C 1734 2753 1504 2816 1299 2816 
C 794 2816 358 2419 358 1888 
C 358 1522 570 1292 634 1228 
C 442 1004 442 743 442 711 
C 442 545 506 302 723 168 
C 390 85 128 -169 128 -486 
C 128 -943 736 -1280 1466 -1280 
C 2170 -1280 2803 -956 2803 -479 
C 2803 384 1856 384 1363 384 
C 1216 384 954 384 922 391 
C 723 423 589 602 589 826 
C 589 883 589 1024 710 1164 
z
M 1299 1068 
C 736 1068 736 1760 736 1889 
C 736 2016 736 2708 1299 2708 
C 1862 2708 1862 2016 1862 1889 
C 1862 1760 1862 1068 1299 1068 
z
M 1466 -1171 
C 826 -1171 384 -835 384 -486 
C 384 -289 493 -105 634 -4 
C 794 104 858 104 1293 104 
C 1818 104 2547 104 2547 -486 
C 2547 -835 2106 -1171 1466 -1171 
z
" transform="scale(0.015625)"/>
       <path id="CMR17-2d" d="M 1632 1216 
L 1632 1496 
L 26 1496 
L 26 1216 
L 1632 1216 
z
" transform="scale(0.015625)"/>
       <path id="CMR17-76" d="M 2502 2163 
C 2560 2304 2662 2560 3034 2560 
L 3034 2726 
C 2912 2726 2752 2726 2630 2726 
C 2496 2726 2285 2726 2157 2732 
L 2157 2566 
C 2317 2553 2406 2477 2406 2311 
C 2406 2253 2406 2240 2368 2151 
L 1664 377 
L 902 2286 
C 864 2369 864 2381 864 2407 
C 864 2560 1075 2560 1171 2560 
L 1171 2732 
C 1018 2726 736 2726 576 2726 
C 403 2726 205 2726 64 2732 
L 64 2560 
C 307 2560 442 2560 518 2362 
L 1446 44 
C 1485 -51 1491 -64 1549 -64 
C 1606 -64 1613 -51 1651 44 
L 2502 2163 
z
" transform="scale(0.015625)"/>
       <path id="CMR17-62" d="M 960 4396 
L 198 4326 
L 198 4160 
C 576 4160 634 4122 634 3817 
L 634 -13 
L 749 -13 
L 934 441 
C 1120 141 1395 -64 1766 -64 
C 2406 -64 3053 500 3053 1370 
C 3053 2188 2477 2790 1830 2790 
C 1434 2790 1152 2579 960 2330 
L 960 4396 
z
M 973 2004 
C 973 2118 973 2138 1062 2272 
C 1312 2657 1670 2688 1792 2688 
C 1984 2688 2643 2585 2643 1376 
C 2643 108 1888 38 1734 38 
C 1536 38 1248 114 1043 486 
C 973 608 973 621 973 735 
L 973 2004 
z
" transform="scale(0.015625)"/>
       <path id="CMR17-6c" d="M 979 4396 
L 218 4326 
L 218 4160 
C 595 4160 653 4122 653 3817 
L 653 426 
C 653 184 627 153 218 153 
L 218 -13 
C 371 0 653 0 813 0 
C 979 0 1261 0 1414 -13 
L 1414 153 
C 1005 153 979 178 979 426 
L 979 4396 
z
" transform="scale(0.015625)"/>
       <path id="CMMI12-79" d="M 1683 -700 
C 1510 -939 1261 -1152 947 -1152 
C 870 -1152 563 -1152 467 -889 
C 486 -895 518 -895 531 -895 
C 723 -895 851 -729 851 -582 
C 851 -435 730 -384 634 -384 
C 531 -384 307 -458 307 -759 
C 307 -1071 582 -1286 947 -1286 
C 1587 -1286 2234 -700 2413 6 
L 3040 2485 
C 3046 2517 3059 2556 3059 2594 
C 3059 2689 2982 2753 2886 2753 
C 2829 2753 2694 2727 2643 2535 
L 2170 658 
C 2138 543 2138 530 2086 460 
C 1958 281 1747 64 1440 64 
C 1082 64 1050 415 1050 588 
C 1050 952 1222 1443 1395 1903 
C 1466 2088 1504 2178 1504 2305 
C 1504 2574 1312 2816 998 2816 
C 410 2816 173 1890 173 1839 
C 173 1814 198 1782 243 1782 
C 301 1782 307 1807 333 1897 
C 486 2433 730 2689 979 2689 
C 1037 2689 1146 2689 1146 2478 
C 1146 2312 1075 2127 979 1884 
C 666 1047 666 837 666 683 
C 666 77 1101 -64 1421 -64 
C 1606 -64 1837 -6 2061 230 
L 2067 224 
C 1971 -147 1907 -392 1683 -700 
z
" transform="scale(0.015625)"/>
      </defs>
      <use xlink:href="#CMR17-74" transform="scale(0.996264)"/>
      <use xlink:href="#CMR17-61" transform="translate(35.280768 0) scale(0.996264)"/>
      <use xlink:href="#CMR17-72" transform="translate(80.971245 0) scale(0.996264)"/>
      <use xlink:href="#CMR17-67" transform="translate(116.252013 0) scale(0.996264)"/>
      <use xlink:href="#CMR17-65" transform="translate(161.94249 0) scale(0.996264)"/>
      <use xlink:href="#CMR17-74" transform="translate(202.42815 0) scale(0.996264)"/>
      <use xlink:href="#CMR17-2d" transform="translate(237.708918 0) scale(0.996264)"/>
      <use xlink:href="#CMR17-76" transform="translate(267.784884 0) scale(0.996264)"/>
      <use xlink:href="#CMR17-61" transform="translate(310.872984 0) scale(0.996264)"/>
      <use xlink:href="#CMR17-72" transform="translate(356.563461 0) scale(0.996264)"/>
      <use xlink:href="#CMR17-69" transform="translate(391.844229 0) scale(0.996264)"/>
      <use xlink:href="#CMR17-61" transform="translate(416.715287 0) scale(0.996264)"/>
      <use xlink:href="#CMR17-62" transform="translate(462.405764 0) scale(0.996264)"/>
      <use xlink:href="#CMR17-6c" transform="translate(513.301134 0) scale(0.996264)"/>
      <use xlink:href="#CMR17-65" transform="translate(538.172192 0) scale(0.996264)"/>
      <use xlink:href="#CMMI12-79" transform="translate(608.733819 0) scale(0.996264)"/>
     </g>
    </g>
   </g>
   <g id="line2d_11">
    <path d="M 36.749382 38.835769 
L 37.710951 39.485237 
L 38.993043 40.65423 
L 40.595657 42.503031 
L 42.198271 44.706817 
L 44.121409 47.755424 
L 46.044546 51.206025 
L 48.288206 55.721611 
L 50.531867 60.782492 
L 52.775527 66.457528 
L 54.698664 71.927143 
L 56.301279 77.069322 
L 57.58337 81.759852 
L 58.865462 87.377933 
L 59.506508 90.942439 
L 59.82703 93.210297 
L 60.147553 96.731882 
L 60.788599 92.535926 
L 61.429645 89.860932 
L 62.391214 86.994797 
L 63.352782 84.779982 
L 64.634874 82.407592 
L 65.916965 80.480734 
L 67.51958 78.525499 
L 69.122194 76.966116 
L 70.724809 75.737822 
L 72.327423 74.804129 
L 73.930038 74.145768 
L 75.532652 73.755976 
L 77.135267 73.639025 
L 78.417358 73.752332 
L 79.69945 74.0656 
L 80.981541 74.603051 
L 82.263633 75.403027 
L 83.545724 76.52891 
L 84.507293 77.65291 
L 85.468862 79.112243 
L 86.43043 81.093625 
L 87.071476 82.936782 
L 87.391999 84.164874 
L 87.712522 85.837168 
L 88.033045 89.000675 
L 88.353568 84.929568 
L 88.994614 80.688362 
L 89.956182 76.011091 
L 91.238274 70.93279 
L 92.840888 65.514456 
L 94.764026 59.832186 
L 97.007686 53.980469 
L 99.251346 48.778261 
L 101.495006 44.135722 
L 103.738667 40.021954 
L 105.661804 36.925516 
L 107.584941 34.263194 
L 109.187556 32.429828 
L 110.469647 31.271479 
L 111.431216 30.628287 
L 112.392785 30.235155 
L 113.03383 30.155128 
L 113.674876 30.27355 
L 114.315922 30.676789 
L 114.956968 31.558012 
L 115.277491 32.336246 
L 115.918537 35.014262 
L 116.239059 33.119134 
L 116.559582 32.279427 
L 116.880105 31.797657 
L 117.521151 31.374283 
L 118.162197 31.365072 
L 118.803243 31.614671 
L 119.764811 32.321716 
L 120.72638 33.319021 
L 122.008471 34.98458 
L 123.611086 37.48416 
L 125.534223 40.971892 
L 127.457361 44.908606 
L 129.701021 50.010487 
L 131.944681 55.64035 
L 134.188341 61.819005 
L 136.432002 68.62074 
L 138.355139 75.071427 
L 140.278276 82.342465 
L 141.560368 87.936802 
L 142.521937 92.898974 
L 143.162982 97.067295 
L 143.483505 99.94712 
L 143.804028 100.687902 
L 144.445074 96.336069 
L 145.406643 92.411323 
L 146.368211 89.422592 
L 147.650303 86.154094 
L 149.252917 82.76879 
L 150.855532 79.914332 
L 152.458146 77.463054 
L 154.381284 74.960227 
L 156.304421 72.878144 
L 157.907035 71.443132 
L 159.50965 70.276851 
L 161.112264 69.387143 
L 162.394356 68.887837 
L 163.676447 68.596797 
L 164.958539 68.543006 
L 165.920108 68.685288 
L 166.881676 69.016876 
L 167.843245 69.585454 
L 168.804814 70.473227 
L 169.445859 71.317371 
L 170.086905 72.471595 
L 170.727951 74.171252 
L 171.048474 75.441257 
L 171.368997 77.550926 
L 171.68952 76.634375 
L 172.330565 72.970594 
L 172.971611 70.645951 
L 173.93318 68.026445 
L 175.215271 65.358037 
L 176.497363 63.249249 
L 177.779455 61.524167 
L 179.382069 59.776619 
L 180.984684 58.397489 
L 182.587298 57.334005 
L 184.189912 56.556631 
L 185.792527 56.050881 
L 187.395141 55.813959 
L 188.677233 55.823141 
L 189.959325 56.019442 
L 191.241416 56.419598 
L 192.523508 57.050057 
L 193.805599 57.952899 
L 195.087691 59.198644 
L 196.049259 60.432801 
L 197.010828 62.037082 
L 197.651874 63.416938 
L 198.29292 65.217645 
L 198.933965 67.944505 
L 199.254488 70.673122 
L 200.216057 63.950624 
L 201.177626 59.508729 
L 202.459717 54.812376 
L 204.062332 49.900574 
L 205.985469 44.841289 
L 207.908606 40.412765 
L 209.831744 36.477672 
L 212.075404 32.421691 
L 213.998541 29.370285 
L 215.921679 26.707937 
L 217.844816 24.456199 
L 219.447431 22.930075 
L 220.729522 21.977058 
L 222.011614 21.313606 
L 222.652659 21.114416 
L 222.652659 21.114416 
" clip-path="url(#pc0fde91b94)" style="fill: none; stroke-dasharray: 1.4,2.31; stroke-dashoffset: 0; stroke: #ff0000; stroke-width: 1.4"/>
   </g>
   <g id="line2d_12">
    <path d="M 36.749382 68.212628 
L 38.67252 74.100789 
L 40.595657 79.317134 
L 42.839317 84.760621 
L 45.082977 89.621945 
L 47.326638 93.949172 
L 49.249775 97.235459 
L 51.172912 100.105973 
L 52.775527 102.139903 
L 54.057618 103.490163 
L 55.33971 104.53715 
L 56.301279 105.068897 
L 57.262847 105.307813 
L 57.903893 105.242682 
L 58.544939 104.914474 
L 59.185985 104.161996 
L 59.506508 103.505586 
L 59.82703 102.468709 
L 60.147553 100.178104 
L 60.788599 104.197013 
L 61.429645 106.476694 
L 62.391214 108.749861 
L 63.352782 110.371708 
L 64.314351 111.606297 
L 65.596443 112.839765 
L 66.878534 113.72241 
L 68.160626 114.328143 
L 69.442717 114.700777 
L 70.724809 114.867779 
L 72.0069 114.846553 
L 73.609515 114.570797 
L 75.212129 114.026012 
L 76.814744 113.210133 
L 78.417358 112.109522 
L 80.019973 110.695829 
L 81.622587 108.918251 
L 82.904679 107.174911 
L 84.18677 105.057488 
L 85.148339 103.130857 
L 86.109908 100.762902 
L 86.750953 98.782569 
L 87.391999 96.162611 
L 87.712522 94.292661 
L 88.033045 90.888843 
L 88.353568 93.73859 
L 88.674091 94.845189 
L 89.315137 96.006982 
L 89.956182 96.55027 
L 90.597228 96.758364 
L 91.238274 96.743133 
L 92.199843 96.421835 
L 93.161411 95.832977 
L 94.443503 94.731554 
L 95.725594 93.341427 
L 97.328209 91.269626 
L 99.251346 88.363673 
L 101.174484 85.047432 
L 103.418144 80.687028 
L 105.661804 75.789227 
L 107.905464 70.298972 
L 109.828602 65.02488 
L 111.751739 59.042914 
L 113.354353 53.21667 
L 114.315922 49.061245 
L 114.956968 45.737303 
L 115.918537 39.268189 
L 116.559582 45.076467 
L 117.521151 50.591776 
L 118.803243 56.498275 
L 120.405857 62.837167 
L 122.328994 69.566187 
L 124.572655 76.606325 
L 126.816315 82.981037 
L 129.380498 89.575499 
L 131.624158 94.778359 
L 133.867818 99.43821 
L 135.790956 102.952726 
L 137.39357 105.479678 
L 138.675662 107.173209 
L 139.957753 108.481379 
L 140.919322 109.109422 
L 141.560368 109.283387 
L 142.201414 109.160392 
L 142.521937 108.93138 
L 142.842459 108.527706 
L 143.162982 107.836502 
L 143.483505 106.493398 
L 143.804028 106.394154 
L 144.124551 108.415772 
L 144.765597 110.592919 
L 145.406643 111.958654 
L 146.368211 113.320138 
L 147.32978 114.200887 
L 148.291349 114.764479 
L 149.252917 115.092198 
L 150.535009 115.241286 
L 151.8171 115.121266 
L 153.099192 114.77297 
L 154.381284 114.222108 
L 155.983898 113.272773 
L 157.586512 112.049489 
L 159.189127 110.557701 
L 160.791741 108.791839 
L 162.394356 106.734105 
L 163.99697 104.350196 
L 165.599585 101.579196 
L 167.202199 98.308729 
L 168.484291 95.181735 
L 169.445859 92.371423 
L 170.407428 88.835049 
L 171.048474 85.535459 
L 171.368997 82.883374 
L 171.68952 83.487215 
L 172.330565 86.801223 
L 172.971611 88.776092 
L 173.93318 90.870938 
L 174.894749 92.410337 
L 175.856317 93.600303 
L 177.138409 94.803038 
L 178.4205 95.672822 
L 179.702592 96.275975 
L 180.984684 96.652388 
L 182.266775 96.827213 
L 183.548867 96.816327 
L 185.151481 96.555341 
L 186.754096 96.025721 
L 188.35671 95.22369 
L 189.959325 94.133608 
L 191.561939 92.724308 
L 192.844031 91.330962 
L 194.126122 89.651034 
L 195.408214 87.603151 
L 196.369782 85.73645 
L 197.331351 83.44324 
L 197.972397 81.532813 
L 198.613443 79.036378 
L 198.933965 77.311719 
L 199.254488 74.408216 
L 199.895534 77.398584 
L 200.53658 78.885609 
L 201.177626 79.694725 
L 201.818672 80.149758 
L 202.459717 80.372613 
L 203.421286 80.399704 
L 204.382855 80.153337 
L 205.344423 79.695836 
L 206.626515 78.821127 
L 207.908606 77.693752 
L 209.511221 75.98074 
L 211.113835 73.967268 
L 213.036973 71.184913 
L 214.96011 68.015235 
L 216.883247 64.448933 
L 218.806385 60.45046 
L 220.729522 55.944818 
L 222.332137 51.697188 
L 222.652659 50.779764 
L 222.652659 50.779764 
" clip-path="url(#pc0fde91b94)" style="fill: none; stroke-dasharray: 1.4,2.31; stroke-dashoffset: 0; stroke: #ff0000; stroke-width: 1.4"/>
   </g>
   <g id="line2d_13">
    <path d="M 36.340499 59.934501 
L 37.26826 63.474363 
L 38.196022 63.273971 
L 39.123783 68.463646 
L 40.051544 68.655309 
L 40.979305 69.457022 
L 41.907066 65.568545 
L 43.762588 75.811653 
L 44.690349 75.756188 
L 45.61811 66.008821 
L 47.473632 71.012402 
L 48.401393 76.209251 
L 49.329154 85.452181 
L 50.256915 80.229317 
L 51.184676 83.836941 
L 52.112437 94.230341 
L 53.040199 95.68852 
L 53.96796 95.709041 
L 54.895721 95.29072 
L 55.823482 95.901466 
L 56.751243 97.370717 
L 57.679004 95.920294 
L 58.606765 96.572652 
L 59.534526 99.061164 
L 60.462287 96.521944 
L 61.390048 95.180081 
L 62.317809 94.207496 
L 63.24557 90.56691 
L 64.173331 97.230173 
L 65.101092 101.451557 
L 66.028853 100.499392 
L 66.956614 97.990116 
L 68.812137 102.402383 
L 69.739898 100.655355 
L 70.667659 102.013082 
L 71.59542 100.496768 
L 72.523181 101.01014 
L 73.450942 103.10341 
L 74.378703 100.140502 
L 75.306464 99.247383 
L 76.234225 99.142893 
L 77.161986 98.625594 
L 78.089747 101.142298 
L 79.017508 102.052602 
L 79.945269 102.107284 
L 80.87303 98.409997 
L 81.800791 96.712771 
L 82.728553 90.555724 
L 83.656314 92.637653 
L 84.584075 97.345286 
L 85.511836 95.152554 
L 86.439597 97.393342 
L 87.367358 90.301926 
L 88.295119 91.312365 
L 90.150641 81.105797 
L 92.006163 68.027386 
L 92.933924 67.206624 
L 93.861685 70.390929 
L 94.789446 70.190624 
L 95.717207 66.083371 
L 96.644968 67.965343 
L 97.57273 65.193686 
L 98.500491 69.862876 
L 99.428252 67.615383 
L 100.356013 61.864146 
L 101.283774 70.601528 
L 102.211535 67.528928 
L 103.139296 66.070289 
L 104.067057 68.968602 
L 104.994818 57.976649 
L 105.922579 56.863107 
L 106.85034 59.74915 
L 108.705862 52.746366 
L 109.633623 50.004284 
L 111.489145 45.661558 
L 112.416907 39.977338 
L 113.344668 38.682406 
L 114.272429 31.126886 
L 115.20019 37.434642 
L 116.127951 41.349423 
L 117.055712 43.134077 
L 117.983473 47.184937 
L 118.911234 54.979943 
L 119.838995 56.599189 
L 120.766756 56.833796 
L 121.694517 56.228575 
L 122.622278 53.2117 
L 123.550039 55.725773 
L 124.4778 52.172763 
L 127.261083 55.176511 
L 128.188845 61.150784 
L 129.116606 65.282653 
L 130.044367 65.251256 
L 130.972128 73.022476 
L 131.899889 73.879767 
L 132.82765 81.135385 
L 133.755411 85.614537 
L 134.683172 87.562361 
L 135.610933 84.439467 
L 136.538694 89.976011 
L 137.466455 88.110432 
L 138.394216 93.572091 
L 139.321977 95.744901 
L 140.249738 89.139726 
L 141.177499 99.71511 
L 142.10526 105.633336 
L 143.033022 103.749387 
L 143.960783 99.32631 
L 144.888544 102.241484 
L 145.816305 102.531343 
L 146.744066 107.550243 
L 148.599588 91.271751 
L 149.527349 90.75659 
L 150.45511 87.721682 
L 151.382871 88.546443 
L 152.310632 89.953617 
L 153.238393 83.170994 
L 154.166154 87.55037 
L 155.093915 86.61887 
L 156.021676 89.618561 
L 156.949437 87.567125 
L 157.877199 83.995544 
L 158.80496 82.925632 
L 160.660482 72.930117 
L 161.588243 76.153861 
L 162.516004 73.661517 
L 163.443765 75.96735 
L 164.371526 73.342833 
L 165.299287 72.05549 
L 166.227048 74.077058 
L 167.154809 73.654713 
L 169.010331 80.642759 
L 169.938092 78.411045 
L 170.865853 78.522573 
L 171.793614 81.457508 
L 172.721376 76.038587 
L 174.576898 83.397946 
L 175.504659 79.557983 
L 176.43242 76.538282 
L 177.360181 77.902034 
L 178.287942 71.449698 
L 179.215703 72.921854 
L 180.143464 72.875927 
L 181.071225 75.120702 
L 181.998986 73.850148 
L 182.926747 71.178221 
L 183.854508 75.451139 
L 184.782269 73.58953 
L 185.71003 71.218019 
L 186.637791 64.84326 
L 187.565553 72.214532 
L 188.493314 69.527237 
L 189.421075 62.581673 
L 190.348836 59.630464 
L 191.276597 58.555949 
L 192.204358 62.256657 
L 193.132119 60.275154 
L 194.05988 58.671119 
L 194.987641 59.266528 
L 195.915402 62.450823 
L 196.843163 69.444187 
L 197.770924 72.713431 
L 198.698685 69.791102 
L 199.626446 71.016238 
L 200.554207 74.970761 
L 201.481968 70.479057 
L 202.40973 67.235749 
L 203.337491 60.93833 
L 204.265252 58.752009 
L 205.193013 60.580673 
L 206.120774 51.387453 
L 207.048535 48.215798 
L 207.976296 49.809637 
L 208.904057 51.94323 
L 209.831818 50.591244 
L 210.759579 52.233075 
L 211.68734 53.626507 
L 212.615101 50.725474 
L 213.542862 48.852142 
L 214.470623 37.873973 
L 215.398384 40.979753 
L 216.326145 40.442016 
L 217.253907 43.719221 
L 218.181668 40.644044 
L 219.109429 42.095327 
L 220.03719 41.109106 
L 220.964951 40.431961 
L 221.892712 46.128956 
L 222.820473 42.506253 
L 222.820473 42.506253 
" clip-path="url(#pc0fde91b94)" style="fill: none; stroke: #1f77b4; stroke-width: 0.5; stroke-linecap: square"/>
   </g>
   <g id="line2d_14">
    <path d="M 36.340499 47.190986 
L 37.26826 46.278556 
L 38.196022 51.92764 
L 39.123783 48.744372 
L 40.051544 48.84119 
L 41.907066 58.782777 
L 42.834827 67.28825 
L 43.762588 70.844533 
L 44.690349 73.264117 
L 45.61811 70.590095 
L 46.545871 75.478063 
L 47.473632 81.219726 
L 48.401393 90.810497 
L 49.329154 88.180629 
L 50.256915 88.942742 
L 51.184676 87.342946 
L 52.112437 82.58982 
L 53.040199 84.27246 
L 53.96796 83.082478 
L 54.895721 83.042737 
L 55.823482 84.136466 
L 56.751243 85.925457 
L 57.679004 90.213166 
L 58.606765 95.553122 
L 59.534526 98.35791 
L 60.462287 98.161249 
L 61.390048 94.914824 
L 62.317809 94.231831 
L 63.24557 90.800941 
L 64.173331 93.676006 
L 65.101092 87.388171 
L 66.028853 87.421886 
L 66.956614 84.679018 
L 67.884376 89.257848 
L 68.812137 95.501844 
L 69.739898 95.664948 
L 70.667659 97.400668 
L 71.59542 95.047929 
L 72.523181 88.602198 
L 73.450942 93.568021 
L 74.378703 90.413468 
L 75.306464 88.537055 
L 76.234225 85.918531 
L 77.161986 84.538902 
L 78.089747 85.323393 
L 79.017508 79.208814 
L 79.945269 74.689332 
L 80.87303 75.918654 
L 81.800791 76.780943 
L 82.728553 75.581225 
L 83.656314 79.33377 
L 84.584075 79.568039 
L 85.511836 78.693283 
L 86.439597 83.276156 
L 87.367358 89.030328 
L 88.295119 90.619678 
L 89.22288 95.056205 
L 90.150641 96.052162 
L 91.078402 93.488207 
L 92.006163 95.040247 
L 92.933924 92.271805 
L 93.861685 88.507081 
L 94.789446 83.814351 
L 95.717207 82.987008 
L 96.644968 84.372029 
L 97.57273 72.763165 
L 98.500491 67.231259 
L 99.428252 64.964636 
L 100.356013 65.359258 
L 101.283774 60.767973 
L 102.211535 62.511861 
L 103.139296 57.575334 
L 104.067057 58.263245 
L 104.994818 55.310384 
L 105.922579 49.697271 
L 106.85034 49.680783 
L 107.778101 45.159524 
L 108.705862 38.671102 
L 109.633623 39.264547 
L 110.561384 37.795827 
L 111.489145 33.403923 
L 112.416907 34.089629 
L 113.344668 28.987108 
L 114.272429 36.101538 
L 115.20019 40.262634 
L 116.127951 39.59469 
L 117.055712 39.749081 
L 117.983473 37.843807 
L 118.911234 38.116535 
L 119.838995 39.998866 
L 120.766756 44.630759 
L 121.694517 44.034924 
L 123.550039 60.376758 
L 124.4778 66.711962 
L 125.405561 68.052243 
L 126.333322 63.071008 
L 127.261083 66.868144 
L 128.188845 65.520002 
L 129.116606 71.513771 
L 130.044367 73.532425 
L 130.972128 76.995907 
L 131.899889 79.891803 
L 132.82765 84.072707 
L 133.755411 87.258378 
L 134.683172 95.711681 
L 135.610933 92.118791 
L 136.538694 98.187425 
L 137.466455 97.070563 
L 139.321977 104.830855 
L 140.249738 103.65405 
L 141.177499 103.104477 
L 142.10526 102.799861 
L 143.033022 102.684728 
L 143.960783 101.299155 
L 144.888544 99.161778 
L 145.816305 99.321967 
L 146.744066 101.966641 
L 147.671827 100.732336 
L 149.527349 96.313059 
L 150.45511 91.893896 
L 151.382871 91.322003 
L 152.310632 90.559522 
L 153.238393 95.279712 
L 154.166154 90.352794 
L 155.093915 84.293201 
L 156.021676 81.879478 
L 156.949437 81.63016 
L 157.877199 86.885358 
L 158.80496 80.62211 
L 159.732721 81.763864 
L 160.660482 78.438774 
L 161.588243 83.394942 
L 162.516004 86.09502 
L 163.443765 87.621141 
L 164.371526 88.21233 
L 165.299287 86.256787 
L 166.227048 80.858936 
L 167.154809 73.232689 
L 168.08257 69.582175 
L 169.010331 73.51214 
L 169.938092 79.456265 
L 170.865853 79.874943 
L 171.793614 79.509894 
L 172.721376 75.548987 
L 173.649137 70.378886 
L 174.576898 62.696231 
L 175.504659 58.612343 
L 176.43242 55.554883 
L 177.360181 53.995167 
L 178.287942 50.099488 
L 180.143464 38.410489 
L 181.071225 41.363444 
L 181.998986 47.509874 
L 182.926747 47.936964 
L 183.854508 46.286283 
L 184.782269 49.062606 
L 185.71003 52.794499 
L 186.637791 49.360039 
L 187.565553 49.662531 
L 188.493314 54.137217 
L 189.421075 50.859238 
L 190.348836 53.87384 
L 192.204358 63.308881 
L 193.132119 62.731128 
L 194.05988 67.710287 
L 194.987641 69.255315 
L 195.915402 67.276641 
L 196.843163 69.425671 
L 197.770924 72.242471 
L 198.698685 71.948791 
L 199.626446 73.952046 
L 200.554207 75.103325 
L 201.481968 70.197085 
L 202.40973 66.694015 
L 203.337491 66.439851 
L 204.265252 60.534118 
L 205.193013 60.712368 
L 206.120774 57.922565 
L 207.048535 60.492232 
L 207.976296 62.056567 
L 208.904057 54.385523 
L 209.831818 55.421715 
L 210.759579 56.726152 
L 212.615101 55.097899 
L 213.542862 51.313281 
L 214.470623 48.35403 
L 215.398384 43.060882 
L 216.326145 41.674778 
L 217.253907 43.265046 
L 218.181668 42.780716 
L 219.109429 43.57765 
L 220.03719 42.800612 
L 220.964951 38.650092 
L 221.892712 36.163246 
L 222.820473 38.234352 
L 222.820473 38.234352 
" clip-path="url(#pc0fde91b94)" style="fill: none; stroke: #ff7f0e; stroke-width: 0.5; stroke-linecap: square"/>
   </g>
   <g id="patch_3">
    <path d="M 37.010549 139.988242 
L 37.010549 12.641765 
" style="fill: none; stroke: #000000; stroke-width: 0.8; stroke-linejoin: miter; stroke-linecap: square"/>
   </g>
   <g id="patch_4">
    <path d="M 222.498334 139.988242 
L 222.498334 12.641765 
" style="fill: none; stroke: #000000; stroke-width: 0.8; stroke-linejoin: miter; stroke-linecap: square"/>
   </g>
   <g id="patch_5">
    <path d="M 37.010549 139.988242 
L 222.498334 139.988242 
" style="fill: none; stroke: #000000; stroke-width: 0.8; stroke-linejoin: miter; stroke-linecap: square"/>
   </g>
   <g id="patch_6">
    <path d="M 37.010549 12.641765 
L 222.498334 12.641765 
" style="fill: none; stroke: #000000; stroke-width: 0.8; stroke-linejoin: miter; stroke-linecap: square"/>
   </g>
   <g id="text_13">
    <!-- Model: $Brown$ -->
    <g transform="translate(97.517952 6.641765) scale(0.096 -0.096)">
     <defs>
      <path id="CMR17-4d" d="M 1338 4224 
C 1299 4320 1293 4320 1158 4320 
L 339 4320 
L 339 4160 
C 781 4160 851 4160 851 3875 
L 851 610 
C 851 451 851 153 339 153 
L 339 -13 
C 486 0 755 0 915 0 
C 1075 0 1344 0 1491 -13 
L 1491 153 
C 979 153 979 451 979 610 
L 979 4135 
L 986 4135 
L 2490 89 
C 2515 25 2528 -13 2579 -13 
C 2630 -13 2643 25 2669 89 
L 4186 4166 
L 4192 4166 
L 4192 438 
C 4192 153 4122 153 3680 153 
L 3680 -13 
C 3853 0 4198 0 4384 0 
C 4570 0 4922 0 5094 -13 
L 5094 153 
C 4653 153 4582 153 4582 438 
L 4582 3875 
C 4582 4160 4653 4160 5094 4160 
L 5094 4320 
L 4282 4320 
C 4147 4320 4141 4314 4102 4218 
L 2720 502 
L 1338 4224 
z
" transform="scale(0.015625)"/>
      <path id="CMR17-6f" d="M 2758 1356 
C 2758 2176 2163 2816 1466 2816 
C 768 2816 173 2176 173 1356 
C 173 551 768 -64 1466 -64 
C 2163 -64 2758 551 2758 1356 
z
M 1466 51 
C 1165 51 909 230 762 480 
C 602 767 582 1126 582 1408 
C 582 1677 595 2010 762 2298 
C 890 2509 1139 2714 1466 2714 
C 1754 2714 1997 2554 2150 2330 
C 2349 2029 2349 1607 2349 1408 
C 2349 1158 2336 775 2163 467 
C 1984 173 1709 51 1466 51 
z
" transform="scale(0.015625)"/>
      <path id="CMR17-64" d="M 1869 4326 
L 1869 4160 
C 2246 4160 2304 4122 2304 3820 
L 2304 2345 
C 2278 2377 2016 2790 1498 2790 
C 845 2790 211 2208 211 1364 
C 211 525 806 -64 1434 -64 
C 1978 -64 2259 337 2291 380 
L 2291 -63 
L 3066 -63 
L 3066 128 
C 2688 128 2630 166 2630 473 
L 2630 4396 
L 1869 4326 
z
M 2291 755 
C 2291 563 2176 390 2029 262 
C 1811 70 1594 38 1472 38 
C 1286 38 621 134 621 1356 
C 621 2612 1363 2688 1530 2688 
C 1824 2688 2061 2522 2208 2291 
C 2291 2157 2291 2138 2291 2023 
L 2291 755 
z
" transform="scale(0.015625)"/>
      <path id="CMR17-3a" d="M 1062 2491 
C 1062 2650 934 2752 800 2752 
C 672 2752 538 2650 538 2491 
C 538 2332 666 2230 800 2230 
C 928 2230 1062 2332 1062 2491 
z
M 1062 261 
C 1062 420 934 522 800 522 
C 672 522 538 420 538 261 
C 538 102 666 0 800 0 
C 928 0 1062 102 1062 261 
z
" transform="scale(0.015625)"/>
      <path id="CMMI12-42" d="M 2342 3921 
C 2400 4160 2426 4160 2675 4160 
L 3507 4160 
C 4230 4160 4230 3544 4230 3485 
C 4230 2966 3712 2304 2867 2304 
L 1946 2304 
L 2342 3921 
z
M 3424 2275 
C 4122 2402 4755 2886 4755 3473 
C 4755 3970 4314 4352 3590 4352 
L 1536 4352 
C 1414 4352 1357 4352 1357 4226 
C 1357 4160 1414 4160 1510 4160 
C 1901 4160 1901 4112 1901 4044 
C 1901 4032 1901 3993 1875 3897 
L 1011 472 
C 954 249 941 185 493 185 
C 371 185 307 185 307 70 
C 307 0 346 0 474 0 
L 2669 0 
C 3648 0 4403 739 4403 1383 
C 4403 1906 3942 2224 3424 2275 
z
M 2515 185 
L 1651 185 
C 1562 185 1549 185 1510 192 
C 1440 198 1434 211 1434 261 
C 1434 305 1446 343 1459 399 
L 1907 2176 
L 3110 2176 
C 3866 2176 3866 1483 3866 1433 
C 3866 828 3309 185 2515 185 
z
" transform="scale(0.015625)"/>
      <path id="CMMI12-72" d="M 2490 2612 
C 2291 2574 2189 2433 2189 2293 
C 2189 2139 2310 2088 2400 2088 
C 2579 2088 2726 2242 2726 2433 
C 2726 2638 2528 2816 2208 2816 
C 1952 2816 1658 2701 1389 2312 
C 1344 2650 1088 2816 832 2816 
C 582 2816 454 2625 378 2484 
C 269 2254 173 1871 173 1839 
C 173 1814 198 1782 243 1782 
C 294 1782 301 1788 339 1935 
C 435 2318 557 2689 813 2689 
C 966 2689 1011 2580 1011 2395 
C 1011 2254 947 2005 902 1807 
L 723 1118 
C 698 996 627 709 595 594 
C 550 428 480 128 480 96 
C 480 6 550 -64 646 -64 
C 717 -64 838 -19 877 109 
C 896 160 1133 1124 1171 1271 
C 1203 1411 1242 1546 1274 1686 
C 1299 1775 1325 1878 1344 1961 
C 1363 2018 1536 2331 1696 2472 
C 1773 2542 1939 2689 2202 2689 
C 2304 2689 2406 2670 2490 2612 
z
" transform="scale(0.015625)"/>
      <path id="CMMI12-6f" d="M 2918 1756 
C 2918 2363 2522 2816 1939 2816 
C 1094 2816 262 1897 262 996 
C 262 390 659 -64 1242 -64 
C 2093 -64 2918 856 2918 1756 
z
M 1248 64 
C 928 64 691 319 691 766 
C 691 1060 845 1712 1024 2031 
C 1312 2523 1670 2689 1933 2689 
C 2246 2689 2490 2433 2490 1986 
C 2490 1731 2355 1047 2112 658 
C 1850 230 1498 64 1248 64 
z
" transform="scale(0.015625)"/>
      <path id="CMMI12-77" d="M 2202 390 
C 2342 6 2739 -64 2982 -64 
C 3469 -64 3757 358 3936 798 
C 4083 1169 4320 2012 4320 2389 
C 4320 2778 4122 2816 4064 2816 
C 3910 2816 3770 2663 3770 2535 
C 3770 2459 3814 2414 3846 2389 
C 3904 2331 4070 2159 4070 1827 
C 4070 1609 3891 1009 3757 709 
C 3578 319 3341 64 3008 64 
C 2650 64 2534 332 2534 626 
C 2534 811 2592 1035 2618 1143 
L 2886 2216 
C 2918 2344 2976 2567 2976 2593 
C 2976 2689 2899 2753 2803 2753 
C 2618 2753 2573 2593 2534 2440 
C 2470 2191 2202 1111 2176 971 
C 2150 862 2150 792 2150 651 
C 2150 498 1946 255 1939 243 
C 1869 172 1766 64 1568 64 
C 1062 64 1062 543 1062 651 
C 1062 856 1107 1137 1395 1897 
C 1472 2095 1504 2178 1504 2305 
C 1504 2574 1312 2816 998 2816 
C 410 2816 173 1890 173 1839 
C 173 1814 198 1782 243 1782 
C 301 1782 307 1807 333 1896 
C 493 2454 742 2682 979 2682 
C 1043 2682 1146 2682 1146 2478 
C 1146 2446 1146 2312 1037 2031 
C 736 1233 672 971 672 728 
C 672 57 1222 -64 1549 -64 
C 1658 -64 1946 -64 2202 390 
z
" transform="scale(0.015625)"/>
      <path id="CMMI12-6e" d="M 1318 1871 
C 1331 1910 1491 2229 1728 2433 
C 1894 2586 2112 2689 2362 2689 
C 2618 2689 2707 2497 2707 2242 
C 2707 1878 2445 1150 2317 805 
C 2259 651 2227 568 2227 453 
C 2227 166 2426 -64 2733 -64 
C 3328 -64 3552 875 3552 913 
C 3552 945 3526 971 3488 971 
C 3430 971 3424 952 3392 843 
C 3245 319 3002 64 2752 64 
C 2688 64 2586 64 2586 269 
C 2586 429 2656 621 2694 710 
C 2822 1063 3091 1780 3091 2145 
C 3091 2528 2867 2816 2381 2816 
C 1811 2816 1510 2415 1395 2255 
C 1376 2618 1114 2816 832 2816 
C 627 2816 486 2695 378 2478 
C 262 2248 173 1865 173 1839 
C 173 1814 198 1782 243 1782 
C 294 1782 301 1788 339 1935 
C 442 2325 557 2689 813 2689 
C 960 2689 1011 2586 1011 2395 
C 1011 2254 947 2005 902 1807 
L 723 1118 
C 698 996 627 709 595 594 
C 550 428 480 128 480 96 
C 480 6 550 -64 646 -64 
C 723 -64 813 -26 864 70 
C 877 102 934 326 966 453 
L 1107 1028 
L 1318 1871 
z
" transform="scale(0.015625)"/>
     </defs>
     <use xlink:href="#CMR17-4d" transform="scale(0.996264)"/>
     <use xlink:href="#CMR17-6f" transform="translate(84.686941 0) scale(0.996264)"/>
     <use xlink:href="#CMR17-64" transform="translate(132.979856 0) scale(0.996264)"/>
     <use xlink:href="#CMR17-65" transform="translate(183.875226 0) scale(0.996264)"/>
     <use xlink:href="#CMR17-6c" transform="translate(224.360887 0) scale(0.996264)"/>
     <use xlink:href="#CMR17-3a" transform="translate(249.231945 0) scale(0.996264)"/>
     <use xlink:href="#CMMI12-42" transform="translate(314.588664 0) scale(0.996264)"/>
     <use xlink:href="#CMMI12-72" transform="translate(393.724187 0) scale(0.996264)"/>
     <use xlink:href="#CMMI12-6f" transform="translate(440.394799 0) scale(0.996264)"/>
     <use xlink:href="#CMMI12-77" transform="translate(487.290109 0) scale(0.996264)"/>
     <use xlink:href="#CMMI12-6e" transform="translate(559.703024 0) scale(0.996264)"/>
    </g>
   </g>
  </g>
 </g>
 <defs>
  <clipPath id="pc0fde91b94">
   <rect x="37.010549" y="12.641765" width="185.487785" height="127.346477"/>
  </clipPath>
 </defs>
</svg>
