<?xml version="1.0" encoding="utf-8" standalone="no"?>
<!DOCTYPE svg PUBLIC "-//W3C//DTD SVG 1.1//EN"
  "http://www.w3.org/Graphics/SVG/1.1/DTD/svg11.dtd">
<svg xmlns:xlink="http://www.w3.org/1999/xlink" width="222.498334pt" height="169.028466pt" viewBox="0 0 222.498334 169.028466" xmlns="http://www.w3.org/2000/svg" version="1.1">
 <metadata>
  <rdf:RDF xmlns:dc="http://purl.org/dc/elements/1.1/" xmlns:cc="http://creativecommons.org/ns#" xmlns:rdf="http://www.w3.org/1999/02/22-rdf-syntax-ns#">
   <cc:Work>
    <dc:type rdf:resource="http://purl.org/dc/dcmitype/StillImage"/>
    <dc:date>2023-10-27T18:14:56.140242</dc:date>
    <dc:format>image/svg+xml</dc:format>
    <dc:creator>
     <cc:Agent>
      <dc:title>Matplotlib v3.7.3, https://matplotlib.org/</dc:title>
     </cc:Agent>
    </dc:creator>
   </cc:Work>
  </rdf:RDF>
 </metadata>
 <defs>
  <style type="text/css">*{stroke-linejoin: round; stroke-linecap: butt}</style>
 </defs>
 <g id="figure_1">
  <g id="patch_1">
   <path d="M 0 169.028466 
L 222.498334 169.028466 
L 222.498334 0 
L 0 0 
L 0 169.028466 
z
" style="fill: none"/>
  </g>
  <g id="axes_1">
   <g id="patch_2">
    <path d="M 37.010549 139.988242 
L 222.498334 139.988242 
L 222.498334 12.641765 
L 37.010549 12.641765 
L 37.010549 139.988242 
z
" style="fill: none"/>
   </g>
   <g id="PathCollection_1">
    <defs>
     <path id="ma9792099e0" d="M -2.8 2.8 
L 2.8 -2.8 
M -2.8 -2.8 
L 2.8 2.8 
" style="stroke: #0000ff; stroke-width: 0.75"/>
    </defs>
    <g clip-path="url(#p4551f3853c)">
     <use xlink:href="#ma9792099e0" x="-1" y="104.408386" style="fill: #0000ff; stroke: #0000ff; stroke-width: 0.75"/>
     <use xlink:href="#ma9792099e0" x="3.390888" y="105.396823" style="fill: #0000ff; stroke: #0000ff; stroke-width: 0.75"/>
     <use xlink:href="#ma9792099e0" x="10.34668" y="103.872947" style="fill: #0000ff; stroke: #0000ff; stroke-width: 0.75"/>
     <use xlink:href="#ma9792099e0" x="17.302472" y="101.048474" style="fill: #0000ff; stroke: #0000ff; stroke-width: 0.75"/>
     <use xlink:href="#ma9792099e0" x="24.258264" y="70.196299" style="fill: #0000ff; stroke: #0000ff; stroke-width: 0.75"/>
     <use xlink:href="#ma9792099e0" x="31.214056" y="85.551097" style="fill: #0000ff; stroke: #0000ff; stroke-width: 0.75"/>
     <use xlink:href="#ma9792099e0" x="38.169848" y="86.507452" style="fill: #0000ff; stroke: #0000ff; stroke-width: 0.75"/>
     <use xlink:href="#ma9792099e0" x="45.12564" y="20.345493" style="fill: #0000ff; stroke: #0000ff; stroke-width: 0.75"/>
     <use xlink:href="#ma9792099e0" x="52.081432" y="69.475645" style="fill: #0000ff; stroke: #0000ff; stroke-width: 0.75"/>
     <use xlink:href="#ma9792099e0" x="59.037223" y="45.115751" style="fill: #0000ff; stroke: #0000ff; stroke-width: 0.75"/>
     <use xlink:href="#ma9792099e0" x="65.993015" y="98.553247" style="fill: #0000ff; stroke: #0000ff; stroke-width: 0.75"/>
     <use xlink:href="#ma9792099e0" x="72.948807" y="89.973228" style="fill: #0000ff; stroke: #0000ff; stroke-width: 0.75"/>
     <use xlink:href="#ma9792099e0" x="79.904599" y="36.951659" style="fill: #0000ff; stroke: #0000ff; stroke-width: 0.75"/>
     <use xlink:href="#ma9792099e0" x="86.860391" y="103.663941" style="fill: #0000ff; stroke: #0000ff; stroke-width: 0.75"/>
     <use xlink:href="#ma9792099e0" x="93.816183" y="80.114361" style="fill: #0000ff; stroke: #0000ff; stroke-width: 0.75"/>
     <use xlink:href="#ma9792099e0" x="100.771975" y="72.527332" style="fill: #0000ff; stroke: #0000ff; stroke-width: 0.75"/>
     <use xlink:href="#ma9792099e0" x="107.727767" y="28.91717" style="fill: #0000ff; stroke: #0000ff; stroke-width: 0.75"/>
     <use xlink:href="#ma9792099e0" x="114.683559" y="52.673229" style="fill: #0000ff; stroke: #0000ff; stroke-width: 0.75"/>
     <use xlink:href="#ma9792099e0" x="121.639351" y="106.832961" style="fill: #0000ff; stroke: #0000ff; stroke-width: 0.75"/>
     <use xlink:href="#ma9792099e0" x="128.595143" y="104.283174" style="fill: #0000ff; stroke: #0000ff; stroke-width: 0.75"/>
     <use xlink:href="#ma9792099e0" x="135.550935" y="110.946079" style="fill: #0000ff; stroke: #0000ff; stroke-width: 0.75"/>
     <use xlink:href="#ma9792099e0" x="142.506727" y="109.383365" style="fill: #0000ff; stroke: #0000ff; stroke-width: 0.75"/>
     <use xlink:href="#ma9792099e0" x="149.462518" y="107.406892" style="fill: #0000ff; stroke: #0000ff; stroke-width: 0.75"/>
     <use xlink:href="#ma9792099e0" x="156.41831" y="110.059572" style="fill: #0000ff; stroke: #0000ff; stroke-width: 0.75"/>
     <use xlink:href="#ma9792099e0" x="163.374102" y="106.139555" style="fill: #0000ff; stroke: #0000ff; stroke-width: 0.75"/>
     <use xlink:href="#ma9792099e0" x="170.329894" y="109.391123" style="fill: #0000ff; stroke: #0000ff; stroke-width: 0.75"/>
     <use xlink:href="#ma9792099e0" x="177.285686" y="98.832525" style="fill: #0000ff; stroke: #0000ff; stroke-width: 0.75"/>
     <use xlink:href="#ma9792099e0" x="184.241478" y="77.881619" style="fill: #0000ff; stroke: #0000ff; stroke-width: 0.75"/>
     <use xlink:href="#ma9792099e0" x="191.19727" y="25.802366" style="fill: #0000ff; stroke: #0000ff; stroke-width: 0.75"/>
     <use xlink:href="#ma9792099e0" x="198.153062" y="13.941617" style="fill: #0000ff; stroke: #0000ff; stroke-width: 0.75"/>
     <use xlink:href="#ma9792099e0" x="205.108854" y="54.137071" style="fill: #0000ff; stroke: #0000ff; stroke-width: 0.75"/>
     <use xlink:href="#ma9792099e0" x="212.064646" y="81.210341" style="fill: #0000ff; stroke: #0000ff; stroke-width: 0.75"/>
     <use xlink:href="#ma9792099e0" x="219.020438" y="61.126264" style="fill: #0000ff; stroke: #0000ff; stroke-width: 0.75"/>
     <use xlink:href="#ma9792099e0" x="225.97623" y="28.541974" style="fill: #0000ff; stroke: #0000ff; stroke-width: 0.75"/>
     <use xlink:href="#ma9792099e0" x="232.932022" y="89.465282" style="fill: #0000ff; stroke: #0000ff; stroke-width: 0.75"/>
     <use xlink:href="#ma9792099e0" x="239.887813" y="111.296845" style="fill: #0000ff; stroke: #0000ff; stroke-width: 0.75"/>
     <use xlink:href="#ma9792099e0" x="246.843605" y="99.814334" style="fill: #0000ff; stroke: #0000ff; stroke-width: 0.75"/>
     <use xlink:href="#ma9792099e0" x="253.799397" y="97.401994" style="fill: #0000ff; stroke: #0000ff; stroke-width: 0.75"/>
     <use xlink:href="#ma9792099e0" x="260.755189" y="98.074089" style="fill: #0000ff; stroke: #0000ff; stroke-width: 0.75"/>
     <use xlink:href="#ma9792099e0" x="267.710981" y="94.608685" style="fill: #0000ff; stroke: #0000ff; stroke-width: 0.75"/>
     <use xlink:href="#ma9792099e0" x="274.666773" y="97.024412" style="fill: #0000ff; stroke: #0000ff; stroke-width: 0.75"/>
     <use xlink:href="#ma9792099e0" x="281.622565" y="94.019207" style="fill: #0000ff; stroke: #0000ff; stroke-width: 0.75"/>
     <use xlink:href="#ma9792099e0" x="288.578357" y="97.993313" style="fill: #0000ff; stroke: #0000ff; stroke-width: 0.75"/>
     <use xlink:href="#ma9792099e0" x="295.534149" y="107.279991" style="fill: #0000ff; stroke: #0000ff; stroke-width: 0.75"/>
     <use xlink:href="#ma9792099e0" x="302.489941" y="98.416865" style="fill: #0000ff; stroke: #0000ff; stroke-width: 0.75"/>
     <use xlink:href="#ma9792099e0" x="309.445733" y="101.569261" style="fill: #0000ff; stroke: #0000ff; stroke-width: 0.75"/>
     <use xlink:href="#ma9792099e0" x="316.401525" y="99.298402" style="fill: #0000ff; stroke: #0000ff; stroke-width: 0.75"/>
     <use xlink:href="#ma9792099e0" x="323.357317" y="102.967442" style="fill: #0000ff; stroke: #0000ff; stroke-width: 0.75"/>
     <use xlink:href="#ma9792099e0" x="330.313108" y="109.070455" style="fill: #0000ff; stroke: #0000ff; stroke-width: 0.75"/>
     <use xlink:href="#ma9792099e0" x="337.2689" y="99.244858" style="fill: #0000ff; stroke: #0000ff; stroke-width: 0.75"/>
     <use xlink:href="#ma9792099e0" x="344.224692" y="96.963599" style="fill: #0000ff; stroke: #0000ff; stroke-width: 0.75"/>
     <use xlink:href="#ma9792099e0" x="351.180484" y="93.714278" style="fill: #0000ff; stroke: #0000ff; stroke-width: 0.75"/>
     <use xlink:href="#ma9792099e0" x="358.136276" y="98.137335" style="fill: #0000ff; stroke: #0000ff; stroke-width: 0.75"/>
     <use xlink:href="#ma9792099e0" x="365.092068" y="95.713222" style="fill: #0000ff; stroke: #0000ff; stroke-width: 0.75"/>
     <use xlink:href="#ma9792099e0" x="372.04786" y="94.547712" style="fill: #0000ff; stroke: #0000ff; stroke-width: 0.75"/>
     <use xlink:href="#ma9792099e0" x="379.003652" y="53.735097" style="fill: #0000ff; stroke: #0000ff; stroke-width: 0.75"/>
     <use xlink:href="#ma9792099e0" x="385.959444" y="81.271932" style="fill: #0000ff; stroke: #0000ff; stroke-width: 0.75"/>
     <use xlink:href="#ma9792099e0" x="392.915236" y="69.327263" style="fill: #0000ff; stroke: #0000ff; stroke-width: 0.75"/>
     <use xlink:href="#ma9792099e0" x="399.871028" y="61.498579" style="fill: #0000ff; stroke: #0000ff; stroke-width: 0.75"/>
     <use xlink:href="#ma9792099e0" x="406.82682" y="65.152271" style="fill: #0000ff; stroke: #0000ff; stroke-width: 0.75"/>
     <use xlink:href="#ma9792099e0" x="413.782611" y="81.986799" style="fill: #0000ff; stroke: #0000ff; stroke-width: 0.75"/>
     <use xlink:href="#ma9792099e0" x="420.738403" y="81.609544" style="fill: #0000ff; stroke: #0000ff; stroke-width: 0.75"/>
     <use xlink:href="#ma9792099e0" x="427.694195" y="70.785894" style="fill: #0000ff; stroke: #0000ff; stroke-width: 0.75"/>
     <use xlink:href="#ma9792099e0" x="434.649987" y="60.690429" style="fill: #0000ff; stroke: #0000ff; stroke-width: 0.75"/>
     <use xlink:href="#ma9792099e0" x="441.605779" y="82.21721" style="fill: #0000ff; stroke: #0000ff; stroke-width: 0.75"/>
     <use xlink:href="#ma9792099e0" x="448.561571" y="85.056419" style="fill: #0000ff; stroke: #0000ff; stroke-width: 0.75"/>
     <use xlink:href="#ma9792099e0" x="455.517363" y="88.074179" style="fill: #0000ff; stroke: #0000ff; stroke-width: 0.75"/>
     <use xlink:href="#ma9792099e0" x="462.473155" y="89.831767" style="fill: #0000ff; stroke: #0000ff; stroke-width: 0.75"/>
     <use xlink:href="#ma9792099e0" x="469.428947" y="90.382841" style="fill: #0000ff; stroke: #0000ff; stroke-width: 0.75"/>
     <use xlink:href="#ma9792099e0" x="476.384739" y="92.577913" style="fill: #0000ff; stroke: #0000ff; stroke-width: 0.75"/>
     <use xlink:href="#ma9792099e0" x="483.340531" y="91.551595" style="fill: #0000ff; stroke: #0000ff; stroke-width: 0.75"/>
     <use xlink:href="#ma9792099e0" x="490.296323" y="93.890084" style="fill: #0000ff; stroke: #0000ff; stroke-width: 0.75"/>
     <use xlink:href="#ma9792099e0" x="497.252115" y="93.188317" style="fill: #0000ff; stroke: #0000ff; stroke-width: 0.75"/>
     <use xlink:href="#ma9792099e0" x="504.207906" y="100.795421" style="fill: #0000ff; stroke: #0000ff; stroke-width: 0.75"/>
     <use xlink:href="#ma9792099e0" x="511.163698" y="105.012369" style="fill: #0000ff; stroke: #0000ff; stroke-width: 0.75"/>
     <use xlink:href="#ma9792099e0" x="518.11949" y="105.22973" style="fill: #0000ff; stroke: #0000ff; stroke-width: 0.75"/>
     <use xlink:href="#ma9792099e0" x="525.075282" y="111.133507" style="fill: #0000ff; stroke: #0000ff; stroke-width: 0.75"/>
     <use xlink:href="#ma9792099e0" x="532.031074" y="111.108162" style="fill: #0000ff; stroke: #0000ff; stroke-width: 0.75"/>
     <use xlink:href="#ma9792099e0" x="538.986866" y="108.617385" style="fill: #0000ff; stroke: #0000ff; stroke-width: 0.75"/>
    </g>
   </g>
   <g id="matplotlib.axis_1">
    <g id="xtick_1">
     <g id="line2d_1">
      <defs>
       <path id="m737f8ab441" d="M 0 0 
L 0 3.5 
" style="stroke: #000000; stroke-width: 0.8"/>
      </defs>
      <g>
       <use xlink:href="#m737f8ab441" x="60.196522" y="139.988242" style="stroke: #000000; stroke-width: 0.8"/>
      </g>
     </g>
     <g id="text_1">
      <!-- $\mathdefault{400}$ -->
      <g transform="translate(53.845248 154.623044) scale(0.08 -0.08)">
       <defs>
        <path id="CMR17-34" d="M 2150 4122 
C 2150 4256 2144 4256 2029 4256 
L 128 1254 
L 128 1088 
L 1779 1088 
L 1779 457 
C 1779 224 1766 160 1318 160 
L 1197 160 
L 1197 0 
C 1402 0 1747 0 1965 0 
C 2182 0 2528 0 2733 0 
L 2733 160 
L 2611 160 
C 2163 160 2150 224 2150 457 
L 2150 1088 
L 2803 1088 
L 2803 1254 
L 2150 1254 
L 2150 4122 
z
M 1798 3703 
L 1798 1254 
L 256 1254 
L 1798 3703 
z
" transform="scale(0.015625)"/>
        <path id="CMR17-30" d="M 2688 2025 
C 2688 2416 2682 3080 2413 3591 
C 2176 4039 1798 4198 1466 4198 
C 1158 4198 768 4058 525 3597 
C 269 3118 243 2524 243 2025 
C 243 1661 250 1106 448 619 
C 723 -39 1216 -128 1466 -128 
C 1760 -128 2208 -7 2470 600 
C 2662 1042 2688 1559 2688 2025 
z
M 1466 -26 
C 1056 -26 813 325 723 812 
C 653 1188 653 1738 653 2096 
C 653 2588 653 2997 736 3387 
C 858 3929 1216 4096 1466 4096 
C 1728 4096 2067 3923 2189 3400 
C 2272 3036 2278 2607 2278 2096 
C 2278 1680 2278 1169 2202 792 
C 2067 95 1690 -26 1466 -26 
z
" transform="scale(0.015625)"/>
       </defs>
       <use xlink:href="#CMR17-34" transform="scale(0.996264)"/>
       <use xlink:href="#CMR17-30" transform="translate(45.690477 0) scale(0.996264)"/>
       <use xlink:href="#CMR17-30" transform="translate(91.380954 0) scale(0.996264)"/>
      </g>
     </g>
    </g>
    <g id="xtick_2">
     <g id="line2d_2">
      <g>
       <use xlink:href="#m737f8ab441" x="106.568468" y="139.988242" style="stroke: #000000; stroke-width: 0.8"/>
      </g>
     </g>
     <g id="text_2">
      <!-- $\mathdefault{500}$ -->
      <g transform="translate(100.217194 154.623044) scale(0.08 -0.08)">
       <defs>
        <path id="CMR17-35" d="M 730 3692 
C 794 3666 1056 3584 1325 3584 
C 1920 3584 2246 3911 2432 4100 
C 2432 4157 2432 4192 2394 4192 
C 2387 4192 2374 4192 2323 4163 
C 2099 4058 1837 3973 1517 3973 
C 1325 3973 1037 3999 723 4139 
C 653 4171 640 4171 634 4171 
C 602 4171 595 4164 595 4037 
L 595 2203 
C 595 2089 595 2057 659 2057 
C 691 2057 704 2070 736 2114 
C 941 2401 1222 2522 1542 2522 
C 1766 2522 2246 2382 2246 1289 
C 2246 1085 2246 715 2054 421 
C 1894 159 1645 25 1370 25 
C 947 25 518 320 403 814 
C 429 807 480 795 506 795 
C 589 795 749 840 749 1038 
C 749 1210 627 1280 506 1280 
C 358 1280 262 1190 262 1011 
C 262 454 704 -128 1382 -128 
C 2042 -128 2669 440 2669 1264 
C 2669 2030 2170 2624 1549 2624 
C 1222 2624 947 2503 730 2274 
L 730 3692 
z
" transform="scale(0.015625)"/>
       </defs>
       <use xlink:href="#CMR17-35" transform="scale(0.996264)"/>
       <use xlink:href="#CMR17-30" transform="translate(45.690477 0) scale(0.996264)"/>
       <use xlink:href="#CMR17-30" transform="translate(91.380954 0) scale(0.996264)"/>
      </g>
     </g>
    </g>
    <g id="xtick_3">
     <g id="line2d_3">
      <g>
       <use xlink:href="#m737f8ab441" x="152.940414" y="139.988242" style="stroke: #000000; stroke-width: 0.8"/>
      </g>
     </g>
     <g id="text_3">
      <!-- $\mathdefault{600}$ -->
      <g transform="translate(146.58914 154.623044) scale(0.08 -0.08)">
       <defs>
        <path id="CMR17-36" d="M 678 2176 
C 678 3690 1395 4032 1811 4032 
C 1946 4032 2272 4009 2400 3776 
C 2298 3776 2106 3776 2106 3553 
C 2106 3381 2246 3323 2336 3323 
C 2394 3323 2566 3348 2566 3560 
C 2566 3954 2246 4179 1805 4179 
C 1043 4179 243 3390 243 1984 
C 243 253 966 -128 1478 -128 
C 2099 -128 2688 427 2688 1283 
C 2688 2081 2170 2662 1517 2662 
C 1126 2662 838 2407 678 1960 
L 678 2176 
z
M 1478 25 
C 691 25 691 1200 691 1436 
C 691 1896 909 2560 1504 2560 
C 1613 2560 1926 2560 2138 2120 
C 2253 1870 2253 1609 2253 1289 
C 2253 944 2253 690 2118 434 
C 1978 171 1773 25 1478 25 
z
" transform="scale(0.015625)"/>
       </defs>
       <use xlink:href="#CMR17-36" transform="scale(0.996264)"/>
       <use xlink:href="#CMR17-30" transform="translate(45.690477 0) scale(0.996264)"/>
       <use xlink:href="#CMR17-30" transform="translate(91.380954 0) scale(0.996264)"/>
      </g>
     </g>
    </g>
    <g id="xtick_4">
     <g id="line2d_4">
      <g>
       <use xlink:href="#m737f8ab441" x="199.312361" y="139.988242" style="stroke: #000000; stroke-width: 0.8"/>
      </g>
     </g>
     <g id="text_4">
      <!-- $\mathdefault{700}$ -->
      <g transform="translate(192.961086 154.623044) scale(0.08 -0.08)">
       <defs>
        <path id="CMR17-37" d="M 2886 3941 
L 2886 4081 
L 1382 4081 
C 634 4081 621 4165 595 4288 
L 480 4288 
L 294 3094 
L 410 3094 
C 429 3215 474 3540 550 3661 
C 589 3712 1062 3712 1171 3712 
L 2579 3712 
L 1869 2661 
C 1395 1954 1069 999 1069 165 
C 1069 89 1069 -128 1299 -128 
C 1530 -128 1530 89 1530 171 
L 1530 465 
C 1530 1508 1709 2196 2003 2636 
L 2886 3941 
z
" transform="scale(0.015625)"/>
       </defs>
       <use xlink:href="#CMR17-37" transform="scale(0.996264)"/>
       <use xlink:href="#CMR17-30" transform="translate(45.690477 0) scale(0.996264)"/>
       <use xlink:href="#CMR17-30" transform="translate(91.380954 0) scale(0.996264)"/>
      </g>
     </g>
    </g>
    <g id="text_5">
     <!-- time $t$ -->
     <g transform="translate(116.60927 167.091288) scale(0.1 -0.1)">
      <defs>
       <path id="CMR17-74" d="M 966 2560 
L 1862 2560 
L 1862 2725 
L 966 2725 
L 966 3904 
L 851 3904 
C 838 3245 614 2668 70 2668 
L 70 2560 
L 627 2560 
L 627 771 
C 627 650 627 -64 1370 -64 
C 1747 -64 1965 306 1965 777 
L 1965 1140 
L 1850 1140 
L 1850 783 
C 1850 344 1677 51 1408 51 
C 1222 51 966 178 966 758 
L 966 2560 
z
" transform="scale(0.015625)"/>
       <path id="CMR17-69" d="M 992 3909 
C 992 4049 877 4170 730 4170 
C 589 4170 467 4056 467 3909 
C 467 3769 582 3648 730 3648 
C 870 3648 992 3763 992 3909 
z
M 243 2706 
L 243 2541 
C 602 2541 653 2502 653 2197 
L 653 427 
C 653 184 627 153 218 153 
L 218 -13 
C 371 0 646 0 806 0 
C 960 0 1222 0 1370 -13 
L 1370 153 
C 992 153 979 191 979 420 
L 979 2776 
L 243 2706 
z
" transform="scale(0.015625)"/>
       <path id="CMR17-6d" d="M 4326 1933 
C 4326 2252 4269 2790 3507 2790 
C 3072 2790 2771 2496 2656 2151 
L 2650 2151 
C 2573 2676 2195 2790 1837 2790 
C 1331 2790 1069 2400 973 2144 
L 966 2144 
L 966 2790 
L 211 2720 
L 211 2554 
C 589 2554 646 2515 646 2208 
L 646 428 
C 646 184 621 153 211 153 
L 211 -13 
C 365 0 646 0 813 0 
C 979 0 1267 0 1421 -13 
L 1421 153 
C 1011 153 986 178 986 428 
L 986 1658 
C 986 2247 1344 2688 1792 2688 
C 2266 2688 2317 2266 2317 1958 
L 2317 428 
C 2317 184 2291 153 1882 153 
L 1882 -13 
C 2035 0 2317 0 2483 0 
C 2650 0 2938 0 3091 -13 
L 3091 153 
C 2682 153 2656 178 2656 428 
L 2656 1658 
C 2656 2247 3014 2688 3462 2688 
C 3936 2688 3987 2266 3987 1958 
L 3987 428 
C 3987 184 3962 153 3552 153 
L 3552 -13 
C 3706 0 3987 0 4154 0 
C 4320 0 4608 0 4762 -13 
L 4762 153 
C 4352 153 4326 178 4326 428 
L 4326 1933 
z
" transform="scale(0.015625)"/>
       <path id="CMR17-65" d="M 2438 1472 
C 2464 1498 2464 1511 2464 1576 
C 2464 2238 2118 2816 1389 2816 
C 710 2816 173 2169 173 1383 
C 173 551 781 -64 1459 -64 
C 2176 -64 2458 607 2458 740 
C 2458 784 2419 784 2406 784 
C 2362 784 2355 771 2330 696 
C 2189 265 1837 51 1504 51 
C 1229 51 954 203 781 480 
C 582 803 582 1176 582 1472 
L 2438 1472 
z
M 589 1568 
C 634 2505 1126 2714 1382 2714 
C 1818 2714 2112 2297 2118 1568 
L 589 1568 
z
" transform="scale(0.015625)"/>
       <path id="CMMI12-74" d="M 1286 2566 
L 1875 2566 
C 1997 2566 2061 2566 2061 2681 
C 2061 2752 2022 2752 1894 2752 
L 1331 2752 
L 1568 3692 
C 1594 3781 1594 3794 1594 3840 
C 1594 3943 1510 4000 1427 4000 
C 1376 4000 1229 3981 1178 3775 
L 928 2752 
L 326 2752 
C 198 2752 141 2752 141 2630 
C 141 2566 186 2566 307 2566 
L 877 2566 
L 454 881 
C 403 658 384 594 384 511 
C 384 211 595 -64 954 -64 
C 1600 -64 1946 868 1946 912 
C 1946 951 1920 970 1882 970 
C 1869 970 1843 970 1830 944 
C 1824 938 1818 931 1773 829 
C 1638 511 1344 64 973 64 
C 781 64 768 224 768 364 
C 768 370 768 492 787 568 
L 1286 2566 
z
" transform="scale(0.015625)"/>
      </defs>
      <use xlink:href="#CMR17-74" transform="scale(0.996264)"/>
      <use xlink:href="#CMR17-69" transform="translate(35.280768 0) scale(0.996264)"/>
      <use xlink:href="#CMR17-6d" transform="translate(60.151826 0) scale(0.996264)"/>
      <use xlink:href="#CMR17-65" transform="translate(137.071416 0) scale(0.996264)"/>
      <use xlink:href="#CMMI12-74" transform="translate(207.633043 0) scale(0.996264)"/>
     </g>
    </g>
   </g>
   <g id="matplotlib.axis_2">
    <g id="ytick_1">
     <g id="line2d_5">
      <defs>
       <path id="md7764a5905" d="M 0 0 
L -3.5 0 
" style="stroke: #000000; stroke-width: 0.8"/>
      </defs>
      <g>
       <use xlink:href="#md7764a5905" x="37.010549" y="114.518947" style="stroke: #000000; stroke-width: 0.8"/>
      </g>
     </g>
     <g id="text_6">
      <!-- $\mathdefault{0.00}$ -->
      <g transform="translate(12.855677 117.286348) scale(0.08 -0.08)">
       <defs>
        <path id="CMMI12-3a" d="M 1178 307 
C 1178 492 1024 619 870 619 
C 685 619 557 466 557 313 
C 557 128 710 0 864 0 
C 1050 0 1178 153 1178 307 
z
" transform="scale(0.015625)"/>
       </defs>
       <use xlink:href="#CMR17-30" transform="scale(0.996264)"/>
       <use xlink:href="#CMMI12-3a" transform="translate(45.690477 0) scale(0.996264)"/>
       <use xlink:href="#CMR17-30" transform="translate(72.787654 0) scale(0.996264)"/>
       <use xlink:href="#CMR17-30" transform="translate(118.478131 0) scale(0.996264)"/>
      </g>
     </g>
    </g>
    <g id="ytick_2">
     <g id="line2d_6">
      <g>
       <use xlink:href="#md7764a5905" x="37.010549" y="80.559886" style="stroke: #000000; stroke-width: 0.8"/>
      </g>
     </g>
     <g id="text_7">
      <!-- $\mathdefault{0.02}$ -->
      <g transform="translate(12.855677 83.327287) scale(0.08 -0.08)">
       <defs>
        <path id="CMR17-32" d="M 2669 989 
L 2554 989 
C 2490 536 2438 459 2413 420 
C 2381 369 1920 369 1830 369 
L 602 369 
C 832 619 1280 1072 1824 1597 
C 2214 1967 2669 2402 2669 3035 
C 2669 3790 2067 4224 1395 4224 
C 691 4224 262 3604 262 3030 
C 262 2780 448 2748 525 2748 
C 589 2748 781 2787 781 3010 
C 781 3207 614 3264 525 3264 
C 486 3264 448 3258 422 3245 
C 544 3790 915 4058 1306 4058 
C 1862 4058 2227 3617 2227 3035 
C 2227 2479 1901 2000 1536 1584 
L 262 146 
L 262 0 
L 2515 0 
L 2669 989 
z
" transform="scale(0.015625)"/>
       </defs>
       <use xlink:href="#CMR17-30" transform="scale(0.996264)"/>
       <use xlink:href="#CMMI12-3a" transform="translate(45.690477 0) scale(0.996264)"/>
       <use xlink:href="#CMR17-30" transform="translate(72.787654 0) scale(0.996264)"/>
       <use xlink:href="#CMR17-32" transform="translate(118.478131 0) scale(0.996264)"/>
      </g>
     </g>
    </g>
    <g id="ytick_3">
     <g id="line2d_7">
      <g>
       <use xlink:href="#md7764a5905" x="37.010549" y="46.600826" style="stroke: #000000; stroke-width: 0.8"/>
      </g>
     </g>
     <g id="text_8">
      <!-- $\mathdefault{0.04}$ -->
      <g transform="translate(12.855677 49.368227) scale(0.08 -0.08)">
       <use xlink:href="#CMR17-30" transform="scale(0.996264)"/>
       <use xlink:href="#CMMI12-3a" transform="translate(45.690477 0) scale(0.996264)"/>
       <use xlink:href="#CMR17-30" transform="translate(72.787654 0) scale(0.996264)"/>
       <use xlink:href="#CMR17-34" transform="translate(118.478131 0) scale(0.996264)"/>
      </g>
     </g>
    </g>
    <g id="ytick_4">
     <g id="line2d_8">
      <g>
       <use xlink:href="#md7764a5905" x="37.010549" y="12.641765" style="stroke: #000000; stroke-width: 0.8"/>
      </g>
     </g>
     <g id="text_9">
      <!-- $\mathdefault{0.06}$ -->
      <g transform="translate(12.855677 15.409166) scale(0.08 -0.08)">
       <use xlink:href="#CMR17-30" transform="scale(0.996264)"/>
       <use xlink:href="#CMMI12-3a" transform="translate(45.690477 0) scale(0.996264)"/>
       <use xlink:href="#CMR17-30" transform="translate(72.787654 0) scale(0.996264)"/>
       <use xlink:href="#CMR17-36" transform="translate(118.478131 0) scale(0.996264)"/>
      </g>
     </g>
    </g>
    <g id="text_10">
     <!-- target-variable $y$ -->
     <g transform="translate(6.918498 112.132166) rotate(-90) scale(0.1 -0.1)">
      <defs>
       <path id="CMR17-61" d="M 2304 1653 
C 2304 2072 2304 2294 2035 2543 
C 1798 2752 1523 2816 1306 2816 
C 800 2816 435 2407 435 1971 
C 435 1728 627 1728 666 1728 
C 749 1728 896 1778 896 1954 
C 896 2112 774 2181 666 2181 
C 640 2181 608 2174 589 2168 
C 723 2592 1069 2714 1293 2714 
C 1613 2714 1965 2429 1965 1885 
L 1965 1600 
C 1587 1600 1133 1549 774 1357 
C 371 1133 256 813 256 570 
C 256 77 832 -64 1171 -64 
C 1523 -64 1850 139 1990 511 
C 2003 233 2182 -18 2464 -18 
C 2598 -18 2938 70 2938 567 
L 2938 920 
L 2822 920 
L 2822 562 
C 2822 178 2650 128 2566 128 
C 2304 128 2304 458 2304 738 
L 2304 1653 
z
M 1965 870 
C 1965 317 1568 38 1216 38 
C 896 38 646 275 646 570 
C 646 761 730 1100 1101 1305 
C 1408 1478 1760 1504 1965 1504 
L 1965 870 
z
" transform="scale(0.015625)"/>
       <path id="CMR17-72" d="M 960 1497 
C 960 2112 1222 2688 1702 2688 
C 1747 2688 1792 2682 1837 2662 
C 1837 2662 1696 2617 1696 2452 
C 1696 2298 1818 2234 1914 2234 
C 1990 2234 2131 2279 2131 2458 
C 2131 2663 1926 2790 1709 2790 
C 1222 2790 1011 2317 947 2093 
L 941 2093 
L 941 2790 
L 198 2720 
L 198 2554 
C 576 2554 634 2515 634 2208 
L 634 428 
C 634 184 608 153 198 153 
L 198 -13 
C 352 0 646 0 813 0 
C 998 0 1325 0 1498 -13 
L 1498 153 
C 1037 153 960 153 960 440 
L 960 1497 
z
" transform="scale(0.015625)"/>
       <path id="CMR17-67" d="M 710 1164 
C 832 1068 1043 960 1299 960 
C 1805 960 2240 1357 2240 1888 
C 2240 2054 2189 2310 1997 2509 
C 2176 2692 2438 2752 2586 2752 
C 2611 2752 2650 2752 2682 2734 
C 2656 2728 2598 2703 2598 2605 
C 2598 2527 2656 2471 2739 2471 
C 2835 2471 2886 2533 2886 2614 
C 2886 2731 2790 2854 2586 2854 
C 2330 2854 2106 2738 1926 2580 
C 1734 2753 1504 2816 1299 2816 
C 794 2816 358 2419 358 1888 
C 358 1522 570 1292 634 1228 
C 442 1004 442 743 442 711 
C 442 545 506 302 723 168 
C 390 85 128 -169 128 -486 
C 128 -943 736 -1280 1466 -1280 
C 2170 -1280 2803 -956 2803 -479 
C 2803 384 1856 384 1363 384 
C 1216 384 954 384 922 391 
C 723 423 589 602 589 826 
C 589 883 589 1024 710 1164 
z
M 1299 1068 
C 736 1068 736 1760 736 1889 
C 736 2016 736 2708 1299 2708 
C 1862 2708 1862 2016 1862 1889 
C 1862 1760 1862 1068 1299 1068 
z
M 1466 -1171 
C 826 -1171 384 -835 384 -486 
C 384 -289 493 -105 634 -4 
C 794 104 858 104 1293 104 
C 1818 104 2547 104 2547 -486 
C 2547 -835 2106 -1171 1466 -1171 
z
" transform="scale(0.015625)"/>
       <path id="CMR17-2d" d="M 1632 1216 
L 1632 1496 
L 26 1496 
L 26 1216 
L 1632 1216 
z
" transform="scale(0.015625)"/>
       <path id="CMR17-76" d="M 2502 2163 
C 2560 2304 2662 2560 3034 2560 
L 3034 2726 
C 2912 2726 2752 2726 2630 2726 
C 2496 2726 2285 2726 2157 2732 
L 2157 2566 
C 2317 2553 2406 2477 2406 2311 
C 2406 2253 2406 2240 2368 2151 
L 1664 377 
L 902 2286 
C 864 2369 864 2381 864 2407 
C 864 2560 1075 2560 1171 2560 
L 1171 2732 
C 1018 2726 736 2726 576 2726 
C 403 2726 205 2726 64 2732 
L 64 2560 
C 307 2560 442 2560 518 2362 
L 1446 44 
C 1485 -51 1491 -64 1549 -64 
C 1606 -64 1613 -51 1651 44 
L 2502 2163 
z
" transform="scale(0.015625)"/>
       <path id="CMR17-62" d="M 960 4396 
L 198 4326 
L 198 4160 
C 576 4160 634 4122 634 3817 
L 634 -13 
L 749 -13 
L 934 441 
C 1120 141 1395 -64 1766 -64 
C 2406 -64 3053 500 3053 1370 
C 3053 2188 2477 2790 1830 2790 
C 1434 2790 1152 2579 960 2330 
L 960 4396 
z
M 973 2004 
C 973 2118 973 2138 1062 2272 
C 1312 2657 1670 2688 1792 2688 
C 1984 2688 2643 2585 2643 1376 
C 2643 108 1888 38 1734 38 
C 1536 38 1248 114 1043 486 
C 973 608 973 621 973 735 
L 973 2004 
z
" transform="scale(0.015625)"/>
       <path id="CMR17-6c" d="M 979 4396 
L 218 4326 
L 218 4160 
C 595 4160 653 4122 653 3817 
L 653 426 
C 653 184 627 153 218 153 
L 218 -13 
C 371 0 653 0 813 0 
C 979 0 1261 0 1414 -13 
L 1414 153 
C 1005 153 979 178 979 426 
L 979 4396 
z
" transform="scale(0.015625)"/>
       <path id="CMMI12-79" d="M 1683 -700 
C 1510 -939 1261 -1152 947 -1152 
C 870 -1152 563 -1152 467 -889 
C 486 -895 518 -895 531 -895 
C 723 -895 851 -729 851 -582 
C 851 -435 730 -384 634 -384 
C 531 -384 307 -458 307 -759 
C 307 -1071 582 -1286 947 -1286 
C 1587 -1286 2234 -700 2413 6 
L 3040 2485 
C 3046 2517 3059 2556 3059 2594 
C 3059 2689 2982 2753 2886 2753 
C 2829 2753 2694 2727 2643 2535 
L 2170 658 
C 2138 543 2138 530 2086 460 
C 1958 281 1747 64 1440 64 
C 1082 64 1050 415 1050 588 
C 1050 952 1222 1443 1395 1903 
C 1466 2088 1504 2178 1504 2305 
C 1504 2574 1312 2816 998 2816 
C 410 2816 173 1890 173 1839 
C 173 1814 198 1782 243 1782 
C 301 1782 307 1807 333 1897 
C 486 2433 730 2689 979 2689 
C 1037 2689 1146 2689 1146 2478 
C 1146 2312 1075 2127 979 1884 
C 666 1047 666 837 666 683 
C 666 77 1101 -64 1421 -64 
C 1606 -64 1837 -6 2061 230 
L 2067 224 
C 1971 -147 1907 -392 1683 -700 
z
" transform="scale(0.015625)"/>
      </defs>
      <use xlink:href="#CMR17-74" transform="scale(0.996264)"/>
      <use xlink:href="#CMR17-61" transform="translate(35.280768 0) scale(0.996264)"/>
      <use xlink:href="#CMR17-72" transform="translate(80.971245 0) scale(0.996264)"/>
      <use xlink:href="#CMR17-67" transform="translate(116.252013 0) scale(0.996264)"/>
      <use xlink:href="#CMR17-65" transform="translate(161.94249 0) scale(0.996264)"/>
      <use xlink:href="#CMR17-74" transform="translate(202.42815 0) scale(0.996264)"/>
      <use xlink:href="#CMR17-2d" transform="translate(237.708918 0) scale(0.996264)"/>
      <use xlink:href="#CMR17-76" transform="translate(267.784884 0) scale(0.996264)"/>
      <use xlink:href="#CMR17-61" transform="translate(310.872984 0) scale(0.996264)"/>
      <use xlink:href="#CMR17-72" transform="translate(356.563461 0) scale(0.996264)"/>
      <use xlink:href="#CMR17-69" transform="translate(391.844229 0) scale(0.996264)"/>
      <use xlink:href="#CMR17-61" transform="translate(416.715287 0) scale(0.996264)"/>
      <use xlink:href="#CMR17-62" transform="translate(462.405764 0) scale(0.996264)"/>
      <use xlink:href="#CMR17-6c" transform="translate(513.301134 0) scale(0.996264)"/>
      <use xlink:href="#CMR17-65" transform="translate(538.172192 0) scale(0.996264)"/>
      <use xlink:href="#CMMI12-79" transform="translate(608.733819 0) scale(0.996264)"/>
     </g>
    </g>
   </g>
   <g id="line2d_9">
    <path d="M 36.973452 100.247733 
L 37.534367 97.413281 
L 38.175412 92.832335 
L 38.896589 85.968265 
L 39.697896 76.217364 
L 40.659465 61.564823 
L 41.781295 40.608773 
L 42.662733 26.161118 
L 43.383909 17.593395 
L 44.024955 12.435527 
L 44.505739 10.085233 
L 44.906393 9.120652 
L 45.146785 8.975648 
L 45.387177 9.155953 
L 45.62757 9.661566 
L 45.948092 10.841753 
L 46.428877 13.696394 
L 46.989792 18.671424 
L 47.630838 26.525895 
L 48.352014 38.127298 
L 49.553975 58.463963 
L 50.355282 68.320829 
L 51.076459 74.591153 
L 51.637374 77.764589 
L 52.118158 79.298322 
L 52.438681 79.712423 
L 52.679073 79.703596 
L 52.919465 79.420995 
L 53.239988 78.618322 
L 53.640642 76.930546 
L 54.121426 73.901377 
L 54.762472 68.159 
L 55.483649 59.371834 
L 56.365086 48.795591 
L 57.086263 42.573631 
L 57.727309 38.880005 
L 58.208093 37.244405 
L 58.608747 36.624312 
L 58.849139 36.576433 
L 59.089531 36.771687 
L 59.410054 37.410233 
L 59.810708 38.816247 
L 60.291492 41.394952 
L 60.852407 45.632614 
L 61.573583 53.026099 
L 62.374891 63.807486 
L 63.576852 80.708694 
L 64.618551 92.510746 
L 65.58012 101.051044 
L 66.381427 106.441761 
L 67.102603 109.951682 
L 67.743649 112.004507 
L 68.224433 112.885033 
L 68.625087 113.187255 
L 68.94561 113.146565 
L 69.266133 112.854791 
L 69.666786 112.149247 
L 70.147571 110.849931 
L 70.788617 108.354444 
L 71.509793 104.504622 
L 72.3111 98.932556 
L 73.192538 91.229464 
L 74.234238 80.000129 
L 75.356068 65.331656 
L 77.679859 33.155924 
L 78.320905 28.410954 
L 78.801689 26.314255 
L 79.122212 25.612661 
L 79.362604 25.451972 
L 79.602996 25.604575 
L 79.843388 26.070471 
L 80.163911 27.179008 
L 80.564565 29.347908 
L 81.12548 33.846399 
L 81.766526 41.076144 
L 82.487702 51.872589 
L 83.36914 68.874769 
L 84.330709 86.914055 
L 85.212147 99.620247 
L 85.933323 107.291448 
L 86.574369 112.051576 
L 87.135284 114.627236 
L 87.535938 115.558735 
L 87.77633 115.754332 
L 88.016722 115.677451 
L 88.257114 115.328092 
L 88.577637 114.438427 
L 88.978291 112.645153 
L 89.459075 109.49414 
L 90.100121 103.597374 
L 91.542474 88.985962 
L 92.423912 82.303449 
L 93.225219 77.742413 
L 93.946396 74.870289 
L 94.507311 73.443869 
L 94.988095 72.783557 
L 95.308618 72.631726 
L 95.629141 72.710596 
L 95.949664 73.020166 
L 96.350317 73.731553 
L 96.831102 75.061038 
L 98.273455 79.619479 
L 98.674108 80.133341 
L 98.994631 80.280016 
L 99.315154 80.191657 
L 99.635677 79.868261 
L 100.03633 79.133499 
L 100.517115 77.767024 
L 101.07803 75.504422 
L 101.799206 71.537704 
L 102.600514 65.734718 
L 103.481952 57.654773 
L 106.046135 32.362896 
L 106.847442 27.397655 
L 107.568618 24.267541 
L 108.129533 22.709754 
L 108.610318 21.985099 
L 108.930841 21.815119 
L 109.251364 21.895638 
L 109.571886 22.226656 
L 109.97254 22.992692 
L 110.453324 24.428589 
L 111.01424 26.816158 
L 112.055939 32.614798 
L 113.2579 40.5149 
L 114.620122 51.02042 
L 116.062475 63.941348 
L 117.584959 79.585815 
L 119.347835 97.778574 
L 120.309403 104.999581 
L 121.110711 109.447225 
L 121.831887 112.229894 
L 122.392802 113.59499 
L 122.873586 114.208485 
L 123.194109 114.332052 
L 123.514632 114.227276 
L 123.835155 113.894157 
L 124.235809 113.156649 
L 124.716593 111.800682 
L 126.799992 104.94782 
L 127.601299 103.36938 
L 128.242345 102.554763 
L 128.80326 102.168738 
L 129.284044 102.080601 
L 129.764829 102.21653 
L 130.245613 102.576528 
L 130.806528 103.279722 
L 131.447574 104.456818 
L 132.329012 106.642058 
L 133.370711 108.971855 
L 134.33228 110.629049 
L 135.213718 111.732053 
L 136.015025 112.389412 
L 136.736202 112.699804 
L 137.377247 112.752038 
L 138.018293 112.593761 
L 138.73947 112.16407 
L 143.066529 108.840015 
L 145.149927 107.632019 
L 146.672411 106.960997 
L 147.714111 106.767044 
L 148.75581 106.814268 
L 149.797509 107.10267 
L 150.839209 107.63225 
L 151.961039 108.472287 
L 154.525222 110.61541 
L 155.326529 110.855395 
L 156.127837 110.854829 
L 156.929144 110.613712 
L 157.730451 110.132043 
L 158.611889 109.324371 
L 159.573458 108.111313 
L 160.855549 106.406635 
L 161.656856 105.710815 
L 162.458164 105.311134 
L 163.17934 105.204619 
L 163.900517 105.337976 
L 164.621693 105.711205 
L 165.423 106.407235 
L 166.304438 107.514908 
L 168.067314 109.93086 
L 168.788491 110.4455 
L 169.429537 110.649347 
L 170.070582 110.614502 
L 170.711628 110.340965 
L 171.352674 109.828735 
L 172.07385 108.967165 
L 172.875158 107.655557 
L 173.756596 105.782328 
L 175.679733 101.519548 
L 177.52274 97.953466 
L 179.285615 95.017816 
L 181.529276 91.433059 
L 182.170321 89.607475 
L 182.971629 86.570669 
L 183.853067 82.261491 
L 184.814635 76.40317 
L 185.856335 68.693777 
L 187.058296 58.037064 
L 189.702609 33.316679 
L 190.90457 24.695158 
L 192.0264 18.23203 
L 192.987969 13.909179 
L 193.869407 10.933407 
L 194.590584 9.200783 
L 195.151499 8.323949 
L 195.632283 7.931447 
L 196.032937 7.857553 
L 196.43359 8.013834 
L 196.834244 8.40029 
L 197.315028 9.167867 
L 197.875943 10.48229 
L 198.516989 12.536907 
L 199.318296 15.933806 
L 200.199734 20.733801 
L 201.161303 27.240721 
L 204.687055 52.955963 
L 206.3698 63.129575 
L 207.972414 71.515492 
L 209.254506 77.144901 
L 210.135944 80.041842 
L 210.937251 81.946604 
L 211.578297 82.97065 
L 212.139212 83.502279 
L 212.619996 83.687257 
L 213.100781 83.622353 
L 213.581565 83.307568 
L 214.14248 82.624496 
L 214.783526 81.427373 
L 215.504702 79.549658 
L 216.306009 76.822353 
L 217.267578 72.677544 
L 218.309278 67.113799 
L 219.431108 59.873468 
L 220.713199 50.013273 
L 222.075421 37.683728 
L 222.556206 32.920803 
L 222.556206 32.920803 
" clip-path="url(#p4551f3853c)" style="fill: none; stroke: #ff0000; stroke-width: 1.4; stroke-linecap: square"/>
   </g>
   <g id="line2d_10">
    <path d="M 36.973452 83.514239 
L 37.293974 82.642126 
L 37.694628 80.800889 
L 38.175412 77.40077 
L 38.736327 71.759223 
L 39.457504 62.073765 
L 40.419073 45.8337 
L 42.662733 6.342126 
L 43.303779 0.167048 
L 43.463267 -1 
M 46.867291 -1 
L 47.390445 3.577148 
L 47.951361 10.491585 
L 48.592406 21.332576 
L 49.874498 43.562617 
L 50.675805 54.208229 
L 51.316851 60.188466 
L 51.797635 62.92664 
L 52.118158 63.859473 
L 52.35855 64.085395 
L 52.518812 64.013664 
L 52.759204 63.581625 
L 53.079727 62.426856 
L 53.560511 59.55704 
L 54.121426 54.708766 
L 54.922733 45.56702 
L 56.284956 29.1938 
L 56.845871 25.233931 
L 57.406786 22.761035 
L 57.88757 21.591634 
L 58.288224 21.143808 
L 58.608747 21.062301 
L 58.92927 21.190527 
L 59.329923 21.628066 
L 59.730577 22.39764 
L 60.211361 23.859015 
L 60.692145 26.070081 
L 61.253061 29.851968 
L 61.813976 35.223697 
L 62.455021 43.73793 
L 64.53842 74.377483 
L 65.419858 84.08583 
L 66.060904 89.025424 
L 66.621819 91.771152 
L 67.102603 93.058352 
L 67.503257 93.5024 
L 67.82378 93.524706 
L 68.144303 93.313157 
L 68.625087 92.683753 
L 71.109139 88.500485 
L 71.589924 86.913926 
L 72.150839 84.160594 
L 72.711754 80.184054 
L 73.3528 73.962692 
L 74.154107 63.835452 
L 75.356068 45.280504 
L 76.958682 20.389697 
L 77.599728 14.457413 
L 78.080512 11.689827 
L 78.561297 10.146976 
L 78.88182 9.704045 
L 79.122212 9.640926 
L 79.362604 9.786403 
L 79.683127 10.278927 
L 80.08378 11.349263 
L 80.564565 13.317983 
L 81.12548 16.700026 
L 81.686395 21.50975 
L 82.327441 29.145037 
L 82.968486 39.510895 
L 85.6128 87.340529 
L 86.253846 94.177182 
L 86.73463 97.513367 
L 87.135284 99.059901 
L 87.455807 99.500764 
L 87.616068 99.465965 
L 87.856461 99.109981 
L 88.176983 98.101921 
L 88.577637 96.062559 
L 89.138552 91.952908 
L 89.939859 84.112625 
L 91.061689 72.933886 
L 91.782866 68.217053 
L 92.584173 64.465669 
L 94.106657 58.81051 
L 95.308618 54.826407 
L 95.869533 53.69553 
L 96.190056 53.425375 
L 96.430448 53.446745 
L 96.67084 53.68855 
L 96.991363 54.401808 
L 97.472147 56.298153 
L 98.754239 61.458261 
L 99.315154 62.866771 
L 99.635677 63.260754 
L 99.876069 63.317646 
L 100.116461 63.146474 
L 100.436984 62.533718 
L 100.837638 61.114638 
L 101.318422 58.451161 
L 101.959468 53.42543 
L 102.840906 44.443378 
L 105.164697 19.591428 
L 105.885873 15.258945 
L 106.68718 11.848777 
L 108.049403 7.278014 
L 109.010971 4.518719 
L 109.571886 3.526853 
L 109.892409 3.311768 
L 110.132802 3.36236 
L 110.373194 3.622092 
L 110.693717 4.33871 
L 111.09437 5.925866 
L 111.655285 9.375991 
L 112.456593 15.84699 
L 115.741952 44.128983 
L 117.264436 55.714223 
L 118.065743 63.658929 
L 120.229273 87.262257 
L 120.950449 92.832597 
L 121.511364 95.710139 
L 121.912018 96.902172 
L 122.232541 97.347331 
L 122.472933 97.404699 
L 122.713325 97.246006 
L 123.033848 96.736548 
L 123.514632 95.448244 
L 124.235809 92.719964 
L 125.43777 88.00403 
L 125.918554 87.123622 
L 126.319208 86.815382 
L 126.719861 86.769718 
L 127.441038 86.990911 
L 128.001953 87.092414 
L 128.402606 86.975678 
L 128.883391 86.560213 
L 129.524436 85.607818 
L 130.726397 83.744559 
L 131.127051 83.507795 
L 131.447574 83.588384 
L 131.768097 83.978518 
L 132.16875 84.98792 
L 132.809796 87.379588 
L 134.813064 95.373414 
L 135.293849 96.353404 
L 135.614371 96.654981 
L 135.934894 96.670605 
L 136.255417 96.420859 
L 136.656071 95.795003 
L 137.297117 94.307188 
L 138.579208 91.192903 
L 138.979862 90.667913 
L 139.300385 90.572918 
L 139.620908 90.737277 
L 140.101692 91.319925 
L 141.864568 93.875452 
L 142.185091 93.938878 
L 142.505614 93.779207 
L 142.906267 93.259379 
L 143.387052 92.220633 
L 144.26849 89.621826 
L 145.230058 86.925479 
L 145.710843 86.114857 
L 146.031365 85.930611 
L 146.351888 86.069035 
L 146.752542 86.591465 
L 147.393588 87.937379 
L 148.75581 90.951038 
L 149.236594 91.469799 
L 149.557117 91.556424 
L 149.87764 91.43364 
L 150.278294 91.021737 
L 150.91934 89.966596 
L 151.961039 88.229119 
L 152.361693 87.906226 
L 152.682215 87.914868 
L 153.002738 88.233732 
L 153.483523 89.194199 
L 154.28483 91.470262 
L 155.326529 94.33821 
L 155.807314 95.142182 
L 156.127837 95.380785 
L 156.448359 95.350149 
L 156.768882 95.046771 
L 157.169536 94.313931 
L 157.730451 92.769839 
L 159.81385 86.458323 
L 160.134373 86.145479 
L 160.454896 86.141155 
L 160.775418 86.374609 
L 161.256203 87.034568 
L 162.938948 89.646136 
L 163.339602 89.788036 
L 163.660124 89.690446 
L 164.060778 89.327656 
L 164.701824 88.367781 
L 165.743523 86.8 
L 166.144177 86.544399 
L 166.4647 86.604009 
L 166.785223 86.974719 
L 167.266007 88.064877 
L 168.067314 90.585106 
L 169.189144 93.984193 
L 169.669929 94.862605 
L 169.990452 95.131516 
L 170.310974 95.112486 
L 170.631497 94.798608 
L 171.032151 94.016732 
L 171.593066 92.329562 
L 172.634765 88.264147 
L 173.596334 84.888434 
L 174.077118 83.923079 
L 174.477772 83.586858 
L 174.878426 83.537546 
L 175.519471 83.761657 
L 176.160517 83.955607 
L 176.561171 83.862851 
L 176.961824 83.493589 
L 177.362478 82.791903 
L 177.923393 81.250072 
L 178.7247 78.22933 
L 180.086923 73.045412 
L 180.567707 71.900843 
L 180.968361 71.419888 
L 181.609406 71.046146 
L 182.330583 70.605997 
L 182.811367 69.983781 
L 183.212021 69.10076 
L 183.692805 67.447949 
L 184.25372 64.534358 
L 184.894766 59.840991 
L 185.776204 51.425508 
L 188.580779 22.79156 
L 189.542348 16.787939 
L 191.625747 4.648663 
L 192.445456 -1 
M 199.351325 -1 
L 200.119603 1.241906 
L 200.760649 3.910604 
L 201.321564 7.240951 
L 202.042741 13.193868 
L 205.007578 39.578269 
L 205.728754 43.45081 
L 206.449931 46.147091 
L 208.61346 53.233435 
L 209.575029 58.416126 
L 210.77699 64.688202 
L 211.418035 66.971449 
L 211.818689 67.785341 
L 212.139212 68.051589 
L 212.379604 68.024691 
L 212.700127 67.701813 
L 213.100781 66.888859 
L 213.661696 65.161437 
L 214.943787 60.152302 
L 215.664964 57.826285 
L 216.38614 56.32059 
L 217.42784 54.238666 
L 217.988755 52.545057 
L 218.54967 50.073938 
L 219.190715 46.03877 
L 219.911892 39.935876 
L 221.033722 28.15765 
L 222.556206 11.655848 
L 222.556206 11.655848 
" clip-path="url(#p4551f3853c)" style="fill: none; stroke-dasharray: 1.4,2.31; stroke-dashoffset: 0; stroke: #ff0000; stroke-width: 1.4"/>
   </g>
   <g id="line2d_11">
    <path d="M 36.973452 116.981228 
L 37.854889 110.788229 
L 38.97672 101.372945 
L 39.858158 92.300797 
L 40.659465 81.78973 
L 41.460772 68.171896 
L 42.822994 43.447075 
L 43.624302 32.820082 
L 44.185217 27.738713 
L 44.666001 25.178651 
L 44.986524 24.463274 
L 45.146785 24.410576 
L 45.307047 24.561427 
L 45.547439 25.165491 
L 45.867962 26.657714 
L 46.348746 30.281811 
L 46.909661 36.398794 
L 47.630838 46.782688 
L 48.752668 66.778317 
L 49.473844 77.447717 
L 50.195021 84.991437 
L 50.836067 89.614191 
L 51.477112 92.743933 
L 52.038027 94.543388 
L 52.518812 95.466137 
L 52.839335 95.737724 
L 53.079727 95.734138 
L 53.320119 95.52955 
L 53.640642 94.904003 
L 54.041295 93.475019 
L 54.52208 90.663154 
L 55.002864 86.46708 
L 55.563779 79.559202 
L 56.76574 64.436236 
L 57.567047 56.998184 
L 58.127962 53.626166 
L 58.528616 52.326562 
L 58.769008 52.029235 
L 58.92927 52.038479 
L 59.169662 52.365926 
L 59.490185 53.381765 
L 59.890838 55.544226 
L 60.451753 60.08221 
L 61.17293 68.075256 
L 62.134499 81.446177 
L 63.256329 96.941982 
L 64.137767 105.712179 
L 65.179466 113.786679 
L 67.262865 127.82039 
L 68.064172 131.923762 
L 68.544956 133.508635 
L 68.94561 134.149477 
L 69.186002 134.180645 
L 69.426394 133.90846 
L 69.746917 133.070342 
L 70.227702 130.95361 
L 70.868747 126.872982 
L 71.830316 119.010371 
L 74.715022 92.541701 
L 75.59646 82.373047 
L 76.397767 70.620713 
L 77.439467 55.333709 
L 78.160643 47.423811 
L 78.721558 43.28179 
L 79.122212 41.584396 
L 79.442735 41.057632 
L 79.602996 41.084134 
L 79.843388 41.493966 
L 80.163911 42.734071 
L 80.564565 45.377834 
L 81.12548 50.992772 
L 81.766526 59.821247 
L 82.647964 75.35354 
L 84.410839 108.009068 
L 85.212147 117.414418 
L 85.933323 123.499097 
L 86.6545 127.951693 
L 87.375676 131.098664 
L 87.856461 132.407979 
L 88.176983 132.84772 
L 88.417376 132.911637 
L 88.657768 132.72095 
L 88.978291 132.028819 
L 89.378944 130.378858 
L 89.859729 127.093808 
L 90.420644 121.267678 
L 92.343781 100.20106 
L 93.145088 93.949556 
L 93.706003 91.12202 
L 94.106657 89.970783 
L 94.42718 89.559499 
L 94.667572 89.527624 
L 94.907964 89.711584 
L 95.228487 90.254137 
L 95.709271 91.590563 
L 96.430448 94.387429 
L 97.552278 98.890517 
L 97.872801 99.429804 
L 98.113193 99.554273 
L 98.353585 99.468409 
L 98.674108 99.070066 
L 99.154893 97.981597 
L 99.876069 95.6253 
L 101.879337 87.911906 
L 102.680644 83.937282 
L 103.32169 79.602111 
L 103.962736 73.726321 
L 106.847442 43.525174 
L 107.408357 40.342492 
L 107.889141 38.773629 
L 108.209664 38.329148 
L 108.450056 38.295278 
L 108.690449 38.499254 
L 109.010971 39.10481 
L 109.491756 40.615762 
L 110.212932 43.855924 
L 112.13607 53.109163 
L 113.418161 58.548721 
L 114.139338 62.792159 
L 114.860514 68.5446 
L 115.741952 77.691534 
L 117.264436 96.527895 
L 118.466397 110.426891 
L 119.187573 116.16889 
L 119.90875 120.242205 
L 120.790188 123.915561 
L 123.033848 131.861075 
L 123.594763 133.146949 
L 123.995417 133.581 
L 124.235809 133.593334 
L 124.476201 133.388513 
L 124.796724 132.729975 
L 125.197377 131.22646 
L 126.158946 126.416598 
L 127.360907 120.592625 
L 128.001953 118.534713 
L 128.402606 117.851021 
L 128.723129 117.678188 
L 128.963521 117.766428 
L 129.284044 118.156737 
L 129.684698 119.027448 
L 130.325744 121.068317 
L 132.16875 127.480657 
L 132.569404 128.051373 
L 132.970058 128.221465 
L 133.370711 128.114781 
L 134.091888 127.589362 
L 134.732933 127.206185 
L 135.133587 127.201579 
L 135.534241 127.462199 
L 135.934894 128.006351 
L 136.495809 129.169946 
L 138.178555 133.016558 
L 138.579208 133.37226 
L 138.8196 133.368595 
L 139.059993 133.166639 
L 139.460646 132.458534 
L 140.021561 130.940859 
L 141.944699 125.284437 
L 142.425483 124.686901 
L 142.746006 124.588916 
L 143.066529 124.721612 
L 143.467182 125.163186 
L 144.108228 126.28432 
L 145.230058 128.255983 
L 145.630712 128.56952 
L 145.951235 128.528555 
L 146.271758 128.19184 
L 146.752542 127.283565 
L 147.794241 124.606516 
L 148.515418 123.025046 
L 148.996202 122.452879 
L 149.316725 122.367656 
L 149.637248 122.540379 
L 150.037902 123.106927 
L 150.598817 124.441562 
L 151.720647 127.98551 
L 152.521954 130.118638 
L 152.922608 130.703006 
L 153.24313 130.80643 
L 153.563653 130.625397 
L 153.964307 130.102994 
L 154.685484 128.689915 
L 155.647052 126.839147 
L 156.127837 126.328874 
L 156.52849 126.229165 
L 156.849013 126.367269 
L 157.329797 126.880364 
L 158.291366 128.425128 
L 158.932412 129.233372 
L 159.333065 129.401696 
L 159.653588 129.247995 
L 159.974111 128.769712 
L 160.454896 127.590038 
L 161.416464 124.469094 
L 162.297902 121.853585 
L 162.778687 120.957868 
L 163.17934 120.642873 
L 163.499863 120.706192 
L 163.820386 121.047845 
L 164.22104 121.827402 
L 164.862085 123.68309 
L 166.624961 129.267499 
L 167.025615 129.849458 
L 167.346138 129.939814 
L 167.666661 129.766672 
L 168.067314 129.276613 
L 168.868621 127.819564 
L 169.669929 126.465899 
L 170.150713 126.027776 
L 170.551367 125.959202 
L 170.95202 126.148585 
L 171.512935 126.722365 
L 172.554635 127.863872 
L 172.955288 127.995009 
L 173.275811 127.854519 
L 173.596334 127.424028 
L 173.996988 126.402318 
L 174.638034 123.980212 
L 176.881694 114.679542 
L 177.362478 113.694882 
L 177.763132 113.299604 
L 178.083655 113.232019 
L 178.484308 113.389387 
L 179.125354 113.953954 
L 179.846531 114.549147 
L 180.247184 114.626276 
L 180.567707 114.448662 
L 180.88823 113.95125 
L 181.288884 112.757074 
L 181.849799 110.24193 
L 182.731237 105.023337 
L 184.814635 92.303473 
L 186.577511 82.420564 
L 187.298688 76.798526 
L 188.099995 68.52585 
L 190.343655 44.583478 
L 191.144962 38.60546 
L 191.786008 35.410817 
L 192.346923 33.649269 
L 192.907838 32.585312 
L 193.629015 31.75506 
L 194.350191 30.910091 
L 194.830976 29.978202 
L 196.834244 25.403449 
L 197.154767 25.211682 
L 197.395159 25.263485 
L 197.715682 25.629838 
L 198.036205 26.365343 
L 198.436858 27.822441 
L 198.997773 30.813548 
L 199.799081 36.607875 
L 202.523525 57.905288 
L 203.645355 63.296392 
L 204.767185 68.973928 
L 205.648623 74.795275 
L 208.533329 95.444398 
L 209.014114 97.130813 
L 209.494898 98.074228 
L 209.895552 98.450298 
L 210.376336 98.580944 
L 211.818689 98.694935 
L 212.299473 99.128556 
L 212.940519 100.079866 
L 214.062349 101.830389 
L 214.463003 102.113332 
L 214.783526 102.085066 
L 215.104049 101.763519 
L 215.424571 101.079255 
L 215.825225 99.634697 
L 216.38614 96.705984 
L 217.267578 90.735613 
L 219.431108 75.569788 
L 221.835029 60.810465 
L 222.556206 54.185758 
L 222.556206 54.185758 
" clip-path="url(#p4551f3853c)" style="fill: none; stroke-dasharray: 1.4,2.31; stroke-dashoffset: 0; stroke: #ff0000; stroke-width: 1.4"/>
   </g>
   <g id="patch_3">
    <path d="M 37.010549 139.988242 
L 37.010549 12.641765 
" style="fill: none; stroke: #000000; stroke-width: 0.8; stroke-linejoin: miter; stroke-linecap: square"/>
   </g>
   <g id="patch_4">
    <path d="M 222.498334 139.988242 
L 222.498334 12.641765 
" style="fill: none; stroke: #000000; stroke-width: 0.8; stroke-linejoin: miter; stroke-linecap: square"/>
   </g>
   <g id="patch_5">
    <path d="M 37.010549 139.988242 
L 222.498334 139.988242 
" style="fill: none; stroke: #000000; stroke-width: 0.8; stroke-linejoin: miter; stroke-linecap: square"/>
   </g>
   <g id="patch_6">
    <path d="M 37.010549 12.641765 
L 222.498334 12.641765 
" style="fill: none; stroke: #000000; stroke-width: 0.8; stroke-linejoin: miter; stroke-linecap: square"/>
   </g>
   <g id="text_11">
    <!-- Model: $Int\_Brown$ -->
    <g transform="translate(88.486254 6.641765) scale(0.096 -0.096)">
     <defs>
      <path id="CMR17-4d" d="M 1338 4224 
C 1299 4320 1293 4320 1158 4320 
L 339 4320 
L 339 4160 
C 781 4160 851 4160 851 3875 
L 851 610 
C 851 451 851 153 339 153 
L 339 -13 
C 486 0 755 0 915 0 
C 1075 0 1344 0 1491 -13 
L 1491 153 
C 979 153 979 451 979 610 
L 979 4135 
L 986 4135 
L 2490 89 
C 2515 25 2528 -13 2579 -13 
C 2630 -13 2643 25 2669 89 
L 4186 4166 
L 4192 4166 
L 4192 438 
C 4192 153 4122 153 3680 153 
L 3680 -13 
C 3853 0 4198 0 4384 0 
C 4570 0 4922 0 5094 -13 
L 5094 153 
C 4653 153 4582 153 4582 438 
L 4582 3875 
C 4582 4160 4653 4160 5094 4160 
L 5094 4320 
L 4282 4320 
C 4147 4320 4141 4314 4102 4218 
L 2720 502 
L 1338 4224 
z
" transform="scale(0.015625)"/>
      <path id="CMR17-6f" d="M 2758 1356 
C 2758 2176 2163 2816 1466 2816 
C 768 2816 173 2176 173 1356 
C 173 551 768 -64 1466 -64 
C 2163 -64 2758 551 2758 1356 
z
M 1466 51 
C 1165 51 909 230 762 480 
C 602 767 582 1126 582 1408 
C 582 1677 595 2010 762 2298 
C 890 2509 1139 2714 1466 2714 
C 1754 2714 1997 2554 2150 2330 
C 2349 2029 2349 1607 2349 1408 
C 2349 1158 2336 775 2163 467 
C 1984 173 1709 51 1466 51 
z
" transform="scale(0.015625)"/>
      <path id="CMR17-64" d="M 1869 4326 
L 1869 4160 
C 2246 4160 2304 4122 2304 3820 
L 2304 2345 
C 2278 2377 2016 2790 1498 2790 
C 845 2790 211 2208 211 1364 
C 211 525 806 -64 1434 -64 
C 1978 -64 2259 337 2291 380 
L 2291 -63 
L 3066 -63 
L 3066 128 
C 2688 128 2630 166 2630 473 
L 2630 4396 
L 1869 4326 
z
M 2291 755 
C 2291 563 2176 390 2029 262 
C 1811 70 1594 38 1472 38 
C 1286 38 621 134 621 1356 
C 621 2612 1363 2688 1530 2688 
C 1824 2688 2061 2522 2208 2291 
C 2291 2157 2291 2138 2291 2023 
L 2291 755 
z
" transform="scale(0.015625)"/>
      <path id="CMR17-3a" d="M 1062 2491 
C 1062 2650 934 2752 800 2752 
C 672 2752 538 2650 538 2491 
C 538 2332 666 2230 800 2230 
C 928 2230 1062 2332 1062 2491 
z
M 1062 261 
C 1062 420 934 522 800 522 
C 672 522 538 420 538 261 
C 538 102 666 0 800 0 
C 928 0 1062 102 1062 261 
z
" transform="scale(0.015625)"/>
      <path id="CMMI12-49" d="M 2355 3880 
C 2413 4103 2426 4167 2893 4167 
C 3034 4167 3085 4167 3085 4288 
C 3085 4352 3014 4352 2995 4352 
C 2880 4352 2739 4352 2624 4352 
L 1837 4352 
C 1709 4352 1562 4352 1434 4352 
C 1382 4352 1312 4352 1312 4231 
C 1312 4167 1363 4167 1491 4167 
C 1888 4167 1888 4116 1888 4046 
C 1888 4002 1875 3963 1862 3906 
L 998 472 
C 941 249 928 185 461 185 
C 320 185 262 185 262 64 
C 262 0 326 0 358 0 
C 474 0 614 0 730 0 
L 1517 0 
C 1645 0 1786 0 1914 0 
C 1965 0 2042 0 2042 115 
C 2042 185 2003 185 1862 185 
C 1466 185 1466 236 1466 312 
C 1466 325 1466 357 1491 459 
L 2355 3880 
z
" transform="scale(0.015625)"/>
      <path id="CMMI12-6e" d="M 1318 1871 
C 1331 1910 1491 2229 1728 2433 
C 1894 2586 2112 2689 2362 2689 
C 2618 2689 2707 2497 2707 2242 
C 2707 1878 2445 1150 2317 805 
C 2259 651 2227 568 2227 453 
C 2227 166 2426 -64 2733 -64 
C 3328 -64 3552 875 3552 913 
C 3552 945 3526 971 3488 971 
C 3430 971 3424 952 3392 843 
C 3245 319 3002 64 2752 64 
C 2688 64 2586 64 2586 269 
C 2586 429 2656 621 2694 710 
C 2822 1063 3091 1780 3091 2145 
C 3091 2528 2867 2816 2381 2816 
C 1811 2816 1510 2415 1395 2255 
C 1376 2618 1114 2816 832 2816 
C 627 2816 486 2695 378 2478 
C 262 2248 173 1865 173 1839 
C 173 1814 198 1782 243 1782 
C 294 1782 301 1788 339 1935 
C 442 2325 557 2689 813 2689 
C 960 2689 1011 2586 1011 2395 
C 1011 2254 947 2005 902 1807 
L 723 1118 
C 698 996 627 709 595 594 
C 550 428 480 128 480 96 
C 480 6 550 -64 646 -64 
C 723 -64 813 -26 864 70 
C 877 102 934 326 966 453 
L 1107 1028 
L 1318 1871 
z
" transform="scale(0.015625)"/>
      <path id="CMMI12-42" d="M 2342 3921 
C 2400 4160 2426 4160 2675 4160 
L 3507 4160 
C 4230 4160 4230 3544 4230 3485 
C 4230 2966 3712 2304 2867 2304 
L 1946 2304 
L 2342 3921 
z
M 3424 2275 
C 4122 2402 4755 2886 4755 3473 
C 4755 3970 4314 4352 3590 4352 
L 1536 4352 
C 1414 4352 1357 4352 1357 4226 
C 1357 4160 1414 4160 1510 4160 
C 1901 4160 1901 4112 1901 4044 
C 1901 4032 1901 3993 1875 3897 
L 1011 472 
C 954 249 941 185 493 185 
C 371 185 307 185 307 70 
C 307 0 346 0 474 0 
L 2669 0 
C 3648 0 4403 739 4403 1383 
C 4403 1906 3942 2224 3424 2275 
z
M 2515 185 
L 1651 185 
C 1562 185 1549 185 1510 192 
C 1440 198 1434 211 1434 261 
C 1434 305 1446 343 1459 399 
L 1907 2176 
L 3110 2176 
C 3866 2176 3866 1483 3866 1433 
C 3866 828 3309 185 2515 185 
z
" transform="scale(0.015625)"/>
      <path id="CMMI12-72" d="M 2490 2612 
C 2291 2574 2189 2433 2189 2293 
C 2189 2139 2310 2088 2400 2088 
C 2579 2088 2726 2242 2726 2433 
C 2726 2638 2528 2816 2208 2816 
C 1952 2816 1658 2701 1389 2312 
C 1344 2650 1088 2816 832 2816 
C 582 2816 454 2625 378 2484 
C 269 2254 173 1871 173 1839 
C 173 1814 198 1782 243 1782 
C 294 1782 301 1788 339 1935 
C 435 2318 557 2689 813 2689 
C 966 2689 1011 2580 1011 2395 
C 1011 2254 947 2005 902 1807 
L 723 1118 
C 698 996 627 709 595 594 
C 550 428 480 128 480 96 
C 480 6 550 -64 646 -64 
C 717 -64 838 -19 877 109 
C 896 160 1133 1124 1171 1271 
C 1203 1411 1242 1546 1274 1686 
C 1299 1775 1325 1878 1344 1961 
C 1363 2018 1536 2331 1696 2472 
C 1773 2542 1939 2689 2202 2689 
C 2304 2689 2406 2670 2490 2612 
z
" transform="scale(0.015625)"/>
      <path id="CMMI12-6f" d="M 2918 1756 
C 2918 2363 2522 2816 1939 2816 
C 1094 2816 262 1897 262 996 
C 262 390 659 -64 1242 -64 
C 2093 -64 2918 856 2918 1756 
z
M 1248 64 
C 928 64 691 319 691 766 
C 691 1060 845 1712 1024 2031 
C 1312 2523 1670 2689 1933 2689 
C 2246 2689 2490 2433 2490 1986 
C 2490 1731 2355 1047 2112 658 
C 1850 230 1498 64 1248 64 
z
" transform="scale(0.015625)"/>
      <path id="CMMI12-77" d="M 2202 390 
C 2342 6 2739 -64 2982 -64 
C 3469 -64 3757 358 3936 798 
C 4083 1169 4320 2012 4320 2389 
C 4320 2778 4122 2816 4064 2816 
C 3910 2816 3770 2663 3770 2535 
C 3770 2459 3814 2414 3846 2389 
C 3904 2331 4070 2159 4070 1827 
C 4070 1609 3891 1009 3757 709 
C 3578 319 3341 64 3008 64 
C 2650 64 2534 332 2534 626 
C 2534 811 2592 1035 2618 1143 
L 2886 2216 
C 2918 2344 2976 2567 2976 2593 
C 2976 2689 2899 2753 2803 2753 
C 2618 2753 2573 2593 2534 2440 
C 2470 2191 2202 1111 2176 971 
C 2150 862 2150 792 2150 651 
C 2150 498 1946 255 1939 243 
C 1869 172 1766 64 1568 64 
C 1062 64 1062 543 1062 651 
C 1062 856 1107 1137 1395 1897 
C 1472 2095 1504 2178 1504 2305 
C 1504 2574 1312 2816 998 2816 
C 410 2816 173 1890 173 1839 
C 173 1814 198 1782 243 1782 
C 301 1782 307 1807 333 1896 
C 493 2454 742 2682 979 2682 
C 1043 2682 1146 2682 1146 2478 
C 1146 2446 1146 2312 1037 2031 
C 736 1233 672 971 672 728 
C 672 57 1222 -64 1549 -64 
C 1658 -64 1946 -64 2202 390 
z
" transform="scale(0.015625)"/>
     </defs>
     <use xlink:href="#CMR17-4d" transform="scale(0.996264)"/>
     <use xlink:href="#CMR17-6f" transform="translate(84.686941 0) scale(0.996264)"/>
     <use xlink:href="#CMR17-64" transform="translate(132.979856 0) scale(0.996264)"/>
     <use xlink:href="#CMR17-65" transform="translate(183.875226 0) scale(0.996264)"/>
     <use xlink:href="#CMR17-6c" transform="translate(224.360887 0) scale(0.996264)"/>
     <use xlink:href="#CMR17-3a" transform="translate(249.231945 0) scale(0.996264)"/>
     <use xlink:href="#CMMI12-49" transform="translate(314.588664 0) scale(0.996264)"/>
     <use xlink:href="#CMMI12-6e" transform="translate(365.445178 0) scale(0.996264)"/>
     <use xlink:href="#CMMI12-74" transform="translate(423.675225 0) scale(0.996264)"/>
     <use xlink:href="#CMMI12-42" transform="translate(491.798775 0) scale(0.996264)"/>
     <use xlink:href="#CMMI12-72" transform="translate(570.934299 0) scale(0.996264)"/>
     <use xlink:href="#CMMI12-6f" transform="translate(617.604911 0) scale(0.996264)"/>
     <use xlink:href="#CMMI12-77" transform="translate(664.50022 0) scale(0.996264)"/>
     <use xlink:href="#CMMI12-6e" transform="translate(736.913135 0) scale(0.996264)"/>
     <path d="M 464.384185 0 
L 491.798775 0 
L 491.798775 0.3985 
L 464.384185 0.3985 
L 464.384185 0 
z
"/>
    </g>
   </g>
   <g id="legend_1">
    <g id="patch_7">
     <path d="M 94.709873 42.528704 
L 164.79901 42.528704 
Q 165.99901 42.528704 165.99901 41.328704 
L 165.99901 16.841765 
Q 165.99901 15.641765 164.79901 15.641765 
L 94.709873 15.641765 
Q 93.509873 15.641765 93.509873 16.841765 
L 93.509873 41.328704 
Q 93.509873 42.528704 94.709873 42.528704 
z
" style="fill: #ffffff; opacity: 0.8; stroke: #cccccc; stroke-width: 0.24; stroke-linejoin: miter"/>
    </g>
    <g id="PathCollection_2">
     <g>
      <use xlink:href="#ma9792099e0" x="101.909873" y="20.666765" style="fill: #0000ff; stroke: #0000ff; stroke-width: 0.75"/>
     </g>
    </g>
    <g id="text_12">
     <!-- Measurements -->
     <g transform="translate(112.709873 22.241765) scale(0.06 -0.06)">
      <defs>
       <path id="CMR17-73" d="M 1978 2697 
C 1978 2813 1971 2819 1933 2819 
C 1907 2819 1901 2813 1824 2717 
C 1805 2691 1747 2626 1728 2601 
C 1523 2819 1235 2819 1126 2819 
C 416 2819 160 2447 160 2076 
C 160 1498 813 1365 998 1325 
C 1402 1243 1542 1217 1677 1101 
C 1760 1025 1901 884 1901 654 
C 1901 384 1747 38 1158 38 
C 602 38 403 460 288 1021 
C 269 1110 269 1117 218 1117 
C 166 1117 160 1110 160 983 
L 160 63 
C 160 -51 166 -58 205 -58 
C 237 -58 243 -51 275 0 
C 314 57 410 211 448 276 
C 576 103 800 -64 1158 -64 
C 1792 -64 2131 283 2131 784 
C 2131 1112 1958 1285 1875 1362 
C 1683 1561 1459 1606 1190 1657 
C 838 1735 390 1825 390 2217 
C 390 2383 480 2737 1126 2737 
C 1811 2737 1850 2094 1862 1888 
C 1869 1856 1901 1849 1920 1849 
C 1978 1849 1978 1869 1978 1978 
L 1978 2697 
z
" transform="scale(0.015625)"/>
       <path id="CMR17-75" d="M 1882 2693 
L 1882 2528 
C 2259 2528 2317 2489 2317 2186 
L 2317 1032 
C 2317 500 2029 38 1555 38 
C 1030 38 986 348 986 678 
L 986 2763 
L 211 2693 
L 211 2528 
C 467 2528 640 2528 646 2274 
L 646 1058 
C 646 633 646 361 813 183 
C 896 101 1056 -64 1517 -64 
C 2061 -64 2272 377 2323 506 
L 2330 506 
L 2330 -63 
L 3091 -63 
L 3091 128 
C 2714 128 2656 166 2656 473 
L 2656 2763 
L 1882 2693 
z
" transform="scale(0.015625)"/>
       <path id="CMR17-6e" d="M 2656 1933 
C 2656 2259 2592 2790 1837 2790 
C 1331 2790 1069 2400 973 2144 
L 966 2144 
L 966 2790 
L 211 2720 
L 211 2554 
C 589 2554 646 2515 646 2208 
L 646 428 
C 646 184 621 153 211 153 
L 211 -13 
C 365 0 646 0 813 0 
C 979 0 1267 0 1421 -13 
L 1421 153 
C 1011 153 986 178 986 428 
L 986 1658 
C 986 2247 1344 2688 1792 2688 
C 2266 2688 2317 2266 2317 1958 
L 2317 428 
C 2317 184 2291 153 1882 153 
L 1882 -13 
C 2035 0 2317 0 2483 0 
C 2650 0 2938 0 3091 -13 
L 3091 153 
C 2682 153 2656 178 2656 428 
L 2656 1933 
z
" transform="scale(0.015625)"/>
      </defs>
      <use xlink:href="#CMR17-4d" transform="scale(0.996264)"/>
      <use xlink:href="#CMR17-65" transform="translate(84.686941 0) scale(0.996264)"/>
      <use xlink:href="#CMR17-61" transform="translate(125.172601 0) scale(0.996264)"/>
      <use xlink:href="#CMR17-73" transform="translate(170.863078 0) scale(0.996264)"/>
      <use xlink:href="#CMR17-75" transform="translate(206.664416 0) scale(0.996264)"/>
      <use xlink:href="#CMR17-72" transform="translate(257.559786 0) scale(0.996264)"/>
      <use xlink:href="#CMR17-65" transform="translate(292.840553 0) scale(0.996264)"/>
      <use xlink:href="#CMR17-6d" transform="translate(333.326214 0) scale(0.996264)"/>
      <use xlink:href="#CMR17-65" transform="translate(410.245804 0) scale(0.996264)"/>
      <use xlink:href="#CMR17-6e" transform="translate(450.731464 0) scale(0.996264)"/>
      <use xlink:href="#CMR17-74" transform="translate(499.02438 0) scale(0.996264)"/>
      <use xlink:href="#CMR17-73" transform="translate(534.305148 0) scale(0.996264)"/>
     </g>
    </g>
    <g id="line2d_12">
     <path d="M 95.909873 28.504078 
L 101.909873 28.504078 
L 107.909873 28.504078 
" style="fill: none; stroke: #ff0000; stroke-width: 1.4; stroke-linecap: square"/>
    </g>
    <g id="text_13">
     <!-- Estimation $y_{est}$ -->
     <g transform="translate(112.709873 30.604078) scale(0.06 -0.06)">
      <defs>
       <path id="CMR17-45" d="M 3885 1615 
L 3770 1615 
C 3629 676 3546 166 2419 166 
L 1530 166 
C 1274 166 1261 197 1261 414 
L 1261 2176 
L 1862 2176 
C 2464 2176 2522 1960 2522 1430 
L 2637 1430 
L 2637 3081 
L 2522 3081 
C 2522 2557 2464 2342 1862 2342 
L 1261 2342 
L 1261 3913 
C 1261 4128 1274 4160 1530 4160 
L 2406 4160 
C 3398 4160 3514 3769 3603 2929 
L 3718 2929 
L 3565 4325 
L 326 4325 
L 326 4160 
C 768 4160 838 4160 838 3874 
L 838 451 
C 838 166 768 166 326 166 
L 326 0 
L 3654 0 
L 3885 1615 
z
" transform="scale(0.015625)"/>
       <path id="CMMI12-65" d="M 1146 1479 
C 1318 1479 1754 1479 2061 1595 
C 2547 1783 2592 2158 2592 2274 
C 2592 2558 2349 2816 1926 2816 
C 1254 2816 288 2210 288 1073 
C 288 402 672 -64 1254 -64 
C 2125 -64 2675 609 2675 692 
C 2675 730 2637 762 2611 762 
C 2592 762 2586 756 2528 699 
C 2118 159 1510 64 1267 64 
C 902 64 710 350 710 822 
C 710 911 710 1071 806 1479 
L 1146 1479 
z
M 838 1600 
C 1114 2592 1722 2689 1926 2689 
C 2208 2689 2400 2522 2400 2277 
C 2400 1600 1376 1600 1107 1600 
L 838 1600 
z
" transform="scale(0.015625)"/>
       <path id="CMMI12-73" d="M 1459 1280 
C 1568 1261 1741 1223 1779 1216 
C 1862 1192 2150 1090 2150 783 
C 2150 586 1971 70 1229 70 
C 1094 70 614 70 486 436 
C 742 404 870 603 870 745 
C 870 880 781 950 653 950 
C 512 950 326 841 326 552 
C 326 173 710 -64 1222 -64 
C 2195 -64 2483 651 2483 984 
C 2483 1079 2483 1258 2278 1462 
C 2118 1616 1965 1648 1619 1718 
C 1446 1756 1171 1814 1171 2101 
C 1171 2229 1286 2689 1894 2689 
C 2163 2689 2426 2589 2490 2368 
C 2208 2368 2195 2125 2195 2119 
C 2195 1984 2317 1946 2374 1946 
C 2464 1946 2643 2015 2643 2281 
C 2643 2545 2400 2816 1901 2816 
C 1062 2816 838 2160 838 1899 
C 838 1414 1312 1312 1459 1280 
z
" transform="scale(0.015625)"/>
      </defs>
      <use xlink:href="#CMR17-45" transform="scale(0.996264)"/>
      <use xlink:href="#CMR17-73" transform="translate(62.586301 0) scale(0.996264)"/>
      <use xlink:href="#CMR17-74" transform="translate(98.387638 0) scale(0.996264)"/>
      <use xlink:href="#CMR17-69" transform="translate(133.668406 0) scale(0.996264)"/>
      <use xlink:href="#CMR17-6d" transform="translate(158.539464 0) scale(0.996264)"/>
      <use xlink:href="#CMR17-61" transform="translate(235.459054 0) scale(0.996264)"/>
      <use xlink:href="#CMR17-74" transform="translate(281.149531 0) scale(0.996264)"/>
      <use xlink:href="#CMR17-69" transform="translate(316.430299 0) scale(0.996264)"/>
      <use xlink:href="#CMR17-6f" transform="translate(341.301358 0) scale(0.996264)"/>
      <use xlink:href="#CMR17-6e" transform="translate(386.991835 0) scale(0.996264)"/>
      <use xlink:href="#CMMI12-79" transform="translate(467.963171 0) scale(0.996264)"/>
      <use xlink:href="#CMMI12-65" transform="translate(515.527359 -14.943915) scale(0.697382)"/>
      <use xlink:href="#CMMI12-73" transform="translate(547.175615 -14.943915) scale(0.697382)"/>
      <use xlink:href="#CMMI12-74" transform="translate(579.340504 -14.943915) scale(0.697382)"/>
     </g>
    </g>
    <g id="line2d_13">
     <path d="M 95.909873 36.866391 
L 101.909873 36.866391 
L 107.909873 36.866391 
" style="fill: none; stroke-dasharray: 1.4,2.31; stroke-dashoffset: 0; stroke: #ff0000; stroke-width: 1.4"/>
    </g>
    <g id="text_14">
     <!-- $std_{est}$ -->
     <g transform="translate(112.709873 38.966391) scale(0.06 -0.06)">
      <defs>
       <path id="CMMI12-64" d="M 3219 4257 
C 3226 4282 3238 4320 3238 4352 
C 3238 4416 3174 4416 3162 4416 
C 3155 4416 2842 4388 2810 4380 
C 2701 4373 2605 4358 2490 4358 
C 2330 4345 2285 4339 2285 4224 
C 2285 4160 2336 4160 2426 4160 
C 2739 4160 2746 4103 2746 4040 
C 2746 4002 2733 3952 2726 3933 
L 2336 2395 
C 2266 2561 2093 2816 1760 2816 
C 1037 2816 256 1884 256 939 
C 256 307 627 -64 1062 -64 
C 1414 -64 1715 211 1894 422 
C 1958 45 2259 -64 2451 -64 
C 2643 -64 2797 51 2912 281 
C 3014 498 3104 888 3104 913 
C 3104 945 3078 971 3040 971 
C 2982 971 2976 939 2950 843 
C 2854 466 2733 64 2470 64 
C 2285 64 2272 229 2272 357 
C 2272 382 2272 515 2317 694 
L 3219 4257 
z
M 1926 760 
C 1894 651 1894 639 1805 517 
C 1664 338 1382 64 1082 64 
C 819 64 672 300 672 677 
C 672 1028 870 1743 992 2012 
C 1210 2459 1510 2689 1760 2689 
C 2182 2689 2266 2165 2266 2114 
C 2266 2108 2246 2024 2240 2012 
L 1926 760 
z
" transform="scale(0.015625)"/>
      </defs>
      <use xlink:href="#CMMI12-73" transform="scale(0.996264)"/>
      <use xlink:href="#CMMI12-74" transform="translate(45.950048 0) scale(0.996264)"/>
      <use xlink:href="#CMMI12-64" transform="translate(81.176378 0) scale(0.996264)"/>
      <use xlink:href="#CMMI12-65" transform="translate(131.865475 -14.943915) scale(0.697382)"/>
      <use xlink:href="#CMMI12-73" transform="translate(163.513731 -14.943915) scale(0.697382)"/>
      <use xlink:href="#CMMI12-74" transform="translate(195.67862 -14.943915) scale(0.697382)"/>
     </g>
    </g>
   </g>
  </g>
 </g>
 <defs>
  <clipPath id="p4551f3853c">
   <rect x="37.010549" y="12.641765" width="185.487785" height="127.346477"/>
  </clipPath>
 </defs>
</svg>
