<?xml version="1.0" encoding="utf-8" standalone="no"?>
<!DOCTYPE svg PUBLIC "-//W3C//DTD SVG 1.1//EN"
  "http://www.w3.org/Graphics/SVG/1.1/DTD/svg11.dtd">
<svg xmlns:xlink="http://www.w3.org/1999/xlink" width="228.849608pt" height="169.028466pt" viewBox="0 0 228.849608 169.028466" xmlns="http://www.w3.org/2000/svg" version="1.1">
 <metadata>
  <rdf:RDF xmlns:dc="http://purl.org/dc/elements/1.1/" xmlns:cc="http://creativecommons.org/ns#" xmlns:rdf="http://www.w3.org/1999/02/22-rdf-syntax-ns#">
   <cc:Work>
    <dc:type rdf:resource="http://purl.org/dc/dcmitype/StillImage"/>
    <dc:date>2023-10-27T18:15:53.252096</dc:date>
    <dc:format>image/svg+xml</dc:format>
    <dc:creator>
     <cc:Agent>
      <dc:title>Matplotlib v3.7.3, https://matplotlib.org/</dc:title>
     </cc:Agent>
    </dc:creator>
   </cc:Work>
  </rdf:RDF>
 </metadata>
 <defs>
  <style type="text/css">*{stroke-linejoin: round; stroke-linecap: butt}</style>
 </defs>
 <g id="figure_1">
  <g id="patch_1">
   <path d="M 0 169.028466 
L 228.849608 169.028466 
L 228.849608 0 
L 0 0 
L 0 169.028466 
z
" style="fill: none"/>
  </g>
  <g id="axes_1">
   <g id="patch_2">
    <path d="M 37.010549 139.988242 
L 222.498334 139.988242 
L 222.498334 12.641765 
L 37.010549 12.641765 
L 37.010549 139.988242 
z
" style="fill: none"/>
   </g>
   <g id="PathCollection_1">
    <defs>
     <path id="m4f9ecedc54" d="M -2.8 2.8 
L 2.8 -2.8 
M -2.8 -2.8 
L 2.8 2.8 
" style="stroke: #0000ff; stroke-width: 0.75"/>
    </defs>
    <g clip-path="url(#pe48551a4d9)">
     <use xlink:href="#m4f9ecedc54" x="-1" y="59.675125" style="fill: #0000ff; stroke: #0000ff; stroke-width: 0.75"/>
     <use xlink:href="#m4f9ecedc54" x="4.550187" y="69.475645" style="fill: #0000ff; stroke: #0000ff; stroke-width: 0.75"/>
     <use xlink:href="#m4f9ecedc54" x="32.373354" y="45.115751" style="fill: #0000ff; stroke: #0000ff; stroke-width: 0.75"/>
     <use xlink:href="#m4f9ecedc54" x="60.196522" y="98.553247" style="fill: #0000ff; stroke: #0000ff; stroke-width: 0.75"/>
     <use xlink:href="#m4f9ecedc54" x="88.01969" y="89.973228" style="fill: #0000ff; stroke: #0000ff; stroke-width: 0.75"/>
     <use xlink:href="#m4f9ecedc54" x="115.842858" y="36.951659" style="fill: #0000ff; stroke: #0000ff; stroke-width: 0.75"/>
     <use xlink:href="#m4f9ecedc54" x="143.666025" y="103.663941" style="fill: #0000ff; stroke: #0000ff; stroke-width: 0.75"/>
     <use xlink:href="#m4f9ecedc54" x="171.489193" y="80.114361" style="fill: #0000ff; stroke: #0000ff; stroke-width: 0.75"/>
     <use xlink:href="#m4f9ecedc54" x="199.312361" y="72.527332" style="fill: #0000ff; stroke: #0000ff; stroke-width: 0.75"/>
     <use xlink:href="#m4f9ecedc54" x="227.135528" y="28.91717" style="fill: #0000ff; stroke: #0000ff; stroke-width: 0.75"/>
     <use xlink:href="#m4f9ecedc54" x="254.958696" y="52.673229" style="fill: #0000ff; stroke: #0000ff; stroke-width: 0.75"/>
     <use xlink:href="#m4f9ecedc54" x="282.781864" y="106.832961" style="fill: #0000ff; stroke: #0000ff; stroke-width: 0.75"/>
     <use xlink:href="#m4f9ecedc54" x="310.605031" y="104.283174" style="fill: #0000ff; stroke: #0000ff; stroke-width: 0.75"/>
     <use xlink:href="#m4f9ecedc54" x="338.428199" y="110.946079" style="fill: #0000ff; stroke: #0000ff; stroke-width: 0.75"/>
     <use xlink:href="#m4f9ecedc54" x="366.251367" y="109.383365" style="fill: #0000ff; stroke: #0000ff; stroke-width: 0.75"/>
     <use xlink:href="#m4f9ecedc54" x="394.074534" y="107.406892" style="fill: #0000ff; stroke: #0000ff; stroke-width: 0.75"/>
     <use xlink:href="#m4f9ecedc54" x="421.897702" y="110.059572" style="fill: #0000ff; stroke: #0000ff; stroke-width: 0.75"/>
     <use xlink:href="#m4f9ecedc54" x="449.72087" y="106.139555" style="fill: #0000ff; stroke: #0000ff; stroke-width: 0.75"/>
     <use xlink:href="#m4f9ecedc54" x="477.544037" y="109.391123" style="fill: #0000ff; stroke: #0000ff; stroke-width: 0.75"/>
     <use xlink:href="#m4f9ecedc54" x="505.367205" y="98.832525" style="fill: #0000ff; stroke: #0000ff; stroke-width: 0.75"/>
     <use xlink:href="#m4f9ecedc54" x="533.190373" y="77.881619" style="fill: #0000ff; stroke: #0000ff; stroke-width: 0.75"/>
     <use xlink:href="#m4f9ecedc54" x="561.01354" y="25.802366" style="fill: #0000ff; stroke: #0000ff; stroke-width: 0.75"/>
     <use xlink:href="#m4f9ecedc54" x="588.836708" y="13.941617" style="fill: #0000ff; stroke: #0000ff; stroke-width: 0.75"/>
     <use xlink:href="#m4f9ecedc54" x="616.659876" y="54.137071" style="fill: #0000ff; stroke: #0000ff; stroke-width: 0.75"/>
     <use xlink:href="#m4f9ecedc54" x="644.483044" y="81.210341" style="fill: #0000ff; stroke: #0000ff; stroke-width: 0.75"/>
     <use xlink:href="#m4f9ecedc54" x="672.306211" y="61.126264" style="fill: #0000ff; stroke: #0000ff; stroke-width: 0.75"/>
     <use xlink:href="#m4f9ecedc54" x="700.129379" y="28.541974" style="fill: #0000ff; stroke: #0000ff; stroke-width: 0.75"/>
     <use xlink:href="#m4f9ecedc54" x="727.952547" y="89.465282" style="fill: #0000ff; stroke: #0000ff; stroke-width: 0.75"/>
     <use xlink:href="#m4f9ecedc54" x="755.775714" y="111.296845" style="fill: #0000ff; stroke: #0000ff; stroke-width: 0.75"/>
     <use xlink:href="#m4f9ecedc54" x="783.598882" y="99.814334" style="fill: #0000ff; stroke: #0000ff; stroke-width: 0.75"/>
     <use xlink:href="#m4f9ecedc54" x="811.42205" y="97.401994" style="fill: #0000ff; stroke: #0000ff; stroke-width: 0.75"/>
     <use xlink:href="#m4f9ecedc54" x="839.245217" y="98.074089" style="fill: #0000ff; stroke: #0000ff; stroke-width: 0.75"/>
     <use xlink:href="#m4f9ecedc54" x="867.068385" y="94.608685" style="fill: #0000ff; stroke: #0000ff; stroke-width: 0.75"/>
     <use xlink:href="#m4f9ecedc54" x="894.891553" y="97.024412" style="fill: #0000ff; stroke: #0000ff; stroke-width: 0.75"/>
     <use xlink:href="#m4f9ecedc54" x="922.71472" y="94.019207" style="fill: #0000ff; stroke: #0000ff; stroke-width: 0.75"/>
     <use xlink:href="#m4f9ecedc54" x="950.537888" y="97.993313" style="fill: #0000ff; stroke: #0000ff; stroke-width: 0.75"/>
     <use xlink:href="#m4f9ecedc54" x="978.361056" y="107.279991" style="fill: #0000ff; stroke: #0000ff; stroke-width: 0.75"/>
     <use xlink:href="#m4f9ecedc54" x="1006.184223" y="98.416865" style="fill: #0000ff; stroke: #0000ff; stroke-width: 0.75"/>
     <use xlink:href="#m4f9ecedc54" x="1034.007391" y="101.569261" style="fill: #0000ff; stroke: #0000ff; stroke-width: 0.75"/>
     <use xlink:href="#m4f9ecedc54" x="1061.830559" y="99.298402" style="fill: #0000ff; stroke: #0000ff; stroke-width: 0.75"/>
     <use xlink:href="#m4f9ecedc54" x="1089.653727" y="102.967442" style="fill: #0000ff; stroke: #0000ff; stroke-width: 0.75"/>
     <use xlink:href="#m4f9ecedc54" x="1117.476894" y="109.070455" style="fill: #0000ff; stroke: #0000ff; stroke-width: 0.75"/>
     <use xlink:href="#m4f9ecedc54" x="1145.300062" y="99.244858" style="fill: #0000ff; stroke: #0000ff; stroke-width: 0.75"/>
     <use xlink:href="#m4f9ecedc54" x="1173.12323" y="96.963599" style="fill: #0000ff; stroke: #0000ff; stroke-width: 0.75"/>
     <use xlink:href="#m4f9ecedc54" x="1200.946397" y="93.714278" style="fill: #0000ff; stroke: #0000ff; stroke-width: 0.75"/>
     <use xlink:href="#m4f9ecedc54" x="1228.769565" y="98.137335" style="fill: #0000ff; stroke: #0000ff; stroke-width: 0.75"/>
     <use xlink:href="#m4f9ecedc54" x="1256.592733" y="95.713222" style="fill: #0000ff; stroke: #0000ff; stroke-width: 0.75"/>
     <use xlink:href="#m4f9ecedc54" x="1284.4159" y="94.547712" style="fill: #0000ff; stroke: #0000ff; stroke-width: 0.75"/>
     <use xlink:href="#m4f9ecedc54" x="1312.239068" y="53.735097" style="fill: #0000ff; stroke: #0000ff; stroke-width: 0.75"/>
     <use xlink:href="#m4f9ecedc54" x="1340.062236" y="81.271932" style="fill: #0000ff; stroke: #0000ff; stroke-width: 0.75"/>
     <use xlink:href="#m4f9ecedc54" x="1367.885403" y="69.327263" style="fill: #0000ff; stroke: #0000ff; stroke-width: 0.75"/>
     <use xlink:href="#m4f9ecedc54" x="1395.708571" y="61.498579" style="fill: #0000ff; stroke: #0000ff; stroke-width: 0.75"/>
     <use xlink:href="#m4f9ecedc54" x="1423.531739" y="65.152271" style="fill: #0000ff; stroke: #0000ff; stroke-width: 0.75"/>
     <use xlink:href="#m4f9ecedc54" x="1451.354906" y="81.986799" style="fill: #0000ff; stroke: #0000ff; stroke-width: 0.75"/>
     <use xlink:href="#m4f9ecedc54" x="1479.178074" y="81.609544" style="fill: #0000ff; stroke: #0000ff; stroke-width: 0.75"/>
     <use xlink:href="#m4f9ecedc54" x="1507.001242" y="70.785894" style="fill: #0000ff; stroke: #0000ff; stroke-width: 0.75"/>
     <use xlink:href="#m4f9ecedc54" x="1534.82441" y="60.690429" style="fill: #0000ff; stroke: #0000ff; stroke-width: 0.75"/>
     <use xlink:href="#m4f9ecedc54" x="1562.647577" y="82.21721" style="fill: #0000ff; stroke: #0000ff; stroke-width: 0.75"/>
     <use xlink:href="#m4f9ecedc54" x="1590.470745" y="85.056419" style="fill: #0000ff; stroke: #0000ff; stroke-width: 0.75"/>
     <use xlink:href="#m4f9ecedc54" x="1618.293913" y="88.074179" style="fill: #0000ff; stroke: #0000ff; stroke-width: 0.75"/>
     <use xlink:href="#m4f9ecedc54" x="1646.11708" y="89.831767" style="fill: #0000ff; stroke: #0000ff; stroke-width: 0.75"/>
     <use xlink:href="#m4f9ecedc54" x="1673.940248" y="90.382841" style="fill: #0000ff; stroke: #0000ff; stroke-width: 0.75"/>
     <use xlink:href="#m4f9ecedc54" x="1701.763416" y="92.577913" style="fill: #0000ff; stroke: #0000ff; stroke-width: 0.75"/>
     <use xlink:href="#m4f9ecedc54" x="1729.586583" y="91.551595" style="fill: #0000ff; stroke: #0000ff; stroke-width: 0.75"/>
     <use xlink:href="#m4f9ecedc54" x="1757.409751" y="93.890084" style="fill: #0000ff; stroke: #0000ff; stroke-width: 0.75"/>
     <use xlink:href="#m4f9ecedc54" x="1785.232919" y="93.188317" style="fill: #0000ff; stroke: #0000ff; stroke-width: 0.75"/>
     <use xlink:href="#m4f9ecedc54" x="1813.056086" y="100.795421" style="fill: #0000ff; stroke: #0000ff; stroke-width: 0.75"/>
     <use xlink:href="#m4f9ecedc54" x="1840.879254" y="105.012369" style="fill: #0000ff; stroke: #0000ff; stroke-width: 0.75"/>
     <use xlink:href="#m4f9ecedc54" x="1868.702422" y="105.22973" style="fill: #0000ff; stroke: #0000ff; stroke-width: 0.75"/>
     <use xlink:href="#m4f9ecedc54" x="1896.525589" y="111.133507" style="fill: #0000ff; stroke: #0000ff; stroke-width: 0.75"/>
     <use xlink:href="#m4f9ecedc54" x="1924.348757" y="111.108162" style="fill: #0000ff; stroke: #0000ff; stroke-width: 0.75"/>
     <use xlink:href="#m4f9ecedc54" x="1952.171925" y="108.617385" style="fill: #0000ff; stroke: #0000ff; stroke-width: 0.75"/>
    </g>
   </g>
   <g id="matplotlib.axis_1">
    <g id="xtick_1">
     <g id="line2d_1">
      <defs>
       <path id="m2faf5d642f" d="M 0 0 
L 0 3.5 
" style="stroke: #000000; stroke-width: 0.8"/>
      </defs>
      <g>
       <use xlink:href="#m2faf5d642f" x="37.010549" y="139.988242" style="stroke: #000000; stroke-width: 0.8"/>
      </g>
     </g>
     <g id="text_1">
      <!-- $\mathdefault{400}$ -->
      <g transform="translate(30.659275 154.623044) scale(0.08 -0.08)">
       <defs>
        <path id="CMR17-34" d="M 2150 4122 
C 2150 4256 2144 4256 2029 4256 
L 128 1254 
L 128 1088 
L 1779 1088 
L 1779 457 
C 1779 224 1766 160 1318 160 
L 1197 160 
L 1197 0 
C 1402 0 1747 0 1965 0 
C 2182 0 2528 0 2733 0 
L 2733 160 
L 2611 160 
C 2163 160 2150 224 2150 457 
L 2150 1088 
L 2803 1088 
L 2803 1254 
L 2150 1254 
L 2150 4122 
z
M 1798 3703 
L 1798 1254 
L 256 1254 
L 1798 3703 
z
" transform="scale(0.015625)"/>
        <path id="CMR17-30" d="M 2688 2025 
C 2688 2416 2682 3080 2413 3591 
C 2176 4039 1798 4198 1466 4198 
C 1158 4198 768 4058 525 3597 
C 269 3118 243 2524 243 2025 
C 243 1661 250 1106 448 619 
C 723 -39 1216 -128 1466 -128 
C 1760 -128 2208 -7 2470 600 
C 2662 1042 2688 1559 2688 2025 
z
M 1466 -26 
C 1056 -26 813 325 723 812 
C 653 1188 653 1738 653 2096 
C 653 2588 653 2997 736 3387 
C 858 3929 1216 4096 1466 4096 
C 1728 4096 2067 3923 2189 3400 
C 2272 3036 2278 2607 2278 2096 
C 2278 1680 2278 1169 2202 792 
C 2067 95 1690 -26 1466 -26 
z
" transform="scale(0.015625)"/>
       </defs>
       <use xlink:href="#CMR17-34" transform="scale(0.996264)"/>
       <use xlink:href="#CMR17-30" transform="translate(45.690477 0) scale(0.996264)"/>
       <use xlink:href="#CMR17-30" transform="translate(91.380954 0) scale(0.996264)"/>
      </g>
     </g>
    </g>
    <g id="xtick_2">
     <g id="line2d_2">
      <g>
       <use xlink:href="#m2faf5d642f" x="74.108106" y="139.988242" style="stroke: #000000; stroke-width: 0.8"/>
      </g>
     </g>
     <g id="text_2">
      <!-- $\mathdefault{420}$ -->
      <g transform="translate(67.756832 154.623044) scale(0.08 -0.08)">
       <defs>
        <path id="CMR17-32" d="M 2669 989 
L 2554 989 
C 2490 536 2438 459 2413 420 
C 2381 369 1920 369 1830 369 
L 602 369 
C 832 619 1280 1072 1824 1597 
C 2214 1967 2669 2402 2669 3035 
C 2669 3790 2067 4224 1395 4224 
C 691 4224 262 3604 262 3030 
C 262 2780 448 2748 525 2748 
C 589 2748 781 2787 781 3010 
C 781 3207 614 3264 525 3264 
C 486 3264 448 3258 422 3245 
C 544 3790 915 4058 1306 4058 
C 1862 4058 2227 3617 2227 3035 
C 2227 2479 1901 2000 1536 1584 
L 262 146 
L 262 0 
L 2515 0 
L 2669 989 
z
" transform="scale(0.015625)"/>
       </defs>
       <use xlink:href="#CMR17-34" transform="scale(0.996264)"/>
       <use xlink:href="#CMR17-32" transform="translate(45.690477 0) scale(0.996264)"/>
       <use xlink:href="#CMR17-30" transform="translate(91.380954 0) scale(0.996264)"/>
      </g>
     </g>
    </g>
    <g id="xtick_3">
     <g id="line2d_3">
      <g>
       <use xlink:href="#m2faf5d642f" x="111.205663" y="139.988242" style="stroke: #000000; stroke-width: 0.8"/>
      </g>
     </g>
     <g id="text_3">
      <!-- $\mathdefault{440}$ -->
      <g transform="translate(104.854389 154.623044) scale(0.08 -0.08)">
       <use xlink:href="#CMR17-34" transform="scale(0.996264)"/>
       <use xlink:href="#CMR17-34" transform="translate(45.690477 0) scale(0.996264)"/>
       <use xlink:href="#CMR17-30" transform="translate(91.380954 0) scale(0.996264)"/>
      </g>
     </g>
    </g>
    <g id="xtick_4">
     <g id="line2d_4">
      <g>
       <use xlink:href="#m2faf5d642f" x="148.30322" y="139.988242" style="stroke: #000000; stroke-width: 0.8"/>
      </g>
     </g>
     <g id="text_4">
      <!-- $\mathdefault{460}$ -->
      <g transform="translate(141.951946 154.623044) scale(0.08 -0.08)">
       <defs>
        <path id="CMR17-36" d="M 678 2176 
C 678 3690 1395 4032 1811 4032 
C 1946 4032 2272 4009 2400 3776 
C 2298 3776 2106 3776 2106 3553 
C 2106 3381 2246 3323 2336 3323 
C 2394 3323 2566 3348 2566 3560 
C 2566 3954 2246 4179 1805 4179 
C 1043 4179 243 3390 243 1984 
C 243 253 966 -128 1478 -128 
C 2099 -128 2688 427 2688 1283 
C 2688 2081 2170 2662 1517 2662 
C 1126 2662 838 2407 678 1960 
L 678 2176 
z
M 1478 25 
C 691 25 691 1200 691 1436 
C 691 1896 909 2560 1504 2560 
C 1613 2560 1926 2560 2138 2120 
C 2253 1870 2253 1609 2253 1289 
C 2253 944 2253 690 2118 434 
C 1978 171 1773 25 1478 25 
z
" transform="scale(0.015625)"/>
       </defs>
       <use xlink:href="#CMR17-34" transform="scale(0.996264)"/>
       <use xlink:href="#CMR17-36" transform="translate(45.690477 0) scale(0.996264)"/>
       <use xlink:href="#CMR17-30" transform="translate(91.380954 0) scale(0.996264)"/>
      </g>
     </g>
    </g>
    <g id="xtick_5">
     <g id="line2d_5">
      <g>
       <use xlink:href="#m2faf5d642f" x="185.400777" y="139.988242" style="stroke: #000000; stroke-width: 0.8"/>
      </g>
     </g>
     <g id="text_5">
      <!-- $\mathdefault{480}$ -->
      <g transform="translate(179.049502 154.623044) scale(0.08 -0.08)">
       <defs>
        <path id="CMR17-38" d="M 1741 2264 
C 2144 2467 2554 2773 2554 3263 
C 2554 3841 1990 4179 1472 4179 
C 890 4179 378 3759 378 3180 
C 378 3021 416 2747 666 2505 
C 730 2442 998 2251 1171 2130 
C 883 1983 211 1634 211 934 
C 211 279 838 -128 1459 -128 
C 2144 -128 2720 362 2720 1010 
C 2720 1590 2330 1857 2074 2029 
L 1741 2264 
z
M 902 2822 
C 851 2854 595 3051 595 3351 
C 595 3739 998 4032 1459 4032 
C 1965 4032 2336 3676 2336 3262 
C 2336 2669 1670 2331 1638 2331 
C 1632 2331 1626 2331 1574 2370 
L 902 2822 
z
M 2080 1519 
C 2176 1449 2483 1240 2483 851 
C 2483 381 2010 25 1472 25 
C 890 25 448 438 448 940 
C 448 1443 838 1862 1280 2060 
L 2080 1519 
z
" transform="scale(0.015625)"/>
       </defs>
       <use xlink:href="#CMR17-34" transform="scale(0.996264)"/>
       <use xlink:href="#CMR17-38" transform="translate(45.690477 0) scale(0.996264)"/>
       <use xlink:href="#CMR17-30" transform="translate(91.380954 0) scale(0.996264)"/>
      </g>
     </g>
    </g>
    <g id="xtick_6">
     <g id="line2d_6">
      <g>
       <use xlink:href="#m2faf5d642f" x="222.498334" y="139.988242" style="stroke: #000000; stroke-width: 0.8"/>
      </g>
     </g>
     <g id="text_6">
      <!-- $\mathdefault{500}$ -->
      <g transform="translate(216.147059 154.623044) scale(0.08 -0.08)">
       <defs>
        <path id="CMR17-35" d="M 730 3692 
C 794 3666 1056 3584 1325 3584 
C 1920 3584 2246 3911 2432 4100 
C 2432 4157 2432 4192 2394 4192 
C 2387 4192 2374 4192 2323 4163 
C 2099 4058 1837 3973 1517 3973 
C 1325 3973 1037 3999 723 4139 
C 653 4171 640 4171 634 4171 
C 602 4171 595 4164 595 4037 
L 595 2203 
C 595 2089 595 2057 659 2057 
C 691 2057 704 2070 736 2114 
C 941 2401 1222 2522 1542 2522 
C 1766 2522 2246 2382 2246 1289 
C 2246 1085 2246 715 2054 421 
C 1894 159 1645 25 1370 25 
C 947 25 518 320 403 814 
C 429 807 480 795 506 795 
C 589 795 749 840 749 1038 
C 749 1210 627 1280 506 1280 
C 358 1280 262 1190 262 1011 
C 262 454 704 -128 1382 -128 
C 2042 -128 2669 440 2669 1264 
C 2669 2030 2170 2624 1549 2624 
C 1222 2624 947 2503 730 2274 
L 730 3692 
z
" transform="scale(0.015625)"/>
       </defs>
       <use xlink:href="#CMR17-35" transform="scale(0.996264)"/>
       <use xlink:href="#CMR17-30" transform="translate(45.690477 0) scale(0.996264)"/>
       <use xlink:href="#CMR17-30" transform="translate(91.380954 0) scale(0.996264)"/>
      </g>
     </g>
    </g>
    <g id="text_7">
     <!-- time $t$ -->
     <g transform="translate(116.60927 167.091288) scale(0.1 -0.1)">
      <defs>
       <path id="CMR17-74" d="M 966 2560 
L 1862 2560 
L 1862 2725 
L 966 2725 
L 966 3904 
L 851 3904 
C 838 3245 614 2668 70 2668 
L 70 2560 
L 627 2560 
L 627 771 
C 627 650 627 -64 1370 -64 
C 1747 -64 1965 306 1965 777 
L 1965 1140 
L 1850 1140 
L 1850 783 
C 1850 344 1677 51 1408 51 
C 1222 51 966 178 966 758 
L 966 2560 
z
" transform="scale(0.015625)"/>
       <path id="CMR17-69" d="M 992 3909 
C 992 4049 877 4170 730 4170 
C 589 4170 467 4056 467 3909 
C 467 3769 582 3648 730 3648 
C 870 3648 992 3763 992 3909 
z
M 243 2706 
L 243 2541 
C 602 2541 653 2502 653 2197 
L 653 427 
C 653 184 627 153 218 153 
L 218 -13 
C 371 0 646 0 806 0 
C 960 0 1222 0 1370 -13 
L 1370 153 
C 992 153 979 191 979 420 
L 979 2776 
L 243 2706 
z
" transform="scale(0.015625)"/>
       <path id="CMR17-6d" d="M 4326 1933 
C 4326 2252 4269 2790 3507 2790 
C 3072 2790 2771 2496 2656 2151 
L 2650 2151 
C 2573 2676 2195 2790 1837 2790 
C 1331 2790 1069 2400 973 2144 
L 966 2144 
L 966 2790 
L 211 2720 
L 211 2554 
C 589 2554 646 2515 646 2208 
L 646 428 
C 646 184 621 153 211 153 
L 211 -13 
C 365 0 646 0 813 0 
C 979 0 1267 0 1421 -13 
L 1421 153 
C 1011 153 986 178 986 428 
L 986 1658 
C 986 2247 1344 2688 1792 2688 
C 2266 2688 2317 2266 2317 1958 
L 2317 428 
C 2317 184 2291 153 1882 153 
L 1882 -13 
C 2035 0 2317 0 2483 0 
C 2650 0 2938 0 3091 -13 
L 3091 153 
C 2682 153 2656 178 2656 428 
L 2656 1658 
C 2656 2247 3014 2688 3462 2688 
C 3936 2688 3987 2266 3987 1958 
L 3987 428 
C 3987 184 3962 153 3552 153 
L 3552 -13 
C 3706 0 3987 0 4154 0 
C 4320 0 4608 0 4762 -13 
L 4762 153 
C 4352 153 4326 178 4326 428 
L 4326 1933 
z
" transform="scale(0.015625)"/>
       <path id="CMR17-65" d="M 2438 1472 
C 2464 1498 2464 1511 2464 1576 
C 2464 2238 2118 2816 1389 2816 
C 710 2816 173 2169 173 1383 
C 173 551 781 -64 1459 -64 
C 2176 -64 2458 607 2458 740 
C 2458 784 2419 784 2406 784 
C 2362 784 2355 771 2330 696 
C 2189 265 1837 51 1504 51 
C 1229 51 954 203 781 480 
C 582 803 582 1176 582 1472 
L 2438 1472 
z
M 589 1568 
C 634 2505 1126 2714 1382 2714 
C 1818 2714 2112 2297 2118 1568 
L 589 1568 
z
" transform="scale(0.015625)"/>
       <path id="CMMI12-74" d="M 1286 2566 
L 1875 2566 
C 1997 2566 2061 2566 2061 2681 
C 2061 2752 2022 2752 1894 2752 
L 1331 2752 
L 1568 3692 
C 1594 3781 1594 3794 1594 3840 
C 1594 3943 1510 4000 1427 4000 
C 1376 4000 1229 3981 1178 3775 
L 928 2752 
L 326 2752 
C 198 2752 141 2752 141 2630 
C 141 2566 186 2566 307 2566 
L 877 2566 
L 454 881 
C 403 658 384 594 384 511 
C 384 211 595 -64 954 -64 
C 1600 -64 1946 868 1946 912 
C 1946 951 1920 970 1882 970 
C 1869 970 1843 970 1830 944 
C 1824 938 1818 931 1773 829 
C 1638 511 1344 64 973 64 
C 781 64 768 224 768 364 
C 768 370 768 492 787 568 
L 1286 2566 
z
" transform="scale(0.015625)"/>
      </defs>
      <use xlink:href="#CMR17-74" transform="scale(0.996264)"/>
      <use xlink:href="#CMR17-69" transform="translate(35.280768 0) scale(0.996264)"/>
      <use xlink:href="#CMR17-6d" transform="translate(60.151826 0) scale(0.996264)"/>
      <use xlink:href="#CMR17-65" transform="translate(137.071416 0) scale(0.996264)"/>
      <use xlink:href="#CMMI12-74" transform="translate(207.633043 0) scale(0.996264)"/>
     </g>
    </g>
   </g>
   <g id="matplotlib.axis_2">
    <g id="ytick_1">
     <g id="line2d_7">
      <defs>
       <path id="ma457bf4e01" d="M 0 0 
L -3.5 0 
" style="stroke: #000000; stroke-width: 0.8"/>
      </defs>
      <g>
       <use xlink:href="#ma457bf4e01" x="37.010549" y="114.518947" style="stroke: #000000; stroke-width: 0.8"/>
      </g>
     </g>
     <g id="text_8">
      <!-- $\mathdefault{0.00}$ -->
      <g transform="translate(12.855677 117.286348) scale(0.08 -0.08)">
       <defs>
        <path id="CMMI12-3a" d="M 1178 307 
C 1178 492 1024 619 870 619 
C 685 619 557 466 557 313 
C 557 128 710 0 864 0 
C 1050 0 1178 153 1178 307 
z
" transform="scale(0.015625)"/>
       </defs>
       <use xlink:href="#CMR17-30" transform="scale(0.996264)"/>
       <use xlink:href="#CMMI12-3a" transform="translate(45.690477 0) scale(0.996264)"/>
       <use xlink:href="#CMR17-30" transform="translate(72.787654 0) scale(0.996264)"/>
       <use xlink:href="#CMR17-30" transform="translate(118.478131 0) scale(0.996264)"/>
      </g>
     </g>
    </g>
    <g id="ytick_2">
     <g id="line2d_8">
      <g>
       <use xlink:href="#ma457bf4e01" x="37.010549" y="80.559886" style="stroke: #000000; stroke-width: 0.8"/>
      </g>
     </g>
     <g id="text_9">
      <!-- $\mathdefault{0.02}$ -->
      <g transform="translate(12.855677 83.327287) scale(0.08 -0.08)">
       <use xlink:href="#CMR17-30" transform="scale(0.996264)"/>
       <use xlink:href="#CMMI12-3a" transform="translate(45.690477 0) scale(0.996264)"/>
       <use xlink:href="#CMR17-30" transform="translate(72.787654 0) scale(0.996264)"/>
       <use xlink:href="#CMR17-32" transform="translate(118.478131 0) scale(0.996264)"/>
      </g>
     </g>
    </g>
    <g id="ytick_3">
     <g id="line2d_9">
      <g>
       <use xlink:href="#ma457bf4e01" x="37.010549" y="46.600826" style="stroke: #000000; stroke-width: 0.8"/>
      </g>
     </g>
     <g id="text_10">
      <!-- $\mathdefault{0.04}$ -->
      <g transform="translate(12.855677 49.368227) scale(0.08 -0.08)">
       <use xlink:href="#CMR17-30" transform="scale(0.996264)"/>
       <use xlink:href="#CMMI12-3a" transform="translate(45.690477 0) scale(0.996264)"/>
       <use xlink:href="#CMR17-30" transform="translate(72.787654 0) scale(0.996264)"/>
       <use xlink:href="#CMR17-34" transform="translate(118.478131 0) scale(0.996264)"/>
      </g>
     </g>
    </g>
    <g id="ytick_4">
     <g id="line2d_10">
      <g>
       <use xlink:href="#ma457bf4e01" x="37.010549" y="12.641765" style="stroke: #000000; stroke-width: 0.8"/>
      </g>
     </g>
     <g id="text_11">
      <!-- $\mathdefault{0.06}$ -->
      <g transform="translate(12.855677 15.409166) scale(0.08 -0.08)">
       <use xlink:href="#CMR17-30" transform="scale(0.996264)"/>
       <use xlink:href="#CMMI12-3a" transform="translate(45.690477 0) scale(0.996264)"/>
       <use xlink:href="#CMR17-30" transform="translate(72.787654 0) scale(0.996264)"/>
       <use xlink:href="#CMR17-36" transform="translate(118.478131 0) scale(0.996264)"/>
      </g>
     </g>
    </g>
    <g id="text_12">
     <!-- target-variable $y$ -->
     <g transform="translate(6.918498 112.132166) rotate(-90) scale(0.1 -0.1)">
      <defs>
       <path id="CMR17-61" d="M 2304 1653 
C 2304 2072 2304 2294 2035 2543 
C 1798 2752 1523 2816 1306 2816 
C 800 2816 435 2407 435 1971 
C 435 1728 627 1728 666 1728 
C 749 1728 896 1778 896 1954 
C 896 2112 774 2181 666 2181 
C 640 2181 608 2174 589 2168 
C 723 2592 1069 2714 1293 2714 
C 1613 2714 1965 2429 1965 1885 
L 1965 1600 
C 1587 1600 1133 1549 774 1357 
C 371 1133 256 813 256 570 
C 256 77 832 -64 1171 -64 
C 1523 -64 1850 139 1990 511 
C 2003 233 2182 -18 2464 -18 
C 2598 -18 2938 70 2938 567 
L 2938 920 
L 2822 920 
L 2822 562 
C 2822 178 2650 128 2566 128 
C 2304 128 2304 458 2304 738 
L 2304 1653 
z
M 1965 870 
C 1965 317 1568 38 1216 38 
C 896 38 646 275 646 570 
C 646 761 730 1100 1101 1305 
C 1408 1478 1760 1504 1965 1504 
L 1965 870 
z
" transform="scale(0.015625)"/>
       <path id="CMR17-72" d="M 960 1497 
C 960 2112 1222 2688 1702 2688 
C 1747 2688 1792 2682 1837 2662 
C 1837 2662 1696 2617 1696 2452 
C 1696 2298 1818 2234 1914 2234 
C 1990 2234 2131 2279 2131 2458 
C 2131 2663 1926 2790 1709 2790 
C 1222 2790 1011 2317 947 2093 
L 941 2093 
L 941 2790 
L 198 2720 
L 198 2554 
C 576 2554 634 2515 634 2208 
L 634 428 
C 634 184 608 153 198 153 
L 198 -13 
C 352 0 646 0 813 0 
C 998 0 1325 0 1498 -13 
L 1498 153 
C 1037 153 960 153 960 440 
L 960 1497 
z
" transform="scale(0.015625)"/>
       <path id="CMR17-67" d="M 710 1164 
C 832 1068 1043 960 1299 960 
C 1805 960 2240 1357 2240 1888 
C 2240 2054 2189 2310 1997 2509 
C 2176 2692 2438 2752 2586 2752 
C 2611 2752 2650 2752 2682 2734 
C 2656 2728 2598 2703 2598 2605 
C 2598 2527 2656 2471 2739 2471 
C 2835 2471 2886 2533 2886 2614 
C 2886 2731 2790 2854 2586 2854 
C 2330 2854 2106 2738 1926 2580 
C 1734 2753 1504 2816 1299 2816 
C 794 2816 358 2419 358 1888 
C 358 1522 570 1292 634 1228 
C 442 1004 442 743 442 711 
C 442 545 506 302 723 168 
C 390 85 128 -169 128 -486 
C 128 -943 736 -1280 1466 -1280 
C 2170 -1280 2803 -956 2803 -479 
C 2803 384 1856 384 1363 384 
C 1216 384 954 384 922 391 
C 723 423 589 602 589 826 
C 589 883 589 1024 710 1164 
z
M 1299 1068 
C 736 1068 736 1760 736 1889 
C 736 2016 736 2708 1299 2708 
C 1862 2708 1862 2016 1862 1889 
C 1862 1760 1862 1068 1299 1068 
z
M 1466 -1171 
C 826 -1171 384 -835 384 -486 
C 384 -289 493 -105 634 -4 
C 794 104 858 104 1293 104 
C 1818 104 2547 104 2547 -486 
C 2547 -835 2106 -1171 1466 -1171 
z
" transform="scale(0.015625)"/>
       <path id="CMR17-2d" d="M 1632 1216 
L 1632 1496 
L 26 1496 
L 26 1216 
L 1632 1216 
z
" transform="scale(0.015625)"/>
       <path id="CMR17-76" d="M 2502 2163 
C 2560 2304 2662 2560 3034 2560 
L 3034 2726 
C 2912 2726 2752 2726 2630 2726 
C 2496 2726 2285 2726 2157 2732 
L 2157 2566 
C 2317 2553 2406 2477 2406 2311 
C 2406 2253 2406 2240 2368 2151 
L 1664 377 
L 902 2286 
C 864 2369 864 2381 864 2407 
C 864 2560 1075 2560 1171 2560 
L 1171 2732 
C 1018 2726 736 2726 576 2726 
C 403 2726 205 2726 64 2732 
L 64 2560 
C 307 2560 442 2560 518 2362 
L 1446 44 
C 1485 -51 1491 -64 1549 -64 
C 1606 -64 1613 -51 1651 44 
L 2502 2163 
z
" transform="scale(0.015625)"/>
       <path id="CMR17-62" d="M 960 4396 
L 198 4326 
L 198 4160 
C 576 4160 634 4122 634 3817 
L 634 -13 
L 749 -13 
L 934 441 
C 1120 141 1395 -64 1766 -64 
C 2406 -64 3053 500 3053 1370 
C 3053 2188 2477 2790 1830 2790 
C 1434 2790 1152 2579 960 2330 
L 960 4396 
z
M 973 2004 
C 973 2118 973 2138 1062 2272 
C 1312 2657 1670 2688 1792 2688 
C 1984 2688 2643 2585 2643 1376 
C 2643 108 1888 38 1734 38 
C 1536 38 1248 114 1043 486 
C 973 608 973 621 973 735 
L 973 2004 
z
" transform="scale(0.015625)"/>
       <path id="CMR17-6c" d="M 979 4396 
L 218 4326 
L 218 4160 
C 595 4160 653 4122 653 3817 
L 653 426 
C 653 184 627 153 218 153 
L 218 -13 
C 371 0 653 0 813 0 
C 979 0 1261 0 1414 -13 
L 1414 153 
C 1005 153 979 178 979 426 
L 979 4396 
z
" transform="scale(0.015625)"/>
       <path id="CMMI12-79" d="M 1683 -700 
C 1510 -939 1261 -1152 947 -1152 
C 870 -1152 563 -1152 467 -889 
C 486 -895 518 -895 531 -895 
C 723 -895 851 -729 851 -582 
C 851 -435 730 -384 634 -384 
C 531 -384 307 -458 307 -759 
C 307 -1071 582 -1286 947 -1286 
C 1587 -1286 2234 -700 2413 6 
L 3040 2485 
C 3046 2517 3059 2556 3059 2594 
C 3059 2689 2982 2753 2886 2753 
C 2829 2753 2694 2727 2643 2535 
L 2170 658 
C 2138 543 2138 530 2086 460 
C 1958 281 1747 64 1440 64 
C 1082 64 1050 415 1050 588 
C 1050 952 1222 1443 1395 1903 
C 1466 2088 1504 2178 1504 2305 
C 1504 2574 1312 2816 998 2816 
C 410 2816 173 1890 173 1839 
C 173 1814 198 1782 243 1782 
C 301 1782 307 1807 333 1897 
C 486 2433 730 2689 979 2689 
C 1037 2689 1146 2689 1146 2478 
C 1146 2312 1075 2127 979 1884 
C 666 1047 666 837 666 683 
C 666 77 1101 -64 1421 -64 
C 1606 -64 1837 -6 2061 230 
L 2067 224 
C 1971 -147 1907 -392 1683 -700 
z
" transform="scale(0.015625)"/>
      </defs>
      <use xlink:href="#CMR17-74" transform="scale(0.996264)"/>
      <use xlink:href="#CMR17-61" transform="translate(35.280768 0) scale(0.996264)"/>
      <use xlink:href="#CMR17-72" transform="translate(80.971245 0) scale(0.996264)"/>
      <use xlink:href="#CMR17-67" transform="translate(116.252013 0) scale(0.996264)"/>
      <use xlink:href="#CMR17-65" transform="translate(161.94249 0) scale(0.996264)"/>
      <use xlink:href="#CMR17-74" transform="translate(202.42815 0) scale(0.996264)"/>
      <use xlink:href="#CMR17-2d" transform="translate(237.708918 0) scale(0.996264)"/>
      <use xlink:href="#CMR17-76" transform="translate(267.784884 0) scale(0.996264)"/>
      <use xlink:href="#CMR17-61" transform="translate(310.872984 0) scale(0.996264)"/>
      <use xlink:href="#CMR17-72" transform="translate(356.563461 0) scale(0.996264)"/>
      <use xlink:href="#CMR17-69" transform="translate(391.844229 0) scale(0.996264)"/>
      <use xlink:href="#CMR17-61" transform="translate(416.715287 0) scale(0.996264)"/>
      <use xlink:href="#CMR17-62" transform="translate(462.405764 0) scale(0.996264)"/>
      <use xlink:href="#CMR17-6c" transform="translate(513.301134 0) scale(0.996264)"/>
      <use xlink:href="#CMR17-65" transform="translate(538.172192 0) scale(0.996264)"/>
      <use xlink:href="#CMMI12-79" transform="translate(608.733819 0) scale(0.996264)"/>
     </g>
    </g>
   </g>
   <g id="line2d_11">
    <path d="M 36.749382 23.568409 
L 38.031474 24.859068 
L 39.313565 26.524804 
L 40.595657 28.622869 
L 41.877749 31.21074 
L 43.15984 34.346882 
L 44.441932 38.092992 
L 45.724023 42.51782 
L 53.09605 70.170715 
L 55.019187 76.360814 
L 56.621802 80.91332 
L 58.224416 84.808139 
L 59.506508 87.400095 
L 60.788599 89.506318 
L 62.070691 91.131553 
L 63.032259 92.049675 
L 63.993828 92.728552 
L 64.955397 93.188901 
L 65.916965 93.45356 
L 67.199057 93.543295 
L 68.481149 93.384828 
L 70.083763 92.925375 
L 72.327423 92.002799 
L 74.891606 90.971585 
L 78.737881 89.574338 
L 80.340496 88.709837 
L 81.622587 87.783383 
L 82.904679 86.586106 
L 84.18677 85.061853 
L 85.468862 83.158732 
L 86.750953 80.83445 
L 88.033045 78.062691 
L 89.635659 73.962692 
L 91.238274 69.193934 
L 93.161411 62.701786 
L 95.405071 54.294265 
L 98.6103 41.308843 
L 102.777098 24.453554 
L 104.05919 20.389697 
L 105.341281 17.078714 
L 106.623373 14.457413 
L 107.584941 12.90843 
L 108.54651 11.689827 
L 109.508079 10.777396 
L 110.469647 10.146976 
L 111.431216 9.774739 
L 112.392785 9.63789 
L 113.354353 9.71579 
L 114.315922 9.991422 
L 115.277491 10.452951 
L 116.559582 11.349263 
L 117.841674 12.57427 
L 119.123765 14.155592 
L 120.405857 16.136392 
L 121.687949 18.56901 
L 122.97004 21.50975 
L 124.252132 25.015913 
L 125.534223 29.145037 
L 126.816315 33.955882 
L 128.098406 39.510895 
L 129.701021 47.586483 
L 132.585727 62.350976 
L 134.829387 72.743718 
L 136.752524 80.620526 
L 138.355139 86.309031 
L 139.637231 90.207033 
L 140.919322 93.467242 
L 142.201414 96.045488 
L 143.162982 97.513367 
L 144.124551 98.575914 
L 145.08612 99.235352 
L 145.727165 99.455258 
L 146.368211 99.504109 
L 147.009257 99.387051 
L 147.970826 98.913437 
L 148.932394 98.101921 
L 149.893963 96.975983 
L 151.176055 95.02726 
L 152.458146 92.619735 
L 154.060761 89.053221 
L 155.983898 84.112625 
L 159.189127 75.620307 
L 160.791741 72.325356 
L 162.394356 69.613112 
L 163.99697 67.367684 
L 165.599585 65.476652 
L 167.843245 63.213263 
L 173.612657 57.937092 
L 176.17684 55.750021 
L 177.779455 54.622551 
L 179.061546 53.942157 
L 180.343638 53.520858 
L 181.305206 53.409619 
L 182.266775 53.501542 
L 183.228344 53.822819 
L 184.189912 54.401808 
L 185.151481 55.26966 
L 190.920893 61.196617 
L 192.523508 62.362727 
L 193.805599 62.996818 
L 194.767168 63.260754 
L 195.728737 63.317646 
L 196.690305 63.146474 
L 197.651874 62.729621 
L 198.613443 62.054447 
L 199.575011 61.114638 
L 200.53658 59.91096 
L 201.818672 57.909886 
L 203.100763 55.488713 
L 204.703378 51.944624 
L 206.626515 47.074603 
L 209.190698 39.851235 
L 214.319064 25.004273 
L 215.601156 22.081038 
L 217.20377 19.0294 
L 218.806385 16.535209 
L 220.408999 14.484918 
L 222.332137 12.452874 
L 222.652659 12.147243 
L 222.652659 12.147243 
" clip-path="url(#pe48551a4d9)" style="fill: none; stroke-dasharray: 1.4,2.31; stroke-dashoffset: 0; stroke: #ff0000; stroke-width: 1.4"/>
   </g>
   <g id="line2d_12">
    <path d="M 36.749382 57.286241 
L 38.031474 60.08221 
L 39.634088 64.258679 
L 41.236703 69.087948 
L 43.15984 75.585635 
L 45.724023 85.097152 
L 47.326638 90.944784 
L 48.929252 96.011539 
L 50.531867 100.420312 
L 52.455004 105.009124 
L 54.378141 109.016622 
L 56.942324 113.786679 
L 61.750168 122.114273 
L 64.955397 127.337517 
L 66.878534 130.059286 
L 68.481149 131.923762 
L 69.76324 133.070345 
L 70.724809 133.690758 
L 71.686377 134.077307 
L 72.647946 134.202305 
L 73.609515 134.03495 
L 74.571083 133.552962 
L 75.532652 132.784453 
L 76.494221 131.762026 
L 77.776312 130.053017 
L 79.378927 127.447487 
L 81.302064 123.782908 
L 83.866247 118.301307 
L 92.840888 98.05591 
L 95.084549 92.541701 
L 97.007686 87.281601 
L 98.930823 81.322898 
L 100.533438 75.674706 
L 105.982327 55.333709 
L 107.584941 50.613211 
L 108.867033 47.423811 
L 110.149124 44.818362 
L 111.110693 43.28179 
L 112.072262 42.12899 
L 113.03383 41.38147 
L 113.674876 41.117542 
L 114.315922 41.046373 
L 114.956968 41.1712 
L 115.598014 41.493966 
L 116.239059 42.015217 
L 117.200628 43.166943 
L 118.162197 44.754289 
L 119.123765 46.762689 
L 120.405857 50.062261 
L 121.687949 54.023943 
L 123.290563 59.821247 
L 124.893177 66.45315 
L 126.816315 75.35354 
L 129.059975 86.770025 
L 130.983112 96.442739 
L 132.585727 103.274924 
L 134.188341 109.099001 
L 135.790956 114.032698 
L 137.39357 118.188814 
L 138.996185 121.67913 
L 140.598799 124.611658 
L 142.201414 127.079559 
L 143.804028 129.143288 
L 145.406643 130.814349 
L 146.688734 131.842454 
L 147.970826 132.553269 
L 148.932394 132.84772 
L 149.893963 132.911637 
L 150.855532 132.72095 
L 151.8171 132.251458 
L 152.778669 131.478925 
L 153.740238 130.378858 
L 154.701806 128.926041 
L 155.663375 127.093808 
L 156.624944 124.85301 
L 158.227558 120.336428 
L 163.035402 106.61714 
L 165.279062 100.945482 
L 166.881676 97.423475 
L 168.484291 94.465034 
L 169.766382 92.567006 
L 171.048474 91.12202 
L 172.010043 90.344333 
L 172.971611 89.82666 
L 173.93318 89.559499 
L 174.894749 89.527624 
L 175.856317 89.711584 
L 176.817886 90.08925 
L 178.099978 90.853345 
L 179.702592 92.146761 
L 181.625729 94.04668 
L 186.11305 98.6819 
L 187.074618 99.216964 
L 188.036187 99.496263 
L 188.997756 99.547761 
L 189.959325 99.397415 
L 191.241416 98.925829 
L 192.523508 98.197195 
L 194.126122 97.012267 
L 196.369782 95.036952 
L 202.459717 89.235233 
L 204.703378 86.840948 
L 206.305992 84.836643 
L 207.908606 82.46121 
L 209.511221 79.602111 
L 210.793312 76.88862 
L 212.075404 73.726321 
L 213.678019 69.122177 
L 218.165339 56.066887 
L 220.408999 50.240874 
L 222.011614 46.602644 
L 222.652659 45.298432 
L 222.652659 45.298432 
" clip-path="url(#pe48551a4d9)" style="fill: none; stroke-dasharray: 1.4,2.31; stroke-dashoffset: 0; stroke: #ff0000; stroke-width: 1.4"/>
   </g>
   <g id="line2d_13">
    <path d="M 36.340499 24.848098 
L 37.26826 39.155821 
L 38.196022 49.283333 
L 39.123783 50.729543 
L 40.051544 48.70962 
L 40.979305 42.437194 
L 41.907066 47.978082 
L 42.834827 47.403124 
L 43.762588 49.66146 
L 44.690349 51.567569 
L 45.61811 52.796999 
L 46.545871 51.360026 
L 47.473632 52.300135 
L 48.401393 58.034234 
L 49.329154 71.942243 
L 50.256915 79.108758 
L 51.184676 81.788042 
L 52.112437 92.226751 
L 53.96796 96.318955 
L 54.895721 102.180033 
L 55.823482 105.507503 
L 56.751243 102.29683 
L 57.679004 105.268266 
L 58.606765 109.513478 
L 59.534526 99.426297 
L 60.462287 99.459567 
L 61.390048 102.933532 
L 62.317809 99.261754 
L 63.24557 104.597646 
L 64.173331 104.890318 
L 65.101092 108.137255 
L 66.028853 110.384885 
L 66.956614 118.683839 
L 67.884376 120.603358 
L 68.812137 113.24574 
L 69.739898 110.41619 
L 70.667659 108.556957 
L 71.59542 114.414838 
L 72.523181 111.667514 
L 73.450942 107.704166 
L 74.378703 102.868778 
L 75.306464 109.629184 
L 76.234225 110.681827 
L 77.161986 106.886908 
L 78.089747 106.51917 
L 79.017508 109.631245 
L 79.945269 100.91394 
L 80.87303 100.706122 
L 81.800791 88.394628 
L 82.728553 91.054906 
L 83.656314 95.780416 
L 84.584075 95.375855 
L 85.511836 100.110954 
L 86.439597 95.674474 
L 87.367358 98.062415 
L 88.295119 96.786187 
L 89.22288 91.419614 
L 90.150641 87.129841 
L 91.078402 86.060139 
L 92.006163 86.668245 
L 92.933924 89.184344 
L 93.861685 90.393416 
L 94.789446 98.513143 
L 96.644968 79.194126 
L 97.57273 77.220202 
L 98.500491 68.381562 
L 101.283774 49.103439 
L 102.211535 45.579452 
L 103.139296 35.00004 
L 104.067057 31.052198 
L 104.994818 20.939085 
L 105.922579 17.426165 
L 106.85034 19.633757 
L 107.778101 24.519781 
L 108.705862 21.787845 
L 109.633623 22.75611 
L 110.561384 28.570649 
L 111.489145 32.063609 
L 112.416907 22.790312 
L 113.344668 23.613953 
L 114.272429 26.790683 
L 115.20019 34.398414 
L 116.127951 30.91969 
L 117.055712 34.286089 
L 117.983473 30.731471 
L 118.911234 31.493229 
L 119.838995 38.854084 
L 120.766756 48.802103 
L 121.694517 48.950682 
L 122.622278 46.146307 
L 123.550039 44.946913 
L 124.4778 51.720277 
L 125.405561 50.576279 
L 126.333322 56.069912 
L 127.261083 56.989091 
L 128.188845 61.591499 
L 129.116606 61.128624 
L 130.972128 66.040094 
L 131.899889 70.41294 
L 132.82765 79.330386 
L 133.755411 84.274904 
L 134.683172 81.399034 
L 135.610933 85.340983 
L 136.538694 91.021232 
L 137.466455 86.474415 
L 138.394216 85.890305 
L 139.321977 86.793835 
L 140.249738 103.139993 
L 141.177499 95.897753 
L 142.10526 103.125229 
L 143.033022 108.908372 
L 143.960783 105.586289 
L 144.888544 116.887223 
L 145.816305 120.781731 
L 146.744066 119.501735 
L 147.671827 123.106875 
L 148.599588 124.246286 
L 149.527349 119.492761 
L 150.45511 115.906936 
L 151.382871 122.704378 
L 152.310632 124.15146 
L 153.238393 129.498464 
L 154.166154 125.204121 
L 155.093915 117.023147 
L 156.021676 117.066424 
L 156.949437 126.384461 
L 157.877199 128.036944 
L 159.732721 113.240154 
L 160.660482 117.104494 
L 161.588243 107.51103 
L 162.516004 103.151951 
L 163.443765 96.012572 
L 164.371526 101.864384 
L 165.299287 92.683894 
L 166.227048 94.858618 
L 167.154809 92.677398 
L 168.08257 88.610265 
L 169.010331 87.557696 
L 169.938092 81.742915 
L 170.865853 82.589989 
L 171.793614 79.436765 
L 172.721376 83.725502 
L 173.649137 77.46033 
L 175.504659 74.958672 
L 176.43242 70.663413 
L 177.360181 62.350133 
L 178.287942 55.133559 
L 179.215703 51.35532 
L 180.143464 49.25927 
L 181.071225 49.842131 
L 181.998986 43.351359 
L 182.926747 49.288541 
L 183.854508 48.803612 
L 184.782269 48.833695 
L 185.71003 50.002531 
L 186.637791 60.345858 
L 187.565553 66.230942 
L 188.493314 66.160672 
L 189.421075 69.908517 
L 190.348836 75.447382 
L 191.276597 85.584698 
L 192.204358 83.280617 
L 193.132119 87.768729 
L 194.05988 85.529284 
L 194.987641 90.840719 
L 195.915402 89.650273 
L 196.843163 90.194653 
L 197.770924 83.985358 
L 198.698685 84.196382 
L 199.626446 77.143454 
L 200.554207 78.482442 
L 201.481968 75.473245 
L 202.40973 73.683987 
L 203.337491 73.411753 
L 204.265252 61.371294 
L 205.193013 63.420465 
L 206.120774 64.670811 
L 207.048535 61.238481 
L 207.976296 72.870612 
L 208.904057 67.554656 
L 209.831818 60.605757 
L 210.759579 61.59727 
L 211.68734 60.40096 
L 212.615101 67.791216 
L 213.542862 51.76752 
L 214.470623 48.726709 
L 215.398384 48.036207 
L 216.326145 37.048494 
L 217.253907 38.12281 
L 218.181668 34.324114 
L 219.109429 33.870929 
L 220.964951 8.685672 
L 221.892712 7.325855 
L 222.820473 12.286768 
L 222.820473 12.286768 
" clip-path="url(#pe48551a4d9)" style="fill: none; stroke: #1f77b4; stroke-width: 0.5; stroke-linecap: square"/>
   </g>
   <g id="line2d_14">
    <path d="M 36.340499 35.913433 
L 37.26826 33.425225 
L 38.196022 36.376914 
L 39.123783 38.70862 
L 40.979305 45.274472 
L 41.907066 44.340221 
L 42.834827 48.929534 
L 43.762588 46.529402 
L 44.690349 43.579685 
L 45.61811 52.406418 
L 46.545871 62.414867 
L 47.473632 57.560745 
L 48.401393 69.373673 
L 49.329154 72.008055 
L 50.256915 69.372245 
L 51.184676 74.46055 
L 52.112437 76.30533 
L 53.040199 82.457497 
L 53.96796 81.601697 
L 54.895721 86.904369 
L 55.823482 85.157757 
L 56.751243 93.573169 
L 57.679004 99.687936 
L 58.606765 103.077353 
L 59.534526 109.97323 
L 60.462287 106.624797 
L 61.390048 116.808265 
L 62.317809 115.389776 
L 63.24557 115.864598 
L 64.173331 116.077503 
L 65.101092 114.407969 
L 66.028853 107.426921 
L 66.956614 103.617579 
L 67.884376 110.07302 
L 68.812137 112.403818 
L 69.739898 122.173753 
L 70.667659 123.956265 
L 71.59542 125.289511 
L 73.450942 115.448911 
L 74.378703 116.980695 
L 75.306464 114.146181 
L 76.234225 107.399333 
L 78.089747 98.47564 
L 79.017508 100.698426 
L 79.945269 103.400241 
L 80.87303 99.084982 
L 81.800791 99.258175 
L 82.728553 100.856661 
L 83.656314 101.269302 
L 84.584075 101.912551 
L 85.511836 101.881595 
L 86.439597 93.787976 
L 87.367358 95.524226 
L 88.295119 90.628571 
L 89.22288 87.723238 
L 90.150641 92.691788 
L 91.078402 94.836197 
L 92.006163 90.147906 
L 92.933924 84.777679 
L 93.861685 86.972663 
L 94.789446 78.27784 
L 95.717207 76.568706 
L 96.644968 69.9972 
L 97.57273 77.672139 
L 98.500491 75.893674 
L 99.428252 63.128252 
L 100.356013 59.195198 
L 101.283774 48.021938 
L 102.211535 48.478643 
L 103.139296 38.035816 
L 104.067057 34.954942 
L 104.994818 35.704014 
L 105.922579 34.33754 
L 106.85034 34.720966 
L 107.778101 34.580423 
L 108.705862 29.234054 
L 109.633623 29.56698 
L 110.561384 31.830944 
L 111.489145 28.56729 
L 112.416907 33.147167 
L 113.344668 39.31519 
L 114.272429 39.181698 
L 115.20019 34.268035 
L 116.127951 36.005295 
L 117.055712 38.484425 
L 117.983473 36.458305 
L 118.911234 28.125615 
L 119.838995 32.684349 
L 120.766756 33.577675 
L 121.694517 30.051327 
L 122.622278 40.00654 
L 123.550039 43.241423 
L 124.4778 44.52356 
L 125.405561 46.935013 
L 126.333322 47.020936 
L 127.261083 45.341563 
L 128.188845 47.342644 
L 129.116606 46.353056 
L 130.044367 57.067859 
L 130.972128 69.562694 
L 131.899889 76.517775 
L 132.82765 86.525837 
L 133.755411 94.441518 
L 134.683172 98.202602 
L 135.610933 96.638923 
L 136.538694 102.815765 
L 137.466455 99.965314 
L 138.394216 97.53946 
L 139.321977 103.230877 
L 140.249738 96.23647 
L 141.177499 106.29097 
L 143.033022 121.210005 
L 143.960783 122.102039 
L 144.888544 114.250309 
L 145.816305 112.364377 
L 146.744066 112.99527 
L 147.671827 118.627313 
L 148.599588 114.360135 
L 149.527349 117.629668 
L 150.45511 112.400855 
L 151.382871 110.435189 
L 152.310632 108.118052 
L 153.238393 112.475208 
L 154.166154 107.49001 
L 155.093915 113.687313 
L 156.021676 109.870721 
L 156.949437 105.334647 
L 157.877199 92.002477 
L 158.80496 93.24151 
L 159.732721 85.757207 
L 160.660482 87.227719 
L 161.588243 84.975841 
L 162.516004 89.621751 
L 163.443765 81.943172 
L 164.371526 84.697595 
L 165.299287 80.699233 
L 166.227048 81.251275 
L 167.154809 83.33775 
L 168.08257 84.257678 
L 169.010331 84.57195 
L 169.938092 76.235839 
L 170.865853 72.295403 
L 171.793614 73.319979 
L 172.721376 71.597055 
L 173.649137 72.562534 
L 174.576898 71.242981 
L 175.504659 69.508525 
L 176.43242 72.361639 
L 177.360181 69.140283 
L 178.287942 63.518833 
L 179.215703 72.067351 
L 180.143464 75.901941 
L 181.998986 85.940096 
L 182.926747 89.814395 
L 183.854508 85.661014 
L 184.782269 91.485514 
L 185.71003 78.419612 
L 186.637791 81.737345 
L 187.565553 84.603774 
L 188.493314 86.670044 
L 189.421075 84.333662 
L 190.348836 79.009812 
L 191.276597 89.117865 
L 192.204358 92.028059 
L 193.132119 99.168789 
L 194.05988 90.819562 
L 194.987641 91.013033 
L 195.915402 95.264662 
L 196.843163 97.286289 
L 197.770924 91.604387 
L 198.698685 83.789614 
L 199.626446 88.44248 
L 200.554207 78.836186 
L 201.481968 76.643979 
L 202.40973 63.765794 
L 203.337491 63.535966 
L 204.265252 64.213393 
L 205.193013 55.129416 
L 206.120774 55.203222 
L 207.048535 57.881104 
L 207.976296 58.188213 
L 208.904057 47.495931 
L 209.831818 40.803211 
L 210.759579 42.877452 
L 211.68734 35.046267 
L 212.615101 28.679438 
L 213.542862 33.574304 
L 214.470623 36.999655 
L 215.398384 34.177231 
L 216.326145 44.423189 
L 217.253907 35.537601 
L 218.181668 37.657584 
L 219.109429 33.657864 
L 220.03719 40.15817 
L 220.964951 40.392108 
L 222.820473 39.701127 
L 222.820473 39.701127 
" clip-path="url(#pe48551a4d9)" style="fill: none; stroke: #ff7f0e; stroke-width: 0.5; stroke-linecap: square"/>
   </g>
   <g id="patch_3">
    <path d="M 37.010549 139.988242 
L 37.010549 12.641765 
" style="fill: none; stroke: #000000; stroke-width: 0.8; stroke-linejoin: miter; stroke-linecap: square"/>
   </g>
   <g id="patch_4">
    <path d="M 222.498334 139.988242 
L 222.498334 12.641765 
" style="fill: none; stroke: #000000; stroke-width: 0.8; stroke-linejoin: miter; stroke-linecap: square"/>
   </g>
   <g id="patch_5">
    <path d="M 37.010549 139.988242 
L 222.498334 139.988242 
" style="fill: none; stroke: #000000; stroke-width: 0.8; stroke-linejoin: miter; stroke-linecap: square"/>
   </g>
   <g id="patch_6">
    <path d="M 37.010549 12.641765 
L 222.498334 12.641765 
" style="fill: none; stroke: #000000; stroke-width: 0.8; stroke-linejoin: miter; stroke-linecap: square"/>
   </g>
   <g id="text_13">
    <!-- Model: $Int\_Brown$ -->
    <g transform="translate(88.486254 6.641765) scale(0.096 -0.096)">
     <defs>
      <path id="CMR17-4d" d="M 1338 4224 
C 1299 4320 1293 4320 1158 4320 
L 339 4320 
L 339 4160 
C 781 4160 851 4160 851 3875 
L 851 610 
C 851 451 851 153 339 153 
L 339 -13 
C 486 0 755 0 915 0 
C 1075 0 1344 0 1491 -13 
L 1491 153 
C 979 153 979 451 979 610 
L 979 4135 
L 986 4135 
L 2490 89 
C 2515 25 2528 -13 2579 -13 
C 2630 -13 2643 25 2669 89 
L 4186 4166 
L 4192 4166 
L 4192 438 
C 4192 153 4122 153 3680 153 
L 3680 -13 
C 3853 0 4198 0 4384 0 
C 4570 0 4922 0 5094 -13 
L 5094 153 
C 4653 153 4582 153 4582 438 
L 4582 3875 
C 4582 4160 4653 4160 5094 4160 
L 5094 4320 
L 4282 4320 
C 4147 4320 4141 4314 4102 4218 
L 2720 502 
L 1338 4224 
z
" transform="scale(0.015625)"/>
      <path id="CMR17-6f" d="M 2758 1356 
C 2758 2176 2163 2816 1466 2816 
C 768 2816 173 2176 173 1356 
C 173 551 768 -64 1466 -64 
C 2163 -64 2758 551 2758 1356 
z
M 1466 51 
C 1165 51 909 230 762 480 
C 602 767 582 1126 582 1408 
C 582 1677 595 2010 762 2298 
C 890 2509 1139 2714 1466 2714 
C 1754 2714 1997 2554 2150 2330 
C 2349 2029 2349 1607 2349 1408 
C 2349 1158 2336 775 2163 467 
C 1984 173 1709 51 1466 51 
z
" transform="scale(0.015625)"/>
      <path id="CMR17-64" d="M 1869 4326 
L 1869 4160 
C 2246 4160 2304 4122 2304 3820 
L 2304 2345 
C 2278 2377 2016 2790 1498 2790 
C 845 2790 211 2208 211 1364 
C 211 525 806 -64 1434 -64 
C 1978 -64 2259 337 2291 380 
L 2291 -63 
L 3066 -63 
L 3066 128 
C 2688 128 2630 166 2630 473 
L 2630 4396 
L 1869 4326 
z
M 2291 755 
C 2291 563 2176 390 2029 262 
C 1811 70 1594 38 1472 38 
C 1286 38 621 134 621 1356 
C 621 2612 1363 2688 1530 2688 
C 1824 2688 2061 2522 2208 2291 
C 2291 2157 2291 2138 2291 2023 
L 2291 755 
z
" transform="scale(0.015625)"/>
      <path id="CMR17-3a" d="M 1062 2491 
C 1062 2650 934 2752 800 2752 
C 672 2752 538 2650 538 2491 
C 538 2332 666 2230 800 2230 
C 928 2230 1062 2332 1062 2491 
z
M 1062 261 
C 1062 420 934 522 800 522 
C 672 522 538 420 538 261 
C 538 102 666 0 800 0 
C 928 0 1062 102 1062 261 
z
" transform="scale(0.015625)"/>
      <path id="CMMI12-49" d="M 2355 3880 
C 2413 4103 2426 4167 2893 4167 
C 3034 4167 3085 4167 3085 4288 
C 3085 4352 3014 4352 2995 4352 
C 2880 4352 2739 4352 2624 4352 
L 1837 4352 
C 1709 4352 1562 4352 1434 4352 
C 1382 4352 1312 4352 1312 4231 
C 1312 4167 1363 4167 1491 4167 
C 1888 4167 1888 4116 1888 4046 
C 1888 4002 1875 3963 1862 3906 
L 998 472 
C 941 249 928 185 461 185 
C 320 185 262 185 262 64 
C 262 0 326 0 358 0 
C 474 0 614 0 730 0 
L 1517 0 
C 1645 0 1786 0 1914 0 
C 1965 0 2042 0 2042 115 
C 2042 185 2003 185 1862 185 
C 1466 185 1466 236 1466 312 
C 1466 325 1466 357 1491 459 
L 2355 3880 
z
" transform="scale(0.015625)"/>
      <path id="CMMI12-6e" d="M 1318 1871 
C 1331 1910 1491 2229 1728 2433 
C 1894 2586 2112 2689 2362 2689 
C 2618 2689 2707 2497 2707 2242 
C 2707 1878 2445 1150 2317 805 
C 2259 651 2227 568 2227 453 
C 2227 166 2426 -64 2733 -64 
C 3328 -64 3552 875 3552 913 
C 3552 945 3526 971 3488 971 
C 3430 971 3424 952 3392 843 
C 3245 319 3002 64 2752 64 
C 2688 64 2586 64 2586 269 
C 2586 429 2656 621 2694 710 
C 2822 1063 3091 1780 3091 2145 
C 3091 2528 2867 2816 2381 2816 
C 1811 2816 1510 2415 1395 2255 
C 1376 2618 1114 2816 832 2816 
C 627 2816 486 2695 378 2478 
C 262 2248 173 1865 173 1839 
C 173 1814 198 1782 243 1782 
C 294 1782 301 1788 339 1935 
C 442 2325 557 2689 813 2689 
C 960 2689 1011 2586 1011 2395 
C 1011 2254 947 2005 902 1807 
L 723 1118 
C 698 996 627 709 595 594 
C 550 428 480 128 480 96 
C 480 6 550 -64 646 -64 
C 723 -64 813 -26 864 70 
C 877 102 934 326 966 453 
L 1107 1028 
L 1318 1871 
z
" transform="scale(0.015625)"/>
      <path id="CMMI12-42" d="M 2342 3921 
C 2400 4160 2426 4160 2675 4160 
L 3507 4160 
C 4230 4160 4230 3544 4230 3485 
C 4230 2966 3712 2304 2867 2304 
L 1946 2304 
L 2342 3921 
z
M 3424 2275 
C 4122 2402 4755 2886 4755 3473 
C 4755 3970 4314 4352 3590 4352 
L 1536 4352 
C 1414 4352 1357 4352 1357 4226 
C 1357 4160 1414 4160 1510 4160 
C 1901 4160 1901 4112 1901 4044 
C 1901 4032 1901 3993 1875 3897 
L 1011 472 
C 954 249 941 185 493 185 
C 371 185 307 185 307 70 
C 307 0 346 0 474 0 
L 2669 0 
C 3648 0 4403 739 4403 1383 
C 4403 1906 3942 2224 3424 2275 
z
M 2515 185 
L 1651 185 
C 1562 185 1549 185 1510 192 
C 1440 198 1434 211 1434 261 
C 1434 305 1446 343 1459 399 
L 1907 2176 
L 3110 2176 
C 3866 2176 3866 1483 3866 1433 
C 3866 828 3309 185 2515 185 
z
" transform="scale(0.015625)"/>
      <path id="CMMI12-72" d="M 2490 2612 
C 2291 2574 2189 2433 2189 2293 
C 2189 2139 2310 2088 2400 2088 
C 2579 2088 2726 2242 2726 2433 
C 2726 2638 2528 2816 2208 2816 
C 1952 2816 1658 2701 1389 2312 
C 1344 2650 1088 2816 832 2816 
C 582 2816 454 2625 378 2484 
C 269 2254 173 1871 173 1839 
C 173 1814 198 1782 243 1782 
C 294 1782 301 1788 339 1935 
C 435 2318 557 2689 813 2689 
C 966 2689 1011 2580 1011 2395 
C 1011 2254 947 2005 902 1807 
L 723 1118 
C 698 996 627 709 595 594 
C 550 428 480 128 480 96 
C 480 6 550 -64 646 -64 
C 717 -64 838 -19 877 109 
C 896 160 1133 1124 1171 1271 
C 1203 1411 1242 1546 1274 1686 
C 1299 1775 1325 1878 1344 1961 
C 1363 2018 1536 2331 1696 2472 
C 1773 2542 1939 2689 2202 2689 
C 2304 2689 2406 2670 2490 2612 
z
" transform="scale(0.015625)"/>
      <path id="CMMI12-6f" d="M 2918 1756 
C 2918 2363 2522 2816 1939 2816 
C 1094 2816 262 1897 262 996 
C 262 390 659 -64 1242 -64 
C 2093 -64 2918 856 2918 1756 
z
M 1248 64 
C 928 64 691 319 691 766 
C 691 1060 845 1712 1024 2031 
C 1312 2523 1670 2689 1933 2689 
C 2246 2689 2490 2433 2490 1986 
C 2490 1731 2355 1047 2112 658 
C 1850 230 1498 64 1248 64 
z
" transform="scale(0.015625)"/>
      <path id="CMMI12-77" d="M 2202 390 
C 2342 6 2739 -64 2982 -64 
C 3469 -64 3757 358 3936 798 
C 4083 1169 4320 2012 4320 2389 
C 4320 2778 4122 2816 4064 2816 
C 3910 2816 3770 2663 3770 2535 
C 3770 2459 3814 2414 3846 2389 
C 3904 2331 4070 2159 4070 1827 
C 4070 1609 3891 1009 3757 709 
C 3578 319 3341 64 3008 64 
C 2650 64 2534 332 2534 626 
C 2534 811 2592 1035 2618 1143 
L 2886 2216 
C 2918 2344 2976 2567 2976 2593 
C 2976 2689 2899 2753 2803 2753 
C 2618 2753 2573 2593 2534 2440 
C 2470 2191 2202 1111 2176 971 
C 2150 862 2150 792 2150 651 
C 2150 498 1946 255 1939 243 
C 1869 172 1766 64 1568 64 
C 1062 64 1062 543 1062 651 
C 1062 856 1107 1137 1395 1897 
C 1472 2095 1504 2178 1504 2305 
C 1504 2574 1312 2816 998 2816 
C 410 2816 173 1890 173 1839 
C 173 1814 198 1782 243 1782 
C 301 1782 307 1807 333 1896 
C 493 2454 742 2682 979 2682 
C 1043 2682 1146 2682 1146 2478 
C 1146 2446 1146 2312 1037 2031 
C 736 1233 672 971 672 728 
C 672 57 1222 -64 1549 -64 
C 1658 -64 1946 -64 2202 390 
z
" transform="scale(0.015625)"/>
     </defs>
     <use xlink:href="#CMR17-4d" transform="scale(0.996264)"/>
     <use xlink:href="#CMR17-6f" transform="translate(84.686941 0) scale(0.996264)"/>
     <use xlink:href="#CMR17-64" transform="translate(132.979856 0) scale(0.996264)"/>
     <use xlink:href="#CMR17-65" transform="translate(183.875226 0) scale(0.996264)"/>
     <use xlink:href="#CMR17-6c" transform="translate(224.360887 0) scale(0.996264)"/>
     <use xlink:href="#CMR17-3a" transform="translate(249.231945 0) scale(0.996264)"/>
     <use xlink:href="#CMMI12-49" transform="translate(314.588664 0) scale(0.996264)"/>
     <use xlink:href="#CMMI12-6e" transform="translate(365.445178 0) scale(0.996264)"/>
     <use xlink:href="#CMMI12-74" transform="translate(423.675225 0) scale(0.996264)"/>
     <use xlink:href="#CMMI12-42" transform="translate(491.798775 0) scale(0.996264)"/>
     <use xlink:href="#CMMI12-72" transform="translate(570.934299 0) scale(0.996264)"/>
     <use xlink:href="#CMMI12-6f" transform="translate(617.604911 0) scale(0.996264)"/>
     <use xlink:href="#CMMI12-77" transform="translate(664.50022 0) scale(0.996264)"/>
     <use xlink:href="#CMMI12-6e" transform="translate(736.913135 0) scale(0.996264)"/>
     <path d="M 464.384185 0 
L 491.798775 0 
L 491.798775 0.3985 
L 464.384185 0.3985 
L 464.384185 0 
z
"/>
    </g>
   </g>
   <g id="legend_1">
    <g id="patch_7">
     <path d="M 153.674785 136.988242 
L 218.298334 136.988242 
Q 219.498334 136.988242 219.498334 135.788242 
L 219.498334 102.93899 
Q 219.498334 101.73899 218.298334 101.73899 
L 153.674785 101.73899 
Q 152.474785 101.73899 152.474785 102.93899 
L 152.474785 135.788242 
Q 152.474785 136.988242 153.674785 136.988242 
z
" style="fill: #ffffff; opacity: 0.8; stroke: #cccccc; stroke-width: 0.24; stroke-linejoin: miter"/>
    </g>
    <g id="PathCollection_2">
     <g>
      <use xlink:href="#m4f9ecedc54" x="160.874785" y="106.76399" style="fill: #0000ff; stroke: #0000ff; stroke-width: 0.75"/>
     </g>
    </g>
    <g id="text_14">
     <!-- Measurements -->
     <g transform="translate(171.674785 108.33899) scale(0.06 -0.06)">
      <defs>
       <path id="CMR17-73" d="M 1978 2697 
C 1978 2813 1971 2819 1933 2819 
C 1907 2819 1901 2813 1824 2717 
C 1805 2691 1747 2626 1728 2601 
C 1523 2819 1235 2819 1126 2819 
C 416 2819 160 2447 160 2076 
C 160 1498 813 1365 998 1325 
C 1402 1243 1542 1217 1677 1101 
C 1760 1025 1901 884 1901 654 
C 1901 384 1747 38 1158 38 
C 602 38 403 460 288 1021 
C 269 1110 269 1117 218 1117 
C 166 1117 160 1110 160 983 
L 160 63 
C 160 -51 166 -58 205 -58 
C 237 -58 243 -51 275 0 
C 314 57 410 211 448 276 
C 576 103 800 -64 1158 -64 
C 1792 -64 2131 283 2131 784 
C 2131 1112 1958 1285 1875 1362 
C 1683 1561 1459 1606 1190 1657 
C 838 1735 390 1825 390 2217 
C 390 2383 480 2737 1126 2737 
C 1811 2737 1850 2094 1862 1888 
C 1869 1856 1901 1849 1920 1849 
C 1978 1849 1978 1869 1978 1978 
L 1978 2697 
z
" transform="scale(0.015625)"/>
       <path id="CMR17-75" d="M 1882 2693 
L 1882 2528 
C 2259 2528 2317 2489 2317 2186 
L 2317 1032 
C 2317 500 2029 38 1555 38 
C 1030 38 986 348 986 678 
L 986 2763 
L 211 2693 
L 211 2528 
C 467 2528 640 2528 646 2274 
L 646 1058 
C 646 633 646 361 813 183 
C 896 101 1056 -64 1517 -64 
C 2061 -64 2272 377 2323 506 
L 2330 506 
L 2330 -63 
L 3091 -63 
L 3091 128 
C 2714 128 2656 166 2656 473 
L 2656 2763 
L 1882 2693 
z
" transform="scale(0.015625)"/>
       <path id="CMR17-6e" d="M 2656 1933 
C 2656 2259 2592 2790 1837 2790 
C 1331 2790 1069 2400 973 2144 
L 966 2144 
L 966 2790 
L 211 2720 
L 211 2554 
C 589 2554 646 2515 646 2208 
L 646 428 
C 646 184 621 153 211 153 
L 211 -13 
C 365 0 646 0 813 0 
C 979 0 1267 0 1421 -13 
L 1421 153 
C 1011 153 986 178 986 428 
L 986 1658 
C 986 2247 1344 2688 1792 2688 
C 2266 2688 2317 2266 2317 1958 
L 2317 428 
C 2317 184 2291 153 1882 153 
L 1882 -13 
C 2035 0 2317 0 2483 0 
C 2650 0 2938 0 3091 -13 
L 3091 153 
C 2682 153 2656 178 2656 428 
L 2656 1933 
z
" transform="scale(0.015625)"/>
      </defs>
      <use xlink:href="#CMR17-4d" transform="scale(0.996264)"/>
      <use xlink:href="#CMR17-65" transform="translate(84.686941 0) scale(0.996264)"/>
      <use xlink:href="#CMR17-61" transform="translate(125.172601 0) scale(0.996264)"/>
      <use xlink:href="#CMR17-73" transform="translate(170.863078 0) scale(0.996264)"/>
      <use xlink:href="#CMR17-75" transform="translate(206.664416 0) scale(0.996264)"/>
      <use xlink:href="#CMR17-72" transform="translate(257.559786 0) scale(0.996264)"/>
      <use xlink:href="#CMR17-65" transform="translate(292.840553 0) scale(0.996264)"/>
      <use xlink:href="#CMR17-6d" transform="translate(333.326214 0) scale(0.996264)"/>
      <use xlink:href="#CMR17-65" transform="translate(410.245804 0) scale(0.996264)"/>
      <use xlink:href="#CMR17-6e" transform="translate(450.731464 0) scale(0.996264)"/>
      <use xlink:href="#CMR17-74" transform="translate(499.02438 0) scale(0.996264)"/>
      <use xlink:href="#CMR17-73" transform="translate(534.305148 0) scale(0.996264)"/>
     </g>
    </g>
    <g id="line2d_15">
     <path d="M 154.874785 114.601303 
L 160.874785 114.601303 
L 166.874785 114.601303 
" style="fill: none; stroke-dasharray: 1.4,2.31; stroke-dashoffset: 0; stroke: #ff0000; stroke-width: 1.4"/>
    </g>
    <g id="text_15">
     <!-- $std_{est}$ -->
     <g transform="translate(171.674785 116.701303) scale(0.06 -0.06)">
      <defs>
       <path id="CMMI12-73" d="M 1459 1280 
C 1568 1261 1741 1223 1779 1216 
C 1862 1192 2150 1090 2150 783 
C 2150 586 1971 70 1229 70 
C 1094 70 614 70 486 436 
C 742 404 870 603 870 745 
C 870 880 781 950 653 950 
C 512 950 326 841 326 552 
C 326 173 710 -64 1222 -64 
C 2195 -64 2483 651 2483 984 
C 2483 1079 2483 1258 2278 1462 
C 2118 1616 1965 1648 1619 1718 
C 1446 1756 1171 1814 1171 2101 
C 1171 2229 1286 2689 1894 2689 
C 2163 2689 2426 2589 2490 2368 
C 2208 2368 2195 2125 2195 2119 
C 2195 1984 2317 1946 2374 1946 
C 2464 1946 2643 2015 2643 2281 
C 2643 2545 2400 2816 1901 2816 
C 1062 2816 838 2160 838 1899 
C 838 1414 1312 1312 1459 1280 
z
" transform="scale(0.015625)"/>
       <path id="CMMI12-64" d="M 3219 4257 
C 3226 4282 3238 4320 3238 4352 
C 3238 4416 3174 4416 3162 4416 
C 3155 4416 2842 4388 2810 4380 
C 2701 4373 2605 4358 2490 4358 
C 2330 4345 2285 4339 2285 4224 
C 2285 4160 2336 4160 2426 4160 
C 2739 4160 2746 4103 2746 4040 
C 2746 4002 2733 3952 2726 3933 
L 2336 2395 
C 2266 2561 2093 2816 1760 2816 
C 1037 2816 256 1884 256 939 
C 256 307 627 -64 1062 -64 
C 1414 -64 1715 211 1894 422 
C 1958 45 2259 -64 2451 -64 
C 2643 -64 2797 51 2912 281 
C 3014 498 3104 888 3104 913 
C 3104 945 3078 971 3040 971 
C 2982 971 2976 939 2950 843 
C 2854 466 2733 64 2470 64 
C 2285 64 2272 229 2272 357 
C 2272 382 2272 515 2317 694 
L 3219 4257 
z
M 1926 760 
C 1894 651 1894 639 1805 517 
C 1664 338 1382 64 1082 64 
C 819 64 672 300 672 677 
C 672 1028 870 1743 992 2012 
C 1210 2459 1510 2689 1760 2689 
C 2182 2689 2266 2165 2266 2114 
C 2266 2108 2246 2024 2240 2012 
L 1926 760 
z
" transform="scale(0.015625)"/>
       <path id="CMMI12-65" d="M 1146 1479 
C 1318 1479 1754 1479 2061 1595 
C 2547 1783 2592 2158 2592 2274 
C 2592 2558 2349 2816 1926 2816 
C 1254 2816 288 2210 288 1073 
C 288 402 672 -64 1254 -64 
C 2125 -64 2675 609 2675 692 
C 2675 730 2637 762 2611 762 
C 2592 762 2586 756 2528 699 
C 2118 159 1510 64 1267 64 
C 902 64 710 350 710 822 
C 710 911 710 1071 806 1479 
L 1146 1479 
z
M 838 1600 
C 1114 2592 1722 2689 1926 2689 
C 2208 2689 2400 2522 2400 2277 
C 2400 1600 1376 1600 1107 1600 
L 838 1600 
z
" transform="scale(0.015625)"/>
      </defs>
      <use xlink:href="#CMMI12-73" transform="scale(0.996264)"/>
      <use xlink:href="#CMMI12-74" transform="translate(45.950048 0) scale(0.996264)"/>
      <use xlink:href="#CMMI12-64" transform="translate(81.176378 0) scale(0.996264)"/>
      <use xlink:href="#CMMI12-65" transform="translate(131.865475 -14.943915) scale(0.697382)"/>
      <use xlink:href="#CMMI12-73" transform="translate(163.513731 -14.943915) scale(0.697382)"/>
      <use xlink:href="#CMMI12-74" transform="translate(195.67862 -14.943915) scale(0.697382)"/>
     </g>
    </g>
    <g id="line2d_16">
     <path d="M 154.874785 122.963616 
L 160.874785 122.963616 
L 166.874785 122.963616 
" style="fill: none; stroke: #1f77b4; stroke-width: 0.5; stroke-linecap: square"/>
    </g>
    <g id="text_16">
     <!-- Sampled Data -->
     <g transform="translate(171.674785 125.063616) scale(0.06 -0.06)">
      <defs>
       <path id="CMR17-53" d="M 2803 4290 
C 2803 4404 2797 4411 2758 4411 
C 2720 4411 2707 4385 2682 4328 
L 2490 3907 
C 2246 4257 1875 4416 1472 4416 
C 819 4416 294 3901 294 3253 
C 294 3056 339 2776 557 2510 
C 794 2218 1018 2167 1530 2033 
C 1722 1982 2042 1899 2106 1874 
C 2470 1722 2662 1341 2662 985 
C 2662 527 2336 38 1779 38 
C 1094 38 454 419 410 1311 
C 403 1413 397 1419 352 1419 
C 301 1419 294 1413 294 1285 
L 294 -1 
C 294 -115 301 -122 339 -122 
C 384 -122 397 -90 486 108 
C 493 127 493 140 614 381 
C 934 -39 1472 -128 1779 -128 
C 2477 -128 2970 451 2970 1124 
C 2970 1454 2848 1708 2778 1823 
C 2509 2230 2221 2306 1914 2382 
C 1869 2402 1856 2402 1498 2490 
C 1152 2579 1005 2624 845 2796 
C 666 2992 602 3196 602 3399 
C 602 3812 934 4263 1478 4263 
C 2157 4263 2579 3786 2675 2993 
C 2694 2878 2701 2872 2746 2872 
C 2803 2872 2803 2891 2803 2999 
L 2803 4290 
z
" transform="scale(0.015625)"/>
       <path id="CMR17-70" d="M 1408 -1063 
C 998 -1063 973 -1037 973 -789 
L 973 402 
C 1158 134 1427 -38 1766 -38 
C 2406 -38 3053 523 3053 1388 
C 3053 2191 2496 2802 1837 2802 
C 1453 2802 1139 2592 960 2338 
L 960 2802 
L 198 2732 
L 198 2567 
C 576 2567 634 2528 634 2223 
L 634 -789 
C 634 -1031 608 -1063 198 -1063 
L 198 -1228 
C 352 -1216 634 -1216 800 -1216 
C 966 -1216 1254 -1216 1408 -1228 
L 1408 -1063 
z
M 973 2012 
C 973 2102 973 2235 1222 2471 
C 1254 2497 1472 2688 1792 2688 
C 2259 2688 2643 2108 2643 1382 
C 2643 656 2234 64 1728 64 
C 1498 64 1248 172 1056 472 
C 973 612 973 650 973 752 
L 973 2012 
z
" transform="scale(0.015625)"/>
       <path id="CMR17-44" d="M 333 4352 
L 333 4186 
C 774 4186 845 4186 845 3900 
L 845 452 
C 845 166 774 166 333 166 
L 333 0 
L 2368 0 
C 3398 0 4224 943 4224 2141 
C 4224 3346 3411 4352 2368 4352 
L 333 4352 
z
M 1523 166 
C 1267 166 1254 197 1254 414 
L 1254 3938 
C 1254 4155 1267 4186 1523 4186 
L 2240 4186 
C 2771 4186 3750 3874 3750 2141 
C 3750 1242 3488 879 3366 707 
C 3213 510 2848 166 2240 166 
L 1523 166 
z
" transform="scale(0.015625)"/>
      </defs>
      <use xlink:href="#CMR17-53" transform="scale(0.996264)"/>
      <use xlink:href="#CMR17-61" transform="translate(50.89537 0) scale(0.996264)"/>
      <use xlink:href="#CMR17-6d" transform="translate(96.585847 0) scale(0.996264)"/>
      <use xlink:href="#CMR17-70" transform="translate(173.505437 0) scale(0.996264)"/>
      <use xlink:href="#CMR17-6c" transform="translate(224.400807 0) scale(0.996264)"/>
      <use xlink:href="#CMR17-65" transform="translate(249.271865 0) scale(0.996264)"/>
      <use xlink:href="#CMR17-64" transform="translate(289.757525 0) scale(0.996264)"/>
      <use xlink:href="#CMR17-44" transform="translate(370.728862 0) scale(0.996264)"/>
      <use xlink:href="#CMR17-61" transform="translate(441.122418 0) scale(0.996264)"/>
      <use xlink:href="#CMR17-74" transform="translate(486.812895 0) scale(0.996264)"/>
      <use xlink:href="#CMR17-61" transform="translate(522.093662 0) scale(0.996264)"/>
     </g>
    </g>
    <g id="line2d_17">
     <path d="M 154.874785 131.325929 
L 160.874785 131.325929 
L 166.874785 131.325929 
" style="fill: none; stroke: #ff7f0e; stroke-width: 0.5; stroke-linecap: square"/>
    </g>
    <g id="text_17">
     <!-- Sampled Data -->
     <g transform="translate(171.674785 133.425929) scale(0.06 -0.06)">
      <use xlink:href="#CMR17-53" transform="scale(0.996264)"/>
      <use xlink:href="#CMR17-61" transform="translate(50.89537 0) scale(0.996264)"/>
      <use xlink:href="#CMR17-6d" transform="translate(96.585847 0) scale(0.996264)"/>
      <use xlink:href="#CMR17-70" transform="translate(173.505437 0) scale(0.996264)"/>
      <use xlink:href="#CMR17-6c" transform="translate(224.400807 0) scale(0.996264)"/>
      <use xlink:href="#CMR17-65" transform="translate(249.271865 0) scale(0.996264)"/>
      <use xlink:href="#CMR17-64" transform="translate(289.757525 0) scale(0.996264)"/>
      <use xlink:href="#CMR17-44" transform="translate(370.728862 0) scale(0.996264)"/>
      <use xlink:href="#CMR17-61" transform="translate(441.122418 0) scale(0.996264)"/>
      <use xlink:href="#CMR17-74" transform="translate(486.812895 0) scale(0.996264)"/>
      <use xlink:href="#CMR17-61" transform="translate(522.093662 0) scale(0.996264)"/>
     </g>
    </g>
   </g>
  </g>
 </g>
 <defs>
  <clipPath id="pe48551a4d9">
   <rect x="37.010549" y="12.641765" width="185.487785" height="127.346477"/>
  </clipPath>
 </defs>
</svg>
